solid OpenSCAD_Model
  facet normal 0.99863 0.0523362 0
    outer loop
      vertex 12.4738 0.5 2.5
      vertex 12.4315 1.30661 -2.5
      vertex 12.4315 1.30661 2.5
    endloop
  endfacet
  facet normal 0.99863 0.0523362 0
    outer loop
      vertex 12.4315 1.30661 -2.5
      vertex 12.4738 0.5 2.5
      vertex 12.4738 0.5 -2.5
    endloop
  endfacet
  facet normal -0.99863 0.0523363 0
    outer loop
      vertex -12.5 0 -2.5
      vertex -12.4315 1.30661 2.5
      vertex -12.4315 1.30661 -2.5
    endloop
  endfacet
  facet normal -0.99863 0.0523363 0
    outer loop
      vertex -12.4315 1.30661 2.5
      vertex -12.5 0 -2.5
      vertex -12.5 0 2.5
    endloop
  endfacet
  facet normal 0.0523363 0.99863 -0
    outer loop
      vertex 1.30661 12.4315 -2.5
      vertex 0 12.5 2.5
      vertex 1.30661 12.4315 2.5
    endloop
  endfacet
  facet normal 0.0523363 0.99863 0
    outer loop
      vertex 0 12.5 2.5
      vertex 1.30661 12.4315 -2.5
      vertex 0 12.5 -2.5
    endloop
  endfacet
  facet normal 0.707107 0.707107 0
    outer loop
      vertex 9.28931 8.36413 2.5
      vertex 8.36413 9.28931 -2.5
      vertex 8.36413 9.28931 2.5
    endloop
  endfacet
  facet normal 0.707107 0.707107 0
    outer loop
      vertex 8.36413 9.28931 -2.5
      vertex 9.28931 8.36413 2.5
      vertex 9.28931 8.36413 -2.5
    endloop
  endfacet
  facet normal -0.62932 0.777146 0
    outer loop
      vertex -7.34731 10.1127 -2.5
      vertex -8.36413 9.28931 2.5
      vertex -7.34731 10.1127 2.5
    endloop
  endfacet
  facet normal -0.62932 0.777146 0
    outer loop
      vertex -8.36413 9.28931 2.5
      vertex -7.34731 10.1127 -2.5
      vertex -8.36413 9.28931 -2.5
    endloop
  endfacet
  facet normal -0.358367 0.933581 0
    outer loop
      vertex -3.86271 11.8882 -2.5
      vertex -5.08421 11.4193 2.5
      vertex -3.86271 11.8882 2.5
    endloop
  endfacet
  facet normal -0.358367 0.933581 0
    outer loop
      vertex -5.08421 11.4193 2.5
      vertex -3.86271 11.8882 -2.5
      vertex -5.08421 11.4193 -2.5
    endloop
  endfacet
  facet normal -0.933581 -0.358367 0
    outer loop
      vertex -11.4193 -5.08421 -2.5
      vertex -11.8882 -3.86271 2.5
      vertex -11.8882 -3.86271 -2.5
    endloop
  endfacet
  facet normal -0.933581 -0.358367 0
    outer loop
      vertex -11.8882 -3.86271 2.5
      vertex -11.4193 -5.08421 -2.5
      vertex -11.4193 -5.08421 2.5
    endloop
  endfacet
  facet normal 0.933581 0.358367 0
    outer loop
      vertex 11.8882 3.86271 2.5
      vertex 11.4193 5.08421 -2.5
      vertex 11.4193 5.08421 2.5
    endloop
  endfacet
  facet normal 0.933581 0.358367 0
    outer loop
      vertex 11.4193 5.08421 -2.5
      vertex 11.8882 3.86271 2.5
      vertex 11.8882 3.86271 -2.5
    endloop
  endfacet
  facet normal 0.987688 0.156434 0
    outer loop
      vertex 12.4315 1.30661 2.5
      vertex 12.2268 2.5989 -2.5
      vertex 12.2268 2.5989 2.5
    endloop
  endfacet
  facet normal 0.987688 0.156434 0
    outer loop
      vertex 12.2268 2.5989 -2.5
      vertex 12.4315 1.30661 2.5
      vertex 12.4315 1.30661 -2.5
    endloop
  endfacet
  facet normal 0.45399 0.891007 -0
    outer loop
      vertex 6.25 10.8253 -2.5
      vertex 5.08421 11.4193 2.5
      vertex 6.25 10.8253 2.5
    endloop
  endfacet
  facet normal 0.45399 0.891007 0
    outer loop
      vertex 5.08421 11.4193 2.5
      vertex 6.25 10.8253 -2.5
      vertex 5.08421 11.4193 -2.5
    endloop
  endfacet
  facet normal 0.54464 0.83867 -0
    outer loop
      vertex 7.34731 10.1127 -2.5
      vertex 6.25 10.8253 2.5
      vertex 7.34731 10.1127 2.5
    endloop
  endfacet
  facet normal 0.54464 0.83867 0
    outer loop
      vertex 6.25 10.8253 2.5
      vertex 7.34731 10.1127 -2.5
      vertex 6.25 10.8253 -2.5
    endloop
  endfacet
  facet normal -0.891006 0.453991 0
    outer loop
      vertex -11.4193 5.08421 -2.5
      vertex -10.8253 6.25 2.5
      vertex -10.8253 6.25 -2.5
    endloop
  endfacet
  facet normal -0.891006 0.453991 0
    outer loop
      vertex -10.8253 6.25 2.5
      vertex -11.4193 5.08421 -2.5
      vertex -11.4193 5.08421 2.5
    endloop
  endfacet
  facet normal -0.156434 0.987688 0
    outer loop
      vertex -1.30661 12.4315 -2.5
      vertex -2.5989 12.2268 2.5
      vertex -1.30661 12.4315 2.5
    endloop
  endfacet
  facet normal -0.156434 0.987688 0
    outer loop
      vertex -2.5989 12.2268 2.5
      vertex -1.30661 12.4315 -2.5
      vertex -2.5989 12.2268 -2.5
    endloop
  endfacet
  facet normal 0.965926 -0.25882 0
    outer loop
      vertex 11.8882 -3.86271 2.5
      vertex 12.2268 -2.5989 -2.5
      vertex 12.2268 -2.5989 2.5
    endloop
  endfacet
  facet normal 0.965926 -0.25882 0
    outer loop
      vertex 12.2268 -2.5989 -2.5
      vertex 11.8882 -3.86271 2.5
      vertex 11.8882 -3.86271 -2.5
    endloop
  endfacet
  facet normal 0 0 -1
    outer loop
      vertex 11.9343 -1.25434 -2.5
      vertex 12.4315 -1.30661 -2.5
      vertex 12.2268 -2.5989 -2.5
    endloop
  endfacet
  facet normal 0 0 -1
    outer loop
      vertex 12.4315 -1.30661 -2.5
      vertex 11.9343 -1.25434 -2.5
      vertex 12.4738 -0.5 -2.5
    endloop
  endfacet
  facet normal -0 0 -1
    outer loop
      vertex 12.4738 -0.5 -2.5
      vertex 11.9343 -1.25434 -2.5
      vertex 11.9738 -0.5 -2.5
    endloop
  endfacet
  facet normal 0 0 -1
    outer loop
      vertex 11.7378 -2.49494 -2.5
      vertex 12.2268 -2.5989 -2.5
      vertex 11.8882 -3.86271 -2.5
    endloop
  endfacet
  facet normal 0 0 -1
    outer loop
      vertex 12.2268 -2.5989 -2.5
      vertex 11.7378 -2.49494 -2.5
      vertex 11.9343 -1.25434 -2.5
    endloop
  endfacet
  facet normal 0 0 -1
    outer loop
      vertex 11.4127 -3.7082 -2.5
      vertex 11.8882 -3.86271 -2.5
      vertex 11.4193 -5.08421 -2.5
    endloop
  endfacet
  facet normal 0 0 -1
    outer loop
      vertex 11.8882 -3.86271 -2.5
      vertex 11.4127 -3.7082 -2.5
      vertex 11.7378 -2.49494 -2.5
    endloop
  endfacet
  facet normal 0 0 -1
    outer loop
      vertex 11.4193 -5.08421 -2.5
      vertex 10.9625 -4.88084 -2.5
      vertex 11.4127 -3.7082 -2.5
    endloop
  endfacet
  facet normal 0 0 -1
    outer loop
      vertex 10.8253 -6.25 -2.5
      vertex 10.9625 -4.88084 -2.5
      vertex 11.4193 -5.08421 -2.5
    endloop
  endfacet
  facet normal 0 0 -1
    outer loop
      vertex 10.8253 -6.25 -2.5
      vertex 10.3923 -6 -2.5
      vertex 10.9625 -4.88084 -2.5
    endloop
  endfacet
  facet normal 0 0 -1
    outer loop
      vertex 10.1127 -7.34731 -2.5
      vertex 10.3923 -6 -2.5
      vertex 10.8253 -6.25 -2.5
    endloop
  endfacet
  facet normal 0 0 -1
    outer loop
      vertex 10.1127 -7.34731 -2.5
      vertex 9.7082 -7.05342 -2.5
      vertex 10.3923 -6 -2.5
    endloop
  endfacet
  facet normal 0 0 -1
    outer loop
      vertex 9.28931 -8.36413 -2.5
      vertex 9.7082 -7.05342 -2.5
      vertex 10.1127 -7.34731 -2.5
    endloop
  endfacet
  facet normal 0 0 -1
    outer loop
      vertex 9.28931 -8.36413 -2.5
      vertex 8.91774 -8.02957 -2.5
      vertex 9.7082 -7.05342 -2.5
    endloop
  endfacet
  facet normal 0 0 -1
    outer loop
      vertex 8.36413 -9.28931 -2.5
      vertex 8.91774 -8.02957 -2.5
      vertex 9.28931 -8.36413 -2.5
    endloop
  endfacet
  facet normal 0 0 -1
    outer loop
      vertex 8.36413 -9.28931 -2.5
      vertex 8.02957 -8.91774 -2.5
      vertex 8.91774 -8.02957 -2.5
    endloop
  endfacet
  facet normal 0 0 -1
    outer loop
      vertex 7.34731 -10.1127 -2.5
      vertex 8.02957 -8.91774 -2.5
      vertex 8.36413 -9.28931 -2.5
    endloop
  endfacet
  facet normal 0 0 -1
    outer loop
      vertex 7.34731 -10.1127 -2.5
      vertex 7.05342 -9.7082 -2.5
      vertex 8.02957 -8.91774 -2.5
    endloop
  endfacet
  facet normal 0 0 -1
    outer loop
      vertex 6.25 -10.8253 -2.5
      vertex 7.05342 -9.7082 -2.5
      vertex 7.34731 -10.1127 -2.5
    endloop
  endfacet
  facet normal 0 0 -1
    outer loop
      vertex 6.25 -10.8253 -2.5
      vertex 6 -10.3923 -2.5
      vertex 7.05342 -9.7082 -2.5
    endloop
  endfacet
  facet normal 0 0 -1
    outer loop
      vertex 5.08421 -11.4193 -2.5
      vertex 6 -10.3923 -2.5
      vertex 6.25 -10.8253 -2.5
    endloop
  endfacet
  facet normal 0 0 -1
    outer loop
      vertex 5.08421 -11.4193 -2.5
      vertex 4.88084 -10.9625 -2.5
      vertex 6 -10.3923 -2.5
    endloop
  endfacet
  facet normal 0 0 -1
    outer loop
      vertex 3.86271 -11.8882 -2.5
      vertex 4.88084 -10.9625 -2.5
      vertex 5.08421 -11.4193 -2.5
    endloop
  endfacet
  facet normal 0 0 -1
    outer loop
      vertex 3.86271 -11.8882 -2.5
      vertex 3.7082 -11.4127 -2.5
      vertex 4.88084 -10.9625 -2.5
    endloop
  endfacet
  facet normal 0 0 -1
    outer loop
      vertex 2.5989 -12.2268 -2.5
      vertex 3.7082 -11.4127 -2.5
      vertex 3.86271 -11.8882 -2.5
    endloop
  endfacet
  facet normal 0 0 -1
    outer loop
      vertex 2.5989 -12.2268 -2.5
      vertex 2.49494 -11.7378 -2.5
      vertex 3.7082 -11.4127 -2.5
    endloop
  endfacet
  facet normal 0 0 -1
    outer loop
      vertex 1.30661 -12.4315 -2.5
      vertex 2.49494 -11.7378 -2.5
      vertex 2.5989 -12.2268 -2.5
    endloop
  endfacet
  facet normal 0 0 -1
    outer loop
      vertex 1.30661 -12.4315 -2.5
      vertex 1.25434 -11.9343 -2.5
      vertex 2.49494 -11.7378 -2.5
    endloop
  endfacet
  facet normal 0 0 -1
    outer loop
      vertex 0 -12.5 -2.5
      vertex 1.25434 -11.9343 -2.5
      vertex 1.30661 -12.4315 -2.5
    endloop
  endfacet
  facet normal 0 0 -1
    outer loop
      vertex 0 -12.5 -2.5
      vertex 0 -12 -2.5
      vertex 1.25434 -11.9343 -2.5
    endloop
  endfacet
  facet normal 0 0 -1
    outer loop
      vertex 0 -12.5 -2.5
      vertex -1.25434 -11.9343 -2.5
      vertex 0 -12 -2.5
    endloop
  endfacet
  facet normal 0 0 -1
    outer loop
      vertex -1.30661 -12.4315 -2.5
      vertex -1.25434 -11.9343 -2.5
      vertex 0 -12.5 -2.5
    endloop
  endfacet
  facet normal 0 0 -1
    outer loop
      vertex -1.30661 -12.4315 -2.5
      vertex -2.49494 -11.7378 -2.5
      vertex -1.25434 -11.9343 -2.5
    endloop
  endfacet
  facet normal 0 0 -1
    outer loop
      vertex -2.5989 -12.2268 -2.5
      vertex -2.49494 -11.7378 -2.5
      vertex -1.30661 -12.4315 -2.5
    endloop
  endfacet
  facet normal 0 0 -1
    outer loop
      vertex -2.5989 -12.2268 -2.5
      vertex -3.7082 -11.4127 -2.5
      vertex -2.49494 -11.7378 -2.5
    endloop
  endfacet
  facet normal 0 0 -1
    outer loop
      vertex -3.86271 -11.8882 -2.5
      vertex -3.7082 -11.4127 -2.5
      vertex -2.5989 -12.2268 -2.5
    endloop
  endfacet
  facet normal 0 0 -1
    outer loop
      vertex -3.86271 -11.8882 -2.5
      vertex -4.88084 -10.9625 -2.5
      vertex -3.7082 -11.4127 -2.5
    endloop
  endfacet
  facet normal 0 0 -1
    outer loop
      vertex -5.08421 -11.4193 -2.5
      vertex -4.88084 -10.9625 -2.5
      vertex -3.86271 -11.8882 -2.5
    endloop
  endfacet
  facet normal 0 0 -1
    outer loop
      vertex -5.08421 -11.4193 -2.5
      vertex -6 -10.3923 -2.5
      vertex -4.88084 -10.9625 -2.5
    endloop
  endfacet
  facet normal 0 0 -1
    outer loop
      vertex -6.25 -10.8253 -2.5
      vertex -6 -10.3923 -2.5
      vertex -5.08421 -11.4193 -2.5
    endloop
  endfacet
  facet normal 0 0 -1
    outer loop
      vertex -6.25 -10.8253 -2.5
      vertex -7.05342 -9.7082 -2.5
      vertex -6 -10.3923 -2.5
    endloop
  endfacet
  facet normal 0 0 -1
    outer loop
      vertex -7.34731 -10.1127 -2.5
      vertex -7.05342 -9.7082 -2.5
      vertex -6.25 -10.8253 -2.5
    endloop
  endfacet
  facet normal 0 0 -1
    outer loop
      vertex -7.34731 -10.1127 -2.5
      vertex -8.02957 -8.91774 -2.5
      vertex -7.05342 -9.7082 -2.5
    endloop
  endfacet
  facet normal 0 0 -1
    outer loop
      vertex -8.36413 -9.28931 -2.5
      vertex -8.02957 -8.91774 -2.5
      vertex -7.34731 -10.1127 -2.5
    endloop
  endfacet
  facet normal 0 0 -1
    outer loop
      vertex -8.36413 -9.28931 -2.5
      vertex -8.91774 -8.02957 -2.5
      vertex -8.02957 -8.91774 -2.5
    endloop
  endfacet
  facet normal 0 0 -1
    outer loop
      vertex -9.28931 -8.36413 -2.5
      vertex -8.91774 -8.02957 -2.5
      vertex -8.36413 -9.28931 -2.5
    endloop
  endfacet
  facet normal 0 0 -1
    outer loop
      vertex -9.28931 -8.36413 -2.5
      vertex -9.7082 -7.05342 -2.5
      vertex -8.91774 -8.02957 -2.5
    endloop
  endfacet
  facet normal 0 0 -1
    outer loop
      vertex -10.1127 -7.34731 -2.5
      vertex -9.7082 -7.05342 -2.5
      vertex -9.28931 -8.36413 -2.5
    endloop
  endfacet
  facet normal 0 0 -1
    outer loop
      vertex -10.1127 -7.34731 -2.5
      vertex -10.3923 -6 -2.5
      vertex -9.7082 -7.05342 -2.5
    endloop
  endfacet
  facet normal 0 0 -1
    outer loop
      vertex -10.8253 -6.25 -2.5
      vertex -10.3923 -6 -2.5
      vertex -10.1127 -7.34731 -2.5
    endloop
  endfacet
  facet normal 0 0 -1
    outer loop
      vertex -10.8253 -6.25 -2.5
      vertex -10.9625 -4.88084 -2.5
      vertex -10.3923 -6 -2.5
    endloop
  endfacet
  facet normal 0 0 -1
    outer loop
      vertex -11.4193 -5.08421 -2.5
      vertex -10.9625 -4.88084 -2.5
      vertex -10.8253 -6.25 -2.5
    endloop
  endfacet
  facet normal -0 0 -1
    outer loop
      vertex -10.9625 -4.88084 -2.5
      vertex -11.4193 -5.08421 -2.5
      vertex -11.4127 -3.7082 -2.5
    endloop
  endfacet
  facet normal 0 0 -1
    outer loop
      vertex -11.8882 -3.86271 -2.5
      vertex -11.4127 -3.7082 -2.5
      vertex -11.4193 -5.08421 -2.5
    endloop
  endfacet
  facet normal -0 0 -1
    outer loop
      vertex -11.4127 -3.7082 -2.5
      vertex -11.8882 -3.86271 -2.5
      vertex -11.7378 -2.49494 -2.5
    endloop
  endfacet
  facet normal 0 0 -1
    outer loop
      vertex -12.2268 -2.5989 -2.5
      vertex -11.7378 -2.49494 -2.5
      vertex -11.8882 -3.86271 -2.5
    endloop
  endfacet
  facet normal -0 0 -1
    outer loop
      vertex -11.7378 -2.49494 -2.5
      vertex -12.2268 -2.5989 -2.5
      vertex -11.9343 -1.25434 -2.5
    endloop
  endfacet
  facet normal 0 0 -1
    outer loop
      vertex -12.4315 -1.30661 -2.5
      vertex -11.9343 -1.25434 -2.5
      vertex -12.2268 -2.5989 -2.5
    endloop
  endfacet
  facet normal 0 0 -1
    outer loop
      vertex 11.9343 1.25434 -2.5
      vertex 12.4315 1.30661 -2.5
      vertex 12.4738 0.5 -2.5
    endloop
  endfacet
  facet normal 0 0 -1
    outer loop
      vertex 11.9343 1.25434 -2.5
      vertex 12.4738 0.5 -2.5
      vertex 11.9738 0.5 -2.5
    endloop
  endfacet
  facet normal -0 0 -1
    outer loop
      vertex 12.4315 1.30661 -2.5
      vertex 11.9343 1.25434 -2.5
      vertex 12.2268 2.5989 -2.5
    endloop
  endfacet
  facet normal 0 0 -1
    outer loop
      vertex 11.7378 2.49494 -2.5
      vertex 12.2268 2.5989 -2.5
      vertex 11.9343 1.25434 -2.5
    endloop
  endfacet
  facet normal -0 0 -1
    outer loop
      vertex 12.2268 2.5989 -2.5
      vertex 11.7378 2.49494 -2.5
      vertex 11.8882 3.86271 -2.5
    endloop
  endfacet
  facet normal 0 0 -1
    outer loop
      vertex 11.4127 3.7082 -2.5
      vertex 11.8882 3.86271 -2.5
      vertex 11.7378 2.49494 -2.5
    endloop
  endfacet
  facet normal -0 0 -1
    outer loop
      vertex 11.8882 3.86271 -2.5
      vertex 11.4127 3.7082 -2.5
      vertex 11.4193 5.08421 -2.5
    endloop
  endfacet
  facet normal 0 0 -1
    outer loop
      vertex 10.9625 4.88084 -2.5
      vertex 11.4193 5.08421 -2.5
      vertex 11.4127 3.7082 -2.5
    endloop
  endfacet
  facet normal 0 0 -1
    outer loop
      vertex 10.9625 4.88084 -2.5
      vertex 10.8253 6.25 -2.5
      vertex 11.4193 5.08421 -2.5
    endloop
  endfacet
  facet normal 0 0 -1
    outer loop
      vertex 10.3923 6 -2.5
      vertex 10.8253 6.25 -2.5
      vertex 10.9625 4.88084 -2.5
    endloop
  endfacet
  facet normal 0 0 -1
    outer loop
      vertex 10.3923 6 -2.5
      vertex 10.1127 7.34731 -2.5
      vertex 10.8253 6.25 -2.5
    endloop
  endfacet
  facet normal 0 0 -1
    outer loop
      vertex 9.7082 7.05342 -2.5
      vertex 10.1127 7.34731 -2.5
      vertex 10.3923 6 -2.5
    endloop
  endfacet
  facet normal 0 0 -1
    outer loop
      vertex 9.7082 7.05342 -2.5
      vertex 9.28931 8.36413 -2.5
      vertex 10.1127 7.34731 -2.5
    endloop
  endfacet
  facet normal 0 0 -1
    outer loop
      vertex 8.91774 8.02957 -2.5
      vertex 9.28931 8.36413 -2.5
      vertex 9.7082 7.05342 -2.5
    endloop
  endfacet
  facet normal 0 0 -1
    outer loop
      vertex 8.91774 8.02957 -2.5
      vertex 8.36413 9.28931 -2.5
      vertex 9.28931 8.36413 -2.5
    endloop
  endfacet
  facet normal 0 0 -1
    outer loop
      vertex 8.02957 8.91774 -2.5
      vertex 8.36413 9.28931 -2.5
      vertex 8.91774 8.02957 -2.5
    endloop
  endfacet
  facet normal 0 0 -1
    outer loop
      vertex 8.02957 8.91774 -2.5
      vertex 7.34731 10.1127 -2.5
      vertex 8.36413 9.28931 -2.5
    endloop
  endfacet
  facet normal 0 0 -1
    outer loop
      vertex 7.05342 9.7082 -2.5
      vertex 7.34731 10.1127 -2.5
      vertex 8.02957 8.91774 -2.5
    endloop
  endfacet
  facet normal 0 0 -1
    outer loop
      vertex 7.05342 9.7082 -2.5
      vertex 6.25 10.8253 -2.5
      vertex 7.34731 10.1127 -2.5
    endloop
  endfacet
  facet normal 0 0 -1
    outer loop
      vertex 6 10.3923 -2.5
      vertex 6.25 10.8253 -2.5
      vertex 7.05342 9.7082 -2.5
    endloop
  endfacet
  facet normal 0 0 -1
    outer loop
      vertex 6 10.3923 -2.5
      vertex 5.08421 11.4193 -2.5
      vertex 6.25 10.8253 -2.5
    endloop
  endfacet
  facet normal 0 0 -1
    outer loop
      vertex 4.88084 10.9625 -2.5
      vertex 5.08421 11.4193 -2.5
      vertex 6 10.3923 -2.5
    endloop
  endfacet
  facet normal 0 0 -1
    outer loop
      vertex 4.88084 10.9625 -2.5
      vertex 3.86271 11.8882 -2.5
      vertex 5.08421 11.4193 -2.5
    endloop
  endfacet
  facet normal 0 0 -1
    outer loop
      vertex 3.7082 11.4127 -2.5
      vertex 3.86271 11.8882 -2.5
      vertex 4.88084 10.9625 -2.5
    endloop
  endfacet
  facet normal 0 0 -1
    outer loop
      vertex 3.7082 11.4127 -2.5
      vertex 2.5989 12.2268 -2.5
      vertex 3.86271 11.8882 -2.5
    endloop
  endfacet
  facet normal 0 0 -1
    outer loop
      vertex 2.49494 11.7378 -2.5
      vertex 2.5989 12.2268 -2.5
      vertex 3.7082 11.4127 -2.5
    endloop
  endfacet
  facet normal 0 0 -1
    outer loop
      vertex 2.49494 11.7378 -2.5
      vertex 1.30661 12.4315 -2.5
      vertex 2.5989 12.2268 -2.5
    endloop
  endfacet
  facet normal 0 0 -1
    outer loop
      vertex 1.25434 11.9343 -2.5
      vertex 1.30661 12.4315 -2.5
      vertex 2.49494 11.7378 -2.5
    endloop
  endfacet
  facet normal 0 0 -1
    outer loop
      vertex 0 12 -2.5
      vertex 1.30661 12.4315 -2.5
      vertex 1.25434 11.9343 -2.5
    endloop
  endfacet
  facet normal 0 0 -1
    outer loop
      vertex 0 12 -2.5
      vertex 0 12.5 -2.5
      vertex 1.30661 12.4315 -2.5
    endloop
  endfacet
  facet normal 0 0 -1
    outer loop
      vertex -1.25434 11.9343 -2.5
      vertex 0 12.5 -2.5
      vertex 0 12 -2.5
    endloop
  endfacet
  facet normal 0 0 -1
    outer loop
      vertex -1.25434 11.9343 -2.5
      vertex -1.30661 12.4315 -2.5
      vertex 0 12.5 -2.5
    endloop
  endfacet
  facet normal 0 0 -1
    outer loop
      vertex -2.49494 11.7378 -2.5
      vertex -1.30661 12.4315 -2.5
      vertex -1.25434 11.9343 -2.5
    endloop
  endfacet
  facet normal 0 0 -1
    outer loop
      vertex -2.49494 11.7378 -2.5
      vertex -2.5989 12.2268 -2.5
      vertex -1.30661 12.4315 -2.5
    endloop
  endfacet
  facet normal 0 0 -1
    outer loop
      vertex -3.7082 11.4127 -2.5
      vertex -2.5989 12.2268 -2.5
      vertex -2.49494 11.7378 -2.5
    endloop
  endfacet
  facet normal 0 0 -1
    outer loop
      vertex -3.7082 11.4127 -2.5
      vertex -3.86271 11.8882 -2.5
      vertex -2.5989 12.2268 -2.5
    endloop
  endfacet
  facet normal 0 0 -1
    outer loop
      vertex -4.88084 10.9625 -2.5
      vertex -3.86271 11.8882 -2.5
      vertex -3.7082 11.4127 -2.5
    endloop
  endfacet
  facet normal 0 0 -1
    outer loop
      vertex -4.88084 10.9625 -2.5
      vertex -5.08421 11.4193 -2.5
      vertex -3.86271 11.8882 -2.5
    endloop
  endfacet
  facet normal 0 0 -1
    outer loop
      vertex -6 10.3923 -2.5
      vertex -5.08421 11.4193 -2.5
      vertex -4.88084 10.9625 -2.5
    endloop
  endfacet
  facet normal 0 0 -1
    outer loop
      vertex -6 10.3923 -2.5
      vertex -6.25 10.8253 -2.5
      vertex -5.08421 11.4193 -2.5
    endloop
  endfacet
  facet normal 0 0 -1
    outer loop
      vertex -7.05342 9.7082 -2.5
      vertex -6.25 10.8253 -2.5
      vertex -6 10.3923 -2.5
    endloop
  endfacet
  facet normal 0 0 -1
    outer loop
      vertex -7.05342 9.7082 -2.5
      vertex -7.34731 10.1127 -2.5
      vertex -6.25 10.8253 -2.5
    endloop
  endfacet
  facet normal 0 0 -1
    outer loop
      vertex -8.02957 8.91774 -2.5
      vertex -7.34731 10.1127 -2.5
      vertex -7.05342 9.7082 -2.5
    endloop
  endfacet
  facet normal 0 0 -1
    outer loop
      vertex -8.02957 8.91774 -2.5
      vertex -8.36413 9.28931 -2.5
      vertex -7.34731 10.1127 -2.5
    endloop
  endfacet
  facet normal 0 0 -1
    outer loop
      vertex -8.91774 8.02957 -2.5
      vertex -8.36413 9.28931 -2.5
      vertex -8.02957 8.91774 -2.5
    endloop
  endfacet
  facet normal 0 0 -1
    outer loop
      vertex -8.91774 8.02957 -2.5
      vertex -9.28931 8.36413 -2.5
      vertex -8.36413 9.28931 -2.5
    endloop
  endfacet
  facet normal 0 0 -1
    outer loop
      vertex -9.7082 7.05342 -2.5
      vertex -9.28931 8.36413 -2.5
      vertex -8.91774 8.02957 -2.5
    endloop
  endfacet
  facet normal 0 0 -1
    outer loop
      vertex -9.7082 7.05342 -2.5
      vertex -10.1127 7.34731 -2.5
      vertex -9.28931 8.36413 -2.5
    endloop
  endfacet
  facet normal 0 0 -1
    outer loop
      vertex -10.3923 6 -2.5
      vertex -10.1127 7.34731 -2.5
      vertex -9.7082 7.05342 -2.5
    endloop
  endfacet
  facet normal 0 0 -1
    outer loop
      vertex -10.3923 6 -2.5
      vertex -10.8253 6.25 -2.5
      vertex -10.1127 7.34731 -2.5
    endloop
  endfacet
  facet normal 0 0 -1
    outer loop
      vertex -10.9625 4.88084 -2.5
      vertex -10.8253 6.25 -2.5
      vertex -10.3923 6 -2.5
    endloop
  endfacet
  facet normal 0 0 -1
    outer loop
      vertex -11.4193 5.08421 -2.5
      vertex -10.9625 4.88084 -2.5
      vertex -11.4127 3.7082 -2.5
    endloop
  endfacet
  facet normal 0 0 -1
    outer loop
      vertex -10.9625 4.88084 -2.5
      vertex -11.4193 5.08421 -2.5
      vertex -10.8253 6.25 -2.5
    endloop
  endfacet
  facet normal 0 0 -1
    outer loop
      vertex -11.8882 3.86271 -2.5
      vertex -11.4127 3.7082 -2.5
      vertex -11.7378 2.49494 -2.5
    endloop
  endfacet
  facet normal 0 0 -1
    outer loop
      vertex -11.4127 3.7082 -2.5
      vertex -11.8882 3.86271 -2.5
      vertex -11.4193 5.08421 -2.5
    endloop
  endfacet
  facet normal 0 0 -1
    outer loop
      vertex -12.2268 2.5989 -2.5
      vertex -11.7378 2.49494 -2.5
      vertex -11.9343 1.25434 -2.5
    endloop
  endfacet
  facet normal 0 0 -1
    outer loop
      vertex -12.4315 1.30661 -2.5
      vertex -11.9343 1.25434 -2.5
      vertex -12 0 -2.5
    endloop
  endfacet
  facet normal -0 0 -1
    outer loop
      vertex -11.9343 -1.25434 -2.5
      vertex -12.4315 -1.30661 -2.5
      vertex -12 0 -2.5
    endloop
  endfacet
  facet normal 0 0 -1
    outer loop
      vertex -11.7378 2.49494 -2.5
      vertex -12.2268 2.5989 -2.5
      vertex -11.8882 3.86271 -2.5
    endloop
  endfacet
  facet normal 0 0 -1
    outer loop
      vertex -12.5 0 -2.5
      vertex -12 0 -2.5
      vertex -12.4315 -1.30661 -2.5
    endloop
  endfacet
  facet normal 0 0 -1
    outer loop
      vertex -11.9343 1.25434 -2.5
      vertex -12.4315 1.30661 -2.5
      vertex -12.2268 2.5989 -2.5
    endloop
  endfacet
  facet normal 0 0 -1
    outer loop
      vertex -12 0 -2.5
      vertex -12.5 0 -2.5
      vertex -12.4315 1.30661 -2.5
    endloop
  endfacet
  facet normal 0.965926 0.25882 0
    outer loop
      vertex 12.2268 2.5989 2.5
      vertex 11.8882 3.86271 -2.5
      vertex 11.8882 3.86271 2.5
    endloop
  endfacet
  facet normal 0.965926 0.25882 0
    outer loop
      vertex 11.8882 3.86271 -2.5
      vertex 12.2268 2.5989 2.5
      vertex 12.2268 2.5989 -2.5
    endloop
  endfacet
  facet normal 0.83867 0.544639 0
    outer loop
      vertex 10.8253 6.25 2.5
      vertex 10.1127 7.34731 -2.5
      vertex 10.1127 7.34731 2.5
    endloop
  endfacet
  facet normal 0.83867 0.544639 0
    outer loop
      vertex 10.1127 7.34731 -2.5
      vertex 10.8253 6.25 2.5
      vertex 10.8253 6.25 -2.5
    endloop
  endfacet
  facet normal 0.777146 0.62932 0
    outer loop
      vertex 10.1127 7.34731 2.5
      vertex 9.28931 8.36413 -2.5
      vertex 9.28931 8.36413 2.5
    endloop
  endfacet
  facet normal 0.777146 0.62932 0
    outer loop
      vertex 9.28931 8.36413 -2.5
      vertex 10.1127 7.34731 2.5
      vertex 10.1127 7.34731 -2.5
    endloop
  endfacet
  facet normal 0.891006 0.453991 0
    outer loop
      vertex 11.4193 5.08421 2.5
      vertex 10.8253 6.25 -2.5
      vertex 10.8253 6.25 2.5
    endloop
  endfacet
  facet normal 0.891006 0.453991 0
    outer loop
      vertex 10.8253 6.25 -2.5
      vertex 11.4193 5.08421 2.5
      vertex 11.4193 5.08421 -2.5
    endloop
  endfacet
  facet normal 0.25882 0.965926 -0
    outer loop
      vertex 3.86271 11.8882 -2.5
      vertex 2.5989 12.2268 2.5
      vertex 3.86271 11.8882 2.5
    endloop
  endfacet
  facet normal 0.25882 0.965926 0
    outer loop
      vertex 2.5989 12.2268 2.5
      vertex 3.86271 11.8882 -2.5
      vertex 2.5989 12.2268 -2.5
    endloop
  endfacet
  facet normal 0.358367 0.933581 -0
    outer loop
      vertex 5.08421 11.4193 -2.5
      vertex 3.86271 11.8882 2.5
      vertex 5.08421 11.4193 2.5
    endloop
  endfacet
  facet normal 0.358367 0.933581 0
    outer loop
      vertex 3.86271 11.8882 2.5
      vertex 5.08421 11.4193 -2.5
      vertex 3.86271 11.8882 -2.5
    endloop
  endfacet
  facet normal 0.156434 0.987688 -0
    outer loop
      vertex 2.5989 12.2268 -2.5
      vertex 1.30661 12.4315 2.5
      vertex 2.5989 12.2268 2.5
    endloop
  endfacet
  facet normal 0.156434 0.987688 0
    outer loop
      vertex 1.30661 12.4315 2.5
      vertex 2.5989 12.2268 -2.5
      vertex 1.30661 12.4315 -2.5
    endloop
  endfacet
  facet normal 0.62932 0.777146 -0
    outer loop
      vertex 8.36413 9.28931 -2.5
      vertex 7.34731 10.1127 2.5
      vertex 8.36413 9.28931 2.5
    endloop
  endfacet
  facet normal 0.62932 0.777146 0
    outer loop
      vertex 7.34731 10.1127 2.5
      vertex 8.36413 9.28931 -2.5
      vertex 7.34731 10.1127 -2.5
    endloop
  endfacet
  facet normal -0.965926 0.25882 0
    outer loop
      vertex -12.2268 2.5989 -2.5
      vertex -11.8882 3.86271 2.5
      vertex -11.8882 3.86271 -2.5
    endloop
  endfacet
  facet normal -0.965926 0.25882 0
    outer loop
      vertex -11.8882 3.86271 2.5
      vertex -12.2268 2.5989 -2.5
      vertex -12.2268 2.5989 2.5
    endloop
  endfacet
  facet normal -0.777146 0.62932 0
    outer loop
      vertex -10.1127 7.34731 -2.5
      vertex -9.28931 8.36413 2.5
      vertex -9.28931 8.36413 -2.5
    endloop
  endfacet
  facet normal -0.777146 0.62932 0
    outer loop
      vertex -9.28931 8.36413 2.5
      vertex -10.1127 7.34731 -2.5
      vertex -10.1127 7.34731 2.5
    endloop
  endfacet
  facet normal -0.707107 0.707107 0
    outer loop
      vertex -9.28931 8.36413 -2.5
      vertex -8.36413 9.28931 2.5
      vertex -8.36413 9.28931 -2.5
    endloop
  endfacet
  facet normal -0.707107 0.707107 0
    outer loop
      vertex -8.36413 9.28931 2.5
      vertex -9.28931 8.36413 -2.5
      vertex -9.28931 8.36413 2.5
    endloop
  endfacet
  facet normal -0.83867 0.544639 0
    outer loop
      vertex -10.8253 6.25 -2.5
      vertex -10.1127 7.34731 2.5
      vertex -10.1127 7.34731 -2.5
    endloop
  endfacet
  facet normal -0.83867 0.544639 0
    outer loop
      vertex -10.1127 7.34731 2.5
      vertex -10.8253 6.25 -2.5
      vertex -10.8253 6.25 2.5
    endloop
  endfacet
  facet normal -0.933581 0.358367 0
    outer loop
      vertex -11.8882 3.86271 -2.5
      vertex -11.4193 5.08421 2.5
      vertex -11.4193 5.08421 -2.5
    endloop
  endfacet
  facet normal -0.933581 0.358367 0
    outer loop
      vertex -11.4193 5.08421 2.5
      vertex -11.8882 3.86271 -2.5
      vertex -11.8882 3.86271 2.5
    endloop
  endfacet
  facet normal -0.987688 0.156434 0
    outer loop
      vertex -12.4315 1.30661 -2.5
      vertex -12.2268 2.5989 2.5
      vertex -12.2268 2.5989 -2.5
    endloop
  endfacet
  facet normal -0.987688 0.156434 0
    outer loop
      vertex -12.2268 2.5989 2.5
      vertex -12.4315 1.30661 -2.5
      vertex -12.4315 1.30661 2.5
    endloop
  endfacet
  facet normal 0 0 1
    outer loop
      vertex 11.9343 1.25434 2.5
      vertex 12.4315 1.30661 2.5
      vertex 12.2268 2.5989 2.5
    endloop
  endfacet
  facet normal 0 0 1
    outer loop
      vertex 12.4315 1.30661 2.5
      vertex 11.9343 1.25434 2.5
      vertex 12.4738 0.5 2.5
    endloop
  endfacet
  facet normal 0 0 1
    outer loop
      vertex 12.4738 0.5 2.5
      vertex 11.9343 1.25434 2.5
      vertex 11.9738 0.5 2.5
    endloop
  endfacet
  facet normal 0 0 1
    outer loop
      vertex 11.7378 2.49494 2.5
      vertex 12.2268 2.5989 2.5
      vertex 11.8882 3.86271 2.5
    endloop
  endfacet
  facet normal 0 0 1
    outer loop
      vertex 12.2268 2.5989 2.5
      vertex 11.7378 2.49494 2.5
      vertex 11.9343 1.25434 2.5
    endloop
  endfacet
  facet normal 0 0 1
    outer loop
      vertex 11.4127 3.7082 2.5
      vertex 11.8882 3.86271 2.5
      vertex 11.4193 5.08421 2.5
    endloop
  endfacet
  facet normal 0 0 1
    outer loop
      vertex 11.8882 3.86271 2.5
      vertex 11.4127 3.7082 2.5
      vertex 11.7378 2.49494 2.5
    endloop
  endfacet
  facet normal 0 0 1
    outer loop
      vertex 11.4193 5.08421 2.5
      vertex 10.9625 4.88084 2.5
      vertex 11.4127 3.7082 2.5
    endloop
  endfacet
  facet normal 0 0 1
    outer loop
      vertex 10.8253 6.25 2.5
      vertex 10.9625 4.88084 2.5
      vertex 11.4193 5.08421 2.5
    endloop
  endfacet
  facet normal 0 0 1
    outer loop
      vertex 10.8253 6.25 2.5
      vertex 10.3923 6 2.5
      vertex 10.9625 4.88084 2.5
    endloop
  endfacet
  facet normal 0 0 1
    outer loop
      vertex 10.1127 7.34731 2.5
      vertex 10.3923 6 2.5
      vertex 10.8253 6.25 2.5
    endloop
  endfacet
  facet normal 0 0 1
    outer loop
      vertex 10.1127 7.34731 2.5
      vertex 9.7082 7.05342 2.5
      vertex 10.3923 6 2.5
    endloop
  endfacet
  facet normal 0 0 1
    outer loop
      vertex 9.28931 8.36413 2.5
      vertex 9.7082 7.05342 2.5
      vertex 10.1127 7.34731 2.5
    endloop
  endfacet
  facet normal 0 0 1
    outer loop
      vertex 9.28931 8.36413 2.5
      vertex 8.91774 8.02957 2.5
      vertex 9.7082 7.05342 2.5
    endloop
  endfacet
  facet normal 0 0 1
    outer loop
      vertex 8.36413 9.28931 2.5
      vertex 8.91774 8.02957 2.5
      vertex 9.28931 8.36413 2.5
    endloop
  endfacet
  facet normal 0 0 1
    outer loop
      vertex 8.36413 9.28931 2.5
      vertex 8.02957 8.91774 2.5
      vertex 8.91774 8.02957 2.5
    endloop
  endfacet
  facet normal 0 0 1
    outer loop
      vertex 7.34731 10.1127 2.5
      vertex 8.02957 8.91774 2.5
      vertex 8.36413 9.28931 2.5
    endloop
  endfacet
  facet normal 0 0 1
    outer loop
      vertex 7.34731 10.1127 2.5
      vertex 7.05342 9.7082 2.5
      vertex 8.02957 8.91774 2.5
    endloop
  endfacet
  facet normal 0 0 1
    outer loop
      vertex 6.25 10.8253 2.5
      vertex 7.05342 9.7082 2.5
      vertex 7.34731 10.1127 2.5
    endloop
  endfacet
  facet normal 0 0 1
    outer loop
      vertex 6.25 10.8253 2.5
      vertex 6 10.3923 2.5
      vertex 7.05342 9.7082 2.5
    endloop
  endfacet
  facet normal 0 0 1
    outer loop
      vertex 5.08421 11.4193 2.5
      vertex 6 10.3923 2.5
      vertex 6.25 10.8253 2.5
    endloop
  endfacet
  facet normal 0 0 1
    outer loop
      vertex 5.08421 11.4193 2.5
      vertex 4.88084 10.9625 2.5
      vertex 6 10.3923 2.5
    endloop
  endfacet
  facet normal 0 0 1
    outer loop
      vertex 3.86271 11.8882 2.5
      vertex 4.88084 10.9625 2.5
      vertex 5.08421 11.4193 2.5
    endloop
  endfacet
  facet normal 0 0 1
    outer loop
      vertex 3.86271 11.8882 2.5
      vertex 3.7082 11.4127 2.5
      vertex 4.88084 10.9625 2.5
    endloop
  endfacet
  facet normal 0 0 1
    outer loop
      vertex 2.5989 12.2268 2.5
      vertex 3.7082 11.4127 2.5
      vertex 3.86271 11.8882 2.5
    endloop
  endfacet
  facet normal 0 0 1
    outer loop
      vertex 2.5989 12.2268 2.5
      vertex 2.49494 11.7378 2.5
      vertex 3.7082 11.4127 2.5
    endloop
  endfacet
  facet normal 0 0 1
    outer loop
      vertex 1.30661 12.4315 2.5
      vertex 2.49494 11.7378 2.5
      vertex 2.5989 12.2268 2.5
    endloop
  endfacet
  facet normal 0 0 1
    outer loop
      vertex 1.30661 12.4315 2.5
      vertex 1.25434 11.9343 2.5
      vertex 2.49494 11.7378 2.5
    endloop
  endfacet
  facet normal 0 0 1
    outer loop
      vertex 0 12.5 2.5
      vertex 1.25434 11.9343 2.5
      vertex 1.30661 12.4315 2.5
    endloop
  endfacet
  facet normal 0 0 1
    outer loop
      vertex 0 12.5 2.5
      vertex 0 12 2.5
      vertex 1.25434 11.9343 2.5
    endloop
  endfacet
  facet normal 0 0 1
    outer loop
      vertex 0 12.5 2.5
      vertex -1.25434 11.9343 2.5
      vertex 0 12 2.5
    endloop
  endfacet
  facet normal -0 0 1
    outer loop
      vertex -1.30661 12.4315 2.5
      vertex -1.25434 11.9343 2.5
      vertex 0 12.5 2.5
    endloop
  endfacet
  facet normal 0 0 1
    outer loop
      vertex -1.30661 12.4315 2.5
      vertex -2.49494 11.7378 2.5
      vertex -1.25434 11.9343 2.5
    endloop
  endfacet
  facet normal -0 0 1
    outer loop
      vertex -2.5989 12.2268 2.5
      vertex -2.49494 11.7378 2.5
      vertex -1.30661 12.4315 2.5
    endloop
  endfacet
  facet normal 0 0 1
    outer loop
      vertex -2.5989 12.2268 2.5
      vertex -3.7082 11.4127 2.5
      vertex -2.49494 11.7378 2.5
    endloop
  endfacet
  facet normal -0 0 1
    outer loop
      vertex -3.86271 11.8882 2.5
      vertex -3.7082 11.4127 2.5
      vertex -2.5989 12.2268 2.5
    endloop
  endfacet
  facet normal 0 0 1
    outer loop
      vertex -3.86271 11.8882 2.5
      vertex -4.88084 10.9625 2.5
      vertex -3.7082 11.4127 2.5
    endloop
  endfacet
  facet normal -0 0 1
    outer loop
      vertex -5.08421 11.4193 2.5
      vertex -4.88084 10.9625 2.5
      vertex -3.86271 11.8882 2.5
    endloop
  endfacet
  facet normal 0 0 1
    outer loop
      vertex -5.08421 11.4193 2.5
      vertex -6 10.3923 2.5
      vertex -4.88084 10.9625 2.5
    endloop
  endfacet
  facet normal -0 0 1
    outer loop
      vertex -6.25 10.8253 2.5
      vertex -6 10.3923 2.5
      vertex -5.08421 11.4193 2.5
    endloop
  endfacet
  facet normal 0 0 1
    outer loop
      vertex -6.25 10.8253 2.5
      vertex -7.05342 9.7082 2.5
      vertex -6 10.3923 2.5
    endloop
  endfacet
  facet normal -0 0 1
    outer loop
      vertex -7.34731 10.1127 2.5
      vertex -7.05342 9.7082 2.5
      vertex -6.25 10.8253 2.5
    endloop
  endfacet
  facet normal 0 0 1
    outer loop
      vertex -7.34731 10.1127 2.5
      vertex -8.02957 8.91774 2.5
      vertex -7.05342 9.7082 2.5
    endloop
  endfacet
  facet normal -0 0 1
    outer loop
      vertex -8.36413 9.28931 2.5
      vertex -8.02957 8.91774 2.5
      vertex -7.34731 10.1127 2.5
    endloop
  endfacet
  facet normal 0 0 1
    outer loop
      vertex -8.36413 9.28931 2.5
      vertex -8.91774 8.02957 2.5
      vertex -8.02957 8.91774 2.5
    endloop
  endfacet
  facet normal -0 0 1
    outer loop
      vertex -9.28931 8.36413 2.5
      vertex -8.91774 8.02957 2.5
      vertex -8.36413 9.28931 2.5
    endloop
  endfacet
  facet normal 0 0 1
    outer loop
      vertex -9.28931 8.36413 2.5
      vertex -9.7082 7.05342 2.5
      vertex -8.91774 8.02957 2.5
    endloop
  endfacet
  facet normal -0 0 1
    outer loop
      vertex -10.1127 7.34731 2.5
      vertex -9.7082 7.05342 2.5
      vertex -9.28931 8.36413 2.5
    endloop
  endfacet
  facet normal 0 0 1
    outer loop
      vertex -10.1127 7.34731 2.5
      vertex -10.3923 6 2.5
      vertex -9.7082 7.05342 2.5
    endloop
  endfacet
  facet normal -0 0 1
    outer loop
      vertex -10.8253 6.25 2.5
      vertex -10.3923 6 2.5
      vertex -10.1127 7.34731 2.5
    endloop
  endfacet
  facet normal 0 0 1
    outer loop
      vertex -10.8253 6.25 2.5
      vertex -10.9625 4.88084 2.5
      vertex -10.3923 6 2.5
    endloop
  endfacet
  facet normal -0 0 1
    outer loop
      vertex -11.4193 5.08421 2.5
      vertex -10.9625 4.88084 2.5
      vertex -10.8253 6.25 2.5
    endloop
  endfacet
  facet normal 0 0 1
    outer loop
      vertex -10.9625 4.88084 2.5
      vertex -11.4193 5.08421 2.5
      vertex -11.4127 3.7082 2.5
    endloop
  endfacet
  facet normal -0 0 1
    outer loop
      vertex -11.8882 3.86271 2.5
      vertex -11.4127 3.7082 2.5
      vertex -11.4193 5.08421 2.5
    endloop
  endfacet
  facet normal 0 0 1
    outer loop
      vertex -11.4127 3.7082 2.5
      vertex -11.8882 3.86271 2.5
      vertex -11.7378 2.49494 2.5
    endloop
  endfacet
  facet normal -0 0 1
    outer loop
      vertex -12.2268 2.5989 2.5
      vertex -11.7378 2.49494 2.5
      vertex -11.8882 3.86271 2.5
    endloop
  endfacet
  facet normal 0 0 1
    outer loop
      vertex -11.7378 2.49494 2.5
      vertex -12.2268 2.5989 2.5
      vertex -11.9343 1.25434 2.5
    endloop
  endfacet
  facet normal -0 0 1
    outer loop
      vertex -12.4315 1.30661 2.5
      vertex -11.9343 1.25434 2.5
      vertex -12.2268 2.5989 2.5
    endloop
  endfacet
  facet normal -0 0 1
    outer loop
      vertex 11.9343 -1.25434 2.5
      vertex 12.4315 -1.30661 2.5
      vertex 12.4738 -0.5 2.5
    endloop
  endfacet
  facet normal 0 0 1
    outer loop
      vertex 11.9343 -1.25434 2.5
      vertex 12.4738 -0.5 2.5
      vertex 11.9738 -0.5 2.5
    endloop
  endfacet
  facet normal 0 0 1
    outer loop
      vertex 12.4315 -1.30661 2.5
      vertex 11.9343 -1.25434 2.5
      vertex 12.2268 -2.5989 2.5
    endloop
  endfacet
  facet normal -0 0 1
    outer loop
      vertex 11.7378 -2.49494 2.5
      vertex 12.2268 -2.5989 2.5
      vertex 11.9343 -1.25434 2.5
    endloop
  endfacet
  facet normal 0 0 1
    outer loop
      vertex 12.2268 -2.5989 2.5
      vertex 11.7378 -2.49494 2.5
      vertex 11.8882 -3.86271 2.5
    endloop
  endfacet
  facet normal -0 0 1
    outer loop
      vertex 11.4127 -3.7082 2.5
      vertex 11.8882 -3.86271 2.5
      vertex 11.7378 -2.49494 2.5
    endloop
  endfacet
  facet normal 0 0 1
    outer loop
      vertex 11.8882 -3.86271 2.5
      vertex 11.4127 -3.7082 2.5
      vertex 11.4193 -5.08421 2.5
    endloop
  endfacet
  facet normal -0 0 1
    outer loop
      vertex 10.9625 -4.88084 2.5
      vertex 11.4193 -5.08421 2.5
      vertex 11.4127 -3.7082 2.5
    endloop
  endfacet
  facet normal 0 0 1
    outer loop
      vertex 10.9625 -4.88084 2.5
      vertex 10.8253 -6.25 2.5
      vertex 11.4193 -5.08421 2.5
    endloop
  endfacet
  facet normal -0 0 1
    outer loop
      vertex 10.3923 -6 2.5
      vertex 10.8253 -6.25 2.5
      vertex 10.9625 -4.88084 2.5
    endloop
  endfacet
  facet normal 0 0 1
    outer loop
      vertex 10.3923 -6 2.5
      vertex 10.1127 -7.34731 2.5
      vertex 10.8253 -6.25 2.5
    endloop
  endfacet
  facet normal -0 0 1
    outer loop
      vertex 9.7082 -7.05342 2.5
      vertex 10.1127 -7.34731 2.5
      vertex 10.3923 -6 2.5
    endloop
  endfacet
  facet normal 0 0 1
    outer loop
      vertex 9.7082 -7.05342 2.5
      vertex 9.28931 -8.36413 2.5
      vertex 10.1127 -7.34731 2.5
    endloop
  endfacet
  facet normal -0 0 1
    outer loop
      vertex 8.91774 -8.02957 2.5
      vertex 9.28931 -8.36413 2.5
      vertex 9.7082 -7.05342 2.5
    endloop
  endfacet
  facet normal 0 0 1
    outer loop
      vertex 8.91774 -8.02957 2.5
      vertex 8.36413 -9.28931 2.5
      vertex 9.28931 -8.36413 2.5
    endloop
  endfacet
  facet normal -0 0 1
    outer loop
      vertex 8.02957 -8.91774 2.5
      vertex 8.36413 -9.28931 2.5
      vertex 8.91774 -8.02957 2.5
    endloop
  endfacet
  facet normal 0 0 1
    outer loop
      vertex 8.02957 -8.91774 2.5
      vertex 7.34731 -10.1127 2.5
      vertex 8.36413 -9.28931 2.5
    endloop
  endfacet
  facet normal -0 0 1
    outer loop
      vertex 7.05342 -9.7082 2.5
      vertex 7.34731 -10.1127 2.5
      vertex 8.02957 -8.91774 2.5
    endloop
  endfacet
  facet normal 0 0 1
    outer loop
      vertex 7.05342 -9.7082 2.5
      vertex 6.25 -10.8253 2.5
      vertex 7.34731 -10.1127 2.5
    endloop
  endfacet
  facet normal -0 0 1
    outer loop
      vertex 6 -10.3923 2.5
      vertex 6.25 -10.8253 2.5
      vertex 7.05342 -9.7082 2.5
    endloop
  endfacet
  facet normal 0 0 1
    outer loop
      vertex 6 -10.3923 2.5
      vertex 5.08421 -11.4193 2.5
      vertex 6.25 -10.8253 2.5
    endloop
  endfacet
  facet normal -0 0 1
    outer loop
      vertex 4.88084 -10.9625 2.5
      vertex 5.08421 -11.4193 2.5
      vertex 6 -10.3923 2.5
    endloop
  endfacet
  facet normal 0 0 1
    outer loop
      vertex 4.88084 -10.9625 2.5
      vertex 3.86271 -11.8882 2.5
      vertex 5.08421 -11.4193 2.5
    endloop
  endfacet
  facet normal -0 0 1
    outer loop
      vertex 3.7082 -11.4127 2.5
      vertex 3.86271 -11.8882 2.5
      vertex 4.88084 -10.9625 2.5
    endloop
  endfacet
  facet normal 0 0 1
    outer loop
      vertex 3.7082 -11.4127 2.5
      vertex 2.5989 -12.2268 2.5
      vertex 3.86271 -11.8882 2.5
    endloop
  endfacet
  facet normal -0 0 1
    outer loop
      vertex 2.49494 -11.7378 2.5
      vertex 2.5989 -12.2268 2.5
      vertex 3.7082 -11.4127 2.5
    endloop
  endfacet
  facet normal 0 0 1
    outer loop
      vertex 2.49494 -11.7378 2.5
      vertex 1.30661 -12.4315 2.5
      vertex 2.5989 -12.2268 2.5
    endloop
  endfacet
  facet normal -0 0 1
    outer loop
      vertex 1.25434 -11.9343 2.5
      vertex 1.30661 -12.4315 2.5
      vertex 2.49494 -11.7378 2.5
    endloop
  endfacet
  facet normal -0 0 1
    outer loop
      vertex 0 -12 2.5
      vertex 1.30661 -12.4315 2.5
      vertex 1.25434 -11.9343 2.5
    endloop
  endfacet
  facet normal 0 0 1
    outer loop
      vertex 0 -12 2.5
      vertex 0 -12.5 2.5
      vertex 1.30661 -12.4315 2.5
    endloop
  endfacet
  facet normal 0 0 1
    outer loop
      vertex -1.25434 -11.9343 2.5
      vertex 0 -12.5 2.5
      vertex 0 -12 2.5
    endloop
  endfacet
  facet normal 0 0 1
    outer loop
      vertex -1.25434 -11.9343 2.5
      vertex -1.30661 -12.4315 2.5
      vertex 0 -12.5 2.5
    endloop
  endfacet
  facet normal 0 0 1
    outer loop
      vertex -2.49494 -11.7378 2.5
      vertex -1.30661 -12.4315 2.5
      vertex -1.25434 -11.9343 2.5
    endloop
  endfacet
  facet normal 0 0 1
    outer loop
      vertex -2.49494 -11.7378 2.5
      vertex -2.5989 -12.2268 2.5
      vertex -1.30661 -12.4315 2.5
    endloop
  endfacet
  facet normal 0 0 1
    outer loop
      vertex -3.7082 -11.4127 2.5
      vertex -2.5989 -12.2268 2.5
      vertex -2.49494 -11.7378 2.5
    endloop
  endfacet
  facet normal 0 0 1
    outer loop
      vertex -3.7082 -11.4127 2.5
      vertex -3.86271 -11.8882 2.5
      vertex -2.5989 -12.2268 2.5
    endloop
  endfacet
  facet normal 0 0 1
    outer loop
      vertex -4.88084 -10.9625 2.5
      vertex -3.86271 -11.8882 2.5
      vertex -3.7082 -11.4127 2.5
    endloop
  endfacet
  facet normal 0 0 1
    outer loop
      vertex -4.88084 -10.9625 2.5
      vertex -5.08421 -11.4193 2.5
      vertex -3.86271 -11.8882 2.5
    endloop
  endfacet
  facet normal 0 0 1
    outer loop
      vertex -6 -10.3923 2.5
      vertex -5.08421 -11.4193 2.5
      vertex -4.88084 -10.9625 2.5
    endloop
  endfacet
  facet normal 0 0 1
    outer loop
      vertex -6 -10.3923 2.5
      vertex -6.25 -10.8253 2.5
      vertex -5.08421 -11.4193 2.5
    endloop
  endfacet
  facet normal 0 0 1
    outer loop
      vertex -7.05342 -9.7082 2.5
      vertex -6.25 -10.8253 2.5
      vertex -6 -10.3923 2.5
    endloop
  endfacet
  facet normal 0 0 1
    outer loop
      vertex -7.05342 -9.7082 2.5
      vertex -7.34731 -10.1127 2.5
      vertex -6.25 -10.8253 2.5
    endloop
  endfacet
  facet normal 0 0 1
    outer loop
      vertex -8.02957 -8.91774 2.5
      vertex -7.34731 -10.1127 2.5
      vertex -7.05342 -9.7082 2.5
    endloop
  endfacet
  facet normal 0 0 1
    outer loop
      vertex -8.02957 -8.91774 2.5
      vertex -8.36413 -9.28931 2.5
      vertex -7.34731 -10.1127 2.5
    endloop
  endfacet
  facet normal 0 0 1
    outer loop
      vertex -8.91774 -8.02957 2.5
      vertex -8.36413 -9.28931 2.5
      vertex -8.02957 -8.91774 2.5
    endloop
  endfacet
  facet normal 0 0 1
    outer loop
      vertex -8.91774 -8.02957 2.5
      vertex -9.28931 -8.36413 2.5
      vertex -8.36413 -9.28931 2.5
    endloop
  endfacet
  facet normal 0 0 1
    outer loop
      vertex -9.7082 -7.05342 2.5
      vertex -9.28931 -8.36413 2.5
      vertex -8.91774 -8.02957 2.5
    endloop
  endfacet
  facet normal 0 0 1
    outer loop
      vertex -9.7082 -7.05342 2.5
      vertex -10.1127 -7.34731 2.5
      vertex -9.28931 -8.36413 2.5
    endloop
  endfacet
  facet normal 0 0 1
    outer loop
      vertex -10.3923 -6 2.5
      vertex -10.1127 -7.34731 2.5
      vertex -9.7082 -7.05342 2.5
    endloop
  endfacet
  facet normal 0 0 1
    outer loop
      vertex -10.3923 -6 2.5
      vertex -10.8253 -6.25 2.5
      vertex -10.1127 -7.34731 2.5
    endloop
  endfacet
  facet normal 0 0 1
    outer loop
      vertex -10.9625 -4.88084 2.5
      vertex -10.8253 -6.25 2.5
      vertex -10.3923 -6 2.5
    endloop
  endfacet
  facet normal 0 0 1
    outer loop
      vertex -11.4193 -5.08421 2.5
      vertex -10.9625 -4.88084 2.5
      vertex -11.4127 -3.7082 2.5
    endloop
  endfacet
  facet normal 0 0 1
    outer loop
      vertex -10.9625 -4.88084 2.5
      vertex -11.4193 -5.08421 2.5
      vertex -10.8253 -6.25 2.5
    endloop
  endfacet
  facet normal 0 0 1
    outer loop
      vertex -11.8882 -3.86271 2.5
      vertex -11.4127 -3.7082 2.5
      vertex -11.7378 -2.49494 2.5
    endloop
  endfacet
  facet normal 0 0 1
    outer loop
      vertex -11.4127 -3.7082 2.5
      vertex -11.8882 -3.86271 2.5
      vertex -11.4193 -5.08421 2.5
    endloop
  endfacet
  facet normal 0 0 1
    outer loop
      vertex -12.2268 -2.5989 2.5
      vertex -11.7378 -2.49494 2.5
      vertex -11.9343 -1.25434 2.5
    endloop
  endfacet
  facet normal 0 0 1
    outer loop
      vertex -12.4315 -1.30661 2.5
      vertex -11.9343 -1.25434 2.5
      vertex -12 0 2.5
    endloop
  endfacet
  facet normal 0 0 1
    outer loop
      vertex -11.9343 1.25434 2.5
      vertex -12.4315 1.30661 2.5
      vertex -12 0 2.5
    endloop
  endfacet
  facet normal 0 0 1
    outer loop
      vertex -11.7378 -2.49494 2.5
      vertex -12.2268 -2.5989 2.5
      vertex -11.8882 -3.86271 2.5
    endloop
  endfacet
  facet normal 0 0 1
    outer loop
      vertex -12.5 0 2.5
      vertex -12 0 2.5
      vertex -12.4315 1.30661 2.5
    endloop
  endfacet
  facet normal 0 0 1
    outer loop
      vertex -11.9343 -1.25434 2.5
      vertex -12.4315 -1.30661 2.5
      vertex -12.2268 -2.5989 2.5
    endloop
  endfacet
  facet normal 0 0 1
    outer loop
      vertex -12 0 2.5
      vertex -12.5 0 2.5
      vertex -12.4315 -1.30661 2.5
    endloop
  endfacet
  facet normal -0.453991 0.891006 0
    outer loop
      vertex -5.08421 11.4193 -2.5
      vertex -6.25 10.8253 2.5
      vertex -5.08421 11.4193 2.5
    endloop
  endfacet
  facet normal -0.453991 0.891006 0
    outer loop
      vertex -6.25 10.8253 2.5
      vertex -5.08421 11.4193 -2.5
      vertex -6.25 10.8253 -2.5
    endloop
  endfacet
  facet normal -0.544639 0.83867 0
    outer loop
      vertex -6.25 10.8253 -2.5
      vertex -7.34731 10.1127 2.5
      vertex -6.25 10.8253 2.5
    endloop
  endfacet
  facet normal -0.544639 0.83867 0
    outer loop
      vertex -7.34731 10.1127 2.5
      vertex -6.25 10.8253 -2.5
      vertex -7.34731 10.1127 -2.5
    endloop
  endfacet
  facet normal -0.25882 0.965926 0
    outer loop
      vertex -2.5989 12.2268 -2.5
      vertex -3.86271 11.8882 2.5
      vertex -2.5989 12.2268 2.5
    endloop
  endfacet
  facet normal -0.25882 0.965926 0
    outer loop
      vertex -3.86271 11.8882 2.5
      vertex -2.5989 12.2268 -2.5
      vertex -3.86271 11.8882 -2.5
    endloop
  endfacet
  facet normal -0.0523363 0.99863 0
    outer loop
      vertex 0 12.5 -2.5
      vertex -1.30661 12.4315 2.5
      vertex 0 12.5 2.5
    endloop
  endfacet
  facet normal -0.0523363 0.99863 0
    outer loop
      vertex -1.30661 12.4315 2.5
      vertex 0 12.5 -2.5
      vertex -1.30661 12.4315 -2.5
    endloop
  endfacet
  facet normal 0.0523363 -0.99863 0
    outer loop
      vertex 0 -12.5 -2.5
      vertex 1.30661 -12.4315 2.5
      vertex 0 -12.5 2.5
    endloop
  endfacet
  facet normal 0.0523363 -0.99863 0
    outer loop
      vertex 1.30661 -12.4315 2.5
      vertex 0 -12.5 -2.5
      vertex 1.30661 -12.4315 -2.5
    endloop
  endfacet
  facet normal 0.25882 -0.965926 0
    outer loop
      vertex 2.5989 -12.2268 -2.5
      vertex 3.86271 -11.8882 2.5
      vertex 2.5989 -12.2268 2.5
    endloop
  endfacet
  facet normal 0.25882 -0.965926 0
    outer loop
      vertex 3.86271 -11.8882 2.5
      vertex 2.5989 -12.2268 -2.5
      vertex 3.86271 -11.8882 -2.5
    endloop
  endfacet
  facet normal 0.62932 -0.777146 0
    outer loop
      vertex 7.34731 -10.1127 -2.5
      vertex 8.36413 -9.28931 2.5
      vertex 7.34731 -10.1127 2.5
    endloop
  endfacet
  facet normal 0.62932 -0.777146 0
    outer loop
      vertex 8.36413 -9.28931 2.5
      vertex 7.34731 -10.1127 -2.5
      vertex 8.36413 -9.28931 -2.5
    endloop
  endfacet
  facet normal 0.45399 -0.891007 0
    outer loop
      vertex 5.08421 -11.4193 -2.5
      vertex 6.25 -10.8253 2.5
      vertex 5.08421 -11.4193 2.5
    endloop
  endfacet
  facet normal 0.45399 -0.891007 0
    outer loop
      vertex 6.25 -10.8253 2.5
      vertex 5.08421 -11.4193 -2.5
      vertex 6.25 -10.8253 -2.5
    endloop
  endfacet
  facet normal 0.777146 -0.62932 0
    outer loop
      vertex 9.28931 -8.36413 2.5
      vertex 10.1127 -7.34731 -2.5
      vertex 10.1127 -7.34731 2.5
    endloop
  endfacet
  facet normal 0.777146 -0.62932 0
    outer loop
      vertex 10.1127 -7.34731 -2.5
      vertex 9.28931 -8.36413 2.5
      vertex 9.28931 -8.36413 -2.5
    endloop
  endfacet
  facet normal 0.891006 -0.453991 0
    outer loop
      vertex 10.8253 -6.25 2.5
      vertex 11.4193 -5.08421 -2.5
      vertex 11.4193 -5.08421 2.5
    endloop
  endfacet
  facet normal 0.891006 -0.453991 0
    outer loop
      vertex 11.4193 -5.08421 -2.5
      vertex 10.8253 -6.25 2.5
      vertex 10.8253 -6.25 -2.5
    endloop
  endfacet
  facet normal -0.707107 -0.707107 0
    outer loop
      vertex -8.36413 -9.28931 -2.5
      vertex -9.28931 -8.36413 2.5
      vertex -9.28931 -8.36413 -2.5
    endloop
  endfacet
  facet normal -0.707107 -0.707107 0
    outer loop
      vertex -9.28931 -8.36413 2.5
      vertex -8.36413 -9.28931 -2.5
      vertex -8.36413 -9.28931 2.5
    endloop
  endfacet
  facet normal -0.54464 -0.83867 0
    outer loop
      vertex -7.34731 -10.1127 -2.5
      vertex -6.25 -10.8253 2.5
      vertex -7.34731 -10.1127 2.5
    endloop
  endfacet
  facet normal -0.54464 -0.83867 -0
    outer loop
      vertex -6.25 -10.8253 2.5
      vertex -7.34731 -10.1127 -2.5
      vertex -6.25 -10.8253 -2.5
    endloop
  endfacet
  facet normal -0.358367 -0.933581 0
    outer loop
      vertex -5.08421 -11.4193 -2.5
      vertex -3.86271 -11.8882 2.5
      vertex -5.08421 -11.4193 2.5
    endloop
  endfacet
  facet normal -0.358367 -0.933581 -0
    outer loop
      vertex -3.86271 -11.8882 2.5
      vertex -5.08421 -11.4193 -2.5
      vertex -3.86271 -11.8882 -2.5
    endloop
  endfacet
  facet normal -0.156434 -0.987688 0
    outer loop
      vertex -2.5989 -12.2268 -2.5
      vertex -1.30661 -12.4315 2.5
      vertex -2.5989 -12.2268 2.5
    endloop
  endfacet
  facet normal -0.156434 -0.987688 -0
    outer loop
      vertex -1.30661 -12.4315 2.5
      vertex -2.5989 -12.2268 -2.5
      vertex -1.30661 -12.4315 -2.5
    endloop
  endfacet
  facet normal -0.891006 -0.453991 0
    outer loop
      vertex -10.8253 -6.25 -2.5
      vertex -11.4193 -5.08421 2.5
      vertex -11.4193 -5.08421 -2.5
    endloop
  endfacet
  facet normal -0.891006 -0.453991 0
    outer loop
      vertex -11.4193 -5.08421 2.5
      vertex -10.8253 -6.25 -2.5
      vertex -10.8253 -6.25 2.5
    endloop
  endfacet
  facet normal -0.777146 -0.62932 0
    outer loop
      vertex -9.28931 -8.36413 -2.5
      vertex -10.1127 -7.34731 2.5
      vertex -10.1127 -7.34731 -2.5
    endloop
  endfacet
  facet normal -0.777146 -0.62932 0
    outer loop
      vertex -10.1127 -7.34731 2.5
      vertex -9.28931 -8.36413 -2.5
      vertex -9.28931 -8.36413 2.5
    endloop
  endfacet
  facet normal -0.965926 -0.25882 0
    outer loop
      vertex -11.8882 -3.86271 -2.5
      vertex -12.2268 -2.5989 2.5
      vertex -12.2268 -2.5989 -2.5
    endloop
  endfacet
  facet normal -0.965926 -0.25882 0
    outer loop
      vertex -12.2268 -2.5989 2.5
      vertex -11.8882 -3.86271 -2.5
      vertex -11.8882 -3.86271 2.5
    endloop
  endfacet
  facet normal -0.99863 -0.0523363 0
    outer loop
      vertex -12.4315 -1.30661 -2.5
      vertex -12.5 0 2.5
      vertex -12.5 0 -2.5
    endloop
  endfacet
  facet normal -0.99863 -0.0523363 0
    outer loop
      vertex -12.5 0 2.5
      vertex -12.4315 -1.30661 -2.5
      vertex -12.4315 -1.30661 2.5
    endloop
  endfacet
  facet normal 0.156434 -0.987688 0
    outer loop
      vertex 1.30661 -12.4315 -2.5
      vertex 2.5989 -12.2268 2.5
      vertex 1.30661 -12.4315 2.5
    endloop
  endfacet
  facet normal 0.156434 -0.987688 0
    outer loop
      vertex 2.5989 -12.2268 2.5
      vertex 1.30661 -12.4315 -2.5
      vertex 2.5989 -12.2268 -2.5
    endloop
  endfacet
  facet normal 0.358367 -0.933581 0
    outer loop
      vertex 3.86271 -11.8882 -2.5
      vertex 5.08421 -11.4193 2.5
      vertex 3.86271 -11.8882 2.5
    endloop
  endfacet
  facet normal 0.358367 -0.933581 0
    outer loop
      vertex 5.08421 -11.4193 2.5
      vertex 3.86271 -11.8882 -2.5
      vertex 5.08421 -11.4193 -2.5
    endloop
  endfacet
  facet normal 0.707107 -0.707107 0
    outer loop
      vertex 8.36413 -9.28931 2.5
      vertex 9.28931 -8.36413 -2.5
      vertex 9.28931 -8.36413 2.5
    endloop
  endfacet
  facet normal 0.707107 -0.707107 0
    outer loop
      vertex 9.28931 -8.36413 -2.5
      vertex 8.36413 -9.28931 2.5
      vertex 8.36413 -9.28931 -2.5
    endloop
  endfacet
  facet normal 0.54464 -0.83867 0
    outer loop
      vertex 6.25 -10.8253 -2.5
      vertex 7.34731 -10.1127 2.5
      vertex 6.25 -10.8253 2.5
    endloop
  endfacet
  facet normal 0.54464 -0.83867 0
    outer loop
      vertex 7.34731 -10.1127 2.5
      vertex 6.25 -10.8253 -2.5
      vertex 7.34731 -10.1127 -2.5
    endloop
  endfacet
  facet normal 0.83867 -0.544639 0
    outer loop
      vertex 10.1127 -7.34731 2.5
      vertex 10.8253 -6.25 -2.5
      vertex 10.8253 -6.25 2.5
    endloop
  endfacet
  facet normal 0.83867 -0.544639 0
    outer loop
      vertex 10.8253 -6.25 -2.5
      vertex 10.1127 -7.34731 2.5
      vertex 10.1127 -7.34731 -2.5
    endloop
  endfacet
  facet normal 0.933581 -0.358367 0
    outer loop
      vertex 11.4193 -5.08421 2.5
      vertex 11.8882 -3.86271 -2.5
      vertex 11.8882 -3.86271 2.5
    endloop
  endfacet
  facet normal 0.933581 -0.358367 0
    outer loop
      vertex 11.8882 -3.86271 -2.5
      vertex 11.4193 -5.08421 2.5
      vertex 11.4193 -5.08421 -2.5
    endloop
  endfacet
  facet normal 0.987688 -0.156434 0
    outer loop
      vertex 12.2268 -2.5989 2.5
      vertex 12.4315 -1.30661 -2.5
      vertex 12.4315 -1.30661 2.5
    endloop
  endfacet
  facet normal 0.987688 -0.156434 0
    outer loop
      vertex 12.4315 -1.30661 -2.5
      vertex 12.2268 -2.5989 2.5
      vertex 12.2268 -2.5989 -2.5
    endloop
  endfacet
  facet normal -0.62932 -0.777146 0
    outer loop
      vertex -8.36413 -9.28931 -2.5
      vertex -7.34731 -10.1127 2.5
      vertex -8.36413 -9.28931 2.5
    endloop
  endfacet
  facet normal -0.62932 -0.777146 -0
    outer loop
      vertex -7.34731 -10.1127 2.5
      vertex -8.36413 -9.28931 -2.5
      vertex -7.34731 -10.1127 -2.5
    endloop
  endfacet
  facet normal -0.45399 -0.891007 0
    outer loop
      vertex -6.25 -10.8253 -2.5
      vertex -5.08421 -11.4193 2.5
      vertex -6.25 -10.8253 2.5
    endloop
  endfacet
  facet normal -0.45399 -0.891007 -0
    outer loop
      vertex -5.08421 -11.4193 2.5
      vertex -6.25 -10.8253 -2.5
      vertex -5.08421 -11.4193 -2.5
    endloop
  endfacet
  facet normal -0.25882 -0.965926 0
    outer loop
      vertex -3.86271 -11.8882 -2.5
      vertex -2.5989 -12.2268 2.5
      vertex -3.86271 -11.8882 2.5
    endloop
  endfacet
  facet normal -0.25882 -0.965926 -0
    outer loop
      vertex -2.5989 -12.2268 2.5
      vertex -3.86271 -11.8882 -2.5
      vertex -2.5989 -12.2268 -2.5
    endloop
  endfacet
  facet normal -0.0523363 -0.99863 0
    outer loop
      vertex -1.30661 -12.4315 -2.5
      vertex 0 -12.5 2.5
      vertex -1.30661 -12.4315 2.5
    endloop
  endfacet
  facet normal -0.0523363 -0.99863 -0
    outer loop
      vertex 0 -12.5 2.5
      vertex -1.30661 -12.4315 -2.5
      vertex 0 -12.5 -2.5
    endloop
  endfacet
  facet normal -0.83867 -0.544639 0
    outer loop
      vertex -10.1127 -7.34731 -2.5
      vertex -10.8253 -6.25 2.5
      vertex -10.8253 -6.25 -2.5
    endloop
  endfacet
  facet normal -0.83867 -0.544639 0
    outer loop
      vertex -10.8253 -6.25 2.5
      vertex -10.1127 -7.34731 -2.5
      vertex -10.1127 -7.34731 2.5
    endloop
  endfacet
  facet normal -0.987688 -0.156434 0
    outer loop
      vertex -12.2268 -2.5989 -2.5
      vertex -12.4315 -1.30661 2.5
      vertex -12.4315 -1.30661 -2.5
    endloop
  endfacet
  facet normal -0.987688 -0.156434 0
    outer loop
      vertex -12.4315 -1.30661 2.5
      vertex -12.2268 -2.5989 -2.5
      vertex -12.2268 -2.5989 2.5
    endloop
  endfacet
  facet normal 0.99863 -0.0523362 0
    outer loop
      vertex 12.4315 -1.30661 2.5
      vertex 12.4738 -0.5 -2.5
      vertex 12.4738 -0.5 2.5
    endloop
  endfacet
  facet normal 0.99863 -0.0523362 0
    outer loop
      vertex 12.4738 -0.5 -2.5
      vertex 12.4315 -1.30661 2.5
      vertex 12.4315 -1.30661 -2.5
    endloop
  endfacet
  facet normal -0.629321 -0.777146 0
    outer loop
      vertex 7.05342 9.7082 -2.5
      vertex 8.02957 8.91774 2.5
      vertex 7.05342 9.7082 2.5
    endloop
  endfacet
  facet normal -0.629321 -0.777146 -0
    outer loop
      vertex 8.02957 8.91774 2.5
      vertex 7.05342 9.7082 -2.5
      vertex 8.02957 8.91774 -2.5
    endloop
  endfacet
  facet normal -0.99863 0.0523363 0
    outer loop
      vertex 11.9343 -1.25434 -2.5
      vertex 11.9738 -0.5 2.5
      vertex 11.9738 -0.5 -2.5
    endloop
  endfacet
  facet normal -0.99863 0.0523363 0
    outer loop
      vertex 11.9738 -0.5 2.5
      vertex 11.9343 -1.25434 -2.5
      vertex 11.9343 -1.25434 2.5
    endloop
  endfacet
  facet normal 0.358368 -0.933581 0
    outer loop
      vertex -4.88084 10.9625 -2.5
      vertex -3.7082 11.4127 2.5
      vertex -4.88084 10.9625 2.5
    endloop
  endfacet
  facet normal 0.358368 -0.933581 0
    outer loop
      vertex -3.7082 11.4127 2.5
      vertex -4.88084 10.9625 -2.5
      vertex -3.7082 11.4127 -2.5
    endloop
  endfacet
  facet normal 0.891006 -0.453991 0
    outer loop
      vertex -10.9625 4.88084 2.5
      vertex -10.3923 6 -2.5
      vertex -10.3923 6 2.5
    endloop
  endfacet
  facet normal 0.891006 -0.453991 0
    outer loop
      vertex -10.3923 6 -2.5
      vertex -10.9625 4.88084 2.5
      vertex -10.9625 4.88084 -2.5
    endloop
  endfacet
  facet normal 0.453991 0.891006 -0
    outer loop
      vertex -4.88084 -10.9625 -2.5
      vertex -6 -10.3923 2.5
      vertex -4.88084 -10.9625 2.5
    endloop
  endfacet
  facet normal 0.453991 0.891006 0
    outer loop
      vertex -6 -10.3923 2.5
      vertex -4.88084 -10.9625 -2.5
      vertex -6 -10.3923 -2.5
    endloop
  endfacet
  facet normal -0.933581 -0.358368 0
    outer loop
      vertex 11.4127 3.7082 -2.5
      vertex 10.9625 4.88084 2.5
      vertex 10.9625 4.88084 -2.5
    endloop
  endfacet
  facet normal -0.933581 -0.358368 0
    outer loop
      vertex 10.9625 4.88084 2.5
      vertex 11.4127 3.7082 -2.5
      vertex 11.4127 3.7082 2.5
    endloop
  endfacet
  facet normal -0.987688 -0.156434 0
    outer loop
      vertex 11.9343 1.25434 -2.5
      vertex 11.7378 2.49494 2.5
      vertex 11.7378 2.49494 -2.5
    endloop
  endfacet
  facet normal -0.987688 -0.156434 0
    outer loop
      vertex 11.7378 2.49494 2.5
      vertex 11.9343 1.25434 -2.5
      vertex 11.9343 1.25434 2.5
    endloop
  endfacet
  facet normal -0.891006 -0.453991 0
    outer loop
      vertex 10.9625 4.88084 -2.5
      vertex 10.3923 6 2.5
      vertex 10.3923 6 -2.5
    endloop
  endfacet
  facet normal -0.891006 -0.453991 0
    outer loop
      vertex 10.3923 6 2.5
      vertex 10.9625 4.88084 -2.5
      vertex 10.9625 4.88084 2.5
    endloop
  endfacet
  facet normal -0.453991 -0.891006 0
    outer loop
      vertex 4.88084 10.9625 -2.5
      vertex 6 10.3923 2.5
      vertex 4.88084 10.9625 2.5
    endloop
  endfacet
  facet normal -0.453991 -0.891006 -0
    outer loop
      vertex 6 10.3923 2.5
      vertex 4.88084 10.9625 -2.5
      vertex 6 10.3923 -2.5
    endloop
  endfacet
  facet normal -0.156434 -0.987688 0
    outer loop
      vertex 1.25434 11.9343 -2.5
      vertex 2.49494 11.7378 2.5
      vertex 1.25434 11.9343 2.5
    endloop
  endfacet
  facet normal -0.156434 -0.987688 -0
    outer loop
      vertex 2.49494 11.7378 2.5
      vertex 1.25434 11.9343 -2.5
      vertex 2.49494 11.7378 -2.5
    endloop
  endfacet
  facet normal 0.987688 -0.156434 0
    outer loop
      vertex -11.9343 1.25434 2.5
      vertex -11.7378 2.49494 -2.5
      vertex -11.7378 2.49494 2.5
    endloop
  endfacet
  facet normal 0.987688 -0.156434 0
    outer loop
      vertex -11.7378 2.49494 -2.5
      vertex -11.9343 1.25434 2.5
      vertex -11.9343 1.25434 -2.5
    endloop
  endfacet
  facet normal 0.707107 -0.707107 0
    outer loop
      vertex -8.91774 8.02957 2.5
      vertex -8.02957 8.91774 -2.5
      vertex -8.02957 8.91774 2.5
    endloop
  endfacet
  facet normal 0.707107 -0.707107 0
    outer loop
      vertex -8.02957 8.91774 -2.5
      vertex -8.91774 8.02957 2.5
      vertex -8.91774 8.02957 -2.5
    endloop
  endfacet
  facet normal 0.156434 -0.987688 0
    outer loop
      vertex -2.49494 11.7378 -2.5
      vertex -1.25434 11.9343 2.5
      vertex -2.49494 11.7378 2.5
    endloop
  endfacet
  facet normal 0.156434 -0.987688 0
    outer loop
      vertex -1.25434 11.9343 2.5
      vertex -2.49494 11.7378 -2.5
      vertex -1.25434 11.9343 -2.5
    endloop
  endfacet
  facet normal 0.629321 -0.777146 0
    outer loop
      vertex -8.02957 8.91774 -2.5
      vertex -7.05342 9.7082 2.5
      vertex -8.02957 8.91774 2.5
    endloop
  endfacet
  facet normal 0.629321 -0.777146 0
    outer loop
      vertex -7.05342 9.7082 2.5
      vertex -8.02957 8.91774 -2.5
      vertex -7.05342 9.7082 -2.5
    endloop
  endfacet
  facet normal -0.777146 0.629321 0
    outer loop
      vertex 8.91774 -8.02957 -2.5
      vertex 9.7082 -7.05342 2.5
      vertex 9.7082 -7.05342 -2.5
    endloop
  endfacet
  facet normal -0.777146 0.629321 0
    outer loop
      vertex 9.7082 -7.05342 2.5
      vertex 8.91774 -8.02957 -2.5
      vertex 8.91774 -8.02957 2.5
    endloop
  endfacet
  facet normal -0.933581 0.358368 0
    outer loop
      vertex 10.9625 -4.88084 -2.5
      vertex 11.4127 -3.7082 2.5
      vertex 11.4127 -3.7082 -2.5
    endloop
  endfacet
  facet normal -0.933581 0.358368 0
    outer loop
      vertex 11.4127 -3.7082 2.5
      vertex 10.9625 -4.88084 -2.5
      vertex 10.9625 -4.88084 2.5
    endloop
  endfacet
  facet normal 0.156434 0.987688 -0
    outer loop
      vertex -1.25434 -11.9343 -2.5
      vertex -2.49494 -11.7378 2.5
      vertex -1.25434 -11.9343 2.5
    endloop
  endfacet
  facet normal 0.156434 0.987688 0
    outer loop
      vertex -2.49494 -11.7378 2.5
      vertex -1.25434 -11.9343 -2.5
      vertex -2.49494 -11.7378 -2.5
    endloop
  endfacet
  facet normal 0.707107 0.707107 0
    outer loop
      vertex -8.02957 -8.91774 2.5
      vertex -8.91774 -8.02957 -2.5
      vertex -8.91774 -8.02957 2.5
    endloop
  endfacet
  facet normal 0.707107 0.707107 0
    outer loop
      vertex -8.91774 -8.02957 -2.5
      vertex -8.02957 -8.91774 2.5
      vertex -8.02957 -8.91774 -2.5
    endloop
  endfacet
  facet normal -0.965926 -0.258819 0
    outer loop
      vertex 11.7378 2.49494 -2.5
      vertex 11.4127 3.7082 2.5
      vertex 11.4127 3.7082 -2.5
    endloop
  endfacet
  facet normal -0.965926 -0.258819 0
    outer loop
      vertex 11.4127 3.7082 2.5
      vertex 11.7378 2.49494 -2.5
      vertex 11.7378 2.49494 2.5
    endloop
  endfacet
  facet normal -0.777146 -0.629321 0
    outer loop
      vertex 9.7082 7.05342 -2.5
      vertex 8.91774 8.02957 2.5
      vertex 8.91774 8.02957 -2.5
    endloop
  endfacet
  facet normal -0.777146 -0.629321 0
    outer loop
      vertex 8.91774 8.02957 2.5
      vertex 9.7082 7.05342 -2.5
      vertex 9.7082 7.05342 2.5
    endloop
  endfacet
  facet normal -0.838671 -0.544639 0
    outer loop
      vertex 10.3923 6 -2.5
      vertex 9.7082 7.05342 2.5
      vertex 9.7082 7.05342 -2.5
    endloop
  endfacet
  facet normal -0.838671 -0.544639 0
    outer loop
      vertex 9.7082 7.05342 2.5
      vertex 10.3923 6 -2.5
      vertex 10.3923 6 2.5
    endloop
  endfacet
  facet normal -0.707107 -0.707107 0
    outer loop
      vertex 8.91774 8.02957 -2.5
      vertex 8.02957 8.91774 2.5
      vertex 8.02957 8.91774 -2.5
    endloop
  endfacet
  facet normal -0.707107 -0.707107 0
    outer loop
      vertex 8.02957 8.91774 2.5
      vertex 8.91774 8.02957 -2.5
      vertex 8.91774 8.02957 2.5
    endloop
  endfacet
  facet normal -0.0523363 -0.99863 0
    outer loop
      vertex 0 12 -2.5
      vertex 1.25434 11.9343 2.5
      vertex 0 12 2.5
    endloop
  endfacet
  facet normal -0.0523363 -0.99863 -0
    outer loop
      vertex 1.25434 11.9343 2.5
      vertex 0 12 -2.5
      vertex 1.25434 11.9343 -2.5
    endloop
  endfacet
  facet normal -0.544639 -0.83867 0
    outer loop
      vertex 6 10.3923 -2.5
      vertex 7.05342 9.7082 2.5
      vertex 6 10.3923 2.5
    endloop
  endfacet
  facet normal -0.544639 -0.83867 -0
    outer loop
      vertex 7.05342 9.7082 2.5
      vertex 6 10.3923 -2.5
      vertex 7.05342 9.7082 -2.5
    endloop
  endfacet
  facet normal -0.358368 -0.933581 0
    outer loop
      vertex 3.7082 11.4127 -2.5
      vertex 4.88084 10.9625 2.5
      vertex 3.7082 11.4127 2.5
    endloop
  endfacet
  facet normal -0.358368 -0.933581 -0
    outer loop
      vertex 4.88084 10.9625 2.5
      vertex 3.7082 11.4127 -2.5
      vertex 4.88084 10.9625 -2.5
    endloop
  endfacet
  facet normal -0.258819 -0.965926 0
    outer loop
      vertex 2.49494 11.7378 -2.5
      vertex 3.7082 11.4127 2.5
      vertex 2.49494 11.7378 2.5
    endloop
  endfacet
  facet normal -0.258819 -0.965926 -0
    outer loop
      vertex 3.7082 11.4127 2.5
      vertex 2.49494 11.7378 -2.5
      vertex 3.7082 11.4127 -2.5
    endloop
  endfacet
  facet normal 0.99863 -0.0523363 0
    outer loop
      vertex -12 0 2.5
      vertex -11.9343 1.25434 -2.5
      vertex -11.9343 1.25434 2.5
    endloop
  endfacet
  facet normal 0.99863 -0.0523363 0
    outer loop
      vertex -11.9343 1.25434 -2.5
      vertex -12 0 2.5
      vertex -12 0 -2.5
    endloop
  endfacet
  facet normal 0.933581 -0.358368 0
    outer loop
      vertex -11.4127 3.7082 2.5
      vertex -10.9625 4.88084 -2.5
      vertex -10.9625 4.88084 2.5
    endloop
  endfacet
  facet normal 0.933581 -0.358368 0
    outer loop
      vertex -10.9625 4.88084 -2.5
      vertex -11.4127 3.7082 2.5
      vertex -11.4127 3.7082 -2.5
    endloop
  endfacet
  facet normal 0.965926 -0.258819 0
    outer loop
      vertex -11.7378 2.49494 2.5
      vertex -11.4127 3.7082 -2.5
      vertex -11.4127 3.7082 2.5
    endloop
  endfacet
  facet normal 0.965926 -0.258819 0
    outer loop
      vertex -11.4127 3.7082 -2.5
      vertex -11.7378 2.49494 2.5
      vertex -11.7378 2.49494 -2.5
    endloop
  endfacet
  facet normal 0.838671 -0.544639 0
    outer loop
      vertex -10.3923 6 2.5
      vertex -9.7082 7.05342 -2.5
      vertex -9.7082 7.05342 2.5
    endloop
  endfacet
  facet normal 0.838671 -0.544639 0
    outer loop
      vertex -9.7082 7.05342 -2.5
      vertex -10.3923 6 2.5
      vertex -10.3923 6 -2.5
    endloop
  endfacet
  facet normal 0.777146 -0.629321 0
    outer loop
      vertex -9.7082 7.05342 2.5
      vertex -8.91774 8.02957 -2.5
      vertex -8.91774 8.02957 2.5
    endloop
  endfacet
  facet normal 0.777146 -0.629321 0
    outer loop
      vertex -8.91774 8.02957 -2.5
      vertex -9.7082 7.05342 2.5
      vertex -9.7082 7.05342 -2.5
    endloop
  endfacet
  facet normal 0.258819 -0.965926 0
    outer loop
      vertex -3.7082 11.4127 -2.5
      vertex -2.49494 11.7378 2.5
      vertex -3.7082 11.4127 2.5
    endloop
  endfacet
  facet normal 0.258819 -0.965926 0
    outer loop
      vertex -2.49494 11.7378 2.5
      vertex -3.7082 11.4127 -2.5
      vertex -2.49494 11.7378 -2.5
    endloop
  endfacet
  facet normal 0.0523363 -0.99863 0
    outer loop
      vertex -1.25434 11.9343 -2.5
      vertex 0 12 2.5
      vertex -1.25434 11.9343 2.5
    endloop
  endfacet
  facet normal 0.0523363 -0.99863 0
    outer loop
      vertex 0 12 2.5
      vertex -1.25434 11.9343 -2.5
      vertex 0 12 -2.5
    endloop
  endfacet
  facet normal 0.544639 -0.838671 0
    outer loop
      vertex -7.05342 9.7082 -2.5
      vertex -6 10.3923 2.5
      vertex -7.05342 9.7082 2.5
    endloop
  endfacet
  facet normal 0.544639 -0.838671 0
    outer loop
      vertex -6 10.3923 2.5
      vertex -7.05342 9.7082 -2.5
      vertex -6 10.3923 -2.5
    endloop
  endfacet
  facet normal 0.453991 -0.891006 0
    outer loop
      vertex -6 10.3923 -2.5
      vertex -4.88084 10.9625 2.5
      vertex -6 10.3923 2.5
    endloop
  endfacet
  facet normal 0.453991 -0.891006 0
    outer loop
      vertex -4.88084 10.9625 2.5
      vertex -6 10.3923 -2.5
      vertex -4.88084 10.9625 -2.5
    endloop
  endfacet
  facet normal -0.99863 -0.0523363 0
    outer loop
      vertex 11.9738 0.5 -2.5
      vertex 11.9343 1.25434 2.5
      vertex 11.9343 1.25434 -2.5
    endloop
  endfacet
  facet normal -0.99863 -0.0523363 0
    outer loop
      vertex 11.9343 1.25434 2.5
      vertex 11.9738 0.5 -2.5
      vertex 11.9738 0.5 2.5
    endloop
  endfacet
  facet normal -0.0523363 0.99863 0
    outer loop
      vertex 1.25434 -11.9343 -2.5
      vertex 0 -12 2.5
      vertex 1.25434 -11.9343 2.5
    endloop
  endfacet
  facet normal -0.0523363 0.99863 0
    outer loop
      vertex 0 -12 2.5
      vertex 1.25434 -11.9343 -2.5
      vertex 0 -12 -2.5
    endloop
  endfacet
  facet normal -0.838671 0.544639 0
    outer loop
      vertex 9.7082 -7.05342 -2.5
      vertex 10.3923 -6 2.5
      vertex 10.3923 -6 -2.5
    endloop
  endfacet
  facet normal -0.838671 0.544639 0
    outer loop
      vertex 10.3923 -6 2.5
      vertex 9.7082 -7.05342 -2.5
      vertex 9.7082 -7.05342 2.5
    endloop
  endfacet
  facet normal -0.258819 0.965926 0
    outer loop
      vertex 3.7082 -11.4127 -2.5
      vertex 2.49494 -11.7378 2.5
      vertex 3.7082 -11.4127 2.5
    endloop
  endfacet
  facet normal -0.258819 0.965926 0
    outer loop
      vertex 2.49494 -11.7378 2.5
      vertex 3.7082 -11.4127 -2.5
      vertex 2.49494 -11.7378 -2.5
    endloop
  endfacet
  facet normal -0.629321 0.777146 0
    outer loop
      vertex 8.02957 -8.91774 -2.5
      vertex 7.05342 -9.7082 2.5
      vertex 8.02957 -8.91774 2.5
    endloop
  endfacet
  facet normal -0.629321 0.777146 0
    outer loop
      vertex 7.05342 -9.7082 2.5
      vertex 8.02957 -8.91774 -2.5
      vertex 7.05342 -9.7082 -2.5
    endloop
  endfacet
  facet normal -0.453991 0.891006 0
    outer loop
      vertex 6 -10.3923 -2.5
      vertex 4.88084 -10.9625 2.5
      vertex 6 -10.3923 2.5
    endloop
  endfacet
  facet normal -0.453991 0.891006 0
    outer loop
      vertex 4.88084 -10.9625 2.5
      vertex 6 -10.3923 -2.5
      vertex 4.88084 -10.9625 -2.5
    endloop
  endfacet
  facet normal 0.358368 0.933581 -0
    outer loop
      vertex -3.7082 -11.4127 -2.5
      vertex -4.88084 -10.9625 2.5
      vertex -3.7082 -11.4127 2.5
    endloop
  endfacet
  facet normal 0.358368 0.933581 0
    outer loop
      vertex -4.88084 -10.9625 2.5
      vertex -3.7082 -11.4127 -2.5
      vertex -4.88084 -10.9625 -2.5
    endloop
  endfacet
  facet normal 0.544639 0.83867 -0
    outer loop
      vertex -6 -10.3923 -2.5
      vertex -7.05342 -9.7082 2.5
      vertex -6 -10.3923 2.5
    endloop
  endfacet
  facet normal 0.544639 0.83867 0
    outer loop
      vertex -7.05342 -9.7082 2.5
      vertex -6 -10.3923 -2.5
      vertex -7.05342 -9.7082 -2.5
    endloop
  endfacet
  facet normal 0.965926 0.258819 0
    outer loop
      vertex -11.4127 -3.7082 2.5
      vertex -11.7378 -2.49494 -2.5
      vertex -11.7378 -2.49494 2.5
    endloop
  endfacet
  facet normal 0.965926 0.258819 0
    outer loop
      vertex -11.7378 -2.49494 -2.5
      vertex -11.4127 -3.7082 2.5
      vertex -11.4127 -3.7082 -2.5
    endloop
  endfacet
  facet normal 0.99863 0.0523363 0
    outer loop
      vertex -11.9343 -1.25434 2.5
      vertex -12 0 -2.5
      vertex -12 0 2.5
    endloop
  endfacet
  facet normal 0.99863 0.0523363 0
    outer loop
      vertex -12 0 -2.5
      vertex -11.9343 -1.25434 2.5
      vertex -11.9343 -1.25434 -2.5
    endloop
  endfacet
  facet normal 0.777146 0.629321 0
    outer loop
      vertex -8.91774 -8.02957 2.5
      vertex -9.7082 -7.05342 -2.5
      vertex -9.7082 -7.05342 2.5
    endloop
  endfacet
  facet normal 0.777146 0.629321 0
    outer loop
      vertex -9.7082 -7.05342 -2.5
      vertex -8.91774 -8.02957 2.5
      vertex -8.91774 -8.02957 -2.5
    endloop
  endfacet
  facet normal 0.891006 0.453991 0
    outer loop
      vertex -10.3923 -6 2.5
      vertex -10.9625 -4.88084 -2.5
      vertex -10.9625 -4.88084 2.5
    endloop
  endfacet
  facet normal 0.891006 0.453991 0
    outer loop
      vertex -10.9625 -4.88084 -2.5
      vertex -10.3923 -6 2.5
      vertex -10.3923 -6 -2.5
    endloop
  endfacet
  facet normal -0.987688 0.156434 0
    outer loop
      vertex 11.7378 -2.49494 -2.5
      vertex 11.9343 -1.25434 2.5
      vertex 11.9343 -1.25434 -2.5
    endloop
  endfacet
  facet normal -0.987688 0.156434 0
    outer loop
      vertex 11.9343 -1.25434 2.5
      vertex 11.7378 -2.49494 -2.5
      vertex 11.7378 -2.49494 2.5
    endloop
  endfacet
  facet normal -0.156434 0.987688 0
    outer loop
      vertex 2.49494 -11.7378 -2.5
      vertex 1.25434 -11.9343 2.5
      vertex 2.49494 -11.7378 2.5
    endloop
  endfacet
  facet normal -0.156434 0.987688 0
    outer loop
      vertex 1.25434 -11.9343 2.5
      vertex 2.49494 -11.7378 -2.5
      vertex 1.25434 -11.9343 -2.5
    endloop
  endfacet
  facet normal -0.358368 0.933581 0
    outer loop
      vertex 4.88084 -10.9625 -2.5
      vertex 3.7082 -11.4127 2.5
      vertex 4.88084 -10.9625 2.5
    endloop
  endfacet
  facet normal -0.358368 0.933581 0
    outer loop
      vertex 3.7082 -11.4127 2.5
      vertex 4.88084 -10.9625 -2.5
      vertex 3.7082 -11.4127 -2.5
    endloop
  endfacet
  facet normal -0.707107 0.707107 0
    outer loop
      vertex 8.02957 -8.91774 -2.5
      vertex 8.91774 -8.02957 2.5
      vertex 8.91774 -8.02957 -2.5
    endloop
  endfacet
  facet normal -0.707107 0.707107 0
    outer loop
      vertex 8.91774 -8.02957 2.5
      vertex 8.02957 -8.91774 -2.5
      vertex 8.02957 -8.91774 2.5
    endloop
  endfacet
  facet normal -0.544639 0.83867 0
    outer loop
      vertex 7.05342 -9.7082 -2.5
      vertex 6 -10.3923 2.5
      vertex 7.05342 -9.7082 2.5
    endloop
  endfacet
  facet normal -0.544639 0.83867 0
    outer loop
      vertex 6 -10.3923 2.5
      vertex 7.05342 -9.7082 -2.5
      vertex 6 -10.3923 -2.5
    endloop
  endfacet
  facet normal 0.0523363 0.99863 -0
    outer loop
      vertex 0 -12 -2.5
      vertex -1.25434 -11.9343 2.5
      vertex 0 -12 2.5
    endloop
  endfacet
  facet normal 0.0523363 0.99863 0
    outer loop
      vertex -1.25434 -11.9343 2.5
      vertex 0 -12 -2.5
      vertex -1.25434 -11.9343 -2.5
    endloop
  endfacet
  facet normal 0.258819 0.965926 -0
    outer loop
      vertex -2.49494 -11.7378 -2.5
      vertex -3.7082 -11.4127 2.5
      vertex -2.49494 -11.7378 2.5
    endloop
  endfacet
  facet normal 0.258819 0.965926 0
    outer loop
      vertex -3.7082 -11.4127 2.5
      vertex -2.49494 -11.7378 -2.5
      vertex -3.7082 -11.4127 -2.5
    endloop
  endfacet
  facet normal 0.629321 0.777146 -0
    outer loop
      vertex -7.05342 -9.7082 -2.5
      vertex -8.02957 -8.91774 2.5
      vertex -7.05342 -9.7082 2.5
    endloop
  endfacet
  facet normal 0.629321 0.777146 0
    outer loop
      vertex -8.02957 -8.91774 2.5
      vertex -7.05342 -9.7082 -2.5
      vertex -8.02957 -8.91774 -2.5
    endloop
  endfacet
  facet normal 0.933581 0.358368 0
    outer loop
      vertex -10.9625 -4.88084 2.5
      vertex -11.4127 -3.7082 -2.5
      vertex -11.4127 -3.7082 2.5
    endloop
  endfacet
  facet normal 0.933581 0.358368 0
    outer loop
      vertex -11.4127 -3.7082 -2.5
      vertex -10.9625 -4.88084 2.5
      vertex -10.9625 -4.88084 -2.5
    endloop
  endfacet
  facet normal 0.987688 0.156434 0
    outer loop
      vertex -11.7378 -2.49494 2.5
      vertex -11.9343 -1.25434 -2.5
      vertex -11.9343 -1.25434 2.5
    endloop
  endfacet
  facet normal 0.987688 0.156434 0
    outer loop
      vertex -11.9343 -1.25434 -2.5
      vertex -11.7378 -2.49494 2.5
      vertex -11.7378 -2.49494 -2.5
    endloop
  endfacet
  facet normal 0.838671 0.544639 0
    outer loop
      vertex -9.7082 -7.05342 2.5
      vertex -10.3923 -6 -2.5
      vertex -10.3923 -6 2.5
    endloop
  endfacet
  facet normal 0.838671 0.544639 0
    outer loop
      vertex -10.3923 -6 -2.5
      vertex -9.7082 -7.05342 2.5
      vertex -9.7082 -7.05342 -2.5
    endloop
  endfacet
  facet normal -0.965926 0.258819 0
    outer loop
      vertex 11.4127 -3.7082 -2.5
      vertex 11.7378 -2.49494 2.5
      vertex 11.7378 -2.49494 -2.5
    endloop
  endfacet
  facet normal -0.965926 0.258819 0
    outer loop
      vertex 11.7378 -2.49494 2.5
      vertex 11.4127 -3.7082 -2.5
      vertex 11.4127 -3.7082 2.5
    endloop
  endfacet
  facet normal -0.891006 0.453991 0
    outer loop
      vertex 10.3923 -6 -2.5
      vertex 10.9625 -4.88084 2.5
      vertex 10.9625 -4.88084 -2.5
    endloop
  endfacet
  facet normal -0.891006 0.453991 0
    outer loop
      vertex 10.9625 -4.88084 2.5
      vertex 10.3923 -6 -2.5
      vertex 10.3923 -6 2.5
    endloop
  endfacet
  facet normal 0 -1 0
    outer loop
      vertex 11.9738 0.5 -2.5
      vertex 12.4738 0.5 2.5
      vertex 11.9738 0.5 2.5
    endloop
  endfacet
  facet normal 0 -1 -0
    outer loop
      vertex 12.4738 0.5 2.5
      vertex 11.9738 0.5 -2.5
      vertex 12.4738 0.5 -2.5
    endloop
  endfacet
  facet normal 0 1 -0
    outer loop
      vertex 12.4738 -0.5 -2.5
      vertex 11.9738 -0.5 2.5
      vertex 12.4738 -0.5 2.5
    endloop
  endfacet
  facet normal 0 1 0
    outer loop
      vertex 11.9738 -0.5 2.5
      vertex 12.4738 -0.5 -2.5
      vertex 11.9738 -0.5 -2.5
    endloop
  endfacet
endsolid OpenSCAD_Model
