solid OpenSCAD_Model
  facet normal 0.62932 0.777146 -0
    outer loop
      vertex 33.7911 37.5288 0
      vertex 29.6832 40.8554 25
      vertex 33.7911 37.5288 25
    endloop
  endfacet
  facet normal 0.62932 0.777146 0
    outer loop
      vertex 29.6832 40.8554 25
      vertex 33.7911 37.5288 0
      vertex 29.6832 40.8554 0
    endloop
  endfacet
  facet normal 0.99863 -0.0523362 0
    outer loop
      vertex 50.2234 -5.27869 25
      vertex 50.5 0 0
      vertex 50.5 0 25
    endloop
  endfacet
  facet normal 0.99863 -0.0523362 0
    outer loop
      vertex 50.5 0 0
      vertex 50.2234 -5.27869 25
      vertex 50.2234 -5.27869 0
    endloop
  endfacet
  facet normal -0.358368 0.93358 0
    outer loop
      vertex -15.6054 48.0284 0
      vertex -20.5402 46.134 25
      vertex -15.6054 48.0284 25
    endloop
  endfacet
  facet normal -0.358368 0.93358 0
    outer loop
      vertex -20.5402 46.134 25
      vertex -15.6054 48.0284 0
      vertex -20.5402 46.134 0
    endloop
  endfacet
  facet normal -0.891007 0.45399 0
    outer loop
      vertex -46.134 20.5402 0
      vertex -43.7343 25.25 25
      vertex -43.7343 25.25 0
    endloop
  endfacet
  facet normal -0.891007 0.45399 0
    outer loop
      vertex -43.7343 25.25 25
      vertex -46.134 20.5402 0
      vertex -46.134 20.5402 25
    endloop
  endfacet
  facet normal -0.891007 -0.45399 0
    outer loop
      vertex -43.7343 -25.25 0
      vertex -46.134 -20.5402 25
      vertex -46.134 -20.5402 0
    endloop
  endfacet
  facet normal -0.891007 -0.45399 0
    outer loop
      vertex -46.134 -20.5402 25
      vertex -43.7343 -25.25 0
      vertex -43.7343 -25.25 25
    endloop
  endfacet
  facet normal 0.965926 0.258819 0
    outer loop
      vertex 49.3965 10.4995 25
      vertex 48.0284 15.6054 0
      vertex 48.0284 15.6054 25
    endloop
  endfacet
  facet normal 0.965926 0.258819 0
    outer loop
      vertex 48.0284 15.6054 0
      vertex 49.3965 10.4995 25
      vertex 49.3965 10.4995 0
    endloop
  endfacet
  facet normal 0.93358 0.358368 0
    outer loop
      vertex 48.0284 15.6054 25
      vertex 46.134 20.5402 0
      vertex 46.134 20.5402 25
    endloop
  endfacet
  facet normal 0.93358 0.358368 0
    outer loop
      vertex 46.134 20.5402 0
      vertex 48.0284 15.6054 25
      vertex 48.0284 15.6054 0
    endloop
  endfacet
  facet normal 0.777146 0.62932 0
    outer loop
      vertex 40.8554 29.6832 25
      vertex 37.5288 33.7911 0
      vertex 37.5288 33.7911 25
    endloop
  endfacet
  facet normal 0.777146 0.62932 0
    outer loop
      vertex 37.5288 33.7911 0
      vertex 40.8554 29.6832 25
      vertex 40.8554 29.6832 0
    endloop
  endfacet
  facet normal 0.544639 0.838671 -0
    outer loop
      vertex 29.6832 40.8554 0
      vertex 25.25 43.7343 25
      vertex 29.6832 40.8554 25
    endloop
  endfacet
  facet normal 0.544639 0.838671 0
    outer loop
      vertex 25.25 43.7343 25
      vertex 29.6832 40.8554 0
      vertex 25.25 43.7343 0
    endloop
  endfacet
  facet normal -0.62932 0.777146 0
    outer loop
      vertex -29.6832 40.8554 0
      vertex -33.7911 37.5288 25
      vertex -29.6832 40.8554 25
    endloop
  endfacet
  facet normal -0.62932 0.777146 0
    outer loop
      vertex -33.7911 37.5288 25
      vertex -29.6832 40.8554 0
      vertex -33.7911 37.5288 0
    endloop
  endfacet
  facet normal 0.838671 -0.544639 0
    outer loop
      vertex 40.8554 -29.6832 25
      vertex 43.7343 -25.25 0
      vertex 43.7343 -25.25 25
    endloop
  endfacet
  facet normal 0.838671 -0.544639 0
    outer loop
      vertex 43.7343 -25.25 0
      vertex 40.8554 -29.6832 25
      vertex 40.8554 -29.6832 0
    endloop
  endfacet
  facet normal 0.258819 -0.965926 0
    outer loop
      vertex 10.4995 -49.3965 0
      vertex 15.6054 -48.0284 25
      vertex 10.4995 -49.3965 25
    endloop
  endfacet
  facet normal 0.258819 -0.965926 0
    outer loop
      vertex 15.6054 -48.0284 25
      vertex 10.4995 -49.3965 0
      vertex 15.6054 -48.0284 0
    endloop
  endfacet
  facet normal 0.707107 -0.707107 0
    outer loop
      vertex 33.7911 -37.5288 25
      vertex 37.5288 -33.7911 0
      vertex 37.5288 -33.7911 25
    endloop
  endfacet
  facet normal 0.707107 -0.707107 0
    outer loop
      vertex 37.5288 -33.7911 0
      vertex 33.7911 -37.5288 25
      vertex 33.7911 -37.5288 0
    endloop
  endfacet
  facet normal -0.0523362 -0.99863 0
    outer loop
      vertex -5.27869 -50.2234 0
      vertex 0 -50.5 25
      vertex -5.27869 -50.2234 25
    endloop
  endfacet
  facet normal -0.0523362 -0.99863 -0
    outer loop
      vertex 0 -50.5 25
      vertex -5.27869 -50.2234 0
      vertex 0 -50.5 0
    endloop
  endfacet
  facet normal -0.544639 -0.838671 0
    outer loop
      vertex -29.6832 -40.8554 0
      vertex -25.25 -43.7343 25
      vertex -29.6832 -40.8554 25
    endloop
  endfacet
  facet normal -0.544639 -0.838671 -0
    outer loop
      vertex -25.25 -43.7343 25
      vertex -29.6832 -40.8554 0
      vertex -25.25 -43.7343 0
    endloop
  endfacet
  facet normal 0.891007 0.45399 0
    outer loop
      vertex 46.134 20.5402 25
      vertex 43.7343 25.25 0
      vertex 43.7343 25.25 25
    endloop
  endfacet
  facet normal 0.891007 0.45399 0
    outer loop
      vertex 43.7343 25.25 0
      vertex 46.134 20.5402 25
      vertex 46.134 20.5402 0
    endloop
  endfacet
  facet normal 0.838671 0.544639 0
    outer loop
      vertex 43.7343 25.25 25
      vertex 40.8554 29.6832 0
      vertex 40.8554 29.6832 25
    endloop
  endfacet
  facet normal 0.838671 0.544639 0
    outer loop
      vertex 40.8554 29.6832 0
      vertex 43.7343 25.25 25
      vertex 43.7343 25.25 0
    endloop
  endfacet
  facet normal 0.707107 0.707107 0
    outer loop
      vertex 37.5288 33.7911 25
      vertex 33.7911 37.5288 0
      vertex 33.7911 37.5288 25
    endloop
  endfacet
  facet normal 0.707107 0.707107 0
    outer loop
      vertex 33.7911 37.5288 0
      vertex 37.5288 33.7911 25
      vertex 37.5288 33.7911 0
    endloop
  endfacet
  facet normal 0.0523362 0.99863 -0
    outer loop
      vertex 5.27869 50.2234 0
      vertex 0 50.5 25
      vertex 5.27869 50.2234 25
    endloop
  endfacet
  facet normal 0.0523362 0.99863 0
    outer loop
      vertex 0 50.5 25
      vertex 5.27869 50.2234 0
      vertex 0 50.5 0
    endloop
  endfacet
  facet normal 0.45399 0.891007 -0
    outer loop
      vertex 25.25 43.7343 0
      vertex 20.5402 46.134 25
      vertex 25.25 43.7343 25
    endloop
  endfacet
  facet normal 0.45399 0.891007 0
    outer loop
      vertex 20.5402 46.134 25
      vertex 25.25 43.7343 0
      vertex 20.5402 46.134 0
    endloop
  endfacet
  facet normal 0.258819 0.965926 -0
    outer loop
      vertex 15.6054 48.0284 0
      vertex 10.4995 49.3965 25
      vertex 15.6054 48.0284 25
    endloop
  endfacet
  facet normal 0.258819 0.965926 0
    outer loop
      vertex 10.4995 49.3965 25
      vertex 15.6054 48.0284 0
      vertex 10.4995 49.3965 0
    endloop
  endfacet
  facet normal 0.156434 0.987688 -0
    outer loop
      vertex 10.4995 49.3965 0
      vertex 5.27869 50.2234 25
      vertex 10.4995 49.3965 25
    endloop
  endfacet
  facet normal 0.156434 0.987688 0
    outer loop
      vertex 5.27869 50.2234 25
      vertex 10.4995 49.3965 0
      vertex 5.27869 50.2234 0
    endloop
  endfacet
  facet normal -0.99863 0.0523362 0
    outer loop
      vertex -50.5 0 0
      vertex -50.2234 5.27869 25
      vertex -50.2234 5.27869 0
    endloop
  endfacet
  facet normal -0.99863 0.0523362 0
    outer loop
      vertex -50.2234 5.27869 25
      vertex -50.5 0 0
      vertex -50.5 0 25
    endloop
  endfacet
  facet normal -0.965926 0.258819 0
    outer loop
      vertex -49.3965 10.4995 0
      vertex -48.0284 15.6054 25
      vertex -48.0284 15.6054 0
    endloop
  endfacet
  facet normal -0.965926 0.258819 0
    outer loop
      vertex -48.0284 15.6054 25
      vertex -49.3965 10.4995 0
      vertex -49.3965 10.4995 25
    endloop
  endfacet
  facet normal -0.987688 0.156434 0
    outer loop
      vertex -50.2234 5.27869 0
      vertex -49.3965 10.4995 25
      vertex -49.3965 10.4995 0
    endloop
  endfacet
  facet normal -0.987688 0.156434 0
    outer loop
      vertex -49.3965 10.4995 25
      vertex -50.2234 5.27869 0
      vertex -50.2234 5.27869 25
    endloop
  endfacet
  facet normal -0.707107 0.707107 0
    outer loop
      vertex -37.5288 33.7911 0
      vertex -33.7911 37.5288 25
      vertex -33.7911 37.5288 0
    endloop
  endfacet
  facet normal -0.707107 0.707107 0
    outer loop
      vertex -33.7911 37.5288 25
      vertex -37.5288 33.7911 0
      vertex -37.5288 33.7911 25
    endloop
  endfacet
  facet normal -0.777146 0.62932 0
    outer loop
      vertex -40.8554 29.6832 0
      vertex -37.5288 33.7911 25
      vertex -37.5288 33.7911 0
    endloop
  endfacet
  facet normal -0.777146 0.62932 0
    outer loop
      vertex -37.5288 33.7911 25
      vertex -40.8554 29.6832 0
      vertex -40.8554 29.6832 25
    endloop
  endfacet
  facet normal -0.0523362 0.99863 0
    outer loop
      vertex 0 50.5 0
      vertex -5.27869 50.2234 25
      vertex 0 50.5 25
    endloop
  endfacet
  facet normal -0.0523362 0.99863 0
    outer loop
      vertex -5.27869 50.2234 25
      vertex 0 50.5 0
      vertex -5.27869 50.2234 0
    endloop
  endfacet
  facet normal -0.258819 0.965926 0
    outer loop
      vertex -10.4995 49.3965 0
      vertex -15.6054 48.0284 25
      vertex -10.4995 49.3965 25
    endloop
  endfacet
  facet normal -0.258819 0.965926 0
    outer loop
      vertex -15.6054 48.0284 25
      vertex -10.4995 49.3965 0
      vertex -15.6054 48.0284 0
    endloop
  endfacet
  facet normal -0.156434 0.987688 0
    outer loop
      vertex -5.27869 50.2234 0
      vertex -10.4995 49.3965 25
      vertex -5.27869 50.2234 25
    endloop
  endfacet
  facet normal -0.156434 0.987688 0
    outer loop
      vertex -10.4995 49.3965 25
      vertex -5.27869 50.2234 0
      vertex -10.4995 49.3965 0
    endloop
  endfacet
  facet normal -0.45399 0.891007 0
    outer loop
      vertex -20.5402 46.134 0
      vertex -25.25 43.7343 25
      vertex -20.5402 46.134 25
    endloop
  endfacet
  facet normal -0.45399 0.891007 0
    outer loop
      vertex -25.25 43.7343 25
      vertex -20.5402 46.134 0
      vertex -25.25 43.7343 0
    endloop
  endfacet
  facet normal -0.544639 0.838671 0
    outer loop
      vertex -25.25 43.7343 0
      vertex -29.6832 40.8554 25
      vertex -25.25 43.7343 25
    endloop
  endfacet
  facet normal -0.544639 0.838671 0
    outer loop
      vertex -29.6832 40.8554 25
      vertex -25.25 43.7343 0
      vertex -29.6832 40.8554 0
    endloop
  endfacet
  facet normal 0.99863 0.0523362 0
    outer loop
      vertex 50.5 0 25
      vertex 50.2234 5.27869 0
      vertex 50.2234 5.27869 25
    endloop
  endfacet
  facet normal 0.99863 0.0523362 0
    outer loop
      vertex 50.2234 5.27869 0
      vertex 50.5 0 25
      vertex 50.5 0 0
    endloop
  endfacet
  facet normal 0.987688 -0.156434 0
    outer loop
      vertex 49.3965 -10.4995 25
      vertex 50.2234 -5.27869 0
      vertex 50.2234 -5.27869 25
    endloop
  endfacet
  facet normal 0.987688 -0.156434 0
    outer loop
      vertex 50.2234 -5.27869 0
      vertex 49.3965 -10.4995 25
      vertex 49.3965 -10.4995 0
    endloop
  endfacet
  facet normal 0.0523362 -0.99863 0
    outer loop
      vertex 0 -50.5 0
      vertex 5.27869 -50.2234 25
      vertex 0 -50.5 25
    endloop
  endfacet
  facet normal 0.0523362 -0.99863 0
    outer loop
      vertex 5.27869 -50.2234 25
      vertex 0 -50.5 0
      vertex 5.27869 -50.2234 0
    endloop
  endfacet
  facet normal 0.777146 -0.62932 0
    outer loop
      vertex 37.5288 -33.7911 25
      vertex 40.8554 -29.6832 0
      vertex 40.8554 -29.6832 25
    endloop
  endfacet
  facet normal 0.777146 -0.62932 0
    outer loop
      vertex 40.8554 -29.6832 0
      vertex 37.5288 -33.7911 25
      vertex 37.5288 -33.7911 0
    endloop
  endfacet
  facet normal 0.156434 -0.987688 0
    outer loop
      vertex 5.27869 -50.2234 0
      vertex 10.4995 -49.3965 25
      vertex 5.27869 -50.2234 25
    endloop
  endfacet
  facet normal 0.156434 -0.987688 0
    outer loop
      vertex 10.4995 -49.3965 25
      vertex 5.27869 -50.2234 0
      vertex 10.4995 -49.3965 0
    endloop
  endfacet
  facet normal 0.45399 -0.891007 0
    outer loop
      vertex 20.5402 -46.134 0
      vertex 25.25 -43.7343 25
      vertex 20.5402 -46.134 25
    endloop
  endfacet
  facet normal 0.45399 -0.891007 0
    outer loop
      vertex 25.25 -43.7343 25
      vertex 20.5402 -46.134 0
      vertex 25.25 -43.7343 0
    endloop
  endfacet
  facet normal 0.62932 -0.777146 0
    outer loop
      vertex 29.6832 -40.8554 0
      vertex 33.7911 -37.5288 25
      vertex 29.6832 -40.8554 25
    endloop
  endfacet
  facet normal 0.62932 -0.777146 0
    outer loop
      vertex 33.7911 -37.5288 25
      vertex 29.6832 -40.8554 0
      vertex 33.7911 -37.5288 0
    endloop
  endfacet
  facet normal 0.544639 -0.838671 0
    outer loop
      vertex 25.25 -43.7343 0
      vertex 29.6832 -40.8554 25
      vertex 25.25 -43.7343 25
    endloop
  endfacet
  facet normal 0.544639 -0.838671 0
    outer loop
      vertex 29.6832 -40.8554 25
      vertex 25.25 -43.7343 0
      vertex 29.6832 -40.8554 0
    endloop
  endfacet
  facet normal -0.258819 -0.965926 0
    outer loop
      vertex -15.6054 -48.0284 0
      vertex -10.4995 -49.3965 25
      vertex -15.6054 -48.0284 25
    endloop
  endfacet
  facet normal -0.258819 -0.965926 -0
    outer loop
      vertex -10.4995 -49.3965 25
      vertex -15.6054 -48.0284 0
      vertex -10.4995 -49.3965 0
    endloop
  endfacet
  facet normal -0.358368 -0.93358 0
    outer loop
      vertex -20.5402 -46.134 0
      vertex -15.6054 -48.0284 25
      vertex -20.5402 -46.134 25
    endloop
  endfacet
  facet normal -0.358368 -0.93358 -0
    outer loop
      vertex -15.6054 -48.0284 25
      vertex -20.5402 -46.134 0
      vertex -15.6054 -48.0284 0
    endloop
  endfacet
  facet normal -0.156434 -0.987688 0
    outer loop
      vertex -10.4995 -49.3965 0
      vertex -5.27869 -50.2234 25
      vertex -10.4995 -49.3965 25
    endloop
  endfacet
  facet normal -0.156434 -0.987688 -0
    outer loop
      vertex -5.27869 -50.2234 25
      vertex -10.4995 -49.3965 0
      vertex -5.27869 -50.2234 0
    endloop
  endfacet
  facet normal -0.45399 -0.891007 0
    outer loop
      vertex -25.25 -43.7343 0
      vertex -20.5402 -46.134 25
      vertex -25.25 -43.7343 25
    endloop
  endfacet
  facet normal -0.45399 -0.891007 -0
    outer loop
      vertex -20.5402 -46.134 25
      vertex -25.25 -43.7343 0
      vertex -20.5402 -46.134 0
    endloop
  endfacet
  facet normal -0.707107 -0.707107 0
    outer loop
      vertex -33.7911 -37.5288 0
      vertex -37.5288 -33.7911 25
      vertex -37.5288 -33.7911 0
    endloop
  endfacet
  facet normal -0.707107 -0.707107 0
    outer loop
      vertex -37.5288 -33.7911 25
      vertex -33.7911 -37.5288 0
      vertex -33.7911 -37.5288 25
    endloop
  endfacet
  facet normal -0.965926 -0.258819 0
    outer loop
      vertex -48.0284 -15.6054 0
      vertex -49.3965 -10.4995 25
      vertex -49.3965 -10.4995 0
    endloop
  endfacet
  facet normal -0.965926 -0.258819 0
    outer loop
      vertex -49.3965 -10.4995 25
      vertex -48.0284 -15.6054 0
      vertex -48.0284 -15.6054 25
    endloop
  endfacet
  facet normal -0.99863 -0.0523362 0
    outer loop
      vertex -50.2234 -5.27869 0
      vertex -50.5 0 25
      vertex -50.5 0 0
    endloop
  endfacet
  facet normal -0.99863 -0.0523362 0
    outer loop
      vertex -50.5 0 25
      vertex -50.2234 -5.27869 0
      vertex -50.2234 -5.27869 25
    endloop
  endfacet
  facet normal 0 0 -1
    outer loop
      vertex 45 0 0
      vertex 50.5 0 0
      vertex 50.2234 -5.27869 0
    endloop
  endfacet
  facet normal 0 0 -1
    outer loop
      vertex 44.7535 -4.70378 0
      vertex 50.2234 -5.27869 0
      vertex 49.3965 -10.4995 0
    endloop
  endfacet
  facet normal 0 0 -1
    outer loop
      vertex 50.5 0 0
      vertex 45 0 0
      vertex 50.2234 5.27869 0
    endloop
  endfacet
  facet normal 0 0 -1
    outer loop
      vertex 44.0166 -9.35603 0
      vertex 49.3965 -10.4995 0
      vertex 48.0284 -15.6054 0
    endloop
  endfacet
  facet normal 0 0 -1
    outer loop
      vertex 44.7535 4.70378 0
      vertex 50.2234 5.27869 0
      vertex 45 0 0
    endloop
  endfacet
  facet normal 0 0 -1
    outer loop
      vertex 42.7975 -13.9058 0
      vertex 48.0284 -15.6054 0
      vertex 46.134 -20.5402 0
    endloop
  endfacet
  facet normal -0 0 -1
    outer loop
      vertex 50.2234 5.27869 0
      vertex 44.7535 4.70378 0
      vertex 49.3965 10.4995 0
    endloop
  endfacet
  facet normal 0 0 -1
    outer loop
      vertex 44.0166 9.35603 0
      vertex 49.3965 10.4995 0
      vertex 44.7535 4.70378 0
    endloop
  endfacet
  facet normal 0 0 -1
    outer loop
      vertex 50.2234 -5.27869 0
      vertex 44.7535 -4.70378 0
      vertex 45 0 0
    endloop
  endfacet
  facet normal 0 0 -1
    outer loop
      vertex 49.3965 -10.4995 0
      vertex 44.0166 -9.35603 0
      vertex 44.7535 -4.70378 0
    endloop
  endfacet
  facet normal 0 0 -1
    outer loop
      vertex 41.1095 -18.3031 0
      vertex 46.134 -20.5402 0
      vertex 43.7343 -25.25 0
    endloop
  endfacet
  facet normal 0 0 -1
    outer loop
      vertex 48.0284 -15.6054 0
      vertex 42.7975 -13.9058 0
      vertex 44.0166 -9.35603 0
    endloop
  endfacet
  facet normal 0 0 -1
    outer loop
      vertex 46.134 -20.5402 0
      vertex 41.1095 -18.3031 0
      vertex 42.7975 -13.9058 0
    endloop
  endfacet
  facet normal 0 0 -1
    outer loop
      vertex 38.9711 -22.5 0
      vertex 43.7343 -25.25 0
      vertex 40.8554 -29.6832 0
    endloop
  endfacet
  facet normal 0 0 -1
    outer loop
      vertex 43.7343 -25.25 0
      vertex 38.9711 -22.5 0
      vertex 41.1095 -18.3031 0
    endloop
  endfacet
  facet normal 0 0 -1
    outer loop
      vertex 36.4058 -26.4503 0
      vertex 40.8554 -29.6832 0
      vertex 37.5288 -33.7911 0
    endloop
  endfacet
  facet normal 0 0 -1
    outer loop
      vertex 40.8554 -29.6832 0
      vertex 36.4058 -26.4503 0
      vertex 38.9711 -22.5 0
    endloop
  endfacet
  facet normal 0 0 -1
    outer loop
      vertex 33.4415 -30.1109 0
      vertex 37.5288 -33.7911 0
      vertex 33.7911 -37.5288 0
    endloop
  endfacet
  facet normal 0 0 -1
    outer loop
      vertex 37.5288 -33.7911 0
      vertex 33.4415 -30.1109 0
      vertex 36.4058 -26.4503 0
    endloop
  endfacet
  facet normal 0 0 -1
    outer loop
      vertex 33.7911 -37.5288 0
      vertex 30.1109 -33.4415 0
      vertex 33.4415 -30.1109 0
    endloop
  endfacet
  facet normal 0 0 -1
    outer loop
      vertex 29.6832 -40.8554 0
      vertex 30.1109 -33.4415 0
      vertex 33.7911 -37.5288 0
    endloop
  endfacet
  facet normal 0 0 -1
    outer loop
      vertex 29.6832 -40.8554 0
      vertex 26.4503 -36.4058 0
      vertex 30.1109 -33.4415 0
    endloop
  endfacet
  facet normal 0 0 -1
    outer loop
      vertex 25.25 -43.7343 0
      vertex 26.4503 -36.4058 0
      vertex 29.6832 -40.8554 0
    endloop
  endfacet
  facet normal 0 0 -1
    outer loop
      vertex 25.25 -43.7343 0
      vertex 22.5 -38.9711 0
      vertex 26.4503 -36.4058 0
    endloop
  endfacet
  facet normal 0 0 -1
    outer loop
      vertex 20.5402 -46.134 0
      vertex 22.5 -38.9711 0
      vertex 25.25 -43.7343 0
    endloop
  endfacet
  facet normal 0 0 -1
    outer loop
      vertex 20.5402 -46.134 0
      vertex 18.3031 -41.1095 0
      vertex 22.5 -38.9711 0
    endloop
  endfacet
  facet normal 0 0 -1
    outer loop
      vertex 15.6054 -48.0284 0
      vertex 18.3031 -41.1095 0
      vertex 20.5402 -46.134 0
    endloop
  endfacet
  facet normal 0 0 -1
    outer loop
      vertex 15.6054 -48.0284 0
      vertex 13.9058 -42.7975 0
      vertex 18.3031 -41.1095 0
    endloop
  endfacet
  facet normal 0 0 -1
    outer loop
      vertex 10.4995 -49.3965 0
      vertex 13.9058 -42.7975 0
      vertex 15.6054 -48.0284 0
    endloop
  endfacet
  facet normal 0 0 -1
    outer loop
      vertex 10.4995 -49.3965 0
      vertex 9.35603 -44.0166 0
      vertex 13.9058 -42.7975 0
    endloop
  endfacet
  facet normal 0 0 -1
    outer loop
      vertex 5.27869 -50.2234 0
      vertex 9.35603 -44.0166 0
      vertex 10.4995 -49.3965 0
    endloop
  endfacet
  facet normal 0 0 -1
    outer loop
      vertex 5.27869 -50.2234 0
      vertex 4.70378 -44.7535 0
      vertex 9.35603 -44.0166 0
    endloop
  endfacet
  facet normal 0 0 -1
    outer loop
      vertex 0 -50.5 0
      vertex 4.70378 -44.7535 0
      vertex 5.27869 -50.2234 0
    endloop
  endfacet
  facet normal 0 0 -1
    outer loop
      vertex 0 -50.5 0
      vertex 0 -45 0
      vertex 4.70378 -44.7535 0
    endloop
  endfacet
  facet normal 0 0 -1
    outer loop
      vertex 0 -50.5 0
      vertex -4.70378 -44.7535 0
      vertex 0 -45 0
    endloop
  endfacet
  facet normal 0 0 -1
    outer loop
      vertex -5.27869 -50.2234 0
      vertex -4.70378 -44.7535 0
      vertex 0 -50.5 0
    endloop
  endfacet
  facet normal 0 0 -1
    outer loop
      vertex -5.27869 -50.2234 0
      vertex -9.35603 -44.0166 0
      vertex -4.70378 -44.7535 0
    endloop
  endfacet
  facet normal 0 0 -1
    outer loop
      vertex -10.4995 -49.3965 0
      vertex -9.35603 -44.0166 0
      vertex -5.27869 -50.2234 0
    endloop
  endfacet
  facet normal 0 0 -1
    outer loop
      vertex -10.4995 -49.3965 0
      vertex -13.9058 -42.7975 0
      vertex -9.35603 -44.0166 0
    endloop
  endfacet
  facet normal 0 0 -1
    outer loop
      vertex -15.6054 -48.0284 0
      vertex -13.9058 -42.7975 0
      vertex -10.4995 -49.3965 0
    endloop
  endfacet
  facet normal 0 0 -1
    outer loop
      vertex -15.6054 -48.0284 0
      vertex -18.3031 -41.1095 0
      vertex -13.9058 -42.7975 0
    endloop
  endfacet
  facet normal 0 0 -1
    outer loop
      vertex -20.5402 -46.134 0
      vertex -18.3031 -41.1095 0
      vertex -15.6054 -48.0284 0
    endloop
  endfacet
  facet normal 0 0 -1
    outer loop
      vertex -20.5402 -46.134 0
      vertex -22.5 -38.9711 0
      vertex -18.3031 -41.1095 0
    endloop
  endfacet
  facet normal 0 0 -1
    outer loop
      vertex -25.25 -43.7343 0
      vertex -22.5 -38.9711 0
      vertex -20.5402 -46.134 0
    endloop
  endfacet
  facet normal 0 0 -1
    outer loop
      vertex -25.25 -43.7343 0
      vertex -26.4503 -36.4058 0
      vertex -22.5 -38.9711 0
    endloop
  endfacet
  facet normal 0 0 -1
    outer loop
      vertex -29.6832 -40.8554 0
      vertex -26.4503 -36.4058 0
      vertex -25.25 -43.7343 0
    endloop
  endfacet
  facet normal 0 0 -1
    outer loop
      vertex -29.6832 -40.8554 0
      vertex -30.1109 -33.4415 0
      vertex -26.4503 -36.4058 0
    endloop
  endfacet
  facet normal 0 0 -1
    outer loop
      vertex -33.7911 -37.5288 0
      vertex -30.1109 -33.4415 0
      vertex -29.6832 -40.8554 0
    endloop
  endfacet
  facet normal -0 0 -1
    outer loop
      vertex -30.1109 -33.4415 0
      vertex -33.7911 -37.5288 0
      vertex -33.4415 -30.1109 0
    endloop
  endfacet
  facet normal 0 0 -1
    outer loop
      vertex -37.5288 -33.7911 0
      vertex -33.4415 -30.1109 0
      vertex -33.7911 -37.5288 0
    endloop
  endfacet
  facet normal -0 0 -1
    outer loop
      vertex -33.4415 -30.1109 0
      vertex -37.5288 -33.7911 0
      vertex -36.4058 -26.4503 0
    endloop
  endfacet
  facet normal 0 0 -1
    outer loop
      vertex -40.8554 -29.6832 0
      vertex -36.4058 -26.4503 0
      vertex -37.5288 -33.7911 0
    endloop
  endfacet
  facet normal -0 0 -1
    outer loop
      vertex -36.4058 -26.4503 0
      vertex -40.8554 -29.6832 0
      vertex -38.9711 -22.5 0
    endloop
  endfacet
  facet normal 0 0 -1
    outer loop
      vertex -43.7343 -25.25 0
      vertex -38.9711 -22.5 0
      vertex -40.8554 -29.6832 0
    endloop
  endfacet
  facet normal -0 0 -1
    outer loop
      vertex -38.9711 -22.5 0
      vertex -43.7343 -25.25 0
      vertex -41.1095 -18.3031 0
    endloop
  endfacet
  facet normal 0 0 -1
    outer loop
      vertex -46.134 -20.5402 0
      vertex -41.1095 -18.3031 0
      vertex -43.7343 -25.25 0
    endloop
  endfacet
  facet normal -0 0 -1
    outer loop
      vertex -41.1095 -18.3031 0
      vertex -46.134 -20.5402 0
      vertex -42.7975 -13.9058 0
    endloop
  endfacet
  facet normal 0 0 -1
    outer loop
      vertex -48.0284 -15.6054 0
      vertex -42.7975 -13.9058 0
      vertex -46.134 -20.5402 0
    endloop
  endfacet
  facet normal -0 0 -1
    outer loop
      vertex -42.7975 -13.9058 0
      vertex -48.0284 -15.6054 0
      vertex -44.0166 -9.35603 0
    endloop
  endfacet
  facet normal 0 0 -1
    outer loop
      vertex -49.3965 -10.4995 0
      vertex -44.0166 -9.35603 0
      vertex -48.0284 -15.6054 0
    endloop
  endfacet
  facet normal -0 0 -1
    outer loop
      vertex 49.3965 10.4995 0
      vertex 44.0166 9.35603 0
      vertex 48.0284 15.6054 0
    endloop
  endfacet
  facet normal 0 0 -1
    outer loop
      vertex 42.7975 13.9058 0
      vertex 48.0284 15.6054 0
      vertex 44.0166 9.35603 0
    endloop
  endfacet
  facet normal -0 0 -1
    outer loop
      vertex 48.0284 15.6054 0
      vertex 42.7975 13.9058 0
      vertex 46.134 20.5402 0
    endloop
  endfacet
  facet normal 0 0 -1
    outer loop
      vertex 41.1095 18.3031 0
      vertex 46.134 20.5402 0
      vertex 42.7975 13.9058 0
    endloop
  endfacet
  facet normal -0 0 -1
    outer loop
      vertex 46.134 20.5402 0
      vertex 41.1095 18.3031 0
      vertex 43.7343 25.25 0
    endloop
  endfacet
  facet normal 0 0 -1
    outer loop
      vertex 38.9711 22.5 0
      vertex 43.7343 25.25 0
      vertex 41.1095 18.3031 0
    endloop
  endfacet
  facet normal -0 0 -1
    outer loop
      vertex 43.7343 25.25 0
      vertex 38.9711 22.5 0
      vertex 40.8554 29.6832 0
    endloop
  endfacet
  facet normal 0 0 -1
    outer loop
      vertex 36.4058 26.4503 0
      vertex 40.8554 29.6832 0
      vertex 38.9711 22.5 0
    endloop
  endfacet
  facet normal -0 0 -1
    outer loop
      vertex 40.8554 29.6832 0
      vertex 36.4058 26.4503 0
      vertex 37.5288 33.7911 0
    endloop
  endfacet
  facet normal 0 0 -1
    outer loop
      vertex 33.4415 30.1109 0
      vertex 37.5288 33.7911 0
      vertex 36.4058 26.4503 0
    endloop
  endfacet
  facet normal -0 0 -1
    outer loop
      vertex 37.5288 33.7911 0
      vertex 33.4415 30.1109 0
      vertex 33.7911 37.5288 0
    endloop
  endfacet
  facet normal 0 0 -1
    outer loop
      vertex 30.1109 33.4415 0
      vertex 33.7911 37.5288 0
      vertex 33.4415 30.1109 0
    endloop
  endfacet
  facet normal 0 0 -1
    outer loop
      vertex 30.1109 33.4415 0
      vertex 29.6832 40.8554 0
      vertex 33.7911 37.5288 0
    endloop
  endfacet
  facet normal 0 0 -1
    outer loop
      vertex 26.4503 36.4058 0
      vertex 29.6832 40.8554 0
      vertex 30.1109 33.4415 0
    endloop
  endfacet
  facet normal 0 0 -1
    outer loop
      vertex 26.4503 36.4058 0
      vertex 25.25 43.7343 0
      vertex 29.6832 40.8554 0
    endloop
  endfacet
  facet normal 0 0 -1
    outer loop
      vertex 22.5 38.9711 0
      vertex 25.25 43.7343 0
      vertex 26.4503 36.4058 0
    endloop
  endfacet
  facet normal 0 0 -1
    outer loop
      vertex 22.5 38.9711 0
      vertex 20.5402 46.134 0
      vertex 25.25 43.7343 0
    endloop
  endfacet
  facet normal 0 0 -1
    outer loop
      vertex 18.3031 41.1095 0
      vertex 20.5402 46.134 0
      vertex 22.5 38.9711 0
    endloop
  endfacet
  facet normal 0 0 -1
    outer loop
      vertex 18.3031 41.1095 0
      vertex 15.6054 48.0284 0
      vertex 20.5402 46.134 0
    endloop
  endfacet
  facet normal 0 0 -1
    outer loop
      vertex 13.9058 42.7975 0
      vertex 15.6054 48.0284 0
      vertex 18.3031 41.1095 0
    endloop
  endfacet
  facet normal 0 0 -1
    outer loop
      vertex 13.9058 42.7975 0
      vertex 10.4995 49.3965 0
      vertex 15.6054 48.0284 0
    endloop
  endfacet
  facet normal 0 0 -1
    outer loop
      vertex 9.35603 44.0166 0
      vertex 10.4995 49.3965 0
      vertex 13.9058 42.7975 0
    endloop
  endfacet
  facet normal 0 0 -1
    outer loop
      vertex 9.35603 44.0166 0
      vertex 5.27869 50.2234 0
      vertex 10.4995 49.3965 0
    endloop
  endfacet
  facet normal 0 0 -1
    outer loop
      vertex 4.70378 44.7535 0
      vertex 5.27869 50.2234 0
      vertex 9.35603 44.0166 0
    endloop
  endfacet
  facet normal 0 0 -1
    outer loop
      vertex 0 45 0
      vertex 5.27869 50.2234 0
      vertex 4.70378 44.7535 0
    endloop
  endfacet
  facet normal 0 0 -1
    outer loop
      vertex 0 45 0
      vertex 0 50.5 0
      vertex 5.27869 50.2234 0
    endloop
  endfacet
  facet normal 0 0 -1
    outer loop
      vertex -4.70378 44.7535 0
      vertex 0 50.5 0
      vertex 0 45 0
    endloop
  endfacet
  facet normal 0 0 -1
    outer loop
      vertex -4.70378 44.7535 0
      vertex -5.27869 50.2234 0
      vertex 0 50.5 0
    endloop
  endfacet
  facet normal 0 0 -1
    outer loop
      vertex -9.35603 44.0166 0
      vertex -5.27869 50.2234 0
      vertex -4.70378 44.7535 0
    endloop
  endfacet
  facet normal 0 0 -1
    outer loop
      vertex -9.35603 44.0166 0
      vertex -10.4995 49.3965 0
      vertex -5.27869 50.2234 0
    endloop
  endfacet
  facet normal 0 0 -1
    outer loop
      vertex -13.9058 42.7975 0
      vertex -10.4995 49.3965 0
      vertex -9.35603 44.0166 0
    endloop
  endfacet
  facet normal 0 0 -1
    outer loop
      vertex -13.9058 42.7975 0
      vertex -15.6054 48.0284 0
      vertex -10.4995 49.3965 0
    endloop
  endfacet
  facet normal 0 0 -1
    outer loop
      vertex -18.3031 41.1095 0
      vertex -15.6054 48.0284 0
      vertex -13.9058 42.7975 0
    endloop
  endfacet
  facet normal 0 0 -1
    outer loop
      vertex -18.3031 41.1095 0
      vertex -20.5402 46.134 0
      vertex -15.6054 48.0284 0
    endloop
  endfacet
  facet normal 0 0 -1
    outer loop
      vertex -22.5 38.9711 0
      vertex -20.5402 46.134 0
      vertex -18.3031 41.1095 0
    endloop
  endfacet
  facet normal 0 0 -1
    outer loop
      vertex -22.5 38.9711 0
      vertex -25.25 43.7343 0
      vertex -20.5402 46.134 0
    endloop
  endfacet
  facet normal 0 0 -1
    outer loop
      vertex -26.4503 36.4058 0
      vertex -25.25 43.7343 0
      vertex -22.5 38.9711 0
    endloop
  endfacet
  facet normal 0 0 -1
    outer loop
      vertex -26.4503 36.4058 0
      vertex -29.6832 40.8554 0
      vertex -25.25 43.7343 0
    endloop
  endfacet
  facet normal 0 0 -1
    outer loop
      vertex -30.1109 33.4415 0
      vertex -29.6832 40.8554 0
      vertex -26.4503 36.4058 0
    endloop
  endfacet
  facet normal 0 0 -1
    outer loop
      vertex -33.7911 37.5288 0
      vertex -30.1109 33.4415 0
      vertex -33.4415 30.1109 0
    endloop
  endfacet
  facet normal 0 0 -1
    outer loop
      vertex -30.1109 33.4415 0
      vertex -33.7911 37.5288 0
      vertex -29.6832 40.8554 0
    endloop
  endfacet
  facet normal 0 0 -1
    outer loop
      vertex -37.5288 33.7911 0
      vertex -33.4415 30.1109 0
      vertex -36.4058 26.4503 0
    endloop
  endfacet
  facet normal 0 0 -1
    outer loop
      vertex -33.4415 30.1109 0
      vertex -37.5288 33.7911 0
      vertex -33.7911 37.5288 0
    endloop
  endfacet
  facet normal 0 0 -1
    outer loop
      vertex -40.8554 29.6832 0
      vertex -36.4058 26.4503 0
      vertex -38.9711 22.5 0
    endloop
  endfacet
  facet normal 0 0 -1
    outer loop
      vertex -36.4058 26.4503 0
      vertex -40.8554 29.6832 0
      vertex -37.5288 33.7911 0
    endloop
  endfacet
  facet normal 0 0 -1
    outer loop
      vertex -43.7343 25.25 0
      vertex -38.9711 22.5 0
      vertex -41.1095 18.3031 0
    endloop
  endfacet
  facet normal 0 0 -1
    outer loop
      vertex -46.134 20.5402 0
      vertex -41.1095 18.3031 0
      vertex -42.7975 13.9058 0
    endloop
  endfacet
  facet normal 0 0 -1
    outer loop
      vertex -38.9711 22.5 0
      vertex -43.7343 25.25 0
      vertex -40.8554 29.6832 0
    endloop
  endfacet
  facet normal 0 0 -1
    outer loop
      vertex -48.0284 15.6054 0
      vertex -42.7975 13.9058 0
      vertex -44.0166 9.35603 0
    endloop
  endfacet
  facet normal 0 0 -1
    outer loop
      vertex -49.3965 10.4995 0
      vertex -44.0166 9.35603 0
      vertex -44.7535 4.70378 0
    endloop
  endfacet
  facet normal 0 0 -1
    outer loop
      vertex -50.2234 5.27869 0
      vertex -44.7535 4.70378 0
      vertex -45 0 0
    endloop
  endfacet
  facet normal -0 0 -1
    outer loop
      vertex -44.0166 -9.35603 0
      vertex -49.3965 -10.4995 0
      vertex -44.7535 -4.70378 0
    endloop
  endfacet
  facet normal 0 0 -1
    outer loop
      vertex -41.1095 18.3031 0
      vertex -46.134 20.5402 0
      vertex -43.7343 25.25 0
    endloop
  endfacet
  facet normal 0 0 -1
    outer loop
      vertex -50.2234 -5.27869 0
      vertex -44.7535 -4.70378 0
      vertex -49.3965 -10.4995 0
    endloop
  endfacet
  facet normal 0 0 -1
    outer loop
      vertex -42.7975 13.9058 0
      vertex -48.0284 15.6054 0
      vertex -46.134 20.5402 0
    endloop
  endfacet
  facet normal -0 0 -1
    outer loop
      vertex -44.7535 -4.70378 0
      vertex -50.2234 -5.27869 0
      vertex -45 0 0
    endloop
  endfacet
  facet normal 0 0 -1
    outer loop
      vertex -44.0166 9.35603 0
      vertex -49.3965 10.4995 0
      vertex -48.0284 15.6054 0
    endloop
  endfacet
  facet normal 0 0 -1
    outer loop
      vertex -50.5 0 0
      vertex -45 0 0
      vertex -50.2234 -5.27869 0
    endloop
  endfacet
  facet normal 0 0 -1
    outer loop
      vertex -44.7535 4.70378 0
      vertex -50.2234 5.27869 0
      vertex -49.3965 10.4995 0
    endloop
  endfacet
  facet normal 0 0 -1
    outer loop
      vertex -45 0 0
      vertex -50.5 0 0
      vertex -50.2234 5.27869 0
    endloop
  endfacet
  facet normal -0.777146 -0.62932 0
    outer loop
      vertex -37.5288 -33.7911 0
      vertex -40.8554 -29.6832 25
      vertex -40.8554 -29.6832 0
    endloop
  endfacet
  facet normal -0.777146 -0.62932 0
    outer loop
      vertex -40.8554 -29.6832 25
      vertex -37.5288 -33.7911 0
      vertex -37.5288 -33.7911 25
    endloop
  endfacet
  facet normal 0.987688 0.156434 0
    outer loop
      vertex 50.2234 5.27869 25
      vertex 49.3965 10.4995 0
      vertex 49.3965 10.4995 25
    endloop
  endfacet
  facet normal 0.987688 0.156434 0
    outer loop
      vertex 49.3965 10.4995 0
      vertex 50.2234 5.27869 25
      vertex 50.2234 5.27869 0
    endloop
  endfacet
  facet normal 0.358368 0.93358 -0
    outer loop
      vertex 20.5402 46.134 0
      vertex 15.6054 48.0284 25
      vertex 20.5402 46.134 25
    endloop
  endfacet
  facet normal 0.358368 0.93358 0
    outer loop
      vertex 15.6054 48.0284 25
      vertex 20.5402 46.134 0
      vertex 15.6054 48.0284 0
    endloop
  endfacet
  facet normal 0 0 1
    outer loop
      vertex 45 0 25
      vertex 50.5 0 25
      vertex 50.2234 5.27869 25
    endloop
  endfacet
  facet normal 0 0 1
    outer loop
      vertex 44.7535 4.70378 25
      vertex 50.2234 5.27869 25
      vertex 49.3965 10.4995 25
    endloop
  endfacet
  facet normal 0 0 1
    outer loop
      vertex 50.5 0 25
      vertex 45 0 25
      vertex 50.2234 -5.27869 25
    endloop
  endfacet
  facet normal 0 0 1
    outer loop
      vertex 44.0166 9.35603 25
      vertex 49.3965 10.4995 25
      vertex 48.0284 15.6054 25
    endloop
  endfacet
  facet normal -0 0 1
    outer loop
      vertex 44.7535 -4.70378 25
      vertex 50.2234 -5.27869 25
      vertex 45 0 25
    endloop
  endfacet
  facet normal 0 0 1
    outer loop
      vertex 42.7975 13.9058 25
      vertex 48.0284 15.6054 25
      vertex 46.134 20.5402 25
    endloop
  endfacet
  facet normal 0 0 1
    outer loop
      vertex 50.2234 -5.27869 25
      vertex 44.7535 -4.70378 25
      vertex 49.3965 -10.4995 25
    endloop
  endfacet
  facet normal -0 0 1
    outer loop
      vertex 44.0166 -9.35603 25
      vertex 49.3965 -10.4995 25
      vertex 44.7535 -4.70378 25
    endloop
  endfacet
  facet normal 0 0 1
    outer loop
      vertex 50.2234 5.27869 25
      vertex 44.7535 4.70378 25
      vertex 45 0 25
    endloop
  endfacet
  facet normal 0 0 1
    outer loop
      vertex 49.3965 10.4995 25
      vertex 44.0166 9.35603 25
      vertex 44.7535 4.70378 25
    endloop
  endfacet
  facet normal 0 0 1
    outer loop
      vertex 41.1095 18.3031 25
      vertex 46.134 20.5402 25
      vertex 43.7343 25.25 25
    endloop
  endfacet
  facet normal 0 0 1
    outer loop
      vertex 48.0284 15.6054 25
      vertex 42.7975 13.9058 25
      vertex 44.0166 9.35603 25
    endloop
  endfacet
  facet normal 0 0 1
    outer loop
      vertex 46.134 20.5402 25
      vertex 41.1095 18.3031 25
      vertex 42.7975 13.9058 25
    endloop
  endfacet
  facet normal 0 0 1
    outer loop
      vertex 38.9711 22.5 25
      vertex 43.7343 25.25 25
      vertex 40.8554 29.6832 25
    endloop
  endfacet
  facet normal 0 0 1
    outer loop
      vertex 43.7343 25.25 25
      vertex 38.9711 22.5 25
      vertex 41.1095 18.3031 25
    endloop
  endfacet
  facet normal 0 0 1
    outer loop
      vertex 36.4058 26.4503 25
      vertex 40.8554 29.6832 25
      vertex 37.5288 33.7911 25
    endloop
  endfacet
  facet normal 0 0 1
    outer loop
      vertex 40.8554 29.6832 25
      vertex 36.4058 26.4503 25
      vertex 38.9711 22.5 25
    endloop
  endfacet
  facet normal 0 0 1
    outer loop
      vertex 33.4415 30.1109 25
      vertex 37.5288 33.7911 25
      vertex 33.7911 37.5288 25
    endloop
  endfacet
  facet normal 0 0 1
    outer loop
      vertex 37.5288 33.7911 25
      vertex 33.4415 30.1109 25
      vertex 36.4058 26.4503 25
    endloop
  endfacet
  facet normal 0 0 1
    outer loop
      vertex 33.7911 37.5288 25
      vertex 30.1109 33.4415 25
      vertex 33.4415 30.1109 25
    endloop
  endfacet
  facet normal 0 0 1
    outer loop
      vertex 29.6832 40.8554 25
      vertex 30.1109 33.4415 25
      vertex 33.7911 37.5288 25
    endloop
  endfacet
  facet normal 0 0 1
    outer loop
      vertex 29.6832 40.8554 25
      vertex 26.4503 36.4058 25
      vertex 30.1109 33.4415 25
    endloop
  endfacet
  facet normal 0 0 1
    outer loop
      vertex 25.25 43.7343 25
      vertex 26.4503 36.4058 25
      vertex 29.6832 40.8554 25
    endloop
  endfacet
  facet normal 0 0 1
    outer loop
      vertex 25.25 43.7343 25
      vertex 22.5 38.9711 25
      vertex 26.4503 36.4058 25
    endloop
  endfacet
  facet normal 0 0 1
    outer loop
      vertex 20.5402 46.134 25
      vertex 22.5 38.9711 25
      vertex 25.25 43.7343 25
    endloop
  endfacet
  facet normal 0 0 1
    outer loop
      vertex 20.5402 46.134 25
      vertex 18.3031 41.1095 25
      vertex 22.5 38.9711 25
    endloop
  endfacet
  facet normal 0 0 1
    outer loop
      vertex 15.6054 48.0284 25
      vertex 18.3031 41.1095 25
      vertex 20.5402 46.134 25
    endloop
  endfacet
  facet normal 0 0 1
    outer loop
      vertex 15.6054 48.0284 25
      vertex 13.9058 42.7975 25
      vertex 18.3031 41.1095 25
    endloop
  endfacet
  facet normal 0 0 1
    outer loop
      vertex 10.4995 49.3965 25
      vertex 13.9058 42.7975 25
      vertex 15.6054 48.0284 25
    endloop
  endfacet
  facet normal 0 0 1
    outer loop
      vertex 10.4995 49.3965 25
      vertex 9.35603 44.0166 25
      vertex 13.9058 42.7975 25
    endloop
  endfacet
  facet normal 0 0 1
    outer loop
      vertex 5.27869 50.2234 25
      vertex 9.35603 44.0166 25
      vertex 10.4995 49.3965 25
    endloop
  endfacet
  facet normal 0 0 1
    outer loop
      vertex 5.27869 50.2234 25
      vertex 4.70378 44.7535 25
      vertex 9.35603 44.0166 25
    endloop
  endfacet
  facet normal 0 0 1
    outer loop
      vertex 0 50.5 25
      vertex 4.70378 44.7535 25
      vertex 5.27869 50.2234 25
    endloop
  endfacet
  facet normal 0 0 1
    outer loop
      vertex 0 50.5 25
      vertex 0 45 25
      vertex 4.70378 44.7535 25
    endloop
  endfacet
  facet normal 0 0 1
    outer loop
      vertex 0 50.5 25
      vertex -4.70378 44.7535 25
      vertex 0 45 25
    endloop
  endfacet
  facet normal -0 0 1
    outer loop
      vertex -5.27869 50.2234 25
      vertex -4.70378 44.7535 25
      vertex 0 50.5 25
    endloop
  endfacet
  facet normal 0 0 1
    outer loop
      vertex -5.27869 50.2234 25
      vertex -9.35603 44.0166 25
      vertex -4.70378 44.7535 25
    endloop
  endfacet
  facet normal -0 0 1
    outer loop
      vertex -10.4995 49.3965 25
      vertex -9.35603 44.0166 25
      vertex -5.27869 50.2234 25
    endloop
  endfacet
  facet normal 0 0 1
    outer loop
      vertex -10.4995 49.3965 25
      vertex -13.9058 42.7975 25
      vertex -9.35603 44.0166 25
    endloop
  endfacet
  facet normal -0 0 1
    outer loop
      vertex -15.6054 48.0284 25
      vertex -13.9058 42.7975 25
      vertex -10.4995 49.3965 25
    endloop
  endfacet
  facet normal 0 0 1
    outer loop
      vertex -15.6054 48.0284 25
      vertex -18.3031 41.1095 25
      vertex -13.9058 42.7975 25
    endloop
  endfacet
  facet normal -0 0 1
    outer loop
      vertex -20.5402 46.134 25
      vertex -18.3031 41.1095 25
      vertex -15.6054 48.0284 25
    endloop
  endfacet
  facet normal 0 0 1
    outer loop
      vertex -20.5402 46.134 25
      vertex -22.5 38.9711 25
      vertex -18.3031 41.1095 25
    endloop
  endfacet
  facet normal -0 0 1
    outer loop
      vertex -25.25 43.7343 25
      vertex -22.5 38.9711 25
      vertex -20.5402 46.134 25
    endloop
  endfacet
  facet normal 0 0 1
    outer loop
      vertex -25.25 43.7343 25
      vertex -26.4503 36.4058 25
      vertex -22.5 38.9711 25
    endloop
  endfacet
  facet normal -0 0 1
    outer loop
      vertex -29.6832 40.8554 25
      vertex -26.4503 36.4058 25
      vertex -25.25 43.7343 25
    endloop
  endfacet
  facet normal 0 0 1
    outer loop
      vertex -29.6832 40.8554 25
      vertex -30.1109 33.4415 25
      vertex -26.4503 36.4058 25
    endloop
  endfacet
  facet normal -0 0 1
    outer loop
      vertex -33.7911 37.5288 25
      vertex -30.1109 33.4415 25
      vertex -29.6832 40.8554 25
    endloop
  endfacet
  facet normal 0 0 1
    outer loop
      vertex -30.1109 33.4415 25
      vertex -33.7911 37.5288 25
      vertex -33.4415 30.1109 25
    endloop
  endfacet
  facet normal -0 0 1
    outer loop
      vertex -37.5288 33.7911 25
      vertex -33.4415 30.1109 25
      vertex -33.7911 37.5288 25
    endloop
  endfacet
  facet normal 0 0 1
    outer loop
      vertex -33.4415 30.1109 25
      vertex -37.5288 33.7911 25
      vertex -36.4058 26.4503 25
    endloop
  endfacet
  facet normal -0 0 1
    outer loop
      vertex -40.8554 29.6832 25
      vertex -36.4058 26.4503 25
      vertex -37.5288 33.7911 25
    endloop
  endfacet
  facet normal 0 0 1
    outer loop
      vertex -36.4058 26.4503 25
      vertex -40.8554 29.6832 25
      vertex -38.9711 22.5 25
    endloop
  endfacet
  facet normal -0 0 1
    outer loop
      vertex -43.7343 25.25 25
      vertex -38.9711 22.5 25
      vertex -40.8554 29.6832 25
    endloop
  endfacet
  facet normal 0 0 1
    outer loop
      vertex -38.9711 22.5 25
      vertex -43.7343 25.25 25
      vertex -41.1095 18.3031 25
    endloop
  endfacet
  facet normal -0 0 1
    outer loop
      vertex -46.134 20.5402 25
      vertex -41.1095 18.3031 25
      vertex -43.7343 25.25 25
    endloop
  endfacet
  facet normal 0 0 1
    outer loop
      vertex -41.1095 18.3031 25
      vertex -46.134 20.5402 25
      vertex -42.7975 13.9058 25
    endloop
  endfacet
  facet normal -0 0 1
    outer loop
      vertex -48.0284 15.6054 25
      vertex -42.7975 13.9058 25
      vertex -46.134 20.5402 25
    endloop
  endfacet
  facet normal 0 0 1
    outer loop
      vertex -42.7975 13.9058 25
      vertex -48.0284 15.6054 25
      vertex -44.0166 9.35603 25
    endloop
  endfacet
  facet normal -0 0 1
    outer loop
      vertex -49.3965 10.4995 25
      vertex -44.0166 9.35603 25
      vertex -48.0284 15.6054 25
    endloop
  endfacet
  facet normal 0 0 1
    outer loop
      vertex 49.3965 -10.4995 25
      vertex 44.0166 -9.35603 25
      vertex 48.0284 -15.6054 25
    endloop
  endfacet
  facet normal -0 0 1
    outer loop
      vertex 42.7975 -13.9058 25
      vertex 48.0284 -15.6054 25
      vertex 44.0166 -9.35603 25
    endloop
  endfacet
  facet normal 0 0 1
    outer loop
      vertex 48.0284 -15.6054 25
      vertex 42.7975 -13.9058 25
      vertex 46.134 -20.5402 25
    endloop
  endfacet
  facet normal -0 0 1
    outer loop
      vertex 41.1095 -18.3031 25
      vertex 46.134 -20.5402 25
      vertex 42.7975 -13.9058 25
    endloop
  endfacet
  facet normal 0 0 1
    outer loop
      vertex 46.134 -20.5402 25
      vertex 41.1095 -18.3031 25
      vertex 43.7343 -25.25 25
    endloop
  endfacet
  facet normal -0 0 1
    outer loop
      vertex 38.9711 -22.5 25
      vertex 43.7343 -25.25 25
      vertex 41.1095 -18.3031 25
    endloop
  endfacet
  facet normal 0 0 1
    outer loop
      vertex 43.7343 -25.25 25
      vertex 38.9711 -22.5 25
      vertex 40.8554 -29.6832 25
    endloop
  endfacet
  facet normal -0 0 1
    outer loop
      vertex 36.4058 -26.4503 25
      vertex 40.8554 -29.6832 25
      vertex 38.9711 -22.5 25
    endloop
  endfacet
  facet normal 0 0 1
    outer loop
      vertex 40.8554 -29.6832 25
      vertex 36.4058 -26.4503 25
      vertex 37.5288 -33.7911 25
    endloop
  endfacet
  facet normal -0 0 1
    outer loop
      vertex 33.4415 -30.1109 25
      vertex 37.5288 -33.7911 25
      vertex 36.4058 -26.4503 25
    endloop
  endfacet
  facet normal 0 0 1
    outer loop
      vertex 37.5288 -33.7911 25
      vertex 33.4415 -30.1109 25
      vertex 33.7911 -37.5288 25
    endloop
  endfacet
  facet normal -0 0 1
    outer loop
      vertex 30.1109 -33.4415 25
      vertex 33.7911 -37.5288 25
      vertex 33.4415 -30.1109 25
    endloop
  endfacet
  facet normal 0 0 1
    outer loop
      vertex 30.1109 -33.4415 25
      vertex 29.6832 -40.8554 25
      vertex 33.7911 -37.5288 25
    endloop
  endfacet
  facet normal -0 0 1
    outer loop
      vertex 26.4503 -36.4058 25
      vertex 29.6832 -40.8554 25
      vertex 30.1109 -33.4415 25
    endloop
  endfacet
  facet normal 0 0 1
    outer loop
      vertex 26.4503 -36.4058 25
      vertex 25.25 -43.7343 25
      vertex 29.6832 -40.8554 25
    endloop
  endfacet
  facet normal -0 0 1
    outer loop
      vertex 22.5 -38.9711 25
      vertex 25.25 -43.7343 25
      vertex 26.4503 -36.4058 25
    endloop
  endfacet
  facet normal 0 0 1
    outer loop
      vertex 22.5 -38.9711 25
      vertex 20.5402 -46.134 25
      vertex 25.25 -43.7343 25
    endloop
  endfacet
  facet normal -0 0 1
    outer loop
      vertex 18.3031 -41.1095 25
      vertex 20.5402 -46.134 25
      vertex 22.5 -38.9711 25
    endloop
  endfacet
  facet normal 0 0 1
    outer loop
      vertex 18.3031 -41.1095 25
      vertex 15.6054 -48.0284 25
      vertex 20.5402 -46.134 25
    endloop
  endfacet
  facet normal -0 0 1
    outer loop
      vertex 13.9058 -42.7975 25
      vertex 15.6054 -48.0284 25
      vertex 18.3031 -41.1095 25
    endloop
  endfacet
  facet normal 0 0 1
    outer loop
      vertex 13.9058 -42.7975 25
      vertex 10.4995 -49.3965 25
      vertex 15.6054 -48.0284 25
    endloop
  endfacet
  facet normal -0 0 1
    outer loop
      vertex 9.35603 -44.0166 25
      vertex 10.4995 -49.3965 25
      vertex 13.9058 -42.7975 25
    endloop
  endfacet
  facet normal 0 0 1
    outer loop
      vertex 9.35603 -44.0166 25
      vertex 5.27869 -50.2234 25
      vertex 10.4995 -49.3965 25
    endloop
  endfacet
  facet normal -0 0 1
    outer loop
      vertex 4.70378 -44.7535 25
      vertex 5.27869 -50.2234 25
      vertex 9.35603 -44.0166 25
    endloop
  endfacet
  facet normal -0 0 1
    outer loop
      vertex 0 -45 25
      vertex 5.27869 -50.2234 25
      vertex 4.70378 -44.7535 25
    endloop
  endfacet
  facet normal 0 0 1
    outer loop
      vertex 0 -45 25
      vertex 0 -50.5 25
      vertex 5.27869 -50.2234 25
    endloop
  endfacet
  facet normal 0 0 1
    outer loop
      vertex -4.70378 -44.7535 25
      vertex 0 -50.5 25
      vertex 0 -45 25
    endloop
  endfacet
  facet normal 0 0 1
    outer loop
      vertex -4.70378 -44.7535 25
      vertex -5.27869 -50.2234 25
      vertex 0 -50.5 25
    endloop
  endfacet
  facet normal 0 0 1
    outer loop
      vertex -9.35603 -44.0166 25
      vertex -5.27869 -50.2234 25
      vertex -4.70378 -44.7535 25
    endloop
  endfacet
  facet normal 0 0 1
    outer loop
      vertex -9.35603 -44.0166 25
      vertex -10.4995 -49.3965 25
      vertex -5.27869 -50.2234 25
    endloop
  endfacet
  facet normal 0 0 1
    outer loop
      vertex -13.9058 -42.7975 25
      vertex -10.4995 -49.3965 25
      vertex -9.35603 -44.0166 25
    endloop
  endfacet
  facet normal 0 0 1
    outer loop
      vertex -13.9058 -42.7975 25
      vertex -15.6054 -48.0284 25
      vertex -10.4995 -49.3965 25
    endloop
  endfacet
  facet normal 0 0 1
    outer loop
      vertex -18.3031 -41.1095 25
      vertex -15.6054 -48.0284 25
      vertex -13.9058 -42.7975 25
    endloop
  endfacet
  facet normal 0 0 1
    outer loop
      vertex -18.3031 -41.1095 25
      vertex -20.5402 -46.134 25
      vertex -15.6054 -48.0284 25
    endloop
  endfacet
  facet normal 0 0 1
    outer loop
      vertex -22.5 -38.9711 25
      vertex -20.5402 -46.134 25
      vertex -18.3031 -41.1095 25
    endloop
  endfacet
  facet normal 0 0 1
    outer loop
      vertex -22.5 -38.9711 25
      vertex -25.25 -43.7343 25
      vertex -20.5402 -46.134 25
    endloop
  endfacet
  facet normal 0 0 1
    outer loop
      vertex -26.4503 -36.4058 25
      vertex -25.25 -43.7343 25
      vertex -22.5 -38.9711 25
    endloop
  endfacet
  facet normal 0 0 1
    outer loop
      vertex -26.4503 -36.4058 25
      vertex -29.6832 -40.8554 25
      vertex -25.25 -43.7343 25
    endloop
  endfacet
  facet normal 0 0 1
    outer loop
      vertex -30.1109 -33.4415 25
      vertex -29.6832 -40.8554 25
      vertex -26.4503 -36.4058 25
    endloop
  endfacet
  facet normal 0 0 1
    outer loop
      vertex -33.7911 -37.5288 25
      vertex -30.1109 -33.4415 25
      vertex -33.4415 -30.1109 25
    endloop
  endfacet
  facet normal 0 0 1
    outer loop
      vertex -30.1109 -33.4415 25
      vertex -33.7911 -37.5288 25
      vertex -29.6832 -40.8554 25
    endloop
  endfacet
  facet normal 0 0 1
    outer loop
      vertex -37.5288 -33.7911 25
      vertex -33.4415 -30.1109 25
      vertex -36.4058 -26.4503 25
    endloop
  endfacet
  facet normal 0 0 1
    outer loop
      vertex -33.4415 -30.1109 25
      vertex -37.5288 -33.7911 25
      vertex -33.7911 -37.5288 25
    endloop
  endfacet
  facet normal 0 0 1
    outer loop
      vertex -40.8554 -29.6832 25
      vertex -36.4058 -26.4503 25
      vertex -38.9711 -22.5 25
    endloop
  endfacet
  facet normal 0 0 1
    outer loop
      vertex -36.4058 -26.4503 25
      vertex -40.8554 -29.6832 25
      vertex -37.5288 -33.7911 25
    endloop
  endfacet
  facet normal 0 0 1
    outer loop
      vertex -43.7343 -25.25 25
      vertex -38.9711 -22.5 25
      vertex -41.1095 -18.3031 25
    endloop
  endfacet
  facet normal 0 0 1
    outer loop
      vertex -46.134 -20.5402 25
      vertex -41.1095 -18.3031 25
      vertex -42.7975 -13.9058 25
    endloop
  endfacet
  facet normal 0 0 1
    outer loop
      vertex -38.9711 -22.5 25
      vertex -43.7343 -25.25 25
      vertex -40.8554 -29.6832 25
    endloop
  endfacet
  facet normal 0 0 1
    outer loop
      vertex -48.0284 -15.6054 25
      vertex -42.7975 -13.9058 25
      vertex -44.0166 -9.35603 25
    endloop
  endfacet
  facet normal 0 0 1
    outer loop
      vertex -49.3965 -10.4995 25
      vertex -44.0166 -9.35603 25
      vertex -44.7535 -4.70378 25
    endloop
  endfacet
  facet normal 0 0 1
    outer loop
      vertex -50.2234 -5.27869 25
      vertex -44.7535 -4.70378 25
      vertex -45 0 25
    endloop
  endfacet
  facet normal 0 0 1
    outer loop
      vertex -44.0166 9.35603 25
      vertex -49.3965 10.4995 25
      vertex -44.7535 4.70378 25
    endloop
  endfacet
  facet normal 0 0 1
    outer loop
      vertex -41.1095 -18.3031 25
      vertex -46.134 -20.5402 25
      vertex -43.7343 -25.25 25
    endloop
  endfacet
  facet normal -0 0 1
    outer loop
      vertex -50.2234 5.27869 25
      vertex -44.7535 4.70378 25
      vertex -49.3965 10.4995 25
    endloop
  endfacet
  facet normal 0 0 1
    outer loop
      vertex -42.7975 -13.9058 25
      vertex -48.0284 -15.6054 25
      vertex -46.134 -20.5402 25
    endloop
  endfacet
  facet normal 0 0 1
    outer loop
      vertex -44.7535 4.70378 25
      vertex -50.2234 5.27869 25
      vertex -45 0 25
    endloop
  endfacet
  facet normal 0 0 1
    outer loop
      vertex -44.0166 -9.35603 25
      vertex -49.3965 -10.4995 25
      vertex -48.0284 -15.6054 25
    endloop
  endfacet
  facet normal 0 0 1
    outer loop
      vertex -50.5 0 25
      vertex -45 0 25
      vertex -50.2234 5.27869 25
    endloop
  endfacet
  facet normal 0 0 1
    outer loop
      vertex -44.7535 -4.70378 25
      vertex -50.2234 -5.27869 25
      vertex -49.3965 -10.4995 25
    endloop
  endfacet
  facet normal 0 0 1
    outer loop
      vertex -45 0 25
      vertex -50.5 0 25
      vertex -50.2234 -5.27869 25
    endloop
  endfacet
  facet normal -0.93358 0.358368 0
    outer loop
      vertex -48.0284 15.6054 0
      vertex -46.134 20.5402 25
      vertex -46.134 20.5402 0
    endloop
  endfacet
  facet normal -0.93358 0.358368 0
    outer loop
      vertex -46.134 20.5402 25
      vertex -48.0284 15.6054 0
      vertex -48.0284 15.6054 25
    endloop
  endfacet
  facet normal -0.838671 0.544639 0
    outer loop
      vertex -43.7343 25.25 0
      vertex -40.8554 29.6832 25
      vertex -40.8554 29.6832 0
    endloop
  endfacet
  facet normal -0.838671 0.544639 0
    outer loop
      vertex -40.8554 29.6832 25
      vertex -43.7343 25.25 0
      vertex -43.7343 25.25 25
    endloop
  endfacet
  facet normal 0.965926 -0.258819 0
    outer loop
      vertex 48.0284 -15.6054 25
      vertex 49.3965 -10.4995 0
      vertex 49.3965 -10.4995 25
    endloop
  endfacet
  facet normal 0.965926 -0.258819 0
    outer loop
      vertex 49.3965 -10.4995 0
      vertex 48.0284 -15.6054 25
      vertex 48.0284 -15.6054 0
    endloop
  endfacet
  facet normal 0.891007 -0.45399 0
    outer loop
      vertex 43.7343 -25.25 25
      vertex 46.134 -20.5402 0
      vertex 46.134 -20.5402 25
    endloop
  endfacet
  facet normal 0.891007 -0.45399 0
    outer loop
      vertex 46.134 -20.5402 0
      vertex 43.7343 -25.25 25
      vertex 43.7343 -25.25 0
    endloop
  endfacet
  facet normal 0.358368 -0.93358 0
    outer loop
      vertex 15.6054 -48.0284 0
      vertex 20.5402 -46.134 25
      vertex 15.6054 -48.0284 25
    endloop
  endfacet
  facet normal 0.358368 -0.93358 0
    outer loop
      vertex 20.5402 -46.134 25
      vertex 15.6054 -48.0284 0
      vertex 20.5402 -46.134 0
    endloop
  endfacet
  facet normal -0.62932 -0.777146 0
    outer loop
      vertex -33.7911 -37.5288 0
      vertex -29.6832 -40.8554 25
      vertex -33.7911 -37.5288 25
    endloop
  endfacet
  facet normal -0.62932 -0.777146 -0
    outer loop
      vertex -29.6832 -40.8554 25
      vertex -33.7911 -37.5288 0
      vertex -29.6832 -40.8554 0
    endloop
  endfacet
  facet normal -0.987688 -0.156434 0
    outer loop
      vertex -49.3965 -10.4995 0
      vertex -50.2234 -5.27869 25
      vertex -50.2234 -5.27869 0
    endloop
  endfacet
  facet normal -0.987688 -0.156434 0
    outer loop
      vertex -50.2234 -5.27869 25
      vertex -49.3965 -10.4995 0
      vertex -49.3965 -10.4995 25
    endloop
  endfacet
  facet normal -0.93358 -0.358368 0
    outer loop
      vertex -46.134 -20.5402 0
      vertex -48.0284 -15.6054 25
      vertex -48.0284 -15.6054 0
    endloop
  endfacet
  facet normal -0.93358 -0.358368 0
    outer loop
      vertex -48.0284 -15.6054 25
      vertex -46.134 -20.5402 0
      vertex -46.134 -20.5402 25
    endloop
  endfacet
  facet normal -0.838671 -0.544639 0
    outer loop
      vertex -40.8554 -29.6832 0
      vertex -43.7343 -25.25 25
      vertex -43.7343 -25.25 0
    endloop
  endfacet
  facet normal -0.838671 -0.544639 0
    outer loop
      vertex -43.7343 -25.25 25
      vertex -40.8554 -29.6832 0
      vertex -40.8554 -29.6832 25
    endloop
  endfacet
  facet normal 0.93358 -0.358368 0
    outer loop
      vertex 46.134 -20.5402 25
      vertex 48.0284 -15.6054 0
      vertex 48.0284 -15.6054 25
    endloop
  endfacet
  facet normal 0.93358 -0.358368 0
    outer loop
      vertex 48.0284 -15.6054 0
      vertex 46.134 -20.5402 25
      vertex 46.134 -20.5402 0
    endloop
  endfacet
  facet normal -0.99863 -0.0523357 0
    outer loop
      vertex 45 0 0
      vertex 44.7535 4.70378 25
      vertex 44.7535 4.70378 0
    endloop
  endfacet
  facet normal -0.99863 -0.0523357 0
    outer loop
      vertex 44.7535 4.70378 25
      vertex 45 0 0
      vertex 45 0 25
    endloop
  endfacet
  facet normal 0.99863 -0.0523357 0
    outer loop
      vertex -45 0 25
      vertex -44.7535 4.70378 0
      vertex -44.7535 4.70378 25
    endloop
  endfacet
  facet normal 0.99863 -0.0523357 0
    outer loop
      vertex -44.7535 4.70378 0
      vertex -45 0 25
      vertex -45 0 0
    endloop
  endfacet
  facet normal -0.0523357 -0.99863 0
    outer loop
      vertex 0 45 0
      vertex 4.70378 44.7535 25
      vertex 0 45 25
    endloop
  endfacet
  facet normal -0.0523357 -0.99863 -0
    outer loop
      vertex 4.70378 44.7535 25
      vertex 0 45 0
      vertex 4.70378 44.7535 0
    endloop
  endfacet
  facet normal -0.707107 -0.707107 0
    outer loop
      vertex 33.4415 30.1109 0
      vertex 30.1109 33.4415 25
      vertex 30.1109 33.4415 0
    endloop
  endfacet
  facet normal -0.707107 -0.707107 0
    outer loop
      vertex 30.1109 33.4415 25
      vertex 33.4415 30.1109 0
      vertex 33.4415 30.1109 25
    endloop
  endfacet
  facet normal 0.62932 -0.777146 0
    outer loop
      vertex -30.1109 33.4415 0
      vertex -26.4503 36.4058 25
      vertex -30.1109 33.4415 25
    endloop
  endfacet
  facet normal 0.62932 -0.777146 0
    outer loop
      vertex -26.4503 36.4058 25
      vertex -30.1109 33.4415 0
      vertex -26.4503 36.4058 0
    endloop
  endfacet
  facet normal 0.258819 -0.965926 0
    outer loop
      vertex -13.9058 42.7975 0
      vertex -9.35603 44.0166 25
      vertex -13.9058 42.7975 25
    endloop
  endfacet
  facet normal 0.258819 -0.965926 0
    outer loop
      vertex -9.35603 44.0166 25
      vertex -13.9058 42.7975 0
      vertex -9.35603 44.0166 0
    endloop
  endfacet
  facet normal -0.891007 -0.45399 0
    outer loop
      vertex 41.1095 18.3031 0
      vertex 38.9711 22.5 25
      vertex 38.9711 22.5 0
    endloop
  endfacet
  facet normal -0.891007 -0.45399 0
    outer loop
      vertex 38.9711 22.5 25
      vertex 41.1095 18.3031 0
      vertex 41.1095 18.3031 25
    endloop
  endfacet
  facet normal -0.358368 -0.93358 0
    outer loop
      vertex 13.9058 42.7975 0
      vertex 18.3031 41.1095 25
      vertex 13.9058 42.7975 25
    endloop
  endfacet
  facet normal -0.358368 -0.93358 -0
    outer loop
      vertex 18.3031 41.1095 25
      vertex 13.9058 42.7975 0
      vertex 18.3031 41.1095 0
    endloop
  endfacet
  facet normal -0.258819 -0.965926 0
    outer loop
      vertex 9.35603 44.0166 0
      vertex 13.9058 42.7975 25
      vertex 9.35603 44.0166 25
    endloop
  endfacet
  facet normal -0.258819 -0.965926 -0
    outer loop
      vertex 13.9058 42.7975 25
      vertex 9.35603 44.0166 0
      vertex 13.9058 42.7975 0
    endloop
  endfacet
  facet normal 0.838671 -0.544639 0
    outer loop
      vertex -38.9711 22.5 25
      vertex -36.4058 26.4503 0
      vertex -36.4058 26.4503 25
    endloop
  endfacet
  facet normal 0.838671 -0.544639 0
    outer loop
      vertex -36.4058 26.4503 0
      vertex -38.9711 22.5 25
      vertex -38.9711 22.5 0
    endloop
  endfacet
  facet normal 0.777146 -0.62932 0
    outer loop
      vertex -36.4058 26.4503 25
      vertex -33.4415 30.1109 0
      vertex -33.4415 30.1109 25
    endloop
  endfacet
  facet normal 0.777146 -0.62932 0
    outer loop
      vertex -33.4415 30.1109 0
      vertex -36.4058 26.4503 25
      vertex -36.4058 26.4503 0
    endloop
  endfacet
  facet normal 0.156435 -0.987688 0
    outer loop
      vertex -9.35603 44.0166 0
      vertex -4.70378 44.7535 25
      vertex -9.35603 44.0166 25
    endloop
  endfacet
  facet normal 0.156435 -0.987688 0
    outer loop
      vertex -4.70378 44.7535 25
      vertex -9.35603 44.0166 0
      vertex -4.70378 44.7535 0
    endloop
  endfacet
  facet normal -0.891007 0.45399 0
    outer loop
      vertex 38.9711 -22.5 0
      vertex 41.1095 -18.3031 25
      vertex 41.1095 -18.3031 0
    endloop
  endfacet
  facet normal -0.891007 0.45399 0
    outer loop
      vertex 41.1095 -18.3031 25
      vertex 38.9711 -22.5 0
      vertex 38.9711 -22.5 25
    endloop
  endfacet
  facet normal -0.258819 0.965926 0
    outer loop
      vertex 13.9058 -42.7975 0
      vertex 9.35603 -44.0166 25
      vertex 13.9058 -42.7975 25
    endloop
  endfacet
  facet normal -0.258819 0.965926 0
    outer loop
      vertex 9.35603 -44.0166 25
      vertex 13.9058 -42.7975 0
      vertex 9.35603 -44.0166 0
    endloop
  endfacet
  facet normal -0.707107 0.707107 0
    outer loop
      vertex 30.1109 -33.4415 0
      vertex 33.4415 -30.1109 25
      vertex 33.4415 -30.1109 0
    endloop
  endfacet
  facet normal -0.707107 0.707107 0
    outer loop
      vertex 33.4415 -30.1109 25
      vertex 30.1109 -33.4415 0
      vertex 30.1109 -33.4415 25
    endloop
  endfacet
  facet normal -0.965926 0.258819 0
    outer loop
      vertex 42.7975 -13.9058 0
      vertex 44.0166 -9.35603 25
      vertex 44.0166 -9.35603 0
    endloop
  endfacet
  facet normal -0.965926 0.258819 0
    outer loop
      vertex 44.0166 -9.35603 25
      vertex 42.7975 -13.9058 0
      vertex 42.7975 -13.9058 25
    endloop
  endfacet
  facet normal 0.358368 0.93358 -0
    outer loop
      vertex -13.9058 -42.7975 0
      vertex -18.3031 -41.1095 25
      vertex -13.9058 -42.7975 25
    endloop
  endfacet
  facet normal 0.358368 0.93358 0
    outer loop
      vertex -18.3031 -41.1095 25
      vertex -13.9058 -42.7975 0
      vertex -18.3031 -41.1095 0
    endloop
  endfacet
  facet normal 0.777146 0.62932 0
    outer loop
      vertex -33.4415 -30.1109 25
      vertex -36.4058 -26.4503 0
      vertex -36.4058 -26.4503 25
    endloop
  endfacet
  facet normal 0.777146 0.62932 0
    outer loop
      vertex -36.4058 -26.4503 0
      vertex -33.4415 -30.1109 25
      vertex -33.4415 -30.1109 0
    endloop
  endfacet
  facet normal 0.838671 0.544639 0
    outer loop
      vertex -36.4058 -26.4503 25
      vertex -38.9711 -22.5 0
      vertex -38.9711 -22.5 25
    endloop
  endfacet
  facet normal 0.838671 0.544639 0
    outer loop
      vertex -38.9711 -22.5 0
      vertex -36.4058 -26.4503 25
      vertex -36.4058 -26.4503 0
    endloop
  endfacet
  facet normal -0.965926 -0.258819 0
    outer loop
      vertex 44.0166 9.35603 0
      vertex 42.7975 13.9058 25
      vertex 42.7975 13.9058 0
    endloop
  endfacet
  facet normal -0.965926 -0.258819 0
    outer loop
      vertex 42.7975 13.9058 25
      vertex 44.0166 9.35603 0
      vertex 44.0166 9.35603 25
    endloop
  endfacet
  facet normal -0.987688 -0.156435 0
    outer loop
      vertex 44.7535 4.70378 0
      vertex 44.0166 9.35603 25
      vertex 44.0166 9.35603 0
    endloop
  endfacet
  facet normal -0.987688 -0.156435 0
    outer loop
      vertex 44.0166 9.35603 25
      vertex 44.7535 4.70378 0
      vertex 44.7535 4.70378 25
    endloop
  endfacet
  facet normal -0.93358 -0.358368 0
    outer loop
      vertex 42.7975 13.9058 0
      vertex 41.1095 18.3031 25
      vertex 41.1095 18.3031 0
    endloop
  endfacet
  facet normal -0.93358 -0.358368 0
    outer loop
      vertex 41.1095 18.3031 25
      vertex 42.7975 13.9058 0
      vertex 42.7975 13.9058 25
    endloop
  endfacet
  facet normal -0.777146 -0.62932 0
    outer loop
      vertex 36.4058 26.4503 0
      vertex 33.4415 30.1109 25
      vertex 33.4415 30.1109 0
    endloop
  endfacet
  facet normal -0.777146 -0.62932 0
    outer loop
      vertex 33.4415 30.1109 25
      vertex 36.4058 26.4503 0
      vertex 36.4058 26.4503 25
    endloop
  endfacet
  facet normal -0.838671 -0.544639 0
    outer loop
      vertex 38.9711 22.5 0
      vertex 36.4058 26.4503 25
      vertex 36.4058 26.4503 0
    endloop
  endfacet
  facet normal -0.838671 -0.544639 0
    outer loop
      vertex 36.4058 26.4503 25
      vertex 38.9711 22.5 0
      vertex 38.9711 22.5 25
    endloop
  endfacet
  facet normal -0.156435 -0.987688 0
    outer loop
      vertex 4.70378 44.7535 0
      vertex 9.35603 44.0166 25
      vertex 4.70378 44.7535 25
    endloop
  endfacet
  facet normal -0.156435 -0.987688 -0
    outer loop
      vertex 9.35603 44.0166 25
      vertex 4.70378 44.7535 0
      vertex 9.35603 44.0166 0
    endloop
  endfacet
  facet normal -0.544639 -0.838671 0
    outer loop
      vertex 22.5 38.9711 0
      vertex 26.4503 36.4058 25
      vertex 22.5 38.9711 25
    endloop
  endfacet
  facet normal -0.544639 -0.838671 -0
    outer loop
      vertex 26.4503 36.4058 25
      vertex 22.5 38.9711 0
      vertex 26.4503 36.4058 0
    endloop
  endfacet
  facet normal -0.62932 -0.777146 0
    outer loop
      vertex 26.4503 36.4058 0
      vertex 30.1109 33.4415 25
      vertex 26.4503 36.4058 25
    endloop
  endfacet
  facet normal -0.62932 -0.777146 -0
    outer loop
      vertex 30.1109 33.4415 25
      vertex 26.4503 36.4058 0
      vertex 30.1109 33.4415 0
    endloop
  endfacet
  facet normal 0.965926 -0.258819 0
    outer loop
      vertex -44.0166 9.35603 25
      vertex -42.7975 13.9058 0
      vertex -42.7975 13.9058 25
    endloop
  endfacet
  facet normal 0.965926 -0.258819 0
    outer loop
      vertex -42.7975 13.9058 0
      vertex -44.0166 9.35603 25
      vertex -44.0166 9.35603 0
    endloop
  endfacet
  facet normal 0.707107 -0.707107 0
    outer loop
      vertex -33.4415 30.1109 25
      vertex -30.1109 33.4415 0
      vertex -30.1109 33.4415 25
    endloop
  endfacet
  facet normal 0.707107 -0.707107 0
    outer loop
      vertex -30.1109 33.4415 0
      vertex -33.4415 30.1109 25
      vertex -33.4415 30.1109 0
    endloop
  endfacet
  facet normal 0.891007 -0.45399 0
    outer loop
      vertex -41.1095 18.3031 25
      vertex -38.9711 22.5 0
      vertex -38.9711 22.5 25
    endloop
  endfacet
  facet normal 0.891007 -0.45399 0
    outer loop
      vertex -38.9711 22.5 0
      vertex -41.1095 18.3031 25
      vertex -41.1095 18.3031 0
    endloop
  endfacet
  facet normal 0.987688 -0.156435 0
    outer loop
      vertex -44.7535 4.70378 25
      vertex -44.0166 9.35603 0
      vertex -44.0166 9.35603 25
    endloop
  endfacet
  facet normal 0.987688 -0.156435 0
    outer loop
      vertex -44.0166 9.35603 0
      vertex -44.7535 4.70378 25
      vertex -44.7535 4.70378 0
    endloop
  endfacet
  facet normal 0.358368 -0.93358 0
    outer loop
      vertex -18.3031 41.1095 0
      vertex -13.9058 42.7975 25
      vertex -18.3031 41.1095 25
    endloop
  endfacet
  facet normal 0.358368 -0.93358 0
    outer loop
      vertex -13.9058 42.7975 25
      vertex -18.3031 41.1095 0
      vertex -13.9058 42.7975 0
    endloop
  endfacet
  facet normal 0.45399 -0.891007 0
    outer loop
      vertex -22.5 38.9711 0
      vertex -18.3031 41.1095 25
      vertex -22.5 38.9711 25
    endloop
  endfacet
  facet normal 0.45399 -0.891007 0
    outer loop
      vertex -18.3031 41.1095 25
      vertex -22.5 38.9711 0
      vertex -18.3031 41.1095 0
    endloop
  endfacet
  facet normal 0.0523357 -0.99863 0
    outer loop
      vertex -4.70378 44.7535 0
      vertex 0 45 25
      vertex -4.70378 44.7535 25
    endloop
  endfacet
  facet normal 0.0523357 -0.99863 0
    outer loop
      vertex 0 45 25
      vertex -4.70378 44.7535 0
      vertex 0 45 0
    endloop
  endfacet
  facet normal -0.99863 0.0523357 0
    outer loop
      vertex 44.7535 -4.70378 0
      vertex 45 0 25
      vertex 45 0 0
    endloop
  endfacet
  facet normal -0.99863 0.0523357 0
    outer loop
      vertex 45 0 25
      vertex 44.7535 -4.70378 0
      vertex 44.7535 -4.70378 25
    endloop
  endfacet
  facet normal -0.0523357 0.99863 0
    outer loop
      vertex 4.70378 -44.7535 0
      vertex 0 -45 25
      vertex 4.70378 -44.7535 25
    endloop
  endfacet
  facet normal -0.0523357 0.99863 0
    outer loop
      vertex 0 -45 25
      vertex 4.70378 -44.7535 0
      vertex 0 -45 0
    endloop
  endfacet
  facet normal -0.45399 0.891007 0
    outer loop
      vertex 22.5 -38.9711 0
      vertex 18.3031 -41.1095 25
      vertex 22.5 -38.9711 25
    endloop
  endfacet
  facet normal -0.45399 0.891007 0
    outer loop
      vertex 18.3031 -41.1095 25
      vertex 22.5 -38.9711 0
      vertex 18.3031 -41.1095 0
    endloop
  endfacet
  facet normal -0.62932 0.777146 0
    outer loop
      vertex 30.1109 -33.4415 0
      vertex 26.4503 -36.4058 25
      vertex 30.1109 -33.4415 25
    endloop
  endfacet
  facet normal -0.62932 0.777146 0
    outer loop
      vertex 26.4503 -36.4058 25
      vertex 30.1109 -33.4415 0
      vertex 26.4503 -36.4058 0
    endloop
  endfacet
  facet normal -0.544639 0.838671 0
    outer loop
      vertex 26.4503 -36.4058 0
      vertex 22.5 -38.9711 25
      vertex 26.4503 -36.4058 25
    endloop
  endfacet
  facet normal -0.544639 0.838671 0
    outer loop
      vertex 22.5 -38.9711 25
      vertex 26.4503 -36.4058 0
      vertex 22.5 -38.9711 0
    endloop
  endfacet
  facet normal -0.777146 0.62932 0
    outer loop
      vertex 33.4415 -30.1109 0
      vertex 36.4058 -26.4503 25
      vertex 36.4058 -26.4503 0
    endloop
  endfacet
  facet normal -0.777146 0.62932 0
    outer loop
      vertex 36.4058 -26.4503 25
      vertex 33.4415 -30.1109 0
      vertex 33.4415 -30.1109 25
    endloop
  endfacet
  facet normal -0.838671 0.544639 0
    outer loop
      vertex 36.4058 -26.4503 0
      vertex 38.9711 -22.5 25
      vertex 38.9711 -22.5 0
    endloop
  endfacet
  facet normal -0.838671 0.544639 0
    outer loop
      vertex 38.9711 -22.5 25
      vertex 36.4058 -26.4503 0
      vertex 36.4058 -26.4503 25
    endloop
  endfacet
  facet normal 0.707107 0.707107 0
    outer loop
      vertex -30.1109 -33.4415 25
      vertex -33.4415 -30.1109 0
      vertex -33.4415 -30.1109 25
    endloop
  endfacet
  facet normal 0.707107 0.707107 0
    outer loop
      vertex -33.4415 -30.1109 0
      vertex -30.1109 -33.4415 25
      vertex -30.1109 -33.4415 0
    endloop
  endfacet
  facet normal 0.62932 0.777146 -0
    outer loop
      vertex -26.4503 -36.4058 0
      vertex -30.1109 -33.4415 25
      vertex -26.4503 -36.4058 25
    endloop
  endfacet
  facet normal 0.62932 0.777146 0
    outer loop
      vertex -30.1109 -33.4415 25
      vertex -26.4503 -36.4058 0
      vertex -30.1109 -33.4415 0
    endloop
  endfacet
  facet normal 0.544639 0.838671 -0
    outer loop
      vertex -22.5 -38.9711 0
      vertex -26.4503 -36.4058 25
      vertex -22.5 -38.9711 25
    endloop
  endfacet
  facet normal 0.544639 0.838671 0
    outer loop
      vertex -26.4503 -36.4058 25
      vertex -22.5 -38.9711 0
      vertex -26.4503 -36.4058 0
    endloop
  endfacet
  facet normal 0.156435 0.987688 -0
    outer loop
      vertex -4.70378 -44.7535 0
      vertex -9.35603 -44.0166 25
      vertex -4.70378 -44.7535 25
    endloop
  endfacet
  facet normal 0.156435 0.987688 0
    outer loop
      vertex -9.35603 -44.0166 25
      vertex -4.70378 -44.7535 0
      vertex -9.35603 -44.0166 0
    endloop
  endfacet
  facet normal 0.93358 0.358368 0
    outer loop
      vertex -41.1095 -18.3031 25
      vertex -42.7975 -13.9058 0
      vertex -42.7975 -13.9058 25
    endloop
  endfacet
  facet normal 0.93358 0.358368 0
    outer loop
      vertex -42.7975 -13.9058 0
      vertex -41.1095 -18.3031 25
      vertex -41.1095 -18.3031 0
    endloop
  endfacet
  facet normal 0.965926 0.258819 0
    outer loop
      vertex -42.7975 -13.9058 25
      vertex -44.0166 -9.35603 0
      vertex -44.0166 -9.35603 25
    endloop
  endfacet
  facet normal 0.965926 0.258819 0
    outer loop
      vertex -44.0166 -9.35603 0
      vertex -42.7975 -13.9058 25
      vertex -42.7975 -13.9058 0
    endloop
  endfacet
  facet normal 0.99863 0.0523357 0
    outer loop
      vertex -44.7535 -4.70378 25
      vertex -45 0 0
      vertex -45 0 25
    endloop
  endfacet
  facet normal 0.99863 0.0523357 0
    outer loop
      vertex -45 0 0
      vertex -44.7535 -4.70378 25
      vertex -44.7535 -4.70378 0
    endloop
  endfacet
  facet normal -0.45399 -0.891007 0
    outer loop
      vertex 18.3031 41.1095 0
      vertex 22.5 38.9711 25
      vertex 18.3031 41.1095 25
    endloop
  endfacet
  facet normal -0.45399 -0.891007 -0
    outer loop
      vertex 22.5 38.9711 25
      vertex 18.3031 41.1095 0
      vertex 22.5 38.9711 0
    endloop
  endfacet
  facet normal 0.93358 -0.358368 0
    outer loop
      vertex -42.7975 13.9058 25
      vertex -41.1095 18.3031 0
      vertex -41.1095 18.3031 25
    endloop
  endfacet
  facet normal 0.93358 -0.358368 0
    outer loop
      vertex -41.1095 18.3031 0
      vertex -42.7975 13.9058 25
      vertex -42.7975 13.9058 0
    endloop
  endfacet
  facet normal 0.544639 -0.838671 0
    outer loop
      vertex -26.4503 36.4058 0
      vertex -22.5 38.9711 25
      vertex -26.4503 36.4058 25
    endloop
  endfacet
  facet normal 0.544639 -0.838671 0
    outer loop
      vertex -22.5 38.9711 25
      vertex -26.4503 36.4058 0
      vertex -22.5 38.9711 0
    endloop
  endfacet
  facet normal -0.156435 0.987688 0
    outer loop
      vertex 9.35603 -44.0166 0
      vertex 4.70378 -44.7535 25
      vertex 9.35603 -44.0166 25
    endloop
  endfacet
  facet normal -0.156435 0.987688 0
    outer loop
      vertex 4.70378 -44.7535 25
      vertex 9.35603 -44.0166 0
      vertex 4.70378 -44.7535 0
    endloop
  endfacet
  facet normal -0.358368 0.93358 0
    outer loop
      vertex 18.3031 -41.1095 0
      vertex 13.9058 -42.7975 25
      vertex 18.3031 -41.1095 25
    endloop
  endfacet
  facet normal -0.358368 0.93358 0
    outer loop
      vertex 13.9058 -42.7975 25
      vertex 18.3031 -41.1095 0
      vertex 13.9058 -42.7975 0
    endloop
  endfacet
  facet normal -0.93358 0.358368 0
    outer loop
      vertex 41.1095 -18.3031 0
      vertex 42.7975 -13.9058 25
      vertex 42.7975 -13.9058 0
    endloop
  endfacet
  facet normal -0.93358 0.358368 0
    outer loop
      vertex 42.7975 -13.9058 25
      vertex 41.1095 -18.3031 0
      vertex 41.1095 -18.3031 25
    endloop
  endfacet
  facet normal -0.987688 0.156435 0
    outer loop
      vertex 44.0166 -9.35603 0
      vertex 44.7535 -4.70378 25
      vertex 44.7535 -4.70378 0
    endloop
  endfacet
  facet normal -0.987688 0.156435 0
    outer loop
      vertex 44.7535 -4.70378 25
      vertex 44.0166 -9.35603 0
      vertex 44.0166 -9.35603 25
    endloop
  endfacet
  facet normal 0.45399 0.891007 -0
    outer loop
      vertex -18.3031 -41.1095 0
      vertex -22.5 -38.9711 25
      vertex -18.3031 -41.1095 25
    endloop
  endfacet
  facet normal 0.45399 0.891007 0
    outer loop
      vertex -22.5 -38.9711 25
      vertex -18.3031 -41.1095 0
      vertex -22.5 -38.9711 0
    endloop
  endfacet
  facet normal 0.258819 0.965926 -0
    outer loop
      vertex -9.35603 -44.0166 0
      vertex -13.9058 -42.7975 25
      vertex -9.35603 -44.0166 25
    endloop
  endfacet
  facet normal 0.258819 0.965926 0
    outer loop
      vertex -13.9058 -42.7975 25
      vertex -9.35603 -44.0166 0
      vertex -13.9058 -42.7975 0
    endloop
  endfacet
  facet normal 0.0523357 0.99863 -0
    outer loop
      vertex 0 -45 0
      vertex -4.70378 -44.7535 25
      vertex 0 -45 25
    endloop
  endfacet
  facet normal 0.0523357 0.99863 0
    outer loop
      vertex -4.70378 -44.7535 25
      vertex 0 -45 0
      vertex -4.70378 -44.7535 0
    endloop
  endfacet
  facet normal 0.891007 0.45399 0
    outer loop
      vertex -38.9711 -22.5 25
      vertex -41.1095 -18.3031 0
      vertex -41.1095 -18.3031 25
    endloop
  endfacet
  facet normal 0.891007 0.45399 0
    outer loop
      vertex -41.1095 -18.3031 0
      vertex -38.9711 -22.5 25
      vertex -38.9711 -22.5 0
    endloop
  endfacet
  facet normal 0.987688 0.156435 0
    outer loop
      vertex -44.0166 -9.35603 25
      vertex -44.7535 -4.70378 0
      vertex -44.7535 -4.70378 25
    endloop
  endfacet
  facet normal 0.987688 0.156435 0
    outer loop
      vertex -44.7535 -4.70378 0
      vertex -44.0166 -9.35603 25
      vertex -44.0166 -9.35603 0
    endloop
  endfacet
endsolid OpenSCAD_Model
