solid OpenSCAD_Model
  facet normal -0.951056 -6.86156e-17 -0.309017
    outer loop
      vertex 3.1 0.570634 -1.26706e-16
      vertex 2.50795 3.5 1.82213
      vertex 3.1 3.5 -7.77156e-16
    endloop
  endfacet
  facet normal -0.951056 -0 -0.309017
    outer loop
      vertex 2.50795 3.5 1.82213
      vertex 3.1 0.570634 -1.26706e-16
      vertex 2.50795 0.570634 1.82213
    endloop
  endfacet
  facet normal -0.951056 -6.86156e-17 -0.309017
    outer loop
      vertex 3.1 -5.5 1.22125e-15
      vertex 2.50795 -0.570634 1.82213
      vertex 3.1 -0.570634 1.26706e-16
    endloop
  endfacet
  facet normal -0.951056 -0 -0.309017
    outer loop
      vertex 2.50795 -0.570634 1.82213
      vertex 3.1 -5.5 1.22125e-15
      vertex 2.50795 -5.5 1.82213
    endloop
  endfacet
  facet normal 0.951056 0 -0.309017
    outer loop
      vertex -2.50795 0.570634 1.82213
      vertex -3.1 3.5 -7.77156e-16
      vertex -2.50795 3.5 1.82213
    endloop
  endfacet
  facet normal 0.951056 -6.86156e-17 -0.309017
    outer loop
      vertex -3.1 3.5 -7.77156e-16
      vertex -2.50795 0.570634 1.82213
      vertex -3.1 0.570634 -1.26706e-16
    endloop
  endfacet
  facet normal 0.951056 0 -0.309017
    outer loop
      vertex -2.50795 -5.5 1.82213
      vertex -3.1 -0.570634 1.26706e-16
      vertex -2.50795 -0.570634 1.82213
    endloop
  endfacet
  facet normal 0.951056 -6.86156e-17 -0.309017
    outer loop
      vertex -3.1 -0.570634 1.26706e-16
      vertex -2.50795 -5.5 1.82213
      vertex -3.1 -5.5 1.22125e-15
    endloop
  endfacet
  facet normal 0 0 -1
    outer loop
      vertex -0.957952 0.570634 2.94827
      vertex 0.957952 3.5 2.94827
      vertex 0.957952 0.570634 2.94827
    endloop
  endfacet
  facet normal -0 0 -1
    outer loop
      vertex 0.957952 3.5 2.94827
      vertex -0.957952 0.570634 2.94827
      vertex -0.957952 3.5 2.94827
    endloop
  endfacet
  facet normal 0 0 -1
    outer loop
      vertex -0.957952 -5.5 2.94827
      vertex 0.957952 -0.570634 2.94827
      vertex 0.957952 -5.5 2.94827
    endloop
  endfacet
  facet normal -0 0 -1
    outer loop
      vertex 0.957952 -0.570634 2.94827
      vertex -0.957952 -5.5 2.94827
      vertex -0.957952 -0.570634 2.94827
    endloop
  endfacet
  facet normal -0.587785 0 -0.809017
    outer loop
      vertex 0.957952 0.570634 2.94827
      vertex 2.50795 3.5 1.82213
      vertex 2.50795 0.570634 1.82213
    endloop
  endfacet
  facet normal -0.587785 0 -0.809017
    outer loop
      vertex 2.50795 3.5 1.82213
      vertex 0.957952 0.570634 2.94827
      vertex 0.957952 3.5 2.94827
    endloop
  endfacet
  facet normal -0.587785 0 -0.809017
    outer loop
      vertex 0.957952 -5.5 2.94827
      vertex 2.50795 -0.570634 1.82213
      vertex 2.50795 -5.5 1.82213
    endloop
  endfacet
  facet normal -0.587785 0 -0.809017
    outer loop
      vertex 2.50795 -0.570634 1.82213
      vertex 0.957952 -5.5 2.94827
      vertex 0.957952 -0.570634 2.94827
    endloop
  endfacet
  facet normal 0.587785 0 -0.809017
    outer loop
      vertex -2.50795 0.570634 1.82213
      vertex -0.957952 3.5 2.94827
      vertex -0.957952 0.570634 2.94827
    endloop
  endfacet
  facet normal 0.587785 0 -0.809017
    outer loop
      vertex -0.957952 3.5 2.94827
      vertex -2.50795 0.570634 1.82213
      vertex -2.50795 3.5 1.82213
    endloop
  endfacet
  facet normal 0.587785 0 -0.809017
    outer loop
      vertex -2.50795 -5.5 1.82213
      vertex -0.957952 -0.570634 2.94827
      vertex -0.957952 -5.5 2.94827
    endloop
  endfacet
  facet normal 0.587785 0 -0.809017
    outer loop
      vertex -0.957952 -0.570634 2.94827
      vertex -2.50795 -5.5 1.82213
      vertex -2.50795 -0.570634 1.82213
    endloop
  endfacet
  facet normal -0.951056 0 0.309017
    outer loop
      vertex 2.50795 0.570634 -1.82213
      vertex 3.1 3.5 -7.77156e-16
      vertex 2.50795 3.5 -1.82213
    endloop
  endfacet
  facet normal -0.951056 6.86156e-17 0.309017
    outer loop
      vertex 3.1 3.5 -7.77156e-16
      vertex 2.50795 0.570634 -1.82213
      vertex 3.1 0.570634 -1.26706e-16
    endloop
  endfacet
  facet normal -0.951056 0 0.309017
    outer loop
      vertex 2.50795 -5.5 -1.82213
      vertex 3.1 -0.570634 1.26706e-16
      vertex 2.50795 -0.570634 -1.82213
    endloop
  endfacet
  facet normal -0.951056 6.86156e-17 0.309017
    outer loop
      vertex 3.1 -0.570634 1.26706e-16
      vertex 2.50795 -5.5 -1.82213
      vertex 3.1 -5.5 1.22125e-15
    endloop
  endfacet
  facet normal 0.951056 6.86156e-17 0.309017
    outer loop
      vertex -3.1 0.570634 -1.26706e-16
      vertex -2.50795 3.5 -1.82213
      vertex -3.1 3.5 -7.77156e-16
    endloop
  endfacet
  facet normal 0.951056 0 0.309017
    outer loop
      vertex -2.50795 3.5 -1.82213
      vertex -3.1 0.570634 -1.26706e-16
      vertex -2.50795 0.570634 -1.82213
    endloop
  endfacet
  facet normal 0.951056 6.86156e-17 0.309017
    outer loop
      vertex -3.1 -5.5 1.22125e-15
      vertex -2.50795 -0.570634 -1.82213
      vertex -3.1 -0.570634 1.26706e-16
    endloop
  endfacet
  facet normal 0.951056 0 0.309017
    outer loop
      vertex -2.50795 -0.570634 -1.82213
      vertex -3.1 -5.5 1.22125e-15
      vertex -2.50795 -5.5 -1.82213
    endloop
  endfacet
  facet normal -0 0 1
    outer loop
      vertex -0.957952 3.5 -2.94827
      vertex 0.957952 0.570634 -2.94827
      vertex 0.957952 3.5 -2.94827
    endloop
  endfacet
  facet normal 0 0 1
    outer loop
      vertex 0.957952 0.570634 -2.94827
      vertex -0.957952 3.5 -2.94827
      vertex -0.957952 0.570634 -2.94827
    endloop
  endfacet
  facet normal -0 0 1
    outer loop
      vertex -0.957952 -0.570634 -2.94827
      vertex 0.957952 -5.5 -2.94827
      vertex 0.957952 -0.570634 -2.94827
    endloop
  endfacet
  facet normal 0 0 1
    outer loop
      vertex 0.957952 -5.5 -2.94827
      vertex -0.957952 -0.570634 -2.94827
      vertex -0.957952 -5.5 -2.94827
    endloop
  endfacet
  facet normal -0.587785 0 0.809017
    outer loop
      vertex 0.957952 3.5 -2.94827
      vertex 2.50795 0.570634 -1.82213
      vertex 2.50795 3.5 -1.82213
    endloop
  endfacet
  facet normal -0.587785 0 0.809017
    outer loop
      vertex 2.50795 0.570634 -1.82213
      vertex 0.957952 3.5 -2.94827
      vertex 0.957952 0.570634 -2.94827
    endloop
  endfacet
  facet normal -0.587785 0 0.809017
    outer loop
      vertex 0.957952 -0.570634 -2.94827
      vertex 2.50795 -5.5 -1.82213
      vertex 2.50795 -0.570634 -1.82213
    endloop
  endfacet
  facet normal -0.587785 0 0.809017
    outer loop
      vertex 2.50795 -5.5 -1.82213
      vertex 0.957952 -0.570634 -2.94827
      vertex 0.957952 -5.5 -2.94827
    endloop
  endfacet
  facet normal 0 1 -0
    outer loop
      vertex 0.957952 3.5 2.94827
      vertex 0.955065 3.5 5.41644
      vertex 2.75 3.5 4.76314
    endloop
  endfacet
  facet normal 0 1 0
    outer loop
      vertex 0.955065 3.5 5.41644
      vertex 0.957952 3.5 2.94827
      vertex -0.955065 3.5 5.41644
    endloop
  endfacet
  facet normal 0 1 0
    outer loop
      vertex 2.50795 3.5 1.82213
      vertex 2.75 3.5 4.76314
      vertex 4.21324 3.5 3.53533
    endloop
  endfacet
  facet normal 0 1 0
    outer loop
      vertex -0.957952 3.5 2.94827
      vertex -0.955065 3.5 5.41644
      vertex 0.957952 3.5 2.94827
    endloop
  endfacet
  facet normal 0 1 0
    outer loop
      vertex -0.955065 3.5 5.41644
      vertex -0.957952 3.5 2.94827
      vertex -2.75 3.5 4.76314
    endloop
  endfacet
  facet normal 0 1 0
    outer loop
      vertex 2.50795 3.5 1.82213
      vertex 4.21324 3.5 3.53533
      vertex 5.16831 3.5 1.88111
    endloop
  endfacet
  facet normal 0 1 0
    outer loop
      vertex 2.75 3.5 4.76314
      vertex 2.50795 3.5 1.82213
      vertex 0.957952 3.5 2.94827
    endloop
  endfacet
  facet normal 0 1 0
    outer loop
      vertex 3.1 3.5 -7.77156e-16
      vertex 5.16831 3.5 1.88111
      vertex 5.5 3.5 -7.77156e-16
    endloop
  endfacet
  facet normal 0 1 0
    outer loop
      vertex 5.16831 3.5 1.88111
      vertex 3.1 3.5 -7.77156e-16
      vertex 2.50795 3.5 1.82213
    endloop
  endfacet
  facet normal 0 1 -0
    outer loop
      vertex 5.16831 3.5 -1.88111
      vertex 3.1 3.5 -7.77156e-16
      vertex 5.5 3.5 -7.77156e-16
    endloop
  endfacet
  facet normal 0 1 0
    outer loop
      vertex 3.1 3.5 -7.77156e-16
      vertex 5.16831 3.5 -1.88111
      vertex 2.50795 3.5 -1.82213
    endloop
  endfacet
  facet normal 0 1 -0
    outer loop
      vertex 4.21324 3.5 -3.53533
      vertex 2.50795 3.5 -1.82213
      vertex 5.16831 3.5 -1.88111
    endloop
  endfacet
  facet normal 0 1 0
    outer loop
      vertex 2.50795 3.5 -1.82213
      vertex 2.75 3.5 -4.76314
      vertex 0.957952 3.5 -2.94827
    endloop
  endfacet
  facet normal 0 1 -0
    outer loop
      vertex 2.75 3.5 -4.76314
      vertex 2.50795 3.5 -1.82213
      vertex 4.21324 3.5 -3.53533
    endloop
  endfacet
  facet normal 0 1 -0
    outer loop
      vertex -2.50795 3.5 1.82213
      vertex -2.75 3.5 4.76314
      vertex -0.957952 3.5 2.94827
    endloop
  endfacet
  facet normal 0 1 0
    outer loop
      vertex -2.75 3.5 4.76314
      vertex -2.50795 3.5 1.82213
      vertex -4.21324 3.5 3.53533
    endloop
  endfacet
  facet normal 0 1 0
    outer loop
      vertex -4.21324 3.5 3.53533
      vertex -2.50795 3.5 1.82213
      vertex -5.16831 3.5 1.88111
    endloop
  endfacet
  facet normal 0 1 -0
    outer loop
      vertex -3.1 3.5 -7.77156e-16
      vertex -5.16831 3.5 1.88111
      vertex -2.50795 3.5 1.82213
    endloop
  endfacet
  facet normal 0 1 0
    outer loop
      vertex -3.1 3.5 -7.77156e-16
      vertex -5.5 3.5 -7.77156e-16
      vertex -5.16831 3.5 1.88111
    endloop
  endfacet
  facet normal 0 1 0
    outer loop
      vertex -5.16831 3.5 -1.88111
      vertex -3.1 3.5 -7.77156e-16
      vertex -2.50795 3.5 -1.82213
    endloop
  endfacet
  facet normal 0 1 0
    outer loop
      vertex -3.1 3.5 -7.77156e-16
      vertex -5.16831 3.5 -1.88111
      vertex -5.5 3.5 -7.77156e-16
    endloop
  endfacet
  facet normal 0 1 0
    outer loop
      vertex -2.75 3.5 -4.76314
      vertex -2.50795 3.5 -1.82213
      vertex -0.957952 3.5 -2.94827
    endloop
  endfacet
  facet normal 0 1 0
    outer loop
      vertex -2.50795 3.5 -1.82213
      vertex -4.21324 3.5 -3.53533
      vertex -5.16831 3.5 -1.88111
    endloop
  endfacet
  facet normal 0 1 0
    outer loop
      vertex 0.955065 3.5 -5.41644
      vertex 0.957952 3.5 -2.94827
      vertex 2.75 3.5 -4.76314
    endloop
  endfacet
  facet normal 0 1 0
    outer loop
      vertex 0.957952 3.5 -2.94827
      vertex 0.955065 3.5 -5.41644
      vertex -0.957952 3.5 -2.94827
    endloop
  endfacet
  facet normal 0 1 0
    outer loop
      vertex -2.50795 3.5 -1.82213
      vertex -2.75 3.5 -4.76314
      vertex -4.21324 3.5 -3.53533
    endloop
  endfacet
  facet normal 0 1 -0
    outer loop
      vertex -0.955065 3.5 -5.41644
      vertex -0.957952 3.5 -2.94827
      vertex 0.955065 3.5 -5.41644
    endloop
  endfacet
  facet normal 0 1 0
    outer loop
      vertex -0.957952 3.5 -2.94827
      vertex -0.955065 3.5 -5.41644
      vertex -2.75 3.5 -4.76314
    endloop
  endfacet
  facet normal 0.587785 0 0.809017
    outer loop
      vertex -2.50795 3.5 -1.82213
      vertex -0.957952 0.570634 -2.94827
      vertex -0.957952 3.5 -2.94827
    endloop
  endfacet
  facet normal 0.587785 0 0.809017
    outer loop
      vertex -0.957952 0.570634 -2.94827
      vertex -2.50795 3.5 -1.82213
      vertex -2.50795 0.570634 -1.82213
    endloop
  endfacet
  facet normal 0.587785 0 0.809017
    outer loop
      vertex -2.50795 -0.570634 -1.82213
      vertex -0.957952 -5.5 -2.94827
      vertex -0.957952 -0.570634 -2.94827
    endloop
  endfacet
  facet normal 0.587785 0 0.809017
    outer loop
      vertex -0.957952 -5.5 -2.94827
      vertex -2.50795 -0.570634 -1.82213
      vertex -2.50795 -5.5 -1.82213
    endloop
  endfacet
  facet normal -0.984808 0 0.173648
    outer loop
      vertex 5.16831 3.5 -1.88111
      vertex 5.5 5.5 -1.22125e-15
      vertex 5.16831 5.5 -1.88111
    endloop
  endfacet
  facet normal -0.984808 3.85577e-17 0.173648
    outer loop
      vertex 5.5 5.5 -1.22125e-15
      vertex 5.16831 3.5 -1.88111
      vertex 5.5 3.5 -7.77156e-16
    endloop
  endfacet
  facet normal -0.866025 0 0.5
    outer loop
      vertex 4.21324 3.5 -3.53533
      vertex 5.16831 5.5 -1.88111
      vertex 4.21324 5.5 -3.53533
    endloop
  endfacet
  facet normal -0.866025 0 0.5
    outer loop
      vertex 5.16831 5.5 -1.88111
      vertex 4.21324 3.5 -3.53533
      vertex 5.16831 3.5 -1.88111
    endloop
  endfacet
  facet normal 0.984808 3.85577e-17 0.173648
    outer loop
      vertex -5.5 3.5 -7.77156e-16
      vertex -5.16831 5.5 -1.88111
      vertex -5.5 5.5 -1.22125e-15
    endloop
  endfacet
  facet normal 0.984808 0 0.173648
    outer loop
      vertex -5.16831 5.5 -1.88111
      vertex -5.5 3.5 -7.77156e-16
      vertex -5.16831 3.5 -1.88111
    endloop
  endfacet
  facet normal 0.984808 0 -0.173648
    outer loop
      vertex -5.16831 3.5 1.88111
      vertex -5.5 5.5 -1.22125e-15
      vertex -5.16831 5.5 1.88111
    endloop
  endfacet
  facet normal 0.984808 -3.85577e-17 -0.173648
    outer loop
      vertex -5.5 5.5 -1.22125e-15
      vertex -5.16831 3.5 1.88111
      vertex -5.5 3.5 -7.77156e-16
    endloop
  endfacet
  facet normal -0 0 1
    outer loop
      vertex -0.955065 5.5 -5.41644
      vertex 0.955065 3.5 -5.41644
      vertex 0.955065 5.5 -5.41644
    endloop
  endfacet
  facet normal 0 0 1
    outer loop
      vertex 0.955065 3.5 -5.41644
      vertex -0.955065 5.5 -5.41644
      vertex -0.955065 3.5 -5.41644
    endloop
  endfacet
  facet normal -0.642788 0 0.766044
    outer loop
      vertex 2.75 5.5 -4.76314
      vertex 4.21324 3.5 -3.53533
      vertex 4.21324 5.5 -3.53533
    endloop
  endfacet
  facet normal -0.642788 0 0.766044
    outer loop
      vertex 4.21324 3.5 -3.53533
      vertex 2.75 5.5 -4.76314
      vertex 2.75 3.5 -4.76314
    endloop
  endfacet
  facet normal -0.34202 0 -0.939693
    outer loop
      vertex 0.955065 3.5 5.41644
      vertex 2.75 5.5 4.76314
      vertex 2.75 3.5 4.76314
    endloop
  endfacet
  facet normal -0.34202 0 -0.939693
    outer loop
      vertex 2.75 5.5 4.76314
      vertex 0.955065 3.5 5.41644
      vertex 0.955065 5.5 5.41644
    endloop
  endfacet
  facet normal -0.866025 0 -0.5
    outer loop
      vertex 5.16831 3.5 1.88111
      vertex 4.21324 5.5 3.53533
      vertex 5.16831 5.5 1.88111
    endloop
  endfacet
  facet normal -0.866025 -0 -0.5
    outer loop
      vertex 4.21324 5.5 3.53533
      vertex 5.16831 3.5 1.88111
      vertex 4.21324 3.5 3.53533
    endloop
  endfacet
  facet normal -0.34202 0 0.939693
    outer loop
      vertex 0.955065 5.5 -5.41644
      vertex 2.75 3.5 -4.76314
      vertex 2.75 5.5 -4.76314
    endloop
  endfacet
  facet normal -0.34202 0 0.939693
    outer loop
      vertex 2.75 3.5 -4.76314
      vertex 0.955065 5.5 -5.41644
      vertex 0.955065 3.5 -5.41644
    endloop
  endfacet
  facet normal 0.866025 -0 0.5
    outer loop
      vertex -5.16831 3.5 -1.88111
      vertex -4.21324 5.5 -3.53533
      vertex -5.16831 5.5 -1.88111
    endloop
  endfacet
  facet normal 0.866025 0 0.5
    outer loop
      vertex -4.21324 5.5 -3.53533
      vertex -5.16831 3.5 -1.88111
      vertex -4.21324 3.5 -3.53533
    endloop
  endfacet
  facet normal 0.34202 0 0.939693
    outer loop
      vertex -2.75 5.5 -4.76314
      vertex -0.955065 3.5 -5.41644
      vertex -0.955065 5.5 -5.41644
    endloop
  endfacet
  facet normal 0.34202 0 0.939693
    outer loop
      vertex -0.955065 3.5 -5.41644
      vertex -2.75 5.5 -4.76314
      vertex -2.75 3.5 -4.76314
    endloop
  endfacet
  facet normal 0.642787 0 0.766045
    outer loop
      vertex -4.21324 5.5 -3.53533
      vertex -2.75 3.5 -4.76314
      vertex -2.75 5.5 -4.76314
    endloop
  endfacet
  facet normal 0.642787 0 0.766045
    outer loop
      vertex -2.75 3.5 -4.76314
      vertex -4.21324 5.5 -3.53533
      vertex -4.21324 3.5 -3.53533
    endloop
  endfacet
  facet normal 0 0 -1
    outer loop
      vertex -0.955065 3.5 5.41644
      vertex 0.955065 5.5 5.41644
      vertex 0.955065 3.5 5.41644
    endloop
  endfacet
  facet normal -0 0 -1
    outer loop
      vertex 0.955065 5.5 5.41644
      vertex -0.955065 3.5 5.41644
      vertex -0.955065 5.5 5.41644
    endloop
  endfacet
  facet normal -0.984808 -3.85577e-17 -0.173648
    outer loop
      vertex 5.5 3.5 -7.77156e-16
      vertex 5.16831 5.5 1.88111
      vertex 5.5 5.5 -1.22125e-15
    endloop
  endfacet
  facet normal -0.984808 -0 -0.173648
    outer loop
      vertex 5.16831 5.5 1.88111
      vertex 5.5 3.5 -7.77156e-16
      vertex 5.16831 3.5 1.88111
    endloop
  endfacet
  facet normal 0.642788 0 -0.766044
    outer loop
      vertex -4.21324 3.5 3.53533
      vertex -2.75 5.5 4.76314
      vertex -2.75 3.5 4.76314
    endloop
  endfacet
  facet normal 0.642788 0 -0.766044
    outer loop
      vertex -2.75 5.5 4.76314
      vertex -4.21324 3.5 3.53533
      vertex -4.21324 5.5 3.53533
    endloop
  endfacet
  facet normal 0.866025 0 -0.5
    outer loop
      vertex -4.21324 3.5 3.53533
      vertex -5.16831 5.5 1.88111
      vertex -4.21324 5.5 3.53533
    endloop
  endfacet
  facet normal 0.866025 0 -0.5
    outer loop
      vertex -5.16831 5.5 1.88111
      vertex -4.21324 3.5 3.53533
      vertex -5.16831 3.5 1.88111
    endloop
  endfacet
  facet normal -0.642787 0 -0.766045
    outer loop
      vertex 2.75 3.5 4.76314
      vertex 4.21324 5.5 3.53533
      vertex 4.21324 3.5 3.53533
    endloop
  endfacet
  facet normal -0.642787 0 -0.766045
    outer loop
      vertex 4.21324 5.5 3.53533
      vertex 2.75 3.5 4.76314
      vertex 2.75 5.5 4.76314
    endloop
  endfacet
  facet normal 0.34202 0 -0.939693
    outer loop
      vertex -2.75 3.5 4.76314
      vertex -0.955065 5.5 5.41644
      vertex -0.955065 3.5 5.41644
    endloop
  endfacet
  facet normal 0.34202 0 -0.939693
    outer loop
      vertex -0.955065 5.5 5.41644
      vertex -2.75 3.5 4.76314
      vertex -2.75 5.5 4.76314
    endloop
  endfacet
  facet normal 0 1 0
    outer loop
      vertex 2.89949 5.5 7
      vertex 2.75 5.5 4.76314
      vertex 0.955065 5.5 5.41644
    endloop
  endfacet
  facet normal 0 1 0
    outer loop
      vertex 2.89949 5.5 7
      vertex 4.21324 5.5 3.53533
      vertex 2.75 5.5 4.76314
    endloop
  endfacet
  facet normal 0 1 0
    outer loop
      vertex 7 5.5 2.89949
      vertex 4.21324 5.5 3.53533
      vertex 2.89949 5.5 7
    endloop
  endfacet
  facet normal 0 1 0
    outer loop
      vertex 7 5.5 2.89949
      vertex 5.16831 5.5 1.88111
      vertex 4.21324 5.5 3.53533
    endloop
  endfacet
  facet normal 0 1 0
    outer loop
      vertex 7 5.5 2.89949
      vertex 5.5 5.5 -1.22125e-15
      vertex 5.16831 5.5 1.88111
    endloop
  endfacet
  facet normal 0 1 -0
    outer loop
      vertex 7 5.5 -2.89949
      vertex 5.5 5.5 -1.22125e-15
      vertex 7 5.5 2.89949
    endloop
  endfacet
  facet normal 0 1 0
    outer loop
      vertex 5.5 5.5 -1.22125e-15
      vertex 7 5.5 -2.89949
      vertex 5.16831 5.5 -1.88111
    endloop
  endfacet
  facet normal 0 1 0
    outer loop
      vertex 7 5.5 -2.89949
      vertex 4.21324 5.5 -3.53533
      vertex 5.16831 5.5 -1.88111
    endloop
  endfacet
  facet normal 0 1 0
    outer loop
      vertex 2.89949 5.5 -7
      vertex 4.21324 5.5 -3.53533
      vertex 7 5.5 -2.89949
    endloop
  endfacet
  facet normal 0 1 0
    outer loop
      vertex 0.955065 5.5 -5.41644
      vertex 2.89949 5.5 -7
      vertex -0.955065 5.5 -5.41644
    endloop
  endfacet
  facet normal 0 1 0
    outer loop
      vertex 2.75 5.5 -4.76314
      vertex 2.89949 5.5 -7
      vertex 0.955065 5.5 -5.41644
    endloop
  endfacet
  facet normal 0 1 0
    outer loop
      vertex 4.21324 5.5 -3.53533
      vertex 2.89949 5.5 -7
      vertex 2.75 5.5 -4.76314
    endloop
  endfacet
  facet normal 0 1 -0
    outer loop
      vertex 0.955065 5.5 5.41644
      vertex -2.89949 5.5 7
      vertex 2.89949 5.5 7
    endloop
  endfacet
  facet normal 0 1 -0
    outer loop
      vertex -0.955065 5.5 5.41644
      vertex -2.89949 5.5 7
      vertex 0.955065 5.5 5.41644
    endloop
  endfacet
  facet normal 0 1 -0
    outer loop
      vertex -2.75 5.5 4.76314
      vertex -2.89949 5.5 7
      vertex -0.955065 5.5 5.41644
    endloop
  endfacet
  facet normal 0 1 0
    outer loop
      vertex -4.21324 5.5 3.53533
      vertex -2.89949 5.5 7
      vertex -2.75 5.5 4.76314
    endloop
  endfacet
  facet normal 0 1 -0
    outer loop
      vertex -4.21324 5.5 3.53533
      vertex -7 5.5 2.89949
      vertex -2.89949 5.5 7
    endloop
  endfacet
  facet normal 0 1 -0
    outer loop
      vertex -5.16831 5.5 1.88111
      vertex -7 5.5 2.89949
      vertex -4.21324 5.5 3.53533
    endloop
  endfacet
  facet normal 0 1 -0
    outer loop
      vertex -5.5 5.5 -1.22125e-15
      vertex -7 5.5 2.89949
      vertex -5.16831 5.5 1.88111
    endloop
  endfacet
  facet normal 0 1 0
    outer loop
      vertex -7 5.5 -2.89949
      vertex -5.5 5.5 -1.22125e-15
      vertex -5.16831 5.5 -1.88111
    endloop
  endfacet
  facet normal 0 1 0
    outer loop
      vertex -5.5 5.5 -1.22125e-15
      vertex -7 5.5 -2.89949
      vertex -7 5.5 2.89949
    endloop
  endfacet
  facet normal 0 1 0
    outer loop
      vertex -4.21324 5.5 -3.53533
      vertex -7 5.5 -2.89949
      vertex -5.16831 5.5 -1.88111
    endloop
  endfacet
  facet normal 0 1 -0
    outer loop
      vertex -2.89949 5.5 -7
      vertex -4.21324 5.5 -3.53533
      vertex -2.75 5.5 -4.76314
    endloop
  endfacet
  facet normal 0 1 0
    outer loop
      vertex -2.89949 5.5 -7
      vertex -0.955065 5.5 -5.41644
      vertex 2.89949 5.5 -7
    endloop
  endfacet
  facet normal 0 1 0
    outer loop
      vertex -4.21324 5.5 -3.53533
      vertex -2.89949 5.5 -7
      vertex -7 5.5 -2.89949
    endloop
  endfacet
  facet normal 0 1 0
    outer loop
      vertex -0.955065 5.5 -5.41644
      vertex -2.89949 5.5 -7
      vertex -2.75 5.5 -4.76314
    endloop
  endfacet
  facet normal 0 1 -0
    outer loop
      vertex 2.89949 5.5 7
      vertex -2.89949 5.5 7
      vertex 2.8995 5.5 7
    endloop
  endfacet
  facet normal -0.707107 0 0.707107
    outer loop
      vertex -7 0.570634 2.89949
      vertex -2.89949 5.5 7
      vertex -7 5.5 2.89949
    endloop
  endfacet
  facet normal -0.707107 0 0.707107
    outer loop
      vertex -2.89949 5.5 7
      vertex -7 0.570634 2.89949
      vertex -2.89949 0.570634 7
    endloop
  endfacet
  facet normal -0.707107 0 0.707107
    outer loop
      vertex -7 -5.5 2.89949
      vertex -2.89949 -0.570634 7
      vertex -7 -0.570634 2.89949
    endloop
  endfacet
  facet normal -0.707107 0 0.707107
    outer loop
      vertex -2.89949 -0.570634 7
      vertex -7 -5.5 2.89949
      vertex -2.89949 -5.5 7
    endloop
  endfacet
  facet normal 0 -1 0
    outer loop
      vertex -2.89949 -5.5 7
      vertex -0.957952 -5.5 2.94827
      vertex 2.89949 -5.5 7
    endloop
  endfacet
  facet normal 0 -1 0
    outer loop
      vertex -2.50795 -5.5 1.82213
      vertex -2.89949 -5.5 7
      vertex -7 -5.5 2.89949
    endloop
  endfacet
  facet normal 0 -1 0
    outer loop
      vertex -2.89949 -5.5 7
      vertex -2.50795 -5.5 1.82213
      vertex -0.957952 -5.5 2.94827
    endloop
  endfacet
  facet normal 0 -1 0
    outer loop
      vertex -7 -5.5 2.89949
      vertex -3.1 -5.5 1.22125e-15
      vertex -2.50795 -5.5 1.82213
    endloop
  endfacet
  facet normal 0 -1 0
    outer loop
      vertex -7 -5.5 -2.89949
      vertex -3.1 -5.5 1.22125e-15
      vertex -7 -5.5 2.89949
    endloop
  endfacet
  facet normal 0 -1 -0
    outer loop
      vertex -3.1 -5.5 1.22125e-15
      vertex -7 -5.5 -2.89949
      vertex -2.50795 -5.5 -1.82213
    endloop
  endfacet
  facet normal 0 -1 0
    outer loop
      vertex -2.89949 -5.5 -7
      vertex -2.50795 -5.5 -1.82213
      vertex -7 -5.5 -2.89949
    endloop
  endfacet
  facet normal 0 -1 -0
    outer loop
      vertex -0.957952 -5.5 -2.94827
      vertex -2.89949 -5.5 -7
      vertex 0.957952 -5.5 -2.94827
    endloop
  endfacet
  facet normal 0 -1 -0
    outer loop
      vertex -2.50795 -5.5 -1.82213
      vertex -2.89949 -5.5 -7
      vertex -0.957952 -5.5 -2.94827
    endloop
  endfacet
  facet normal 0 -1 0
    outer loop
      vertex 0.957952 -5.5 2.94827
      vertex 2.89949 -5.5 7
      vertex -0.957952 -5.5 2.94827
    endloop
  endfacet
  facet normal 0 -1 0
    outer loop
      vertex 2.50795 -5.5 1.82213
      vertex 2.89949 -5.5 7
      vertex 0.957952 -5.5 2.94827
    endloop
  endfacet
  facet normal 0 -1 -0
    outer loop
      vertex 2.89949 -5.5 7
      vertex 2.50795 -5.5 1.82213
      vertex 7 -5.5 2.89949
    endloop
  endfacet
  facet normal 0 -1 0
    outer loop
      vertex 3.1 -5.5 1.22125e-15
      vertex 7 -5.5 2.89949
      vertex 2.50795 -5.5 1.82213
    endloop
  endfacet
  facet normal 0 -1 0
    outer loop
      vertex 7 -5.5 -2.89949
      vertex 3.1 -5.5 1.22125e-15
      vertex 2.50795 -5.5 -1.82213
    endloop
  endfacet
  facet normal 0 -1 0
    outer loop
      vertex 3.1 -5.5 1.22125e-15
      vertex 7 -5.5 -2.89949
      vertex 7 -5.5 2.89949
    endloop
  endfacet
  facet normal 0 -1 0
    outer loop
      vertex 2.89949 -5.5 -7
      vertex 2.50795 -5.5 -1.82213
      vertex 0.957952 -5.5 -2.94827
    endloop
  endfacet
  facet normal 0 -1 0
    outer loop
      vertex 2.89949 -5.5 -7
      vertex 0.957952 -5.5 -2.94827
      vertex -2.89949 -5.5 -7
    endloop
  endfacet
  facet normal 0 -1 0
    outer loop
      vertex 2.50795 -5.5 -1.82213
      vertex 2.89949 -5.5 -7
      vertex 7 -5.5 -2.89949
    endloop
  endfacet
  facet normal 0.34202 0.939693 -0
    outer loop
      vertex 11.25 4.76314 -7
      vertex 9.45506 5.41644 7
      vertex 11.25 4.76314 7
    endloop
  endfacet
  facet normal 0.34202 0.939693 0
    outer loop
      vertex 9.45506 5.41644 7
      vertex 11.25 4.76314 -7
      vertex 9.45506 5.41644 -7
    endloop
  endfacet
  facet normal 0.0340151 0.999421 1.20341e-07
    outer loop
      vertex 9.45506 5.41644 7
      vertex 7 5.5 2.89949
      vertex 8.97373 5.43282 7
    endloop
  endfacet
  facet normal 0.0340153 0.999421 0
    outer loop
      vertex 9.45506 5.41644 7
      vertex 7 5.5 -2.89949
      vertex 7 5.5 2.89949
    endloop
  endfacet
  facet normal 0.0340153 0.999421 -0
    outer loop
      vertex 9.45506 5.41644 -7
      vertex 7 5.5 -2.89949
      vertex 9.45506 5.41644 7
    endloop
  endfacet
  facet normal 0.0340151 0.999421 -1.20341e-07
    outer loop
      vertex 7 5.5 -2.89949
      vertex 9.45506 5.41644 -7
      vertex 8.97373 5.43282 -7
    endloop
  endfacet
  facet normal -0.707107 0 -0.707107
    outer loop
      vertex -2.89949 0.570634 -7
      vertex -7 5.5 -2.89949
      vertex -2.89949 5.5 -7
    endloop
  endfacet
  facet normal -0.707107 -0 -0.707107
    outer loop
      vertex -7 5.5 -2.89949
      vertex -2.89949 0.570634 -7
      vertex -7 0.570634 -2.89949
    endloop
  endfacet
  facet normal -0.707107 0 -0.707107
    outer loop
      vertex -2.89949 -5.5 -7
      vertex -7 -0.570634 -2.89949
      vertex -2.89949 -0.570634 -7
    endloop
  endfacet
  facet normal -0.707107 -0 -0.707107
    outer loop
      vertex -7 -0.570634 -2.89949
      vertex -2.89949 -5.5 -7
      vertex -7 -5.5 -2.89949
    endloop
  endfacet
  facet normal -1 0 1.64455e-07
    outer loop
      vertex -7 0.570634 -2.89949
      vertex -7 5.5 2.89949
      vertex -7 5.5 -2.89949
    endloop
  endfacet
  facet normal -1 0 1.64455e-07
    outer loop
      vertex -7 5.5 2.89949
      vertex -7 0.570634 -2.89949
      vertex -7 0.570634 2.89949
    endloop
  endfacet
  facet normal -1 0 1.64455e-07
    outer loop
      vertex -7 -5.5 -2.89949
      vertex -7 -0.570634 2.89949
      vertex -7 -0.570634 -2.89949
    endloop
  endfacet
  facet normal -1 0 1.64455e-07
    outer loop
      vertex -7 -0.570634 2.89949
      vertex -7 -5.5 -2.89949
      vertex -7 -5.5 2.89949
    endloop
  endfacet
  facet normal 0.0110578 0.999878 -0.0110578
    outer loop
      vertex 8.97373 5.43282 -7
      vertex 2.89949 5.5 -7
      vertex 7 5.5 -2.89949
    endloop
  endfacet
  facet normal 0 -1 0
    outer loop
      vertex 7 -5.5 2.89949
      vertex 2.8995 -5.5 7
      vertex 2.89949 -5.5 7
    endloop
  endfacet
  facet normal 0.0110578 -0.999878 0.0110578
    outer loop
      vertex 2.8995 -5.5 7
      vertex 7 -5.5 2.89949
      vertex 8.97373 -5.43282 7
    endloop
  endfacet
  facet normal 0.0110578 0.999878 0.0110578
    outer loop
      vertex 7 5.5 2.89949
      vertex 2.8995 5.5 7
      vertex 8.97373 5.43282 7
    endloop
  endfacet
  facet normal 0 1 0
    outer loop
      vertex 2.8995 5.5 7
      vertex 7 5.5 2.89949
      vertex 2.89949 5.5 7
    endloop
  endfacet
  facet normal 0.0340151 -0.999421 1.20341e-07
    outer loop
      vertex 7 -5.5 2.89949
      vertex 9.45506 -5.41644 7
      vertex 8.97373 -5.43282 7
    endloop
  endfacet
  facet normal 0.0340153 -0.999421 0
    outer loop
      vertex 7 -5.5 -2.89949
      vertex 9.45506 -5.41644 7
      vertex 7 -5.5 2.89949
    endloop
  endfacet
  facet normal 0.0340151 -0.999421 -1.20341e-07
    outer loop
      vertex 9.45506 -5.41644 -7
      vertex 7 -5.5 -2.89949
      vertex 8.97373 -5.43282 -7
    endloop
  endfacet
  facet normal 0.0340153 -0.999421 0
    outer loop
      vertex 7 -5.5 -2.89949
      vertex 9.45506 -5.41644 -7
      vertex 9.45506 -5.41644 7
    endloop
  endfacet
  facet normal -0 -1 0
    outer loop
      vertex 2.8995 -5.5 7
      vertex -2.89949 -5.5 7
      vertex 2.89949 -5.5 7
    endloop
  endfacet
  facet normal 0.866025 -0.5 0
    outer loop
      vertex 12.7132 -3.53533 7
      vertex 13.6683 -1.88111 -7
      vertex 13.6683 -1.88111 7
    endloop
  endfacet
  facet normal 0.866025 -0.5 0
    outer loop
      vertex 13.6683 -1.88111 -7
      vertex 12.7132 -3.53533 7
      vertex 12.7132 -3.53533 -7
    endloop
  endfacet
  facet normal 0.642787 0.766045 -0
    outer loop
      vertex 12.7132 3.53533 -7
      vertex 11.25 4.76314 7
      vertex 12.7132 3.53533 7
    endloop
  endfacet
  facet normal 0.642787 0.766045 0
    outer loop
      vertex 11.25 4.76314 7
      vertex 12.7132 3.53533 -7
      vertex 11.25 4.76314 -7
    endloop
  endfacet
  facet normal 0.866025 0.5 0
    outer loop
      vertex 13.6683 1.88111 7
      vertex 12.7132 3.53533 -7
      vertex 12.7132 3.53533 7
    endloop
  endfacet
  facet normal 0.866025 0.5 0
    outer loop
      vertex 12.7132 3.53533 -7
      vertex 13.6683 1.88111 7
      vertex 13.6683 1.88111 -7
    endloop
  endfacet
  facet normal 0.34202 -0.939693 0
    outer loop
      vertex 9.45506 -5.41644 -7
      vertex 11.25 -4.76314 7
      vertex 9.45506 -5.41644 7
    endloop
  endfacet
  facet normal 0.34202 -0.939693 0
    outer loop
      vertex 11.25 -4.76314 7
      vertex 9.45506 -5.41644 -7
      vertex 11.25 -4.76314 -7
    endloop
  endfacet
  facet normal 0.642788 -0.766044 0
    outer loop
      vertex 11.25 -4.76314 -7
      vertex 12.7132 -3.53533 7
      vertex 11.25 -4.76314 7
    endloop
  endfacet
  facet normal 0.642788 -0.766044 0
    outer loop
      vertex 12.7132 -3.53533 7
      vertex 11.25 -4.76314 -7
      vertex 12.7132 -3.53533 -7
    endloop
  endfacet
  facet normal 0.984808 -0.173648 4.15164e-17
    outer loop
      vertex 13.6683 -1.88111 7
      vertex 14 -1.55431e-15 -7
      vertex 14 1.55431e-15 7
    endloop
  endfacet
  facet normal 0.984808 -0.173648 0
    outer loop
      vertex 14 -1.55431e-15 -7
      vertex 13.6683 -1.88111 7
      vertex 13.6683 -1.88111 -7
    endloop
  endfacet
  facet normal 0.984808 0.173648 0
    outer loop
      vertex 14 1.55431e-15 7
      vertex 13.6683 1.88111 -7
      vertex 13.6683 1.88111 7
    endloop
  endfacet
  facet normal 0.984808 0.173648 -4.15164e-17
    outer loop
      vertex 13.6683 1.88111 -7
      vertex 14 1.55431e-15 7
      vertex 14 -1.55431e-15 -7
    endloop
  endfacet
  facet normal 0.0110578 -0.999878 -0.0110578
    outer loop
      vertex 7 -5.5 -2.89949
      vertex 2.89949 -5.5 -7
      vertex 8.97373 -5.43282 -7
    endloop
  endfacet
  facet normal -0.92388 0.382683 -8.28901e-17
    outer loop
      vertex 10.2678 -1.76777 -7
      vertex 11 1.55431e-15 7
      vertex 11 -1.55431e-15 -7
    endloop
  endfacet
  facet normal -0.92388 0.382683 0
    outer loop
      vertex 11 1.55431e-15 7
      vertex 10.2678 -1.76777 -7
      vertex 10.2678 -1.76777 7
    endloop
  endfacet
  facet normal -0.382683 0.92388 -4.32453e-09
    outer loop
      vertex 9.26014 -2.18514 -7
      vertex 8.5 -2.5 7
      vertex 9.50763 -2.08263 7
    endloop
  endfacet
  facet normal -0.382683 0.92388 0
    outer loop
      vertex 8.5 -2.5 7
      vertex 9.26014 -2.18514 -7
      vertex 8.5 -2.5 -7
    endloop
  endfacet
  facet normal -0.382683 -0.92388 -3.40426e-09
    outer loop
      vertex 9.50763 2.08263 -7
      vertex 10.2678 1.76777 7
      vertex 9.26014 2.18514 7
    endloop
  endfacet
  facet normal -0.382683 -0.92388 -0
    outer loop
      vertex 10.2678 1.76777 7
      vertex 9.50763 2.08263 -7
      vertex 10.2678 1.76777 -7
    endloop
  endfacet
  facet normal 0.382683 0.92388 0
    outer loop
      vertex 7.73986 -2.18514 -7
      vertex 8.5 -2.5 7
      vertex 8.5 -2.5 -7
    endloop
  endfacet
  facet normal 0.382683 0.92388 -3.03927e-08
    outer loop
      vertex 8.5 -2.5 7
      vertex 7.73986 -2.18514 -7
      vertex 7.49237 -2.08263 7
    endloop
  endfacet
  facet normal 0.382683 0.92388 -2.2664e-08
    outer loop
      vertex 6.73223 -1.76777 -7
      vertex 7.49237 -2.08263 7
      vertex 7.73986 -2.18514 -7
    endloop
  endfacet
  facet normal 0.382683 0.92388 0
    outer loop
      vertex 7.49237 -2.08263 7
      vertex 6.73223 -1.76777 -7
      vertex 6.73223 -1.76777 7
    endloop
  endfacet
  facet normal -0.92388 -0.382683 0
    outer loop
      vertex 10.2678 1.76777 -7
      vertex 11 1.55431e-15 7
      vertex 10.2678 1.76777 7
    endloop
  endfacet
  facet normal -0.92388 -0.382683 8.49728e-17
    outer loop
      vertex 11 1.55431e-15 7
      vertex 10.2678 1.76777 -7
      vertex 11 -1.55431e-15 -7
    endloop
  endfacet
  facet normal -0.382683 0.92388 0
    outer loop
      vertex 10.2678 -1.76777 -7
      vertex 9.50763 -2.08263 7
      vertex 10.2678 -1.76777 7
    endloop
  endfacet
  facet normal -0.382683 0.92388 3.40426e-09
    outer loop
      vertex 9.50763 -2.08263 7
      vertex 10.2678 -1.76777 -7
      vertex 9.26014 -2.18514 -7
    endloop
  endfacet
  facet normal 0.92388 0.382683 0
    outer loop
      vertex 6.73223 -1.76777 7
      vertex 6.23636 -0.570634 -7
      vertex 6.23636 -0.570634 7
    endloop
  endfacet
  facet normal 0.92388 0.382683 0
    outer loop
      vertex 6.23636 -0.570634 -7
      vertex 6.73223 -1.76777 7
      vertex 6.73223 -1.76777 -7
    endloop
  endfacet
  facet normal 0.92388 -0.382683 0
    outer loop
      vertex 6.23636 0.570634 7
      vertex 6.73223 1.76777 -7
      vertex 6.73223 1.76777 7
    endloop
  endfacet
  facet normal 0.92388 -0.382683 0
    outer loop
      vertex 6.73223 1.76777 -7
      vertex 6.23636 0.570634 7
      vertex 6.23636 0.570634 -7
    endloop
  endfacet
  facet normal -0.382683 -0.92388 0
    outer loop
      vertex 8.5 2.5 -7
      vertex 9.26014 2.18514 7
      vertex 8.5 2.5 7
    endloop
  endfacet
  facet normal -0.382683 -0.92388 4.32453e-09
    outer loop
      vertex 9.26014 2.18514 7
      vertex 8.5 2.5 -7
      vertex 9.50763 2.08263 -7
    endloop
  endfacet
  facet normal 0.382683 -0.92388 0
    outer loop
      vertex 7.49237 2.08263 -7
      vertex 6.73223 1.76777 7
      vertex 6.73223 1.76777 -7
    endloop
  endfacet
  facet normal 0.382683 -0.92388 2.2664e-08
    outer loop
      vertex 6.73223 1.76777 7
      vertex 7.49237 2.08263 -7
      vertex 7.73986 2.18514 7
    endloop
  endfacet
  facet normal 0.382683 -0.92388 3.03927e-08
    outer loop
      vertex 8.5 2.5 -7
      vertex 7.73986 2.18514 7
      vertex 7.49237 2.08263 -7
    endloop
  endfacet
  facet normal 0.382683 -0.92388 0
    outer loop
      vertex 7.73986 2.18514 7
      vertex 8.5 2.5 -7
      vertex 8.5 2.5 7
    endloop
  endfacet
  facet normal 0 1 0
    outer loop
      vertex 6.23636 -0.570634 7
      vertex 0.957952 -0.570634 2.94827
      vertex -2.89949 -0.570634 7
    endloop
  endfacet
  facet normal 0 1 0
    outer loop
      vertex 6.23636 -0.570634 7
      vertex 2.50795 -0.570634 1.82213
      vertex 0.957952 -0.570634 2.94827
    endloop
  endfacet
  facet normal 0 1 0
    outer loop
      vertex 6.23636 -0.570634 7
      vertex 3.1 -0.570634 1.26706e-16
      vertex 2.50795 -0.570634 1.82213
    endloop
  endfacet
  facet normal 0 1 -0
    outer loop
      vertex 6.23636 -0.570634 -7
      vertex 3.1 -0.570634 1.26706e-16
      vertex 6.23636 -0.570634 7
    endloop
  endfacet
  facet normal 0 1 0
    outer loop
      vertex -2.89949 -0.570634 -7
      vertex 0.957952 -0.570634 -2.94827
      vertex 6.23636 -0.570634 -7
    endloop
  endfacet
  facet normal 0 1 0
    outer loop
      vertex 2.50795 -0.570634 -1.82213
      vertex 6.23636 -0.570634 -7
      vertex 0.957952 -0.570634 -2.94827
    endloop
  endfacet
  facet normal 0 1 0
    outer loop
      vertex 3.1 -0.570634 1.26706e-16
      vertex 6.23636 -0.570634 -7
      vertex 2.50795 -0.570634 -1.82213
    endloop
  endfacet
  facet normal 0 1 -0
    outer loop
      vertex -0.957952 -0.570634 2.94827
      vertex -2.89949 -0.570634 7
      vertex 0.957952 -0.570634 2.94827
    endloop
  endfacet
  facet normal 0 1 -0
    outer loop
      vertex -2.50795 -0.570634 1.82213
      vertex -2.89949 -0.570634 7
      vertex -0.957952 -0.570634 2.94827
    endloop
  endfacet
  facet normal 0 1 0
    outer loop
      vertex -2.89949 -0.570634 7
      vertex -2.50795 -0.570634 1.82213
      vertex -7 -0.570634 2.89949
    endloop
  endfacet
  facet normal 0 1 -0
    outer loop
      vertex -3.1 -0.570634 1.26706e-16
      vertex -7 -0.570634 2.89949
      vertex -2.50795 -0.570634 1.82213
    endloop
  endfacet
  facet normal 0 1 0
    outer loop
      vertex -7 -0.570634 -2.89949
      vertex -3.1 -0.570634 1.26706e-16
      vertex -2.50795 -0.570634 -1.82213
    endloop
  endfacet
  facet normal 0 1 0
    outer loop
      vertex -3.1 -0.570634 1.26706e-16
      vertex -7 -0.570634 -2.89949
      vertex -7 -0.570634 2.89949
    endloop
  endfacet
  facet normal 0 1 0
    outer loop
      vertex -2.89949 -0.570634 -7
      vertex -2.50795 -0.570634 -1.82213
      vertex -0.957952 -0.570634 -2.94827
    endloop
  endfacet
  facet normal 0 1 0
    outer loop
      vertex 0.957952 -0.570634 -2.94827
      vertex -2.89949 -0.570634 -7
      vertex -0.957952 -0.570634 -2.94827
    endloop
  endfacet
  facet normal 0 1 0
    outer loop
      vertex -2.50795 -0.570634 -1.82213
      vertex -2.89949 -0.570634 -7
      vertex -7 -0.570634 -2.89949
    endloop
  endfacet
  facet normal 0 -1 0
    outer loop
      vertex 0.957952 0.570634 2.94827
      vertex -2.89949 0.570634 7
      vertex -0.957952 0.570634 2.94827
    endloop
  endfacet
  facet normal 0 -1 0
    outer loop
      vertex -2.50795 0.570634 1.82213
      vertex -2.89949 0.570634 7
      vertex -7 0.570634 2.89949
    endloop
  endfacet
  facet normal 0 -1 0
    outer loop
      vertex -2.89949 0.570634 7
      vertex -2.50795 0.570634 1.82213
      vertex -0.957952 0.570634 2.94827
    endloop
  endfacet
  facet normal 0 -1 0
    outer loop
      vertex -7 0.570634 2.89949
      vertex -3.1 0.570634 -1.26706e-16
      vertex -2.50795 0.570634 1.82213
    endloop
  endfacet
  facet normal 0 -1 0
    outer loop
      vertex -7 0.570634 -2.89949
      vertex -3.1 0.570634 -1.26706e-16
      vertex -7 0.570634 2.89949
    endloop
  endfacet
  facet normal 0 -1 -0
    outer loop
      vertex -3.1 0.570634 -1.26706e-16
      vertex -7 0.570634 -2.89949
      vertex -2.50795 0.570634 -1.82213
    endloop
  endfacet
  facet normal 0 -1 0
    outer loop
      vertex -2.89949 0.570634 -7
      vertex -2.50795 0.570634 -1.82213
      vertex -7 0.570634 -2.89949
    endloop
  endfacet
  facet normal 0 -1 -0
    outer loop
      vertex -0.957952 0.570634 -2.94827
      vertex -2.89949 0.570634 -7
      vertex 0.957952 0.570634 -2.94827
    endloop
  endfacet
  facet normal 0 -1 -0
    outer loop
      vertex -2.50795 0.570634 -1.82213
      vertex -2.89949 0.570634 -7
      vertex -0.957952 0.570634 -2.94827
    endloop
  endfacet
  facet normal 0 -1 0
    outer loop
      vertex -2.89949 0.570634 7
      vertex 0.957952 0.570634 2.94827
      vertex 6.23636 0.570634 7
    endloop
  endfacet
  facet normal 0 -1 0
    outer loop
      vertex 2.50795 0.570634 1.82213
      vertex 6.23636 0.570634 7
      vertex 0.957952 0.570634 2.94827
    endloop
  endfacet
  facet normal 0 -1 0
    outer loop
      vertex 3.1 0.570634 -1.26706e-16
      vertex 6.23636 0.570634 7
      vertex 2.50795 0.570634 1.82213
    endloop
  endfacet
  facet normal 0 -1 0
    outer loop
      vertex 6.23636 0.570634 -7
      vertex 3.1 0.570634 -1.26706e-16
      vertex 2.50795 0.570634 -1.82213
    endloop
  endfacet
  facet normal 0 -1 0
    outer loop
      vertex 6.23636 0.570634 -7
      vertex 0.957952 0.570634 -2.94827
      vertex -2.89949 0.570634 -7
    endloop
  endfacet
  facet normal 0 -1 0
    outer loop
      vertex 3.1 0.570634 -1.26706e-16
      vertex 6.23636 0.570634 -7
      vertex 6.23636 0.570634 7
    endloop
  endfacet
  facet normal 0 -1 0
    outer loop
      vertex 0.957952 0.570634 -2.94827
      vertex 6.23636 0.570634 -7
      vertex 2.50795 0.570634 -1.82213
    endloop
  endfacet
  facet normal 0 0 1
    outer loop
      vertex 13.6683 1.88111 7
      vertex 10.2678 1.76777 7
      vertex 11 1.55431e-15 7
    endloop
  endfacet
  facet normal 0 0 1
    outer loop
      vertex 9.26014 2.18514 7
      vertex 11.25 4.76314 7
      vertex 9.45506 5.41644 7
    endloop
  endfacet
  facet normal 0 0 1
    outer loop
      vertex 11.25 4.76314 7
      vertex 9.26014 2.18514 7
      vertex 10.2678 1.76777 7
    endloop
  endfacet
  facet normal 0 0 1
    outer loop
      vertex 8.5 2.5 7
      vertex 9.45506 5.41644 7
      vertex 8.97373 5.43282 7
    endloop
  endfacet
  facet normal 0 0 1
    outer loop
      vertex 9.45506 5.41644 7
      vertex 8.5 2.5 7
      vertex 9.26014 2.18514 7
    endloop
  endfacet
  facet normal 0 0 1
    outer loop
      vertex 8.97373 5.43282 7
      vertex 7.73986 2.18514 7
      vertex 8.5 2.5 7
    endloop
  endfacet
  facet normal 0 0 1
    outer loop
      vertex 8.97373 5.43282 7
      vertex 6.73223 1.76777 7
      vertex 7.73986 2.18514 7
    endloop
  endfacet
  facet normal 0 0 1
    outer loop
      vertex 2.8995 5.5 7
      vertex 6.73223 1.76777 7
      vertex 8.97373 5.43282 7
    endloop
  endfacet
  facet normal 0 0 1
    outer loop
      vertex 2.8995 5.5 7
      vertex 6.23636 0.570634 7
      vertex 6.73223 1.76777 7
    endloop
  endfacet
  facet normal 0 0 1
    outer loop
      vertex -2.89949 0.570634 7
      vertex 2.8995 5.5 7
      vertex -2.89949 5.5 7
    endloop
  endfacet
  facet normal 0 0 1
    outer loop
      vertex 2.8995 5.5 7
      vertex -2.89949 0.570634 7
      vertex 6.23636 0.570634 7
    endloop
  endfacet
  facet normal 0 0 1
    outer loop
      vertex 11 1.55431e-15 7
      vertex 14 1.55431e-15 7
      vertex 13.6683 1.88111 7
    endloop
  endfacet
  facet normal 0 0 1
    outer loop
      vertex 10.2678 1.76777 7
      vertex 13.6683 1.88111 7
      vertex 12.7132 3.53533 7
    endloop
  endfacet
  facet normal 0 0 1
    outer loop
      vertex 14 1.55431e-15 7
      vertex 11 1.55431e-15 7
      vertex 13.6683 -1.88111 7
    endloop
  endfacet
  facet normal -0 0 1
    outer loop
      vertex 10.2678 -1.76777 7
      vertex 13.6683 -1.88111 7
      vertex 11 1.55431e-15 7
    endloop
  endfacet
  facet normal 0 0 1
    outer loop
      vertex 10.2678 1.76777 7
      vertex 12.7132 3.53533 7
      vertex 11.25 4.76314 7
    endloop
  endfacet
  facet normal 0 0 1
    outer loop
      vertex 13.6683 -1.88111 7
      vertex 10.2678 -1.76777 7
      vertex 12.7132 -3.53533 7
    endloop
  endfacet
  facet normal 0 0 1
    outer loop
      vertex 12.7132 -3.53533 7
      vertex 10.2678 -1.76777 7
      vertex 11.25 -4.76314 7
    endloop
  endfacet
  facet normal -0 0 1
    outer loop
      vertex 9.50763 -2.08263 7
      vertex 11.25 -4.76314 7
      vertex 10.2678 -1.76777 7
    endloop
  endfacet
  facet normal 0 0 1
    outer loop
      vertex 9.50763 -2.08263 7
      vertex 9.45506 -5.41644 7
      vertex 11.25 -4.76314 7
    endloop
  endfacet
  facet normal -0 0 1
    outer loop
      vertex 8.5 -2.5 7
      vertex 9.45506 -5.41644 7
      vertex 9.50763 -2.08263 7
    endloop
  endfacet
  facet normal 0 0 1
    outer loop
      vertex 9.45506 -5.41644 7
      vertex 8.5 -2.5 7
      vertex 8.97373 -5.43282 7
    endloop
  endfacet
  facet normal 0 0 1
    outer loop
      vertex 7.49237 -2.08263 7
      vertex 8.97373 -5.43282 7
      vertex 8.5 -2.5 7
    endloop
  endfacet
  facet normal 0 0 1
    outer loop
      vertex 6.73223 -1.76777 7
      vertex 8.97373 -5.43282 7
      vertex 7.49237 -2.08263 7
    endloop
  endfacet
  facet normal 0 0 1
    outer loop
      vertex 6.73223 -1.76777 7
      vertex 2.8995 -5.5 7
      vertex 8.97373 -5.43282 7
    endloop
  endfacet
  facet normal 0 0 1
    outer loop
      vertex 6.23636 -0.570634 7
      vertex 2.8995 -5.5 7
      vertex 6.73223 -1.76777 7
    endloop
  endfacet
  facet normal -0 0 1
    outer loop
      vertex -2.89949 -0.570634 7
      vertex 2.8995 -5.5 7
      vertex 6.23636 -0.570634 7
    endloop
  endfacet
  facet normal 0 0 1
    outer loop
      vertex 2.8995 -5.5 7
      vertex -2.89949 -0.570634 7
      vertex -2.89949 -5.5 7
    endloop
  endfacet
  facet normal 0 0 -1
    outer loop
      vertex 11 -1.55431e-15 -7
      vertex 14 -1.55431e-15 -7
      vertex 13.6683 -1.88111 -7
    endloop
  endfacet
  facet normal 0 0 -1
    outer loop
      vertex 10.2678 -1.76777 -7
      vertex 13.6683 -1.88111 -7
      vertex 12.7132 -3.53533 -7
    endloop
  endfacet
  facet normal 0 0 -1
    outer loop
      vertex 14 -1.55431e-15 -7
      vertex 11 -1.55431e-15 -7
      vertex 13.6683 1.88111 -7
    endloop
  endfacet
  facet normal 0 0 -1
    outer loop
      vertex 10.2678 -1.76777 -7
      vertex 12.7132 -3.53533 -7
      vertex 11.25 -4.76314 -7
    endloop
  endfacet
  facet normal 0 0 -1
    outer loop
      vertex 10.2678 1.76777 -7
      vertex 13.6683 1.88111 -7
      vertex 11 -1.55431e-15 -7
    endloop
  endfacet
  facet normal -0 0 -1
    outer loop
      vertex 13.6683 1.88111 -7
      vertex 10.2678 1.76777 -7
      vertex 12.7132 3.53533 -7
    endloop
  endfacet
  facet normal 0 0 -1
    outer loop
      vertex 13.6683 -1.88111 -7
      vertex 10.2678 -1.76777 -7
      vertex 11 -1.55431e-15 -7
    endloop
  endfacet
  facet normal 0 0 -1
    outer loop
      vertex 9.26014 -2.18514 -7
      vertex 11.25 -4.76314 -7
      vertex 9.45506 -5.41644 -7
    endloop
  endfacet
  facet normal 0 0 -1
    outer loop
      vertex 11.25 -4.76314 -7
      vertex 9.26014 -2.18514 -7
      vertex 10.2678 -1.76777 -7
    endloop
  endfacet
  facet normal 0 0 -1
    outer loop
      vertex 8.5 -2.5 -7
      vertex 9.45506 -5.41644 -7
      vertex 8.97373 -5.43282 -7
    endloop
  endfacet
  facet normal 0 0 -1
    outer loop
      vertex 9.45506 -5.41644 -7
      vertex 8.5 -2.5 -7
      vertex 9.26014 -2.18514 -7
    endloop
  endfacet
  facet normal 0 0 -1
    outer loop
      vertex 8.97373 -5.43282 -7
      vertex 7.73986 -2.18514 -7
      vertex 8.5 -2.5 -7
    endloop
  endfacet
  facet normal 0 0 -1
    outer loop
      vertex 8.97373 -5.43282 -7
      vertex 6.73223 -1.76777 -7
      vertex 7.73986 -2.18514 -7
    endloop
  endfacet
  facet normal 0 0 -1
    outer loop
      vertex 2.89949 -5.5 -7
      vertex 6.73223 -1.76777 -7
      vertex 8.97373 -5.43282 -7
    endloop
  endfacet
  facet normal 0 0 -1
    outer loop
      vertex 2.89949 -5.5 -7
      vertex 6.23636 -0.570634 -7
      vertex 6.73223 -1.76777 -7
    endloop
  endfacet
  facet normal 0 0 -1
    outer loop
      vertex -2.89949 -0.570634 -7
      vertex 2.89949 -5.5 -7
      vertex -2.89949 -5.5 -7
    endloop
  endfacet
  facet normal 0 0 -1
    outer loop
      vertex 2.89949 -5.5 -7
      vertex -2.89949 -0.570634 -7
      vertex 6.23636 -0.570634 -7
    endloop
  endfacet
  facet normal -0 0 -1
    outer loop
      vertex 12.7132 3.53533 -7
      vertex 10.2678 1.76777 -7
      vertex 11.25 4.76314 -7
    endloop
  endfacet
  facet normal 0 0 -1
    outer loop
      vertex 9.50763 2.08263 -7
      vertex 11.25 4.76314 -7
      vertex 10.2678 1.76777 -7
    endloop
  endfacet
  facet normal 0 0 -1
    outer loop
      vertex 9.50763 2.08263 -7
      vertex 9.45506 5.41644 -7
      vertex 11.25 4.76314 -7
    endloop
  endfacet
  facet normal 0 0 -1
    outer loop
      vertex 8.5 2.5 -7
      vertex 9.45506 5.41644 -7
      vertex 9.50763 2.08263 -7
    endloop
  endfacet
  facet normal -0 0 -1
    outer loop
      vertex 9.45506 5.41644 -7
      vertex 8.5 2.5 -7
      vertex 8.97373 5.43282 -7
    endloop
  endfacet
  facet normal 0 0 -1
    outer loop
      vertex 7.49237 2.08263 -7
      vertex 8.97373 5.43282 -7
      vertex 8.5 2.5 -7
    endloop
  endfacet
  facet normal 0 0 -1
    outer loop
      vertex 6.73223 1.76777 -7
      vertex 8.97373 5.43282 -7
      vertex 7.49237 2.08263 -7
    endloop
  endfacet
  facet normal 0 0 -1
    outer loop
      vertex 6.73223 1.76777 -7
      vertex 2.89949 5.5 -7
      vertex 8.97373 5.43282 -7
    endloop
  endfacet
  facet normal 0 0 -1
    outer loop
      vertex 6.23636 0.570634 -7
      vertex 2.89949 5.5 -7
      vertex 6.73223 1.76777 -7
    endloop
  endfacet
  facet normal 0 0 -1
    outer loop
      vertex -2.89949 0.570634 -7
      vertex 2.89949 5.5 -7
      vertex 6.23636 0.570634 -7
    endloop
  endfacet
  facet normal -0 0 -1
    outer loop
      vertex 2.89949 5.5 -7
      vertex -2.89949 0.570634 -7
      vertex -2.89949 5.5 -7
    endloop
  endfacet
endsolid OpenSCAD_Model
