solid OpenSCAD_Model
  facet normal 0 0 -1
    outer loop
      vertex 2 -1 -5
      vertex 4 0 -5
      vertex 3.80423 -1.23607 -5
    endloop
  endfacet
  facet normal -0 0 -1
    outer loop
      vertex 4 0 -5
      vertex 2 -1 -5
      vertex 3.5 4 -5
    endloop
  endfacet
  facet normal 0 0 -1
    outer loop
      vertex 1.91354 -1.40674 -5
      vertex 3.80423 -1.23607 -5
      vertex 3.23607 -2.35114 -5
    endloop
  endfacet
  facet normal 0 0 -1
    outer loop
      vertex 2 5 -5
      vertex 3.5 4 -5
      vertex 2 -1 -5
    endloop
  endfacet
  facet normal 0 0 -1
    outer loop
      vertex 1.66913 -1.74314 -5
      vertex 3.23607 -2.35114 -5
      vertex 2.35114 -3.23607 -5
    endloop
  endfacet
  facet normal 0 0 -1
    outer loop
      vertex 3.5 4 -5
      vertex 2 5 -5
      vertex 3.3287 5.08156 -5
    endloop
  endfacet
  facet normal -0 0 -1
    outer loop
      vertex 3.3287 5.08156 -5
      vertex 2 5 -5
      vertex 2.83156 6.05725 -5
    endloop
  endfacet
  facet normal -0 0 -1
    outer loop
      vertex 3.80423 -1.23607 -5
      vertex 1.91354 -1.40674 -5
      vertex 2 -1 -5
    endloop
  endfacet
  facet normal 0 0 -1
    outer loop
      vertex 3.23607 -2.35114 -5
      vertex 1.66913 -1.74314 -5
      vertex 1.91354 -1.40674 -5
    endloop
  endfacet
  facet normal 0 0 -1
    outer loop
      vertex 2.35114 -3.23607 -5
      vertex 1.30902 -1.95106 -5
      vertex 1.66913 -1.74314 -5
    endloop
  endfacet
  facet normal 0 0 -1
    outer loop
      vertex 1.23607 -3.80423 -5
      vertex 1.30902 -1.95106 -5
      vertex 2.35114 -3.23607 -5
    endloop
  endfacet
  facet normal 0 0 -1
    outer loop
      vertex 1.23607 -3.80423 -5
      vertex 0.895471 -1.99452 -5
      vertex 1.30902 -1.95106 -5
    endloop
  endfacet
  facet normal 0 0 -1
    outer loop
      vertex 0 -4 -5
      vertex 0.895471 -1.99452 -5
      vertex 1.23607 -3.80423 -5
    endloop
  endfacet
  facet normal 0 0 -1
    outer loop
      vertex 0 -4 -5
      vertex -1.10453 -1.99452 -5
      vertex 0.895471 -1.99452 -5
    endloop
  endfacet
  facet normal 0 0 -1
    outer loop
      vertex -1.23607 -3.80423 -5
      vertex -1.10453 -1.99452 -5
      vertex 0 -4 -5
    endloop
  endfacet
  facet normal 0 0 -1
    outer loop
      vertex -2.35114 -3.23607 -5
      vertex -1.10453 -1.99452 -5
      vertex -1.23607 -3.80423 -5
    endloop
  endfacet
  facet normal -0 0 -1
    outer loop
      vertex -1.10453 -1.99452 -5
      vertex -2.35114 -3.23607 -5
      vertex -1.5 -1.86602 -5
    endloop
  endfacet
  facet normal -0 0 -1
    outer loop
      vertex -1.5 -1.86602 -5
      vertex -2.35114 -3.23607 -5
      vertex -1.80902 -1.58778 -5
    endloop
  endfacet
  facet normal 0 0 -1
    outer loop
      vertex -3.5 4 -5
      vertex -1.97815 5.20791 -5
      vertex -1.97815 -1.20791 -5
    endloop
  endfacet
  facet normal 0 0 -1
    outer loop
      vertex -3.23607 -2.35114 -5
      vertex -1.80902 -1.58778 -5
      vertex -2.35114 -3.23607 -5
    endloop
  endfacet
  facet normal -0 0 -1
    outer loop
      vertex -1.80902 -1.58778 -5
      vertex -3.23607 -2.35114 -5
      vertex -1.97815 -1.20791 -5
    endloop
  endfacet
  facet normal 0 -0 -1
    outer loop
      vertex -3.3287 5.08156 -5
      vertex -1.97815 5.20791 -5
      vertex -3.5 4 -5
    endloop
  endfacet
  facet normal 0 0 -1
    outer loop
      vertex -3.80423 -1.23607 -5
      vertex -1.97815 -1.20791 -5
      vertex -3.23607 -2.35114 -5
    endloop
  endfacet
  facet normal 0 0 -1
    outer loop
      vertex -1.97815 5.20791 -5
      vertex -2.83156 6.05725 -5
      vertex -2.05725 6.83156 -5
    endloop
  endfacet
  facet normal -0 0 -1
    outer loop
      vertex -1.97815 5.20791 -5
      vertex -3.3287 5.08156 -5
      vertex -2.83156 6.05725 -5
    endloop
  endfacet
  facet normal -0 0 -1
    outer loop
      vertex -1.97815 -1.20791 -5
      vertex -3.80423 -1.23607 -5
      vertex -4 0 -5
    endloop
  endfacet
  facet normal 0 0 -1
    outer loop
      vertex -1.97815 -1.20791 -5
      vertex -4 0 -5
      vertex -3.5 4 -5
    endloop
  endfacet
  facet normal 0 0 -1
    outer loop
      vertex 1.91354 5.40674 -5
      vertex 2.83156 6.05725 -5
      vertex 2 5 -5
    endloop
  endfacet
  facet normal 0 0 -1
    outer loop
      vertex 1.66913 5.74314 -5
      vertex 2.83156 6.05725 -5
      vertex 1.91354 5.40674 -5
    endloop
  endfacet
  facet normal -0 0 -1
    outer loop
      vertex 2.83156 6.05725 -5
      vertex 1.66913 5.74314 -5
      vertex 2.05725 6.83156 -5
    endloop
  endfacet
  facet normal 0 0 -1
    outer loop
      vertex 1.38142 5.90926 -5
      vertex 2.05725 6.83156 -5
      vertex 1.66913 5.74314 -5
    endloop
  endfacet
  facet normal -0 0 -1
    outer loop
      vertex 2.05725 6.83156 -5
      vertex 1.38142 5.90926 -5
      vertex 1.94349 6.88952 -5
    endloop
  endfacet
  facet normal 0 0 -1
    outer loop
      vertex -1.5 5.86602 -5
      vertex -1.94215 6.8902 -5
      vertex -1.37811 5.90563 -5
    endloop
  endfacet
  facet normal 0 0 -1
    outer loop
      vertex -2.05725 6.83156 -5
      vertex -1.5 5.86602 -5
      vertex -1.80902 5.58778 -5
    endloop
  endfacet
  facet normal 0 0 -1
    outer loop
      vertex -2.05725 6.83156 -5
      vertex -1.80902 5.58778 -5
      vertex -1.97815 5.20791 -5
    endloop
  endfacet
  facet normal 0 0 -1
    outer loop
      vertex -1.5 5.86602 -5
      vertex -2.05725 6.83156 -5
      vertex -1.94215 6.8902 -5
    endloop
  endfacet
  facet normal -0.45399 -0.891007 0
    outer loop
      vertex -2.35114 -3.23607 -5
      vertex -1.23607 -3.80423 5
      vertex -2.35114 -3.23607 5
    endloop
  endfacet
  facet normal -0.45399 -0.891007 -0
    outer loop
      vertex -1.23607 -3.80423 5
      vertex -2.35114 -3.23607 -5
      vertex -1.23607 -3.80423 -5
    endloop
  endfacet
  facet normal -0.891007 -0.45399 0
    outer loop
      vertex -3.23607 -2.35114 -5
      vertex -3.80423 -1.23607 5
      vertex -3.80423 -1.23607 -5
    endloop
  endfacet
  facet normal -0.891007 -0.45399 0
    outer loop
      vertex -3.80423 -1.23607 5
      vertex -3.23607 -2.35114 -5
      vertex -3.23607 -2.35114 5
    endloop
  endfacet
  facet normal 0 0 1
    outer loop
      vertex -1.94215 6.8902 5
      vertex -1.5 5.86602 5
      vertex -1.37811 5.90563 5
    endloop
  endfacet
  facet normal -0 0 1
    outer loop
      vertex -2.05725 6.83156 5
      vertex -1.5 5.86602 5
      vertex -1.94215 6.8902 5
    endloop
  endfacet
  facet normal 0 0 1
    outer loop
      vertex -1.5 5.86602 5
      vertex -2.05725 6.83156 5
      vertex -1.80902 5.58778 5
    endloop
  endfacet
  facet normal 0 0 1
    outer loop
      vertex -1.80902 5.58778 5
      vertex -2.83156 6.05725 5
      vertex -1.97815 5.20791 5
    endloop
  endfacet
  facet normal -0 0 1
    outer loop
      vertex -2.83156 6.05725 5
      vertex -1.80902 5.58778 5
      vertex -2.05725 6.83156 5
    endloop
  endfacet
  facet normal 0 0 1
    outer loop
      vertex 1.38142 5.90926 5
      vertex 2.05725 6.83156 5
      vertex 1.94349 6.88952 5
    endloop
  endfacet
  facet normal 0 0 1
    outer loop
      vertex 2.05725 6.83156 5
      vertex 1.91354 5.40674 5
      vertex 2 5 5
    endloop
  endfacet
  facet normal 0 0 1
    outer loop
      vertex 2.05725 6.83156 5
      vertex 1.66913 5.74314 5
      vertex 1.91354 5.40674 5
    endloop
  endfacet
  facet normal 0 0 1
    outer loop
      vertex 2.05725 6.83156 5
      vertex 1.38142 5.90926 5
      vertex 1.66913 5.74314 5
    endloop
  endfacet
  facet normal 0 0 1
    outer loop
      vertex 2 -1 5
      vertex 4 0 5
      vertex 3.5 4 5
    endloop
  endfacet
  facet normal -0 0 1
    outer loop
      vertex 2 5 5
      vertex 3.5 4 5
      vertex 3.3287 5.08156 5
    endloop
  endfacet
  facet normal 0 0 1
    outer loop
      vertex 4 0 5
      vertex 2 -1 5
      vertex 3.80423 -1.23607 5
    endloop
  endfacet
  facet normal 0 0 1
    outer loop
      vertex 2 5 5
      vertex 3.3287 5.08156 5
      vertex 2.83156 6.05725 5
    endloop
  endfacet
  facet normal 0 0 1
    outer loop
      vertex 3.5 4 5
      vertex 2 5 5
      vertex 2 -1 5
    endloop
  endfacet
  facet normal 0 0 1
    outer loop
      vertex 2 5 5
      vertex 2.83156 6.05725 5
      vertex 2.05725 6.83156 5
    endloop
  endfacet
  facet normal 0 0 1
    outer loop
      vertex 1.91354 -1.40674 5
      vertex 3.80423 -1.23607 5
      vertex 2 -1 5
    endloop
  endfacet
  facet normal 0 0 1
    outer loop
      vertex 3.80423 -1.23607 5
      vertex 1.91354 -1.40674 5
      vertex 3.23607 -2.35114 5
    endloop
  endfacet
  facet normal -0 0 1
    outer loop
      vertex 1.66913 -1.74314 5
      vertex 3.23607 -2.35114 5
      vertex 1.91354 -1.40674 5
    endloop
  endfacet
  facet normal 0 0 1
    outer loop
      vertex 3.23607 -2.35114 5
      vertex 1.66913 -1.74314 5
      vertex 2.35114 -3.23607 5
    endloop
  endfacet
  facet normal -0 0 1
    outer loop
      vertex 1.30902 -1.95106 5
      vertex 2.35114 -3.23607 5
      vertex 1.66913 -1.74314 5
    endloop
  endfacet
  facet normal 0 0 1
    outer loop
      vertex 1.30902 -1.95106 5
      vertex 1.23607 -3.80423 5
      vertex 2.35114 -3.23607 5
    endloop
  endfacet
  facet normal -0 0 1
    outer loop
      vertex 0.895471 -1.99452 5
      vertex 1.23607 -3.80423 5
      vertex 1.30902 -1.95106 5
    endloop
  endfacet
  facet normal 0 0 1
    outer loop
      vertex 0.895471 -1.99452 5
      vertex 0 -4 5
      vertex 1.23607 -3.80423 5
    endloop
  endfacet
  facet normal -0 0 1
    outer loop
      vertex -1.10453 -1.99452 5
      vertex 0 -4 5
      vertex 0.895471 -1.99452 5
    endloop
  endfacet
  facet normal 0 0 1
    outer loop
      vertex -1.10453 -1.99452 5
      vertex -1.23607 -3.80423 5
      vertex 0 -4 5
    endloop
  endfacet
  facet normal 0 0 1
    outer loop
      vertex -2.35114 -3.23607 5
      vertex -1.10453 -1.99452 5
      vertex -1.5 -1.86602 5
    endloop
  endfacet
  facet normal 0 0 1
    outer loop
      vertex -2.35114 -3.23607 5
      vertex -1.5 -1.86602 5
      vertex -1.80902 -1.58778 5
    endloop
  endfacet
  facet normal 0 0 1
    outer loop
      vertex -3.23607 -2.35114 5
      vertex -1.80902 -1.58778 5
      vertex -1.97815 -1.20791 5
    endloop
  endfacet
  facet normal 0 0 1
    outer loop
      vertex -1.10453 -1.99452 5
      vertex -2.35114 -3.23607 5
      vertex -1.23607 -3.80423 5
    endloop
  endfacet
  facet normal 0 0 1
    outer loop
      vertex -1.97815 5.20791 5
      vertex -3.5 4 5
      vertex -1.97815 -1.20791 5
    endloop
  endfacet
  facet normal 0 0 1
    outer loop
      vertex -3.3287 5.08156 5
      vertex -1.97815 5.20791 5
      vertex -2.83156 6.05725 5
    endloop
  endfacet
  facet normal -0 0 1
    outer loop
      vertex -4 0 5
      vertex -1.97815 -1.20791 5
      vertex -3.5 4 5
    endloop
  endfacet
  facet normal 0 0 1
    outer loop
      vertex -1.97815 5.20791 5
      vertex -3.3287 5.08156 5
      vertex -3.5 4 5
    endloop
  endfacet
  facet normal 0 -0 1
    outer loop
      vertex -3.80423 -1.23607 5
      vertex -1.97815 -1.20791 5
      vertex -4 0 5
    endloop
  endfacet
  facet normal 0 0 1
    outer loop
      vertex -1.80902 -1.58778 5
      vertex -3.23607 -2.35114 5
      vertex -2.35114 -3.23607 5
    endloop
  endfacet
  facet normal 0 0 1
    outer loop
      vertex -1.97815 -1.20791 5
      vertex -3.80423 -1.23607 5
      vertex -3.23607 -2.35114 5
    endloop
  endfacet
  facet normal 0.891007 0.45399 0
    outer loop
      vertex 3.3287 5.08156 5
      vertex 2.83156 6.05725 -5
      vertex 2.83156 6.05725 5
    endloop
  endfacet
  facet normal 0.891007 0.45399 0
    outer loop
      vertex 2.83156 6.05725 -5
      vertex 3.3287 5.08156 5
      vertex 3.3287 5.08156 -5
    endloop
  endfacet
  facet normal -0.891007 0.45399 0
    outer loop
      vertex -3.3287 5.08156 -5
      vertex -2.83156 6.05725 5
      vertex -2.83156 6.05725 -5
    endloop
  endfacet
  facet normal -0.891007 0.45399 0
    outer loop
      vertex -2.83156 6.05725 5
      vertex -3.3287 5.08156 -5
      vertex -3.3287 5.08156 5
    endloop
  endfacet
  facet normal -0.707107 0.707107 0
    outer loop
      vertex -2.83156 6.05725 -5
      vertex -2.05725 6.83156 5
      vertex -2.05725 6.83156 -5
    endloop
  endfacet
  facet normal -0.707107 0.707107 0
    outer loop
      vertex -2.05725 6.83156 5
      vertex -2.83156 6.05725 -5
      vertex -2.83156 6.05725 5
    endloop
  endfacet
  facet normal 0.707107 -0.707107 0
    outer loop
      vertex 2.35114 -3.23607 5
      vertex 3.23607 -2.35114 -5
      vertex 3.23607 -2.35114 5
    endloop
  endfacet
  facet normal 0.707107 -0.707107 0
    outer loop
      vertex 3.23607 -2.35114 -5
      vertex 2.35114 -3.23607 5
      vertex 2.35114 -3.23607 -5
    endloop
  endfacet
  facet normal 0.987688 0.156435 0
    outer loop
      vertex 3.5 4 5
      vertex 3.3287 5.08156 -5
      vertex 3.3287 5.08156 5
    endloop
  endfacet
  facet normal 0.987688 0.156435 0
    outer loop
      vertex 3.3287 5.08156 -5
      vertex 3.5 4 5
      vertex 3.5 4 -5
    endloop
  endfacet
  facet normal 0.891007 -0.45399 0
    outer loop
      vertex 3.23607 -2.35114 5
      vertex 3.80423 -1.23607 -5
      vertex 3.80423 -1.23607 5
    endloop
  endfacet
  facet normal 0.891007 -0.45399 0
    outer loop
      vertex 3.80423 -1.23607 -5
      vertex 3.23607 -2.35114 5
      vertex 3.23607 -2.35114 -5
    endloop
  endfacet
  facet normal -0.992278 0.124035 0
    outer loop
      vertex -4 0 -5
      vertex -3.5 4 5
      vertex -3.5 4 -5
    endloop
  endfacet
  facet normal -0.992278 0.124035 0
    outer loop
      vertex -3.5 4 5
      vertex -4 0 -5
      vertex -4 0 5
    endloop
  endfacet
  facet normal -0.987688 0.156435 0
    outer loop
      vertex -3.5 4 -5
      vertex -3.3287 5.08156 5
      vertex -3.3287 5.08156 -5
    endloop
  endfacet
  facet normal -0.987688 0.156435 0
    outer loop
      vertex -3.3287 5.08156 5
      vertex -3.5 4 -5
      vertex -3.5 4 5
    endloop
  endfacet
  facet normal -0.987688 -0.156435 0
    outer loop
      vertex -3.80423 -1.23607 -5
      vertex -4 0 5
      vertex -4 0 -5
    endloop
  endfacet
  facet normal -0.987688 -0.156435 0
    outer loop
      vertex -4 0 5
      vertex -3.80423 -1.23607 -5
      vertex -3.80423 -1.23607 5
    endloop
  endfacet
  facet normal 0.707107 0.707107 0
    outer loop
      vertex 2.83156 6.05725 5
      vertex 2.05725 6.83156 -5
      vertex 2.05725 6.83156 5
    endloop
  endfacet
  facet normal 0.707107 0.707107 0
    outer loop
      vertex 2.05725 6.83156 -5
      vertex 2.83156 6.05725 5
      vertex 2.83156 6.05725 -5
    endloop
  endfacet
  facet normal -0.453989 0.891007 0
    outer loop
      vertex -1.94215 6.8902 -5
      vertex -2.05725 6.83156 5
      vertex -1.94215 6.8902 5
    endloop
  endfacet
  facet normal -0.453989 0.891007 0
    outer loop
      vertex -2.05725 6.83156 5
      vertex -1.94215 6.8902 -5
      vertex -2.05725 6.83156 -5
    endloop
  endfacet
  facet normal 0.156435 -0.987688 0
    outer loop
      vertex 0 -4 -5
      vertex 1.23607 -3.80423 5
      vertex 0 -4 5
    endloop
  endfacet
  facet normal 0.156435 -0.987688 0
    outer loop
      vertex 1.23607 -3.80423 5
      vertex 0 -4 -5
      vertex 1.23607 -3.80423 -5
    endloop
  endfacet
  facet normal 0.453992 0.891006 -0
    outer loop
      vertex 2.05725 6.83156 -5
      vertex 1.94349 6.88952 5
      vertex 2.05725 6.83156 5
    endloop
  endfacet
  facet normal 0.453992 0.891006 0
    outer loop
      vertex 1.94349 6.88952 5
      vertex 2.05725 6.83156 -5
      vertex 1.94349 6.88952 -5
    endloop
  endfacet
  facet normal -0.707107 -0.707107 0
    outer loop
      vertex -2.35114 -3.23607 -5
      vertex -3.23607 -2.35114 5
      vertex -3.23607 -2.35114 -5
    endloop
  endfacet
  facet normal -0.707107 -0.707107 0
    outer loop
      vertex -3.23607 -2.35114 5
      vertex -2.35114 -3.23607 -5
      vertex -2.35114 -3.23607 5
    endloop
  endfacet
  facet normal -0.156435 -0.987688 0
    outer loop
      vertex -1.23607 -3.80423 -5
      vertex 0 -4 5
      vertex -1.23607 -3.80423 5
    endloop
  endfacet
  facet normal -0.156435 -0.987688 -0
    outer loop
      vertex 0 -4 5
      vertex -1.23607 -3.80423 -5
      vertex 0 -4 -5
    endloop
  endfacet
  facet normal 0.45399 -0.891007 0
    outer loop
      vertex 1.23607 -3.80423 -5
      vertex 2.35114 -3.23607 5
      vertex 1.23607 -3.80423 5
    endloop
  endfacet
  facet normal 0.45399 -0.891007 0
    outer loop
      vertex 2.35114 -3.23607 5
      vertex 1.23607 -3.80423 -5
      vertex 2.35114 -3.23607 -5
    endloop
  endfacet
  facet normal 0.987688 -0.156435 0
    outer loop
      vertex 3.80423 -1.23607 5
      vertex 4 0 -5
      vertex 4 0 5
    endloop
  endfacet
  facet normal 0.987688 -0.156435 0
    outer loop
      vertex 4 0 -5
      vertex 3.80423 -1.23607 5
      vertex 3.80423 -1.23607 -5
    endloop
  endfacet
  facet normal 0.992278 0.124035 0
    outer loop
      vertex 4 0 5
      vertex 3.5 4 -5
      vertex 3.5 4 5
    endloop
  endfacet
  facet normal 0.992278 0.124035 0
    outer loop
      vertex 3.5 4 -5
      vertex 4 0 5
      vertex 4 0 -5
    endloop
  endfacet
  facet normal 1 -0 0
    outer loop
      vertex -1.97815 -1.20791 5
      vertex -1.97815 5.20791 -5
      vertex -1.97815 5.20791 5
    endloop
  endfacet
  facet normal 1 0 0
    outer loop
      vertex -1.97815 5.20791 -5
      vertex -1.97815 -1.20791 5
      vertex -1.97815 -1.20791 -5
    endloop
  endfacet
  facet normal -0.978147 -0.207914 0
    outer loop
      vertex 2 5 -5
      vertex 1.91354 5.40674 5
      vertex 1.91354 5.40674 -5
    endloop
  endfacet
  facet normal -0.978147 -0.207914 0
    outer loop
      vertex 1.91354 5.40674 5
      vertex 2 5 -5
      vertex 2 5 5
    endloop
  endfacet
  facet normal -0.809017 -0.587785 0
    outer loop
      vertex 1.91354 5.40674 -5
      vertex 1.66913 5.74314 5
      vertex 1.66913 5.74314 -5
    endloop
  endfacet
  facet normal -0.809017 -0.587785 0
    outer loop
      vertex 1.66913 5.74314 5
      vertex 1.91354 5.40674 -5
      vertex 1.91354 5.40674 5
    endloop
  endfacet
  facet normal -1 0 0
    outer loop
      vertex 2 -1 -5
      vertex 2 5 5
      vertex 2 5 -5
    endloop
  endfacet
  facet normal -1 -0 0
    outer loop
      vertex 2 5 5
      vertex 2 -1 -5
      vertex 2 -1 5
    endloop
  endfacet
  facet normal 0 1 -0
    outer loop
      vertex 0.895471 -1.99452 -5
      vertex -1.10453 -1.99452 5
      vertex 0.895471 -1.99452 5
    endloop
  endfacet
  facet normal 0 1 0
    outer loop
      vertex -1.10453 -1.99452 5
      vertex 0.895471 -1.99452 -5
      vertex -1.10453 -1.99452 -5
    endloop
  endfacet
  facet normal 0.913545 -0.406738 0
    outer loop
      vertex -1.97815 5.20791 5
      vertex -1.80902 5.58778 -5
      vertex -1.80902 5.58778 5
    endloop
  endfacet
  facet normal 0.913545 -0.406738 0
    outer loop
      vertex -1.80902 5.58778 -5
      vertex -1.97815 5.20791 5
      vertex -1.97815 5.20791 -5
    endloop
  endfacet
  facet normal -0.978147 0.207914 0
    outer loop
      vertex 1.91354 -1.40674 -5
      vertex 2 -1 5
      vertex 2 -1 -5
    endloop
  endfacet
  facet normal -0.978147 0.207914 0
    outer loop
      vertex 2 -1 5
      vertex 1.91354 -1.40674 -5
      vertex 1.91354 -1.40674 5
    endloop
  endfacet
  facet normal 0.669132 0.743144 -0
    outer loop
      vertex -1.5 -1.86602 -5
      vertex -1.80902 -1.58778 5
      vertex -1.5 -1.86602 5
    endloop
  endfacet
  facet normal 0.669132 0.743144 0
    outer loop
      vertex -1.80902 -1.58778 5
      vertex -1.5 -1.86602 -5
      vertex -1.80902 -1.58778 -5
    endloop
  endfacet
  facet normal 0.913545 0.406738 0
    outer loop
      vertex -1.80902 -1.58778 5
      vertex -1.97815 -1.20791 -5
      vertex -1.97815 -1.20791 5
    endloop
  endfacet
  facet normal 0.913545 0.406738 0
    outer loop
      vertex -1.97815 -1.20791 -5
      vertex -1.80902 -1.58778 5
      vertex -1.80902 -1.58778 -5
    endloop
  endfacet
  facet normal 0.309016 0.951057 -0
    outer loop
      vertex -1.10453 -1.99452 -5
      vertex -1.5 -1.86602 5
      vertex -1.10453 -1.99452 5
    endloop
  endfacet
  facet normal 0.309016 0.951057 0
    outer loop
      vertex -1.5 -1.86602 5
      vertex -1.10453 -1.99452 -5
      vertex -1.5 -1.86602 -5
    endloop
  endfacet
  facet normal -0.809017 0.587785 0
    outer loop
      vertex 1.66913 -1.74314 -5
      vertex 1.91354 -1.40674 5
      vertex 1.91354 -1.40674 -5
    endloop
  endfacet
  facet normal -0.809017 0.587785 0
    outer loop
      vertex 1.91354 -1.40674 5
      vertex 1.66913 -1.74314 -5
      vertex 1.66913 -1.74314 5
    endloop
  endfacet
  facet normal 0.309017 -0.951057 0
    outer loop
      vertex -1.5 5.86602 -5
      vertex -1.37811 5.90563 5
      vertex -1.5 5.86602 5
    endloop
  endfacet
  facet normal 0.309017 -0.951057 0
    outer loop
      vertex -1.37811 5.90563 5
      vertex -1.5 5.86602 -5
      vertex -1.37811 5.90563 -5
    endloop
  endfacet
  facet normal 0.66913 -0.743145 0
    outer loop
      vertex -1.80902 5.58778 -5
      vertex -1.5 5.86602 5
      vertex -1.80902 5.58778 5
    endloop
  endfacet
  facet normal 0.66913 -0.743145 0
    outer loop
      vertex -1.5 5.86602 5
      vertex -1.80902 5.58778 -5
      vertex -1.5 5.86602 -5
    endloop
  endfacet
  facet normal -0.500001 -0.866025 0
    outer loop
      vertex 1.38142 5.90926 -5
      vertex 1.66913 5.74314 5
      vertex 1.38142 5.90926 5
    endloop
  endfacet
  facet normal -0.500001 -0.866025 -0
    outer loop
      vertex 1.66913 5.74314 5
      vertex 1.38142 5.90926 -5
      vertex 1.66913 5.74314 -5
    endloop
  endfacet
  facet normal -0.104527 0.994522 0
    outer loop
      vertex 1.30902 -1.95106 -5
      vertex 0.895471 -1.99452 5
      vertex 1.30902 -1.95106 5
    endloop
  endfacet
  facet normal -0.104527 0.994522 0
    outer loop
      vertex 0.895471 -1.99452 5
      vertex 1.30902 -1.95106 -5
      vertex 0.895471 -1.99452 -5
    endloop
  endfacet
  facet normal -0.500001 0.866025 0
    outer loop
      vertex 1.66913 -1.74314 -5
      vertex 1.30902 -1.95106 5
      vertex 1.66913 -1.74314 5
    endloop
  endfacet
  facet normal -0.500001 0.866025 0
    outer loop
      vertex 1.30902 -1.95106 5
      vertex 1.66913 -1.74314 -5
      vertex 1.30902 -1.95106 -5
    endloop
  endfacet
  facet normal -0.867513 0.497415 0
    outer loop
      vertex 1.38142 5.90926 -5
      vertex 1.94349 6.88952 5
      vertex 1.94349 6.88952 -5
    endloop
  endfacet
  facet normal -0.867513 0.497415 0
    outer loop
      vertex 1.94349 6.88952 5
      vertex 1.38142 5.90926 -5
      vertex 1.38142 5.90926 5
    endloop
  endfacet
  facet normal 0.867703 0.497082 0
    outer loop
      vertex -1.37811 5.90563 5
      vertex -1.94215 6.8902 -5
      vertex -1.94215 6.8902 5
    endloop
  endfacet
  facet normal 0.867703 0.497082 0
    outer loop
      vertex -1.94215 6.8902 -5
      vertex -1.37811 5.90563 5
      vertex -1.37811 5.90563 -5
    endloop
  endfacet
endsolid OpenSCAD_Model
