solid OpenSCAD_Model
  facet normal -0.951056 -6.86156e-17 -0.309017
    outer loop
      vertex 3.1 0.713292 -1.58383e-16
      vertex 2.50795 3.5 1.82213
      vertex 3.1 3.5 -7.77156e-16
    endloop
  endfacet
  facet normal -0.951056 -0 -0.309017
    outer loop
      vertex 2.50795 3.5 1.82213
      vertex 3.1 0.713292 -1.58383e-16
      vertex 2.50795 0.713292 1.82213
    endloop
  endfacet
  facet normal -0.951056 -6.86156e-17 -0.309017
    outer loop
      vertex 3.1 -12 2.66454e-15
      vertex 2.50795 -0.713292 1.82213
      vertex 3.1 -0.713292 1.58383e-16
    endloop
  endfacet
  facet normal -0.951056 -0 -0.309017
    outer loop
      vertex 2.50795 -0.713292 1.82213
      vertex 3.1 -12 2.66454e-15
      vertex 2.50795 -12 1.82213
    endloop
  endfacet
  facet normal 0.951056 0 -0.309017
    outer loop
      vertex -2.50795 0.713292 1.82213
      vertex -3.1 3.5 -7.77156e-16
      vertex -2.50795 3.5 1.82213
    endloop
  endfacet
  facet normal 0.951056 -6.86156e-17 -0.309017
    outer loop
      vertex -3.1 3.5 -7.77156e-16
      vertex -2.50795 0.713292 1.82213
      vertex -3.1 0.713292 -1.58383e-16
    endloop
  endfacet
  facet normal 0.951056 0 -0.309017
    outer loop
      vertex -2.50795 -12 1.82213
      vertex -3.1 -0.713292 1.58383e-16
      vertex -2.50795 -0.713292 1.82213
    endloop
  endfacet
  facet normal 0.951056 -6.86156e-17 -0.309017
    outer loop
      vertex -3.1 -0.713292 1.58383e-16
      vertex -2.50795 -12 1.82213
      vertex -3.1 -12 2.66454e-15
    endloop
  endfacet
  facet normal -0 0 1
    outer loop
      vertex -0.957952 3.5 -2.94827
      vertex 0.957952 0.713292 -2.94827
      vertex 0.957952 3.5 -2.94827
    endloop
  endfacet
  facet normal 0 0 1
    outer loop
      vertex 0.957952 0.713292 -2.94827
      vertex -0.957952 3.5 -2.94827
      vertex -0.957952 0.713292 -2.94827
    endloop
  endfacet
  facet normal -0 0 1
    outer loop
      vertex -0.957952 -0.713292 -2.94827
      vertex 0.957952 -12 -2.94827
      vertex 0.957952 -0.713292 -2.94827
    endloop
  endfacet
  facet normal 0 0 1
    outer loop
      vertex 0.957952 -12 -2.94827
      vertex -0.957952 -0.713292 -2.94827
      vertex -0.957952 -12 -2.94827
    endloop
  endfacet
  facet normal 0 0 -1
    outer loop
      vertex -0.957952 0.713292 2.94827
      vertex 0.957952 3.5 2.94827
      vertex 0.957952 0.713292 2.94827
    endloop
  endfacet
  facet normal -0 0 -1
    outer loop
      vertex 0.957952 3.5 2.94827
      vertex -0.957952 0.713292 2.94827
      vertex -0.957952 3.5 2.94827
    endloop
  endfacet
  facet normal 0 0 -1
    outer loop
      vertex -0.957952 -12 2.94827
      vertex 0.957952 -0.713292 2.94827
      vertex 0.957952 -12 2.94827
    endloop
  endfacet
  facet normal -0 0 -1
    outer loop
      vertex 0.957952 -0.713292 2.94827
      vertex -0.957952 -12 2.94827
      vertex -0.957952 -0.713292 2.94827
    endloop
  endfacet
  facet normal -0.587785 0 -0.809017
    outer loop
      vertex 0.957952 0.713292 2.94827
      vertex 2.50795 3.5 1.82213
      vertex 2.50795 0.713292 1.82213
    endloop
  endfacet
  facet normal -0.587785 0 -0.809017
    outer loop
      vertex 2.50795 3.5 1.82213
      vertex 0.957952 0.713292 2.94827
      vertex 0.957952 3.5 2.94827
    endloop
  endfacet
  facet normal -0.587785 0 -0.809017
    outer loop
      vertex 0.957952 -12 2.94827
      vertex 2.50795 -0.713292 1.82213
      vertex 2.50795 -12 1.82213
    endloop
  endfacet
  facet normal -0.587785 0 -0.809017
    outer loop
      vertex 2.50795 -0.713292 1.82213
      vertex 0.957952 -12 2.94827
      vertex 0.957952 -0.713292 2.94827
    endloop
  endfacet
  facet normal 0.587785 0 -0.809017
    outer loop
      vertex -2.50795 0.713292 1.82213
      vertex -0.957952 3.5 2.94827
      vertex -0.957952 0.713292 2.94827
    endloop
  endfacet
  facet normal 0.587785 0 -0.809017
    outer loop
      vertex -0.957952 3.5 2.94827
      vertex -2.50795 0.713292 1.82213
      vertex -2.50795 3.5 1.82213
    endloop
  endfacet
  facet normal 0.587785 0 -0.809017
    outer loop
      vertex -2.50795 -12 1.82213
      vertex -0.957952 -0.713292 2.94827
      vertex -0.957952 -12 2.94827
    endloop
  endfacet
  facet normal 0.587785 0 -0.809017
    outer loop
      vertex -0.957952 -0.713292 2.94827
      vertex -2.50795 -12 1.82213
      vertex -2.50795 -0.713292 1.82213
    endloop
  endfacet
  facet normal -0.951056 0 0.309017
    outer loop
      vertex 2.50795 0.713292 -1.82213
      vertex 3.1 3.5 -7.77156e-16
      vertex 2.50795 3.5 -1.82213
    endloop
  endfacet
  facet normal -0.951056 6.86156e-17 0.309017
    outer loop
      vertex 3.1 3.5 -7.77156e-16
      vertex 2.50795 0.713292 -1.82213
      vertex 3.1 0.713292 -1.58383e-16
    endloop
  endfacet
  facet normal -0.951056 0 0.309017
    outer loop
      vertex 2.50795 -12 -1.82213
      vertex 3.1 -0.713292 1.58383e-16
      vertex 2.50795 -0.713292 -1.82213
    endloop
  endfacet
  facet normal -0.951056 6.86156e-17 0.309017
    outer loop
      vertex 3.1 -0.713292 1.58383e-16
      vertex 2.50795 -12 -1.82213
      vertex 3.1 -12 2.66454e-15
    endloop
  endfacet
  facet normal 0.951056 6.86156e-17 0.309017
    outer loop
      vertex -3.1 0.713292 -1.58383e-16
      vertex -2.50795 3.5 -1.82213
      vertex -3.1 3.5 -7.77156e-16
    endloop
  endfacet
  facet normal 0.951056 0 0.309017
    outer loop
      vertex -2.50795 3.5 -1.82213
      vertex -3.1 0.713292 -1.58383e-16
      vertex -2.50795 0.713292 -1.82213
    endloop
  endfacet
  facet normal 0.951056 6.86156e-17 0.309017
    outer loop
      vertex -3.1 -12 2.66454e-15
      vertex -2.50795 -0.713292 -1.82213
      vertex -3.1 -0.713292 1.58383e-16
    endloop
  endfacet
  facet normal 0.951056 0 0.309017
    outer loop
      vertex -2.50795 -0.713292 -1.82213
      vertex -3.1 -12 2.66454e-15
      vertex -2.50795 -12 -1.82213
    endloop
  endfacet
  facet normal 0 1 -0
    outer loop
      vertex 0.957952 3.5 2.94827
      vertex 0.955065 3.5 5.41644
      vertex 2.75 3.5 4.76314
    endloop
  endfacet
  facet normal 0 1 0
    outer loop
      vertex 0.955065 3.5 5.41644
      vertex 0.957952 3.5 2.94827
      vertex -0.955065 3.5 5.41644
    endloop
  endfacet
  facet normal 0 1 0
    outer loop
      vertex 2.50795 3.5 1.82213
      vertex 2.75 3.5 4.76314
      vertex 4.21324 3.5 3.53533
    endloop
  endfacet
  facet normal 0 1 0
    outer loop
      vertex -0.957952 3.5 2.94827
      vertex -0.955065 3.5 5.41644
      vertex 0.957952 3.5 2.94827
    endloop
  endfacet
  facet normal 0 1 0
    outer loop
      vertex -0.955065 3.5 5.41644
      vertex -0.957952 3.5 2.94827
      vertex -2.75 3.5 4.76314
    endloop
  endfacet
  facet normal 0 1 0
    outer loop
      vertex 2.50795 3.5 1.82213
      vertex 4.21324 3.5 3.53533
      vertex 5.16831 3.5 1.88111
    endloop
  endfacet
  facet normal 0 1 0
    outer loop
      vertex 2.75 3.5 4.76314
      vertex 2.50795 3.5 1.82213
      vertex 0.957952 3.5 2.94827
    endloop
  endfacet
  facet normal 0 1 0
    outer loop
      vertex 3.1 3.5 -7.77156e-16
      vertex 5.16831 3.5 1.88111
      vertex 5.5 3.5 -7.77156e-16
    endloop
  endfacet
  facet normal 0 1 0
    outer loop
      vertex 5.16831 3.5 1.88111
      vertex 3.1 3.5 -7.77156e-16
      vertex 2.50795 3.5 1.82213
    endloop
  endfacet
  facet normal 0 1 -0
    outer loop
      vertex 5.16831 3.5 -1.88111
      vertex 3.1 3.5 -7.77156e-16
      vertex 5.5 3.5 -7.77156e-16
    endloop
  endfacet
  facet normal 0 1 0
    outer loop
      vertex 3.1 3.5 -7.77156e-16
      vertex 5.16831 3.5 -1.88111
      vertex 2.50795 3.5 -1.82213
    endloop
  endfacet
  facet normal 0 1 -0
    outer loop
      vertex 4.21324 3.5 -3.53533
      vertex 2.50795 3.5 -1.82213
      vertex 5.16831 3.5 -1.88111
    endloop
  endfacet
  facet normal 0 1 0
    outer loop
      vertex 2.50795 3.5 -1.82213
      vertex 2.75 3.5 -4.76314
      vertex 0.957952 3.5 -2.94827
    endloop
  endfacet
  facet normal 0 1 -0
    outer loop
      vertex 2.75 3.5 -4.76314
      vertex 2.50795 3.5 -1.82213
      vertex 4.21324 3.5 -3.53533
    endloop
  endfacet
  facet normal 0 1 -0
    outer loop
      vertex -2.50795 3.5 1.82213
      vertex -2.75 3.5 4.76314
      vertex -0.957952 3.5 2.94827
    endloop
  endfacet
  facet normal 0 1 0
    outer loop
      vertex -2.75 3.5 4.76314
      vertex -2.50795 3.5 1.82213
      vertex -4.21324 3.5 3.53533
    endloop
  endfacet
  facet normal 0 1 0
    outer loop
      vertex -4.21324 3.5 3.53533
      vertex -2.50795 3.5 1.82213
      vertex -5.16831 3.5 1.88111
    endloop
  endfacet
  facet normal 0 1 -0
    outer loop
      vertex -3.1 3.5 -7.77156e-16
      vertex -5.16831 3.5 1.88111
      vertex -2.50795 3.5 1.82213
    endloop
  endfacet
  facet normal 0 1 0
    outer loop
      vertex -3.1 3.5 -7.77156e-16
      vertex -5.5 3.5 -7.77156e-16
      vertex -5.16831 3.5 1.88111
    endloop
  endfacet
  facet normal 0 1 0
    outer loop
      vertex -5.16831 3.5 -1.88111
      vertex -3.1 3.5 -7.77156e-16
      vertex -2.50795 3.5 -1.82213
    endloop
  endfacet
  facet normal 0 1 0
    outer loop
      vertex -3.1 3.5 -7.77156e-16
      vertex -5.16831 3.5 -1.88111
      vertex -5.5 3.5 -7.77156e-16
    endloop
  endfacet
  facet normal 0 1 0
    outer loop
      vertex -2.75 3.5 -4.76314
      vertex -2.50795 3.5 -1.82213
      vertex -0.957952 3.5 -2.94827
    endloop
  endfacet
  facet normal 0 1 0
    outer loop
      vertex -2.50795 3.5 -1.82213
      vertex -4.21324 3.5 -3.53533
      vertex -5.16831 3.5 -1.88111
    endloop
  endfacet
  facet normal 0 1 0
    outer loop
      vertex 0.955065 3.5 -5.41644
      vertex 0.957952 3.5 -2.94827
      vertex 2.75 3.5 -4.76314
    endloop
  endfacet
  facet normal 0 1 0
    outer loop
      vertex 0.957952 3.5 -2.94827
      vertex 0.955065 3.5 -5.41644
      vertex -0.957952 3.5 -2.94827
    endloop
  endfacet
  facet normal 0 1 0
    outer loop
      vertex -2.50795 3.5 -1.82213
      vertex -2.75 3.5 -4.76314
      vertex -4.21324 3.5 -3.53533
    endloop
  endfacet
  facet normal 0 1 -0
    outer loop
      vertex -0.955065 3.5 -5.41644
      vertex -0.957952 3.5 -2.94827
      vertex 0.955065 3.5 -5.41644
    endloop
  endfacet
  facet normal 0 1 0
    outer loop
      vertex -0.957952 3.5 -2.94827
      vertex -0.955065 3.5 -5.41644
      vertex -2.75 3.5 -4.76314
    endloop
  endfacet
  facet normal -0.587785 0 0.809017
    outer loop
      vertex 0.957952 3.5 -2.94827
      vertex 2.50795 0.713292 -1.82213
      vertex 2.50795 3.5 -1.82213
    endloop
  endfacet
  facet normal -0.587785 0 0.809017
    outer loop
      vertex 2.50795 0.713292 -1.82213
      vertex 0.957952 3.5 -2.94827
      vertex 0.957952 0.713292 -2.94827
    endloop
  endfacet
  facet normal -0.587785 0 0.809017
    outer loop
      vertex 0.957952 -0.713292 -2.94827
      vertex 2.50795 -12 -1.82213
      vertex 2.50795 -0.713292 -1.82213
    endloop
  endfacet
  facet normal -0.587785 0 0.809017
    outer loop
      vertex 2.50795 -12 -1.82213
      vertex 0.957952 -0.713292 -2.94827
      vertex 0.957952 -12 -2.94827
    endloop
  endfacet
  facet normal 0.587785 0 0.809017
    outer loop
      vertex -2.50795 3.5 -1.82213
      vertex -0.957952 0.713292 -2.94827
      vertex -0.957952 3.5 -2.94827
    endloop
  endfacet
  facet normal 0.587785 0 0.809017
    outer loop
      vertex -0.957952 0.713292 -2.94827
      vertex -2.50795 3.5 -1.82213
      vertex -2.50795 0.713292 -1.82213
    endloop
  endfacet
  facet normal 0.587785 0 0.809017
    outer loop
      vertex -2.50795 -0.713292 -1.82213
      vertex -0.957952 -12 -2.94827
      vertex -0.957952 -0.713292 -2.94827
    endloop
  endfacet
  facet normal 0.587785 0 0.809017
    outer loop
      vertex -0.957952 -12 -2.94827
      vertex -2.50795 -0.713292 -1.82213
      vertex -2.50795 -12 -1.82213
    endloop
  endfacet
  facet normal -0.984808 0 0.173648
    outer loop
      vertex 5.16831 3.5 -1.88111
      vertex 5.5 6 -1.33227e-15
      vertex 5.16831 6 -1.88111
    endloop
  endfacet
  facet normal -0.984808 3.85577e-17 0.173648
    outer loop
      vertex 5.5 6 -1.33227e-15
      vertex 5.16831 3.5 -1.88111
      vertex 5.5 3.5 -7.77156e-16
    endloop
  endfacet
  facet normal -0.866025 0 0.5
    outer loop
      vertex 4.21324 3.5 -3.53533
      vertex 5.16831 6 -1.88111
      vertex 4.21324 6 -3.53533
    endloop
  endfacet
  facet normal -0.866025 0 0.5
    outer loop
      vertex 5.16831 6 -1.88111
      vertex 4.21324 3.5 -3.53533
      vertex 5.16831 3.5 -1.88111
    endloop
  endfacet
  facet normal 0.984808 3.85577e-17 0.173648
    outer loop
      vertex -5.5 3.5 -7.77156e-16
      vertex -5.16831 6 -1.88111
      vertex -5.5 6 -1.33227e-15
    endloop
  endfacet
  facet normal 0.984808 0 0.173648
    outer loop
      vertex -5.16831 6 -1.88111
      vertex -5.5 3.5 -7.77156e-16
      vertex -5.16831 3.5 -1.88111
    endloop
  endfacet
  facet normal 0.984808 0 -0.173648
    outer loop
      vertex -5.16831 3.5 1.88111
      vertex -5.5 6 -1.33227e-15
      vertex -5.16831 6 1.88111
    endloop
  endfacet
  facet normal 0.984808 -3.85577e-17 -0.173648
    outer loop
      vertex -5.5 6 -1.33227e-15
      vertex -5.16831 3.5 1.88111
      vertex -5.5 3.5 -7.77156e-16
    endloop
  endfacet
  facet normal -0 0 1
    outer loop
      vertex -0.955065 6 -5.41644
      vertex 0.955065 3.5 -5.41644
      vertex 0.955065 6 -5.41644
    endloop
  endfacet
  facet normal 0 0 1
    outer loop
      vertex 0.955065 3.5 -5.41644
      vertex -0.955065 6 -5.41644
      vertex -0.955065 3.5 -5.41644
    endloop
  endfacet
  facet normal -0.642788 0 0.766044
    outer loop
      vertex 2.75 6 -4.76314
      vertex 4.21324 3.5 -3.53533
      vertex 4.21324 6 -3.53533
    endloop
  endfacet
  facet normal -0.642788 0 0.766044
    outer loop
      vertex 4.21324 3.5 -3.53533
      vertex 2.75 6 -4.76314
      vertex 2.75 3.5 -4.76314
    endloop
  endfacet
  facet normal 0.642787 0 0.766045
    outer loop
      vertex -4.21324 6 -3.53533
      vertex -2.75 3.5 -4.76314
      vertex -2.75 6 -4.76314
    endloop
  endfacet
  facet normal 0.642787 0 0.766045
    outer loop
      vertex -2.75 3.5 -4.76314
      vertex -4.21324 6 -3.53533
      vertex -4.21324 3.5 -3.53533
    endloop
  endfacet
  facet normal -0.34202 0 -0.939693
    outer loop
      vertex 0.955065 3.5 5.41644
      vertex 2.75 6 4.76314
      vertex 2.75 3.5 4.76314
    endloop
  endfacet
  facet normal -0.34202 0 -0.939693
    outer loop
      vertex 2.75 6 4.76314
      vertex 0.955065 3.5 5.41644
      vertex 0.955065 6 5.41644
    endloop
  endfacet
  facet normal -0.866025 0 -0.5
    outer loop
      vertex 5.16831 3.5 1.88111
      vertex 4.21324 6 3.53533
      vertex 5.16831 6 1.88111
    endloop
  endfacet
  facet normal -0.866025 -0 -0.5
    outer loop
      vertex 4.21324 6 3.53533
      vertex 5.16831 3.5 1.88111
      vertex 4.21324 3.5 3.53533
    endloop
  endfacet
  facet normal -0.34202 0 0.939693
    outer loop
      vertex 0.955065 6 -5.41644
      vertex 2.75 3.5 -4.76314
      vertex 2.75 6 -4.76314
    endloop
  endfacet
  facet normal -0.34202 0 0.939693
    outer loop
      vertex 2.75 3.5 -4.76314
      vertex 0.955065 6 -5.41644
      vertex 0.955065 3.5 -5.41644
    endloop
  endfacet
  facet normal 0.866025 -0 0.5
    outer loop
      vertex -5.16831 3.5 -1.88111
      vertex -4.21324 6 -3.53533
      vertex -5.16831 6 -1.88111
    endloop
  endfacet
  facet normal 0.866025 0 0.5
    outer loop
      vertex -4.21324 6 -3.53533
      vertex -5.16831 3.5 -1.88111
      vertex -4.21324 3.5 -3.53533
    endloop
  endfacet
  facet normal 0.34202 0 0.939693
    outer loop
      vertex -2.75 6 -4.76314
      vertex -0.955065 3.5 -5.41644
      vertex -0.955065 6 -5.41644
    endloop
  endfacet
  facet normal 0.34202 0 0.939693
    outer loop
      vertex -0.955065 3.5 -5.41644
      vertex -2.75 6 -4.76314
      vertex -2.75 3.5 -4.76314
    endloop
  endfacet
  facet normal 0 0 -1
    outer loop
      vertex -0.955065 3.5 5.41644
      vertex 0.955065 6 5.41644
      vertex 0.955065 3.5 5.41644
    endloop
  endfacet
  facet normal -0 0 -1
    outer loop
      vertex 0.955065 6 5.41644
      vertex -0.955065 3.5 5.41644
      vertex -0.955065 6 5.41644
    endloop
  endfacet
  facet normal -0.984808 -3.85577e-17 -0.173648
    outer loop
      vertex 5.5 3.5 -7.77156e-16
      vertex 5.16831 6 1.88111
      vertex 5.5 6 -1.33227e-15
    endloop
  endfacet
  facet normal -0.984808 -0 -0.173648
    outer loop
      vertex 5.16831 6 1.88111
      vertex 5.5 3.5 -7.77156e-16
      vertex 5.16831 3.5 1.88111
    endloop
  endfacet
  facet normal 0.866025 0 -0.5
    outer loop
      vertex -4.21324 3.5 3.53533
      vertex -5.16831 6 1.88111
      vertex -4.21324 6 3.53533
    endloop
  endfacet
  facet normal 0.866025 0 -0.5
    outer loop
      vertex -5.16831 6 1.88111
      vertex -4.21324 3.5 3.53533
      vertex -5.16831 3.5 1.88111
    endloop
  endfacet
  facet normal -0.642787 0 -0.766045
    outer loop
      vertex 2.75 3.5 4.76314
      vertex 4.21324 6 3.53533
      vertex 4.21324 3.5 3.53533
    endloop
  endfacet
  facet normal -0.642787 0 -0.766045
    outer loop
      vertex 4.21324 6 3.53533
      vertex 2.75 3.5 4.76314
      vertex 2.75 6 4.76314
    endloop
  endfacet
  facet normal 0.34202 0 -0.939693
    outer loop
      vertex -2.75 3.5 4.76314
      vertex -0.955065 6 5.41644
      vertex -0.955065 3.5 5.41644
    endloop
  endfacet
  facet normal 0.34202 0 -0.939693
    outer loop
      vertex -0.955065 6 5.41644
      vertex -2.75 3.5 4.76314
      vertex -2.75 6 4.76314
    endloop
  endfacet
  facet normal 0.642788 0 -0.766044
    outer loop
      vertex -4.21324 3.5 3.53533
      vertex -2.75 6 4.76314
      vertex -2.75 3.5 4.76314
    endloop
  endfacet
  facet normal 0.642788 0 -0.766044
    outer loop
      vertex -2.75 6 4.76314
      vertex -4.21324 3.5 3.53533
      vertex -4.21324 6 3.53533
    endloop
  endfacet
  facet normal 0 1 -0
    outer loop
      vertex 2.89949 6 7
      vertex -2.89949 6 7
      vertex 2.8995 6 7
    endloop
  endfacet
  facet normal -0.707107 0 0.707107
    outer loop
      vertex -7 0.713292 2.89949
      vertex -2.89949 6 7
      vertex -7 6 2.89949
    endloop
  endfacet
  facet normal -0.707107 0 0.707107
    outer loop
      vertex -2.89949 6 7
      vertex -7 0.713292 2.89949
      vertex -2.89949 0.713292 7
    endloop
  endfacet
  facet normal -0.707107 0 0.707107
    outer loop
      vertex -7 -12 2.89949
      vertex -2.89949 -0.713292 7
      vertex -7 -0.713292 2.89949
    endloop
  endfacet
  facet normal -0.707107 0 0.707107
    outer loop
      vertex -2.89949 -0.713292 7
      vertex -7 -12 2.89949
      vertex -2.89949 -12 7
    endloop
  endfacet
  facet normal 0 1 0
    outer loop
      vertex 2.89949 6 7
      vertex 2.75 6 4.76314
      vertex 0.955065 6 5.41644
    endloop
  endfacet
  facet normal 0 1 0
    outer loop
      vertex 2.89949 6 7
      vertex 4.21324 6 3.53533
      vertex 2.75 6 4.76314
    endloop
  endfacet
  facet normal 0 1 0
    outer loop
      vertex 7 6 2.89949
      vertex 4.21324 6 3.53533
      vertex 2.89949 6 7
    endloop
  endfacet
  facet normal 0 1 0
    outer loop
      vertex 7 6 2.89949
      vertex 5.16831 6 1.88111
      vertex 4.21324 6 3.53533
    endloop
  endfacet
  facet normal 0 1 0
    outer loop
      vertex 7 6 2.89949
      vertex 5.5 6 -1.33227e-15
      vertex 5.16831 6 1.88111
    endloop
  endfacet
  facet normal 0 1 -0
    outer loop
      vertex 7 6 -2.89949
      vertex 5.5 6 -1.33227e-15
      vertex 7 6 2.89949
    endloop
  endfacet
  facet normal 0 1 0
    outer loop
      vertex 5.5 6 -1.33227e-15
      vertex 7 6 -2.89949
      vertex 5.16831 6 -1.88111
    endloop
  endfacet
  facet normal 0 1 0
    outer loop
      vertex 7 6 -2.89949
      vertex 4.21324 6 -3.53533
      vertex 5.16831 6 -1.88111
    endloop
  endfacet
  facet normal 0 1 0
    outer loop
      vertex 2.89949 6 -7
      vertex 4.21324 6 -3.53533
      vertex 7 6 -2.89949
    endloop
  endfacet
  facet normal 0 1 0
    outer loop
      vertex 0.955065 6 -5.41644
      vertex 2.89949 6 -7
      vertex -0.955065 6 -5.41644
    endloop
  endfacet
  facet normal 0 1 0
    outer loop
      vertex 2.75 6 -4.76314
      vertex 2.89949 6 -7
      vertex 0.955065 6 -5.41644
    endloop
  endfacet
  facet normal 0 1 0
    outer loop
      vertex 4.21324 6 -3.53533
      vertex 2.89949 6 -7
      vertex 2.75 6 -4.76314
    endloop
  endfacet
  facet normal 0 1 -0
    outer loop
      vertex 0.955065 6 5.41644
      vertex -2.89949 6 7
      vertex 2.89949 6 7
    endloop
  endfacet
  facet normal 0 1 -0
    outer loop
      vertex -0.955065 6 5.41644
      vertex -2.89949 6 7
      vertex 0.955065 6 5.41644
    endloop
  endfacet
  facet normal 0 1 -0
    outer loop
      vertex -2.75 6 4.76314
      vertex -2.89949 6 7
      vertex -0.955065 6 5.41644
    endloop
  endfacet
  facet normal 0 1 0
    outer loop
      vertex -4.21324 6 3.53533
      vertex -2.89949 6 7
      vertex -2.75 6 4.76314
    endloop
  endfacet
  facet normal 0 1 -0
    outer loop
      vertex -4.21324 6 3.53533
      vertex -7 6 2.89949
      vertex -2.89949 6 7
    endloop
  endfacet
  facet normal 0 1 -0
    outer loop
      vertex -5.16831 6 1.88111
      vertex -7 6 2.89949
      vertex -4.21324 6 3.53533
    endloop
  endfacet
  facet normal 0 1 -0
    outer loop
      vertex -5.5 6 -1.33227e-15
      vertex -7 6 2.89949
      vertex -5.16831 6 1.88111
    endloop
  endfacet
  facet normal 0 1 0
    outer loop
      vertex -7 6 -2.89949
      vertex -5.5 6 -1.33227e-15
      vertex -5.16831 6 -1.88111
    endloop
  endfacet
  facet normal 0 1 0
    outer loop
      vertex -5.5 6 -1.33227e-15
      vertex -7 6 -2.89949
      vertex -7 6 2.89949
    endloop
  endfacet
  facet normal 0 1 0
    outer loop
      vertex -4.21324 6 -3.53533
      vertex -7 6 -2.89949
      vertex -5.16831 6 -1.88111
    endloop
  endfacet
  facet normal 0 1 -0
    outer loop
      vertex -2.89949 6 -7
      vertex -4.21324 6 -3.53533
      vertex -2.75 6 -4.76314
    endloop
  endfacet
  facet normal 0 1 0
    outer loop
      vertex -2.89949 6 -7
      vertex -0.955065 6 -5.41644
      vertex 2.89949 6 -7
    endloop
  endfacet
  facet normal 0 1 0
    outer loop
      vertex -4.21324 6 -3.53533
      vertex -2.89949 6 -7
      vertex -7 6 -2.89949
    endloop
  endfacet
  facet normal 0 1 0
    outer loop
      vertex -0.955065 6 -5.41644
      vertex -2.89949 6 -7
      vertex -2.75 6 -4.76314
    endloop
  endfacet
  facet normal 0.879474 -0.475947 0
    outer loop
      vertex 13.2348 -3.68528 7
      vertex 14.1749 -1.9482 -7
      vertex 14.1749 -1.9482 7
    endloop
  endfacet
  facet normal 0.879474 -0.475947 0
    outer loop
      vertex 14.1749 -1.9482 -7
      vertex 13.2348 -3.68528 7
      vertex 13.2348 -3.68528 -7
    endloop
  endfacet
  facet normal 0.0825791 0.996585 -0
    outer loop
      vertex 9.97291 5.8164 -7
      vertex 8.00452 5.97951 7
      vertex 9.97291 5.8164 7
    endloop
  endfacet
  facet normal 0.0825791 0.996585 0
    outer loop
      vertex 8.00452 5.97951 7
      vertex 9.97291 5.8164 -7
      vertex 8.00452 5.97951 -7
    endloop
  endfacet
  facet normal 0.00335681 0.999989 0.00335681
    outer loop
      vertex 7 6 2.89949
      vertex 2.8995 6 7
      vertex 7.80758 5.98352 7
    endloop
  endfacet
  facet normal 0 1 0
    outer loop
      vertex 2.8995 6 7
      vertex 7 6 2.89949
      vertex 2.89949 6 7
    endloop
  endfacet
  facet normal 0.800055 -0.599926 0
    outer loop
      vertex 13.2348 -3.68528 7
      vertex 12.0124 -5.31545 -7
      vertex 13.2348 -3.68528 -7
    endloop
  endfacet
  facet normal 0.800055 -0.599926 -6.80062e-09
    outer loop
      vertex 12.0124 -5.31545 7
      vertex 12.0124 -5.31545 -7
      vertex 13.2348 -3.68528 7
    endloop
  endfacet
  facet normal 0.800055 -0.599926 -6.80063e-09
    outer loop
      vertex 7 -12 2.89949
      vertex 12.0124 -5.31545 -7
      vertex 12.0124 -5.31545 7
    endloop
  endfacet
  facet normal 0.800055 -0.599926 0
    outer loop
      vertex 12.0124 -5.31545 -7
      vertex 7 -12 2.89949
      vertex 7 -12 -2.89949
    endloop
  endfacet
  facet normal 0.634896 -0.689681 0.348207
    outer loop
      vertex 10.8442 -6.3909 7
      vertex 7 -12 2.89949
      vertex 12.0124 -5.31545 7
    endloop
  endfacet
  facet normal 0.497468 -0.710669 0.497468
    outer loop
      vertex 7 -12 2.89949
      vertex 2.8995 -12 7
      vertex 2.89949 -12 7
    endloop
  endfacet
  facet normal 0.499614 -0.707652 0.499614
    outer loop
      vertex 2.8995 -12 7
      vertex 7 -12 2.89949
      vertex 10.8442 -6.3909 7
    endloop
  endfacet
  facet normal -1 0 1.64455e-07
    outer loop
      vertex -7 0.713292 -2.89949
      vertex -7 6 2.89949
      vertex -7 6 -2.89949
    endloop
  endfacet
  facet normal -1 0 1.64455e-07
    outer loop
      vertex -7 6 2.89949
      vertex -7 0.713292 -2.89949
      vertex -7 0.713292 2.89949
    endloop
  endfacet
  facet normal -1 0 1.64455e-07
    outer loop
      vertex -7 -12 -2.89949
      vertex -7 -0.713292 2.89949
      vertex -7 -0.713292 -2.89949
    endloop
  endfacet
  facet normal -1 0 1.64455e-07
    outer loop
      vertex -7 -0.713292 2.89949
      vertex -7 -12 -2.89949
      vertex -7 -12 2.89949
    endloop
  endfacet
  facet normal -0.707107 0 -0.707107
    outer loop
      vertex -2.89949 0.713292 -7
      vertex -7 6 -2.89949
      vertex -2.89949 6 -7
    endloop
  endfacet
  facet normal -0.707107 -0 -0.707107
    outer loop
      vertex -7 6 -2.89949
      vertex -2.89949 0.713292 -7
      vertex -7 0.713292 -2.89949
    endloop
  endfacet
  facet normal -0.707107 0 -0.707107
    outer loop
      vertex -2.89949 -12 -7
      vertex -7 -0.713292 -2.89949
      vertex -2.89949 -0.713292 -7
    endloop
  endfacet
  facet normal -0.707107 -0 -0.707107
    outer loop
      vertex -7 -0.713292 -2.89949
      vertex -2.89949 -12 -7
      vertex -7 -12 -2.89949
    endloop
  endfacet
  facet normal 1.62218e-07 -0.164399 0.986394
    outer loop
      vertex 2.8995 -12 7
      vertex -2.89949 -12 7
      vertex 2.89949 -12 7
    endloop
  endfacet
  facet normal 0.0203965 0.999792 1.28547e-07
    outer loop
      vertex 8.00452 5.97951 7
      vertex 7 6 2.89949
      vertex 7.80758 5.98352 7
    endloop
  endfacet
  facet normal 0.020397 0.999792 0
    outer loop
      vertex 8.00452 5.97951 7
      vertex 7 6 -2.89949
      vertex 7 6 2.89949
    endloop
  endfacet
  facet normal 0.020397 0.999792 -0
    outer loop
      vertex 8.00452 5.97951 -7
      vertex 7 6 -2.89949
      vertex 8.00452 5.97951 7
    endloop
  endfacet
  facet normal 0.0203965 0.999792 -1.28547e-07
    outer loop
      vertex 7 6 -2.89949
      vertex 8.00452 5.97951 -7
      vertex 7.80758 5.98352 -7
    endloop
  endfacet
  facet normal 0.986361 0.164595 0
    outer loop
      vertex 14.5 1.55431e-15 7
      vertex 14.1749 1.9482 -7
      vertex 14.1749 1.9482 7
    endloop
  endfacet
  facet normal 0.986361 0.164595 -4.015e-17
    outer loop
      vertex 14.1749 1.9482 -7
      vertex 14.5 1.55431e-15 7
      vertex 14.5 -1.55431e-15 -7
    endloop
  endfacet
  facet normal 0.401695 0.915773 -0
    outer loop
      vertex 11.7817 5.023 -7
      vertex 9.97291 5.8164 7
      vertex 11.7817 5.023 7
    endloop
  endfacet
  facet normal 0.401695 0.915773 0
    outer loop
      vertex 9.97291 5.8164 7
      vertex 11.7817 5.023 -7
      vertex 9.97291 5.8164 -7
    endloop
  endfacet
  facet normal 0 -1 0
    outer loop
      vertex -2.89949 -12 7
      vertex -0.957952 -12 2.94827
      vertex 2.89949 -12 7
    endloop
  endfacet
  facet normal 0 -1 0
    outer loop
      vertex -2.50795 -12 1.82213
      vertex -2.89949 -12 7
      vertex -7 -12 2.89949
    endloop
  endfacet
  facet normal 0 -1 0
    outer loop
      vertex -2.89949 -12 7
      vertex -2.50795 -12 1.82213
      vertex -0.957952 -12 2.94827
    endloop
  endfacet
  facet normal 0 -1 0
    outer loop
      vertex -7 -12 2.89949
      vertex -3.1 -12 2.66454e-15
      vertex -2.50795 -12 1.82213
    endloop
  endfacet
  facet normal 0 -1 0
    outer loop
      vertex -7 -12 -2.89949
      vertex -3.1 -12 2.66454e-15
      vertex -7 -12 2.89949
    endloop
  endfacet
  facet normal 0 -1 -0
    outer loop
      vertex -3.1 -12 2.66454e-15
      vertex -7 -12 -2.89949
      vertex -2.50795 -12 -1.82213
    endloop
  endfacet
  facet normal 0 -1 0
    outer loop
      vertex -2.89949 -12 -7
      vertex -2.50795 -12 -1.82213
      vertex -7 -12 -2.89949
    endloop
  endfacet
  facet normal 0 -1 -0
    outer loop
      vertex -0.957952 -12 -2.94827
      vertex -2.89949 -12 -7
      vertex 0.957952 -12 -2.94827
    endloop
  endfacet
  facet normal 0 -1 -0
    outer loop
      vertex -2.50795 -12 -1.82213
      vertex -2.89949 -12 -7
      vertex -0.957952 -12 -2.94827
    endloop
  endfacet
  facet normal 0 -1 0
    outer loop
      vertex 0.957952 -12 2.94827
      vertex 2.89949 -12 7
      vertex -0.957952 -12 2.94827
    endloop
  endfacet
  facet normal 0 -1 0
    outer loop
      vertex 2.50795 -12 1.82213
      vertex 2.89949 -12 7
      vertex 0.957952 -12 2.94827
    endloop
  endfacet
  facet normal 0 -1 -0
    outer loop
      vertex 2.89949 -12 7
      vertex 2.50795 -12 1.82213
      vertex 7 -12 2.89949
    endloop
  endfacet
  facet normal 0 -1 0
    outer loop
      vertex 3.1 -12 2.66454e-15
      vertex 7 -12 2.89949
      vertex 2.50795 -12 1.82213
    endloop
  endfacet
  facet normal 0 -1 0
    outer loop
      vertex 7 -12 -2.89949
      vertex 3.1 -12 2.66454e-15
      vertex 2.50795 -12 -1.82213
    endloop
  endfacet
  facet normal 0 -1 0
    outer loop
      vertex 3.1 -12 2.66454e-15
      vertex 7 -12 -2.89949
      vertex 7 -12 2.89949
    endloop
  endfacet
  facet normal 0 -1 0
    outer loop
      vertex 2.89949 -12 -7
      vertex 2.50795 -12 -1.82213
      vertex 0.957952 -12 -2.94827
    endloop
  endfacet
  facet normal 0 -1 0
    outer loop
      vertex 2.89949 -12 -7
      vertex 0.957952 -12 -2.94827
      vertex -2.89949 -12 -7
    endloop
  endfacet
  facet normal 0 -1 0
    outer loop
      vertex 2.50795 -12 -1.82213
      vertex 2.89949 -12 -7
      vertex 7 -12 -2.89949
    endloop
  endfacet
  facet normal 0.986361 -0.164595 4.015e-17
    outer loop
      vertex 14.1749 -1.9482 7
      vertex 14.5 -1.55431e-15 -7
      vertex 14.5 1.55431e-15 7
    endloop
  endfacet
  facet normal 0.986361 -0.164595 0
    outer loop
      vertex 14.5 -1.55431e-15 -7
      vertex 14.1749 -1.9482 7
      vertex 14.1749 -1.9482 -7
    endloop
  endfacet
  facet normal 0.677282 0.735724 -0
    outer loop
      vertex 13.2348 3.68528 -7
      vertex 11.7817 5.023 7
      vertex 13.2348 3.68528 7
    endloop
  endfacet
  facet normal 0.677282 0.735724 0
    outer loop
      vertex 11.7817 5.023 7
      vertex 13.2348 3.68528 -7
      vertex 11.7817 5.023 -7
    endloop
  endfacet
  facet normal 0.00335681 0.999989 -0.00335681
    outer loop
      vertex 7.80758 5.98352 -7
      vertex 2.89949 6 -7
      vertex 7 6 -2.89949
    endloop
  endfacet
  facet normal 0.879474 0.475947 0
    outer loop
      vertex 14.1749 1.9482 7
      vertex 13.2348 3.68528 -7
      vertex 13.2348 3.68528 7
    endloop
  endfacet
  facet normal 0.879474 0.475947 0
    outer loop
      vertex 13.2348 3.68528 -7
      vertex 14.1749 1.9482 7
      vertex 14.1749 1.9482 -7
    endloop
  endfacet
  facet normal 0.634896 -0.689681 -0.348206
    outer loop
      vertex 12.0124 -5.31545 -7
      vertex 7 -12 -2.89949
      vertex 10.8442 -6.3909 -7
    endloop
  endfacet
  facet normal 0.499614 -0.707652 -0.499614
    outer loop
      vertex 7 -12 -2.89949
      vertex 2.89949 -12 -7
      vertex 10.8442 -6.3909 -7
    endloop
  endfacet
  facet normal -0.939693 0.34202 -7.13423e-17
    outer loop
      vertex 10.4917 -1.67125 -7
      vertex 11.1 1.55431e-15 7
      vertex 11.1 -1.55431e-15 -7
    endloop
  endfacet
  facet normal -0.939693 0.34202 0
    outer loop
      vertex 11.1 1.55431e-15 7
      vertex 10.4917 -1.67125 -7
      vertex 10.4917 -1.67125 7
    endloop
  endfacet
  facet normal -0.5 0.866025 0
    outer loop
      vertex 10.4917 -1.67125 -7
      vertex 8.95148 -2.5605 7
      vertex 10.4917 -1.67125 7
    endloop
  endfacet
  facet normal -0.5 0.866025 0
    outer loop
      vertex 8.95148 -2.5605 7
      vertex 10.4917 -1.67125 -7
      vertex 8.95148 -2.5605 -7
    endloop
  endfacet
  facet normal 1 -0 0
    outer loop
      vertex 6.0568 0.713292 7
      vertex 6.0568 0.889252 -7
      vertex 6.0568 0.889252 7
    endloop
  endfacet
  facet normal 1 0 0
    outer loop
      vertex 6.0568 0.889252 -7
      vertex 6.0568 0.713292 7
      vertex 6.0568 0.713292 -7
    endloop
  endfacet
  facet normal 1 -0 0
    outer loop
      vertex 6.0568 -0.889252 7
      vertex 6.0568 -0.713292 -7
      vertex 6.0568 -0.713292 7
    endloop
  endfacet
  facet normal 1 0 0
    outer loop
      vertex 6.0568 -0.713292 -7
      vertex 6.0568 -0.889252 7
      vertex 6.0568 -0.889252 -7
    endloop
  endfacet
  facet normal 0.173649 0.984808 -0
    outer loop
      vertex 8.95148 -2.5605 -7
      vertex 7.2 -2.25167 7
      vertex 8.95148 -2.5605 7
    endloop
  endfacet
  facet normal 0.173649 0.984808 0
    outer loop
      vertex 7.2 -2.25167 7
      vertex 8.95148 -2.5605 -7
      vertex 7.2 -2.25167 -7
    endloop
  endfacet
  facet normal 0.766044 -0.642788 0
    outer loop
      vertex 6.0568 0.889252 7
      vertex 7.2 2.25167 -7
      vertex 7.2 2.25167 7
    endloop
  endfacet
  facet normal 0.766044 -0.642788 0
    outer loop
      vertex 7.2 2.25167 -7
      vertex 6.0568 0.889252 7
      vertex 6.0568 0.889252 -7
    endloop
  endfacet
  facet normal 0.766044 0.642788 0
    outer loop
      vertex 7.2 -2.25167 7
      vertex 6.0568 -0.889252 -7
      vertex 6.0568 -0.889252 7
    endloop
  endfacet
  facet normal 0.766044 0.642788 0
    outer loop
      vertex 6.0568 -0.889252 -7
      vertex 7.2 -2.25167 7
      vertex 7.2 -2.25167 -7
    endloop
  endfacet
  facet normal -0.5 -0.866025 0
    outer loop
      vertex 8.95148 2.5605 -7
      vertex 10.4917 1.67125 7
      vertex 8.95148 2.5605 7
    endloop
  endfacet
  facet normal -0.5 -0.866025 -0
    outer loop
      vertex 10.4917 1.67125 7
      vertex 8.95148 2.5605 -7
      vertex 10.4917 1.67125 -7
    endloop
  endfacet
  facet normal -0.939693 -0.34202 0
    outer loop
      vertex 10.4917 1.67125 -7
      vertex 11.1 1.55431e-15 7
      vertex 10.4917 1.67125 7
    endloop
  endfacet
  facet normal -0.939693 -0.34202 7.59437e-17
    outer loop
      vertex 11.1 1.55431e-15 7
      vertex 10.4917 1.67125 -7
      vertex 11.1 -1.55431e-15 -7
    endloop
  endfacet
  facet normal 0.173649 -0.984808 0
    outer loop
      vertex 7.2 2.25167 -7
      vertex 8.95148 2.5605 7
      vertex 7.2 2.25167 7
    endloop
  endfacet
  facet normal 0.173649 -0.984808 0
    outer loop
      vertex 8.95148 2.5605 7
      vertex 7.2 2.25167 -7
      vertex 8.95148 2.5605 -7
    endloop
  endfacet
  facet normal 0 1 0
    outer loop
      vertex 6.0568 -0.713292 7
      vertex 0.957952 -0.713292 2.94827
      vertex -2.89949 -0.713292 7
    endloop
  endfacet
  facet normal 0 1 0
    outer loop
      vertex 6.0568 -0.713292 7
      vertex 2.50795 -0.713292 1.82213
      vertex 0.957952 -0.713292 2.94827
    endloop
  endfacet
  facet normal 0 1 0
    outer loop
      vertex 6.0568 -0.713292 7
      vertex 3.1 -0.713292 1.58383e-16
      vertex 2.50795 -0.713292 1.82213
    endloop
  endfacet
  facet normal 0 1 -0
    outer loop
      vertex 6.0568 -0.713292 -7
      vertex 3.1 -0.713292 1.58383e-16
      vertex 6.0568 -0.713292 7
    endloop
  endfacet
  facet normal 0 1 0
    outer loop
      vertex -2.89949 -0.713292 -7
      vertex 0.957952 -0.713292 -2.94827
      vertex 6.0568 -0.713292 -7
    endloop
  endfacet
  facet normal 0 1 0
    outer loop
      vertex 2.50795 -0.713292 -1.82213
      vertex 6.0568 -0.713292 -7
      vertex 0.957952 -0.713292 -2.94827
    endloop
  endfacet
  facet normal 0 1 0
    outer loop
      vertex 3.1 -0.713292 1.58383e-16
      vertex 6.0568 -0.713292 -7
      vertex 2.50795 -0.713292 -1.82213
    endloop
  endfacet
  facet normal 0 1 -0
    outer loop
      vertex -0.957952 -0.713292 2.94827
      vertex -2.89949 -0.713292 7
      vertex 0.957952 -0.713292 2.94827
    endloop
  endfacet
  facet normal 0 1 -0
    outer loop
      vertex -2.50795 -0.713292 1.82213
      vertex -2.89949 -0.713292 7
      vertex -0.957952 -0.713292 2.94827
    endloop
  endfacet
  facet normal 0 1 0
    outer loop
      vertex -2.89949 -0.713292 7
      vertex -2.50795 -0.713292 1.82213
      vertex -7 -0.713292 2.89949
    endloop
  endfacet
  facet normal 0 1 -0
    outer loop
      vertex -3.1 -0.713292 1.58383e-16
      vertex -7 -0.713292 2.89949
      vertex -2.50795 -0.713292 1.82213
    endloop
  endfacet
  facet normal 0 1 0
    outer loop
      vertex -7 -0.713292 -2.89949
      vertex -3.1 -0.713292 1.58383e-16
      vertex -2.50795 -0.713292 -1.82213
    endloop
  endfacet
  facet normal 0 1 0
    outer loop
      vertex -3.1 -0.713292 1.58383e-16
      vertex -7 -0.713292 -2.89949
      vertex -7 -0.713292 2.89949
    endloop
  endfacet
  facet normal 0 1 0
    outer loop
      vertex -2.89949 -0.713292 -7
      vertex -2.50795 -0.713292 -1.82213
      vertex -0.957952 -0.713292 -2.94827
    endloop
  endfacet
  facet normal 0 1 0
    outer loop
      vertex 0.957952 -0.713292 -2.94827
      vertex -2.89949 -0.713292 -7
      vertex -0.957952 -0.713292 -2.94827
    endloop
  endfacet
  facet normal 0 1 0
    outer loop
      vertex -2.50795 -0.713292 -1.82213
      vertex -2.89949 -0.713292 -7
      vertex -7 -0.713292 -2.89949
    endloop
  endfacet
  facet normal 0 -1 0
    outer loop
      vertex 0.957952 0.713292 2.94827
      vertex -2.89949 0.713292 7
      vertex -0.957952 0.713292 2.94827
    endloop
  endfacet
  facet normal 0 -1 0
    outer loop
      vertex -2.50795 0.713292 1.82213
      vertex -2.89949 0.713292 7
      vertex -7 0.713292 2.89949
    endloop
  endfacet
  facet normal 0 -1 0
    outer loop
      vertex -2.89949 0.713292 7
      vertex -2.50795 0.713292 1.82213
      vertex -0.957952 0.713292 2.94827
    endloop
  endfacet
  facet normal 0 -1 0
    outer loop
      vertex -7 0.713292 2.89949
      vertex -3.1 0.713292 -1.58383e-16
      vertex -2.50795 0.713292 1.82213
    endloop
  endfacet
  facet normal 0 -1 0
    outer loop
      vertex -7 0.713292 -2.89949
      vertex -3.1 0.713292 -1.58383e-16
      vertex -7 0.713292 2.89949
    endloop
  endfacet
  facet normal 0 -1 -0
    outer loop
      vertex -3.1 0.713292 -1.58383e-16
      vertex -7 0.713292 -2.89949
      vertex -2.50795 0.713292 -1.82213
    endloop
  endfacet
  facet normal 0 -1 0
    outer loop
      vertex -2.89949 0.713292 -7
      vertex -2.50795 0.713292 -1.82213
      vertex -7 0.713292 -2.89949
    endloop
  endfacet
  facet normal 0 -1 -0
    outer loop
      vertex -0.957952 0.713292 -2.94827
      vertex -2.89949 0.713292 -7
      vertex 0.957952 0.713292 -2.94827
    endloop
  endfacet
  facet normal 0 -1 -0
    outer loop
      vertex -2.50795 0.713292 -1.82213
      vertex -2.89949 0.713292 -7
      vertex -0.957952 0.713292 -2.94827
    endloop
  endfacet
  facet normal 0 -1 0
    outer loop
      vertex -2.89949 0.713292 7
      vertex 0.957952 0.713292 2.94827
      vertex 6.0568 0.713292 7
    endloop
  endfacet
  facet normal 0 -1 0
    outer loop
      vertex 2.50795 0.713292 1.82213
      vertex 6.0568 0.713292 7
      vertex 0.957952 0.713292 2.94827
    endloop
  endfacet
  facet normal 0 -1 0
    outer loop
      vertex 3.1 0.713292 -1.58383e-16
      vertex 6.0568 0.713292 7
      vertex 2.50795 0.713292 1.82213
    endloop
  endfacet
  facet normal 0 -1 0
    outer loop
      vertex 6.0568 0.713292 -7
      vertex 3.1 0.713292 -1.58383e-16
      vertex 2.50795 0.713292 -1.82213
    endloop
  endfacet
  facet normal 0 -1 0
    outer loop
      vertex 6.0568 0.713292 -7
      vertex 0.957952 0.713292 -2.94827
      vertex -2.89949 0.713292 -7
    endloop
  endfacet
  facet normal 0 -1 0
    outer loop
      vertex 3.1 0.713292 -1.58383e-16
      vertex 6.0568 0.713292 -7
      vertex 6.0568 0.713292 7
    endloop
  endfacet
  facet normal 0 -1 0
    outer loop
      vertex 0.957952 0.713292 -2.94827
      vertex 6.0568 0.713292 -7
      vertex 2.50795 0.713292 -1.82213
    endloop
  endfacet
  facet normal -0 0 1
    outer loop
      vertex -2.89949 -0.713292 7
      vertex 6.0568 -0.889252 7
      vertex 6.0568 -0.713292 7
    endloop
  endfacet
  facet normal 0 0 1
    outer loop
      vertex 6.0568 -0.889252 7
      vertex -2.89949 -0.713292 7
      vertex 2.8995 -12 7
    endloop
  endfacet
  facet normal 0 0 1
    outer loop
      vertex 2.8995 -12 7
      vertex -2.89949 -0.713292 7
      vertex -2.89949 -12 7
    endloop
  endfacet
  facet normal 0 0 1
    outer loop
      vertex 14.1749 1.9482 7
      vertex 10.4917 1.67125 7
      vertex 11.1 1.55431e-15 7
    endloop
  endfacet
  facet normal 0 0 1
    outer loop
      vertex 8.95148 2.5605 7
      vertex 11.7817 5.023 7
      vertex 9.97291 5.8164 7
    endloop
  endfacet
  facet normal 0 0 1
    outer loop
      vertex 11.7817 5.023 7
      vertex 8.95148 2.5605 7
      vertex 10.4917 1.67125 7
    endloop
  endfacet
  facet normal 0 0 1
    outer loop
      vertex 8.00452 5.97951 7
      vertex 8.95148 2.5605 7
      vertex 9.97291 5.8164 7
    endloop
  endfacet
  facet normal 0 0 1
    outer loop
      vertex 7.80758 5.98352 7
      vertex 8.95148 2.5605 7
      vertex 8.00452 5.97951 7
    endloop
  endfacet
  facet normal 0 0 1
    outer loop
      vertex 7.80758 5.98352 7
      vertex 7.2 2.25167 7
      vertex 8.95148 2.5605 7
    endloop
  endfacet
  facet normal 0 0 1
    outer loop
      vertex 2.8995 6 7
      vertex 7.2 2.25167 7
      vertex 7.80758 5.98352 7
    endloop
  endfacet
  facet normal 0 0 1
    outer loop
      vertex 7.2 2.25167 7
      vertex 2.8995 6 7
      vertex 6.0568 0.889252 7
    endloop
  endfacet
  facet normal 0 0 1
    outer loop
      vertex -2.89949 0.713292 7
      vertex 6.0568 0.889252 7
      vertex 2.8995 6 7
    endloop
  endfacet
  facet normal 0 0 1
    outer loop
      vertex -2.89949 0.713292 7
      vertex 2.8995 6 7
      vertex -2.89949 6 7
    endloop
  endfacet
  facet normal 0 0 1
    outer loop
      vertex 6.0568 0.889252 7
      vertex -2.89949 0.713292 7
      vertex 6.0568 0.713292 7
    endloop
  endfacet
  facet normal 0 0 1
    outer loop
      vertex 11.1 1.55431e-15 7
      vertex 14.5 1.55431e-15 7
      vertex 14.1749 1.9482 7
    endloop
  endfacet
  facet normal 0 0 1
    outer loop
      vertex 10.4917 1.67125 7
      vertex 14.1749 1.9482 7
      vertex 13.2348 3.68528 7
    endloop
  endfacet
  facet normal 0 0 1
    outer loop
      vertex 14.5 1.55431e-15 7
      vertex 11.1 1.55431e-15 7
      vertex 14.1749 -1.9482 7
    endloop
  endfacet
  facet normal -0 0 1
    outer loop
      vertex 10.4917 -1.67125 7
      vertex 14.1749 -1.9482 7
      vertex 11.1 1.55431e-15 7
    endloop
  endfacet
  facet normal 0 0 1
    outer loop
      vertex 10.4917 1.67125 7
      vertex 13.2348 3.68528 7
      vertex 11.7817 5.023 7
    endloop
  endfacet
  facet normal 0 0 1
    outer loop
      vertex 14.1749 -1.9482 7
      vertex 10.4917 -1.67125 7
      vertex 13.2348 -3.68528 7
    endloop
  endfacet
  facet normal 0 0 1
    outer loop
      vertex 13.2348 -3.68528 7
      vertex 10.4917 -1.67125 7
      vertex 12.0124 -5.31545 7
    endloop
  endfacet
  facet normal -0 0 1
    outer loop
      vertex 8.95148 -2.5605 7
      vertex 12.0124 -5.31545 7
      vertex 10.4917 -1.67125 7
    endloop
  endfacet
  facet normal 0 0 1
    outer loop
      vertex 12.0124 -5.31545 7
      vertex 8.95148 -2.5605 7
      vertex 10.8442 -6.3909 7
    endloop
  endfacet
  facet normal 0 0 1
    outer loop
      vertex 7.2 -2.25167 7
      vertex 10.8442 -6.3909 7
      vertex 8.95148 -2.5605 7
    endloop
  endfacet
  facet normal 0 0 1
    outer loop
      vertex 7.2 -2.25167 7
      vertex 2.8995 -12 7
      vertex 10.8442 -6.3909 7
    endloop
  endfacet
  facet normal 0 0 1
    outer loop
      vertex 2.8995 -12 7
      vertex 7.2 -2.25167 7
      vertex 6.0568 -0.889252 7
    endloop
  endfacet
  facet normal 0 0 -1
    outer loop
      vertex -2.89949 0.713292 -7
      vertex 6.0568 0.889252 -7
      vertex 6.0568 0.713292 -7
    endloop
  endfacet
  facet normal -0 0 -1
    outer loop
      vertex 6.0568 0.889252 -7
      vertex -2.89949 0.713292 -7
      vertex 2.89949 6 -7
    endloop
  endfacet
  facet normal -0 0 -1
    outer loop
      vertex 2.89949 6 -7
      vertex -2.89949 0.713292 -7
      vertex -2.89949 6 -7
    endloop
  endfacet
  facet normal 0 0 -1
    outer loop
      vertex 11.1 -1.55431e-15 -7
      vertex 14.5 -1.55431e-15 -7
      vertex 14.1749 -1.9482 -7
    endloop
  endfacet
  facet normal 0 0 -1
    outer loop
      vertex 10.4917 -1.67125 -7
      vertex 14.1749 -1.9482 -7
      vertex 13.2348 -3.68528 -7
    endloop
  endfacet
  facet normal 0 0 -1
    outer loop
      vertex 14.5 -1.55431e-15 -7
      vertex 11.1 -1.55431e-15 -7
      vertex 14.1749 1.9482 -7
    endloop
  endfacet
  facet normal 0 0 -1
    outer loop
      vertex 10.4917 -1.67125 -7
      vertex 13.2348 -3.68528 -7
      vertex 12.0124 -5.31545 -7
    endloop
  endfacet
  facet normal 0 0 -1
    outer loop
      vertex 10.4917 1.67125 -7
      vertex 14.1749 1.9482 -7
      vertex 11.1 -1.55431e-15 -7
    endloop
  endfacet
  facet normal -0 0 -1
    outer loop
      vertex 14.1749 1.9482 -7
      vertex 10.4917 1.67125 -7
      vertex 13.2348 3.68528 -7
    endloop
  endfacet
  facet normal 0 0 -1
    outer loop
      vertex 8.95148 -2.5605 -7
      vertex 12.0124 -5.31545 -7
      vertex 10.8442 -6.3909 -7
    endloop
  endfacet
  facet normal 0 0 -1
    outer loop
      vertex 14.1749 -1.9482 -7
      vertex 10.4917 -1.67125 -7
      vertex 11.1 -1.55431e-15 -7
    endloop
  endfacet
  facet normal 0 0 -1
    outer loop
      vertex 12.0124 -5.31545 -7
      vertex 8.95148 -2.5605 -7
      vertex 10.4917 -1.67125 -7
    endloop
  endfacet
  facet normal 0 0 -1
    outer loop
      vertex 10.8442 -6.3909 -7
      vertex 7.2 -2.25167 -7
      vertex 8.95148 -2.5605 -7
    endloop
  endfacet
  facet normal 0 0 -1
    outer loop
      vertex 2.89949 -12 -7
      vertex 7.2 -2.25167 -7
      vertex 10.8442 -6.3909 -7
    endloop
  endfacet
  facet normal 0 0 -1
    outer loop
      vertex 2.89949 -12 -7
      vertex 6.0568 -0.889252 -7
      vertex 7.2 -2.25167 -7
    endloop
  endfacet
  facet normal 0 0 -1
    outer loop
      vertex -2.89949 -0.713292 -7
      vertex 6.0568 -0.889252 -7
      vertex 2.89949 -12 -7
    endloop
  endfacet
  facet normal 0 0 -1
    outer loop
      vertex -2.89949 -0.713292 -7
      vertex 2.89949 -12 -7
      vertex -2.89949 -12 -7
    endloop
  endfacet
  facet normal 0 0 -1
    outer loop
      vertex 6.0568 -0.889252 -7
      vertex -2.89949 -0.713292 -7
      vertex 6.0568 -0.713292 -7
    endloop
  endfacet
  facet normal -0 0 -1
    outer loop
      vertex 13.2348 3.68528 -7
      vertex 10.4917 1.67125 -7
      vertex 11.7817 5.023 -7
    endloop
  endfacet
  facet normal 0 0 -1
    outer loop
      vertex 8.95148 2.5605 -7
      vertex 11.7817 5.023 -7
      vertex 10.4917 1.67125 -7
    endloop
  endfacet
  facet normal -0 0 -1
    outer loop
      vertex 11.7817 5.023 -7
      vertex 8.95148 2.5605 -7
      vertex 9.97291 5.8164 -7
    endloop
  endfacet
  facet normal 0 0 -1
    outer loop
      vertex 8.95148 2.5605 -7
      vertex 8.00452 5.97951 -7
      vertex 9.97291 5.8164 -7
    endloop
  endfacet
  facet normal 0 0 -1
    outer loop
      vertex 8.95148 2.5605 -7
      vertex 7.80758 5.98352 -7
      vertex 8.00452 5.97951 -7
    endloop
  endfacet
  facet normal 0 0 -1
    outer loop
      vertex 7.2 2.25167 -7
      vertex 7.80758 5.98352 -7
      vertex 8.95148 2.5605 -7
    endloop
  endfacet
  facet normal 0 0 -1
    outer loop
      vertex 2.89949 6 -7
      vertex 7.2 2.25167 -7
      vertex 6.0568 0.889252 -7
    endloop
  endfacet
  facet normal 0 0 -1
    outer loop
      vertex 7.2 2.25167 -7
      vertex 2.89949 6 -7
      vertex 7.80758 5.98352 -7
    endloop
  endfacet
endsolid OpenSCAD_Model
