solid OpenSCAD_Model
  facet normal 0.99863 0.052336 -0
    outer loop
      vertex 10.9615 0 2.19231
      vertex 10.8991 1.19162 6.73982
      vertex 10.9615 0 6.75231
    endloop
  endfacet
  facet normal 0.99863 0.052336 0
    outer loop
      vertex 10.8991 1.19162 6.73982
      vertex 10.9615 0 2.19231
      vertex 10.8991 1.19162 2.19231
    endloop
  endfacet
  facet normal -0.99863 0.0523363 0
    outer loop
      vertex -11.776 1.19162 2.19231
      vertex -11.8385 7.93316e-05 2.19231
      vertex -11.776 1.19162 2.2048
    endloop
  endfacet
  facet normal 0.052336 0.99863 -0
    outer loop
      vertex 0.753162 11.3375 2.19231
      vertex -0.438462 11.4 4.47231
      vertex 0.753162 11.3375 4.71063
    endloop
  endfacet
  facet normal 0.052336 0.99863 0
    outer loop
      vertex -0.438462 11.4 4.47231
      vertex 0.753162 11.3375 2.19231
      vertex -0.438462 11.4 2.19231
    endloop
  endfacet
  facet normal 0.707107 0.707107 -0
    outer loop
      vertex 8.03339 7.62809 2.19231
      vertex 7.18963 8.47185 5.99792
      vertex 8.03339 7.62809 6.16668
    endloop
  endfacet
  facet normal 0.707107 0.707107 0
    outer loop
      vertex 7.18963 8.47185 5.99792
      vertex 8.03339 7.62809 2.19231
      vertex 7.18963 8.47185 2.19231
    endloop
  endfacet
  facet normal -0.629321 0.777146 0
    outer loop
      vertex -7.13921 9.22279 2.19231
      vertex -8.06655 8.47185 2.94669
      vertex -7.13921 9.22279 3.13216
    endloop
  endfacet
  facet normal -0.629321 0.777146 0
    outer loop
      vertex -8.06655 8.47185 2.94669
      vertex -7.13921 9.22279 2.19231
      vertex -8.06655 8.47185 2.19231
    endloop
  endfacet
  facet normal -0.258819 0.965926 0
    outer loop
      vertex -2.80865 11.1509 2.19231
      vertex -3.96125 10.842 3.76775
      vertex -2.80865 11.1509 3.99827
    endloop
  endfacet
  facet normal -0.258819 0.965926 0
    outer loop
      vertex -3.96125 10.842 3.76775
      vertex -2.80865 11.1509 2.19231
      vertex -3.96125 10.842 2.19231
    endloop
  endfacet
  facet normal -0.987688 -0.156435 0
    outer loop
      vertex -11.5893 -2.37019 2.19231
      vertex -11.776 -1.19162 2.2048
      vertex -11.776 -1.19162 2.19231
    endloop
  endfacet
  facet normal -0.987688 -0.156435 0
    outer loop
      vertex -11.776 -1.19162 2.2048
      vertex -11.5893 -2.37019 2.19231
      vertex -11.5893 -2.37019 2.24213
    endloop
  endfacet
  facet normal 0 0 -1
    outer loop
      vertex 2.56154 0 2.19231
      vertex 10.9615 0 2.19231
      vertex 10.8991 -1.19162 2.19231
    endloop
  endfacet
  facet normal 0 0 -1
    outer loop
      vertex 2.56154 0 2.19231
      vertex 10.8991 -1.19162 2.19231
      vertex 10.7124 -2.37019 2.19231
    endloop
  endfacet
  facet normal 0 0 -1
    outer loop
      vertex 10.9615 0 2.19231
      vertex 2.56154 0 2.19231
      vertex 10.8991 1.19162 2.19231
    endloop
  endfacet
  facet normal 0 0 -1
    outer loop
      vertex 2.39899 -0.974098 2.19231
      vertex 10.7124 -2.37019 2.19231
      vertex 10.4036 -3.52279 2.19231
    endloop
  endfacet
  facet normal -0 0 -1
    outer loop
      vertex 10.8991 1.19162 2.19231
      vertex 2.56154 0 2.19231
      vertex 10.7124 2.37019 2.19231
    endloop
  endfacet
  facet normal 0 0 -1
    outer loop
      vertex 2.39899 -0.974098 2.19231
      vertex 10.4036 -3.52279 2.19231
      vertex 9.97596 -4.6368 2.19231
    endloop
  endfacet
  facet normal 0 0 -1
    outer loop
      vertex 2.39899 0.974098 2.19231
      vertex 10.7124 2.37019 2.19231
      vertex 2.56154 0 2.19231
    endloop
  endfacet
  facet normal 0 0 -1
    outer loop
      vertex 2.39899 -0.974098 2.19231
      vertex 9.97596 -4.6368 2.19231
      vertex 9.43423 -5.7 2.19231
    endloop
  endfacet
  facet normal -0 0 -1
    outer loop
      vertex 10.7124 2.37019 2.19231
      vertex 2.39899 0.974098 2.19231
      vertex 10.4036 3.52279 2.19231
    endloop
  endfacet
  facet normal 0 0 -1
    outer loop
      vertex 1.92896 -1.84264 2.19231
      vertex 9.43423 -5.7 2.19231
      vertex 8.78433 -6.70075 2.19231
    endloop
  endfacet
  facet normal -0 0 -1
    outer loop
      vertex 10.4036 3.52279 2.19231
      vertex 2.39899 0.974098 2.19231
      vertex 9.97596 4.6368 2.19231
    endloop
  endfacet
  facet normal 0 0 -1
    outer loop
      vertex 1.92896 -1.84264 2.19231
      vertex 8.78433 -6.70075 2.19231
      vertex 8.03339 -7.62809 2.19231
    endloop
  endfacet
  facet normal -0 0 -1
    outer loop
      vertex 9.97596 4.6368 2.19231
      vertex 2.39899 0.974098 2.19231
      vertex 9.43423 5.7 2.19231
    endloop
  endfacet
  facet normal 0 0 -1
    outer loop
      vertex 1.92896 -1.84264 2.19231
      vertex 8.03339 -7.62809 2.19231
      vertex 7.18963 -8.47185 2.19231
    endloop
  endfacet
  facet normal 0 0 -1
    outer loop
      vertex 1.92896 1.84264 2.19231
      vertex 9.43423 5.7 2.19231
      vertex 2.39899 0.974098 2.19231
    endloop
  endfacet
  facet normal 0 0 -1
    outer loop
      vertex 1.20238 -2.5115 2.19231
      vertex 7.18963 -8.47185 2.19231
      vertex 6.26229 -9.22279 2.19231
    endloop
  endfacet
  facet normal -0 0 -1
    outer loop
      vertex 9.43423 5.7 2.19231
      vertex 1.92896 1.84264 2.19231
      vertex 8.78433 6.70075 2.19231
    endloop
  endfacet
  facet normal 0 0 -1
    outer loop
      vertex 1.20238 -2.5115 2.19231
      vertex 6.26229 -9.22279 2.19231
      vertex 5.26154 -9.87269 2.19231
    endloop
  endfacet
  facet normal -0 0 -1
    outer loop
      vertex 8.78433 6.70075 2.19231
      vertex 1.92896 1.84264 2.19231
      vertex 8.03339 7.62809 2.19231
    endloop
  endfacet
  facet normal 0 0 -1
    outer loop
      vertex 1.20238 -2.5115 2.19231
      vertex 5.26154 -9.87269 2.19231
      vertex 4.19834 -10.4144 2.19231
    endloop
  endfacet
  facet normal -0 0 -1
    outer loop
      vertex 8.03339 7.62809 2.19231
      vertex 1.92896 1.84264 2.19231
      vertex 7.18963 8.47185 2.19231
    endloop
  endfacet
  facet normal 0 0 -1
    outer loop
      vertex 0.297994 -2.9082 2.19231
      vertex 4.19834 -10.4144 2.19231
      vertex 3.08433 -10.842 2.19231
    endloop
  endfacet
  facet normal 0 0 -1
    outer loop
      vertex 1.20238 2.5115 2.19231
      vertex 7.18963 8.47185 2.19231
      vertex 1.92896 1.84264 2.19231
    endloop
  endfacet
  facet normal -0 0 -1
    outer loop
      vertex 7.18963 8.47185 2.19231
      vertex 1.20238 2.5115 2.19231
      vertex 6.26229 9.22279 2.19231
    endloop
  endfacet
  facet normal 0 0 -1
    outer loop
      vertex 10.7124 -2.37019 2.19231
      vertex 2.39899 -0.974098 2.19231
      vertex 2.56154 0 2.19231
    endloop
  endfacet
  facet normal 0 0 -1
    outer loop
      vertex 0.297994 -2.9082 2.19231
      vertex 3.08433 -10.842 2.19231
      vertex 1.93173 -11.1509 2.19231
    endloop
  endfacet
  facet normal 0 0 -1
    outer loop
      vertex 9.43423 -5.7 2.19231
      vertex 1.92896 -1.84264 2.19231
      vertex 2.39899 -0.974098 2.19231
    endloop
  endfacet
  facet normal 0 0 -1
    outer loop
      vertex 7.18963 -8.47185 2.19231
      vertex 1.20238 -2.5115 2.19231
      vertex 1.92896 -1.84264 2.19231
    endloop
  endfacet
  facet normal 0 0 -1
    outer loop
      vertex 0.297994 -2.9082 2.19231
      vertex 1.93173 -11.1509 2.19231
      vertex 0.753162 -11.3375 2.19231
    endloop
  endfacet
  facet normal 0 0 -1
    outer loop
      vertex 4.19834 -10.4144 2.19231
      vertex 0.297994 -2.9082 2.19231
      vertex 1.20238 -2.5115 2.19231
    endloop
  endfacet
  facet normal 0 0 -1
    outer loop
      vertex -0.686199 -2.98975 2.19231
      vertex 0.753162 -11.3375 2.19231
      vertex -0.438462 -11.4 2.19231
    endloop
  endfacet
  facet normal 0 0 -1
    outer loop
      vertex 0.753162 -11.3375 2.19231
      vertex -0.686199 -2.98975 2.19231
      vertex 0.297994 -2.9082 2.19231
    endloop
  endfacet
  facet normal 0 0 -1
    outer loop
      vertex -1.63009 -11.3375 2.19231
      vertex -0.686199 -2.98975 2.19231
      vertex -0.438462 -11.4 2.19231
    endloop
  endfacet
  facet normal 0 0 -1
    outer loop
      vertex -2.80865 -11.1509 2.19231
      vertex -0.686199 -2.98975 2.19231
      vertex -1.63009 -11.3375 2.19231
    endloop
  endfacet
  facet normal -0 0 -1
    outer loop
      vertex -0.686199 -2.98975 2.19231
      vertex -2.80865 -11.1509 2.19231
      vertex -1.64355 -2.74732 2.19231
    endloop
  endfacet
  facet normal 0 0 -1
    outer loop
      vertex -3.96125 -10.842 2.19231
      vertex -1.64355 -2.74732 2.19231
      vertex -2.80865 -11.1509 2.19231
    endloop
  endfacet
  facet normal 0 0 -1
    outer loop
      vertex -5.07526 -10.4144 2.19231
      vertex -1.64355 -2.74732 2.19231
      vertex -3.96125 -10.842 2.19231
    endloop
  endfacet
  facet normal 0 0 -1
    outer loop
      vertex -6.13846 -9.87269 2.19231
      vertex -1.64355 -2.74732 2.19231
      vertex -5.07526 -10.4144 2.19231
    endloop
  endfacet
  facet normal 0 0 -1
    outer loop
      vertex -7.13921 -9.22279 2.19231
      vertex -2.47031 -2.20717 2.19231
      vertex -6.13846 -9.87269 2.19231
    endloop
  endfacet
  facet normal -0 0 -1
    outer loop
      vertex -1.64355 -2.74732 2.19231
      vertex -6.13846 -9.87269 2.19231
      vertex -2.47031 -2.20717 2.19231
    endloop
  endfacet
  facet normal -0 0 -1
    outer loop
      vertex 6.26229 9.22279 2.19231
      vertex 1.20238 2.5115 2.19231
      vertex 5.26154 9.87269 2.19231
    endloop
  endfacet
  facet normal -0 0 -1
    outer loop
      vertex 5.26154 9.87269 2.19231
      vertex 1.20238 2.5115 2.19231
      vertex 4.19834 10.4144 2.19231
    endloop
  endfacet
  facet normal 0 0 -1
    outer loop
      vertex 0.297994 2.9082 2.19231
      vertex 4.19834 10.4144 2.19231
      vertex 1.20238 2.5115 2.19231
    endloop
  endfacet
  facet normal -0 0 -1
    outer loop
      vertex 4.19834 10.4144 2.19231
      vertex 0.297994 2.9082 2.19231
      vertex 3.08433 10.842 2.19231
    endloop
  endfacet
  facet normal -0 0 -1
    outer loop
      vertex 3.08433 10.842 2.19231
      vertex 0.297994 2.9082 2.19231
      vertex 1.93173 11.1509 2.19231
    endloop
  endfacet
  facet normal -0 0 -1
    outer loop
      vertex 1.93173 11.1509 2.19231
      vertex 0.297994 2.9082 2.19231
      vertex 0.753162 11.3375 2.19231
    endloop
  endfacet
  facet normal 0 0 -1
    outer loop
      vertex -0.686199 2.98975 2.19231
      vertex 0.753162 11.3375 2.19231
      vertex 0.297994 2.9082 2.19231
    endloop
  endfacet
  facet normal -0 0 -1
    outer loop
      vertex 0.753162 11.3375 2.19231
      vertex -0.686199 2.98975 2.19231
      vertex -0.438462 11.4 2.19231
    endloop
  endfacet
  facet normal 0 0 -1
    outer loop
      vertex -0.686199 2.98975 2.19231
      vertex -1.63009 11.3375 2.19231
      vertex -0.438462 11.4 2.19231
    endloop
  endfacet
  facet normal 0 0 -1
    outer loop
      vertex -2.80865 11.1509 2.19231
      vertex -0.686199 2.98975 2.19231
      vertex -1.64355 2.74732 2.19231
    endloop
  endfacet
  facet normal 0 0 -1
    outer loop
      vertex -6.13846 9.87269 2.19231
      vertex -1.64355 2.74732 2.19231
      vertex -2.47031 2.20717 2.19231
    endloop
  endfacet
  facet normal 0 0 -1
    outer loop
      vertex -0.686199 2.98975 2.19231
      vertex -2.80865 11.1509 2.19231
      vertex -1.63009 11.3375 2.19231
    endloop
  endfacet
  facet normal 0 0 -1
    outer loop
      vertex -9.66125 6.70075 2.19231
      vertex -2.47031 2.20717 2.19231
      vertex -3.07688 1.42784 2.19231
    endloop
  endfacet
  facet normal 0 0 -1
    outer loop
      vertex -11.2805 3.52279 2.19231
      vertex -3.07688 1.42784 2.19231
      vertex -3.39755 0.493783 2.19231
    endloop
  endfacet
  facet normal 0 0 -1
    outer loop
      vertex -1.64355 2.74732 2.19231
      vertex -3.96125 10.842 2.19231
      vertex -2.80865 11.1509 2.19231
    endloop
  endfacet
  facet normal 0 0 -1
    outer loop
      vertex -8.06655 -8.47185 2.19231
      vertex -2.47031 -2.20717 2.19231
      vertex -7.13921 -9.22279 2.19231
    endloop
  endfacet
  facet normal 0 0 -1
    outer loop
      vertex -8.91031 -7.62809 2.19231
      vertex -2.47031 -2.20717 2.19231
      vertex -8.06655 -8.47185 2.19231
    endloop
  endfacet
  facet normal 0 0 -1
    outer loop
      vertex -1.64355 2.74732 2.19231
      vertex -5.07526 10.4144 2.19231
      vertex -3.96125 10.842 2.19231
    endloop
  endfacet
  facet normal 0 0 -1
    outer loop
      vertex -9.66125 -6.70075 2.19231
      vertex -2.47031 -2.20717 2.19231
      vertex -8.91031 -7.62809 2.19231
    endloop
  endfacet
  facet normal 0 0 -1
    outer loop
      vertex -1.64355 2.74732 2.19231
      vertex -6.13846 9.87269 2.19231
      vertex -5.07526 10.4144 2.19231
    endloop
  endfacet
  facet normal -0 0 -1
    outer loop
      vertex -2.47031 -2.20717 2.19231
      vertex -9.66125 -6.70075 2.19231
      vertex -3.07688 -1.42784 2.19231
    endloop
  endfacet
  facet normal 0 0 -1
    outer loop
      vertex -2.47031 2.20717 2.19231
      vertex -7.13921 9.22279 2.19231
      vertex -6.13846 9.87269 2.19231
    endloop
  endfacet
  facet normal 0 0 -1
    outer loop
      vertex -10.3112 -5.7 2.19231
      vertex -3.07688 -1.42784 2.19231
      vertex -9.66125 -6.70075 2.19231
    endloop
  endfacet
  facet normal 0 0 -1
    outer loop
      vertex -2.47031 2.20717 2.19231
      vertex -8.06655 8.47185 2.19231
      vertex -7.13921 9.22279 2.19231
    endloop
  endfacet
  facet normal 0 0 -1
    outer loop
      vertex -10.8529 -4.6368 2.19231
      vertex -3.07688 -1.42784 2.19231
      vertex -10.3112 -5.7 2.19231
    endloop
  endfacet
  facet normal 0 0 -1
    outer loop
      vertex -2.47031 2.20717 2.19231
      vertex -8.91031 7.62809 2.19231
      vertex -8.06655 8.47185 2.19231
    endloop
  endfacet
  facet normal 0 0 -1
    outer loop
      vertex -11.2805 -3.52279 2.19231
      vertex -3.07688 -1.42784 2.19231
      vertex -10.8529 -4.6368 2.19231
    endloop
  endfacet
  facet normal 0 0 -1
    outer loop
      vertex -2.47031 2.20717 2.19231
      vertex -9.66125 6.70075 2.19231
      vertex -8.91031 7.62809 2.19231
    endloop
  endfacet
  facet normal -0 0 -1
    outer loop
      vertex -3.07688 -1.42784 2.19231
      vertex -11.2805 -3.52279 2.19231
      vertex -3.39755 -0.493783 2.19231
    endloop
  endfacet
  facet normal 0 0 -1
    outer loop
      vertex -3.07688 1.42784 2.19231
      vertex -10.3112 5.7 2.19231
      vertex -9.66125 6.70075 2.19231
    endloop
  endfacet
  facet normal 0 0 -1
    outer loop
      vertex -11.5893 -2.37019 2.19231
      vertex -3.39755 -0.493783 2.19231
      vertex -11.2805 -3.52279 2.19231
    endloop
  endfacet
  facet normal 0 0 -1
    outer loop
      vertex -3.07688 1.42784 2.19231
      vertex -10.8529 4.6368 2.19231
      vertex -10.3112 5.7 2.19231
    endloop
  endfacet
  facet normal 0 0 -1
    outer loop
      vertex -11.776 -1.19162 2.19231
      vertex -3.39755 -0.493783 2.19231
      vertex -11.5893 -2.37019 2.19231
    endloop
  endfacet
  facet normal 0 0 -1
    outer loop
      vertex -3.07688 1.42784 2.19231
      vertex -11.2805 3.52279 2.19231
      vertex -10.8529 4.6368 2.19231
    endloop
  endfacet
  facet normal 0 0 -1
    outer loop
      vertex -11.8385 -7.93316e-05 2.19231
      vertex -3.39755 -0.493783 2.19231
      vertex -11.776 -1.19162 2.19231
    endloop
  endfacet
  facet normal 0 0 -1
    outer loop
      vertex -3.39755 0.493783 2.19231
      vertex -11.5893 2.37019 2.19231
      vertex -11.2805 3.52279 2.19231
    endloop
  endfacet
  facet normal 0 0 -1
    outer loop
      vertex -3.39755 -0.493783 2.19231
      vertex -11.8385 -7.93316e-05 2.19231
      vertex -3.39755 0.493783 2.19231
    endloop
  endfacet
  facet normal 0 0 -1
    outer loop
      vertex -3.39755 0.493783 2.19231
      vertex -11.776 1.19162 2.19231
      vertex -11.5893 2.37019 2.19231
    endloop
  endfacet
  facet normal 0 0 -1
    outer loop
      vertex -11.8385 7.93316e-05 2.19231
      vertex -3.39755 0.493783 2.19231
      vertex -11.8385 -7.93316e-05 2.19231
    endloop
  endfacet
  facet normal -0 0 -1
    outer loop
      vertex -3.39755 0.493783 2.19231
      vertex -11.8385 7.93316e-05 2.19231
      vertex -11.776 1.19162 2.19231
    endloop
  endfacet
  facet normal 0.891007 0.45399 -0
    outer loop
      vertex 9.97596 4.6368 2.19231
      vertex 9.43423 5.7 6.44684
      vertex 9.97596 4.6368 6.55519
    endloop
  endfacet
  facet normal 0.891007 0.45399 0
    outer loop
      vertex 9.43423 5.7 6.44684
      vertex 9.97596 4.6368 2.19231
      vertex 9.43423 5.7 2.19231
    endloop
  endfacet
  facet normal 0.838671 0.544639 -0
    outer loop
      vertex 9.43423 5.7 2.19231
      vertex 8.78433 6.70075 6.31687
      vertex 9.43423 5.7 6.44684
    endloop
  endfacet
  facet normal 0.838671 0.544639 0
    outer loop
      vertex 8.78433 6.70075 6.31687
      vertex 9.43423 5.7 2.19231
      vertex 8.78433 6.70075 2.19231
    endloop
  endfacet
  facet normal 0.358368 0.93358 -0
    outer loop
      vertex 4.19834 10.4144 2.19231
      vertex 3.08433 10.842 5.17687
      vertex 4.19834 10.4144 5.39967
    endloop
  endfacet
  facet normal 0.358368 0.93358 0
    outer loop
      vertex 3.08433 10.842 5.17687
      vertex 4.19834 10.4144 2.19231
      vertex 3.08433 10.842 2.19231
    endloop
  endfacet
  facet normal -0.838671 0.544639 0
    outer loop
      vertex -10.3112 5.7 2.49777
      vertex -9.66125 6.70075 2.19231
      vertex -10.3112 5.7 2.19231
    endloop
  endfacet
  facet normal -0.838671 0.544639 0
    outer loop
      vertex -9.66125 6.70075 2.19231
      vertex -10.3112 5.7 2.49777
      vertex -9.66125 6.70075 2.62775
    endloop
  endfacet
  facet normal -0.777146 0.629321 0
    outer loop
      vertex -9.66125 6.70075 2.62775
      vertex -8.91031 7.62809 2.19231
      vertex -9.66125 6.70075 2.19231
    endloop
  endfacet
  facet normal -0.777146 0.629321 0
    outer loop
      vertex -8.91031 7.62809 2.19231
      vertex -9.66125 6.70075 2.62775
      vertex -8.91031 7.62809 2.77794
    endloop
  endfacet
  facet normal -0.052336 0.99863 0
    outer loop
      vertex -0.438462 11.4 2.19231
      vertex -1.63009 11.3375 4.23398
      vertex -0.438462 11.4 4.47231
    endloop
  endfacet
  facet normal -0.052336 0.99863 0
    outer loop
      vertex -1.63009 11.3375 4.23398
      vertex -0.438462 11.4 2.19231
      vertex -1.63009 11.3375 2.19231
    endloop
  endfacet
  facet normal 0.891007 -0.45399 0
    outer loop
      vertex 9.43423 -5.7 6.44684
      vertex 9.97596 -4.6368 2.19231
      vertex 9.97596 -4.6368 6.55519
    endloop
  endfacet
  facet normal 0.891007 -0.45399 0
    outer loop
      vertex 9.97596 -4.6368 2.19231
      vertex 9.43423 -5.7 6.44684
      vertex 9.43423 -5.7 2.19231
    endloop
  endfacet
  facet normal 0.258819 -0.965926 0
    outer loop
      vertex 3.08433 -10.842 2.19231
      vertex 1.93173 -11.1509 4.94635
      vertex 1.93173 -11.1509 2.19231
    endloop
  endfacet
  facet normal 0.258819 -0.965926 0
    outer loop
      vertex 1.93173 -11.1509 4.94635
      vertex 3.08433 -10.842 2.19231
      vertex 3.08433 -10.842 5.17687
    endloop
  endfacet
  facet normal 0.707107 -0.707107 0
    outer loop
      vertex 7.18963 -8.47185 5.99792
      vertex 8.03339 -7.62809 2.19231
      vertex 8.03339 -7.62809 6.16668
    endloop
  endfacet
  facet normal 0.707107 -0.707107 0
    outer loop
      vertex 8.03339 -7.62809 2.19231
      vertex 7.18963 -8.47185 5.99792
      vertex 7.18963 -8.47185 2.19231
    endloop
  endfacet
  facet normal 0.965926 -0.258819 0
    outer loop
      vertex 10.4036 -3.52279 6.64072
      vertex 10.7124 -2.37019 2.19231
      vertex 10.7124 -2.37019 6.70248
    endloop
  endfacet
  facet normal 0.965926 -0.258819 0
    outer loop
      vertex 10.7124 -2.37019 2.19231
      vertex 10.4036 -3.52279 6.64072
      vertex 10.4036 -3.52279 2.19231
    endloop
  endfacet
  facet normal -0.358368 -0.93358 0
    outer loop
      vertex -3.96125 -10.842 2.19231
      vertex -5.07526 -10.4144 3.54495
      vertex -5.07526 -10.4144 2.19231
    endloop
  endfacet
  facet normal -0.358368 -0.93358 0
    outer loop
      vertex -5.07526 -10.4144 3.54495
      vertex -3.96125 -10.842 2.19231
      vertex -3.96125 -10.842 3.76775
    endloop
  endfacet
  facet normal -0.777146 -0.629321 0
    outer loop
      vertex -8.91031 -7.62809 2.19231
      vertex -9.66125 -6.70075 2.62775
      vertex -9.66125 -6.70075 2.19231
    endloop
  endfacet
  facet normal -0.777146 -0.629321 0
    outer loop
      vertex -9.66125 -6.70075 2.62775
      vertex -8.91031 -7.62809 2.19231
      vertex -8.91031 -7.62809 2.77794
    endloop
  endfacet
  facet normal -0.838671 -0.544639 0
    outer loop
      vertex -9.66125 -6.70075 2.19231
      vertex -10.3112 -5.7 2.49777
      vertex -10.3112 -5.7 2.19231
    endloop
  endfacet
  facet normal -0.838671 -0.544639 0
    outer loop
      vertex -10.3112 -5.7 2.49777
      vertex -9.66125 -6.70075 2.19231
      vertex -9.66125 -6.70075 2.62775
    endloop
  endfacet
  facet normal -0.99863 -0.0523363 -0
    outer loop
      vertex -11.776 -1.19162 2.2048
      vertex -11.8385 -7.93316e-05 2.19231
      vertex -11.776 -1.19162 2.19231
    endloop
  endfacet
  facet normal 0.965926 0.258819 -0
    outer loop
      vertex 10.7124 2.37019 2.19231
      vertex 10.4036 3.52279 6.64072
      vertex 10.7124 2.37019 6.70248
    endloop
  endfacet
  facet normal 0.965926 0.258819 0
    outer loop
      vertex 10.4036 3.52279 6.64072
      vertex 10.7124 2.37019 2.19231
      vertex 10.4036 3.52279 2.19231
    endloop
  endfacet
  facet normal 0.987688 0.156435 -0
    outer loop
      vertex 10.8991 1.19162 2.19231
      vertex 10.7124 2.37019 6.70248
      vertex 10.8991 1.19162 6.73982
    endloop
  endfacet
  facet normal 0.987688 0.156435 0
    outer loop
      vertex 10.7124 2.37019 6.70248
      vertex 10.8991 1.19162 2.19231
      vertex 10.7124 2.37019 2.19231
    endloop
  endfacet
  facet normal 0.93358 0.358368 -0
    outer loop
      vertex 10.4036 3.52279 2.19231
      vertex 9.97596 4.6368 6.55519
      vertex 10.4036 3.52279 6.64072
    endloop
  endfacet
  facet normal 0.93358 0.358368 0
    outer loop
      vertex 9.97596 4.6368 6.55519
      vertex 10.4036 3.52279 2.19231
      vertex 9.97596 4.6368 2.19231
    endloop
  endfacet
  facet normal 0.156435 0.987688 -0
    outer loop
      vertex 1.93173 11.1509 2.19231
      vertex 0.753162 11.3375 4.71063
      vertex 1.93173 11.1509 4.94635
    endloop
  endfacet
  facet normal 0.156435 0.987688 0
    outer loop
      vertex 0.753162 11.3375 4.71063
      vertex 1.93173 11.1509 2.19231
      vertex 0.753162 11.3375 2.19231
    endloop
  endfacet
  facet normal 0.544639 0.838671 -0
    outer loop
      vertex 6.26229 9.22279 2.19231
      vertex 5.26154 9.87269 5.61231
      vertex 6.26229 9.22279 5.81246
    endloop
  endfacet
  facet normal 0.544639 0.838671 0
    outer loop
      vertex 5.26154 9.87269 5.61231
      vertex 6.26229 9.22279 2.19231
      vertex 5.26154 9.87269 2.19231
    endloop
  endfacet
  facet normal 0.629321 0.777146 -0
    outer loop
      vertex 7.18963 8.47185 2.19231
      vertex 6.26229 9.22279 5.81246
      vertex 7.18963 8.47185 5.99792
    endloop
  endfacet
  facet normal 0.629321 0.777146 0
    outer loop
      vertex 6.26229 9.22279 5.81246
      vertex 7.18963 8.47185 2.19231
      vertex 6.26229 9.22279 2.19231
    endloop
  endfacet
  facet normal -0.965926 0.258819 0
    outer loop
      vertex -11.5893 2.37019 2.24213
      vertex -11.2805 3.52279 2.19231
      vertex -11.5893 2.37019 2.19231
    endloop
  endfacet
  facet normal -0.965926 0.258819 0
    outer loop
      vertex -11.2805 3.52279 2.19231
      vertex -11.5893 2.37019 2.24213
      vertex -11.2805 3.52279 2.3039
    endloop
  endfacet
  facet normal -0.707107 0.707107 0
    outer loop
      vertex -8.91031 7.62809 2.77794
      vertex -8.06655 8.47185 2.19231
      vertex -8.91031 7.62809 2.19231
    endloop
  endfacet
  facet normal -0.707107 0.707107 0
    outer loop
      vertex -8.06655 8.47185 2.19231
      vertex -8.91031 7.62809 2.77794
      vertex -8.06655 8.47185 2.94669
    endloop
  endfacet
  facet normal -0.891007 0.45399 0
    outer loop
      vertex -10.8529 4.6368 2.38942
      vertex -10.3112 5.7 2.19231
      vertex -10.8529 4.6368 2.19231
    endloop
  endfacet
  facet normal -0.891007 0.45399 0
    outer loop
      vertex -10.3112 5.7 2.19231
      vertex -10.8529 4.6368 2.38942
      vertex -10.3112 5.7 2.49777
    endloop
  endfacet
  facet normal -0.987688 0.156435 0
    outer loop
      vertex -11.776 1.19162 2.2048
      vertex -11.5893 2.37019 2.19231
      vertex -11.776 1.19162 2.19231
    endloop
  endfacet
  facet normal -0.987688 0.156435 0
    outer loop
      vertex -11.5893 2.37019 2.19231
      vertex -11.776 1.19162 2.2048
      vertex -11.5893 2.37019 2.24213
    endloop
  endfacet
  facet normal -0.358368 0.93358 0
    outer loop
      vertex -3.96125 10.842 2.19231
      vertex -5.07526 10.4144 3.54495
      vertex -3.96125 10.842 3.76775
    endloop
  endfacet
  facet normal -0.358368 0.93358 0
    outer loop
      vertex -5.07526 10.4144 3.54495
      vertex -3.96125 10.842 2.19231
      vertex -5.07526 10.4144 2.19231
    endloop
  endfacet
  facet normal -0.45399 0.891007 0
    outer loop
      vertex -5.07526 10.4144 2.19231
      vertex -6.13846 9.87269 3.33231
      vertex -5.07526 10.4144 3.54495
    endloop
  endfacet
  facet normal -0.45399 0.891007 0
    outer loop
      vertex -6.13846 9.87269 3.33231
      vertex -5.07526 10.4144 2.19231
      vertex -6.13846 9.87269 2.19231
    endloop
  endfacet
  facet normal 0.052336 -0.99863 0
    outer loop
      vertex 0.753162 -11.3375 2.19231
      vertex -0.438462 -11.4 4.47231
      vertex -0.438462 -11.4 2.19231
    endloop
  endfacet
  facet normal 0.052336 -0.99863 0
    outer loop
      vertex -0.438462 -11.4 4.47231
      vertex 0.753162 -11.3375 2.19231
      vertex 0.753162 -11.3375 4.71063
    endloop
  endfacet
  facet normal 0.45399 -0.891007 0
    outer loop
      vertex 5.26154 -9.87269 2.19231
      vertex 4.19834 -10.4144 5.39967
      vertex 4.19834 -10.4144 2.19231
    endloop
  endfacet
  facet normal 0.45399 -0.891007 0
    outer loop
      vertex 4.19834 -10.4144 5.39967
      vertex 5.26154 -9.87269 2.19231
      vertex 5.26154 -9.87269 5.61231
    endloop
  endfacet
  facet normal 0.629321 -0.777146 0
    outer loop
      vertex 7.18963 -8.47185 2.19231
      vertex 6.26229 -9.22279 5.81246
      vertex 6.26229 -9.22279 2.19231
    endloop
  endfacet
  facet normal 0.629321 -0.777146 0
    outer loop
      vertex 6.26229 -9.22279 5.81246
      vertex 7.18963 -8.47185 2.19231
      vertex 7.18963 -8.47185 5.99792
    endloop
  endfacet
  facet normal 0.544639 -0.838671 0
    outer loop
      vertex 6.26229 -9.22279 2.19231
      vertex 5.26154 -9.87269 5.61231
      vertex 5.26154 -9.87269 2.19231
    endloop
  endfacet
  facet normal 0.544639 -0.838671 0
    outer loop
      vertex 5.26154 -9.87269 5.61231
      vertex 6.26229 -9.22279 2.19231
      vertex 6.26229 -9.22279 5.81246
    endloop
  endfacet
  facet normal 0.777146 -0.629321 0
    outer loop
      vertex 8.03339 -7.62809 6.16668
      vertex 8.78433 -6.70075 2.19231
      vertex 8.78433 -6.70075 6.31687
    endloop
  endfacet
  facet normal 0.777146 -0.629321 0
    outer loop
      vertex 8.78433 -6.70075 2.19231
      vertex 8.03339 -7.62809 6.16668
      vertex 8.03339 -7.62809 2.19231
    endloop
  endfacet
  facet normal 0.838671 -0.544639 0
    outer loop
      vertex 8.78433 -6.70075 6.31687
      vertex 9.43423 -5.7 2.19231
      vertex 9.43423 -5.7 6.44684
    endloop
  endfacet
  facet normal 0.838671 -0.544639 0
    outer loop
      vertex 9.43423 -5.7 2.19231
      vertex 8.78433 -6.70075 6.31687
      vertex 8.78433 -6.70075 2.19231
    endloop
  endfacet
  facet normal -0.707107 -0.707107 0
    outer loop
      vertex -8.06655 -8.47185 2.19231
      vertex -8.91031 -7.62809 2.77794
      vertex -8.91031 -7.62809 2.19231
    endloop
  endfacet
  facet normal -0.707107 -0.707107 0
    outer loop
      vertex -8.91031 -7.62809 2.77794
      vertex -8.06655 -8.47185 2.19231
      vertex -8.06655 -8.47185 2.94669
    endloop
  endfacet
  facet normal -0.629321 -0.777146 0
    outer loop
      vertex -7.13921 -9.22279 2.19231
      vertex -8.06655 -8.47185 2.94669
      vertex -8.06655 -8.47185 2.19231
    endloop
  endfacet
  facet normal -0.629321 -0.777146 0
    outer loop
      vertex -8.06655 -8.47185 2.94669
      vertex -7.13921 -9.22279 2.19231
      vertex -7.13921 -9.22279 3.13216
    endloop
  endfacet
  facet normal -0.544639 -0.838671 0
    outer loop
      vertex -6.13846 -9.87269 2.19231
      vertex -7.13921 -9.22279 3.13216
      vertex -7.13921 -9.22279 2.19231
    endloop
  endfacet
  facet normal -0.544639 -0.838671 0
    outer loop
      vertex -7.13921 -9.22279 3.13216
      vertex -6.13846 -9.87269 2.19231
      vertex -6.13846 -9.87269 3.33231
    endloop
  endfacet
  facet normal -0.156435 -0.987688 0
    outer loop
      vertex -1.63009 -11.3375 2.19231
      vertex -2.80865 -11.1509 3.99827
      vertex -2.80865 -11.1509 2.19231
    endloop
  endfacet
  facet normal -0.156435 -0.987688 0
    outer loop
      vertex -2.80865 -11.1509 3.99827
      vertex -1.63009 -11.3375 2.19231
      vertex -1.63009 -11.3375 4.23398
    endloop
  endfacet
  facet normal -0.93358 -0.358368 0
    outer loop
      vertex -10.8529 -4.6368 2.19231
      vertex -11.2805 -3.52279 2.3039
      vertex -11.2805 -3.52279 2.19231
    endloop
  endfacet
  facet normal -0.93358 -0.358368 0
    outer loop
      vertex -11.2805 -3.52279 2.3039
      vertex -10.8529 -4.6368 2.19231
      vertex -10.8529 -4.6368 2.38942
    endloop
  endfacet
  facet normal -0.965926 -0.258819 0
    outer loop
      vertex -11.2805 -3.52279 2.19231
      vertex -11.5893 -2.37019 2.24213
      vertex -11.5893 -2.37019 2.19231
    endloop
  endfacet
  facet normal -0.965926 -0.258819 0
    outer loop
      vertex -11.5893 -2.37019 2.24213
      vertex -11.2805 -3.52279 2.19231
      vertex -11.2805 -3.52279 2.3039
    endloop
  endfacet
  facet normal 0.777146 0.629321 -0
    outer loop
      vertex 8.78433 6.70075 2.19231
      vertex 8.03339 7.62809 6.16668
      vertex 8.78433 6.70075 6.31687
    endloop
  endfacet
  facet normal 0.777146 0.629321 0
    outer loop
      vertex 8.03339 7.62809 6.16668
      vertex 8.78433 6.70075 2.19231
      vertex 8.03339 7.62809 2.19231
    endloop
  endfacet
  facet normal 0.258819 0.965926 -0
    outer loop
      vertex 3.08433 10.842 2.19231
      vertex 1.93173 11.1509 4.94635
      vertex 3.08433 10.842 5.17687
    endloop
  endfacet
  facet normal 0.258819 0.965926 0
    outer loop
      vertex 1.93173 11.1509 4.94635
      vertex 3.08433 10.842 2.19231
      vertex 1.93173 11.1509 2.19231
    endloop
  endfacet
  facet normal 0.45399 0.891007 -0
    outer loop
      vertex 5.26154 9.87269 2.19231
      vertex 4.19834 10.4144 5.39967
      vertex 5.26154 9.87269 5.61231
    endloop
  endfacet
  facet normal 0.45399 0.891007 0
    outer loop
      vertex 4.19834 10.4144 5.39967
      vertex 5.26154 9.87269 2.19231
      vertex 4.19834 10.4144 2.19231
    endloop
  endfacet
  facet normal -0.93358 0.358368 0
    outer loop
      vertex -11.2805 3.52279 2.3039
      vertex -10.8529 4.6368 2.19231
      vertex -11.2805 3.52279 2.19231
    endloop
  endfacet
  facet normal -0.93358 0.358368 0
    outer loop
      vertex -10.8529 4.6368 2.19231
      vertex -11.2805 3.52279 2.3039
      vertex -10.8529 4.6368 2.38942
    endloop
  endfacet
  facet normal -0.544639 0.838671 0
    outer loop
      vertex -6.13846 9.87269 2.19231
      vertex -7.13921 9.22279 3.13216
      vertex -6.13846 9.87269 3.33231
    endloop
  endfacet
  facet normal -0.544639 0.838671 0
    outer loop
      vertex -7.13921 9.22279 3.13216
      vertex -6.13846 9.87269 2.19231
      vertex -7.13921 9.22279 2.19231
    endloop
  endfacet
  facet normal -0.156435 0.987688 0
    outer loop
      vertex -1.63009 11.3375 2.19231
      vertex -2.80865 11.1509 3.99827
      vertex -1.63009 11.3375 4.23398
    endloop
  endfacet
  facet normal -0.156435 0.987688 0
    outer loop
      vertex -2.80865 11.1509 3.99827
      vertex -1.63009 11.3375 2.19231
      vertex -2.80865 11.1509 2.19231
    endloop
  endfacet
  facet normal 0.156435 -0.987688 0
    outer loop
      vertex 1.93173 -11.1509 2.19231
      vertex 0.753162 -11.3375 4.71063
      vertex 0.753162 -11.3375 2.19231
    endloop
  endfacet
  facet normal 0.156435 -0.987688 0
    outer loop
      vertex 0.753162 -11.3375 4.71063
      vertex 1.93173 -11.1509 2.19231
      vertex 1.93173 -11.1509 4.94635
    endloop
  endfacet
  facet normal 0.358368 -0.93358 0
    outer loop
      vertex 4.19834 -10.4144 2.19231
      vertex 3.08433 -10.842 5.17687
      vertex 3.08433 -10.842 2.19231
    endloop
  endfacet
  facet normal 0.358368 -0.93358 0
    outer loop
      vertex 3.08433 -10.842 5.17687
      vertex 4.19834 -10.4144 2.19231
      vertex 4.19834 -10.4144 5.39967
    endloop
  endfacet
  facet normal 0.93358 -0.358368 0
    outer loop
      vertex 9.97596 -4.6368 6.55519
      vertex 10.4036 -3.52279 2.19231
      vertex 10.4036 -3.52279 6.64072
    endloop
  endfacet
  facet normal 0.93358 -0.358368 0
    outer loop
      vertex 10.4036 -3.52279 2.19231
      vertex 9.97596 -4.6368 6.55519
      vertex 9.97596 -4.6368 2.19231
    endloop
  endfacet
  facet normal 0.987688 -0.156435 0
    outer loop
      vertex 10.7124 -2.37019 6.70248
      vertex 10.8991 -1.19162 2.19231
      vertex 10.8991 -1.19162 6.73982
    endloop
  endfacet
  facet normal 0.987688 -0.156435 0
    outer loop
      vertex 10.8991 -1.19162 2.19231
      vertex 10.7124 -2.37019 6.70248
      vertex 10.7124 -2.37019 2.19231
    endloop
  endfacet
  facet normal 0.99863 -0.052336 0
    outer loop
      vertex 10.8991 -1.19162 6.73982
      vertex 10.9615 0 2.19231
      vertex 10.9615 0 6.75231
    endloop
  endfacet
  facet normal 0.99863 -0.052336 0
    outer loop
      vertex 10.9615 0 2.19231
      vertex 10.8991 -1.19162 6.73982
      vertex 10.8991 -1.19162 2.19231
    endloop
  endfacet
  facet normal -0.45399 -0.891007 0
    outer loop
      vertex -5.07526 -10.4144 2.19231
      vertex -6.13846 -9.87269 3.33231
      vertex -6.13846 -9.87269 2.19231
    endloop
  endfacet
  facet normal -0.45399 -0.891007 0
    outer loop
      vertex -6.13846 -9.87269 3.33231
      vertex -5.07526 -10.4144 2.19231
      vertex -5.07526 -10.4144 3.54495
    endloop
  endfacet
  facet normal -0.258819 -0.965926 0
    outer loop
      vertex -2.80865 -11.1509 2.19231
      vertex -3.96125 -10.842 3.76775
      vertex -3.96125 -10.842 2.19231
    endloop
  endfacet
  facet normal -0.258819 -0.965926 0
    outer loop
      vertex -3.96125 -10.842 3.76775
      vertex -2.80865 -11.1509 2.19231
      vertex -2.80865 -11.1509 3.99827
    endloop
  endfacet
  facet normal -0.052336 -0.99863 0
    outer loop
      vertex -0.438462 -11.4 2.19231
      vertex -1.63009 -11.3375 4.23398
      vertex -1.63009 -11.3375 2.19231
    endloop
  endfacet
  facet normal -0.052336 -0.99863 0
    outer loop
      vertex -1.63009 -11.3375 4.23398
      vertex -0.438462 -11.4 2.19231
      vertex -0.438462 -11.4 4.47231
    endloop
  endfacet
  facet normal -0.891007 -0.45399 0
    outer loop
      vertex -10.3112 -5.7 2.19231
      vertex -10.8529 -4.6368 2.38942
      vertex -10.8529 -4.6368 2.19231
    endloop
  endfacet
  facet normal -0.891007 -0.45399 0
    outer loop
      vertex -10.8529 -4.6368 2.38942
      vertex -10.3112 -5.7 2.19231
      vertex -10.3112 -5.7 2.49777
    endloop
  endfacet
  facet normal -0.986361 -0.164595 0
    outer loop
      vertex 2.56154 0 2.19231
      vertex 2.39899 0.974098 5.0398
      vertex 2.39899 0.974098 2.19231
    endloop
  endfacet
  facet normal -0.986361 -0.164595 0
    outer loop
      vertex 2.39899 0.974098 5.0398
      vertex 2.56154 0 2.19231
      vertex 2.56154 0 5.07231
    endloop
  endfacet
  facet normal 1 -0 0
    outer loop
      vertex -3.39755 -0.493783 3.88049
      vertex -3.39755 0.493783 2.19231
      vertex -3.39755 0.493783 3.88049
    endloop
  endfacet
  facet normal 1 0 0
    outer loop
      vertex -3.39755 0.493783 2.19231
      vertex -3.39755 -0.493783 3.88049
      vertex -3.39755 -0.493783 2.19231
    endloop
  endfacet
  facet normal -0.0825792 -0.996585 0
    outer loop
      vertex 0.297994 2.9082 2.19231
      vertex -0.686199 2.98975 4.42276
      vertex -0.686199 2.98975 2.19231
    endloop
  endfacet
  facet normal -0.0825792 -0.996585 0
    outer loop
      vertex -0.686199 2.98975 4.42276
      vertex 0.297994 2.9082 2.19231
      vertex 0.297994 2.9082 4.6196
    endloop
  endfacet
  facet normal -0.0825792 0.996585 0
    outer loop
      vertex 0.297994 -2.9082 2.19231
      vertex -0.686199 -2.98975 4.42276
      vertex 0.297994 -2.9082 4.6196
    endloop
  endfacet
  facet normal -0.0825792 0.996585 0
    outer loop
      vertex -0.686199 -2.98975 4.42276
      vertex 0.297994 -2.9082 2.19231
      vertex -0.686199 -2.98975 2.19231
    endloop
  endfacet
  facet normal -0.401695 0.915774 0
    outer loop
      vertex 1.20238 -2.5115 2.19231
      vertex 0.297994 -2.9082 4.6196
      vertex 1.20238 -2.5115 4.80048
    endloop
  endfacet
  facet normal -0.401695 0.915774 0
    outer loop
      vertex 0.297994 -2.9082 4.6196
      vertex 1.20238 -2.5115 2.19231
      vertex 0.297994 -2.9082 2.19231
    endloop
  endfacet
  facet normal -0.677282 -0.735724 0
    outer loop
      vertex 1.92896 1.84264 2.19231
      vertex 1.20238 2.5115 4.80048
      vertex 1.20238 2.5115 2.19231
    endloop
  endfacet
  facet normal -0.677282 -0.735724 0
    outer loop
      vertex 1.20238 2.5115 4.80048
      vertex 1.92896 1.84264 2.19231
      vertex 1.92896 1.84264 4.94579
    endloop
  endfacet
  facet normal -0.879474 -0.475947 0
    outer loop
      vertex 2.39899 0.974098 2.19231
      vertex 1.92896 1.84264 4.94579
      vertex 1.92896 1.84264 2.19231
    endloop
  endfacet
  facet normal -0.879474 -0.475947 0
    outer loop
      vertex 1.92896 1.84264 4.94579
      vertex 2.39899 0.974098 2.19231
      vertex 2.39899 0.974098 5.0398
    endloop
  endfacet
  facet normal -0.401695 -0.915774 0
    outer loop
      vertex 1.20238 2.5115 2.19231
      vertex 0.297994 2.9082 4.6196
      vertex 0.297994 2.9082 2.19231
    endloop
  endfacet
  facet normal -0.401695 -0.915774 0
    outer loop
      vertex 0.297994 2.9082 4.6196
      vertex 1.20238 2.5115 2.19231
      vertex 1.20238 2.5115 4.80048
    endloop
  endfacet
  facet normal 0.78914 -0.614213 0
    outer loop
      vertex -3.07688 1.42784 3.94462
      vertex -2.47031 2.20717 2.19231
      vertex -2.47031 2.20717 4.06594
    endloop
  endfacet
  facet normal 0.78914 -0.614213 0
    outer loop
      vertex -2.47031 2.20717 2.19231
      vertex -3.07688 1.42784 3.94462
      vertex -3.07688 1.42784 2.19231
    endloop
  endfacet
  facet normal 0.945817 -0.324699 0
    outer loop
      vertex -3.39755 0.493783 3.88049
      vertex -3.07688 1.42784 2.19231
      vertex -3.07688 1.42784 3.94462
    endloop
  endfacet
  facet normal 0.945817 -0.324699 0
    outer loop
      vertex -3.07688 1.42784 2.19231
      vertex -3.39755 0.493783 3.88049
      vertex -3.39755 0.493783 2.19231
    endloop
  endfacet
  facet normal 0.546948 -0.837167 0
    outer loop
      vertex -1.64355 2.74732 2.19231
      vertex -2.47031 2.20717 4.06594
      vertex -2.47031 2.20717 2.19231
    endloop
  endfacet
  facet normal 0.546948 -0.837167 0
    outer loop
      vertex -2.47031 2.20717 4.06594
      vertex -1.64355 2.74732 2.19231
      vertex -1.64355 2.74732 4.23129
    endloop
  endfacet
  facet normal 0.245486 -0.9694 0
    outer loop
      vertex -0.686199 2.98975 2.19231
      vertex -1.64355 2.74732 4.23129
      vertex -1.64355 2.74732 2.19231
    endloop
  endfacet
  facet normal 0.245486 -0.9694 0
    outer loop
      vertex -1.64355 2.74732 4.23129
      vertex -0.686199 2.98975 2.19231
      vertex -0.686199 2.98975 4.42276
    endloop
  endfacet
  facet normal -0.986361 0.164595 0
    outer loop
      vertex 2.39899 -0.974098 5.0398
      vertex 2.56154 0 2.19231
      vertex 2.39899 -0.974098 2.19231
    endloop
  endfacet
  facet normal -0.986361 0.164595 0
    outer loop
      vertex 2.56154 0 2.19231
      vertex 2.39899 -0.974098 5.0398
      vertex 2.56154 0 5.07231
    endloop
  endfacet
  facet normal -0.677282 0.735724 0
    outer loop
      vertex 1.92896 -1.84264 2.19231
      vertex 1.20238 -2.5115 4.80048
      vertex 1.92896 -1.84264 4.94579
    endloop
  endfacet
  facet normal -0.677282 0.735724 0
    outer loop
      vertex 1.20238 -2.5115 4.80048
      vertex 1.92896 -1.84264 2.19231
      vertex 1.20238 -2.5115 2.19231
    endloop
  endfacet
  facet normal -0.879474 0.475947 0
    outer loop
      vertex 1.92896 -1.84264 4.94579
      vertex 2.39899 -0.974098 2.19231
      vertex 1.92896 -1.84264 2.19231
    endloop
  endfacet
  facet normal -0.879474 0.475947 0
    outer loop
      vertex 2.39899 -0.974098 2.19231
      vertex 1.92896 -1.84264 4.94579
      vertex 2.39899 -0.974098 5.0398
    endloop
  endfacet
  facet normal 0.546948 0.837167 -0
    outer loop
      vertex -1.64355 -2.74732 2.19231
      vertex -2.47031 -2.20717 4.06594
      vertex -1.64355 -2.74732 4.23129
    endloop
  endfacet
  facet normal 0.546948 0.837167 0
    outer loop
      vertex -2.47031 -2.20717 4.06594
      vertex -1.64355 -2.74732 2.19231
      vertex -2.47031 -2.20717 2.19231
    endloop
  endfacet
  facet normal 0.78914 0.614213 -0
    outer loop
      vertex -2.47031 -2.20717 2.19231
      vertex -3.07688 -1.42784 3.94462
      vertex -2.47031 -2.20717 4.06594
    endloop
  endfacet
  facet normal 0.78914 0.614213 0
    outer loop
      vertex -3.07688 -1.42784 3.94462
      vertex -2.47031 -2.20717 2.19231
      vertex -3.07688 -1.42784 2.19231
    endloop
  endfacet
  facet normal 0.945817 0.324699 -0
    outer loop
      vertex -3.07688 -1.42784 2.19231
      vertex -3.39755 -0.493783 3.88049
      vertex -3.07688 -1.42784 3.94462
    endloop
  endfacet
  facet normal 0.945817 0.324699 0
    outer loop
      vertex -3.39755 -0.493783 3.88049
      vertex -3.07688 -1.42784 2.19231
      vertex -3.39755 -0.493783 2.19231
    endloop
  endfacet
  facet normal 0.245486 0.9694 -0
    outer loop
      vertex -0.686199 -2.98975 2.19231
      vertex -1.64355 -2.74732 4.23129
      vertex -0.686199 -2.98975 4.42276
    endloop
  endfacet
  facet normal 0.245486 0.9694 0
    outer loop
      vertex -1.64355 -2.74732 4.23129
      vertex -0.686199 -2.98975 2.19231
      vertex -1.64355 -2.74732 2.19231
    endloop
  endfacet
  facet normal -0.196116 1.54913e-07 0.980581
    outer loop
      vertex 2.56154 0 5.07231
      vertex 10.9615 0 6.75231
      vertex 10.8991 1.19162 6.73982
    endloop
  endfacet
  facet normal -0.196116 -2.60572e-09 0.980581
    outer loop
      vertex 2.56154 0 5.07231
      vertex 10.8991 1.19162 6.73982
      vertex 10.7124 2.37019 6.70248
    endloop
  endfacet
  facet normal -0.196116 -1.54913e-07 0.980581
    outer loop
      vertex 10.9615 0 6.75231
      vertex 2.56154 0 5.07231
      vertex 10.8991 -1.19162 6.73982
    endloop
  endfacet
  facet normal -0.196116 -4.32644e-09 0.980581
    outer loop
      vertex 2.39899 0.974098 5.0398
      vertex 10.7124 2.37019 6.70248
      vertex 10.4036 3.52279 6.64072
    endloop
  endfacet
  facet normal -0.196116 2.60572e-09 0.980581
    outer loop
      vertex 10.8991 -1.19162 6.73982
      vertex 2.56154 0 5.07231
      vertex 10.7124 -2.37019 6.70248
    endloop
  endfacet
  facet normal -0.196116 1.43611e-07 0.980581
    outer loop
      vertex 2.39899 0.974098 5.0398
      vertex 10.4036 3.52279 6.64072
      vertex 9.97596 4.6368 6.55519
    endloop
  endfacet
  facet normal -0.196116 2.73888e-09 0.980581
    outer loop
      vertex 2.39899 -0.974098 5.0398
      vertex 10.7124 -2.37019 6.70248
      vertex 2.56154 0 5.07231
    endloop
  endfacet
  facet normal -0.196116 -6.80509e-08 0.980581
    outer loop
      vertex 2.39899 0.974098 5.0398
      vertex 9.97596 4.6368 6.55519
      vertex 9.43423 5.7 6.44684
    endloop
  endfacet
  facet normal -0.196116 4.32644e-09 0.980581
    outer loop
      vertex 10.7124 -2.37019 6.70248
      vertex 2.39899 -0.974098 5.0398
      vertex 10.4036 -3.52279 6.64072
    endloop
  endfacet
  facet normal -0.196116 2.12336e-08 0.980581
    outer loop
      vertex 1.92896 1.84264 4.94579
      vertex 9.43423 5.7 6.44684
      vertex 8.78433 6.70075 6.31687
    endloop
  endfacet
  facet normal -0.196116 -1.43611e-07 0.980581
    outer loop
      vertex 10.4036 -3.52279 6.64072
      vertex 2.39899 -0.974098 5.0398
      vertex 9.97596 -4.6368 6.55519
    endloop
  endfacet
  facet normal -0.196116 -1.03582e-07 0.980581
    outer loop
      vertex 1.92896 1.84264 4.94579
      vertex 8.78433 6.70075 6.31687
      vertex 8.03339 7.62809 6.16668
    endloop
  endfacet
  facet normal -0.196116 6.80509e-08 0.980581
    outer loop
      vertex 9.97596 -4.6368 6.55519
      vertex 2.39899 -0.974098 5.0398
      vertex 9.43423 -5.7 6.44684
    endloop
  endfacet
  facet normal -0.196116 1.25603e-07 0.980581
    outer loop
      vertex 1.92896 1.84264 4.94579
      vertex 8.03339 7.62809 6.16668
      vertex 7.18963 8.47185 5.99792
    endloop
  endfacet
  facet normal -0.196116 3.18493e-07 0.980581
    outer loop
      vertex 1.92896 -1.84264 4.94579
      vertex 9.43423 -5.7 6.44684
      vertex 2.39899 -0.974098 5.0398
    endloop
  endfacet
  facet normal -0.196116 -5.15337e-08 0.980581
    outer loop
      vertex 1.20238 2.5115 4.80048
      vertex 7.18963 8.47185 5.99792
      vertex 6.26229 9.22279 5.81246
    endloop
  endfacet
  facet normal -0.196116 -2.12336e-08 0.980581
    outer loop
      vertex 9.43423 -5.7 6.44684
      vertex 1.92896 -1.84264 4.94579
      vertex 8.78433 -6.70075 6.31687
    endloop
  endfacet
  facet normal -0.196116 8.99139e-08 0.980581
    outer loop
      vertex 1.20238 2.5115 4.80048
      vertex 6.26229 9.22279 5.81246
      vertex 5.26154 9.87269 5.61231
    endloop
  endfacet
  facet normal -0.196116 1.03582e-07 0.980581
    outer loop
      vertex 8.78433 -6.70075 6.31687
      vertex 1.92896 -1.84264 4.94579
      vertex 8.03339 -7.62809 6.16668
    endloop
  endfacet
  facet normal -0.196116 -9.87136e-08 0.980581
    outer loop
      vertex 1.20238 2.5115 4.80048
      vertex 5.26154 9.87269 5.61231
      vertex 4.19834 10.4144 5.39967
    endloop
  endfacet
  facet normal -0.196116 -1.25603e-07 0.980581
    outer loop
      vertex 8.03339 -7.62809 6.16668
      vertex 1.92896 -1.84264 4.94579
      vertex 7.18963 -8.47185 5.99792
    endloop
  endfacet
  facet normal -0.196116 -7.01285e-08 0.980581
    outer loop
      vertex 0.297994 2.9082 4.6196
      vertex 4.19834 10.4144 5.39967
      vertex 3.08433 10.842 5.17687
    endloop
  endfacet
  facet normal -0.196116 -2.05592e-07 0.980581
    outer loop
      vertex 1.20238 -2.5115 4.80048
      vertex 7.18963 -8.47185 5.99792
      vertex 1.92896 -1.84264 4.94579
    endloop
  endfacet
  facet normal -0.196116 5.15337e-08 0.980581
    outer loop
      vertex 7.18963 -8.47185 5.99792
      vertex 1.20238 -2.5115 4.80048
      vertex 6.26229 -9.22279 5.81246
    endloop
  endfacet
  facet normal -0.196116 -2.73888e-09 0.980581
    outer loop
      vertex 10.7124 2.37019 6.70248
      vertex 2.39899 0.974098 5.0398
      vertex 2.56154 0 5.07231
    endloop
  endfacet
  facet normal -0.196116 1.97673e-08 0.980581
    outer loop
      vertex 0.297994 2.9082 4.6196
      vertex 3.08433 10.842 5.17687
      vertex 1.93173 11.1509 4.94635
    endloop
  endfacet
  facet normal -0.196116 -3.18493e-07 0.980581
    outer loop
      vertex 9.43423 5.7 6.44684
      vertex 1.92896 1.84264 4.94579
      vertex 2.39899 0.974098 5.0398
    endloop
  endfacet
  facet normal -0.196116 2.05592e-07 0.980581
    outer loop
      vertex 7.18963 8.47185 5.99792
      vertex 1.20238 2.5115 4.80048
      vertex 1.92896 1.84264 4.94579
    endloop
  endfacet
  facet normal -0.196116 1.94964e-08 0.980581
    outer loop
      vertex 0.297994 2.9082 4.6196
      vertex 1.93173 11.1509 4.94635
      vertex 0.753162 11.3375 4.71063
    endloop
  endfacet
  facet normal -0.196116 -1.52189e-08 0.980581
    outer loop
      vertex 4.19834 10.4144 5.39967
      vertex 0.297994 2.9082 4.6196
      vertex 1.20238 2.5115 4.80048
    endloop
  endfacet
  facet normal -0.196116 -1.34102e-08 0.980581
    outer loop
      vertex -0.686199 2.98975 4.42276
      vertex 0.753162 11.3375 4.71063
      vertex -0.438462 11.4 4.47231
    endloop
  endfacet
  facet normal -0.196116 1.61525e-08 0.980581
    outer loop
      vertex 0.753162 11.3375 4.71063
      vertex -0.686199 2.98975 4.42276
      vertex 0.297994 2.9082 4.6196
    endloop
  endfacet
  facet normal -0.196116 -1.34517e-08 0.980581
    outer loop
      vertex -1.63009 11.3375 4.23398
      vertex -0.686199 2.98975 4.42276
      vertex -0.438462 11.4 4.47231
    endloop
  endfacet
  facet normal -0.196116 -1.76037e-08 0.980581
    outer loop
      vertex -2.80865 11.1509 3.99827
      vertex -0.686199 2.98975 4.42276
      vertex -1.63009 11.3375 4.23398
    endloop
  endfacet
  facet normal -0.196116 6.84606e-08 0.980581
    outer loop
      vertex -0.686199 2.98975 4.42276
      vertex -2.80865 11.1509 3.99827
      vertex -1.64355 2.74732 4.23129
    endloop
  endfacet
  facet normal -0.196116 -5.59758e-09 0.980581
    outer loop
      vertex -3.96125 10.842 3.76775
      vertex -1.64355 2.74732 4.23129
      vertex -2.80865 11.1509 3.99827
    endloop
  endfacet
  facet normal -0.196116 4.72579e-08 0.980581
    outer loop
      vertex -5.07526 10.4144 3.54495
      vertex -1.64355 2.74732 4.23129
      vertex -3.96125 10.842 3.76775
    endloop
  endfacet
  facet normal -0.196116 4.58245e-08 0.980581
    outer loop
      vertex -6.13846 9.87269 3.33231
      vertex -1.64355 2.74732 4.23129
      vertex -5.07526 10.4144 3.54495
    endloop
  endfacet
  facet normal -0.196116 2.17109e-08 0.980581
    outer loop
      vertex -7.13921 9.22279 3.13216
      vertex -2.47031 2.20717 4.06594
      vertex -6.13846 9.87269 3.33231
    endloop
  endfacet
  facet normal -0.196116 -7.78231e-08 0.980581
    outer loop
      vertex -1.64355 2.74732 4.23129
      vertex -6.13846 9.87269 3.33231
      vertex -2.47031 2.20717 4.06594
    endloop
  endfacet
  facet normal -0.196116 -8.99139e-08 0.980581
    outer loop
      vertex 6.26229 -9.22279 5.81246
      vertex 1.20238 -2.5115 4.80048
      vertex 5.26154 -9.87269 5.61231
    endloop
  endfacet
  facet normal -0.196116 9.87136e-08 0.980581
    outer loop
      vertex 5.26154 -9.87269 5.61231
      vertex 1.20238 -2.5115 4.80048
      vertex 4.19834 -10.4144 5.39967
    endloop
  endfacet
  facet normal -0.196116 1.52189e-08 0.980581
    outer loop
      vertex 0.297994 -2.9082 4.6196
      vertex 4.19834 -10.4144 5.39967
      vertex 1.20238 -2.5115 4.80048
    endloop
  endfacet
  facet normal -0.196116 7.01285e-08 0.980581
    outer loop
      vertex 4.19834 -10.4144 5.39967
      vertex 0.297994 -2.9082 4.6196
      vertex 3.08433 -10.842 5.17687
    endloop
  endfacet
  facet normal -0.196116 -1.97673e-08 0.980581
    outer loop
      vertex 3.08433 -10.842 5.17687
      vertex 0.297994 -2.9082 4.6196
      vertex 1.93173 -11.1509 4.94635
    endloop
  endfacet
  facet normal -0.196116 -1.94964e-08 0.980581
    outer loop
      vertex 1.93173 -11.1509 4.94635
      vertex 0.297994 -2.9082 4.6196
      vertex 0.753162 -11.3375 4.71063
    endloop
  endfacet
  facet normal -0.196116 -1.61525e-08 0.980581
    outer loop
      vertex -0.686199 -2.98975 4.42276
      vertex 0.753162 -11.3375 4.71063
      vertex 0.297994 -2.9082 4.6196
    endloop
  endfacet
  facet normal -0.196116 1.34102e-08 0.980581
    outer loop
      vertex 0.753162 -11.3375 4.71063
      vertex -0.686199 -2.98975 4.42276
      vertex -0.438462 -11.4 4.47231
    endloop
  endfacet
  facet normal -0.196116 1.34517e-08 0.980581
    outer loop
      vertex -0.686199 -2.98975 4.42276
      vertex -1.63009 -11.3375 4.23398
      vertex -0.438462 -11.4 4.47231
    endloop
  endfacet
  facet normal -0.196116 -6.84606e-08 0.980581
    outer loop
      vertex -2.80865 -11.1509 3.99827
      vertex -0.686199 -2.98975 4.42276
      vertex -1.64355 -2.74732 4.23129
    endloop
  endfacet
  facet normal -0.196116 7.78231e-08 0.980581
    outer loop
      vertex -6.13846 -9.87269 3.33231
      vertex -1.64355 -2.74732 4.23129
      vertex -2.47031 -2.20717 4.06594
    endloop
  endfacet
  facet normal -0.196116 1.76037e-08 0.980581
    outer loop
      vertex -0.686199 -2.98975 4.42276
      vertex -2.80865 -11.1509 3.99827
      vertex -1.63009 -11.3375 4.23398
    endloop
  endfacet
  facet normal -0.196116 7.05151e-08 0.980581
    outer loop
      vertex -9.66125 -6.70075 2.62775
      vertex -2.47031 -2.20717 4.06594
      vertex -3.07688 -1.42784 3.94462
    endloop
  endfacet
  facet normal -0.196116 -4.24259e-08 0.980581
    outer loop
      vertex -11.2805 -3.52279 2.3039
      vertex -3.07688 -1.42784 3.94462
      vertex -3.39755 -0.493783 3.88049
    endloop
  endfacet
  facet normal -0.196116 5.59758e-09 0.980581
    outer loop
      vertex -1.64355 -2.74732 4.23129
      vertex -3.96125 -10.842 3.76775
      vertex -2.80865 -11.1509 3.99827
    endloop
  endfacet
  facet normal -0.196116 -6.54142e-08 0.980581
    outer loop
      vertex -8.06655 8.47185 2.94669
      vertex -2.47031 2.20717 4.06594
      vertex -7.13921 9.22279 3.13216
    endloop
  endfacet
  facet normal -0.196116 3.79729e-08 0.980581
    outer loop
      vertex -8.91031 7.62809 2.77794
      vertex -2.47031 2.20717 4.06594
      vertex -8.06655 8.47185 2.94669
    endloop
  endfacet
  facet normal -0.196116 -4.72579e-08 0.980581
    outer loop
      vertex -1.64355 -2.74732 4.23129
      vertex -5.07526 -10.4144 3.54495
      vertex -3.96125 -10.842 3.76775
    endloop
  endfacet
  facet normal -0.196116 -2.2991e-08 0.980581
    outer loop
      vertex -9.66125 6.70075 2.62775
      vertex -2.47031 2.20717 4.06594
      vertex -8.91031 7.62809 2.77794
    endloop
  endfacet
  facet normal -0.196116 -4.58245e-08 0.980581
    outer loop
      vertex -1.64355 -2.74732 4.23129
      vertex -6.13846 -9.87269 3.33231
      vertex -5.07526 -10.4144 3.54495
    endloop
  endfacet
  facet normal -0.196116 -7.05151e-08 0.980581
    outer loop
      vertex -2.47031 2.20717 4.06594
      vertex -9.66125 6.70075 2.62775
      vertex -3.07688 1.42784 3.94462
    endloop
  endfacet
  facet normal -0.196116 -2.17109e-08 0.980581
    outer loop
      vertex -2.47031 -2.20717 4.06594
      vertex -7.13921 -9.22279 3.13216
      vertex -6.13846 -9.87269 3.33231
    endloop
  endfacet
  facet normal -0.196116 3.03386e-09 0.980581
    outer loop
      vertex -10.3112 5.7 2.49777
      vertex -3.07688 1.42784 3.94462
      vertex -9.66125 6.70075 2.62775
    endloop
  endfacet
  facet normal -0.196116 6.54142e-08 0.980581
    outer loop
      vertex -2.47031 -2.20717 4.06594
      vertex -8.06655 -8.47185 2.94669
      vertex -7.13921 -9.22279 3.13216
    endloop
  endfacet
  facet normal -0.196116 7.01436e-08 0.980581
    outer loop
      vertex -10.8529 4.6368 2.38942
      vertex -3.07688 1.42784 3.94462
      vertex -10.3112 5.7 2.49777
    endloop
  endfacet
  facet normal -0.196116 -3.79729e-08 0.980581
    outer loop
      vertex -2.47031 -2.20717 4.06594
      vertex -8.91031 -7.62809 2.77794
      vertex -8.06655 -8.47185 2.94669
    endloop
  endfacet
  facet normal -0.196116 3.42404e-08 0.980581
    outer loop
      vertex -11.2805 3.52279 2.3039
      vertex -3.07688 1.42784 3.94462
      vertex -10.8529 4.6368 2.38942
    endloop
  endfacet
  facet normal -0.196116 2.2991e-08 0.980581
    outer loop
      vertex -2.47031 -2.20717 4.06594
      vertex -9.66125 -6.70075 2.62775
      vertex -8.91031 -7.62809 2.77794
    endloop
  endfacet
  facet normal -0.196116 4.24259e-08 0.980581
    outer loop
      vertex -3.07688 1.42784 3.94462
      vertex -11.2805 3.52279 2.3039
      vertex -3.39755 0.493783 3.88049
    endloop
  endfacet
  facet normal -0.196116 -3.03386e-09 0.980581
    outer loop
      vertex -3.07688 -1.42784 3.94462
      vertex -10.3112 -5.7 2.49777
      vertex -9.66125 -6.70075 2.62775
    endloop
  endfacet
  facet normal -0.196116 -1.44098e-09 0.980581
    outer loop
      vertex -11.5893 2.37019 2.24213
      vertex -3.39755 0.493783 3.88049
      vertex -11.2805 3.52279 2.3039
    endloop
  endfacet
  facet normal -0.196116 -7.01436e-08 0.980581
    outer loop
      vertex -3.07688 -1.42784 3.94462
      vertex -10.8529 -4.6368 2.38942
      vertex -10.3112 -5.7 2.49777
    endloop
  endfacet
  facet normal -0.196116 -8.7239e-10 0.980581
    outer loop
      vertex -11.776 1.19162 2.2048
      vertex -3.39755 0.493783 3.88049
      vertex -11.5893 2.37019 2.24213
    endloop
  endfacet
  facet normal -0.196116 -3.42404e-08 0.980581
    outer loop
      vertex -3.07688 -1.42784 3.94462
      vertex -11.2805 -3.52279 2.3039
      vertex -10.8529 -4.6368 2.38942
    endloop
  endfacet
  facet normal -0.196116 -2.91203e-10 0.980581
    outer loop
      vertex -11.8385 7.93316e-05 2.19231
      vertex -3.39755 0.493783 3.88049
      vertex -11.776 1.19162 2.2048
    endloop
  endfacet
  facet normal -0.196116 1.44098e-09 0.980581
    outer loop
      vertex -3.39755 -0.493783 3.88049
      vertex -11.5893 -2.37019 2.24213
      vertex -11.2805 -3.52279 2.3039
    endloop
  endfacet
  facet normal -0.196116 0 0.980581
    outer loop
      vertex -3.39755 0.493783 3.88049
      vertex -11.8385 7.93316e-05 2.19231
      vertex -3.39755 -0.493783 3.88049
    endloop
  endfacet
  facet normal -0.196116 8.7239e-10 0.980581
    outer loop
      vertex -3.39755 -0.493783 3.88049
      vertex -11.776 -1.19162 2.2048
      vertex -11.5893 -2.37019 2.24213
    endloop
  endfacet
  facet normal -0.196116 0 0.980581
    outer loop
      vertex -11.8385 -7.93316e-05 2.19231
      vertex -3.39755 -0.493783 3.88049
      vertex -11.8385 7.93316e-05 2.19231
    endloop
  endfacet
  facet normal -0.196116 2.91203e-10 0.980581
    outer loop
      vertex -3.39755 -0.493783 3.88049
      vertex -11.8385 -7.93316e-05 2.19231
      vertex -11.776 -1.19162 2.2048
    endloop
  endfacet
endsolid OpenSCAD_Model
