solid OpenSCAD_Model
  facet normal -1 0 0
    outer loop
      vertex -3 -0.803847 36
      vertex -3 -0.75 35
      vertex -3 -0.803847 35
    endloop
  endfacet
  facet normal -1 0 0
    outer loop
      vertex -3 -0.75 35
      vertex -3 -0.803847 36
      vertex -3 -0.75 40
    endloop
  endfacet
  facet normal -1 0 0
    outer loop
      vertex -3 -0.75 35
      vertex -3 0.75 35
      vertex -3 0.75 33
    endloop
  endfacet
  facet normal -1 0 0
    outer loop
      vertex -3 0.75 35
      vertex -3 -0.75 35
      vertex -3 0.75 40
    endloop
  endfacet
  facet normal -1 0 0
    outer loop
      vertex -3 -0.75 35
      vertex -3 0.75 33
      vertex -3 -0.75 33
    endloop
  endfacet
  facet normal -1 -0 0
    outer loop
      vertex -3 0.75 40
      vertex -3 -0.75 35
      vertex -3 -0.75 40
    endloop
  endfacet
  facet normal -1 0 0
    outer loop
      vertex -3 0.75 40
      vertex -3 -0.75 40
      vertex -3 0.75 43
    endloop
  endfacet
  facet normal -1 -0 0
    outer loop
      vertex -3 0.75 43
      vertex -3 -0.75 40
      vertex -3 -0.75 43
    endloop
  endfacet
  facet normal 0 0 1
    outer loop
      vertex 3 0.75 43
      vertex 0.75 0 43
      vertex 3 -0.75 43
    endloop
  endfacet
  facet normal 0 0 1
    outer loop
      vertex 3 0.75 43
      vertex 0.53033 0.53033 43
      vertex 0.75 0 43
    endloop
  endfacet
  facet normal 0 -0 1
    outer loop
      vertex 0.53033 0.53033 43
      vertex 3 0.75 43
      vertex 0 0.75 43
    endloop
  endfacet
  facet normal -0 0 1
    outer loop
      vertex 0.53033 -0.53033 43
      vertex 3 -0.75 43
      vertex 0.75 0 43
    endloop
  endfacet
  facet normal 0 0 1
    outer loop
      vertex 3 -0.75 43
      vertex 0.53033 -0.53033 43
      vertex 0 -0.75 43
    endloop
  endfacet
  facet normal 0 0 1
    outer loop
      vertex -0.53033 0.53033 43
      vertex -3 0.75 43
      vertex -0.75 0 43
    endloop
  endfacet
  facet normal -0 0 1
    outer loop
      vertex -3 0.75 43
      vertex -0.53033 0.53033 43
      vertex 0 0.75 43
    endloop
  endfacet
  facet normal 0 0 1
    outer loop
      vertex -3 -0.75 43
      vertex -0.75 0 43
      vertex -3 0.75 43
    endloop
  endfacet
  facet normal 0 0 1
    outer loop
      vertex -0.53033 -0.53033 43
      vertex -3 -0.75 43
      vertex 0 -0.75 43
    endloop
  endfacet
  facet normal 0 0 1
    outer loop
      vertex -0.75 0 43
      vertex -3 -0.75 43
      vertex -0.53033 -0.53033 43
    endloop
  endfacet
  facet normal 1 0 0
    outer loop
      vertex 3 -0.75 40
      vertex 3 0.75 40
      vertex 3 0.75 43
    endloop
  endfacet
  facet normal 1 0 0
    outer loop
      vertex 3 0.75 40
      vertex 3 -0.75 40
      vertex 3 0.75 35
    endloop
  endfacet
  facet normal 1 0 0
    outer loop
      vertex 3 -0.75 40
      vertex 3 0.75 43
      vertex 3 -0.75 43
    endloop
  endfacet
  facet normal 1 0 0
    outer loop
      vertex 3 -0.75 35
      vertex 3 0.75 35
      vertex 3 -0.75 40
    endloop
  endfacet
  facet normal 1 0 0
    outer loop
      vertex 3 0.75 35
      vertex 3 -0.75 35
      vertex 3 0.75 33
    endloop
  endfacet
  facet normal 1 0 0
    outer loop
      vertex 3 0.75 33
      vertex 3 -0.75 35
      vertex 3 -0.75 33
    endloop
  endfacet
  facet normal 1 0 0
    outer loop
      vertex 3 0.75 35
      vertex 3 0.803847 36
      vertex 3 0.75 40
    endloop
  endfacet
  facet normal 1 0 0
    outer loop
      vertex 3 0.803847 36
      vertex 3 0.75 35
      vertex 3 0.803847 35
    endloop
  endfacet
  facet normal 0 1 -0
    outer loop
      vertex 3 0.75 40
      vertex 0 0.75 43
      vertex 3 0.75 43
    endloop
  endfacet
  facet normal 0 1 0
    outer loop
      vertex -3 0.75 40
      vertex 0 0.75 43
      vertex 3 0.75 40
    endloop
  endfacet
  facet normal 0 1 0
    outer loop
      vertex 0 0.75 43
      vertex -3 0.75 40
      vertex -3 0.75 43
    endloop
  endfacet
  facet normal 0 -1 0
    outer loop
      vertex -3 -0.75 40
      vertex 0 -0.75 43
      vertex -3 -0.75 43
    endloop
  endfacet
  facet normal 0 -1 0
    outer loop
      vertex 3 -0.75 40
      vertex 0 -0.75 43
      vertex -3 -0.75 40
    endloop
  endfacet
  facet normal 0 -1 0
    outer loop
      vertex 0 -0.75 43
      vertex 3 -0.75 40
      vertex 3 -0.75 43
    endloop
  endfacet
  facet normal 0.923879 0.382684 0
    outer loop
      vertex 0.75 0 45
      vertex 0.53033 0.53033 43
      vertex 0.53033 0.53033 45
    endloop
  endfacet
  facet normal 0.923879 0.382684 0
    outer loop
      vertex 0.53033 0.53033 43
      vertex 0.75 0 45
      vertex 0.75 0 43
    endloop
  endfacet
  facet normal -0.923879 0.382684 0
    outer loop
      vertex -0.75 0 43
      vertex -0.53033 0.53033 45
      vertex -0.53033 0.53033 43
    endloop
  endfacet
  facet normal -0.923879 0.382684 0
    outer loop
      vertex -0.53033 0.53033 45
      vertex -0.75 0 43
      vertex -0.75 0 45
    endloop
  endfacet
  facet normal 0.382684 0.923879 -0
    outer loop
      vertex 0.53033 0.53033 43
      vertex 0 0.75 45
      vertex 0.53033 0.53033 45
    endloop
  endfacet
  facet normal 0.382684 0.923879 0
    outer loop
      vertex 0 0.75 45
      vertex 0.53033 0.53033 43
      vertex 0 0.75 43
    endloop
  endfacet
  facet normal -0.382684 0.923879 0
    outer loop
      vertex 0 0.75 43
      vertex -0.53033 0.53033 45
      vertex 0 0.75 45
    endloop
  endfacet
  facet normal -0.382684 0.923879 0
    outer loop
      vertex -0.53033 0.53033 45
      vertex 0 0.75 43
      vertex -0.53033 0.53033 43
    endloop
  endfacet
  facet normal 0.382684 -0.923879 0
    outer loop
      vertex 0 -0.75 43
      vertex 0.53033 -0.53033 45
      vertex 0 -0.75 45
    endloop
  endfacet
  facet normal 0.382684 -0.923879 0
    outer loop
      vertex 0.53033 -0.53033 45
      vertex 0 -0.75 43
      vertex 0.53033 -0.53033 43
    endloop
  endfacet
  facet normal -0.923879 -0.382684 0
    outer loop
      vertex -0.53033 -0.53033 43
      vertex -0.75 0 45
      vertex -0.75 0 43
    endloop
  endfacet
  facet normal -0.923879 -0.382684 0
    outer loop
      vertex -0.75 0 45
      vertex -0.53033 -0.53033 43
      vertex -0.53033 -0.53033 45
    endloop
  endfacet
  facet normal 0.923879 -0.382684 0
    outer loop
      vertex 0.53033 -0.53033 45
      vertex 0.75 0 43
      vertex 0.75 0 45
    endloop
  endfacet
  facet normal 0.923879 -0.382684 0
    outer loop
      vertex 0.75 0 43
      vertex 0.53033 -0.53033 45
      vertex 0.53033 -0.53033 43
    endloop
  endfacet
  facet normal -0.382684 -0.923879 0
    outer loop
      vertex -0.53033 -0.53033 43
      vertex 0 -0.75 45
      vertex -0.53033 -0.53033 45
    endloop
  endfacet
  facet normal -0.382684 -0.923879 -0
    outer loop
      vertex 0 -0.75 45
      vertex -0.53033 -0.53033 43
      vertex 0 -0.75 43
    endloop
  endfacet
  facet normal 0 0 1
    outer loop
      vertex 0.53033 0.53033 45
      vertex 0.53033 -0.53033 45
      vertex 0.75 0 45
    endloop
  endfacet
  facet normal 0 0 1
    outer loop
      vertex 0 0.75 45
      vertex 0.53033 -0.53033 45
      vertex 0.53033 0.53033 45
    endloop
  endfacet
  facet normal 0 0 1
    outer loop
      vertex 0 0.75 45
      vertex 0 -0.75 45
      vertex 0.53033 -0.53033 45
    endloop
  endfacet
  facet normal -0 0 1
    outer loop
      vertex -0.53033 0.53033 45
      vertex 0 -0.75 45
      vertex 0 0.75 45
    endloop
  endfacet
  facet normal 0 0 1
    outer loop
      vertex -0.53033 0.53033 45
      vertex -0.53033 -0.53033 45
      vertex 0 -0.75 45
    endloop
  endfacet
  facet normal 0 -0 1
    outer loop
      vertex -0.53033 -0.53033 45
      vertex -0.53033 0.53033 45
      vertex -0.75 0 45
    endloop
  endfacet
  facet normal 0.866025 0.5 0
    outer loop
      vertex 3 0.803847 35
      vertex 2.19615 2.19615 19.8824
      vertex 2.19615 2.19615 36
    endloop
  endfacet
  facet normal 0.866025 0.500001 1.17275e-08
    outer loop
      vertex 2.19615 2.19615 19.8824
      vertex 3 0.803847 35
      vertex 2.59808 1.5 20
    endloop
  endfacet
  facet normal 0.866025 0.5 -0
    outer loop
      vertex 3 0.803847 35
      vertex 2.19615 2.19615 36
      vertex 3 0.803847 36
    endloop
  endfacet
  facet normal 0.866025 0.5 -0
    outer loop
      vertex 3 0.803847 19.8824
      vertex 2.59808 1.5 20
      vertex 3 0.803847 35
    endloop
  endfacet
  facet normal -1 5.93553e-07 2.43652e-09
    outer loop
      vertex -3 0.803847 19.8824
      vertex -3 3.62192e-06 20
      vertex -3 0.75 33
    endloop
  endfacet
  facet normal -1 0 3.66798e-08
    outer loop
      vertex -3 -3.62189e-06 20
      vertex -3 0.75 33
      vertex -3 3.62192e-06 20
    endloop
  endfacet
  facet normal -1 6.35783e-07 -1.77133e-13
    outer loop
      vertex -3 -3.62189e-06 20
      vertex -3 -0.75 33
      vertex -3 0.75 33
    endloop
  endfacet
  facet normal -1 5.93553e-07 -2.43652e-09
    outer loop
      vertex -3 -0.803847 19.8824
      vertex -3 -0.75 33
      vertex -3 -3.62189e-06 20
    endloop
  endfacet
  facet normal -1 0 0
    outer loop
      vertex -3 -0.803847 35
      vertex -3 -0.75 33
      vertex -3 -0.803847 19.8824
    endloop
  endfacet
  facet normal -1 0 0
    outer loop
      vertex -3 -0.75 33
      vertex -3 -0.803847 35
      vertex -3 -0.75 35
    endloop
  endfacet
  facet normal -1 0 0
    outer loop
      vertex -3 0.803847 19.8824
      vertex -3 0.75 33
      vertex -3 0.803847 35
    endloop
  endfacet
  facet normal -1 -0 0
    outer loop
      vertex -3 0.803847 35
      vertex -3 0.75 33
      vertex -3 0.75 35
    endloop
  endfacet
  facet normal 5.93194e-07 1 1.34281e-13
    outer loop
      vertex 0.803847 3 36
      vertex 3.62192e-06 3 20
      vertex -0.803847 3 36
    endloop
  endfacet
  facet normal 5.93196e-07 1 -0
    outer loop
      vertex 0.803847 3 19.8824
      vertex 3.62192e-06 3 20
      vertex 0.803847 3 36
    endloop
  endfacet
  facet normal 0 1 -2.98023e-08
    outer loop
      vertex -3.62189e-06 3 20
      vertex -0.803847 3 36
      vertex 3.62192e-06 3 20
    endloop
  endfacet
  facet normal 5.93196e-07 1 0
    outer loop
      vertex -0.803847 3 36
      vertex -3.62189e-06 3 20
      vertex -0.803847 3 19.8824
    endloop
  endfacet
  facet normal 0.5 0.866025 -4.11689e-09
    outer loop
      vertex 2.19615 2.19615 36
      vertex 1.5 2.59807 20
      vertex 0.803847 3 36
    endloop
  endfacet
  facet normal 0.5 0.866025 0
    outer loop
      vertex 1.5 2.59807 20
      vertex 2.19615 2.19615 36
      vertex 2.19615 2.19615 19.8824
    endloop
  endfacet
  facet normal 0.503871 0.863779 0.000224857
    outer loop
      vertex 1.5 2.59808 20
      vertex 0.803847 3 36
      vertex 1.5 2.59807 20
    endloop
  endfacet
  facet normal 0.5 0.866025 0
    outer loop
      vertex 0.803847 3 36
      vertex 1.5 2.59808 20
      vertex 0.803847 3 19.8824
    endloop
  endfacet
  facet normal -0.5 0.866025 -1.99639e-09
    outer loop
      vertex -0.803847 3 36
      vertex -1.5 2.59808 20
      vertex -2.19615 2.19615 36
    endloop
  endfacet
  facet normal -0.5 0.866025 0
    outer loop
      vertex -0.803847 3 19.8824
      vertex -1.5 2.59808 20
      vertex -0.803847 3 36
    endloop
  endfacet
  facet normal -0.500001 0.866025 0
    outer loop
      vertex -2.19615 2.19615 36
      vertex -1.5 2.59808 20
      vertex -2.19615 2.19615 19.8824
    endloop
  endfacet
  facet normal 0.5 -0.866025 1.46141e-09
    outer loop
      vertex 0.803847 -3 36
      vertex 1.5 -2.59808 20
      vertex 2.19615 -2.19615 36
    endloop
  endfacet
  facet normal 0.5 -0.866025 0
    outer loop
      vertex 0.803847 -3 19.8824
      vertex 1.5 -2.59808 20
      vertex 0.803847 -3 36
    endloop
  endfacet
  facet normal 0.524097 -0.851657 -0.00140935
    outer loop
      vertex 1.5 -2.59807 20
      vertex 2.19615 -2.19615 36
      vertex 1.5 -2.59808 20
    endloop
  endfacet
  facet normal 0.5 -0.866025 0
    outer loop
      vertex 2.19615 -2.19615 36
      vertex 1.5 -2.59807 20
      vertex 2.19615 -2.19615 19.8824
    endloop
  endfacet
  facet normal -5.93194e-07 -1 1.34281e-13
    outer loop
      vertex -0.803847 -3 36
      vertex -3.62192e-06 -3 20
      vertex 0.803847 -3 36
    endloop
  endfacet
  facet normal -5.93196e-07 -1 0
    outer loop
      vertex -0.803847 -3 19.8824
      vertex -3.62192e-06 -3 20
      vertex -0.803847 -3 36
    endloop
  endfacet
  facet normal -0 -1 -2.98023e-08
    outer loop
      vertex 3.62189e-06 -3 20
      vertex 0.803847 -3 36
      vertex -3.62192e-06 -3 20
    endloop
  endfacet
  facet normal -5.93196e-07 -1 -0
    outer loop
      vertex 0.803847 -3 36
      vertex 3.62189e-06 -3 20
      vertex 0.803847 -3 19.8824
    endloop
  endfacet
  facet normal -0.866025 -0.5 0
    outer loop
      vertex -2.59808 -1.5 20
      vertex -3 -0.803847 35
      vertex -3 -0.803847 19.8824
    endloop
  endfacet
  facet normal -0.866025 -0.500001 1.17275e-08
    outer loop
      vertex -2.19615 -2.19615 19.8824
      vertex -3 -0.803847 35
      vertex -2.59808 -1.5 20
    endloop
  endfacet
  facet normal -0.866025 -0.5 0
    outer loop
      vertex -3 -0.803847 35
      vertex -2.19615 -2.19615 19.8824
      vertex -2.19615 -2.19615 36
    endloop
  endfacet
  facet normal -0.866025 -0.5 0
    outer loop
      vertex -3 -0.803847 35
      vertex -2.19615 -2.19615 36
      vertex -3 -0.803847 36
    endloop
  endfacet
  facet normal -0.866025 0.5 1.23027e-08
    outer loop
      vertex -3 0.803847 35
      vertex -2.19615 2.19615 19.8824
      vertex -2.59808 1.5 20
    endloop
  endfacet
  facet normal -0.866025 0.5 0
    outer loop
      vertex -3 0.803847 35
      vertex -2.59808 1.5 20
      vertex -3 0.803847 19.8824
    endloop
  endfacet
  facet normal -0.866025 0.5 0
    outer loop
      vertex -2.19615 2.19615 19.8824
      vertex -3 0.803847 35
      vertex -2.19615 2.19615 36
    endloop
  endfacet
  facet normal -0.866025 0.5 0
    outer loop
      vertex -2.19615 2.19615 36
      vertex -3 0.803847 35
      vertex -3 0.803847 36
    endloop
  endfacet
  facet normal -0.5 -0.866025 -4.11689e-09
    outer loop
      vertex -2.19615 -2.19615 36
      vertex -1.5 -2.59807 20
      vertex -0.803847 -3 36
    endloop
  endfacet
  facet normal -0.5 -0.866025 0
    outer loop
      vertex -1.5 -2.59807 20
      vertex -2.19615 -2.19615 36
      vertex -2.19615 -2.19615 19.8824
    endloop
  endfacet
  facet normal -0.503871 -0.863779 0.000224857
    outer loop
      vertex -1.5 -2.59808 20
      vertex -0.803847 -3 36
      vertex -1.5 -2.59807 20
    endloop
  endfacet
  facet normal -0.5 -0.866025 -0
    outer loop
      vertex -0.803847 -3 36
      vertex -1.5 -2.59808 20
      vertex -0.803847 -3 19.8824
    endloop
  endfacet
  facet normal 0.866025 -0.5 0
    outer loop
      vertex 2.19615 -2.19615 36
      vertex 3 -0.803847 35
      vertex 3 -0.803847 36
    endloop
  endfacet
  facet normal 0.866025 -0.5 0
    outer loop
      vertex 3 -0.803847 35
      vertex 2.59808 -1.5 20
      vertex 3 -0.803847 19.8824
    endloop
  endfacet
  facet normal 0.863779 -0.503871 0.000239847
    outer loop
      vertex 3 -0.803847 35
      vertex 2.59807 -1.5 20
      vertex 2.59808 -1.5 20
    endloop
  endfacet
  facet normal 0.866025 -0.5 0
    outer loop
      vertex 2.19615 -2.19615 19.8824
      vertex 3 -0.803847 35
      vertex 2.19615 -2.19615 36
    endloop
  endfacet
  facet normal 0.866025 -0.5 -8.85214e-09
    outer loop
      vertex 3 -0.803847 35
      vertex 2.19615 -2.19615 19.8824
      vertex 2.59807 -1.5 20
    endloop
  endfacet
  facet normal 1 -0 0
    outer loop
      vertex 3 -0.803847 35
      vertex 3 -0.75 33
      vertex 3 -0.75 35
    endloop
  endfacet
  facet normal 1 0 0
    outer loop
      vertex 3 -0.803847 19.8824
      vertex 3 -0.75 33
      vertex 3 -0.803847 35
    endloop
  endfacet
  facet normal 1 0 0
    outer loop
      vertex 3 0.75 33
      vertex 3 0.803847 35
      vertex 3 0.75 35
    endloop
  endfacet
  facet normal 1 0 0
    outer loop
      vertex 3 0.803847 35
      vertex 3 0.75 33
      vertex 3 0.803847 19.8824
    endloop
  endfacet
  facet normal 1 -5.93553e-07 -2.43652e-09
    outer loop
      vertex 3 0.75 33
      vertex 3 3.62189e-06 20
      vertex 3 0.803847 19.8824
    endloop
  endfacet
  facet normal 1 0 -3.66798e-08
    outer loop
      vertex 3 0.75 33
      vertex 3 -3.62192e-06 20
      vertex 3 3.62189e-06 20
    endloop
  endfacet
  facet normal 1 -6.35783e-07 1.77135e-13
    outer loop
      vertex 3 -0.75 33
      vertex 3 -3.62192e-06 20
      vertex 3 0.75 33
    endloop
  endfacet
  facet normal 1 -5.93553e-07 2.43651e-09
    outer loop
      vertex 3 -3.62192e-06 20
      vertex 3 -0.75 33
      vertex 3 -0.803847 19.8824
    endloop
  endfacet
  facet normal -1 1.77107e-05 0
    outer loop
      vertex -3 0.75 35
      vertex -3 0.803847 36
      vertex -3 0.803847 35
    endloop
  endfacet
  facet normal -1 1.77107e-05 0
    outer loop
      vertex -3 0.803847 36
      vertex -3 0.75 35
      vertex -3 0.75 40
    endloop
  endfacet
  facet normal 0.489067 0.84709 0.207971
    outer loop
      vertex 2.19615 2.19615 36
      vertex 0.803847 3 36
      vertex 3 0.75 40
    endloop
  endfacet
  facet normal 0.489068 -0.84709 0.207971
    outer loop
      vertex 3 -0.75 40
      vertex 0.803847 -3 36
      vertex 2.19615 -2.19615 36
    endloop
  endfacet
  facet normal 0 -0.871576 0.490261
    outer loop
      vertex 3 -0.75 40
      vertex -3 -0.75 40
      vertex 0.803847 -3 36
    endloop
  endfacet
  facet normal 0.866006 -0.499989 0.00673056
    outer loop
      vertex 3 -0.75 40
      vertex 2.19615 -2.19615 36
      vertex 3 -0.803847 36
    endloop
  endfacet
  facet normal 5.17013e-07 0.871576 0.490261
    outer loop
      vertex 0.803847 3 36
      vertex -0.803847 3 36
      vertex 3 0.75 40
    endloop
  endfacet
  facet normal -0.489068 0.84709 0.207971
    outer loop
      vertex -2.19615 2.19615 36
      vertex -3 0.75 40
      vertex -0.803847 3 36
    endloop
  endfacet
  facet normal -0.489067 -0.84709 0.207971
    outer loop
      vertex -0.803847 -3 36
      vertex -3 -0.75 40
      vertex -2.19615 -2.19615 36
    endloop
  endfacet
  facet normal -0.866006 0.499989 0.00673056
    outer loop
      vertex -3 0.803847 36
      vertex -3 0.75 40
      vertex -2.19615 2.19615 36
    endloop
  endfacet
  facet normal 1 -1.77107e-05 0
    outer loop
      vertex 3 -0.803847 36
      vertex 3 -0.75 35
      vertex 3 -0.75 40
    endloop
  endfacet
  facet normal 1 -1.77107e-05 0
    outer loop
      vertex 3 -0.75 35
      vertex 3 -0.803847 36
      vertex 3 -0.803847 35
    endloop
  endfacet
  facet normal 0 0.871576 0.490261
    outer loop
      vertex -0.803847 3 36
      vertex -3 0.75 40
      vertex 3 0.75 40
    endloop
  endfacet
  facet normal 0.866006 0.499989 0.00673077
    outer loop
      vertex 3 0.803847 36
      vertex 2.19615 2.19615 36
      vertex 3 0.75 40
    endloop
  endfacet
  facet normal -5.17013e-07 -0.871576 0.490261
    outer loop
      vertex 0.803847 -3 36
      vertex -3 -0.75 40
      vertex -0.803847 -3 36
    endloop
  endfacet
  facet normal -0.866006 -0.499989 0.00673077
    outer loop
      vertex -3 -0.75 40
      vertex -3 -0.803847 36
      vertex -2.19615 -2.19615 36
    endloop
  endfacet
  facet normal 0.88829 0.116946 -0.444145
    outer loop
      vertex 5 0 0
      vertex 4.82963 1.2941 0
      vertex 7.5 0 5
    endloop
  endfacet
  facet normal -0.88829 -0.116946 -0.444145
    outer loop
      vertex -4.82963 -1.2941 0
      vertex -7.5 0 5
      vertex -5 0 0
    endloop
  endfacet
  facet normal -0.116946 0.88829 -0.444145
    outer loop
      vertex 0 5 0
      vertex -1.2941 4.82963 0
      vertex 0 7.5 5
    endloop
  endfacet
  facet normal 0.88829 -0.116946 -0.444145
    outer loop
      vertex 7.24444 -1.94114 5
      vertex 4.82963 -1.2941 0
      vertex 7.5 0 5
    endloop
  endfacet
  facet normal 0.116946 -0.88829 -0.444145
    outer loop
      vertex 1.2941 -4.82963 0
      vertex 0 -7.5 5
      vertex 0 -5 0
    endloop
  endfacet
  facet normal -0.88829 0.116946 -0.444145
    outer loop
      vertex -4.82963 1.2941 0
      vertex -7.5 0 5
      vertex -7.24444 1.94114 5
    endloop
  endfacet
  facet normal 0.88829 0.116946 -0.444145
    outer loop
      vertex 7.5 0 5
      vertex 4.82963 1.2941 0
      vertex 7.24444 1.94114 5
    endloop
  endfacet
  facet normal 0.827755 -0.342867 -0.444145
    outer loop
      vertex 6.49519 -3.75 5
      vertex 4.82963 -1.2941 0
      vertex 7.24444 -1.94114 5
    endloop
  endfacet
  facet normal 0.545423 -0.710809 -0.444145
    outer loop
      vertex 3.75 -6.49519 5
      vertex 2.5 -4.33013 0
      vertex 5.3033 -5.3033 5
    endloop
  endfacet
  facet normal 0.342867 -0.827754 -0.444145
    outer loop
      vertex 3.75 -6.49519 5
      vertex 1.2941 -4.82963 0
      vertex 2.5 -4.33013 0
    endloop
  endfacet
  facet normal 0 0 -1
    outer loop
      vertex 4.82963 -1.2941 0
      vertex 4.82963 1.2941 0
      vertex 5 0 0
    endloop
  endfacet
  facet normal 0 0 -1
    outer loop
      vertex 4.33013 -2.5 0
      vertex 4.82963 1.2941 0
      vertex 4.82963 -1.2941 0
    endloop
  endfacet
  facet normal 0 0 -1
    outer loop
      vertex 4.33013 -2.5 0
      vertex 4.33013 2.5 0
      vertex 4.82963 1.2941 0
    endloop
  endfacet
  facet normal 0 0 -1
    outer loop
      vertex 3.53553 -3.53553 0
      vertex 4.33013 2.5 0
      vertex 4.33013 -2.5 0
    endloop
  endfacet
  facet normal 0 0 -1
    outer loop
      vertex 3.53553 -3.53553 0
      vertex 3.53553 3.53553 0
      vertex 4.33013 2.5 0
    endloop
  endfacet
  facet normal 0 0 -1
    outer loop
      vertex 2.5 -4.33013 0
      vertex 3.53553 3.53553 0
      vertex 3.53553 -3.53553 0
    endloop
  endfacet
  facet normal 0 0 -1
    outer loop
      vertex 2.5 -4.33013 0
      vertex 2.5 4.33013 0
      vertex 3.53553 3.53553 0
    endloop
  endfacet
  facet normal 0 0 -1
    outer loop
      vertex 1.2941 -4.82963 0
      vertex 2.5 4.33013 0
      vertex 2.5 -4.33013 0
    endloop
  endfacet
  facet normal 0 0 -1
    outer loop
      vertex 1.2941 -4.82963 0
      vertex 1.2941 4.82963 0
      vertex 2.5 4.33013 0
    endloop
  endfacet
  facet normal 0 0 -1
    outer loop
      vertex 0 -5 0
      vertex 1.2941 4.82963 0
      vertex 1.2941 -4.82963 0
    endloop
  endfacet
  facet normal 0 0 -1
    outer loop
      vertex 0 -5 0
      vertex 0 5 0
      vertex 1.2941 4.82963 0
    endloop
  endfacet
  facet normal 0 0 -1
    outer loop
      vertex -1.2941 -4.82963 0
      vertex 0 5 0
      vertex 0 -5 0
    endloop
  endfacet
  facet normal 0 0 -1
    outer loop
      vertex -1.2941 -4.82963 0
      vertex -1.2941 4.82963 0
      vertex 0 5 0
    endloop
  endfacet
  facet normal 0 0 -1
    outer loop
      vertex -1.2941 -4.82963 0
      vertex -2.5 4.33013 0
      vertex -1.2941 4.82963 0
    endloop
  endfacet
  facet normal 0 0 -1
    outer loop
      vertex -2.5 -4.33013 0
      vertex -2.5 4.33013 0
      vertex -1.2941 -4.82963 0
    endloop
  endfacet
  facet normal 0 0 -1
    outer loop
      vertex -3.53553 -3.53553 0
      vertex -2.5 4.33013 0
      vertex -2.5 -4.33013 0
    endloop
  endfacet
  facet normal 0 0 -1
    outer loop
      vertex -3.53553 -3.53553 0
      vertex -3.53553 3.53553 0
      vertex -2.5 4.33013 0
    endloop
  endfacet
  facet normal 0 0 -1
    outer loop
      vertex -4.33013 -2.5 0
      vertex -3.53553 3.53553 0
      vertex -3.53553 -3.53553 0
    endloop
  endfacet
  facet normal 0 0 -1
    outer loop
      vertex -4.33013 -2.5 0
      vertex -4.33013 2.5 0
      vertex -3.53553 3.53553 0
    endloop
  endfacet
  facet normal 0 0 -1
    outer loop
      vertex -4.82963 -1.2941 0
      vertex -4.33013 2.5 0
      vertex -4.33013 -2.5 0
    endloop
  endfacet
  facet normal 0 0 -1
    outer loop
      vertex -4.82963 -1.2941 0
      vertex -4.82963 1.2941 0
      vertex -4.33013 2.5 0
    endloop
  endfacet
  facet normal 0 -0 -1
    outer loop
      vertex -4.82963 1.2941 0
      vertex -4.82963 -1.2941 0
      vertex -5 0 0
    endloop
  endfacet
  facet normal -0.545423 -0.710809 -0.444145
    outer loop
      vertex -3.75 -6.49519 5
      vertex -5.3033 -5.3033 5
      vertex -2.5 -4.33013 0
    endloop
  endfacet
  facet normal -0.545423 -0.710809 -0.444145
    outer loop
      vertex -2.5 -4.33013 0
      vertex -5.3033 -5.3033 5
      vertex -3.53553 -3.53553 0
    endloop
  endfacet
  facet normal -0.710809 0.545422 -0.444145
    outer loop
      vertex -4.33013 2.5 0
      vertex -5.3033 5.3033 5
      vertex -3.53553 3.53553 0
    endloop
  endfacet
  facet normal 0.545423 0.710809 -0.444145
    outer loop
      vertex 3.53553 3.53553 0
      vertex 2.5 4.33013 0
      vertex 5.3033 5.3033 5
    endloop
  endfacet
  facet normal 0.710809 0.545422 -0.444145
    outer loop
      vertex 4.33013 2.5 0
      vertex 3.53553 3.53553 0
      vertex 5.3033 5.3033 5
    endloop
  endfacet
  facet normal 0.827754 0.342867 -0.444145
    outer loop
      vertex 7.24444 1.94114 5
      vertex 4.82963 1.2941 0
      vertex 6.49519 3.75 5
    endloop
  endfacet
  facet normal 0.710809 -0.545423 -0.444145
    outer loop
      vertex 5.3033 -5.3033 5
      vertex 4.33013 -2.5 0
      vertex 6.49519 -3.75 5
    endloop
  endfacet
  facet normal 0.827754 -0.342867 -0.444145
    outer loop
      vertex 6.49519 -3.75 5
      vertex 4.33013 -2.5 0
      vertex 4.82963 -1.2941 0
    endloop
  endfacet
  facet normal 0.710809 -0.545423 -0.444145
    outer loop
      vertex 5.3033 -5.3033 5
      vertex 3.53553 -3.53553 0
      vertex 4.33013 -2.5 0
    endloop
  endfacet
  facet normal -0.827754 -0.342867 -0.444145
    outer loop
      vertex -6.49519 -3.75 5
      vertex -7.24444 -1.94114 5
      vertex -4.82963 -1.2941 0
    endloop
  endfacet
  facet normal -0.88829 -0.116946 -0.444145
    outer loop
      vertex -7.24444 -1.94114 5
      vertex -7.5 0 5
      vertex -4.82963 -1.2941 0
    endloop
  endfacet
  facet normal -0.116946 -0.88829 -0.444145
    outer loop
      vertex 0 -7.5 5
      vertex -1.94114 -7.24444 5
      vertex -1.2941 -4.82963 0
    endloop
  endfacet
  facet normal -0.88829 0.116946 -0.444145
    outer loop
      vertex -5 0 0
      vertex -7.5 0 5
      vertex -4.82963 1.2941 0
    endloop
  endfacet
  facet normal -0.342867 0.827754 -0.444145
    outer loop
      vertex -1.2941 4.82963 0
      vertex -3.75 6.49519 5
      vertex -1.94114 7.24444 5
    endloop
  endfacet
  facet normal -0.116946 0.88829 -0.444145
    outer loop
      vertex -1.2941 4.82963 0
      vertex -1.94114 7.24444 5
      vertex 0 7.5 5
    endloop
  endfacet
  facet normal 0.116946 0.88829 -0.444145
    outer loop
      vertex 1.2941 4.82963 0
      vertex 0 7.5 5
      vertex 1.94114 7.24444 5
    endloop
  endfacet
  facet normal 0.342867 0.827754 -0.444145
    outer loop
      vertex 2.5 4.33013 0
      vertex 1.2941 4.82963 0
      vertex 3.75 6.49519 5
    endloop
  endfacet
  facet normal 0.342867 0.827755 -0.444145
    outer loop
      vertex 3.75 6.49519 5
      vertex 1.2941 4.82963 0
      vertex 1.94114 7.24444 5
    endloop
  endfacet
  facet normal 0.545423 0.710809 -0.444145
    outer loop
      vertex 5.3033 5.3033 5
      vertex 2.5 4.33013 0
      vertex 3.75 6.49519 5
    endloop
  endfacet
  facet normal 0.710809 0.545422 -0.444145
    outer loop
      vertex 6.49519 3.75 5
      vertex 4.33013 2.5 0
      vertex 5.3033 5.3033 5
    endloop
  endfacet
  facet normal 0.827754 0.342867 -0.444145
    outer loop
      vertex 4.82963 1.2941 0
      vertex 4.33013 2.5 0
      vertex 6.49519 3.75 5
    endloop
  endfacet
  facet normal 0.88829 -0.116946 -0.444145
    outer loop
      vertex 7.5 0 5
      vertex 4.82963 -1.2941 0
      vertex 5 0 0
    endloop
  endfacet
  facet normal 0.342867 -0.827755 -0.444145
    outer loop
      vertex 1.94114 -7.24444 5
      vertex 1.2941 -4.82963 0
      vertex 3.75 -6.49519 5
    endloop
  endfacet
  facet normal 0.116946 -0.88829 -0.444145
    outer loop
      vertex 1.94114 -7.24444 5
      vertex 0 -7.5 5
      vertex 1.2941 -4.82963 0
    endloop
  endfacet
  facet normal -0.710809 -0.545422 -0.444145
    outer loop
      vertex -5.3033 -5.3033 5
      vertex -6.49519 -3.75 5
      vertex -4.33013 -2.5 0
    endloop
  endfacet
  facet normal -0.827754 -0.342867 -0.444145
    outer loop
      vertex -4.33013 -2.5 0
      vertex -6.49519 -3.75 5
      vertex -4.82963 -1.2941 0
    endloop
  endfacet
  facet normal -0.342867 -0.827755 -0.444145
    outer loop
      vertex -1.94114 -7.24444 5
      vertex -3.75 -6.49519 5
      vertex -1.2941 -4.82963 0
    endloop
  endfacet
  facet normal -0.342867 -0.827754 -0.444145
    outer loop
      vertex -1.2941 -4.82963 0
      vertex -3.75 -6.49519 5
      vertex -2.5 -4.33013 0
    endloop
  endfacet
  facet normal -0.827754 0.342867 -0.444145
    outer loop
      vertex -4.82963 1.2941 0
      vertex -7.24444 1.94114 5
      vertex -6.49519 3.75 5
    endloop
  endfacet
  facet normal -0.545422 0.710809 -0.444145
    outer loop
      vertex -2.5 4.33013 0
      vertex -5.3033 5.3033 5
      vertex -3.75 6.49519 5
    endloop
  endfacet
  facet normal -0.342867 0.827754 -0.444145
    outer loop
      vertex -2.5 4.33013 0
      vertex -3.75 6.49519 5
      vertex -1.2941 4.82963 0
    endloop
  endfacet
  facet normal 0.116946 0.88829 -0.444145
    outer loop
      vertex 1.2941 4.82963 0
      vertex 0 5 0
      vertex 0 7.5 5
    endloop
  endfacet
  facet normal 0.545423 -0.710809 -0.444145
    outer loop
      vertex 5.3033 -5.3033 5
      vertex 2.5 -4.33013 0
      vertex 3.53553 -3.53553 0
    endloop
  endfacet
  facet normal -0.710809 -0.545422 -0.444145
    outer loop
      vertex -3.53553 -3.53553 0
      vertex -5.3033 -5.3033 5
      vertex -4.33013 -2.5 0
    endloop
  endfacet
  facet normal -0.116946 -0.88829 -0.444145
    outer loop
      vertex 0 -7.5 5
      vertex -1.2941 -4.82963 0
      vertex 0 -5 0
    endloop
  endfacet
  facet normal -0.827754 0.342867 -0.444145
    outer loop
      vertex -4.82963 1.2941 0
      vertex -6.49519 3.75 5
      vertex -4.33013 2.5 0
    endloop
  endfacet
  facet normal -0.710809 0.545422 -0.444145
    outer loop
      vertex -4.33013 2.5 0
      vertex -6.49519 3.75 5
      vertex -5.3033 5.3033 5
    endloop
  endfacet
  facet normal -0.545422 0.710809 -0.444145
    outer loop
      vertex -3.53553 3.53553 0
      vertex -5.3033 5.3033 5
      vertex -2.5 4.33013 0
    endloop
  endfacet
  facet normal 0.991445 0.130527 0
    outer loop
      vertex 7.5 0 15
      vertex 7.24444 1.94114 5
      vertex 7.24444 1.94114 15
    endloop
  endfacet
  facet normal 0.991445 0.130527 0
    outer loop
      vertex 7.24444 1.94114 5
      vertex 7.5 0 15
      vertex 7.5 0 5
    endloop
  endfacet
  facet normal -0.991445 0.130527 0
    outer loop
      vertex -7.5 0 5
      vertex -7.24444 1.94114 15
      vertex -7.24444 1.94114 5
    endloop
  endfacet
  facet normal -0.991445 0.130527 0
    outer loop
      vertex -7.24444 1.94114 15
      vertex -7.5 0 5
      vertex -7.5 0 15
    endloop
  endfacet
  facet normal 0.130527 0.991445 -0
    outer loop
      vertex 1.94114 7.24444 5
      vertex 0 7.5 15
      vertex 1.94114 7.24444 15
    endloop
  endfacet
  facet normal 0.130527 0.991445 0
    outer loop
      vertex 0 7.5 15
      vertex 1.94114 7.24444 5
      vertex 0 7.5 5
    endloop
  endfacet
  facet normal 0.793354 0.608761 0
    outer loop
      vertex 6.49519 3.75 15
      vertex 5.3033 5.3033 5
      vertex 5.3033 5.3033 15
    endloop
  endfacet
  facet normal 0.793354 0.608761 0
    outer loop
      vertex 5.3033 5.3033 5
      vertex 6.49519 3.75 15
      vertex 6.49519 3.75 5
    endloop
  endfacet
  facet normal 0.923879 0.382684 0
    outer loop
      vertex 7.24444 1.94114 15
      vertex 6.49519 3.75 5
      vertex 6.49519 3.75 15
    endloop
  endfacet
  facet normal 0.923879 0.382684 0
    outer loop
      vertex 6.49519 3.75 5
      vertex 7.24444 1.94114 15
      vertex 7.24444 1.94114 5
    endloop
  endfacet
  facet normal 0.608761 0.793354 -0
    outer loop
      vertex 5.3033 5.3033 5
      vertex 3.75 6.49519 15
      vertex 5.3033 5.3033 15
    endloop
  endfacet
  facet normal 0.608761 0.793354 0
    outer loop
      vertex 3.75 6.49519 15
      vertex 5.3033 5.3033 5
      vertex 3.75 6.49519 5
    endloop
  endfacet
  facet normal -0.608761 0.793354 0
    outer loop
      vertex -3.75 6.49519 5
      vertex -5.3033 5.3033 15
      vertex -3.75 6.49519 15
    endloop
  endfacet
  facet normal -0.608761 0.793354 0
    outer loop
      vertex -5.3033 5.3033 15
      vertex -3.75 6.49519 5
      vertex -5.3033 5.3033 5
    endloop
  endfacet
  facet normal -0.130527 0.991445 0
    outer loop
      vertex 0 7.5 5
      vertex -1.94114 7.24444 15
      vertex 0 7.5 15
    endloop
  endfacet
  facet normal -0.130527 0.991445 0
    outer loop
      vertex -1.94114 7.24444 15
      vertex 0 7.5 5
      vertex -1.94114 7.24444 5
    endloop
  endfacet
  facet normal 0.793354 -0.608761 0
    outer loop
      vertex 5.3033 -5.3033 15
      vertex 6.49519 -3.75 5
      vertex 6.49519 -3.75 15
    endloop
  endfacet
  facet normal 0.793354 -0.608761 0
    outer loop
      vertex 6.49519 -3.75 5
      vertex 5.3033 -5.3033 15
      vertex 5.3033 -5.3033 5
    endloop
  endfacet
  facet normal -0.608761 -0.793354 0
    outer loop
      vertex -5.3033 -5.3033 5
      vertex -3.75 -6.49519 15
      vertex -5.3033 -5.3033 15
    endloop
  endfacet
  facet normal -0.608761 -0.793354 -0
    outer loop
      vertex -3.75 -6.49519 15
      vertex -5.3033 -5.3033 5
      vertex -3.75 -6.49519 5
    endloop
  endfacet
  facet normal -0.991445 -0.130527 0
    outer loop
      vertex -7.24444 -1.94114 5
      vertex -7.5 0 15
      vertex -7.5 0 5
    endloop
  endfacet
  facet normal -0.991445 -0.130527 0
    outer loop
      vertex -7.5 0 15
      vertex -7.24444 -1.94114 5
      vertex -7.24444 -1.94114 15
    endloop
  endfacet
  facet normal 0.382683 0.92388 -0
    outer loop
      vertex 3.75 6.49519 5
      vertex 1.94114 7.24444 15
      vertex 3.75 6.49519 15
    endloop
  endfacet
  facet normal 0.382683 0.92388 0
    outer loop
      vertex 1.94114 7.24444 15
      vertex 3.75 6.49519 5
      vertex 1.94114 7.24444 5
    endloop
  endfacet
  facet normal -0.793354 0.608761 0
    outer loop
      vertex -6.49519 3.75 5
      vertex -5.3033 5.3033 15
      vertex -5.3033 5.3033 5
    endloop
  endfacet
  facet normal -0.793354 0.608761 0
    outer loop
      vertex -5.3033 5.3033 15
      vertex -6.49519 3.75 5
      vertex -6.49519 3.75 15
    endloop
  endfacet
  facet normal -0.923879 0.382684 0
    outer loop
      vertex -7.24444 1.94114 5
      vertex -6.49519 3.75 15
      vertex -6.49519 3.75 5
    endloop
  endfacet
  facet normal -0.923879 0.382684 0
    outer loop
      vertex -6.49519 3.75 15
      vertex -7.24444 1.94114 5
      vertex -7.24444 1.94114 15
    endloop
  endfacet
  facet normal -0.382684 0.923879 0
    outer loop
      vertex -1.94114 7.24444 5
      vertex -3.75 6.49519 15
      vertex -1.94114 7.24444 15
    endloop
  endfacet
  facet normal -0.382684 0.923879 0
    outer loop
      vertex -3.75 6.49519 15
      vertex -1.94114 7.24444 5
      vertex -3.75 6.49519 5
    endloop
  endfacet
  facet normal 0.130527 -0.991445 0
    outer loop
      vertex 0 -7.5 5
      vertex 1.94114 -7.24444 15
      vertex 0 -7.5 15
    endloop
  endfacet
  facet normal 0.130527 -0.991445 0
    outer loop
      vertex 1.94114 -7.24444 15
      vertex 0 -7.5 5
      vertex 1.94114 -7.24444 5
    endloop
  endfacet
  facet normal 0.608761 -0.793354 0
    outer loop
      vertex 3.75 -6.49519 5
      vertex 5.3033 -5.3033 15
      vertex 3.75 -6.49519 15
    endloop
  endfacet
  facet normal 0.608761 -0.793354 0
    outer loop
      vertex 5.3033 -5.3033 15
      vertex 3.75 -6.49519 5
      vertex 5.3033 -5.3033 5
    endloop
  endfacet
  facet normal -0.382683 -0.92388 0
    outer loop
      vertex -3.75 -6.49519 5
      vertex -1.94114 -7.24444 15
      vertex -3.75 -6.49519 15
    endloop
  endfacet
  facet normal -0.382683 -0.92388 -0
    outer loop
      vertex -1.94114 -7.24444 15
      vertex -3.75 -6.49519 5
      vertex -1.94114 -7.24444 5
    endloop
  endfacet
  facet normal -0.923879 -0.382684 0
    outer loop
      vertex -6.49519 -3.75 5
      vertex -7.24444 -1.94114 15
      vertex -7.24444 -1.94114 5
    endloop
  endfacet
  facet normal -0.923879 -0.382684 0
    outer loop
      vertex -7.24444 -1.94114 15
      vertex -6.49519 -3.75 5
      vertex -6.49519 -3.75 15
    endloop
  endfacet
  facet normal 0.382683 -0.92388 0
    outer loop
      vertex 1.94114 -7.24444 5
      vertex 3.75 -6.49519 15
      vertex 1.94114 -7.24444 15
    endloop
  endfacet
  facet normal 0.382683 -0.92388 0
    outer loop
      vertex 3.75 -6.49519 15
      vertex 1.94114 -7.24444 5
      vertex 3.75 -6.49519 5
    endloop
  endfacet
  facet normal 0.92388 -0.382683 0
    outer loop
      vertex 6.49519 -3.75 15
      vertex 7.24444 -1.94114 5
      vertex 7.24444 -1.94114 15
    endloop
  endfacet
  facet normal 0.92388 -0.382683 0
    outer loop
      vertex 7.24444 -1.94114 5
      vertex 6.49519 -3.75 15
      vertex 6.49519 -3.75 5
    endloop
  endfacet
  facet normal 0.991445 -0.130527 0
    outer loop
      vertex 7.24444 -1.94114 15
      vertex 7.5 0 5
      vertex 7.5 0 15
    endloop
  endfacet
  facet normal 0.991445 -0.130527 0
    outer loop
      vertex 7.5 0 5
      vertex 7.24444 -1.94114 15
      vertex 7.24444 -1.94114 5
    endloop
  endfacet
  facet normal -0.130527 -0.991445 0
    outer loop
      vertex -1.94114 -7.24444 5
      vertex 0 -7.5 15
      vertex -1.94114 -7.24444 15
    endloop
  endfacet
  facet normal -0.130527 -0.991445 -0
    outer loop
      vertex 0 -7.5 15
      vertex -1.94114 -7.24444 5
      vertex 0 -7.5 5
    endloop
  endfacet
  facet normal -0.793354 -0.608761 0
    outer loop
      vertex -5.3033 -5.3033 5
      vertex -6.49519 -3.75 15
      vertex -6.49519 -3.75 5
    endloop
  endfacet
  facet normal -0.793354 -0.608761 0
    outer loop
      vertex -6.49519 -3.75 15
      vertex -5.3033 -5.3033 5
      vertex -5.3033 -5.3033 15
    endloop
  endfacet
  facet normal 0.739761 0.0973917 0.665785
    outer loop
      vertex 7.24444 1.94114 15
      vertex 3 0 20
      vertex 7.5 0 15
    endloop
  endfacet
  facet normal 0.689347 0.285537 0.665785
    outer loop
      vertex 2.59808 1.5 20
      vertex 7.24444 1.94114 15
      vertex 6.49519 3.75 15
    endloop
  endfacet
  facet normal 0.0973917 0.739761 0.665785
    outer loop
      vertex 0 7.5 15
      vertex 0 3 20
      vertex 1.94114 7.24444 15
    endloop
  endfacet
  facet normal 0.454223 -0.591956 0.665785
    outer loop
      vertex 5.3033 -5.3033 15
      vertex 1.5 -2.59808 20
      vertex 3.75 -6.49519 15
    endloop
  endfacet
  facet normal 0.285537 -0.689347 0.665785
    outer loop
      vertex 3.75 -6.49519 15
      vertex 1.5 -2.59808 20
      vertex 1.94114 -7.24444 15
    endloop
  endfacet
  facet normal 0.591956 0.454223 0.665785
    outer loop
      vertex 2.59808 1.5 20
      vertex 6.49519 3.75 15
      vertex 5.3033 5.3033 15
    endloop
  endfacet
  facet normal 0.454223 0.591956 0.665785
    outer loop
      vertex 5.3033 5.3033 15
      vertex 1.5 2.59807 20
      vertex 2.19615 2.19615 19.8824
    endloop
  endfacet
  facet normal 0.46098 0.58509 0.667209
    outer loop
      vertex 1.5 2.59807 20
      vertex 5.3033 5.3033 15
      vertex 1.5 2.59808 20
    endloop
  endfacet
  facet normal 0.591956 -0.454223 0.665785
    outer loop
      vertex 6.49519 -3.75 15
      vertex 2.59808 -1.5 20
      vertex 5.3033 -5.3033 15
    endloop
  endfacet
  facet normal 0.454223 0.591956 0.665785
    outer loop
      vertex 3.75 6.49519 15
      vertex 1.5 2.59808 20
      vertex 5.3033 5.3033 15
    endloop
  endfacet
  facet normal 0.285536 0.689348 0.665785
    outer loop
      vertex 1.94114 7.24444 15
      vertex 0.803847 3 19.8824
      vertex 1.5 2.59808 20
    endloop
  endfacet
  facet normal -0.591956 0.454223 0.665785
    outer loop
      vertex -5.3033 5.3033 15
      vertex -2.59808 1.5 20
      vertex -2.19615 2.19615 19.8824
    endloop
  endfacet
  facet normal -0.739761 0.0973917 0.665785
    outer loop
      vertex -7.24444 1.94114 15
      vertex -7.5 0 15
      vertex -3 0 20
    endloop
  endfacet
  facet normal 0.689347 0.285537 0.665785
    outer loop
      vertex 7.24444 1.94114 15
      vertex 2.59808 1.5 20
      vertex 3 0.803847 19.8824
    endloop
  endfacet
  facet normal 0.58509 -0.46098 0.667209
    outer loop
      vertex 2.59807 -1.5 20
      vertex 5.3033 -5.3033 15
      vertex 2.59808 -1.5 20
    endloop
  endfacet
  facet normal 0.591956 -0.454223 0.665785
    outer loop
      vertex 5.3033 -5.3033 15
      vertex 2.59807 -1.5 20
      vertex 2.19615 -2.19615 19.8824
    endloop
  endfacet
  facet normal 0.739761 -0.0973917 0.665785
    outer loop
      vertex 7.5 0 15
      vertex 3 0 20
      vertex 7.24444 -1.94114 15
    endloop
  endfacet
  facet normal 0.285537 0.689347 0.665785
    outer loop
      vertex 1.94114 7.24444 15
      vertex 1.5 2.59808 20
      vertex 3.75 6.49519 15
    endloop
  endfacet
  facet normal -0.0973924 0.739758 0.665787
    outer loop
      vertex 0 3 20
      vertex -0.803847 3 19.8824
      vertex -3.62189e-06 3 20
    endloop
  endfacet
  facet normal -0.097392 0.739761 0.665785
    outer loop
      vertex -1.94114 7.24444 15
      vertex -0.803847 3 19.8824
      vertex 0 3 20
    endloop
  endfacet
  facet normal -0.0973917 0.739761 0.665785
    outer loop
      vertex 0 7.5 15
      vertex -1.94114 7.24444 15
      vertex 0 3 20
    endloop
  endfacet
  facet normal -0.689347 0.285537 0.665785
    outer loop
      vertex -6.49519 3.75 15
      vertex -7.24444 1.94114 15
      vertex -2.59808 1.5 20
    endloop
  endfacet
  facet normal -0.591956 0.454223 0.665785
    outer loop
      vertex -5.3033 5.3033 15
      vertex -6.49519 3.75 15
      vertex -2.59808 1.5 20
    endloop
  endfacet
  facet normal -0.454223 -0.591956 0.665785
    outer loop
      vertex -1.5 -2.59808 20
      vertex -5.3033 -5.3033 15
      vertex -3.75 -6.49519 15
    endloop
  endfacet
  facet normal -0.689347 -0.285537 0.665785
    outer loop
      vertex -2.59808 -1.5 20
      vertex -7.24444 -1.94114 15
      vertex -6.49519 -3.75 15
    endloop
  endfacet
  facet normal 0.591956 0.454223 0.665785
    outer loop
      vertex 5.3033 5.3033 15
      vertex 2.19615 2.19615 19.8824
      vertex 2.59808 1.5 20
    endloop
  endfacet
  facet normal 0.739761 0.097392 0.665785
    outer loop
      vertex 3 3.62189e-06 20
      vertex 7.24444 1.94114 15
      vertex 3 0.803847 19.8824
    endloop
  endfacet
  facet normal 0.73976 0.0973926 0.665785
    outer loop
      vertex 7.24444 1.94114 15
      vertex 3 3.62189e-06 20
      vertex 3 0 20
    endloop
  endfacet
  facet normal -0.454223 -0.591956 0.665785
    outer loop
      vertex -5.3033 -5.3033 15
      vertex -1.5 -2.59807 20
      vertex -2.19615 -2.19615 19.8824
    endloop
  endfacet
  facet normal -0.46098 -0.58509 0.667209
    outer loop
      vertex -1.5 -2.59807 20
      vertex -5.3033 -5.3033 15
      vertex -1.5 -2.59808 20
    endloop
  endfacet
  facet normal -0.0973917 -0.739761 0.665785
    outer loop
      vertex 0 -3 20
      vertex -1.94114 -7.24444 15
      vertex 0 -7.5 15
    endloop
  endfacet
  facet normal 0.0973917 -0.739761 0.665785
    outer loop
      vertex 0 -3 20
      vertex 0 -7.5 15
      vertex 1.94114 -7.24444 15
    endloop
  endfacet
  facet normal 0.689347 -0.285537 0.665785
    outer loop
      vertex 7.24444 -1.94114 15
      vertex 2.59808 -1.5 20
      vertex 6.49519 -3.75 15
    endloop
  endfacet
  facet normal 0.0973923 0.739764 0.66578
    outer loop
      vertex 0.803847 3 19.8824
      vertex 0 3 20
      vertex 3.62192e-06 3 20
    endloop
  endfacet
  facet normal 0.0973929 0.73976 0.665785
    outer loop
      vertex 0 3 20
      vertex 0.803847 3 19.8824
      vertex 1.94114 7.24444 15
    endloop
  endfacet
  facet normal -0.285537 0.689347 0.665785
    outer loop
      vertex -1.5 2.59808 20
      vertex -1.94114 7.24444 15
      vertex -3.75 6.49519 15
    endloop
  endfacet
  facet normal -0.73976 0.0973929 0.665785
    outer loop
      vertex -7.24444 1.94114 15
      vertex -3 3.62192e-06 20
      vertex -3 0.803847 19.8824
    endloop
  endfacet
  facet normal -0.739761 0.0973918 0.665785
    outer loop
      vertex -3 3.62192e-06 20
      vertex -7.24444 1.94114 15
      vertex -3 0 20
    endloop
  endfacet
  facet normal -0.591956 -0.454223 0.665785
    outer loop
      vertex -2.59808 -1.5 20
      vertex -6.49519 -3.75 15
      vertex -5.3033 -5.3033 15
    endloop
  endfacet
  facet normal -0.591956 -0.454223 0.665785
    outer loop
      vertex -2.59808 -1.5 20
      vertex -5.3033 -5.3033 15
      vertex -2.19615 -2.19615 19.8824
    endloop
  endfacet
  facet normal -0.739758 -0.0973924 0.665787
    outer loop
      vertex -3 0 20
      vertex -3 -0.803847 19.8824
      vertex -3 -3.62189e-06 20
    endloop
  endfacet
  facet normal -0.739761 -0.097392 0.665785
    outer loop
      vertex -7.24444 -1.94114 15
      vertex -3 -0.803847 19.8824
      vertex -3 0 20
    endloop
  endfacet
  facet normal -0.739761 -0.0973917 0.665785
    outer loop
      vertex -3 0 20
      vertex -7.5 0 15
      vertex -7.24444 -1.94114 15
    endloop
  endfacet
  facet normal -0.285537 -0.689347 0.665785
    outer loop
      vertex -1.5 -2.59808 20
      vertex -3.75 -6.49519 15
      vertex -1.94114 -7.24444 15
    endloop
  endfacet
  facet normal 0.0973924 -0.739758 0.665787
    outer loop
      vertex 0 -3 20
      vertex 0.803847 -3 19.8824
      vertex 3.62189e-06 -3 20
    endloop
  endfacet
  facet normal 0.097392 -0.739761 0.665785
    outer loop
      vertex 1.94114 -7.24444 15
      vertex 0.803847 -3 19.8824
      vertex 0 -3 20
    endloop
  endfacet
  facet normal 0.285537 -0.689347 0.665785
    outer loop
      vertex 1.5 -2.59808 20
      vertex 0.803847 -3 19.8824
      vertex 1.94114 -7.24444 15
    endloop
  endfacet
  facet normal 0.454223 -0.591956 0.665785
    outer loop
      vertex 1.5 -2.59807 20
      vertex 5.3033 -5.3033 15
      vertex 2.19615 -2.19615 19.8824
    endloop
  endfacet
  facet normal 0.475229 -0.570275 0.670032
    outer loop
      vertex 5.3033 -5.3033 15
      vertex 1.5 -2.59807 20
      vertex 1.5 -2.59808 20
    endloop
  endfacet
  facet normal 0.689348 -0.285536 0.665785
    outer loop
      vertex 7.24444 -1.94114 15
      vertex 3 -0.803847 19.8824
      vertex 2.59808 -1.5 20
    endloop
  endfacet
  facet normal 0.739764 -0.0973923 0.66578
    outer loop
      vertex 3 -0.803847 19.8824
      vertex 3 0 20
      vertex 3 -3.62192e-06 20
    endloop
  endfacet
  facet normal 0.73976 -0.0973929 0.665785
    outer loop
      vertex 3 0 20
      vertex 3 -0.803847 19.8824
      vertex 7.24444 -1.94114 15
    endloop
  endfacet
  facet normal -0.454223 0.591956 0.665785
    outer loop
      vertex -1.5 2.59808 20
      vertex -3.75 6.49519 15
      vertex -5.3033 5.3033 15
    endloop
  endfacet
  facet normal -0.454223 0.591956 0.665785
    outer loop
      vertex -1.5 2.59808 20
      vertex -5.3033 5.3033 15
      vertex -2.19615 2.19615 19.8824
    endloop
  endfacet
  facet normal 0 0 1
    outer loop
      vertex 3 3.62189e-06 20
      vertex 3 -3.62192e-06 20
      vertex 3 0 20
    endloop
  endfacet
  facet normal 0 0 1
    outer loop
      vertex -3 3.62192e-06 20
      vertex -3 0 20
      vertex -3 -3.62189e-06 20
    endloop
  endfacet
  facet normal 0 0 1
    outer loop
      vertex 3.62189e-06 -3 20
      vertex -3.62192e-06 -3 20
      vertex 0 -3 20
    endloop
  endfacet
  facet normal 0 0 1
    outer loop
      vertex 0 3 20
      vertex -3.62189e-06 3 20
      vertex 3.62192e-06 3 20
    endloop
  endfacet
  facet normal -0.689347 0.285536 0.665785
    outer loop
      vertex -3 0.803847 19.8824
      vertex -2.59808 1.5 20
      vertex -7.24444 1.94114 15
    endloop
  endfacet
  facet normal -0.689347 -0.285537 0.665785
    outer loop
      vertex -3 -0.803847 19.8824
      vertex -7.24444 -1.94114 15
      vertex -2.59808 -1.5 20
    endloop
  endfacet
  facet normal -0.285536 -0.689348 0.665785
    outer loop
      vertex -1.94114 -7.24444 15
      vertex -0.803847 -3 19.8824
      vertex -1.5 -2.59808 20
    endloop
  endfacet
  facet normal -0.0973923 -0.739764 0.66578
    outer loop
      vertex -0.803847 -3 19.8824
      vertex 0 -3 20
      vertex -3.62192e-06 -3 20
    endloop
  endfacet
  facet normal -0.0973929 -0.73976 0.665785
    outer loop
      vertex 0 -3 20
      vertex -0.803847 -3 19.8824
      vertex -1.94114 -7.24444 15
    endloop
  endfacet
  facet normal -0.285537 0.689347 0.665785
    outer loop
      vertex -0.803847 3 19.8824
      vertex -1.94114 7.24444 15
      vertex -1.5 2.59808 20
    endloop
  endfacet
endsolid OpenSCAD_Model
