solid OpenSCAD_Model
  facet normal 0.994522 0.104528 0
    outer loop
      vertex 21.7149 4.61564 10
      vertex 21.9277 2.59091 -3.77333
      vertex 21.7149 4.61564 -3.59619
    endloop
  endfacet
  facet normal 0.994522 0.104529 -7.47164e-08
    outer loop
      vertex 22.2 0 10
      vertex 21.9277 2.59091 -3.77333
      vertex 21.7149 4.61564 10
    endloop
  endfacet
  facet normal 0.994522 0.104529 0
    outer loop
      vertex 21.9277 2.59091 -3.77333
      vertex 22.2 0 10
      vertex 22.2 0 -4
    endloop
  endfacet
  facet normal 0.994522 0.104529 -0
    outer loop
      vertex 22.2 0 -10
      vertex 22.0888 1.05796 -10
      vertex 22.2 0 -4
    endloop
  endfacet
  facet normal -0.994522 0.104529 0
    outer loop
      vertex -22.0888 1.05796 -10
      vertex -22.2 0 -10
      vertex -22.2 0 -4
    endloop
  endfacet
  facet normal -0.994522 0.104528 0
    outer loop
      vertex -21.9277 2.59091 -3.77333
      vertex -21.7149 4.61564 10
      vertex -21.7149 4.61564 -3.59619
    endloop
  endfacet
  facet normal -0.994522 0.104529 0
    outer loop
      vertex -22.2 0 10
      vertex -21.9277 2.59091 -3.77333
      vertex -22.2 0 -4
    endloop
  endfacet
  facet normal -0.994522 0.104529 -7.47164e-08
    outer loop
      vertex -21.9277 2.59091 -3.77333
      vertex -22.2 0 10
      vertex -21.7149 4.61564 10
    endloop
  endfacet
  facet normal 0 1 -0
    outer loop
      vertex 2.32053 22.0784 -10
      vertex -2.32053 22.0784 -9.24582
      vertex 2.32053 22.0784 -9.24582
    endloop
  endfacet
  facet normal 0 1 0
    outer loop
      vertex -2.32053 22.0784 -9.24582
      vertex 2.32053 22.0784 -10
      vertex -2.32053 22.0784 -10
    endloop
  endfacet
  facet normal 0 -1 0
    outer loop
      vertex -2.32053 -22.0784 -10
      vertex 2.32053 -22.0784 10
      vertex -2.32053 -22.0784 10
    endloop
  endfacet
  facet normal 0 -1 -0
    outer loop
      vertex 2.32053 -22.0784 10
      vertex -2.32053 -22.0784 -10
      vertex 2.32053 -22.0784 -10
    endloop
  endfacet
  facet normal 0.587785 0.809017 0
    outer loop
      vertex 13.0607 17.8012 -10
      vertex 11.1 19.2258 -10
      vertex 11.1 19.2258 -9.74882
    endloop
  endfacet
  facet normal -0.587785 0.809017 0
    outer loop
      vertex -11.1 19.2258 -10
      vertex -13.0607 17.8012 -10
      vertex -11.1 19.2258 -9.74882
    endloop
  endfacet
  facet normal -0.406736 0.913546 0
    outer loop
      vertex -6.86018 21.1135 -10
      vertex -11.1 19.2258 -9.74882
      vertex -6.86018 21.1135 -9.41597
    endloop
  endfacet
  facet normal -0.406736 0.913546 0
    outer loop
      vertex -11.1 19.2258 -9.74882
      vertex -6.86018 21.1135 -10
      vertex -11.1 19.2258 -10
    endloop
  endfacet
  facet normal 0.866107 0.499859 0
    outer loop
      vertex 17.9602 13.0488 10
      vertex 17.9626 13.0446 9.46981
      vertex 17.9602 13.0488 9.47055
    endloop
  endfacet
  facet normal 0.866025 0.5 -1.49595e-06
    outer loop
      vertex 20.2807 9.02955 10
      vertex 17.9626 13.0446 9.46981
      vertex 17.9602 13.0488 10
    endloop
  endfacet
  facet normal 0.866025 0.5 0
    outer loop
      vertex 17.9626 13.0446 9.46981
      vertex 20.2807 9.02955 10
      vertex 20.2807 9.02955 -3.21002
    endloop
  endfacet
  facet normal 0.951056 0.309017 0
    outer loop
      vertex 20.2807 9.02955 10
      vertex 20.881 7.18196 -3.37166
      vertex 20.2807 9.02955 -3.21002
    endloop
  endfacet
  facet normal 0.951057 0.309017 6.992e-08
    outer loop
      vertex 21.7149 4.61564 10
      vertex 20.881 7.18196 -3.37166
      vertex 20.2807 9.02955 10
    endloop
  endfacet
  facet normal 0.951057 0.309017 0
    outer loop
      vertex 20.881 7.18196 -3.37166
      vertex 21.7149 4.61564 10
      vertex 21.7149 4.61564 -3.59619
    endloop
  endfacet
  facet normal 0.743145 0.669131 6.80843e-07
    outer loop
      vertex 17.9602 13.0488 10
      vertex 17.7453 13.2875 9.51263
      vertex 15.2566 16.0515 10
    endloop
  endfacet
  facet normal 0.743146 0.66913 4.17678e-08
    outer loop
      vertex 17.9602 13.0488 10
      vertex 17.9511 13.0589 9.47232
      vertex 17.7453 13.2875 9.51263
    endloop
  endfacet
  facet normal 0.743147 0.669129 0
    outer loop
      vertex 17.9511 13.0589 9.47232
      vertex 17.9602 13.0488 10
      vertex 17.9602 13.0488 9.47055
    endloop
  endfacet
  facet normal 0.207912 0.978148 0
    outer loop
      vertex 2.32053 22.0784 -10
      vertex 6.86018 21.1135 -9.41597
      vertex 6.86018 21.1135 -10
    endloop
  endfacet
  facet normal 0.207912 0.978148 0
    outer loop
      vertex 6.86018 21.1135 -9.41597
      vertex 2.32053 22.0784 -10
      vertex 2.32053 22.0784 -9.24582
    endloop
  endfacet
  facet normal 0.406736 0.913546 0
    outer loop
      vertex 6.86018 21.1135 -10
      vertex 11.1 19.2258 -9.74882
      vertex 11.1 19.2258 -10
    endloop
  endfacet
  facet normal 0.406736 0.913546 0
    outer loop
      vertex 11.1 19.2258 -9.74882
      vertex 6.86018 21.1135 -10
      vertex 6.86018 21.1135 -9.41597
    endloop
  endfacet
  facet normal -0.866028 0.499995 0
    outer loop
      vertex -17.9986 12.9822 9.45881
      vertex -17.9602 13.0488 10
      vertex -17.9602 13.0488 9.47055
    endloop
  endfacet
  facet normal -0.866025 0.5 0
    outer loop
      vertex -20.2807 9.02955 10
      vertex -17.9986 12.9822 9.45881
      vertex -20.2807 9.02955 -3.21002
    endloop
  endfacet
  facet normal -0.866025 0.5 -7.61472e-07
    outer loop
      vertex -17.9986 12.9822 9.45881
      vertex -20.2807 9.02955 10
      vertex -17.9602 13.0488 10
    endloop
  endfacet
  facet normal -0.743145 0.669131 1.83084e-06
    outer loop
      vertex -17.9602 13.0488 10
      vertex -17.2405 13.8482 9.6115
      vertex -17.6093 13.4386 9.53927
    endloop
  endfacet
  facet normal -0.743147 0.669128 -1.66877e-06
    outer loop
      vertex -17.9602 13.0488 10
      vertex -17.6093 13.4386 9.53927
      vertex -17.8917 13.1249 9.48396
    endloop
  endfacet
  facet normal -0.743145 0.669131 1.29771e-06
    outer loop
      vertex -17.2405 13.8482 9.6115
      vertex -17.9602 13.0488 10
      vertex -15.2566 16.0515 10
    endloop
  endfacet
  facet normal -0.743141 0.669135 0
    outer loop
      vertex -17.9602 13.0488 10
      vertex -17.8917 13.1249 9.48396
      vertex -17.9602 13.0488 9.47055
    endloop
  endfacet
  facet normal -0.951056 0.309017 0
    outer loop
      vertex -20.881 7.18196 -3.37166
      vertex -20.2807 9.02955 10
      vertex -20.2807 9.02955 -3.21002
    endloop
  endfacet
  facet normal -0.951057 0.309017 0
    outer loop
      vertex -21.7149 4.61564 10
      vertex -20.881 7.18196 -3.37166
      vertex -21.7149 4.61564 -3.59619
    endloop
  endfacet
  facet normal -0.951057 0.309017 6.992e-08
    outer loop
      vertex -20.881 7.18196 -3.37166
      vertex -21.7149 4.61564 10
      vertex -20.2807 9.02955 10
    endloop
  endfacet
  facet normal -0 0 1
    outer loop
      vertex -15.2566 16.0515 10
      vertex -9.1 15.7617 10
      vertex -8.44908 16.0515 10
    endloop
  endfacet
  facet normal 0 0 1
    outer loop
      vertex -15.2566 16.0515 10
      vertex -12.1782 13.5252 10
      vertex -9.1 15.7617 10
    endloop
  endfacet
  facet normal 0 0 1
    outer loop
      vertex -15.2566 16.0515 10
      vertex -14.7241 10.6977 10
      vertex -12.1782 13.5252 10
    endloop
  endfacet
  facet normal -0 0 1
    outer loop
      vertex -17.9602 13.0488 10
      vertex -14.7241 10.6977 10
      vertex -15.2566 16.0515 10
    endloop
  endfacet
  facet normal 0 0 1
    outer loop
      vertex -14.7241 10.6977 10
      vertex -17.9602 13.0488 10
      vertex -16.6265 7.40261 10
    endloop
  endfacet
  facet normal -0 0 1
    outer loop
      vertex -20.2807 9.02955 10
      vertex -16.6265 7.40261 10
      vertex -17.9602 13.0488 10
    endloop
  endfacet
  facet normal 0 0 1
    outer loop
      vertex -16.6265 7.40261 10
      vertex -20.2807 9.02955 10
      vertex -17.8023 3.78399 10
    endloop
  endfacet
  facet normal -0 0 1
    outer loop
      vertex -21.7149 4.61564 10
      vertex -17.8023 3.78399 10
      vertex -20.2807 9.02955 10
    endloop
  endfacet
  facet normal 0 0 1
    outer loop
      vertex 18.2 0 10
      vertex 22.2 0 10
      vertex 21.7149 4.61564 10
    endloop
  endfacet
  facet normal 0 0 1
    outer loop
      vertex 17.8023 3.78399 10
      vertex 21.7149 4.61564 10
      vertex 20.2807 9.02955 10
    endloop
  endfacet
  facet normal 0 0 1
    outer loop
      vertex 22.2 0 10
      vertex 18.2 0 10
      vertex 21.7149 -4.61564 10
    endloop
  endfacet
  facet normal -0 0 1
    outer loop
      vertex 17.8023 -3.78399 10
      vertex 21.7149 -4.61564 10
      vertex 18.2 0 10
    endloop
  endfacet
  facet normal 0 0 1
    outer loop
      vertex 16.6265 7.40261 10
      vertex 20.2807 9.02955 10
      vertex 17.9602 13.0488 10
    endloop
  endfacet
  facet normal 0 0 1
    outer loop
      vertex 21.7149 4.61564 10
      vertex 17.8023 3.78399 10
      vertex 18.2 0 10
    endloop
  endfacet
  facet normal 0 0 1
    outer loop
      vertex 20.2807 9.02955 10
      vertex 16.6265 7.40261 10
      vertex 17.8023 3.78399 10
    endloop
  endfacet
  facet normal 0 0 1
    outer loop
      vertex 14.7241 10.6977 10
      vertex 17.9602 13.0488 10
      vertex 15.2566 16.0515 10
    endloop
  endfacet
  facet normal 0 0 1
    outer loop
      vertex 17.9602 13.0488 10
      vertex 14.7241 10.6977 10
      vertex 16.6265 7.40261 10
    endloop
  endfacet
  facet normal 0 0 1
    outer loop
      vertex 12.1782 13.5252 10
      vertex 15.2566 16.0515 10
      vertex 14.3364 16.0515 10
    endloop
  endfacet
  facet normal 0 0 1
    outer loop
      vertex 15.2566 16.0515 10
      vertex 12.1782 13.5252 10
      vertex 14.7241 10.6977 10
    endloop
  endfacet
  facet normal 0 0 1
    outer loop
      vertex 14.3364 16.0515 10
      vertex 9.1 15.7617 10
      vertex 12.1782 13.5252 10
    endloop
  endfacet
  facet normal 0 -0 1
    outer loop
      vertex 9.1 15.7617 10
      vertex 14.3364 16.0515 10
      vertex 8.44908 16.0515 10
    endloop
  endfacet
  facet normal 0 0 1
    outer loop
      vertex 21.7149 -4.61564 10
      vertex 17.8023 -3.78399 10
      vertex 20.2807 -9.02955 10
    endloop
  endfacet
  facet normal -0 0 1
    outer loop
      vertex 16.6265 -7.40261 10
      vertex 20.2807 -9.02955 10
      vertex 17.8023 -3.78399 10
    endloop
  endfacet
  facet normal 0 0 1
    outer loop
      vertex 20.2807 -9.02955 10
      vertex 16.6265 -7.40261 10
      vertex 17.9602 -13.0488 10
    endloop
  endfacet
  facet normal -0 0 1
    outer loop
      vertex 14.7241 -10.6977 10
      vertex 17.9602 -13.0488 10
      vertex 16.6265 -7.40261 10
    endloop
  endfacet
  facet normal 0 0 1
    outer loop
      vertex 17.9602 -13.0488 10
      vertex 14.7241 -10.6977 10
      vertex 14.8547 -16.4978 10
    endloop
  endfacet
  facet normal -0 0 1
    outer loop
      vertex 12.1782 -13.5252 10
      vertex 14.8547 -16.4978 10
      vertex 14.7241 -10.6977 10
    endloop
  endfacet
  facet normal 0 0 1
    outer loop
      vertex 12.1782 -13.5252 10
      vertex 11.1 -19.2258 10
      vertex 14.8547 -16.4978 10
    endloop
  endfacet
  facet normal -0 0 1
    outer loop
      vertex 9.1 -15.7617 10
      vertex 11.1 -19.2258 10
      vertex 12.1782 -13.5252 10
    endloop
  endfacet
  facet normal 0 0 1
    outer loop
      vertex 9.1 -15.7617 10
      vertex 6.86018 -21.1135 10
      vertex 11.1 -19.2258 10
    endloop
  endfacet
  facet normal -0 0 1
    outer loop
      vertex 5.62411 -17.3092 10
      vertex 6.86018 -21.1135 10
      vertex 9.1 -15.7617 10
    endloop
  endfacet
  facet normal 0 0 1
    outer loop
      vertex 5.62411 -17.3092 10
      vertex 2.32053 -22.0784 10
      vertex 6.86018 -21.1135 10
    endloop
  endfacet
  facet normal -0 0 1
    outer loop
      vertex 1.90242 -18.1003 10
      vertex 2.32053 -22.0784 10
      vertex 5.62411 -17.3092 10
    endloop
  endfacet
  facet normal -0 0 1
    outer loop
      vertex -1.90242 -18.1003 10
      vertex 2.32053 -22.0784 10
      vertex 1.90242 -18.1003 10
    endloop
  endfacet
  facet normal 0 0 1
    outer loop
      vertex -1.90242 -18.1003 10
      vertex -2.32053 -22.0784 10
      vertex 2.32053 -22.0784 10
    endloop
  endfacet
  facet normal 0 0 1
    outer loop
      vertex -5.62411 -17.3092 10
      vertex -2.32053 -22.0784 10
      vertex -1.90242 -18.1003 10
    endloop
  endfacet
  facet normal 0 0 1
    outer loop
      vertex -5.62411 -17.3092 10
      vertex -6.86018 -21.1135 10
      vertex -2.32053 -22.0784 10
    endloop
  endfacet
  facet normal 0 0 1
    outer loop
      vertex -9.1 -15.7617 10
      vertex -6.86018 -21.1135 10
      vertex -5.62411 -17.3092 10
    endloop
  endfacet
  facet normal 0 0 1
    outer loop
      vertex -9.1 -15.7617 10
      vertex -11.1 -19.2258 10
      vertex -6.86018 -21.1135 10
    endloop
  endfacet
  facet normal 0 0 1
    outer loop
      vertex -12.1782 -13.5252 10
      vertex -11.1 -19.2258 10
      vertex -9.1 -15.7617 10
    endloop
  endfacet
  facet normal 0 0 1
    outer loop
      vertex -14.8547 -16.4978 10
      vertex -12.1782 -13.5252 10
      vertex -14.7241 -10.6977 10
    endloop
  endfacet
  facet normal 0 0 1
    outer loop
      vertex -12.1782 -13.5252 10
      vertex -14.8547 -16.4978 10
      vertex -11.1 -19.2258 10
    endloop
  endfacet
  facet normal 0 0 1
    outer loop
      vertex -17.9602 -13.0488 10
      vertex -14.7241 -10.6977 10
      vertex -16.6265 -7.40261 10
    endloop
  endfacet
  facet normal 0 0 1
    outer loop
      vertex -20.2807 -9.02955 10
      vertex -16.6265 -7.40261 10
      vertex -17.8023 -3.78399 10
    endloop
  endfacet
  facet normal 0 0 1
    outer loop
      vertex -14.7241 -10.6977 10
      vertex -17.9602 -13.0488 10
      vertex -14.8547 -16.4978 10
    endloop
  endfacet
  facet normal 0 0 1
    outer loop
      vertex -21.7149 -4.61564 10
      vertex -17.8023 -3.78399 10
      vertex -18.2 0 10
    endloop
  endfacet
  facet normal 0 0 1
    outer loop
      vertex -17.8023 3.78399 10
      vertex -21.7149 4.61564 10
      vertex -18.2 0 10
    endloop
  endfacet
  facet normal 0 0 1
    outer loop
      vertex -16.6265 -7.40261 10
      vertex -20.2807 -9.02955 10
      vertex -17.9602 -13.0488 10
    endloop
  endfacet
  facet normal 0 0 1
    outer loop
      vertex -22.2 0 10
      vertex -18.2 0 10
      vertex -21.7149 4.61564 10
    endloop
  endfacet
  facet normal 0 0 1
    outer loop
      vertex -17.8023 -3.78399 10
      vertex -21.7149 -4.61564 10
      vertex -20.2807 -9.02955 10
    endloop
  endfacet
  facet normal 0 0 1
    outer loop
      vertex -18.2 0 10
      vertex -22.2 0 10
      vertex -21.7149 -4.61564 10
    endloop
  endfacet
  facet normal -0.207912 0.978148 0
    outer loop
      vertex -2.32053 22.0784 -10
      vertex -6.86018 21.1135 -9.41597
      vertex -2.32053 22.0784 -9.24582
    endloop
  endfacet
  facet normal -0.207912 0.978148 0
    outer loop
      vertex -6.86018 21.1135 -9.41597
      vertex -2.32053 22.0784 -10
      vertex -6.86018 21.1135 -10
    endloop
  endfacet
  facet normal 0.994522 -0.104529 0
    outer loop
      vertex 22.2 0 10
      vertex 22.1267 -0.69783 3.97624
      vertex 22.2 0 -4
    endloop
  endfacet
  facet normal 0.994522 -0.10453 7.69782e-08
    outer loop
      vertex 22.2 0 10
      vertex 22.0989 -0.962375 7
      vertex 22.1267 -0.69783 3.97624
    endloop
  endfacet
  facet normal 0.994522 -0.104529 -2.15772e-07
    outer loop
      vertex 22.2 0 10
      vertex 21.9992 -1.91013 6.83288
      vertex 22.0989 -0.962375 7
    endloop
  endfacet
  facet normal 0.994522 -0.104529 -1.30033e-07
    outer loop
      vertex 21.9992 -1.91013 6.83288
      vertex 22.2 0 10
      vertex 21.7149 -4.61564 10
    endloop
  endfacet
  facet normal 0.994522 -0.104529 3.09276e-08
    outer loop
      vertex 21.7149 -4.61564 -10
      vertex 22.2 0 -4
      vertex 21.9992 -1.91013 6.83288
    endloop
  endfacet
  facet normal 0.994522 -0.104529 0
    outer loop
      vertex 21.7149 -4.61564 -10
      vertex 21.9992 -1.91013 6.83288
      vertex 21.7149 -4.61564 10
    endloop
  endfacet
  facet normal 0.994522 -0.104529 0
    outer loop
      vertex 22.2 0 -4
      vertex 21.7149 -4.61564 -10
      vertex 22.2 0 -10
    endloop
  endfacet
  facet normal 0 0 -1
    outer loop
      vertex -21.7678 5.23338 -10
      vertex -22.0888 1.05796 -10
      vertex -22.2 1.05796 -10
    endloop
  endfacet
  facet normal 0 0 -1
    outer loop
      vertex 18.2 0 -10
      vertex 22.2 0 -10
      vertex 21.7149 -4.61564 -10
    endloop
  endfacet
  facet normal 0 0 -1
    outer loop
      vertex 22.2 0 -10
      vertex 18.2 0 -10
      vertex 22.0888 1.05796 -10
    endloop
  endfacet
  facet normal 0 0 -1
    outer loop
      vertex 17.8023 3.78399 -10
      vertex 22.0888 1.05796 -10
      vertex 18.2 0 -10
    endloop
  endfacet
  facet normal 0 0 -1
    outer loop
      vertex 22.0888 1.05796 -10
      vertex 17.8023 3.78399 -10
      vertex 21.7678 5.23338 -10
    endloop
  endfacet
  facet normal 0 0 -1
    outer loop
      vertex 17.8023 -3.78399 -10
      vertex 21.7149 -4.61564 -10
      vertex 20.2807 -9.02955 -10
    endloop
  endfacet
  facet normal -0 0 -1
    outer loop
      vertex 21.7678 5.23338 -10
      vertex 17.8023 3.78399 -10
      vertex 21.7149 5.7448 -10
    endloop
  endfacet
  facet normal 0 0 -1
    outer loop
      vertex 16.6265 7.40261 -10
      vertex 21.7149 5.7448 -10
      vertex 17.8023 3.78399 -10
    endloop
  endfacet
  facet normal 0 0 -1
    outer loop
      vertex 16.6265 -7.40261 -10
      vertex 20.2807 -9.02955 -10
      vertex 17.9602 -13.0488 -10
    endloop
  endfacet
  facet normal 0 0 -1
    outer loop
      vertex 21.7149 -4.61564 -10
      vertex 17.8023 -3.78399 -10
      vertex 18.2 0 -10
    endloop
  endfacet
  facet normal 0 0 -1
    outer loop
      vertex 20.2807 -9.02955 -10
      vertex 16.6265 -7.40261 -10
      vertex 17.8023 -3.78399 -10
    endloop
  endfacet
  facet normal 0 0 -1
    outer loop
      vertex 14.7241 -10.6977 -10
      vertex 17.9602 -13.0488 -10
      vertex 14.8547 -16.4978 -10
    endloop
  endfacet
  facet normal 0 0 -1
    outer loop
      vertex 17.9602 -13.0488 -10
      vertex 14.7241 -10.6977 -10
      vertex 16.6265 -7.40261 -10
    endloop
  endfacet
  facet normal 0 0 -1
    outer loop
      vertex 14.8547 -16.4978 -10
      vertex 12.1782 -13.5252 -10
      vertex 14.7241 -10.6977 -10
    endloop
  endfacet
  facet normal 0 0 -1
    outer loop
      vertex 11.1 -19.2258 -10
      vertex 12.1782 -13.5252 -10
      vertex 14.8547 -16.4978 -10
    endloop
  endfacet
  facet normal 0 0 -1
    outer loop
      vertex 11.1 -19.2258 -10
      vertex 9.1 -15.7617 -10
      vertex 12.1782 -13.5252 -10
    endloop
  endfacet
  facet normal 0 0 -1
    outer loop
      vertex 6.86018 -21.1135 -10
      vertex 9.1 -15.7617 -10
      vertex 11.1 -19.2258 -10
    endloop
  endfacet
  facet normal 0 0 -1
    outer loop
      vertex 6.86018 -21.1135 -10
      vertex 5.62411 -17.3092 -10
      vertex 9.1 -15.7617 -10
    endloop
  endfacet
  facet normal 0 0 -1
    outer loop
      vertex 2.32053 -22.0784 -10
      vertex 5.62411 -17.3092 -10
      vertex 6.86018 -21.1135 -10
    endloop
  endfacet
  facet normal 0 0 -1
    outer loop
      vertex 2.32053 -22.0784 -10
      vertex 1.90242 -18.1003 -10
      vertex 5.62411 -17.3092 -10
    endloop
  endfacet
  facet normal 0 0 -1
    outer loop
      vertex 2.32053 -22.0784 -10
      vertex -1.90242 -18.1003 -10
      vertex 1.90242 -18.1003 -10
    endloop
  endfacet
  facet normal 0 0 -1
    outer loop
      vertex -2.32053 -22.0784 -10
      vertex -1.90242 -18.1003 -10
      vertex 2.32053 -22.0784 -10
    endloop
  endfacet
  facet normal 0 0 -1
    outer loop
      vertex -2.32053 -22.0784 -10
      vertex -5.62411 -17.3092 -10
      vertex -1.90242 -18.1003 -10
    endloop
  endfacet
  facet normal 0 0 -1
    outer loop
      vertex -6.86018 -21.1135 -10
      vertex -5.62411 -17.3092 -10
      vertex -2.32053 -22.0784 -10
    endloop
  endfacet
  facet normal 0 0 -1
    outer loop
      vertex -6.86018 -21.1135 -10
      vertex -9.1 -15.7617 -10
      vertex -5.62411 -17.3092 -10
    endloop
  endfacet
  facet normal 0 0 -1
    outer loop
      vertex -11.1 -19.2258 -10
      vertex -9.1 -15.7617 -10
      vertex -6.86018 -21.1135 -10
    endloop
  endfacet
  facet normal 0 0 -1
    outer loop
      vertex -11.1 -19.2258 -10
      vertex -12.1782 -13.5252 -10
      vertex -9.1 -15.7617 -10
    endloop
  endfacet
  facet normal 0 0 -1
    outer loop
      vertex -14.8547 -16.4978 -10
      vertex -12.1782 -13.5252 -10
      vertex -11.1 -19.2258 -10
    endloop
  endfacet
  facet normal -0 0 -1
    outer loop
      vertex -12.1782 -13.5252 -10
      vertex -14.8547 -16.4978 -10
      vertex -14.7241 -10.6977 -10
    endloop
  endfacet
  facet normal 0 0 -1
    outer loop
      vertex -17.9602 -13.0488 -10
      vertex -14.7241 -10.6977 -10
      vertex -14.8547 -16.4978 -10
    endloop
  endfacet
  facet normal -0 0 -1
    outer loop
      vertex -14.7241 -10.6977 -10
      vertex -17.9602 -13.0488 -10
      vertex -16.6265 -7.40261 -10
    endloop
  endfacet
  facet normal 0 0 -1
    outer loop
      vertex -20.2807 -9.02955 -10
      vertex -16.6265 -7.40261 -10
      vertex -17.9602 -13.0488 -10
    endloop
  endfacet
  facet normal -0 0 -1
    outer loop
      vertex -16.6265 -7.40261 -10
      vertex -20.2807 -9.02955 -10
      vertex -17.8023 -3.78399 -10
    endloop
  endfacet
  facet normal 0 0 -1
    outer loop
      vertex -21.7149 -4.61564 -10
      vertex -17.8023 -3.78399 -10
      vertex -20.2807 -9.02955 -10
    endloop
  endfacet
  facet normal 0 0 -1
    outer loop
      vertex 22.2 1.05796 -10
      vertex 22.0888 1.05796 -10
      vertex 21.7678 5.23338 -10
    endloop
  endfacet
  facet normal 0 0 -1
    outer loop
      vertex 21.7149 5.7448 -10
      vertex 16.6265 7.40261 -10
      vertex 20.3788 9.92012 -10
    endloop
  endfacet
  facet normal -0 0 -1
    outer loop
      vertex 20.3788 9.92012 -10
      vertex 16.6265 7.40261 -10
      vertex 20.2807 10.2268 -10
    endloop
  endfacet
  facet normal 0 0 -1
    outer loop
      vertex 14.7241 10.6977 -10
      vertex 20.2807 10.2268 -10
      vertex 16.6265 7.40261 -10
    endloop
  endfacet
  facet normal 0 0 -1
    outer loop
      vertex 20.2807 10.2268 -10
      vertex 14.7241 10.6977 -10
      vertex 17.4718 17.8012 -10
    endloop
  endfacet
  facet normal -0 0 -1
    outer loop
      vertex 17.4718 17.8012 -10
      vertex 14.7241 10.6977 -10
      vertex 17.3595 17.8012 -10
    endloop
  endfacet
  facet normal -0 0 -1
    outer loop
      vertex 17.3595 17.8012 -10
      vertex 14.7241 10.6977 -10
      vertex 17.3574 17.8012 -10
    endloop
  endfacet
  facet normal -0 0 -1
    outer loop
      vertex 17.3574 17.8012 -10
      vertex 14.7241 10.6977 -10
      vertex 15.2841 17.8012 -10
    endloop
  endfacet
  facet normal 0 0 -1
    outer loop
      vertex 12.1782 13.5252 -10
      vertex 15.2841 17.8012 -10
      vertex 14.7241 10.6977 -10
    endloop
  endfacet
  facet normal -0 0 -1
    outer loop
      vertex 15.2841 17.8012 -10
      vertex 12.1782 13.5252 -10
      vertex 13.0607 17.8012 -10
    endloop
  endfacet
  facet normal 0 0 -1
    outer loop
      vertex 9.1 15.7617 -10
      vertex 13.0607 17.8012 -10
      vertex 12.1782 13.5252 -10
    endloop
  endfacet
  facet normal -0 0 -1
    outer loop
      vertex 13.0607 17.8012 -10
      vertex 9.1 15.7617 -10
      vertex 11.1 19.2258 -10
    endloop
  endfacet
  facet normal 0 0 -1
    outer loop
      vertex 9.1 15.7617 -10
      vertex 6.86018 21.1135 -10
      vertex 11.1 19.2258 -10
    endloop
  endfacet
  facet normal 0 0 -1
    outer loop
      vertex 5.62411 17.3092 -10
      vertex 6.86018 21.1135 -10
      vertex 9.1 15.7617 -10
    endloop
  endfacet
  facet normal 0 0 -1
    outer loop
      vertex 5.62411 17.3092 -10
      vertex 2.32053 22.0784 -10
      vertex 6.86018 21.1135 -10
    endloop
  endfacet
  facet normal 0 0 -1
    outer loop
      vertex 1.90242 18.1003 -10
      vertex 2.32053 22.0784 -10
      vertex 5.62411 17.3092 -10
    endloop
  endfacet
  facet normal 0 0 -1
    outer loop
      vertex -1.90242 18.1003 -10
      vertex 2.32053 22.0784 -10
      vertex 1.90242 18.1003 -10
    endloop
  endfacet
  facet normal 0 0 -1
    outer loop
      vertex -1.90242 18.1003 -10
      vertex -2.32053 22.0784 -10
      vertex 2.32053 22.0784 -10
    endloop
  endfacet
  facet normal 0 0 -1
    outer loop
      vertex -5.62411 17.3092 -10
      vertex -2.32053 22.0784 -10
      vertex -1.90242 18.1003 -10
    endloop
  endfacet
  facet normal 0 0 -1
    outer loop
      vertex -5.62411 17.3092 -10
      vertex -6.86018 21.1135 -10
      vertex -2.32053 22.0784 -10
    endloop
  endfacet
  facet normal 0 0 -1
    outer loop
      vertex -9.1 15.7617 -10
      vertex -6.86018 21.1135 -10
      vertex -5.62411 17.3092 -10
    endloop
  endfacet
  facet normal 0 0 -1
    outer loop
      vertex -9.1 15.7617 -10
      vertex -11.1 19.2258 -10
      vertex -6.86018 21.1135 -10
    endloop
  endfacet
  facet normal 0 0 -1
    outer loop
      vertex -13.0607 17.8012 -10
      vertex -9.1 15.7617 -10
      vertex -12.1782 13.5252 -10
    endloop
  endfacet
  facet normal 0 0 -1
    outer loop
      vertex -9.1 15.7617 -10
      vertex -13.0607 17.8012 -10
      vertex -11.1 19.2258 -10
    endloop
  endfacet
  facet normal 0 0 -1
    outer loop
      vertex -15.6058 17.8012 -10
      vertex -12.1782 13.5252 -10
      vertex -14.7241 10.6977 -10
    endloop
  endfacet
  facet normal 0 0 -1
    outer loop
      vertex -12.1782 13.5252 -10
      vertex -15.6058 17.8012 -10
      vertex -13.0607 17.8012 -10
    endloop
  endfacet
  facet normal 0 0 -1
    outer loop
      vertex -20.2807 10.2268 -10
      vertex -14.7241 10.6977 -10
      vertex -16.6265 7.40261 -10
    endloop
  endfacet
  facet normal 0 -0 -1
    outer loop
      vertex -17.4867 17.8012 -10
      vertex -14.7241 10.6977 -10
      vertex -20.2807 10.2268 -10
    endloop
  endfacet
  facet normal 0 0 -1
    outer loop
      vertex -14.7241 10.6977 -10
      vertex -17.0489 17.8012 -10
      vertex -15.6058 17.8012 -10
    endloop
  endfacet
  facet normal 0 0 -1
    outer loop
      vertex -14.7241 10.6977 -10
      vertex -17.382 17.8012 -10
      vertex -17.0489 17.8012 -10
    endloop
  endfacet
  facet normal 0 0 -1
    outer loop
      vertex -21.7149 5.7448 -10
      vertex -16.6265 7.40261 -10
      vertex -17.8023 3.78399 -10
    endloop
  endfacet
  facet normal 0 0 -1
    outer loop
      vertex -22.0888 1.05796 -10
      vertex -17.8023 3.78399 -10
      vertex -18.2 0 -10
    endloop
  endfacet
  facet normal -0 0 -1
    outer loop
      vertex -17.8023 -3.78399 -10
      vertex -21.7149 -4.61564 -10
      vertex -18.2 0 -10
    endloop
  endfacet
  facet normal 0 0 -1
    outer loop
      vertex -14.7241 10.6977 -10
      vertex -17.4867 17.8012 -10
      vertex -17.382 17.8012 -10
    endloop
  endfacet
  facet normal 0 0 -1
    outer loop
      vertex -16.6265 7.40261 -10
      vertex -20.3788 9.92012 -10
      vertex -20.2807 10.2268 -10
    endloop
  endfacet
  facet normal 0 0 -1
    outer loop
      vertex -22.2 0 -10
      vertex -18.2 0 -10
      vertex -21.7149 -4.61564 -10
    endloop
  endfacet
  facet normal -0 0 -1
    outer loop
      vertex -17.8023 3.78399 -10
      vertex -22.0888 1.05796 -10
      vertex -21.7678 5.23338 -10
    endloop
  endfacet
  facet normal -0 0 -1
    outer loop
      vertex -16.6265 7.40261 -10
      vertex -21.7149 5.7448 -10
      vertex -20.3788 9.92012 -10
    endloop
  endfacet
  facet normal 0 0 -1
    outer loop
      vertex -17.8023 3.78399 -10
      vertex -21.7678 5.23338 -10
      vertex -21.7149 5.7448 -10
    endloop
  endfacet
  facet normal 0 0 -1
    outer loop
      vertex -18.2 0 -10
      vertex -22.2 0 -10
      vertex -22.0888 1.05796 -10
    endloop
  endfacet
  facet normal 0.866025 -0.5 0
    outer loop
      vertex 17.9602 -13.0488 10
      vertex 20.2807 -9.02955 -10
      vertex 20.2807 -9.02955 10
    endloop
  endfacet
  facet normal 0.866025 -0.5 0
    outer loop
      vertex 20.2807 -9.02955 -10
      vertex 17.9602 -13.0488 10
      vertex 17.9602 -13.0488 -10
    endloop
  endfacet
  facet normal -0.866025 -0.5 0
    outer loop
      vertex -17.9602 -13.0488 -10
      vertex -20.2807 -9.02955 10
      vertex -20.2807 -9.02955 -10
    endloop
  endfacet
  facet normal -0.866025 -0.5 0
    outer loop
      vertex -20.2807 -9.02955 10
      vertex -17.9602 -13.0488 -10
      vertex -17.9602 -13.0488 10
    endloop
  endfacet
  facet normal -0.743145 -0.669131 0
    outer loop
      vertex -14.8547 -16.4978 -10
      vertex -17.9602 -13.0488 10
      vertex -17.9602 -13.0488 -10
    endloop
  endfacet
  facet normal -0.743145 -0.669131 0
    outer loop
      vertex -17.9602 -13.0488 10
      vertex -14.8547 -16.4978 -10
      vertex -14.8547 -16.4978 10
    endloop
  endfacet
  facet normal 0.587785 -0.809017 0
    outer loop
      vertex 11.1 -19.2258 -10
      vertex 14.8547 -16.4978 10
      vertex 11.1 -19.2258 10
    endloop
  endfacet
  facet normal 0.587785 -0.809017 0
    outer loop
      vertex 14.8547 -16.4978 10
      vertex 11.1 -19.2258 -10
      vertex 14.8547 -16.4978 -10
    endloop
  endfacet
  facet normal 0.951057 -0.309017 0
    outer loop
      vertex 20.2807 -9.02955 10
      vertex 21.7149 -4.61564 -10
      vertex 21.7149 -4.61564 10
    endloop
  endfacet
  facet normal 0.951057 -0.309017 0
    outer loop
      vertex 21.7149 -4.61564 -10
      vertex 20.2807 -9.02955 10
      vertex 20.2807 -9.02955 -10
    endloop
  endfacet
  facet normal -0.207912 -0.978148 0
    outer loop
      vertex -6.86018 -21.1135 -10
      vertex -2.32053 -22.0784 10
      vertex -6.86018 -21.1135 10
    endloop
  endfacet
  facet normal -0.207912 -0.978148 -0
    outer loop
      vertex -2.32053 -22.0784 10
      vertex -6.86018 -21.1135 -10
      vertex -2.32053 -22.0784 -10
    endloop
  endfacet
  facet normal -0.951057 -0.309017 0
    outer loop
      vertex -20.2807 -9.02955 -10
      vertex -21.7149 -4.61564 10
      vertex -21.7149 -4.61564 -10
    endloop
  endfacet
  facet normal -0.951057 -0.309017 0
    outer loop
      vertex -21.7149 -4.61564 10
      vertex -20.2807 -9.02955 -10
      vertex -20.2807 -9.02955 10
    endloop
  endfacet
  facet normal -0.994522 -0.104529 0
    outer loop
      vertex -21.7149 -4.61564 -10
      vertex -22.2 0 -4
      vertex -22.2 0 -10
    endloop
  endfacet
  facet normal -0.994522 -0.104529 3.09276e-08
    outer loop
      vertex -22.2 0 -4
      vertex -21.7149 -4.61564 -10
      vertex -21.9992 -1.91013 6.83288
    endloop
  endfacet
  facet normal -0.994522 -0.104529 0
    outer loop
      vertex -22.1267 -0.69783 3.97624
      vertex -22.2 0 10
      vertex -22.2 0 -4
    endloop
  endfacet
  facet normal -0.994522 -0.10453 7.69782e-08
    outer loop
      vertex -22.0989 -0.962375 7
      vertex -22.2 0 10
      vertex -22.1267 -0.69783 3.97624
    endloop
  endfacet
  facet normal -0.994522 -0.104529 -2.15772e-07
    outer loop
      vertex -21.9992 -1.91013 6.83288
      vertex -22.2 0 10
      vertex -22.0989 -0.962375 7
    endloop
  endfacet
  facet normal -0.994522 -0.104529 -1.30033e-07
    outer loop
      vertex -21.9992 -1.91013 6.83288
      vertex -21.7149 -4.61564 10
      vertex -22.2 0 10
    endloop
  endfacet
  facet normal -0.994522 -0.104529 -0
    outer loop
      vertex -21.7149 -4.61564 10
      vertex -21.9992 -1.91013 6.83288
      vertex -21.7149 -4.61564 -10
    endloop
  endfacet
  facet normal 0.406736 -0.913546 0
    outer loop
      vertex 6.86018 -21.1135 -10
      vertex 11.1 -19.2258 10
      vertex 6.86018 -21.1135 10
    endloop
  endfacet
  facet normal 0.406736 -0.913546 0
    outer loop
      vertex 11.1 -19.2258 10
      vertex 6.86018 -21.1135 -10
      vertex 11.1 -19.2258 -10
    endloop
  endfacet
  facet normal 0.207912 -0.978148 0
    outer loop
      vertex 2.32053 -22.0784 -10
      vertex 6.86018 -21.1135 10
      vertex 2.32053 -22.0784 10
    endloop
  endfacet
  facet normal 0.207912 -0.978148 0
    outer loop
      vertex 6.86018 -21.1135 10
      vertex 2.32053 -22.0784 -10
      vertex 6.86018 -21.1135 -10
    endloop
  endfacet
  facet normal 0.743145 -0.669131 0
    outer loop
      vertex 14.8547 -16.4978 10
      vertex 17.9602 -13.0488 -10
      vertex 17.9602 -13.0488 10
    endloop
  endfacet
  facet normal 0.743145 -0.669131 0
    outer loop
      vertex 17.9602 -13.0488 -10
      vertex 14.8547 -16.4978 10
      vertex 14.8547 -16.4978 -10
    endloop
  endfacet
  facet normal -0.406736 -0.913546 0
    outer loop
      vertex -11.1 -19.2258 -10
      vertex -6.86018 -21.1135 10
      vertex -11.1 -19.2258 10
    endloop
  endfacet
  facet normal -0.406736 -0.913546 -0
    outer loop
      vertex -6.86018 -21.1135 10
      vertex -11.1 -19.2258 -10
      vertex -6.86018 -21.1135 -10
    endloop
  endfacet
  facet normal -0.587785 -0.809017 0
    outer loop
      vertex -14.8547 -16.4978 -10
      vertex -11.1 -19.2258 10
      vertex -14.8547 -16.4978 10
    endloop
  endfacet
  facet normal -0.587785 -0.809017 -0
    outer loop
      vertex -11.1 -19.2258 10
      vertex -14.8547 -16.4978 -10
      vertex -11.1 -19.2258 -10
    endloop
  endfacet
  facet normal -4.85725e-07 -0.173648 0.984808
    outer loop
      vertex 13.1352 25.6694 11.6959
      vertex 12.3378 26.8634 11.9064
      vertex 13.6315 24.3265 11.4591
    endloop
  endfacet
  facet normal 0.935846 0.347054 0.061195
    outer loop
      vertex 13.1352 25.6694 11.6959
      vertex 17.4718 17.8012 -10
      vertex 13.1352 29.1424 -8.00025
    endloop
  endfacet
  facet normal 0.935847 0.347054 0.061195
    outer loop
      vertex 17.9626 13.0446 9.46981
      vertex 17.4718 17.8012 -10
      vertex 13.1352 25.6694 11.6959
    endloop
  endfacet
  facet normal 0.935846 0.347054 0.061195
    outer loop
      vertex 20.2807 9.02955 -3.21002
      vertex 17.4718 17.8012 -10
      vertex 17.9626 13.0446 9.46981
    endloop
  endfacet
  facet normal 0.935846 0.347054 0.061195
    outer loop
      vertex 17.4718 17.8012 -10
      vertex 20.2807 9.02955 -3.21002
      vertex 20.2807 10.2268 -10
    endloop
  endfacet
  facet normal 0.835488 0.541161 0.0954212
    outer loop
      vertex 12.3378 26.8634 11.9064
      vertex 13.1352 29.1424 -8.00025
      vertex 12.3378 30.3364 -7.78972
    endloop
  endfacet
  facet normal 0.835488 0.54116 0.0954211
    outer loop
      vertex 13.1352 29.1424 -8.00025
      vertex 12.3378 26.8634 11.9064
      vertex 13.1352 25.6694 11.6959
    endloop
  endfacet
  facet normal 2.02631e-07 -0.173648 0.984808
    outer loop
      vertex 13.6315 24.3265 11.4591
      vertex 15.2566 16.0515 10
      vertex 17.7453 13.2875 9.51263
    endloop
  endfacet
  facet normal 0 -0.173648 0.984808
    outer loop
      vertex 13.6315 24.3265 11.4591
      vertex 14.3364 16.0515 10
      vertex 15.2566 16.0515 10
    endloop
  endfacet
  facet normal 1.16492e-07 -0.173648 0.984808
    outer loop
      vertex 14.3364 16.0515 10
      vertex 13.6315 24.3265 11.4591
      vertex 7.18659 29.0517 12.2923
    endloop
  endfacet
  facet normal 0 -0.173648 0.984808
    outer loop
      vertex -22.0989 -0.962375 7
      vertex -22.2 -1.91013 6.83288
      vertex -21.9992 -1.91013 6.83288
    endloop
  endfacet
  facet normal 0 -0.173648 0.984808
    outer loop
      vertex 22.0989 -0.962375 7
      vertex 21.9992 -1.91013 6.83288
      vertex 22.2 -1.91013 6.83288
    endloop
  endfacet
  facet normal 2.95086e-06 0.173649 -0.984808
    outer loop
      vertex 17.3595 17.8012 -10
      vertex 13.1352 29.1424 -8.00025
      vertex 17.4718 17.8012 -10
    endloop
  endfacet
  facet normal -0.994522 0.102941 0.0181512
    outer loop
      vertex -22.2 0 -4
      vertex -22.2 -1.91013 6.83288
      vertex -22.1267 -0.69783 3.97624
    endloop
  endfacet
  facet normal -0.994522 0.102941 0.0181514
    outer loop
      vertex -22.2 1.05796 -10
      vertex -21.9277 2.59091 -3.77333
      vertex -21.7678 5.23338 -10
    endloop
  endfacet
  facet normal -0.994522 0.102941 0.0181513
    outer loop
      vertex -21.9277 2.59091 -3.77333
      vertex -22.2 1.05796 -10
      vertex -22.2 0 -4
    endloop
  endfacet
  facet normal 1.59745e-07 0.173648 -0.984808
    outer loop
      vertex 15.2841 17.8012 -10
      vertex 13.6315 27.7994 -8.23705
      vertex 17.3574 17.8012 -10
    endloop
  endfacet
  facet normal 1.6551e-07 0.173648 -0.984808
    outer loop
      vertex 13.6315 27.7994 -8.23705
      vertex 15.2841 17.8012 -10
      vertex 7.18659 32.5246 -7.40387
    endloop
  endfacet
  facet normal 0.0581447 0.983142 0.173354
    outer loop
      vertex 7.18659 32.5246 -7.40387
      vertex 7.18659 29.0517 12.2923
      vertex 8.6353 32.4415 -7.41852
    endloop
  endfacet
  facet normal -0.994522 0.102941 0.0181514
    outer loop
      vertex -22.1267 -0.69783 3.97624
      vertex -22.2 -1.91013 6.83288
      vertex -22.0989 -0.962375 7
    endloop
  endfacet
  facet normal -0.994522 0.102941 0.0181513
    outer loop
      vertex -21.7678 5.23338 -10
      vertex -21.7149 4.61564 -3.59619
      vertex -21.7149 5.7448 -10
    endloop
  endfacet
  facet normal -0.994522 0.10294 0.0181512
    outer loop
      vertex -21.7149 4.61564 -3.59619
      vertex -21.7678 5.23338 -10
      vertex -21.9277 2.59091 -3.77333
    endloop
  endfacet
  facet normal 1.8438e-07 0.173648 -0.984808
    outer loop
      vertex 13.6315 27.7994 -8.23705
      vertex 7.18659 32.5246 -7.40387
      vertex 13.1352 29.1424 -8.00025
    endloop
  endfacet
  facet normal -5.66073e-05 -0.173669 0.984804
    outer loop
      vertex 17.9602 13.0488 9.47055
      vertex 13.6315 24.3265 11.4591
      vertex 17.9511 13.0589 9.47232
    endloop
  endfacet
  facet normal -0.000288128 -0.173755 0.984789
    outer loop
      vertex 17.9626 13.0446 9.46981
      vertex 13.6315 24.3265 11.4591
      vertex 17.9602 13.0488 9.47055
    endloop
  endfacet
  facet normal -4.10236e-06 -0.17365 0.984807
    outer loop
      vertex 13.6315 24.3265 11.4591
      vertex 17.9626 13.0446 9.46981
      vertex 13.1352 25.6694 11.6959
    endloop
  endfacet
  facet normal 9.40953e-07 -0.173648 0.984808
    outer loop
      vertex 14.3364 16.0515 10
      vertex 9.37029 24.5165 11.4926
      vertex 9.8 23.214 11.263
    endloop
  endfacet
  facet normal -8.61467e-07 -0.173649 0.984808
    outer loop
      vertex 7.18659 29.0517 12.2923
      vertex 9.37029 24.5165 11.4926
      vertex 14.3364 16.0515 10
    endloop
  endfacet
  facet normal 7.03391e-07 -0.173648 0.984808
    outer loop
      vertex 7.18659 29.0517 12.2923
      vertex 8.24529 25.3214 11.6345
      vertex 9.37029 24.5165 11.4926
    endloop
  endfacet
  facet normal 0 -0.173648 0.984808
    outer loop
      vertex 7.18659 29.0517 12.2923
      vertex 6.85471 25.3214 11.6345
      vertex 8.24529 25.3214 11.6345
    endloop
  endfacet
  facet normal -5.98665e-07 -0.173648 0.984808
    outer loop
      vertex 7.18659 29.0517 12.2923
      vertex 5.72971 24.5165 11.4926
      vertex 6.85471 25.3214 11.6345
    endloop
  endfacet
  facet normal 0 -0.173648 0.984808
    outer loop
      vertex -5.72971 24.5165 11.4926
      vertex 5.72971 24.5165 11.4926
      vertex 7.18659 29.0517 12.2923
    endloop
  endfacet
  facet normal 0 -0.173648 0.984808
    outer loop
      vertex 5.72971 24.5165 11.4926
      vertex -5.72971 24.5165 11.4926
      vertex 5.3 23.214 11.263
    endloop
  endfacet
  facet normal 0 -0.173648 0.984808
    outer loop
      vertex 0.747765 18.1003 10.3613
      vertex 5.3 23.214 11.263
      vertex -5.3 23.214 11.263
    endloop
  endfacet
  facet normal 0 -0.173648 0.984808
    outer loop
      vertex 5.3 23.214 11.263
      vertex 0.747765 18.1003 10.3613
      vertex 1.90242 18.1003 10.3613
    endloop
  endfacet
  facet normal 0 -0.173648 0.984808
    outer loop
      vertex 5.3 23.214 11.263
      vertex -5.72971 24.5165 11.4926
      vertex -5.3 23.214 11.263
    endloop
  endfacet
  facet normal 1.51777e-07 -0.173649 0.984808
    outer loop
      vertex 7.18659 29.0517 12.2923
      vertex -6.85471 25.3214 11.6345
      vertex -5.72971 24.5165 11.4926
    endloop
  endfacet
  facet normal -1.59364e-08 -0.173648 0.984808
    outer loop
      vertex -11.839 27.384 11.9982
      vertex -6.85471 25.3214 11.6345
      vertex 7.18659 29.0517 12.2923
    endloop
  endfacet
  facet normal -4.86889e-07 -0.173649 0.984808
    outer loop
      vertex -8.24529 25.3214 11.6345
      vertex -11.839 27.384 11.9982
      vertex -8.64995 25.0319 11.5835
    endloop
  endfacet
  facet normal 0 -0.173648 0.984808
    outer loop
      vertex -6.85471 25.3214 11.6345
      vertex -11.839 27.384 11.9982
      vertex -8.24529 25.3214 11.6345
    endloop
  endfacet
  facet normal 2.96381e-07 -0.173648 0.984808
    outer loop
      vertex 9.37029 21.9116 11.0333
      vertex 14.3364 16.0515 10
      vertex 9.8 23.214 11.263
    endloop
  endfacet
  facet normal 0 -0.173648 0.984808
    outer loop
      vertex 9.37029 21.9116 11.0333
      vertex 8.44908 16.0515 10
      vertex 14.3364 16.0515 10
    endloop
  endfacet
  facet normal -1.74245e-07 -0.173648 0.984808
    outer loop
      vertex 8.24529 21.1067 10.8914
      vertex 8.44908 16.0515 10
      vertex 9.37029 21.9116 11.0333
    endloop
  endfacet
  facet normal 0 -0.173648 0.984808
    outer loop
      vertex 5.62411 17.3092 10.2218
      vertex 8.24529 21.1067 10.8914
      vertex 6.85471 21.1067 10.8914
    endloop
  endfacet
  facet normal 1.05686e-07 -0.173648 0.984808
    outer loop
      vertex 5.62411 17.3092 10.2218
      vertex 6.85471 21.1067 10.8914
      vertex 5.72971 21.9116 11.0333
    endloop
  endfacet
  facet normal -9.38912e-08 -0.173648 0.984808
    outer loop
      vertex 8.24529 21.1067 10.8914
      vertex 5.62411 17.3092 10.2218
      vertex 8.44908 16.0515 10
    endloop
  endfacet
  facet normal -3.141e-07 -0.173648 0.984808
    outer loop
      vertex 1.90242 18.1003 10.3613
      vertex 5.72971 21.9116 11.0333
      vertex 5.3 23.214 11.263
    endloop
  endfacet
  facet normal -4.17641e-09 -0.173648 0.984808
    outer loop
      vertex 5.72971 21.9116 11.0333
      vertex 1.90242 18.1003 10.3613
      vertex 5.62411 17.3092 10.2218
    endloop
  endfacet
  facet normal -6.44404e-08 -0.173648 0.984808
    outer loop
      vertex 0.747765 18.1003 10.3613
      vertex -5.3 23.214 11.263
      vertex -5.47329 22.6888 11.1703
    endloop
  endfacet
  facet normal 0 -0.173648 0.984808
    outer loop
      vertex -7.9134 29.0517 12.2923
      vertex -11.839 27.384 11.9982
      vertex 7.18659 29.0517 12.2923
    endloop
  endfacet
  facet normal -0.766044 0.633023 0.111619
    outer loop
      vertex -12.7718 29.7622 -7.89095
      vertex -12.7718 26.2893 11.8052
      vertex -11.839 27.384 11.9982
    endloop
  endfacet
  facet normal 0.951056 0.304323 0.0536601
    outer loop
      vertex 20.881 7.18196 -3.37166
      vertex 21.7149 5.7448 -10
      vertex 20.3788 9.92012 -10
    endloop
  endfacet
  facet normal 0.951057 0.304322 0.0536602
    outer loop
      vertex 21.7149 5.7448 -10
      vertex 20.881 7.18196 -3.37166
      vertex 21.7149 4.61564 -3.59619
    endloop
  endfacet
  facet normal 1.01604e-06 0.173649 -0.984808
    outer loop
      vertex 13.1352 29.1424 -8.00025
      vertex 11.2822 31.3171 -7.61679
      vertex 12.3378 30.3364 -7.78972
    endloop
  endfacet
  facet normal -0 -0.984808 -0.173648
    outer loop
      vertex -21.9992 -1.91013 6.83288
      vertex -22.2 -1.91013 6.83288
      vertex -22.2 0 -4
    endloop
  endfacet
  facet normal -0 -0.984808 -0.173648
    outer loop
      vertex 22.2 -1.91013 6.83288
      vertex 21.9992 -1.91013 6.83288
      vertex 22.2 0 -4
    endloop
  endfacet
  facet normal -0 -0.984808 -0.173648
    outer loop
      vertex -22.0888 1.05796 -10
      vertex -22.2 0 -4
      vertex -22.2 1.05796 -10
    endloop
  endfacet
  facet normal 0 -0.984808 -0.173648
    outer loop
      vertex 22.2 0 -4
      vertex 22.0888 1.05796 -10
      vertex 22.2 1.05796 -10
    endloop
  endfacet
  facet normal 1.79979e-07 -0.173648 0.984808
    outer loop
      vertex 12.3378 26.8634 11.9064
      vertex 7.18659 29.0517 12.2923
      vertex 13.6315 24.3265 11.4591
    endloop
  endfacet
  facet normal 2.87343e-07 -0.173648 0.984808
    outer loop
      vertex -9.37029 24.5165 11.4926
      vertex -11.839 27.384 11.9982
      vertex -9.8 23.214 11.263
    endloop
  endfacet
  facet normal -1.19985e-07 -0.173648 0.984808
    outer loop
      vertex -11.839 27.384 11.9982
      vertex -9.37029 24.5165 11.4926
      vertex -8.64995 25.0319 11.5835
    endloop
  endfacet
  facet normal 0 -0.173648 0.984808
    outer loop
      vertex -5.47329 22.6888 11.1703
      vertex -1.90242 18.1003 10.3613
      vertex 0.747765 18.1003 10.3613
    endloop
  endfacet
  facet normal 5.21674e-07 -0.173648 0.984808
    outer loop
      vertex -5.72971 21.9116 11.0333
      vertex -1.90242 18.1003 10.3613
      vertex -5.47329 22.6888 11.1703
    endloop
  endfacet
  facet normal 2.12141e-07 -0.173648 0.984808
    outer loop
      vertex -1.90242 18.1003 10.3613
      vertex -5.72971 21.9116 11.0333
      vertex -5.62411 17.3092 10.2218
    endloop
  endfacet
  facet normal -2.49338e-07 -0.173648 0.984808
    outer loop
      vertex -6.85471 21.1067 10.8914
      vertex -5.62411 17.3092 10.2218
      vertex -5.72971 21.9116 11.0333
    endloop
  endfacet
  facet normal 0 -0.173648 0.984808
    outer loop
      vertex -8.24529 21.1067 10.8914
      vertex -5.62411 17.3092 10.2218
      vertex -6.85471 21.1067 10.8914
    endloop
  endfacet
  facet normal -2.44644e-07 -0.173648 0.984808
    outer loop
      vertex -8.24529 21.1067 10.8914
      vertex -8.44908 16.0515 10
      vertex -5.62411 17.3092 10.2218
    endloop
  endfacet
  facet normal 1.74245e-07 -0.173648 0.984808
    outer loop
      vertex -9.37029 21.9116 11.0333
      vertex -8.44908 16.0515 10
      vertex -8.24529 21.1067 10.8914
    endloop
  endfacet
  facet normal -2.61504e-07 -0.173648 0.984808
    outer loop
      vertex -15.2566 16.0515 10
      vertex -9.37029 21.9116 11.0333
      vertex -9.8 23.214 11.263
    endloop
  endfacet
  facet normal -4.01278e-08 -0.173648 0.984808
    outer loop
      vertex -15.2566 16.0515 10
      vertex -9.8 23.214 11.263
      vertex -11.839 27.384 11.9982
    endloop
  endfacet
  facet normal 0 -0.173648 0.984808
    outer loop
      vertex -9.37029 21.9116 11.0333
      vertex -15.2566 16.0515 10
      vertex -8.44908 16.0515 10
    endloop
  endfacet
  facet normal -2.59921e-08 -0.173648 0.984808
    outer loop
      vertex -15.2566 16.0515 10
      vertex -11.839 27.384 11.9982
      vertex -17.2405 13.8482 9.6115
    endloop
  endfacet
  facet normal 4.29966e-07 -0.173648 0.984808
    outer loop
      vertex -11.839 27.384 11.9982
      vertex -17.6093 13.4386 9.53927
      vertex -17.2405 13.8482 9.6115
    endloop
  endfacet
  facet normal -0.951057 0.30432 0.0536598
    outer loop
      vertex -20.3788 9.92012 -10
      vertex -20.2807 9.02955 -3.21002
      vertex -20.2807 10.2268 -10
    endloop
  endfacet
  facet normal -0.951056 0.304323 0.0536602
    outer loop
      vertex -20.2807 9.02955 -3.21002
      vertex -20.3788 9.92012 -10
      vertex -20.881 7.18196 -3.37166
    endloop
  endfacet
  facet normal -0.39608 0.904266 0.159446
    outer loop
      vertex -9.34252 32.2765 -7.44763
      vertex -10.675 28.2375 12.1487
      vertex -9.34252 28.8035 12.2485
    endloop
  endfacet
  facet normal -0.396079 0.904267 0.159447
    outer loop
      vertex -10.675 28.2375 12.1487
      vertex -9.34252 32.2765 -7.44763
      vertex -10.675 31.7104 -7.54744
    endloop
  endfacet
  facet normal -0.951056 0.304323 0.0536601
    outer loop
      vertex -21.7149 5.7448 -10
      vertex -20.881 7.18196 -3.37166
      vertex -20.3788 9.92012 -10
    endloop
  endfacet
  facet normal -0.951057 0.304322 0.0536602
    outer loop
      vertex -20.881 7.18196 -3.37166
      vertex -21.7149 5.7448 -10
      vertex -21.7149 4.61564 -3.59619
    endloop
  endfacet
  facet normal -0.936462 0.34544 0.0609104
    outer loop
      vertex -17.4867 17.8012 -10
      vertex -13.4231 25.0122 11.58
      vertex -13.4231 28.4851 -8.11614
    endloop
  endfacet
  facet normal -0.936462 0.34544 0.0609105
    outer loop
      vertex -17.4867 17.8012 -10
      vertex -17.9986 12.9822 9.45881
      vertex -13.4231 25.0122 11.58
    endloop
  endfacet
  facet normal -0.936462 0.34544 0.0609104
    outer loop
      vertex -20.2807 9.02955 -3.21002
      vertex -17.4867 17.8012 -10
      vertex -20.2807 10.2268 -10
    endloop
  endfacet
  facet normal -0.936462 0.34544 0.0609105
    outer loop
      vertex -17.4867 17.8012 -10
      vertex -20.2807 9.02955 -3.21002
      vertex -17.9986 12.9822 9.45881
    endloop
  endfacet
  facet normal 0 0.173648 -0.984808
    outer loop
      vertex 13.6315 27.7994 -8.23705
      vertex 17.3595 17.8012 -10
      vertex 17.3574 17.8012 -10
    endloop
  endfacet
  facet normal 5.50893e-06 0.17365 -0.984807
    outer loop
      vertex 17.3595 17.8012 -10
      vertex 13.6315 27.7994 -8.23705
      vertex 13.1352 29.1424 -8.00025
    endloop
  endfacet
  facet normal -9.79578e-07 -0.173646 0.984808
    outer loop
      vertex -9.34252 28.8035 12.2485
      vertex -11.839 27.384 11.9982
      vertex -7.9134 29.0517 12.2923
    endloop
  endfacet
  facet normal 0.994522 0.102941 0.0181512
    outer loop
      vertex 22.2 0 -4
      vertex 22.1267 -0.69783 3.97624
      vertex 22.2 -1.91013 6.83288
    endloop
  endfacet
  facet normal 0.994522 0.102941 0.0181514
    outer loop
      vertex 21.9277 2.59091 -3.77333
      vertex 22.2 1.05796 -10
      vertex 21.7678 5.23338 -10
    endloop
  endfacet
  facet normal 0.994522 0.102941 0.0181513
    outer loop
      vertex 22.2 1.05796 -10
      vertex 21.9277 2.59091 -3.77333
      vertex 22.2 0 -4
    endloop
  endfacet
  facet normal 0.951057 0.30432 0.0536598
    outer loop
      vertex 20.2807 9.02955 -3.21002
      vertex 20.3788 9.92012 -10
      vertex 20.2807 10.2268 -10
    endloop
  endfacet
  facet normal 0.951056 0.304323 0.0536602
    outer loop
      vertex 20.3788 9.92012 -10
      vertex 20.2807 9.02955 -3.21002
      vertex 20.881 7.18196 -3.37166
    endloop
  endfacet
  facet normal 1.47717e-06 -0.173648 0.984808
    outer loop
      vertex 17.9511 13.0589 9.47232
      vertex 13.6315 24.3265 11.4591
      vertex 17.7453 13.2875 9.51263
    endloop
  endfacet
  facet normal -3.27757e-06 -0.173647 0.984808
    outer loop
      vertex -13.4231 25.0122 11.58
      vertex -17.8917 13.1249 9.48396
      vertex -12.7718 26.2893 11.8052
    endloop
  endfacet
  facet normal -1.07481e-05 -0.173644 0.984808
    outer loop
      vertex -13.4231 25.0122 11.58
      vertex -17.9602 13.0488 9.47055
      vertex -17.8917 13.1249 9.48396
    endloop
  endfacet
  facet normal -2.7564e-05 -0.173638 0.98481
    outer loop
      vertex -17.9602 13.0488 9.47055
      vertex -13.4231 25.0122 11.58
      vertex -17.9986 12.9822 9.45881
    endloop
  endfacet
  facet normal -9.49831e-07 -0.173648 0.984808
    outer loop
      vertex -12.7718 26.2893 11.8052
      vertex -17.6093 13.4386 9.53927
      vertex -11.839 27.384 11.9982
    endloop
  endfacet
  facet normal 1.29298e-06 -0.173649 0.984808
    outer loop
      vertex -17.6093 13.4386 9.53927
      vertex -12.7718 26.2893 11.8052
      vertex -17.8917 13.1249 9.48396
    endloop
  endfacet
  facet normal 8.12583e-07 -0.173647 0.984808
    outer loop
      vertex 10.0255 28.5587 12.2054
      vertex 8.6353 28.9686 12.2776
      vertex 11.2822 27.8441 12.0794
    endloop
  endfacet
  facet normal 1.63144e-07 -0.173648 0.984808
    outer loop
      vertex 11.2822 27.8441 12.0794
      vertex 7.18659 29.0517 12.2923
      vertex 12.3378 26.8634 11.9064
    endloop
  endfacet
  facet normal 1.90231e-07 -0.173648 0.984808
    outer loop
      vertex 8.6353 28.9686 12.2776
      vertex 7.18659 29.0517 12.2923
      vertex 11.2822 27.8441 12.0794
    endloop
  endfacet
  facet normal -1.0122e-06 0.173651 -0.984807
    outer loop
      vertex -7.9134 32.5246 -7.40387
      vertex -10.675 31.7104 -7.54744
      vertex -9.34252 32.2765 -7.44763
    endloop
  endfacet
  facet normal 0 0.984808 0.173648
    outer loop
      vertex 7.18659 29.0517 12.2923
      vertex 0 30.8832 1.905
      vertex -7.9134 29.0517 12.2923
    endloop
  endfacet
  facet normal 4.54389e-07 0.984808 0.173648
    outer loop
      vertex 7.18659 29.0517 12.2923
      vertex 1.34704 30.9816 1.34704
      vertex 0 30.8832 1.905
    endloop
  endfacet
  facet normal 7.69263e-07 0.984808 0.173648
    outer loop
      vertex 7.18659 29.0517 12.2923
      vertex 1.905 31.2191 0
      vertex 1.34704 30.9816 1.34704
    endloop
  endfacet
  facet normal -1.9294e-07 0.984808 0.173648
    outer loop
      vertex 7.18659 32.5246 -7.40387
      vertex 1.905 31.2191 0
      vertex 7.18659 29.0517 12.2923
    endloop
  endfacet
  facet normal -4.03559e-07 0.984808 0.173648
    outer loop
      vertex 1.34704 31.4566 -1.34704
      vertex 7.18659 32.5246 -7.40387
      vertex 0 31.555 -1.905
    endloop
  endfacet
  facet normal 4.65376e-07 0.984808 0.173649
    outer loop
      vertex 1.905 31.2191 0
      vertex 7.18659 32.5246 -7.40387
      vertex 1.34704 31.4566 -1.34704
    endloop
  endfacet
  facet normal -4.44379e-07 0.984808 0.173648
    outer loop
      vertex -1.34704 30.9816 1.34704
      vertex -7.9134 29.0517 12.2923
      vertex 0 30.8832 1.905
    endloop
  endfacet
  facet normal -7.18893e-07 0.984808 0.173648
    outer loop
      vertex -1.905 31.2191 0
      vertex -7.9134 29.0517 12.2923
      vertex -1.34704 30.9816 1.34704
    endloop
  endfacet
  facet normal -4.28105e-07 0.984808 0.173649
    outer loop
      vertex -7.9134 32.5246 -7.40387
      vertex -1.905 31.2191 0
      vertex -1.34704 31.4566 -1.34704
    endloop
  endfacet
  facet normal -0 0.984808 0.173648
    outer loop
      vertex -7.9134 32.5246 -7.40387
      vertex 0 31.555 -1.905
      vertex 7.18659 32.5246 -7.40387
    endloop
  endfacet
  facet normal 1.69601e-07 0.984808 0.173648
    outer loop
      vertex -1.905 31.2191 0
      vertex -7.9134 32.5246 -7.40387
      vertex -7.9134 29.0517 12.2923
    endloop
  endfacet
  facet normal 3.89716e-07 0.984808 0.173648
    outer loop
      vertex 0 31.555 -1.905
      vertex -7.9134 32.5246 -7.40387
      vertex -1.34704 31.4566 -1.34704
    endloop
  endfacet
  facet normal -0.597159 0.789937 0.139287
    outer loop
      vertex -11.839 30.857 -7.69792
      vertex -11.839 27.384 11.9982
      vertex -10.675 31.7104 -7.54744
    endloop
  endfacet
  facet normal -3.16543e-06 0.173649 -0.984808
    outer loop
      vertex -17.382 17.8012 -10
      vertex -17.4867 17.8012 -10
      vertex -13.4231 28.4851 -8.11614
    endloop
  endfacet
  facet normal -0.893632 0.441981 0.0779332
    outer loop
      vertex -13.4231 28.4851 -8.11614
      vertex -12.7718 26.2893 11.8052
      vertex -12.7718 29.7622 -7.89095
    endloop
  endfacet
  facet normal -0.893632 0.441981 0.0779332
    outer loop
      vertex -12.7718 26.2893 11.8052
      vertex -13.4231 28.4851 -8.11614
      vertex -13.4231 25.0122 11.58
    endloop
  endfacet
  facet normal 0.994522 0.102941 0.0181514
    outer loop
      vertex 22.1267 -0.69783 3.97624
      vertex 22.0989 -0.962375 7
      vertex 22.2 -1.91013 6.83288
    endloop
  endfacet
  facet normal 0.994522 0.102941 0.0181513
    outer loop
      vertex 21.7149 4.61564 -3.59619
      vertex 21.7678 5.23338 -10
      vertex 21.7149 5.7448 -10
    endloop
  endfacet
  facet normal 0.994522 0.10294 0.0181512
    outer loop
      vertex 21.7678 5.23338 -10
      vertex 21.7149 4.61564 -3.59619
      vertex 21.9277 2.59091 -3.77333
    endloop
  endfacet
  facet normal 0.286803 0.943436 0.166353
    outer loop
      vertex 10.0255 28.5587 12.2054
      vertex 8.6353 32.4415 -7.41852
      vertex 8.6353 28.9686 12.2776
    endloop
  endfacet
  facet normal 0.286803 0.943436 0.166353
    outer loop
      vertex 8.6353 32.4415 -7.41852
      vertex 10.0255 28.5587 12.2054
      vertex 10.0255 32.0317 -7.49079
    endloop
  endfacet
  facet normal 0.0581448 0.983142 0.173354
    outer loop
      vertex 8.6353 32.4415 -7.41852
      vertex 7.18659 29.0517 12.2923
      vertex 8.6353 28.9686 12.2776
    endloop
  endfacet
  facet normal -5.47082e-07 -0.173647 0.984808
    outer loop
      vertex -10.675 28.2375 12.1487
      vertex -11.839 27.384 11.9982
      vertex -9.34252 28.8035 12.2485
    endloop
  endfacet
  facet normal -0.597159 0.789937 0.139287
    outer loop
      vertex -10.675 31.7104 -7.54744
      vertex -11.839 27.384 11.9982
      vertex -10.675 28.2375 12.1487
    endloop
  endfacet
  facet normal -1.90883e-07 0.173648 -0.984808
    outer loop
      vertex -2.32053 22.0784 -9.24582
      vertex -5.72971 25.3846 -8.66285
      vertex -5.3 26.687 -8.4332
    endloop
  endfacet
  facet normal 1.25692e-07 0.173648 -0.984808
    outer loop
      vertex -2.32053 22.0784 -9.24582
      vertex -6.85471 24.5796 -8.80479
      vertex -5.72971 25.3846 -8.66285
    endloop
  endfacet
  facet normal 1.11507e-07 0.173648 -0.984808
    outer loop
      vertex -6.86018 21.1135 -9.41597
      vertex -6.85471 24.5796 -8.80479
      vertex -2.32053 22.0784 -9.24582
    endloop
  endfacet
  facet normal 0 0.173648 -0.984808
    outer loop
      vertex -6.86018 21.1135 -9.41597
      vertex -8.24529 24.5796 -8.80479
      vertex -6.85471 24.5796 -8.80479
    endloop
  endfacet
  facet normal -7.25069e-08 0.173648 -0.984808
    outer loop
      vertex -11.1 19.2258 -9.74882
      vertex -8.24529 24.5796 -8.80479
      vertex -6.86018 21.1135 -9.41597
    endloop
  endfacet
  facet normal -5.96544e-08 0.173648 -0.984808
    outer loop
      vertex -15.6058 17.8012 -10
      vertex -9.37029 25.3846 -8.66285
      vertex -11.1 19.2258 -9.74882
    endloop
  endfacet
  facet normal -1.39239e-07 0.173648 -0.984808
    outer loop
      vertex -8.24529 24.5796 -8.80479
      vertex -11.1 19.2258 -9.74882
      vertex -9.37029 25.3846 -8.66285
    endloop
  endfacet
  facet normal -2.69497e-07 0.173648 -0.984808
    outer loop
      vertex 15.2841 17.8012 -10
      vertex 9.37029 25.3846 -8.66285
      vertex 9.8 26.687 -8.4332
    endloop
  endfacet
  facet normal 1.39239e-07 0.173648 -0.984808
    outer loop
      vertex 11.1 19.2258 -9.74882
      vertex 8.24529 24.5796 -8.80479
      vertex 9.37029 25.3846 -8.66285
    endloop
  endfacet
  facet normal 7.25069e-08 0.173648 -0.984808
    outer loop
      vertex 6.86018 21.1135 -9.41597
      vertex 8.24529 24.5796 -8.80479
      vertex 11.1 19.2258 -9.74882
    endloop
  endfacet
  facet normal 0 0.173648 -0.984808
    outer loop
      vertex 6.86018 21.1135 -9.41597
      vertex 6.85471 24.5796 -8.80479
      vertex 8.24529 24.5796 -8.80479
    endloop
  endfacet
  facet normal -1.11507e-07 0.173648 -0.984808
    outer loop
      vertex 2.32053 22.0784 -9.24582
      vertex 6.85471 24.5796 -8.80479
      vertex 6.86018 21.1135 -9.41597
    endloop
  endfacet
  facet normal -1.25692e-07 0.173648 -0.984808
    outer loop
      vertex 6.85471 24.5796 -8.80479
      vertex 2.32053 22.0784 -9.24582
      vertex 5.72971 25.3846 -8.66285
    endloop
  endfacet
  facet normal 1.90883e-07 0.173648 -0.984808
    outer loop
      vertex 5.72971 25.3846 -8.66285
      vertex 2.32053 22.0784 -9.24582
      vertex 5.3 26.687 -8.4332
    endloop
  endfacet
  facet normal 0 0.173648 -0.984808
    outer loop
      vertex 11.1 19.2258 -9.74882
      vertex 15.2841 17.8012 -10
      vertex 13.0607 17.8012 -10
    endloop
  endfacet
  facet normal 6.47262e-08 0.173648 -0.984808
    outer loop
      vertex 9.37029 25.3846 -8.66285
      vertex 15.2841 17.8012 -10
      vertex 11.1 19.2258 -9.74882
    endloop
  endfacet
  facet normal -8.88588e-07 0.173648 -0.984808
    outer loop
      vertex 9.37029 27.9894 -8.20355
      vertex 15.2841 17.8012 -10
      vertex 9.8 26.687 -8.4332
    endloop
  endfacet
  facet normal 3.69052e-07 0.173648 -0.984808
    outer loop
      vertex 9.37029 27.9894 -8.20355
      vertex 7.18659 32.5246 -7.40387
      vertex 15.2841 17.8012 -10
    endloop
  endfacet
  facet normal -7.83109e-07 0.173648 -0.984808
    outer loop
      vertex 8.24529 28.7944 -8.06161
      vertex 7.18659 32.5246 -7.40387
      vertex 9.37029 27.9894 -8.20355
    endloop
  endfacet
  facet normal 0 0.173648 -0.984808
    outer loop
      vertex 6.85471 28.7944 -8.06161
      vertex 7.18659 32.5246 -7.40387
      vertex 8.24529 28.7944 -8.06161
    endloop
  endfacet
  facet normal 6.66513e-07 0.173648 -0.984808
    outer loop
      vertex 5.72971 27.9894 -8.20355
      vertex 7.18659 32.5246 -7.40387
      vertex 6.85471 28.7944 -8.06161
    endloop
  endfacet
  facet normal 0 0.173648 -0.984808
    outer loop
      vertex -5.72971 27.9894 -8.20355
      vertex 5.72971 27.9894 -8.20355
      vertex 5.3 26.687 -8.4332
    endloop
  endfacet
  facet normal 0 0.173648 -0.984808
    outer loop
      vertex -5.3 26.687 -8.4332
      vertex 5.3 26.687 -8.4332
      vertex 2.32053 22.0784 -9.24582
    endloop
  endfacet
  facet normal 0 0.173648 -0.984808
    outer loop
      vertex -5.3 26.687 -8.4332
      vertex 2.32053 22.0784 -9.24582
      vertex -2.32053 22.0784 -9.24582
    endloop
  endfacet
  facet normal 0 0.173648 -0.984808
    outer loop
      vertex -5.72971 27.9894 -8.20355
      vertex 5.3 26.687 -8.4332
      vertex -5.3 26.687 -8.4332
    endloop
  endfacet
  facet normal 0 0.173648 -0.984808
    outer loop
      vertex 5.72971 27.9894 -8.20355
      vertex -5.72971 27.9894 -8.20355
      vertex 7.18659 32.5246 -7.40387
    endloop
  endfacet
  facet normal -7.83108e-07 0.173648 -0.984808
    outer loop
      vertex -7.9134 32.5246 -7.40387
      vertex -5.72971 27.9894 -8.20355
      vertex -6.85471 28.7944 -8.06161
    endloop
  endfacet
  facet normal 0 0.173648 -0.984808
    outer loop
      vertex -5.72971 27.9894 -8.20355
      vertex -7.9134 32.5246 -7.40387
      vertex 7.18659 32.5246 -7.40387
    endloop
  endfacet
  facet normal 0 0.173648 -0.984808
    outer loop
      vertex -8.24529 28.7944 -8.06161
      vertex -7.9134 32.5246 -7.40387
      vertex -6.85471 28.7944 -8.06161
    endloop
  endfacet
  facet normal 6.66513e-07 0.173648 -0.984808
    outer loop
      vertex -9.37029 27.9894 -8.20355
      vertex -7.9134 32.5246 -7.40387
      vertex -8.24529 28.7944 -8.06161
    endloop
  endfacet
  facet normal 7.89123e-07 0.173648 -0.984808
    outer loop
      vertex -15.6058 17.8012 -10
      vertex -9.37029 27.9894 -8.20355
      vertex -9.8 26.687 -8.4332
    endloop
  endfacet
  facet normal 0 0.173648 -0.984808
    outer loop
      vertex -15.6058 17.8012 -10
      vertex -11.1 19.2258 -9.74882
      vertex -13.0607 17.8012 -10
    endloop
  endfacet
  facet normal 2.59574e-07 0.173648 -0.984808
    outer loop
      vertex -9.37029 25.3846 -8.66285
      vertex -15.6058 17.8012 -10
      vertex -9.8 26.687 -8.4332
    endloop
  endfacet
  facet normal -1.25588e-07 0.173648 -0.984808
    outer loop
      vertex -9.37029 27.9894 -8.20355
      vertex -15.6058 17.8012 -10
      vertex -7.9134 32.5246 -7.40387
    endloop
  endfacet
  facet normal 0.5 0.852868 0.150384
    outer loop
      vertex 11.2822 27.8441 12.0794
      vertex 10.0255 32.0317 -7.49079
      vertex 10.0255 28.5587 12.2054
    endloop
  endfacet
  facet normal 0.500001 0.852868 0.150384
    outer loop
      vertex 10.0255 32.0317 -7.49079
      vertex 11.2822 27.8441 12.0794
      vertex 11.2822 31.3171 -7.61679
    endloop
  endfacet
  facet normal 7.2457e-07 0.173649 -0.984808
    outer loop
      vertex 13.1352 29.1424 -8.00025
      vertex 10.0255 32.0317 -7.49079
      vertex 11.2822 31.3171 -7.61679
    endloop
  endfacet
  facet normal 0.686241 0.716324 0.126307
    outer loop
      vertex 12.3378 26.8634 11.9064
      vertex 11.2822 31.3171 -7.61679
      vertex 11.2822 27.8441 12.0794
    endloop
  endfacet
  facet normal 0.686242 0.716323 0.126307
    outer loop
      vertex 11.2822 31.3171 -7.61679
      vertex 12.3378 26.8634 11.9064
      vertex 12.3378 30.3364 -7.78972
    endloop
  endfacet
  facet normal 6.60639e-07 0.173651 -0.984807
    outer loop
      vertex 10.0255 32.0317 -7.49079
      vertex 7.18659 32.5246 -7.40387
      vertex 8.6353 32.4415 -7.41852
    endloop
  endfacet
  facet normal 5.71887e-08 0.173648 -0.984808
    outer loop
      vertex 13.1352 29.1424 -8.00025
      vertex 7.18659 32.5246 -7.40387
      vertex 10.0255 32.0317 -7.49079
    endloop
  endfacet
  facet normal -6.41703e-08 0.173648 -0.984808
    outer loop
      vertex -15.6058 17.8012 -10
      vertex -11.839 30.857 -7.69792
      vertex -7.9134 32.5246 -7.40387
    endloop
  endfacet
  facet normal 0 0.173648 -0.984808
    outer loop
      vertex -11.839 30.857 -7.69792
      vertex -15.6058 17.8012 -10
      vertex -17.0489 17.8012 -10
    endloop
  endfacet
  facet normal -0.173649 0.969846 0.17101
    outer loop
      vertex -7.9134 32.5246 -7.40387
      vertex -9.34252 32.2765 -7.44763
      vertex -7.9134 29.0517 12.2923
    endloop
  endfacet
  facet normal -5.05043e-07 0.173649 -0.984808
    outer loop
      vertex -7.9134 32.5246 -7.40387
      vertex -11.839 30.857 -7.69792
      vertex -10.675 31.7104 -7.54744
    endloop
  endfacet
  facet normal -5.33019e-07 0.173648 -0.984808
    outer loop
      vertex -17.0489 17.8012 -10
      vertex -13.4231 28.4851 -8.11614
      vertex -11.839 30.857 -7.69792
    endloop
  endfacet
  facet normal 0 0.173648 -0.984808
    outer loop
      vertex -13.4231 28.4851 -8.11614
      vertex -17.0489 17.8012 -10
      vertex -17.382 17.8012 -10
    endloop
  endfacet
  facet normal -0.173647 0.969847 0.17101
    outer loop
      vertex -9.34252 32.2765 -7.44763
      vertex -9.34252 28.8035 12.2485
      vertex -7.9134 29.0517 12.2923
    endloop
  endfacet
  facet normal -3.18428e-06 0.17365 -0.984807
    outer loop
      vertex -11.839 30.857 -7.69792
      vertex -13.4231 28.4851 -8.11614
      vertex -12.7718 29.7622 -7.89095
    endloop
  endfacet
  facet normal -0.766045 0.633022 0.111619
    outer loop
      vertex -11.839 30.857 -7.69792
      vertex -12.7718 29.7622 -7.89095
      vertex -11.839 27.384 11.9982
    endloop
  endfacet
  facet normal -0.951056 -0.304323 -0.0536603
    outer loop
      vertex -5.3 26.687 -8.4332
      vertex -5.72971 24.5165 11.4926
      vertex -5.72971 27.9894 -8.20355
    endloop
  endfacet
  facet normal -0.951056 -0.304323 -0.0536603
    outer loop
      vertex -5.72971 24.5165 11.4926
      vertex -5.3 26.687 -8.4332
      vertex -5.3 23.214 11.263
    endloop
  endfacet
  facet normal -0.587785 -0.796727 -0.140484
    outer loop
      vertex -6.85471 28.7944 -8.06161
      vertex -5.72971 24.5165 11.4926
      vertex -6.85471 25.3214 11.6345
    endloop
  endfacet
  facet normal -0.587785 -0.796727 -0.140484
    outer loop
      vertex -5.72971 24.5165 11.4926
      vertex -6.85471 28.7944 -8.06161
      vertex -5.72971 27.9894 -8.20355
    endloop
  endfacet
  facet normal 0.587785 -0.796726 -0.140484
    outer loop
      vertex -8.24529 28.7944 -8.06161
      vertex -8.64995 25.0319 11.5835
      vertex -9.37029 24.5165 11.4926
    endloop
  endfacet
  facet normal 0.587783 -0.796728 -0.140485
    outer loop
      vertex -8.64995 25.0319 11.5835
      vertex -8.24529 28.7944 -8.06161
      vertex -8.24529 25.3214 11.6345
    endloop
  endfacet
  facet normal 0.587785 -0.796727 -0.140484
    outer loop
      vertex -8.24529 28.7944 -8.06161
      vertex -9.37029 24.5165 11.4926
      vertex -9.37029 27.9894 -8.20355
    endloop
  endfacet
  facet normal 0 -0.984808 -0.173648
    outer loop
      vertex -8.24529 28.7944 -8.06161
      vertex -6.85471 25.3214 11.6345
      vertex -8.24529 25.3214 11.6345
    endloop
  endfacet
  facet normal 0 -0.984808 -0.173648
    outer loop
      vertex -6.85471 25.3214 11.6345
      vertex -8.24529 28.7944 -8.06161
      vertex -6.85471 28.7944 -8.06161
    endloop
  endfacet
  facet normal 0.587785 0.796726 0.140484
    outer loop
      vertex -8.24529 21.1067 10.8914
      vertex -9.37029 25.3846 -8.66285
      vertex -9.37029 21.9116 11.0333
    endloop
  endfacet
  facet normal 0.587785 0.796726 0.140484
    outer loop
      vertex -9.37029 25.3846 -8.66285
      vertex -8.24529 21.1067 10.8914
      vertex -8.24529 24.5796 -8.80479
    endloop
  endfacet
  facet normal 0.951057 -0.304322 -0.0536602
    outer loop
      vertex -9.37029 24.5165 11.4926
      vertex -9.8 26.687 -8.4332
      vertex -9.37029 27.9894 -8.20355
    endloop
  endfacet
  facet normal 0.951057 -0.304322 -0.0536602
    outer loop
      vertex -9.8 26.687 -8.4332
      vertex -9.37029 24.5165 11.4926
      vertex -9.8 23.214 11.263
    endloop
  endfacet
  facet normal 0.951057 0.304322 0.0536602
    outer loop
      vertex -9.8 23.214 11.263
      vertex -9.37029 25.3846 -8.66285
      vertex -9.8 26.687 -8.4332
    endloop
  endfacet
  facet normal 0.951057 0.304322 0.0536602
    outer loop
      vertex -9.37029 25.3846 -8.66285
      vertex -9.8 23.214 11.263
      vertex -9.37029 21.9116 11.0333
    endloop
  endfacet
  facet normal -0.587785 0.796726 0.140484
    outer loop
      vertex -5.72971 25.3846 -8.66285
      vertex -6.85471 21.1067 10.8914
      vertex -5.72971 21.9116 11.0333
    endloop
  endfacet
  facet normal -0.587785 0.796726 0.140484
    outer loop
      vertex -6.85471 21.1067 10.8914
      vertex -5.72971 25.3846 -8.66285
      vertex -6.85471 24.5796 -8.80479
    endloop
  endfacet
  facet normal -0.951056 0.304323 0.0536603
    outer loop
      vertex -5.47329 22.6888 11.1703
      vertex -5.3 26.687 -8.4332
      vertex -5.72971 25.3846 -8.66285
    endloop
  endfacet
  facet normal -0.951056 0.304323 0.0536603
    outer loop
      vertex -5.3 26.687 -8.4332
      vertex -5.47329 22.6888 11.1703
      vertex -5.3 23.214 11.263
    endloop
  endfacet
  facet normal -0.951056 0.304322 0.0536602
    outer loop
      vertex -5.47329 22.6888 11.1703
      vertex -5.72971 25.3846 -8.66285
      vertex -5.72971 21.9116 11.0333
    endloop
  endfacet
  facet normal 0 0.984808 0.173648
    outer loop
      vertex -6.85471 24.5796 -8.80479
      vertex -8.24529 21.1067 10.8914
      vertex -6.85471 21.1067 10.8914
    endloop
  endfacet
  facet normal 0 0.984808 0.173648
    outer loop
      vertex -8.24529 21.1067 10.8914
      vertex -6.85471 24.5796 -8.80479
      vertex -8.24529 24.5796 -8.80479
    endloop
  endfacet
  facet normal -0.951057 -0.304322 -0.0536602
    outer loop
      vertex 9.8 26.687 -8.4332
      vertex 9.37029 24.5165 11.4926
      vertex 9.37029 27.9894 -8.20355
    endloop
  endfacet
  facet normal -0.951057 -0.304322 -0.0536602
    outer loop
      vertex 9.37029 24.5165 11.4926
      vertex 9.8 26.687 -8.4332
      vertex 9.8 23.214 11.263
    endloop
  endfacet
  facet normal -0.587785 -0.796727 -0.140484
    outer loop
      vertex 8.24529 28.7944 -8.06161
      vertex 9.37029 24.5165 11.4926
      vertex 8.24529 25.3214 11.6345
    endloop
  endfacet
  facet normal -0.587785 -0.796727 -0.140484
    outer loop
      vertex 9.37029 24.5165 11.4926
      vertex 8.24529 28.7944 -8.06161
      vertex 9.37029 27.9894 -8.20355
    endloop
  endfacet
  facet normal 0.951056 -0.304323 -0.0536603
    outer loop
      vertex 5.72971 24.5165 11.4926
      vertex 5.3 26.687 -8.4332
      vertex 5.72971 27.9894 -8.20355
    endloop
  endfacet
  facet normal 0.951056 -0.304323 -0.0536603
    outer loop
      vertex 5.3 26.687 -8.4332
      vertex 5.72971 24.5165 11.4926
      vertex 5.3 23.214 11.263
    endloop
  endfacet
  facet normal 0 -0.984808 -0.173648
    outer loop
      vertex 6.85471 28.7944 -8.06161
      vertex 8.24529 25.3214 11.6345
      vertex 6.85471 25.3214 11.6345
    endloop
  endfacet
  facet normal 0 -0.984808 -0.173648
    outer loop
      vertex 8.24529 25.3214 11.6345
      vertex 6.85471 28.7944 -8.06161
      vertex 8.24529 28.7944 -8.06161
    endloop
  endfacet
  facet normal 0.587785 -0.796727 -0.140484
    outer loop
      vertex 5.72971 24.5165 11.4926
      vertex 6.85471 28.7944 -8.06161
      vertex 6.85471 25.3214 11.6345
    endloop
  endfacet
  facet normal 0.587785 -0.796727 -0.140484
    outer loop
      vertex 6.85471 28.7944 -8.06161
      vertex 5.72971 24.5165 11.4926
      vertex 5.72971 27.9894 -8.20355
    endloop
  endfacet
  facet normal -0.951057 0.304322 0.0536602
    outer loop
      vertex 9.37029 25.3846 -8.66285
      vertex 9.8 23.214 11.263
      vertex 9.8 26.687 -8.4332
    endloop
  endfacet
  facet normal -0.951057 0.304322 0.0536602
    outer loop
      vertex 9.8 23.214 11.263
      vertex 9.37029 25.3846 -8.66285
      vertex 9.37029 21.9116 11.0333
    endloop
  endfacet
  facet normal 0.951056 0.304323 0.0536603
    outer loop
      vertex 5.3 23.214 11.263
      vertex 5.72971 25.3846 -8.66285
      vertex 5.3 26.687 -8.4332
    endloop
  endfacet
  facet normal 0.951056 0.304323 0.0536603
    outer loop
      vertex 5.72971 25.3846 -8.66285
      vertex 5.3 23.214 11.263
      vertex 5.72971 21.9116 11.0333
    endloop
  endfacet
  facet normal 0.587785 0.796726 0.140484
    outer loop
      vertex 6.85471 21.1067 10.8914
      vertex 5.72971 25.3846 -8.66285
      vertex 5.72971 21.9116 11.0333
    endloop
  endfacet
  facet normal 0.587785 0.796726 0.140484
    outer loop
      vertex 5.72971 25.3846 -8.66285
      vertex 6.85471 21.1067 10.8914
      vertex 6.85471 24.5796 -8.80479
    endloop
  endfacet
  facet normal 0 0.984808 0.173648
    outer loop
      vertex 8.24529 24.5796 -8.80479
      vertex 6.85471 21.1067 10.8914
      vertex 8.24529 21.1067 10.8914
    endloop
  endfacet
  facet normal 0 0.984808 0.173648
    outer loop
      vertex 6.85471 21.1067 10.8914
      vertex 8.24529 24.5796 -8.80479
      vertex 6.85471 24.5796 -8.80479
    endloop
  endfacet
  facet normal -0.587785 0.796726 0.140484
    outer loop
      vertex 9.37029 25.3846 -8.66285
      vertex 8.24529 21.1067 10.8914
      vertex 9.37029 21.9116 11.0333
    endloop
  endfacet
  facet normal -0.587785 0.796726 0.140484
    outer loop
      vertex 8.24529 21.1067 10.8914
      vertex 9.37029 25.3846 -8.66285
      vertex 8.24529 24.5796 -8.80479
    endloop
  endfacet
  facet normal -0.92388 1.8583e-12 -0.382683
    outer loop
      vertex 1.905 31.2191 0
      vertex 1.90242 18.1003 0.00623483
      vertex 1.34704 30.9816 1.34704
    endloop
  endfacet
  facet normal -0.92388 0 -0.382683
    outer loop
      vertex 1.90242 18.1003 0.00623483
      vertex 1.905 31.2191 0
      vertex 1.905 18.0997 0
    endloop
  endfacet
  facet normal -0.92388 -0 -0.382683
    outer loop
      vertex 1.34704 30.9816 1.34704
      vertex 1.90242 18.1003 0.00623483
      vertex 1.34704 18.1003 1.34704
    endloop
  endfacet
  facet normal -0.382683 -0 -0.92388
    outer loop
      vertex 0 30.8832 1.905
      vertex 1.34704 18.1003 1.34704
      vertex 0 18.1003 1.905
    endloop
  endfacet
  facet normal -0.382683 0 -0.92388
    outer loop
      vertex 1.34704 18.1003 1.34704
      vertex 0 30.8832 1.905
      vertex 1.34704 30.9816 1.34704
    endloop
  endfacet
  facet normal 0.92388 0 -0.382683
    outer loop
      vertex -1.90242 18.1003 0.00623483
      vertex -1.34704 30.9816 1.34704
      vertex -1.34704 18.1003 1.34704
    endloop
  endfacet
  facet normal 0.92388 1.8583e-12 -0.382683
    outer loop
      vertex -1.34704 30.9816 1.34704
      vertex -1.90242 18.1003 0.00623483
      vertex -1.905 31.2191 0
    endloop
  endfacet
  facet normal 0.92388 0 -0.382683
    outer loop
      vertex -1.905 31.2191 0
      vertex -1.90242 18.1003 0.00623483
      vertex -1.905 18.0997 0
    endloop
  endfacet
  facet normal 0.382683 0 -0.92388
    outer loop
      vertex -1.34704 18.1003 1.34704
      vertex 0 30.8832 1.905
      vertex 0 18.1003 1.905
    endloop
  endfacet
  facet normal 0.382683 0 -0.92388
    outer loop
      vertex 0 30.8832 1.905
      vertex -1.34704 18.1003 1.34704
      vertex -1.34704 30.9816 1.34704
    endloop
  endfacet
  facet normal 0.92388 0 0.382683
    outer loop
      vertex -1.905 31.2191 0
      vertex -1.905 18.0997 0
      vertex -1.90242 18.1003 -0.00623483
    endloop
  endfacet
  facet normal 0.92388 1.86679e-12 0.382683
    outer loop
      vertex -1.34704 18.1003 -1.34704
      vertex -1.905 31.2191 0
      vertex -1.90242 18.1003 -0.00623483
    endloop
  endfacet
  facet normal 0.92388 0 0.382683
    outer loop
      vertex -1.905 31.2191 0
      vertex -1.34704 18.1003 -1.34704
      vertex -1.34704 31.4566 -1.34704
    endloop
  endfacet
  facet normal -0.382683 0 0.92388
    outer loop
      vertex 0 18.1003 -1.905
      vertex 1.34704 31.4566 -1.34704
      vertex 0 31.555 -1.905
    endloop
  endfacet
  facet normal -0.382683 0 0.92388
    outer loop
      vertex 1.34704 31.4566 -1.34704
      vertex 0 18.1003 -1.905
      vertex 1.34704 18.1003 -1.34704
    endloop
  endfacet
  facet normal -0.92388 0 0.382683
    outer loop
      vertex 1.34704 18.1003 -1.34704
      vertex 1.905 31.2191 0
      vertex 1.34704 31.4566 -1.34704
    endloop
  endfacet
  facet normal -0.92388 1.86679e-12 0.382683
    outer loop
      vertex 1.90242 18.1003 -0.00623483
      vertex 1.905 31.2191 0
      vertex 1.34704 18.1003 -1.34704
    endloop
  endfacet
  facet normal -0.92388 0 0.382683
    outer loop
      vertex 1.905 31.2191 0
      vertex 1.90242 18.1003 -0.00623483
      vertex 1.905 18.0997 0
    endloop
  endfacet
  facet normal 0.382683 0 0.92388
    outer loop
      vertex -1.34704 31.4566 -1.34704
      vertex 0 18.1003 -1.905
      vertex 0 31.555 -1.905
    endloop
  endfacet
  facet normal 0.382683 0 0.92388
    outer loop
      vertex 0 18.1003 -1.905
      vertex -1.34704 31.4566 -1.34704
      vertex -1.34704 18.1003 -1.34704
    endloop
  endfacet
  facet normal -0.994522 -0.104529 0
    outer loop
      vertex 18.2 0 -10
      vertex 17.8023 3.78399 10
      vertex 17.8023 3.78399 -10
    endloop
  endfacet
  facet normal -0.994522 -0.104529 0
    outer loop
      vertex 17.8023 3.78399 10
      vertex 18.2 0 -10
      vertex 18.2 0 10
    endloop
  endfacet
  facet normal 0.994522 -0.104529 0
    outer loop
      vertex -18.2 0 10
      vertex -17.8023 3.78399 -10
      vertex -17.8023 3.78399 10
    endloop
  endfacet
  facet normal 0.994522 -0.104529 0
    outer loop
      vertex -17.8023 3.78399 -10
      vertex -18.2 0 10
      vertex -18.2 0 -10
    endloop
  endfacet
  facet normal 0 -1 -0
    outer loop
      vertex -1.34704 18.1003 -1.34704
      vertex -1.90242 18.1003 -10
      vertex 0 18.1003 -1.905
    endloop
  endfacet
  facet normal 0 -1 0
    outer loop
      vertex -1.90242 18.1003 -10
      vertex -1.34704 18.1003 -1.34704
      vertex -1.90242 18.1003 -0.00623483
    endloop
  endfacet
  facet normal 0 -1 0
    outer loop
      vertex 1.90242 18.1003 -10
      vertex 0 18.1003 -1.905
      vertex -1.90242 18.1003 -10
    endloop
  endfacet
  facet normal 0 -1 0
    outer loop
      vertex 0 18.1003 -1.905
      vertex 1.90242 18.1003 -10
      vertex 1.34704 18.1003 -1.34704
    endloop
  endfacet
  facet normal 0 -1 0
    outer loop
      vertex 1.34704 18.1003 -1.34704
      vertex 1.90242 18.1003 -10
      vertex 1.90242 18.1003 -0.00623483
    endloop
  endfacet
  facet normal 0 -1 0
    outer loop
      vertex 0 18.1003 1.905
      vertex 0.747765 18.1003 10.3613
      vertex -1.90242 18.1003 10.3613
    endloop
  endfacet
  facet normal 0 -1 -0
    outer loop
      vertex 0.747765 18.1003 10.3613
      vertex 0 18.1003 1.905
      vertex 1.90242 18.1003 10.3613
    endloop
  endfacet
  facet normal 0 -1 0
    outer loop
      vertex -1.90242 18.1003 10.3613
      vertex -1.34704 18.1003 1.34704
      vertex 0 18.1003 1.905
    endloop
  endfacet
  facet normal -0 -1 0
    outer loop
      vertex -1.34704 18.1003 1.34704
      vertex -1.90242 18.1003 10.3613
      vertex -1.90242 18.1003 0.00623483
    endloop
  endfacet
  facet normal 0 -1 0
    outer loop
      vertex 1.34704 18.1003 1.34704
      vertex 1.90242 18.1003 10.3613
      vertex 0 18.1003 1.905
    endloop
  endfacet
  facet normal 0 -1 -0
    outer loop
      vertex 1.90242 18.1003 10.3613
      vertex 1.34704 18.1003 1.34704
      vertex 1.90242 18.1003 0.00623483
    endloop
  endfacet
  facet normal 0 1 -0
    outer loop
      vertex 1.90242 -18.1003 -10
      vertex -1.90242 -18.1003 10
      vertex 1.90242 -18.1003 10
    endloop
  endfacet
  facet normal 0 1 0
    outer loop
      vertex -1.90242 -18.1003 10
      vertex 1.90242 -18.1003 -10
      vertex -1.90242 -18.1003 -10
    endloop
  endfacet
  facet normal -0.743145 -0.669131 0
    outer loop
      vertex 14.7241 10.6977 -10
      vertex 12.1782 13.5252 10
      vertex 12.1782 13.5252 -10
    endloop
  endfacet
  facet normal -0.743145 -0.669131 0
    outer loop
      vertex 12.1782 13.5252 10
      vertex 14.7241 10.6977 -10
      vertex 14.7241 10.6977 10
    endloop
  endfacet
  facet normal 0.587785 -0.809017 0
    outer loop
      vertex -12.1782 13.5252 -10
      vertex -9.1 15.7617 10
      vertex -12.1782 13.5252 10
    endloop
  endfacet
  facet normal 0.587785 -0.809017 0
    outer loop
      vertex -9.1 15.7617 10
      vertex -12.1782 13.5252 -10
      vertex -9.1 15.7617 -10
    endloop
  endfacet
  facet normal 0.207912 -0.978148 0
    outer loop
      vertex -5.62411 17.3092 10.2218
      vertex -1.90242 18.1003 0.00623483
      vertex -1.90242 18.1003 10.3613
    endloop
  endfacet
  facet normal 0.207985 -0.978132 2.77391e-05
    outer loop
      vertex -5.62411 17.3092 10.2218
      vertex -1.905 18.0997 0
      vertex -1.90242 18.1003 0.00623483
    endloop
  endfacet
  facet normal 0.207912 -0.978148 0
    outer loop
      vertex -5.62411 17.3092 -10
      vertex -1.905 18.0997 0
      vertex -5.62411 17.3092 10.2218
    endloop
  endfacet
  facet normal 0.207984 -0.978132 -2.80633e-05
    outer loop
      vertex -5.62411 17.3092 -10
      vertex -1.90242 18.1003 -0.00623483
      vertex -1.905 18.0997 0
    endloop
  endfacet
  facet normal 0.207912 -0.978148 0
    outer loop
      vertex -1.90242 18.1003 -0.00623483
      vertex -5.62411 17.3092 -10
      vertex -1.90242 18.1003 -10
    endloop
  endfacet
  facet normal -0.951056 0.309017 0
    outer loop
      vertex 16.6265 -7.40261 -10
      vertex 17.8023 -3.78399 10
      vertex 17.8023 -3.78399 -10
    endloop
  endfacet
  facet normal -0.951056 0.309017 0
    outer loop
      vertex 17.8023 -3.78399 10
      vertex 16.6265 -7.40261 -10
      vertex 16.6265 -7.40261 10
    endloop
  endfacet
  facet normal -0.866026 -0.5 0
    outer loop
      vertex 16.6265 7.40261 -10
      vertex 14.7241 10.6977 10
      vertex 14.7241 10.6977 -10
    endloop
  endfacet
  facet normal -0.866026 -0.5 0
    outer loop
      vertex 14.7241 10.6977 10
      vertex 16.6265 7.40261 -10
      vertex 16.6265 7.40261 10
    endloop
  endfacet
  facet normal -0.951056 -0.309017 0
    outer loop
      vertex 17.8023 3.78399 -10
      vertex 16.6265 7.40261 10
      vertex 16.6265 7.40261 -10
    endloop
  endfacet
  facet normal -0.951056 -0.309017 0
    outer loop
      vertex 16.6265 7.40261 10
      vertex 17.8023 3.78399 -10
      vertex 17.8023 3.78399 10
    endloop
  endfacet
  facet normal -0.406736 -0.913546 0
    outer loop
      vertex 5.62411 17.3092 -10
      vertex 8.44908 16.0515 10
      vertex 5.62411 17.3092 10.2218
    endloop
  endfacet
  facet normal -0.406737 -0.913546 3.61495e-08
    outer loop
      vertex 9.1 15.7617 -10
      vertex 8.44908 16.0515 10
      vertex 5.62411 17.3092 -10
    endloop
  endfacet
  facet normal -0.406737 -0.913545 0
    outer loop
      vertex 8.44908 16.0515 10
      vertex 9.1 15.7617 -10
      vertex 9.1 15.7617 10
    endloop
  endfacet
  facet normal -0.207912 -0.978148 0
    outer loop
      vertex 1.90242 18.1003 0.00623483
      vertex 5.62411 17.3092 10.2218
      vertex 1.90242 18.1003 10.3613
    endloop
  endfacet
  facet normal -0.207985 -0.978132 2.77391e-05
    outer loop
      vertex 1.905 18.0997 0
      vertex 5.62411 17.3092 10.2218
      vertex 1.90242 18.1003 0.00623483
    endloop
  endfacet
  facet normal -0.207912 -0.978148 0
    outer loop
      vertex 5.62411 17.3092 -10
      vertex 1.90242 18.1003 -0.00623483
      vertex 1.90242 18.1003 -10
    endloop
  endfacet
  facet normal -0.207984 -0.978132 -2.80633e-05
    outer loop
      vertex 1.90242 18.1003 -0.00623483
      vertex 5.62411 17.3092 -10
      vertex 1.905 18.0997 0
    endloop
  endfacet
  facet normal -0.207912 -0.978148 0
    outer loop
      vertex 1.905 18.0997 0
      vertex 5.62411 17.3092 -10
      vertex 5.62411 17.3092 10.2218
    endloop
  endfacet
  facet normal -0.587785 -0.809017 0
    outer loop
      vertex 9.1 15.7617 -10
      vertex 12.1782 13.5252 10
      vertex 9.1 15.7617 10
    endloop
  endfacet
  facet normal -0.587785 -0.809017 -0
    outer loop
      vertex 12.1782 13.5252 10
      vertex 9.1 15.7617 -10
      vertex 12.1782 13.5252 -10
    endloop
  endfacet
  facet normal 0.866026 -0.5 0
    outer loop
      vertex -16.6265 7.40261 10
      vertex -14.7241 10.6977 -10
      vertex -14.7241 10.6977 10
    endloop
  endfacet
  facet normal 0.866026 -0.5 0
    outer loop
      vertex -14.7241 10.6977 -10
      vertex -16.6265 7.40261 10
      vertex -16.6265 7.40261 -10
    endloop
  endfacet
  facet normal 0.743145 -0.669131 0
    outer loop
      vertex -14.7241 10.6977 10
      vertex -12.1782 13.5252 -10
      vertex -12.1782 13.5252 10
    endloop
  endfacet
  facet normal 0.743145 -0.669131 0
    outer loop
      vertex -12.1782 13.5252 -10
      vertex -14.7241 10.6977 10
      vertex -14.7241 10.6977 -10
    endloop
  endfacet
  facet normal 0.951056 -0.309017 0
    outer loop
      vertex -17.8023 3.78399 10
      vertex -16.6265 7.40261 -10
      vertex -16.6265 7.40261 10
    endloop
  endfacet
  facet normal 0.951056 -0.309017 0
    outer loop
      vertex -16.6265 7.40261 -10
      vertex -17.8023 3.78399 10
      vertex -17.8023 3.78399 -10
    endloop
  endfacet
  facet normal 0.406737 -0.913545 0
    outer loop
      vertex -9.1 15.7617 10
      vertex -9.1 15.7617 -10
      vertex -8.44908 16.0515 10
    endloop
  endfacet
  facet normal 0.406737 -0.913546 3.61495e-08
    outer loop
      vertex -5.62411 17.3092 -10
      vertex -8.44908 16.0515 10
      vertex -9.1 15.7617 -10
    endloop
  endfacet
  facet normal 0.406736 -0.913546 0
    outer loop
      vertex -8.44908 16.0515 10
      vertex -5.62411 17.3092 -10
      vertex -5.62411 17.3092 10.2218
    endloop
  endfacet
  facet normal -0.994522 0.104529 0
    outer loop
      vertex 17.8023 -3.78399 -10
      vertex 18.2 0 10
      vertex 18.2 0 -10
    endloop
  endfacet
  facet normal -0.994522 0.104529 0
    outer loop
      vertex 18.2 0 10
      vertex 17.8023 -3.78399 -10
      vertex 17.8023 -3.78399 10
    endloop
  endfacet
  facet normal -0.207912 0.978148 0
    outer loop
      vertex 5.62411 -17.3092 -10
      vertex 1.90242 -18.1003 10
      vertex 5.62411 -17.3092 10
    endloop
  endfacet
  facet normal -0.207912 0.978148 0
    outer loop
      vertex 1.90242 -18.1003 10
      vertex 5.62411 -17.3092 -10
      vertex 1.90242 -18.1003 -10
    endloop
  endfacet
  facet normal -0.866026 0.5 0
    outer loop
      vertex 14.7241 -10.6977 -10
      vertex 16.6265 -7.40261 10
      vertex 16.6265 -7.40261 -10
    endloop
  endfacet
  facet normal -0.866026 0.5 0
    outer loop
      vertex 16.6265 -7.40261 10
      vertex 14.7241 -10.6977 -10
      vertex 14.7241 -10.6977 10
    endloop
  endfacet
  facet normal 0.587785 0.809017 -0
    outer loop
      vertex -9.1 -15.7617 -10
      vertex -12.1782 -13.5252 10
      vertex -9.1 -15.7617 10
    endloop
  endfacet
  facet normal 0.587785 0.809017 0
    outer loop
      vertex -12.1782 -13.5252 10
      vertex -9.1 -15.7617 -10
      vertex -12.1782 -13.5252 -10
    endloop
  endfacet
  facet normal 0.866026 0.5 0
    outer loop
      vertex -14.7241 -10.6977 10
      vertex -16.6265 -7.40261 -10
      vertex -16.6265 -7.40261 10
    endloop
  endfacet
  facet normal 0.866026 0.5 0
    outer loop
      vertex -16.6265 -7.40261 -10
      vertex -14.7241 -10.6977 10
      vertex -14.7241 -10.6977 -10
    endloop
  endfacet
  facet normal 0.743145 0.669131 0
    outer loop
      vertex -12.1782 -13.5252 10
      vertex -14.7241 -10.6977 -10
      vertex -14.7241 -10.6977 10
    endloop
  endfacet
  facet normal 0.743145 0.669131 0
    outer loop
      vertex -14.7241 -10.6977 -10
      vertex -12.1782 -13.5252 10
      vertex -12.1782 -13.5252 -10
    endloop
  endfacet
  facet normal -0.587785 0.809017 0
    outer loop
      vertex 12.1782 -13.5252 -10
      vertex 9.1 -15.7617 10
      vertex 12.1782 -13.5252 10
    endloop
  endfacet
  facet normal -0.587785 0.809017 0
    outer loop
      vertex 9.1 -15.7617 10
      vertex 12.1782 -13.5252 -10
      vertex 9.1 -15.7617 -10
    endloop
  endfacet
  facet normal -0.406737 0.913546 0
    outer loop
      vertex 9.1 -15.7617 -10
      vertex 5.62411 -17.3092 10
      vertex 9.1 -15.7617 10
    endloop
  endfacet
  facet normal -0.406737 0.913546 0
    outer loop
      vertex 5.62411 -17.3092 10
      vertex 9.1 -15.7617 -10
      vertex 5.62411 -17.3092 -10
    endloop
  endfacet
  facet normal 0.207912 0.978148 -0
    outer loop
      vertex -1.90242 -18.1003 -10
      vertex -5.62411 -17.3092 10
      vertex -1.90242 -18.1003 10
    endloop
  endfacet
  facet normal 0.207912 0.978148 0
    outer loop
      vertex -5.62411 -17.3092 10
      vertex -1.90242 -18.1003 -10
      vertex -5.62411 -17.3092 -10
    endloop
  endfacet
  facet normal 0.951056 0.309017 0
    outer loop
      vertex -16.6265 -7.40261 10
      vertex -17.8023 -3.78399 -10
      vertex -17.8023 -3.78399 10
    endloop
  endfacet
  facet normal 0.951056 0.309017 0
    outer loop
      vertex -17.8023 -3.78399 -10
      vertex -16.6265 -7.40261 10
      vertex -16.6265 -7.40261 -10
    endloop
  endfacet
  facet normal 0.994522 0.104529 0
    outer loop
      vertex -17.8023 -3.78399 10
      vertex -18.2 0 -10
      vertex -18.2 0 10
    endloop
  endfacet
  facet normal 0.994522 0.104529 0
    outer loop
      vertex -18.2 0 -10
      vertex -17.8023 -3.78399 10
      vertex -17.8023 -3.78399 -10
    endloop
  endfacet
  facet normal -0.743145 0.669131 0
    outer loop
      vertex 12.1782 -13.5252 -10
      vertex 14.7241 -10.6977 10
      vertex 14.7241 -10.6977 -10
    endloop
  endfacet
  facet normal -0.743145 0.669131 0
    outer loop
      vertex 14.7241 -10.6977 10
      vertex 12.1782 -13.5252 -10
      vertex 12.1782 -13.5252 10
    endloop
  endfacet
  facet normal 0.406737 0.913546 -0
    outer loop
      vertex -5.62411 -17.3092 -10
      vertex -9.1 -15.7617 10
      vertex -5.62411 -17.3092 10
    endloop
  endfacet
  facet normal 0.406737 0.913546 0
    outer loop
      vertex -9.1 -15.7617 10
      vertex -5.62411 -17.3092 -10
      vertex -9.1 -15.7617 -10
    endloop
  endfacet
endsolid OpenSCAD_Model
