solid OpenSCAD_Model
  facet normal -0.959493 -0.277452 -0.0489224
    outer loop
      vertex -5.3 25.9633 -10
      vertex -5.68893 23.9322 9.14651
      vertex -5.68893 27.3083 -10
    endloop
  endfacet
  facet normal -0.959493 -0.277453 -0.0489224
    outer loop
      vertex -5.68893 23.9322 9.14651
      vertex -5.3 25.9633 -10
      vertex -5.3 22.4984 9.65016
    endloop
  endfacet
  facet normal -0.142315 -0.974784 -0.171881
    outer loop
      vertex -6.73223 28.2262 -10
      vertex -8.09867 25.1511 8.57159
      vertex -8.09867 28.4257 -10
    endloop
  endfacet
  facet normal -0.142314 -0.974784 -0.171881
    outer loop
      vertex -8.09867 25.1511 8.57159
      vertex -6.73223 28.2262 -10
      vertex -6.73223 24.9211 8.74443
    endloop
  endfacet
  facet normal 1 0 0
    outer loop
      vertex -10.1008 23.3384 8.86108
      vertex -10.1008 25.2624 -10
      vertex -10.1008 26.6642 -10
    endloop
  endfacet
  facet normal 1 0 0
    outer loop
      vertex -10.1008 25.2624 -10
      vertex -10.1008 23.3384 8.86108
      vertex -10.1008 21.8555 9.32157
    endloop
  endfacet
  facet normal 0.841254 0.532427 0.0938813
    outer loop
      vertex -10.1008 21.8555 9.32157
      vertex -9.35441 24.0831 -10
      vertex -10.1008 25.2624 -10
    endloop
  endfacet
  facet normal 0.841253 0.532428 0.0938813
    outer loop
      vertex -9.35441 24.0831 -10
      vertex -10.1008 21.8555 9.32157
      vertex -9.35441 20.5886 9.81813
    endloop
  endfacet
  facet normal -0.142314 0.974784 0.171881
    outer loop
      vertex -7.54855 23.5811 -10
      vertex -8.09867 19.9743 10
      vertex -7.27114 20.0951 10
    endloop
  endfacet
  facet normal -0.142314 0.974784 0.171881
    outer loop
      vertex -8.09867 19.9743 10
      vertex -7.54855 23.5811 -10
      vertex -8.09867 23.5008 -10
    endloop
  endfacet
  facet normal -0.65486 -0.744268 -0.131235
    outer loop
      vertex -5.68893 27.3083 -10
      vertex -6.30156 24.5129 8.91041
      vertex -6.10155 27.6713 -10
    endloop
  endfacet
  facet normal -0.654861 -0.744267 -0.131234
    outer loop
      vertex -6.30156 24.5129 8.91041
      vertex -5.68893 27.3083 -10
      vertex -5.68893 23.9322 9.14651
    endloop
  endfacet
  facet normal -0.654861 -0.744268 -0.131235
    outer loop
      vertex -6.10155 27.6713 -10
      vertex -6.73223 24.9211 8.74443
      vertex -6.73223 28.2262 -10
    endloop
  endfacet
  facet normal -0.654861 -0.744268 -0.131235
    outer loop
      vertex -6.73223 24.9211 8.74443
      vertex -6.10155 27.6713 -10
      vertex -6.30156 24.5129 8.91041
    endloop
  endfacet
  facet normal -0.142317 0.974784 0.171881
    outer loop
      vertex -6.73223 23.7003 -10
      vertex -7.27114 20.0951 10
      vertex -6.73223 20.1738 10
    endloop
  endfacet
  facet normal -0.142314 0.974784 0.171881
    outer loop
      vertex -7.27114 20.0951 10
      vertex -6.73223 23.7003 -10
      vertex -7.54855 23.5811 -10
    endloop
  endfacet
  facet normal -0.959493 0.277453 0.0489225
    outer loop
      vertex -5.68893 24.6183 -10
      vertex -5.3 22.4984 9.65016
      vertex -5.3 25.9633 -10
    endloop
  endfacet
  facet normal -0.959493 0.277453 0.0489224
    outer loop
      vertex -5.68893 21.0917 10
      vertex -5.3 22.4984 9.65016
      vertex -5.68893 24.6183 -10
    endloop
  endfacet
  facet normal -0.959492 0.277454 0.0489273
    outer loop
      vertex -5.3 22.4984 9.65016
      vertex -5.68893 21.0917 10
      vertex -5.60553 21.3801 10
    endloop
  endfacet
  facet normal -0.654862 0.744267 0.131234
    outer loop
      vertex -6.73223 23.7003 -10
      vertex -6.31996 20.5365 10
      vertex -6.10775 24.2498 -10
    endloop
  endfacet
  facet normal -0.65486 0.744269 0.131235
    outer loop
      vertex -6.31996 20.5365 10
      vertex -6.73223 23.7003 -10
      vertex -6.73223 20.1738 10
    endloop
  endfacet
  facet normal 0.415405 -0.895795 -0.15808
    outer loop
      vertex -8.622 24.9072 8.57839
      vertex -8.09867 25.1511 8.57159
      vertex -8.14257 25.13 8.57548
    endloop
  endfacet
  facet normal 0.415415 -0.895813 -0.157956
    outer loop
      vertex -8.85865 28.0733 -10
      vertex -8.09867 25.1511 8.57159
      vertex -8.622 24.9072 8.57839
    endloop
  endfacet
  facet normal 0.415416 -0.895812 -0.157956
    outer loop
      vertex -8.09867 25.1511 8.57159
      vertex -8.85865 28.0733 -10
      vertex -8.09867 28.4257 -10
    endloop
  endfacet
  facet normal 0.415414 -0.895813 -0.157956
    outer loop
      vertex -9.35441 27.8434 -10
      vertex -8.622 24.9072 8.57839
      vertex -9.35441 24.5668 8.58284
    endloop
  endfacet
  facet normal 0.415414 -0.895813 -0.157956
    outer loop
      vertex -8.622 24.9072 8.57839
      vertex -9.35441 27.8434 -10
      vertex -8.85865 28.0733 -10
    endloop
  endfacet
  facet normal 0.415413 0.895813 0.157956
    outer loop
      vertex -8.60389 23.7351 -10
      vertex -9.35441 20.5886 9.81813
      vertex -8.85822 20.3324 9.96629
    endloop
  endfacet
  facet normal 0.415414 0.895813 0.157956
    outer loop
      vertex -9.35441 20.5886 9.81813
      vertex -8.60389 23.7351 -10
      vertex -9.35441 24.0831 -10
    endloop
  endfacet
  facet normal 0.841254 -0.532427 -0.0938813
    outer loop
      vertex -9.35441 24.5668 8.58284
      vertex -9.80488 27.1317 -10
      vertex -9.35441 27.8434 -10
    endloop
  endfacet
  facet normal 0.841254 -0.532427 -0.0938812
    outer loop
      vertex -9.80488 27.1317 -10
      vertex -9.35441 24.5668 8.58284
      vertex -9.66347 24.0581 8.69806
    endloop
  endfacet
  facet normal 0.841254 -0.532427 -0.0938812
    outer loop
      vertex -9.66347 24.0581 8.69806
      vertex -10.1008 26.6642 -10
      vertex -9.80488 27.1317 -10
    endloop
  endfacet
  facet normal 0.841253 -0.532428 -0.0938814
    outer loop
      vertex -10.1008 26.6642 -10
      vertex -9.66347 24.0581 8.69806
      vertex -10.1008 23.3384 8.86108
    endloop
  endfacet
  facet normal -0.654861 0.744268 0.131235
    outer loop
      vertex -6.10775 24.2498 -10
      vertex -5.68893 21.0917 10
      vertex -5.68893 24.6183 -10
    endloop
  endfacet
  facet normal -0.654861 0.744267 0.131234
    outer loop
      vertex -5.68893 21.0917 10
      vertex -6.10775 24.2498 -10
      vertex -6.31996 20.5365 10
    endloop
  endfacet
  facet normal 0.415411 0.895806 0.158004
    outer loop
      vertex -8.09867 19.9743 10
      vertex -8.85822 20.3324 9.96629
      vertex -8.74533 20.2741 10
    endloop
  endfacet
  facet normal 0.415416 0.895812 0.157956
    outer loop
      vertex -8.09867 23.5008 -10
      vertex -8.85822 20.3324 9.96629
      vertex -8.09867 19.9743 10
    endloop
  endfacet
  facet normal 0.415414 0.895813 0.157956
    outer loop
      vertex -8.85822 20.3324 9.96629
      vertex -8.09867 23.5008 -10
      vertex -8.60389 23.7351 -10
    endloop
  endfacet
  facet normal -0.959493 -0.277452 -0.0489224
    outer loop
      vertex 10.2 25.9633 -10
      vertex 9.81107 24.0124 8.69185
      vertex 9.81107 27.3083 -10
    endloop
  endfacet
  facet normal -0.959493 -0.277452 -0.0489223
    outer loop
      vertex 9.81107 24.0124 8.69185
      vertex 10.2 25.9633 -10
      vertex 10.2 22.5995 9.07681
    endloop
  endfacet
  facet normal -0.142315 -0.974782 -0.17189
    outer loop
      vertex 7.40133 25.1418 8.62388
      vertex 8.76777 24.9566 8.54289
      vertex 8.11407 25.0407 8.60714
    endloop
  endfacet
  facet normal -0.142315 -0.974784 -0.171881
    outer loop
      vertex 7.40133 28.4257 -10
      vertex 8.76777 24.9566 8.54289
      vertex 7.40133 25.1418 8.62388
    endloop
  endfacet
  facet normal -0.142315 -0.974784 -0.171881
    outer loop
      vertex 8.76777 24.9566 8.54289
      vertex 7.40133 28.4257 -10
      vertex 8.76777 28.2262 -10
    endloop
  endfacet
  facet normal 0.415416 -0.895812 -0.157956
    outer loop
      vertex 6.64135 28.0733 -10
      vertex 7.40133 25.1418 8.62388
      vertex 6.88017 24.8782 8.74822
    endloop
  endfacet
  facet normal 0.415416 -0.895812 -0.157956
    outer loop
      vertex 7.40133 25.1418 8.62388
      vertex 6.64135 28.0733 -10
      vertex 7.40133 28.4257 -10
    endloop
  endfacet
  facet normal 0.841254 0.532427 0.0938813
    outer loop
      vertex 5.39924 21.7552 9.88999
      vertex 6.14559 24.0831 -10
      vertex 5.39924 25.2624 -10
    endloop
  endfacet
  facet normal 0.841253 0.532427 0.0938883
    outer loop
      vertex 6.14559 20.5566 10
      vertex 5.39924 21.7552 9.88999
      vertex 5.62729 21.3755 10
    endloop
  endfacet
  facet normal 0.841253 0.532427 0.0938813
    outer loop
      vertex 5.39924 21.7552 9.88999
      vertex 6.14559 20.5566 10
      vertex 6.14559 24.0831 -10
    endloop
  endfacet
  facet normal 0.415414 0.895813 0.157956
    outer loop
      vertex 6.89611 23.7351 -10
      vertex 7.40133 19.9743 10
      vertex 7.40133 23.5008 -10
    endloop
  endfacet
  facet normal 0.415416 0.895812 0.157956
    outer loop
      vertex 7.40133 19.9743 10
      vertex 6.89611 23.7351 -10
      vertex 6.64135 20.3267 10
    endloop
  endfacet
  facet normal -0.65486 -0.744268 -0.131235
    outer loop
      vertex 9.81107 27.3083 -10
      vertex 9.20167 24.5639 8.60484
      vertex 9.39845 27.6713 -10
    endloop
  endfacet
  facet normal -0.65486 -0.744269 -0.131235
    outer loop
      vertex 9.20167 24.5639 8.60484
      vertex 9.81107 27.3083 -10
      vertex 9.81107 24.0124 8.69185
    endloop
  endfacet
  facet normal -0.142314 0.974784 0.171881
    outer loop
      vertex 7.95145 23.5811 -10
      vertex 7.40133 19.9743 10
      vertex 8.22886 20.0951 10
    endloop
  endfacet
  facet normal -0.142314 0.974784 0.171881
    outer loop
      vertex 7.40133 19.9743 10
      vertex 7.95145 23.5811 -10
      vertex 7.40133 23.5008 -10
    endloop
  endfacet
  facet normal -0.654861 -0.744268 -0.131235
    outer loop
      vertex 9.39845 27.6713 -10
      vertex 8.76777 24.9566 8.54289
      vertex 8.76777 28.2262 -10
    endloop
  endfacet
  facet normal -0.654861 -0.744268 -0.131234
    outer loop
      vertex 8.76777 24.9566 8.54289
      vertex 9.39845 27.6713 -10
      vertex 9.20167 24.5639 8.60484
    endloop
  endfacet
  facet normal -0.142317 0.974784 0.171881
    outer loop
      vertex 8.76777 23.7003 -10
      vertex 8.22886 20.0951 10
      vertex 8.76777 20.1738 10
    endloop
  endfacet
  facet normal -0.142314 0.974784 0.171881
    outer loop
      vertex 8.22886 20.0951 10
      vertex 8.76777 23.7003 -10
      vertex 7.95145 23.5811 -10
    endloop
  endfacet
  facet normal -0.654863 0.744267 0.131228
    outer loop
      vertex 9.18163 20.5644 9.84954
      vertex 8.76777 20.1738 10
      vertex 8.83598 20.2338 10
    endloop
  endfacet
  facet normal -0.654862 0.744267 0.131234
    outer loop
      vertex 8.76777 23.7003 -10
      vertex 9.18163 20.5644 9.84954
      vertex 9.39225 24.2498 -10
    endloop
  endfacet
  facet normal -0.654861 0.744268 0.131234
    outer loop
      vertex 9.18163 20.5644 9.84954
      vertex 8.76777 23.7003 -10
      vertex 8.76777 20.1738 10
    endloop
  endfacet
  facet normal 0.415414 -0.895813 -0.157956
    outer loop
      vertex 6.14559 27.8434 -10
      vertex 6.88017 24.8782 8.74822
      vertex 6.14559 24.5067 8.92348
    endloop
  endfacet
  facet normal 0.415414 -0.895813 -0.157956
    outer loop
      vertex 6.88017 24.8782 8.74822
      vertex 6.14559 27.8434 -10
      vertex 6.64135 28.0733 -10
    endloop
  endfacet
  facet normal 0.841254 -0.532427 -0.0938812
    outer loop
      vertex 6.14559 24.5067 8.92348
      vertex 5.69512 27.1317 -10
      vertex 6.14559 27.8434 -10
    endloop
  endfacet
  facet normal 0.841253 -0.532427 -0.0938813
    outer loop
      vertex 5.69512 27.1317 -10
      vertex 6.14559 24.5067 8.92348
      vertex 5.8397 23.9893 9.11692
    endloop
  endfacet
  facet normal 0.415414 0.895813 0.157956
    outer loop
      vertex 6.14559 24.0831 -10
      vertex 6.64135 20.3267 10
      vertex 6.89611 23.7351 -10
    endloop
  endfacet
  facet normal 0.415414 0.895813 0.157956
    outer loop
      vertex 6.64135 20.3267 10
      vertex 6.14559 24.0831 -10
      vertex 6.14559 20.5566 10
    endloop
  endfacet
  facet normal 1 0 0
    outer loop
      vertex 5.39924 23.2442 9.39546
      vertex 5.39924 25.2624 -10
      vertex 5.39924 26.6642 -10
    endloop
  endfacet
  facet normal 1 0 0
    outer loop
      vertex 5.39924 25.2624 -10
      vertex 5.39924 23.2442 9.39546
      vertex 5.39924 21.7552 9.88999
    endloop
  endfacet
  facet normal 0.841253 -0.532427 -0.0938813
    outer loop
      vertex 5.8397 23.9893 9.11692
      vertex 5.39924 26.6642 -10
      vertex 5.69512 27.1317 -10
    endloop
  endfacet
  facet normal 0.841254 -0.532427 -0.0938813
    outer loop
      vertex 5.39924 26.6642 -10
      vertex 5.8397 23.9893 9.11692
      vertex 5.39924 23.2442 9.39546
    endloop
  endfacet
  facet normal -0.654861 0.744268 0.131235
    outer loop
      vertex 9.39225 24.2498 -10
      vertex 9.81107 21.1666 9.57554
      vertex 9.81107 24.6183 -10
    endloop
  endfacet
  facet normal -0.654861 0.744268 0.131235
    outer loop
      vertex 9.81107 21.1666 9.57554
      vertex 9.39225 24.2498 -10
      vertex 9.18163 20.5644 9.84954
    endloop
  endfacet
  facet normal -0.959493 0.277453 0.0489225
    outer loop
      vertex 9.81107 24.6183 -10
      vertex 10.2 22.5995 9.07681
      vertex 10.2 25.9633 -10
    endloop
  endfacet
  facet normal -0.959493 0.277453 0.0489225
    outer loop
      vertex 10.2 22.5995 9.07681
      vertex 9.81107 24.6183 -10
      vertex 9.81107 21.1666 9.57554
    endloop
  endfacet
  facet normal 0.994522 -0.104529 0
    outer loop
      vertex 21.7149 -4.61564 10
      vertex 22.2 0 -10
      vertex 22.2 0 10
    endloop
  endfacet
  facet normal 0.994522 -0.104529 0
    outer loop
      vertex 22.2 0 -10
      vertex 21.7149 -4.61564 10
      vertex 21.7149 -4.61564 -10
    endloop
  endfacet
  facet normal -0.111964 0.978616 0.172556
    outer loop
      vertex -7.75 31.6311 -10
      vertex -9.18526 28.3958 7.41724
      vertex -7.75 28.5551 7.44532
    endloop
  endfacet
  facet normal -0.111964 0.978616 0.172556
    outer loop
      vertex -9.18526 28.3958 7.41724
      vertex -7.75 31.6311 -10
      vertex -9.18526 31.4669 -10
    endloop
  endfacet
  facet normal 0.994522 0.104529 0
    outer loop
      vertex 22.2 0 10
      vertex 21.7149 4.61564 -10
      vertex 21.7149 4.61564 10
    endloop
  endfacet
  facet normal 0.994522 0.104529 0
    outer loop
      vertex 21.7149 4.61564 -10
      vertex 22.2 0 10
      vertex 22.2 0 -10
    endloop
  endfacet
  facet normal 0.951057 0.309017 0
    outer loop
      vertex 21.7149 4.61564 10
      vertex 20.2807 9.02955 -10
      vertex 20.2807 9.02955 10
    endloop
  endfacet
  facet normal 0.951057 0.309017 0
    outer loop
      vertex 20.2807 9.02955 -10
      vertex 21.7149 4.61564 10
      vertex 21.7149 4.61564 -10
    endloop
  endfacet
  facet normal -0.0546783 0.326381 0.943655
    outer loop
      vertex -7.75 28.5551 7.44532
      vertex -9.18526 28.3958 7.41724
      vertex -2.32053 22.0784 10
    endloop
  endfacet
  facet normal -0.587785 -0.809017 0
    outer loop
      vertex -14.8547 -16.4978 -10
      vertex -11.1 -19.2258 10
      vertex -14.8547 -16.4978 10
    endloop
  endfacet
  facet normal -0.587785 -0.809017 -0
    outer loop
      vertex -11.1 -19.2258 10
      vertex -14.8547 -16.4978 -10
      vertex -11.1 -19.2258 -10
    endloop
  endfacet
  facet normal -0.913961 0.399637 0.0704668
    outer loop
      vertex -15.0798 24.4506 -10
      vertex -13.5612 24.9591 6.81125
      vertex -13.5612 27.9234 -10
    endloop
  endfacet
  facet normal -0.913961 0.399637 0.0704668
    outer loop
      vertex -13.5612 24.9591 6.81125
      vertex -15.0798 24.4506 -10
      vertex -20.2807 9.02955 10
    endloop
  endfacet
  facet normal 0 -1 0
    outer loop
      vertex -2.32053 -22.0784 -10
      vertex 2.32053 -22.0784 10
      vertex -2.32053 -22.0784 10
    endloop
  endfacet
  facet normal 0 -1 -0
    outer loop
      vertex 2.32053 -22.0784 10
      vertex -2.32053 -22.0784 -10
      vertex 2.32053 -22.0784 -10
    endloop
  endfacet
  facet normal -0.846724 0.523949 0.0923864
    outer loop
      vertex -13.5612 27.9234 -10
      vertex -12.7928 26.1635 7.02362
      vertex -12.7928 29.1652 -10
    endloop
  endfacet
  facet normal -0.846724 0.523949 0.0923864
    outer loop
      vertex -12.7928 26.1635 7.02362
      vertex -13.5612 27.9234 -10
      vertex -13.5612 24.9591 6.81125
    endloop
  endfacet
  facet normal 0.866025 -0.5 0
    outer loop
      vertex 17.9602 -13.0488 10
      vertex 20.2807 -9.02955 -10
      vertex 20.2807 -9.02955 10
    endloop
  endfacet
  facet normal 0.866025 -0.5 0
    outer loop
      vertex 20.2807 -9.02955 -10
      vertex 17.9602 -13.0488 10
      vertex 17.9602 -13.0488 -10
    endloop
  endfacet
  facet normal 0.16001 0.298424 0.940925
    outer loop
      vertex 10.5485 27.926 7.3344
      vertex 9.18526 28.3958 7.41724
      vertex 11.1 19.2258 10
    endloop
  endfacet
  facet normal -0.947934 0.318468 0
    outer loop
      vertex -15.4928 23.2808 -10
      vertex -20.2807 9.02955 -10
      vertex -20.2807 9.02955 10
    endloop
  endfacet
  facet normal -0.951057 0.309017 0
    outer loop
      vertex -21.7149 4.61564 -10
      vertex -20.2807 9.02955 10
      vertex -20.2807 9.02955 -10
    endloop
  endfacet
  facet normal -0.951057 0.309017 0
    outer loop
      vertex -20.2807 9.02955 10
      vertex -21.7149 4.61564 -10
      vertex -21.7149 4.61564 10
    endloop
  endfacet
  facet normal -0.994522 0.104529 0
    outer loop
      vertex -22.2 0 -10
      vertex -21.7149 4.61564 10
      vertex -21.7149 4.61564 -10
    endloop
  endfacet
  facet normal -0.994522 0.104529 0
    outer loop
      vertex -21.7149 4.61564 10
      vertex -22.2 0 -10
      vertex -22.2 0 10
    endloop
  endfacet
  facet normal -0.994522 -0.104529 0
    outer loop
      vertex -21.7149 -4.61564 -10
      vertex -22.2 0 10
      vertex -22.2 0 -10
    endloop
  endfacet
  facet normal -0.994522 -0.104529 0
    outer loop
      vertex -22.2 0 10
      vertex -21.7149 -4.61564 -10
      vertex -21.7149 -4.61564 10
    endloop
  endfacet
  facet normal -0.130896 0.294001 0.9468
    outer loop
      vertex -9.18526 28.3958 7.41724
      vertex -8.622 24.9072 8.57839
      vertex -8.14257 25.13 8.57548
    endloop
  endfacet
  facet normal -0.130898 0.294 0.9468
    outer loop
      vertex -9.18526 28.3958 7.41724
      vertex -9.35441 24.5668 8.58284
      vertex -8.622 24.9072 8.57839
    endloop
  endfacet
  facet normal -0.130896 0.294 0.9468
    outer loop
      vertex -9.18526 28.3958 7.41724
      vertex -9.66347 24.0581 8.69806
      vertex -9.35441 24.5668 8.58284
    endloop
  endfacet
  facet normal -0.130898 0.294 0.9468
    outer loop
      vertex -9.18526 28.3958 7.41724
      vertex -10.1008 23.3384 8.86108
      vertex -9.66347 24.0581 8.69806
    endloop
  endfacet
  facet normal -0.130896 0.294 0.9468
    outer loop
      vertex -10.1008 23.3384 8.86108
      vertex -11.1 19.2258 10
      vertex -10.1008 21.8555 9.32157
    endloop
  endfacet
  facet normal -0.130896 0.294 0.9468
    outer loop
      vertex -11.1 19.2258 10
      vertex -10.1008 23.3384 8.86108
      vertex -9.18526 28.3958 7.41724
    endloop
  endfacet
  facet normal -0.130897 0.294 0.9468
    outer loop
      vertex -11.1 19.2258 10
      vertex -8.85822 20.3324 9.96629
      vertex -9.35441 20.5886 9.81813
    endloop
  endfacet
  facet normal -0.130897 0.293999 0.9468
    outer loop
      vertex -8.85822 20.3324 9.96629
      vertex -11.1 19.2258 10
      vertex -8.74533 20.2741 10
    endloop
  endfacet
  facet normal -0.130898 0.294001 0.9468
    outer loop
      vertex -11.1 19.2258 10
      vertex -9.35441 20.5886 9.81813
      vertex -10.1008 21.8555 9.32157
    endloop
  endfacet
  facet normal 0.587785 -0.809017 0
    outer loop
      vertex 11.1 -19.2258 -10
      vertex 14.8547 -16.4978 10
      vertex 11.1 -19.2258 10
    endloop
  endfacet
  facet normal 0.587785 -0.809017 0
    outer loop
      vertex 14.8547 -16.4978 10
      vertex 11.1 -19.2258 -10
      vertex 14.8547 -16.4978 -10
    endloop
  endfacet
  facet normal 0.207912 -0.978148 0
    outer loop
      vertex 2.32053 -22.0784 -10
      vertex 6.86018 -21.1135 10
      vertex 2.32053 -22.0784 10
    endloop
  endfacet
  facet normal 0.207912 -0.978148 0
    outer loop
      vertex 6.86018 -21.1135 10
      vertex 2.32053 -22.0784 -10
      vertex 6.86018 -21.1135 -10
    endloop
  endfacet
  facet normal 0.913961 0.399637 0.0704668
    outer loop
      vertex 13.5612 24.9591 6.81125
      vertex 15.0798 24.4506 -10
      vertex 13.5612 27.9234 -10
    endloop
  endfacet
  facet normal 0.913961 0.399637 0.0704668
    outer loop
      vertex 15.0798 24.4506 -10
      vertex 13.5612 24.9591 6.81125
      vertex 20.2807 9.02955 10
    endloop
  endfacet
  facet normal -0.406736 -0.913546 0
    outer loop
      vertex -11.1 -19.2258 -10
      vertex -6.86018 -21.1135 10
      vertex -11.1 -19.2258 10
    endloop
  endfacet
  facet normal -0.406736 -0.913546 -0
    outer loop
      vertex -6.86018 -21.1135 10
      vertex -11.1 -19.2258 -10
      vertex -6.86018 -21.1135 -10
    endloop
  endfacet
  facet normal 0.130898 0.294 0.9468
    outer loop
      vertex 9.18526 28.3958 7.41724
      vertex 10.2 22.5995 9.07681
      vertex 11.1 19.2258 10
    endloop
  endfacet
  facet normal 0.130898 0.294 0.9468
    outer loop
      vertex 9.18526 28.3958 7.41724
      vertex 9.81107 24.0124 8.69185
      vertex 10.2 22.5995 9.07681
    endloop
  endfacet
  facet normal 0.130897 0.294 0.9468
    outer loop
      vertex 9.18526 28.3958 7.41724
      vertex 9.20167 24.5639 8.60484
      vertex 9.81107 24.0124 8.69185
    endloop
  endfacet
  facet normal 0.130896 0.294 0.9468
    outer loop
      vertex 9.18526 28.3958 7.41724
      vertex 8.76777 24.9566 8.54289
      vertex 9.20167 24.5639 8.60484
    endloop
  endfacet
  facet normal 0.130898 0.294 0.9468
    outer loop
      vertex 8.76777 24.9566 8.54289
      vertex 9.18526 28.3958 7.41724
      vertex 8.11407 25.0407 8.60714
    endloop
  endfacet
  facet normal 0.130897 0.294 0.9468
    outer loop
      vertex 9.81107 21.1666 9.57554
      vertex 11.1 19.2258 10
      vertex 10.2 22.5995 9.07681
    endloop
  endfacet
  facet normal 0.130898 0.294001 0.946799
    outer loop
      vertex 9.18163 20.5644 9.84954
      vertex 11.1 19.2258 10
      vertex 9.81107 21.1666 9.57554
    endloop
  endfacet
  facet normal 0.130897 0.293999 0.9468
    outer loop
      vertex 11.1 19.2258 10
      vertex 9.18163 20.5644 9.84954
      vertex 8.83598 20.2338 10
    endloop
  endfacet
  facet normal 0 0.36693 0.930248
    outer loop
      vertex 7.75 28.5551 7.44532
      vertex -2.32053 22.0784 10
      vertex 2.32053 22.0784 10
    endloop
  endfacet
  facet normal 0 0.36693 0.930248
    outer loop
      vertex -2.32053 22.0784 10
      vertex 7.75 28.5551 7.44532
      vertex -7.75 28.5551 7.44532
    endloop
  endfacet
  facet normal -0.297132 0.321656 0.899027
    outer loop
      vertex -11.7715 27.1692 7.20096
      vertex -14.8547 16.4978 10
      vertex -10.5485 27.926 7.3344
    endloop
  endfacet
  facet normal 0 0 1
    outer loop
      vertex 18.2 0 10
      vertex 22.2 0 10
      vertex 21.7149 4.61564 10
    endloop
  endfacet
  facet normal 0 0 1
    outer loop
      vertex 17.8023 3.78399 10
      vertex 21.7149 4.61564 10
      vertex 20.2807 9.02955 10
    endloop
  endfacet
  facet normal 0 0 1
    outer loop
      vertex 22.2 0 10
      vertex 18.2 0 10
      vertex 21.7149 -4.61564 10
    endloop
  endfacet
  facet normal -0 0 1
    outer loop
      vertex 17.8023 -3.78399 10
      vertex 21.7149 -4.61564 10
      vertex 18.2 0 10
    endloop
  endfacet
  facet normal 0 0 1
    outer loop
      vertex 16.6265 7.40261 10
      vertex 20.2807 9.02955 10
      vertex 17.9602 13.0488 10
    endloop
  endfacet
  facet normal 0 0 1
    outer loop
      vertex 21.7149 4.61564 10
      vertex 17.8023 3.78399 10
      vertex 18.2 0 10
    endloop
  endfacet
  facet normal 0 0 1
    outer loop
      vertex 20.2807 9.02955 10
      vertex 16.6265 7.40261 10
      vertex 17.8023 3.78399 10
    endloop
  endfacet
  facet normal 0 0 1
    outer loop
      vertex 14.7241 10.6977 10
      vertex 17.9602 13.0488 10
      vertex 14.8547 16.4978 10
    endloop
  endfacet
  facet normal 0 0 1
    outer loop
      vertex 17.9602 13.0488 10
      vertex 14.7241 10.6977 10
      vertex 16.6265 7.40261 10
    endloop
  endfacet
  facet normal 0 0 1
    outer loop
      vertex 14.8547 16.4978 10
      vertex 12.1782 13.5252 10
      vertex 14.7241 10.6977 10
    endloop
  endfacet
  facet normal 0 0 1
    outer loop
      vertex 11.1 19.2258 10
      vertex 12.1782 13.5252 10
      vertex 14.8547 16.4978 10
    endloop
  endfacet
  facet normal 0 0 1
    outer loop
      vertex 11.1 19.2258 10
      vertex 9.1 15.7617 10
      vertex 12.1782 13.5252 10
    endloop
  endfacet
  facet normal -0 0 1
    outer loop
      vertex 8.76777 20.1738 10
      vertex 11.1 19.2258 10
      vertex 8.83598 20.2338 10
    endloop
  endfacet
  facet normal 0 0 1
    outer loop
      vertex 11.1 19.2258 10
      vertex 8.76777 20.1738 10
      vertex 9.1 15.7617 10
    endloop
  endfacet
  facet normal -0 0 1
    outer loop
      vertex 8.22886 20.0951 10
      vertex 9.1 15.7617 10
      vertex 8.76777 20.1738 10
    endloop
  endfacet
  facet normal -0 0 1
    outer loop
      vertex 7.40133 19.9743 10
      vertex 9.1 15.7617 10
      vertex 8.22886 20.0951 10
    endloop
  endfacet
  facet normal 0 0 1
    outer loop
      vertex 5.62411 17.3092 10
      vertex 7.40133 19.9743 10
      vertex 6.64135 20.3267 10
    endloop
  endfacet
  facet normal 0 0 1
    outer loop
      vertex 5.62411 17.3092 10
      vertex 6.64135 20.3267 10
      vertex 6.14559 20.5566 10
    endloop
  endfacet
  facet normal 0 0 1
    outer loop
      vertex 1.90242 18.1003 10
      vertex 6.14559 20.5566 10
      vertex 5.62729 21.3755 10
    endloop
  endfacet
  facet normal 0 0 1
    outer loop
      vertex 7.40133 19.9743 10
      vertex 5.62411 17.3092 10
      vertex 9.1 15.7617 10
    endloop
  endfacet
  facet normal 0 0 1
    outer loop
      vertex 1.90242 18.1003 10
      vertex 5.62729 21.3755 10
      vertex 2.32053 22.0784 10
    endloop
  endfacet
  facet normal 0 0 1
    outer loop
      vertex 6.14559 20.5566 10
      vertex 1.90242 18.1003 10
      vertex 5.62411 17.3092 10
    endloop
  endfacet
  facet normal 0 0 1
    outer loop
      vertex 2.32053 22.0784 10
      vertex -1.90242 18.1003 10
      vertex 1.90242 18.1003 10
    endloop
  endfacet
  facet normal -0 0 1
    outer loop
      vertex -2.32053 22.0784 10
      vertex -1.90242 18.1003 10
      vertex 2.32053 22.0784 10
    endloop
  endfacet
  facet normal 0 0 1
    outer loop
      vertex -5.68893 21.0917 10
      vertex -2.32053 22.0784 10
      vertex -5.60553 21.3801 10
    endloop
  endfacet
  facet normal 0 0 1
    outer loop
      vertex -2.32053 22.0784 10
      vertex -5.68893 21.0917 10
      vertex -1.90242 18.1003 10
    endloop
  endfacet
  facet normal 0 0 1
    outer loop
      vertex -1.90242 18.1003 10
      vertex -5.68893 21.0917 10
      vertex -5.62411 17.3092 10
    endloop
  endfacet
  facet normal -0 0 1
    outer loop
      vertex -6.31996 20.5365 10
      vertex -5.62411 17.3092 10
      vertex -5.68893 21.0917 10
    endloop
  endfacet
  facet normal -0 0 1
    outer loop
      vertex -6.73223 20.1738 10
      vertex -5.62411 17.3092 10
      vertex -6.31996 20.5365 10
    endloop
  endfacet
  facet normal -0 0 1
    outer loop
      vertex -7.27114 20.0951 10
      vertex -5.62411 17.3092 10
      vertex -6.73223 20.1738 10
    endloop
  endfacet
  facet normal -0 0 1
    outer loop
      vertex -8.09867 19.9743 10
      vertex -5.62411 17.3092 10
      vertex -7.27114 20.0951 10
    endloop
  endfacet
  facet normal 0 0 1
    outer loop
      vertex -11.1 19.2258 10
      vertex -8.09867 19.9743 10
      vertex -8.74533 20.2741 10
    endloop
  endfacet
  facet normal 0 0 1
    outer loop
      vertex -8.09867 19.9743 10
      vertex -9.1 15.7617 10
      vertex -5.62411 17.3092 10
    endloop
  endfacet
  facet normal 0 0 1
    outer loop
      vertex -8.09867 19.9743 10
      vertex -11.1 19.2258 10
      vertex -9.1 15.7617 10
    endloop
  endfacet
  facet normal 0 0 1
    outer loop
      vertex -11.1 19.2258 10
      vertex -12.1782 13.5252 10
      vertex -9.1 15.7617 10
    endloop
  endfacet
  facet normal -0 0 1
    outer loop
      vertex -14.8547 16.4978 10
      vertex -12.1782 13.5252 10
      vertex -11.1 19.2258 10
    endloop
  endfacet
  facet normal 0 0 1
    outer loop
      vertex -12.1782 13.5252 10
      vertex -14.8547 16.4978 10
      vertex -14.7241 10.6977 10
    endloop
  endfacet
  facet normal -0 0 1
    outer loop
      vertex -17.9602 13.0488 10
      vertex -14.7241 10.6977 10
      vertex -14.8547 16.4978 10
    endloop
  endfacet
  facet normal 0 0 1
    outer loop
      vertex -14.7241 10.6977 10
      vertex -17.9602 13.0488 10
      vertex -16.6265 7.40261 10
    endloop
  endfacet
  facet normal -0 0 1
    outer loop
      vertex -20.2807 9.02955 10
      vertex -16.6265 7.40261 10
      vertex -17.9602 13.0488 10
    endloop
  endfacet
  facet normal 0 0 1
    outer loop
      vertex -16.6265 7.40261 10
      vertex -20.2807 9.02955 10
      vertex -17.8023 3.78399 10
    endloop
  endfacet
  facet normal -0 0 1
    outer loop
      vertex -21.7149 4.61564 10
      vertex -17.8023 3.78399 10
      vertex -20.2807 9.02955 10
    endloop
  endfacet
  facet normal 0 0 1
    outer loop
      vertex 21.7149 -4.61564 10
      vertex 17.8023 -3.78399 10
      vertex 20.2807 -9.02955 10
    endloop
  endfacet
  facet normal -0 0 1
    outer loop
      vertex 16.6265 -7.40261 10
      vertex 20.2807 -9.02955 10
      vertex 17.8023 -3.78399 10
    endloop
  endfacet
  facet normal 0 0 1
    outer loop
      vertex 20.2807 -9.02955 10
      vertex 16.6265 -7.40261 10
      vertex 17.9602 -13.0488 10
    endloop
  endfacet
  facet normal -0 0 1
    outer loop
      vertex 14.7241 -10.6977 10
      vertex 17.9602 -13.0488 10
      vertex 16.6265 -7.40261 10
    endloop
  endfacet
  facet normal 0 0 1
    outer loop
      vertex 17.9602 -13.0488 10
      vertex 14.7241 -10.6977 10
      vertex 14.8547 -16.4978 10
    endloop
  endfacet
  facet normal -0 0 1
    outer loop
      vertex 12.1782 -13.5252 10
      vertex 14.8547 -16.4978 10
      vertex 14.7241 -10.6977 10
    endloop
  endfacet
  facet normal 0 0 1
    outer loop
      vertex 12.1782 -13.5252 10
      vertex 11.1 -19.2258 10
      vertex 14.8547 -16.4978 10
    endloop
  endfacet
  facet normal -0 0 1
    outer loop
      vertex 9.1 -15.7617 10
      vertex 11.1 -19.2258 10
      vertex 12.1782 -13.5252 10
    endloop
  endfacet
  facet normal 0 0 1
    outer loop
      vertex 9.1 -15.7617 10
      vertex 6.86018 -21.1135 10
      vertex 11.1 -19.2258 10
    endloop
  endfacet
  facet normal -0 0 1
    outer loop
      vertex 5.62411 -17.3092 10
      vertex 6.86018 -21.1135 10
      vertex 9.1 -15.7617 10
    endloop
  endfacet
  facet normal 0 0 1
    outer loop
      vertex 5.62411 -17.3092 10
      vertex 2.32053 -22.0784 10
      vertex 6.86018 -21.1135 10
    endloop
  endfacet
  facet normal -0 0 1
    outer loop
      vertex 1.90242 -18.1003 10
      vertex 2.32053 -22.0784 10
      vertex 5.62411 -17.3092 10
    endloop
  endfacet
  facet normal -0 0 1
    outer loop
      vertex -1.90242 -18.1003 10
      vertex 2.32053 -22.0784 10
      vertex 1.90242 -18.1003 10
    endloop
  endfacet
  facet normal 0 0 1
    outer loop
      vertex -1.90242 -18.1003 10
      vertex -2.32053 -22.0784 10
      vertex 2.32053 -22.0784 10
    endloop
  endfacet
  facet normal 0 0 1
    outer loop
      vertex -5.62411 -17.3092 10
      vertex -2.32053 -22.0784 10
      vertex -1.90242 -18.1003 10
    endloop
  endfacet
  facet normal 0 0 1
    outer loop
      vertex -5.62411 -17.3092 10
      vertex -6.86018 -21.1135 10
      vertex -2.32053 -22.0784 10
    endloop
  endfacet
  facet normal 0 0 1
    outer loop
      vertex -9.1 -15.7617 10
      vertex -6.86018 -21.1135 10
      vertex -5.62411 -17.3092 10
    endloop
  endfacet
  facet normal 0 0 1
    outer loop
      vertex -9.1 -15.7617 10
      vertex -11.1 -19.2258 10
      vertex -6.86018 -21.1135 10
    endloop
  endfacet
  facet normal 0 0 1
    outer loop
      vertex -12.1782 -13.5252 10
      vertex -11.1 -19.2258 10
      vertex -9.1 -15.7617 10
    endloop
  endfacet
  facet normal 0 0 1
    outer loop
      vertex -14.8547 -16.4978 10
      vertex -12.1782 -13.5252 10
      vertex -14.7241 -10.6977 10
    endloop
  endfacet
  facet normal 0 0 1
    outer loop
      vertex -12.1782 -13.5252 10
      vertex -14.8547 -16.4978 10
      vertex -11.1 -19.2258 10
    endloop
  endfacet
  facet normal 0 0 1
    outer loop
      vertex -17.9602 -13.0488 10
      vertex -14.7241 -10.6977 10
      vertex -16.6265 -7.40261 10
    endloop
  endfacet
  facet normal 0 0 1
    outer loop
      vertex -20.2807 -9.02955 10
      vertex -16.6265 -7.40261 10
      vertex -17.8023 -3.78399 10
    endloop
  endfacet
  facet normal 0 0 1
    outer loop
      vertex -14.7241 -10.6977 10
      vertex -17.9602 -13.0488 10
      vertex -14.8547 -16.4978 10
    endloop
  endfacet
  facet normal 0 0 1
    outer loop
      vertex -21.7149 -4.61564 10
      vertex -17.8023 -3.78399 10
      vertex -18.2 0 10
    endloop
  endfacet
  facet normal 0 0 1
    outer loop
      vertex -17.8023 3.78399 10
      vertex -21.7149 4.61564 10
      vertex -18.2 0 10
    endloop
  endfacet
  facet normal 0 0 1
    outer loop
      vertex -16.6265 -7.40261 10
      vertex -20.2807 -9.02955 10
      vertex -17.9602 -13.0488 10
    endloop
  endfacet
  facet normal 0 0 1
    outer loop
      vertex -22.2 0 10
      vertex -18.2 0 10
      vertex -21.7149 4.61564 10
    endloop
  endfacet
  facet normal 0 0 1
    outer loop
      vertex -17.8023 -3.78399 10
      vertex -21.7149 -4.61564 10
      vertex -20.2807 -9.02955 10
    endloop
  endfacet
  facet normal 0 0 1
    outer loop
      vertex -18.2 0 10
      vertex -22.2 0 10
      vertex -21.7149 -4.61564 10
    endloop
  endfacet
  facet normal -0.0668463 0.314488 0.946905
    outer loop
      vertex -2.32053 22.0784 10
      vertex -5.68893 23.9322 9.14651
      vertex -5.3 22.4984 9.65016
    endloop
  endfacet
  facet normal -0.0668483 0.314485 0.946906
    outer loop
      vertex -2.32053 22.0784 10
      vertex -6.30156 24.5129 8.91041
      vertex -5.68893 23.9322 9.14651
    endloop
  endfacet
  facet normal -0.0668464 0.314487 0.946905
    outer loop
      vertex -2.32053 22.0784 10
      vertex -6.73223 24.9211 8.74443
      vertex -6.30156 24.5129 8.91041
    endloop
  endfacet
  facet normal -0.0668529 0.314485 0.946905
    outer loop
      vertex -8.09867 25.1511 8.57159
      vertex -9.18526 28.3958 7.41724
      vertex -8.14257 25.13 8.57548
    endloop
  endfacet
  facet normal -0.0668468 0.314487 0.946905
    outer loop
      vertex -6.73223 24.9211 8.74443
      vertex -9.18526 28.3958 7.41724
      vertex -8.09867 25.1511 8.57159
    endloop
  endfacet
  facet normal -0.0668461 0.314488 0.946905
    outer loop
      vertex -9.18526 28.3958 7.41724
      vertex -6.73223 24.9211 8.74443
      vertex -2.32053 22.0784 10
    endloop
  endfacet
  facet normal -0.0668464 0.314487 0.946905
    outer loop
      vertex -2.32053 22.0784 10
      vertex -5.3 22.4984 9.65016
      vertex -5.60553 21.3801 10
    endloop
  endfacet
  facet normal 0.504594 0.375279 0.777529
    outer loop
      vertex 12.7928 26.1635 7.02362
      vertex 11.7715 27.1692 7.20096
      vertex 17.9602 13.0488 10
    endloop
  endfacet
  facet normal 0.951057 -0.309017 0
    outer loop
      vertex 20.2807 -9.02955 10
      vertex 21.7149 -4.61564 -10
      vertex 21.7149 -4.61564 10
    endloop
  endfacet
  facet normal 0.951057 -0.309017 0
    outer loop
      vertex 21.7149 -4.61564 -10
      vertex 20.2807 -9.02955 10
      vertex 20.2807 -9.02955 -10
    endloop
  endfacet
  facet normal 0.743145 -0.669131 0
    outer loop
      vertex 14.8547 -16.4978 10
      vertex 17.9602 -13.0488 -10
      vertex 17.9602 -13.0488 10
    endloop
  endfacet
  facet normal 0.743145 -0.669131 0
    outer loop
      vertex 17.9602 -13.0488 -10
      vertex 14.8547 -16.4978 10
      vertex 14.8547 -16.4978 -10
    endloop
  endfacet
  facet normal 0.406736 -0.913546 0
    outer loop
      vertex 6.86018 -21.1135 -10
      vertex 11.1 -19.2258 10
      vertex 6.86018 -21.1135 10
    endloop
  endfacet
  facet normal 0.406736 -0.913546 0
    outer loop
      vertex 11.1 -19.2258 10
      vertex 6.86018 -21.1135 -10
      vertex 11.1 -19.2258 -10
    endloop
  endfacet
  facet normal -0.786184 0.422006 0.451471
    outer loop
      vertex -13.5612 24.9591 6.81125
      vertex -20.2807 9.02955 10
      vertex -12.7928 26.1635 7.02362
    endloop
  endfacet
  facet normal -0.866025 -0.5 0
    outer loop
      vertex -17.9602 -13.0488 -10
      vertex -20.2807 -9.02955 10
      vertex -20.2807 -9.02955 -10
    endloop
  endfacet
  facet normal -0.866025 -0.5 0
    outer loop
      vertex -20.2807 -9.02955 10
      vertex -17.9602 -13.0488 -10
      vertex -17.9602 -13.0488 10
    endloop
  endfacet
  facet normal -0.951057 -0.309017 0
    outer loop
      vertex -20.2807 -9.02955 -10
      vertex -21.7149 -4.61564 10
      vertex -21.7149 -4.61564 -10
    endloop
  endfacet
  facet normal -0.951057 -0.309017 0
    outer loop
      vertex -21.7149 -4.61564 10
      vertex -20.2807 -9.02955 -10
      vertex -20.2807 -9.02955 10
    endloop
  endfacet
  facet normal 0 0.984808 0.173648
    outer loop
      vertex 7.75 28.5551 7.44532
      vertex 0 29.5633 1.7272
      vertex -7.75 28.5551 7.44532
    endloop
  endfacet
  facet normal 1.17527e-07 0.984808 0.173648
    outer loop
      vertex 7.75 28.5551 7.44532
      vertex 1.22131 29.6525 1.22131
      vertex 0 29.5633 1.7272
    endloop
  endfacet
  facet normal -2.49333e-07 0.984808 0.173648
    outer loop
      vertex 7.75 28.5551 7.44532
      vertex 1.7272 29.8679 0
      vertex 1.22131 29.6525 1.22131
    endloop
  endfacet
  facet normal 4.98689e-08 0.984808 0.173648
    outer loop
      vertex 7.75 31.6311 -10
      vertex 1.7272 29.8679 0
      vertex 7.75 28.5551 7.44532
    endloop
  endfacet
  facet normal -1.09016e-07 0.984808 0.173648
    outer loop
      vertex 1.22131 30.0832 -1.22131
      vertex 7.75 31.6311 -10
      vertex 0 30.1724 -1.7272
    endloop
  endfacet
  facet normal 3.69258e-07 0.984808 0.173648
    outer loop
      vertex 1.7272 29.8679 0
      vertex 7.75 31.6311 -10
      vertex 1.22131 30.0832 -1.22131
    endloop
  endfacet
  facet normal -1.17527e-07 0.984808 0.173648
    outer loop
      vertex -1.22131 29.6525 1.22131
      vertex -7.75 28.5551 7.44532
      vertex 0 29.5633 1.7272
    endloop
  endfacet
  facet normal 2.49333e-07 0.984808 0.173648
    outer loop
      vertex -1.7272 29.8679 0
      vertex -7.75 28.5551 7.44532
      vertex -1.22131 29.6525 1.22131
    endloop
  endfacet
  facet normal -3.69258e-07 0.984808 0.173648
    outer loop
      vertex -7.75 31.6311 -10
      vertex -1.7272 29.8679 0
      vertex -1.22131 30.0832 -1.22131
    endloop
  endfacet
  facet normal -0 0.984808 0.173648
    outer loop
      vertex -7.75 31.6311 -10
      vertex 0 30.1724 -1.7272
      vertex 7.75 31.6311 -10
    endloop
  endfacet
  facet normal -4.98689e-08 0.984808 0.173648
    outer loop
      vertex -1.7272 29.8679 0
      vertex -7.75 31.6311 -10
      vertex -7.75 28.5551 7.44532
    endloop
  endfacet
  facet normal 1.09016e-07 0.984808 0.173648
    outer loop
      vertex 0 30.1724 -1.7272
      vertex -7.75 31.6311 -10
      vertex -1.22131 30.0832 -1.22131
    endloop
  endfacet
  facet normal -0.942865 0.332975 0.0115506
    outer loop
      vertex -15.4928 23.2808 -10
      vertex -20.2807 9.02955 10
      vertex -15.0798 24.4506 -10
    endloop
  endfacet
  facet normal -0.21688 0.29851 0.929438
    outer loop
      vertex -10.5485 27.926 7.3344
      vertex -14.8547 16.4978 10
      vertex -11.1 19.2258 10
    endloop
  endfacet
  facet normal -0.3715 0.3345 0.866081
    outer loop
      vertex -11.7715 27.1692 7.20096
      vertex -17.9602 13.0488 10
      vertex -14.8547 16.4978 10
    endloop
  endfacet
  facet normal -0.16001 0.298424 0.940925
    outer loop
      vertex -10.5485 27.926 7.3344
      vertex -11.1 19.2258 10
      vertex -9.18526 28.3958 7.41724
    endloop
  endfacet
  facet normal -0.532033 0.83386 0.147032
    outer loop
      vertex -10.5485 30.9825 -10
      vertex -11.7715 27.1692 7.20096
      vertex -10.5485 27.926 7.3344
    endloop
  endfacet
  facet normal -0.532033 0.83386 0.147032
    outer loop
      vertex -11.7715 27.1692 7.20096
      vertex -10.5485 30.9825 -10
      vertex -10.8373 30.7983 -10
    endloop
  endfacet
  facet normal -0.707107 0.696364 0.122788
    outer loop
      vertex -12.7928 29.1652 -10
      vertex -11.7715 27.1692 7.20096
      vertex -11.7715 30.2022 -10
    endloop
  endfacet
  facet normal -0.707107 0.696364 0.122788
    outer loop
      vertex -11.7715 27.1692 7.20096
      vertex -12.7928 29.1652 -10
      vertex -12.7928 26.1635 7.02362
    endloop
  endfacet
  facet normal -0.743145 -0.669131 0
    outer loop
      vertex -14.8547 -16.4978 -10
      vertex -17.9602 -13.0488 10
      vertex -17.9602 -13.0488 -10
    endloop
  endfacet
  facet normal -0.743145 -0.669131 0
    outer loop
      vertex -17.9602 -13.0488 10
      vertex -14.8547 -16.4978 -10
      vertex -14.8547 -16.4978 10
    endloop
  endfacet
  facet normal -0.207912 -0.978148 0
    outer loop
      vertex -6.86018 -21.1135 -10
      vertex -2.32053 -22.0784 10
      vertex -6.86018 -21.1135 10
    endloop
  endfacet
  facet normal -0.207912 -0.978148 -0
    outer loop
      vertex -2.32053 -22.0784 10
      vertex -6.86018 -21.1135 -10
      vertex -2.32053 -22.0784 -10
    endloop
  endfacet
  facet normal 0.786184 0.422006 0.451471
    outer loop
      vertex 13.5612 24.9591 6.81125
      vertex 12.7928 26.1635 7.02362
      vertex 20.2807 9.02955 10
    endloop
  endfacet
  facet normal 0.709612 0.409695 0.573237
    outer loop
      vertex 20.2807 9.02955 10
      vertex 12.7928 26.1635 7.02362
      vertex 17.9602 13.0488 10
    endloop
  endfacet
  facet normal 0.0546783 0.326381 0.943655
    outer loop
      vertex 7.75 28.5551 7.44532
      vertex 2.32053 22.0784 10
      vertex 9.18526 28.3958 7.41724
    endloop
  endfacet
  facet normal 0.297132 0.321656 0.899027
    outer loop
      vertex 11.7715 27.1692 7.20096
      vertex 10.5485 27.926 7.3344
      vertex 14.8547 16.4978 10
    endloop
  endfacet
  facet normal 0.21688 0.29851 0.929438
    outer loop
      vertex 14.8547 16.4978 10
      vertex 10.5485 27.926 7.3344
      vertex 11.1 19.2258 10
    endloop
  endfacet
  facet normal -0.504594 0.375279 0.777529
    outer loop
      vertex -12.7928 26.1635 7.02362
      vertex -17.9602 13.0488 10
      vertex -11.7715 27.1692 7.20096
    endloop
  endfacet
  facet normal -0.709612 0.409695 0.573237
    outer loop
      vertex -12.7928 26.1635 7.02362
      vertex -20.2807 9.02955 10
      vertex -17.9602 13.0488 10
    endloop
  endfacet
  facet normal 0.707107 0.696364 0.122788
    outer loop
      vertex 11.7715 27.1692 7.20096
      vertex 12.7928 29.1652 -10
      vertex 11.7715 30.2022 -10
    endloop
  endfacet
  facet normal 0.707107 0.696364 0.122788
    outer loop
      vertex 12.7928 29.1652 -10
      vertex 11.7715 27.1692 7.20096
      vertex 12.7928 26.1635 7.02362
    endloop
  endfacet
  facet normal 0.33028 0.929543 0.163904
    outer loop
      vertex 9.18526 31.4669 -10
      vertex 9.18526 28.3958 7.41724
      vertex 10.2297 31.0958 -10
    endloop
  endfacet
  facet normal 0.111964 0.978616 0.172556
    outer loop
      vertex 7.75 31.6311 -10
      vertex 9.18526 28.3958 7.41724
      vertex 9.18526 31.4669 -10
    endloop
  endfacet
  facet normal 0.111964 0.978616 0.172556
    outer loop
      vertex 9.18526 28.3958 7.41724
      vertex 7.75 31.6311 -10
      vertex 7.75 28.5551 7.44532
    endloop
  endfacet
  facet normal -0.532033 0.83386 0.147032
    outer loop
      vertex -11.7715 30.2022 -10
      vertex -11.7715 27.1692 7.20096
      vertex -10.8373 30.7983 -10
    endloop
  endfacet
  facet normal 0.0668465 0.314487 0.946905
    outer loop
      vertex 9.18526 28.3958 7.41724
      vertex 7.40133 25.1418 8.62388
      vertex 8.11407 25.0407 8.60714
    endloop
  endfacet
  facet normal 0.0668453 0.314488 0.946905
    outer loop
      vertex 9.18526 28.3958 7.41724
      vertex 6.88017 24.8782 8.74822
      vertex 7.40133 25.1418 8.62388
    endloop
  endfacet
  facet normal 0.0668472 0.314487 0.946905
    outer loop
      vertex 9.18526 28.3958 7.41724
      vertex 6.14559 24.5067 8.92348
      vertex 6.88017 24.8782 8.74822
    endloop
  endfacet
  facet normal 0.0668462 0.314488 0.946905
    outer loop
      vertex 5.39924 23.2442 9.39546
      vertex 2.32053 22.0784 10
      vertex 5.39924 21.7552 9.88999
    endloop
  endfacet
  facet normal 0.0668464 0.314488 0.946905
    outer loop
      vertex 5.8397 23.9893 9.11692
      vertex 2.32053 22.0784 10
      vertex 5.39924 23.2442 9.39546
    endloop
  endfacet
  facet normal 0.066846 0.314488 0.946905
    outer loop
      vertex 6.14559 24.5067 8.92348
      vertex 2.32053 22.0784 10
      vertex 5.8397 23.9893 9.11692
    endloop
  endfacet
  facet normal 0.0668465 0.314487 0.946905
    outer loop
      vertex 2.32053 22.0784 10
      vertex 6.14559 24.5067 8.92348
      vertex 9.18526 28.3958 7.41724
    endloop
  endfacet
  facet normal 0.066846 0.314486 0.946906
    outer loop
      vertex 5.62729 21.3755 10
      vertex 5.39924 21.7552 9.88999
      vertex 2.32053 22.0784 10
    endloop
  endfacet
  facet normal 0.3715 0.3345 0.866081
    outer loop
      vertex 17.9602 13.0488 10
      vertex 11.7715 27.1692 7.20096
      vertex 14.8547 16.4978 10
    endloop
  endfacet
  facet normal 0.330275 0.929545 0.163904
    outer loop
      vertex 10.2297 31.0958 -10
      vertex 10.5485 27.926 7.3344
      vertex 10.5485 30.9825 -10
    endloop
  endfacet
  facet normal 0.330279 0.929544 0.163904
    outer loop
      vertex 10.5485 27.926 7.3344
      vertex 10.2297 31.0958 -10
      vertex 9.18526 28.3958 7.41724
    endloop
  endfacet
  facet normal 0.532033 0.83386 0.147032
    outer loop
      vertex 10.5485 30.9825 -10
      vertex 11.7715 27.1692 7.20096
      vertex 10.8373 30.7983 -10
    endloop
  endfacet
  facet normal 0.532033 0.83386 0.147032
    outer loop
      vertex 11.7715 27.1692 7.20096
      vertex 10.5485 30.9825 -10
      vertex 10.5485 27.926 7.3344
    endloop
  endfacet
  facet normal -0.330279 0.929544 0.163904
    outer loop
      vertex -10.2297 31.0958 -10
      vertex -10.5485 27.926 7.3344
      vertex -9.18526 28.3958 7.41724
    endloop
  endfacet
  facet normal -0.330275 0.929545 0.163904
    outer loop
      vertex -10.5485 27.926 7.3344
      vertex -10.2297 31.0958 -10
      vertex -10.5485 30.9825 -10
    endloop
  endfacet
  facet normal -0.33028 0.929543 0.163904
    outer loop
      vertex -9.18526 31.4669 -10
      vertex -10.2297 31.0958 -10
      vertex -9.18526 28.3958 7.41724
    endloop
  endfacet
  facet normal 0.846724 0.523949 0.0923864
    outer loop
      vertex 12.7928 26.1635 7.02362
      vertex 13.5612 27.9234 -10
      vertex 12.7928 29.1652 -10
    endloop
  endfacet
  facet normal 0.846724 0.523949 0.0923864
    outer loop
      vertex 13.5612 27.9234 -10
      vertex 12.7928 26.1635 7.02362
      vertex 13.5612 24.9591 6.81125
    endloop
  endfacet
  facet normal 0.942865 0.332975 0.0115506
    outer loop
      vertex 15.4928 23.2808 -10
      vertex 15.0798 24.4506 -10
      vertex 20.2807 9.02955 10
    endloop
  endfacet
  facet normal 0.947934 0.318468 -0
    outer loop
      vertex 20.2807 9.02955 -10
      vertex 15.4928 23.2808 -10
      vertex 20.2807 9.02955 10
    endloop
  endfacet
  facet normal 0.532033 0.83386 0.147032
    outer loop
      vertex 11.7715 30.2022 -10
      vertex 10.8373 30.7983 -10
      vertex 11.7715 27.1692 7.20096
    endloop
  endfacet
  facet normal -0.923879 0 -0.382684
    outer loop
      vertex 1.7272 18.1003 0
      vertex 1.22131 29.6525 1.22131
      vertex 1.7272 29.8679 0
    endloop
  endfacet
  facet normal -0.923879 -0 -0.382684
    outer loop
      vertex 1.22131 29.6525 1.22131
      vertex 1.7272 18.1003 0
      vertex 1.22131 18.1003 1.22131
    endloop
  endfacet
  facet normal -0.382684 -0 -0.923879
    outer loop
      vertex 0 29.5633 1.7272
      vertex 1.22131 18.1003 1.22131
      vertex 0 18.1003 1.7272
    endloop
  endfacet
  facet normal -0.382684 0 -0.923879
    outer loop
      vertex 1.22131 18.1003 1.22131
      vertex 0 29.5633 1.7272
      vertex 1.22131 29.6525 1.22131
    endloop
  endfacet
  facet normal 0.923879 0 -0.382684
    outer loop
      vertex -1.7272 18.1003 0
      vertex -1.22131 29.6525 1.22131
      vertex -1.22131 18.1003 1.22131
    endloop
  endfacet
  facet normal 0.923879 0 -0.382684
    outer loop
      vertex -1.22131 29.6525 1.22131
      vertex -1.7272 18.1003 0
      vertex -1.7272 29.8679 0
    endloop
  endfacet
  facet normal 0.923879 0 0.382684
    outer loop
      vertex -1.22131 18.1003 -1.22131
      vertex -1.7272 29.8679 0
      vertex -1.7272 18.1003 0
    endloop
  endfacet
  facet normal 0.923879 0 0.382684
    outer loop
      vertex -1.7272 29.8679 0
      vertex -1.22131 18.1003 -1.22131
      vertex -1.22131 30.0832 -1.22131
    endloop
  endfacet
  facet normal 0.382684 0 -0.923879
    outer loop
      vertex -1.22131 18.1003 1.22131
      vertex 0 29.5633 1.7272
      vertex 0 18.1003 1.7272
    endloop
  endfacet
  facet normal 0.382684 0 -0.923879
    outer loop
      vertex 0 29.5633 1.7272
      vertex -1.22131 18.1003 1.22131
      vertex -1.22131 29.6525 1.22131
    endloop
  endfacet
  facet normal 0.382684 0 0.923879
    outer loop
      vertex -1.22131 30.0832 -1.22131
      vertex 0 18.1003 -1.7272
      vertex 0 30.1724 -1.7272
    endloop
  endfacet
  facet normal 0.382684 0 0.923879
    outer loop
      vertex 0 18.1003 -1.7272
      vertex -1.22131 30.0832 -1.22131
      vertex -1.22131 18.1003 -1.22131
    endloop
  endfacet
  facet normal -0.382684 0 0.923879
    outer loop
      vertex 0 18.1003 -1.7272
      vertex 1.22131 30.0832 -1.22131
      vertex 0 30.1724 -1.7272
    endloop
  endfacet
  facet normal -0.382684 0 0.923879
    outer loop
      vertex 1.22131 30.0832 -1.22131
      vertex 0 18.1003 -1.7272
      vertex 1.22131 18.1003 -1.22131
    endloop
  endfacet
  facet normal -0.923879 0 0.382684
    outer loop
      vertex 1.22131 18.1003 -1.22131
      vertex 1.7272 29.8679 0
      vertex 1.22131 30.0832 -1.22131
    endloop
  endfacet
  facet normal -0.923879 0 0.382684
    outer loop
      vertex 1.7272 29.8679 0
      vertex 1.22131 18.1003 -1.22131
      vertex 1.7272 18.1003 0
    endloop
  endfacet
  facet normal -0.994522 -0.104529 0
    outer loop
      vertex 18.2 0 -10
      vertex 17.8023 3.78399 10
      vertex 17.8023 3.78399 -10
    endloop
  endfacet
  facet normal -0.994522 -0.104529 0
    outer loop
      vertex 17.8023 3.78399 10
      vertex 18.2 0 -10
      vertex 18.2 0 10
    endloop
  endfacet
  facet normal 0.994522 -0.104529 0
    outer loop
      vertex -18.2 0 10
      vertex -17.8023 3.78399 -10
      vertex -17.8023 3.78399 10
    endloop
  endfacet
  facet normal 0.994522 -0.104529 0
    outer loop
      vertex -17.8023 3.78399 -10
      vertex -18.2 0 10
      vertex -18.2 0 -10
    endloop
  endfacet
  facet normal 0 -1 0
    outer loop
      vertex -1.90242 18.1003 10
      vertex 0 18.1003 1.7272
      vertex 1.90242 18.1003 10
    endloop
  endfacet
  facet normal 0 -1 0
    outer loop
      vertex -1.90242 18.1003 10
      vertex -1.22131 18.1003 1.22131
      vertex 0 18.1003 1.7272
    endloop
  endfacet
  facet normal 0 -1 0
    outer loop
      vertex -1.90242 18.1003 10
      vertex -1.7272 18.1003 0
      vertex -1.22131 18.1003 1.22131
    endloop
  endfacet
  facet normal 0 -1 -0
    outer loop
      vertex -1.22131 18.1003 -1.22131
      vertex -1.90242 18.1003 -10
      vertex 0 18.1003 -1.7272
    endloop
  endfacet
  facet normal 0 -1 -0
    outer loop
      vertex -1.7272 18.1003 0
      vertex -1.90242 18.1003 -10
      vertex -1.22131 18.1003 -1.22131
    endloop
  endfacet
  facet normal 0 -1 0
    outer loop
      vertex -1.90242 18.1003 -10
      vertex -1.7272 18.1003 0
      vertex -1.90242 18.1003 10
    endloop
  endfacet
  facet normal 0 -1 0
    outer loop
      vertex 1.22131 18.1003 1.22131
      vertex 1.90242 18.1003 10
      vertex 0 18.1003 1.7272
    endloop
  endfacet
  facet normal 0 -1 0
    outer loop
      vertex 1.7272 18.1003 0
      vertex 1.90242 18.1003 10
      vertex 1.22131 18.1003 1.22131
    endloop
  endfacet
  facet normal 0 -1 0
    outer loop
      vertex 1.90242 18.1003 -10
      vertex 0 18.1003 -1.7272
      vertex -1.90242 18.1003 -10
    endloop
  endfacet
  facet normal 0 -1 0
    outer loop
      vertex 0 18.1003 -1.7272
      vertex 1.90242 18.1003 -10
      vertex 1.22131 18.1003 -1.22131
    endloop
  endfacet
  facet normal 0 -1 0
    outer loop
      vertex 1.7272 18.1003 0
      vertex 1.90242 18.1003 -10
      vertex 1.90242 18.1003 10
    endloop
  endfacet
  facet normal 0 -1 0
    outer loop
      vertex 1.22131 18.1003 -1.22131
      vertex 1.90242 18.1003 -10
      vertex 1.7272 18.1003 0
    endloop
  endfacet
  facet normal 0 1 -0
    outer loop
      vertex 1.90242 -18.1003 -10
      vertex -1.90242 -18.1003 10
      vertex 1.90242 -18.1003 10
    endloop
  endfacet
  facet normal 0 1 0
    outer loop
      vertex -1.90242 -18.1003 10
      vertex 1.90242 -18.1003 -10
      vertex -1.90242 -18.1003 -10
    endloop
  endfacet
  facet normal -0.743145 -0.669131 0
    outer loop
      vertex 14.7241 10.6977 -10
      vertex 12.1782 13.5252 10
      vertex 12.1782 13.5252 -10
    endloop
  endfacet
  facet normal -0.743145 -0.669131 0
    outer loop
      vertex 12.1782 13.5252 10
      vertex 14.7241 10.6977 -10
      vertex 14.7241 10.6977 10
    endloop
  endfacet
  facet normal 0.587785 -0.809017 0
    outer loop
      vertex -12.1782 13.5252 -10
      vertex -9.1 15.7617 10
      vertex -12.1782 13.5252 10
    endloop
  endfacet
  facet normal 0.587785 -0.809017 0
    outer loop
      vertex -9.1 15.7617 10
      vertex -12.1782 13.5252 -10
      vertex -9.1 15.7617 -10
    endloop
  endfacet
  facet normal 0.207912 -0.978148 0
    outer loop
      vertex -5.62411 17.3092 -10
      vertex -1.90242 18.1003 10
      vertex -5.62411 17.3092 10
    endloop
  endfacet
  facet normal 0.207912 -0.978148 0
    outer loop
      vertex -1.90242 18.1003 10
      vertex -5.62411 17.3092 -10
      vertex -1.90242 18.1003 -10
    endloop
  endfacet
  facet normal -0.866026 -0.5 0
    outer loop
      vertex 16.6265 7.40261 -10
      vertex 14.7241 10.6977 10
      vertex 14.7241 10.6977 -10
    endloop
  endfacet
  facet normal -0.866026 -0.5 0
    outer loop
      vertex 14.7241 10.6977 10
      vertex 16.6265 7.40261 -10
      vertex 16.6265 7.40261 10
    endloop
  endfacet
  facet normal -0.951056 -0.309017 0
    outer loop
      vertex 17.8023 3.78399 -10
      vertex 16.6265 7.40261 10
      vertex 16.6265 7.40261 -10
    endloop
  endfacet
  facet normal -0.951056 -0.309017 0
    outer loop
      vertex 16.6265 7.40261 10
      vertex 17.8023 3.78399 -10
      vertex 17.8023 3.78399 10
    endloop
  endfacet
  facet normal -0.406737 -0.913546 0
    outer loop
      vertex 5.62411 17.3092 -10
      vertex 9.1 15.7617 10
      vertex 5.62411 17.3092 10
    endloop
  endfacet
  facet normal -0.406737 -0.913546 -0
    outer loop
      vertex 9.1 15.7617 10
      vertex 5.62411 17.3092 -10
      vertex 9.1 15.7617 -10
    endloop
  endfacet
  facet normal -0.207912 -0.978148 0
    outer loop
      vertex 1.90242 18.1003 -10
      vertex 5.62411 17.3092 10
      vertex 1.90242 18.1003 10
    endloop
  endfacet
  facet normal -0.207912 -0.978148 -0
    outer loop
      vertex 5.62411 17.3092 10
      vertex 1.90242 18.1003 -10
      vertex 5.62411 17.3092 -10
    endloop
  endfacet
  facet normal -0.587785 -0.809017 0
    outer loop
      vertex 9.1 15.7617 -10
      vertex 12.1782 13.5252 10
      vertex 9.1 15.7617 10
    endloop
  endfacet
  facet normal -0.587785 -0.809017 -0
    outer loop
      vertex 12.1782 13.5252 10
      vertex 9.1 15.7617 -10
      vertex 12.1782 13.5252 -10
    endloop
  endfacet
  facet normal 0.866026 -0.5 0
    outer loop
      vertex -16.6265 7.40261 10
      vertex -14.7241 10.6977 -10
      vertex -14.7241 10.6977 10
    endloop
  endfacet
  facet normal 0.866026 -0.5 0
    outer loop
      vertex -14.7241 10.6977 -10
      vertex -16.6265 7.40261 10
      vertex -16.6265 7.40261 -10
    endloop
  endfacet
  facet normal 0.743145 -0.669131 0
    outer loop
      vertex -14.7241 10.6977 10
      vertex -12.1782 13.5252 -10
      vertex -12.1782 13.5252 10
    endloop
  endfacet
  facet normal 0.743145 -0.669131 0
    outer loop
      vertex -12.1782 13.5252 -10
      vertex -14.7241 10.6977 10
      vertex -14.7241 10.6977 -10
    endloop
  endfacet
  facet normal 0.951056 -0.309017 0
    outer loop
      vertex -17.8023 3.78399 10
      vertex -16.6265 7.40261 -10
      vertex -16.6265 7.40261 10
    endloop
  endfacet
  facet normal 0.951056 -0.309017 0
    outer loop
      vertex -16.6265 7.40261 -10
      vertex -17.8023 3.78399 10
      vertex -17.8023 3.78399 -10
    endloop
  endfacet
  facet normal 0.406737 -0.913546 0
    outer loop
      vertex -9.1 15.7617 -10
      vertex -5.62411 17.3092 10
      vertex -9.1 15.7617 10
    endloop
  endfacet
  facet normal 0.406737 -0.913546 0
    outer loop
      vertex -5.62411 17.3092 10
      vertex -9.1 15.7617 -10
      vertex -5.62411 17.3092 -10
    endloop
  endfacet
  facet normal -0.994522 0.104529 0
    outer loop
      vertex 17.8023 -3.78399 -10
      vertex 18.2 0 10
      vertex 18.2 0 -10
    endloop
  endfacet
  facet normal -0.994522 0.104529 0
    outer loop
      vertex 18.2 0 10
      vertex 17.8023 -3.78399 -10
      vertex 17.8023 -3.78399 10
    endloop
  endfacet
  facet normal -0.207912 0.978148 0
    outer loop
      vertex 5.62411 -17.3092 -10
      vertex 1.90242 -18.1003 10
      vertex 5.62411 -17.3092 10
    endloop
  endfacet
  facet normal -0.207912 0.978148 0
    outer loop
      vertex 1.90242 -18.1003 10
      vertex 5.62411 -17.3092 -10
      vertex 1.90242 -18.1003 -10
    endloop
  endfacet
  facet normal -0.866026 0.5 0
    outer loop
      vertex 14.7241 -10.6977 -10
      vertex 16.6265 -7.40261 10
      vertex 16.6265 -7.40261 -10
    endloop
  endfacet
  facet normal -0.866026 0.5 0
    outer loop
      vertex 16.6265 -7.40261 10
      vertex 14.7241 -10.6977 -10
      vertex 14.7241 -10.6977 10
    endloop
  endfacet
  facet normal 0.587785 0.809017 -0
    outer loop
      vertex -9.1 -15.7617 -10
      vertex -12.1782 -13.5252 10
      vertex -9.1 -15.7617 10
    endloop
  endfacet
  facet normal 0.587785 0.809017 0
    outer loop
      vertex -12.1782 -13.5252 10
      vertex -9.1 -15.7617 -10
      vertex -12.1782 -13.5252 -10
    endloop
  endfacet
  facet normal 0.866026 0.5 0
    outer loop
      vertex -14.7241 -10.6977 10
      vertex -16.6265 -7.40261 -10
      vertex -16.6265 -7.40261 10
    endloop
  endfacet
  facet normal 0.866026 0.5 0
    outer loop
      vertex -16.6265 -7.40261 -10
      vertex -14.7241 -10.6977 10
      vertex -14.7241 -10.6977 -10
    endloop
  endfacet
  facet normal 0.743145 0.669131 0
    outer loop
      vertex -12.1782 -13.5252 10
      vertex -14.7241 -10.6977 -10
      vertex -14.7241 -10.6977 10
    endloop
  endfacet
  facet normal 0.743145 0.669131 0
    outer loop
      vertex -14.7241 -10.6977 -10
      vertex -12.1782 -13.5252 10
      vertex -12.1782 -13.5252 -10
    endloop
  endfacet
  facet normal 0.994522 0.104529 0
    outer loop
      vertex -17.8023 -3.78399 10
      vertex -18.2 0 -10
      vertex -18.2 0 10
    endloop
  endfacet
  facet normal 0.994522 0.104529 0
    outer loop
      vertex -18.2 0 -10
      vertex -17.8023 -3.78399 10
      vertex -17.8023 -3.78399 -10
    endloop
  endfacet
  facet normal -0.587785 0.809017 0
    outer loop
      vertex 12.1782 -13.5252 -10
      vertex 9.1 -15.7617 10
      vertex 12.1782 -13.5252 10
    endloop
  endfacet
  facet normal -0.587785 0.809017 0
    outer loop
      vertex 9.1 -15.7617 10
      vertex 12.1782 -13.5252 -10
      vertex 9.1 -15.7617 -10
    endloop
  endfacet
  facet normal -0.406737 0.913546 0
    outer loop
      vertex 9.1 -15.7617 -10
      vertex 5.62411 -17.3092 10
      vertex 9.1 -15.7617 10
    endloop
  endfacet
  facet normal -0.406737 0.913546 0
    outer loop
      vertex 5.62411 -17.3092 10
      vertex 9.1 -15.7617 -10
      vertex 5.62411 -17.3092 -10
    endloop
  endfacet
  facet normal -0.951056 0.309017 0
    outer loop
      vertex 16.6265 -7.40261 -10
      vertex 17.8023 -3.78399 10
      vertex 17.8023 -3.78399 -10
    endloop
  endfacet
  facet normal -0.951056 0.309017 0
    outer loop
      vertex 17.8023 -3.78399 10
      vertex 16.6265 -7.40261 -10
      vertex 16.6265 -7.40261 10
    endloop
  endfacet
  facet normal 0.207912 0.978148 -0
    outer loop
      vertex -1.90242 -18.1003 -10
      vertex -5.62411 -17.3092 10
      vertex -1.90242 -18.1003 10
    endloop
  endfacet
  facet normal 0.207912 0.978148 0
    outer loop
      vertex -5.62411 -17.3092 10
      vertex -1.90242 -18.1003 -10
      vertex -5.62411 -17.3092 -10
    endloop
  endfacet
  facet normal 0.951056 0.309017 0
    outer loop
      vertex -16.6265 -7.40261 10
      vertex -17.8023 -3.78399 -10
      vertex -17.8023 -3.78399 10
    endloop
  endfacet
  facet normal 0.951056 0.309017 0
    outer loop
      vertex -17.8023 -3.78399 -10
      vertex -16.6265 -7.40261 10
      vertex -16.6265 -7.40261 -10
    endloop
  endfacet
  facet normal -0.743145 0.669131 0
    outer loop
      vertex 12.1782 -13.5252 -10
      vertex 14.7241 -10.6977 10
      vertex 14.7241 -10.6977 -10
    endloop
  endfacet
  facet normal -0.743145 0.669131 0
    outer loop
      vertex 14.7241 -10.6977 10
      vertex 12.1782 -13.5252 -10
      vertex 12.1782 -13.5252 10
    endloop
  endfacet
  facet normal 0.406737 0.913546 -0
    outer loop
      vertex -5.62411 -17.3092 -10
      vertex -9.1 -15.7617 10
      vertex -5.62411 -17.3092 10
    endloop
  endfacet
  facet normal 0.406737 0.913546 0
    outer loop
      vertex -9.1 -15.7617 10
      vertex -5.62411 -17.3092 -10
      vertex -9.1 -15.7617 -10
    endloop
  endfacet
  facet normal 0 0 -1
    outer loop
      vertex -6.73223 23.7003 -10
      vertex -1.90242 18.1003 -10
      vertex -5.62411 17.3092 -10
    endloop
  endfacet
  facet normal 0 0 -1
    outer loop
      vertex -1.90242 18.1003 -10
      vertex -5.68893 24.6183 -10
      vertex -5.3 25.9633 -10
    endloop
  endfacet
  facet normal 0 0 -1
    outer loop
      vertex -1.90242 18.1003 -10
      vertex -6.10775 24.2498 -10
      vertex -5.68893 24.6183 -10
    endloop
  endfacet
  facet normal 0 0 -1
    outer loop
      vertex -1.90242 18.1003 -10
      vertex -6.73223 23.7003 -10
      vertex -6.10775 24.2498 -10
    endloop
  endfacet
  facet normal 0 0 -1
    outer loop
      vertex -5.62411 17.3092 -10
      vertex -7.54855 23.5811 -10
      vertex -6.73223 23.7003 -10
    endloop
  endfacet
  facet normal 0 0 -1
    outer loop
      vertex -5.62411 17.3092 -10
      vertex -8.09867 23.5008 -10
      vertex -7.54855 23.5811 -10
    endloop
  endfacet
  facet normal 0 0 -1
    outer loop
      vertex -9.1 15.7617 -10
      vertex -8.09867 23.5008 -10
      vertex -5.62411 17.3092 -10
    endloop
  endfacet
  facet normal -0 0 -1
    outer loop
      vertex -8.09867 23.5008 -10
      vertex -9.1 15.7617 -10
      vertex -8.60389 23.7351 -10
    endloop
  endfacet
  facet normal 0 0 -1
    outer loop
      vertex -9.1 15.7617 -10
      vertex -9.35441 24.0831 -10
      vertex -8.60389 23.7351 -10
    endloop
  endfacet
  facet normal 0 0 -1
    outer loop
      vertex -15.4928 23.2808 -10
      vertex -9.35441 24.0831 -10
      vertex -9.1 15.7617 -10
    endloop
  endfacet
  facet normal 0 0 -1
    outer loop
      vertex -13.5612 27.9234 -10
      vertex -10.1008 26.6642 -10
      vertex -10.1008 25.2624 -10
    endloop
  endfacet
  facet normal 0 0 -1
    outer loop
      vertex -10.1008 26.6642 -10
      vertex -10.8373 30.7983 -10
      vertex -10.2297 31.0958 -10
    endloop
  endfacet
  facet normal 0 0 -1
    outer loop
      vertex -10.2297 31.0958 -10
      vertex -10.8373 30.7983 -10
      vertex -10.5485 30.9825 -10
    endloop
  endfacet
  facet normal 0 -0 -1
    outer loop
      vertex -15.0798 24.4506 -10
      vertex -9.35441 24.0831 -10
      vertex -15.4928 23.2808 -10
    endloop
  endfacet
  facet normal 0 0 -1
    outer loop
      vertex -10.1008 26.6642 -10
      vertex -13.5612 27.9234 -10
      vertex -12.7928 29.1652 -10
    endloop
  endfacet
  facet normal 0 0 -1
    outer loop
      vertex -15.4928 23.2808 -10
      vertex -9.1 15.7617 -10
      vertex -12.1782 13.5252 -10
    endloop
  endfacet
  facet normal 0 0 -1
    outer loop
      vertex -10.1008 26.6642 -10
      vertex -12.7928 29.1652 -10
      vertex -11.7715 30.2022 -10
    endloop
  endfacet
  facet normal 0 0 -1
    outer loop
      vertex -10.1008 26.6642 -10
      vertex -11.7715 30.2022 -10
      vertex -10.8373 30.7983 -10
    endloop
  endfacet
  facet normal 0 0 -1
    outer loop
      vertex -15.4928 23.2808 -10
      vertex -12.1782 13.5252 -10
      vertex -14.7241 10.6977 -10
    endloop
  endfacet
  facet normal -0 0 -1
    outer loop
      vertex -10.1008 25.2624 -10
      vertex -15.0798 24.4506 -10
      vertex -13.5612 27.9234 -10
    endloop
  endfacet
  facet normal 0 0 -1
    outer loop
      vertex -9.35441 24.0831 -10
      vertex -15.0798 24.4506 -10
      vertex -10.1008 25.2624 -10
    endloop
  endfacet
  facet normal 0 0 -1
    outer loop
      vertex -20.2807 9.02955 -10
      vertex -14.7241 10.6977 -10
      vertex -16.6265 7.40261 -10
    endloop
  endfacet
  facet normal 0 0 -1
    outer loop
      vertex -20.2807 9.02955 -10
      vertex -16.6265 7.40261 -10
      vertex -17.8023 3.78399 -10
    endloop
  endfacet
  facet normal -0 0 -1
    outer loop
      vertex -17.8023 -3.78399 -10
      vertex -21.7149 -4.61564 -10
      vertex -18.2 0 -10
    endloop
  endfacet
  facet normal 0 0 -1
    outer loop
      vertex -22.2 0 -10
      vertex -18.2 0 -10
      vertex -21.7149 -4.61564 -10
    endloop
  endfacet
  facet normal -0 0 -1
    outer loop
      vertex -14.7241 10.6977 -10
      vertex -20.2807 9.02955 -10
      vertex -15.4928 23.2808 -10
    endloop
  endfacet
  facet normal 0 0 -1
    outer loop
      vertex -18.2 0 -10
      vertex -22.2 0 -10
      vertex -17.8023 3.78399 -10
    endloop
  endfacet
  facet normal 0 0 -1
    outer loop
      vertex -17.8023 3.78399 -10
      vertex -21.7149 4.61564 -10
      vertex -20.2807 9.02955 -10
    endloop
  endfacet
  facet normal -0 0 -1
    outer loop
      vertex -17.8023 3.78399 -10
      vertex -22.2 0 -10
      vertex -21.7149 4.61564 -10
    endloop
  endfacet
  facet normal 0 0 -1
    outer loop
      vertex 18.2 0 -10
      vertex 22.2 0 -10
      vertex 21.7149 -4.61564 -10
    endloop
  endfacet
  facet normal 0 0 -1
    outer loop
      vertex 17.8023 -3.78399 -10
      vertex 21.7149 -4.61564 -10
      vertex 20.2807 -9.02955 -10
    endloop
  endfacet
  facet normal 0 0 -1
    outer loop
      vertex 22.2 0 -10
      vertex 18.2 0 -10
      vertex 21.7149 4.61564 -10
    endloop
  endfacet
  facet normal 0 0 -1
    outer loop
      vertex 17.8023 3.78399 -10
      vertex 21.7149 4.61564 -10
      vertex 18.2 0 -10
    endloop
  endfacet
  facet normal 0 0 -1
    outer loop
      vertex 16.6265 -7.40261 -10
      vertex 20.2807 -9.02955 -10
      vertex 17.9602 -13.0488 -10
    endloop
  endfacet
  facet normal 0 0 -1
    outer loop
      vertex 21.7149 -4.61564 -10
      vertex 17.8023 -3.78399 -10
      vertex 18.2 0 -10
    endloop
  endfacet
  facet normal 0 0 -1
    outer loop
      vertex 20.2807 -9.02955 -10
      vertex 16.6265 -7.40261 -10
      vertex 17.8023 -3.78399 -10
    endloop
  endfacet
  facet normal 0 0 -1
    outer loop
      vertex 14.7241 -10.6977 -10
      vertex 17.9602 -13.0488 -10
      vertex 14.8547 -16.4978 -10
    endloop
  endfacet
  facet normal 0 0 -1
    outer loop
      vertex 17.9602 -13.0488 -10
      vertex 14.7241 -10.6977 -10
      vertex 16.6265 -7.40261 -10
    endloop
  endfacet
  facet normal 0 0 -1
    outer loop
      vertex 14.8547 -16.4978 -10
      vertex 12.1782 -13.5252 -10
      vertex 14.7241 -10.6977 -10
    endloop
  endfacet
  facet normal 0 0 -1
    outer loop
      vertex 11.1 -19.2258 -10
      vertex 12.1782 -13.5252 -10
      vertex 14.8547 -16.4978 -10
    endloop
  endfacet
  facet normal 0 0 -1
    outer loop
      vertex 11.1 -19.2258 -10
      vertex 9.1 -15.7617 -10
      vertex 12.1782 -13.5252 -10
    endloop
  endfacet
  facet normal 0 0 -1
    outer loop
      vertex 6.86018 -21.1135 -10
      vertex 9.1 -15.7617 -10
      vertex 11.1 -19.2258 -10
    endloop
  endfacet
  facet normal 0 0 -1
    outer loop
      vertex 6.86018 -21.1135 -10
      vertex 5.62411 -17.3092 -10
      vertex 9.1 -15.7617 -10
    endloop
  endfacet
  facet normal 0 0 -1
    outer loop
      vertex 2.32053 -22.0784 -10
      vertex 5.62411 -17.3092 -10
      vertex 6.86018 -21.1135 -10
    endloop
  endfacet
  facet normal 0 0 -1
    outer loop
      vertex 2.32053 -22.0784 -10
      vertex 1.90242 -18.1003 -10
      vertex 5.62411 -17.3092 -10
    endloop
  endfacet
  facet normal 0 0 -1
    outer loop
      vertex 2.32053 -22.0784 -10
      vertex -1.90242 -18.1003 -10
      vertex 1.90242 -18.1003 -10
    endloop
  endfacet
  facet normal 0 0 -1
    outer loop
      vertex -2.32053 -22.0784 -10
      vertex -1.90242 -18.1003 -10
      vertex 2.32053 -22.0784 -10
    endloop
  endfacet
  facet normal 0 0 -1
    outer loop
      vertex -2.32053 -22.0784 -10
      vertex -5.62411 -17.3092 -10
      vertex -1.90242 -18.1003 -10
    endloop
  endfacet
  facet normal 0 0 -1
    outer loop
      vertex -6.86018 -21.1135 -10
      vertex -5.62411 -17.3092 -10
      vertex -2.32053 -22.0784 -10
    endloop
  endfacet
  facet normal 0 0 -1
    outer loop
      vertex -6.86018 -21.1135 -10
      vertex -9.1 -15.7617 -10
      vertex -5.62411 -17.3092 -10
    endloop
  endfacet
  facet normal 0 0 -1
    outer loop
      vertex -11.1 -19.2258 -10
      vertex -9.1 -15.7617 -10
      vertex -6.86018 -21.1135 -10
    endloop
  endfacet
  facet normal 0 0 -1
    outer loop
      vertex -11.1 -19.2258 -10
      vertex -12.1782 -13.5252 -10
      vertex -9.1 -15.7617 -10
    endloop
  endfacet
  facet normal 0 0 -1
    outer loop
      vertex -14.8547 -16.4978 -10
      vertex -12.1782 -13.5252 -10
      vertex -11.1 -19.2258 -10
    endloop
  endfacet
  facet normal -0 0 -1
    outer loop
      vertex -12.1782 -13.5252 -10
      vertex -14.8547 -16.4978 -10
      vertex -14.7241 -10.6977 -10
    endloop
  endfacet
  facet normal 0 0 -1
    outer loop
      vertex -17.9602 -13.0488 -10
      vertex -14.7241 -10.6977 -10
      vertex -14.8547 -16.4978 -10
    endloop
  endfacet
  facet normal -0 0 -1
    outer loop
      vertex -14.7241 -10.6977 -10
      vertex -17.9602 -13.0488 -10
      vertex -16.6265 -7.40261 -10
    endloop
  endfacet
  facet normal 0 0 -1
    outer loop
      vertex -20.2807 -9.02955 -10
      vertex -16.6265 -7.40261 -10
      vertex -17.9602 -13.0488 -10
    endloop
  endfacet
  facet normal -0 0 -1
    outer loop
      vertex -16.6265 -7.40261 -10
      vertex -20.2807 -9.02955 -10
      vertex -17.8023 -3.78399 -10
    endloop
  endfacet
  facet normal 0 0 -1
    outer loop
      vertex -21.7149 -4.61564 -10
      vertex -17.8023 -3.78399 -10
      vertex -20.2807 -9.02955 -10
    endloop
  endfacet
  facet normal -0 0 -1
    outer loop
      vertex 21.7149 4.61564 -10
      vertex 17.8023 3.78399 -10
      vertex 20.2807 9.02955 -10
    endloop
  endfacet
  facet normal 0 0 -1
    outer loop
      vertex 16.6265 7.40261 -10
      vertex 20.2807 9.02955 -10
      vertex 17.8023 3.78399 -10
    endloop
  endfacet
  facet normal 0 0 -1
    outer loop
      vertex 14.7241 10.6977 -10
      vertex 20.2807 9.02955 -10
      vertex 16.6265 7.40261 -10
    endloop
  endfacet
  facet normal 0 0 -1
    outer loop
      vertex 20.2807 9.02955 -10
      vertex 14.7241 10.6977 -10
      vertex 15.4928 23.2808 -10
    endloop
  endfacet
  facet normal 0 0 -1
    outer loop
      vertex 12.1782 13.5252 -10
      vertex 15.4928 23.2808 -10
      vertex 14.7241 10.6977 -10
    endloop
  endfacet
  facet normal 0 0 -1
    outer loop
      vertex 9.1 15.7617 -10
      vertex 15.4928 23.2808 -10
      vertex 12.1782 13.5252 -10
    endloop
  endfacet
  facet normal 0 0 -1
    outer loop
      vertex 8.76777 23.7003 -10
      vertex 15.4928 23.2808 -10
      vertex 9.1 15.7617 -10
    endloop
  endfacet
  facet normal 0 -0 -1
    outer loop
      vertex 10.2 25.9633 -10
      vertex 15.0798 24.4506 -10
      vertex 9.81107 24.6183 -10
    endloop
  endfacet
  facet normal 0 0 -1
    outer loop
      vertex 15.0798 24.4506 -10
      vertex 10.2 25.9633 -10
      vertex 13.5612 27.9234 -10
    endloop
  endfacet
  facet normal -0 0 -1
    outer loop
      vertex 13.5612 27.9234 -10
      vertex 9.81107 27.3083 -10
      vertex 12.7928 29.1652 -10
    endloop
  endfacet
  facet normal -0 0 -1
    outer loop
      vertex 12.7928 29.1652 -10
      vertex 9.81107 27.3083 -10
      vertex 11.7715 30.2022 -10
    endloop
  endfacet
  facet normal 0 0 -1
    outer loop
      vertex 9.39845 27.6713 -10
      vertex 11.7715 30.2022 -10
      vertex 9.81107 27.3083 -10
    endloop
  endfacet
  facet normal -0 0 -1
    outer loop
      vertex 11.7715 30.2022 -10
      vertex 9.39845 27.6713 -10
      vertex 10.8373 30.7983 -10
    endloop
  endfacet
  facet normal 0 0 -1
    outer loop
      vertex 9.81107 27.3083 -10
      vertex 13.5612 27.9234 -10
      vertex 10.2 25.9633 -10
    endloop
  endfacet
  facet normal 0 -0 -1
    outer loop
      vertex 9.39225 24.2498 -10
      vertex 15.4928 23.2808 -10
      vertex 8.76777 23.7003 -10
    endloop
  endfacet
  facet normal 0 0 -1
    outer loop
      vertex 15.4928 23.2808 -10
      vertex 9.81107 24.6183 -10
      vertex 15.0798 24.4506 -10
    endloop
  endfacet
  facet normal 0 -0 -1
    outer loop
      vertex 9.81107 24.6183 -10
      vertex 15.4928 23.2808 -10
      vertex 9.39225 24.2498 -10
    endloop
  endfacet
  facet normal 0 0 -1
    outer loop
      vertex 9.1 15.7617 -10
      vertex 7.95145 23.5811 -10
      vertex 8.76777 23.7003 -10
    endloop
  endfacet
  facet normal 0 0 -1
    outer loop
      vertex 5.62411 17.3092 -10
      vertex 7.95145 23.5811 -10
      vertex 9.1 15.7617 -10
    endloop
  endfacet
  facet normal 0 0 -1
    outer loop
      vertex 7.95145 23.5811 -10
      vertex 5.62411 17.3092 -10
      vertex 7.40133 23.5008 -10
    endloop
  endfacet
  facet normal -0 0 -1
    outer loop
      vertex 7.40133 23.5008 -10
      vertex 5.62411 17.3092 -10
      vertex 6.89611 23.7351 -10
    endloop
  endfacet
  facet normal -0 0 -1
    outer loop
      vertex 6.89611 23.7351 -10
      vertex 5.62411 17.3092 -10
      vertex 6.14559 24.0831 -10
    endloop
  endfacet
  facet normal 0 0 -1
    outer loop
      vertex 1.90242 18.1003 -10
      vertex 6.14559 24.0831 -10
      vertex 5.62411 17.3092 -10
    endloop
  endfacet
  facet normal 0 0 -1
    outer loop
      vertex -1.90242 18.1003 -10
      vertex 5.39924 25.2624 -10
      vertex 1.90242 18.1003 -10
    endloop
  endfacet
  facet normal -0 0 -1
    outer loop
      vertex 6.14559 24.0831 -10
      vertex 1.90242 18.1003 -10
      vertex 5.39924 25.2624 -10
    endloop
  endfacet
  facet normal 0 0 -1
    outer loop
      vertex 8.76777 28.2262 -10
      vertex 10.8373 30.7983 -10
      vertex 9.39845 27.6713 -10
    endloop
  endfacet
  facet normal 0 -0 -1
    outer loop
      vertex 10.2297 31.0958 -10
      vertex 10.8373 30.7983 -10
      vertex 8.76777 28.2262 -10
    endloop
  endfacet
  facet normal 0 0 -1
    outer loop
      vertex 10.8373 30.7983 -10
      vertex 10.2297 31.0958 -10
      vertex 10.5485 30.9825 -10
    endloop
  endfacet
  facet normal -0 0 -1
    outer loop
      vertex 10.2297 31.0958 -10
      vertex 8.76777 28.2262 -10
      vertex 9.18526 31.4669 -10
    endloop
  endfacet
  facet normal 0 0 -1
    outer loop
      vertex 7.40133 28.4257 -10
      vertex 9.18526 31.4669 -10
      vertex 8.76777 28.2262 -10
    endloop
  endfacet
  facet normal -0 0 -1
    outer loop
      vertex 9.18526 31.4669 -10
      vertex 7.40133 28.4257 -10
      vertex 7.75 31.6311 -10
    endloop
  endfacet
  facet normal 0 0 -1
    outer loop
      vertex 6.64135 28.0733 -10
      vertex 7.75 31.6311 -10
      vertex 7.40133 28.4257 -10
    endloop
  endfacet
  facet normal 0 0 -1
    outer loop
      vertex 6.14559 27.8434 -10
      vertex 7.75 31.6311 -10
      vertex 6.64135 28.0733 -10
    endloop
  endfacet
  facet normal 0 0 -1
    outer loop
      vertex -5.68893 27.3083 -10
      vertex 6.14559 27.8434 -10
      vertex 5.69512 27.1317 -10
    endloop
  endfacet
  facet normal 0 0 -1
    outer loop
      vertex -5.68893 27.3083 -10
      vertex 5.69512 27.1317 -10
      vertex 5.39924 26.6642 -10
    endloop
  endfacet
  facet normal -0 0 -1
    outer loop
      vertex 5.39924 25.2624 -10
      vertex -1.90242 18.1003 -10
      vertex -5.3 25.9633 -10
    endloop
  endfacet
  facet normal 0 0 -1
    outer loop
      vertex 5.39924 25.2624 -10
      vertex -5.3 25.9633 -10
      vertex 5.39924 26.6642 -10
    endloop
  endfacet
  facet normal 0 0 -1
    outer loop
      vertex -5.68893 27.3083 -10
      vertex 5.39924 26.6642 -10
      vertex -5.3 25.9633 -10
    endloop
  endfacet
  facet normal -0 0 -1
    outer loop
      vertex 6.14559 27.8434 -10
      vertex -5.68893 27.3083 -10
      vertex 7.75 31.6311 -10
    endloop
  endfacet
  facet normal 0 0 -1
    outer loop
      vertex -7.75 31.6311 -10
      vertex -5.68893 27.3083 -10
      vertex -6.10155 27.6713 -10
    endloop
  endfacet
  facet normal 0 0 -1
    outer loop
      vertex -7.75 31.6311 -10
      vertex -6.10155 27.6713 -10
      vertex -6.73223 28.2262 -10
    endloop
  endfacet
  facet normal 0 0 -1
    outer loop
      vertex -5.68893 27.3083 -10
      vertex -7.75 31.6311 -10
      vertex 7.75 31.6311 -10
    endloop
  endfacet
  facet normal 0 0 -1
    outer loop
      vertex -8.09867 28.4257 -10
      vertex -7.75 31.6311 -10
      vertex -6.73223 28.2262 -10
    endloop
  endfacet
  facet normal 0 0 -1
    outer loop
      vertex -9.18526 31.4669 -10
      vertex -8.09867 28.4257 -10
      vertex -8.85865 28.0733 -10
    endloop
  endfacet
  facet normal 0 0 -1
    outer loop
      vertex -8.09867 28.4257 -10
      vertex -9.18526 31.4669 -10
      vertex -7.75 31.6311 -10
    endloop
  endfacet
  facet normal 0 0 -1
    outer loop
      vertex -10.2297 31.0958 -10
      vertex -8.85865 28.0733 -10
      vertex -9.35441 27.8434 -10
    endloop
  endfacet
  facet normal 0 0 -1
    outer loop
      vertex -10.2297 31.0958 -10
      vertex -9.35441 27.8434 -10
      vertex -9.80488 27.1317 -10
    endloop
  endfacet
  facet normal 0 0 -1
    outer loop
      vertex -10.2297 31.0958 -10
      vertex -9.80488 27.1317 -10
      vertex -10.1008 26.6642 -10
    endloop
  endfacet
  facet normal 0 0 -1
    outer loop
      vertex -8.85865 28.0733 -10
      vertex -10.2297 31.0958 -10
      vertex -9.18526 31.4669 -10
    endloop
  endfacet
endsolid OpenSCAD_Model
