solid OpenSCAD_Model
  facet normal -0.959493 -0.277452 -0.0489224
    outer loop
      vertex -5.3 25.9633 -10
      vertex -5.68893 23.7817 10
      vertex -5.68893 27.3083 -10
    endloop
  endfacet
  facet normal -0.959493 -0.277453 -0.0489224
    outer loop
      vertex -5.68893 23.7817 10
      vertex -5.3 25.9633 -10
      vertex -5.3 22.4367 10
    endloop
  endfacet
  facet normal -0.142315 -0.974784 -0.171881
    outer loop
      vertex -8.09867 28.4257 -10
      vertex -6.73223 24.6997 10
      vertex -8.09867 24.8992 10
    endloop
  endfacet
  facet normal -0.142315 -0.974784 -0.171881
    outer loop
      vertex -6.73223 24.6997 10
      vertex -8.09867 28.4257 -10
      vertex -6.73223 28.2262 -10
    endloop
  endfacet
  facet normal 1 0 0
    outer loop
      vertex -10.1008 23.1376 10
      vertex -10.1008 25.2624 -10
      vertex -10.1008 26.6642 -10
    endloop
  endfacet
  facet normal 1 0 0
    outer loop
      vertex -10.1008 25.2624 -10
      vertex -10.1008 23.1376 10
      vertex -10.1008 21.7358 10
    endloop
  endfacet
  facet normal 0.841254 0.532427 0.0938813
    outer loop
      vertex -10.1008 21.7358 10
      vertex -9.35441 24.0831 -10
      vertex -10.1008 25.2624 -10
    endloop
  endfacet
  facet normal 0.841253 0.532428 0.0938813
    outer loop
      vertex -9.35441 24.0831 -10
      vertex -10.1008 21.7358 10
      vertex -9.35441 20.5566 10
    endloop
  endfacet
  facet normal -0.142314 0.974784 0.171881
    outer loop
      vertex -7.54855 23.5811 -10
      vertex -8.09867 19.9743 10
      vertex -7.27114 20.0951 10
    endloop
  endfacet
  facet normal -0.142314 0.974784 0.171881
    outer loop
      vertex -8.09867 19.9743 10
      vertex -7.54855 23.5811 -10
      vertex -8.09867 23.5008 -10
    endloop
  endfacet
  facet normal -0.654862 -0.744267 -0.131234
    outer loop
      vertex -6.10155 27.6713 -10
      vertex -5.68893 23.7817 10
      vertex -6.31309 24.3309 10
    endloop
  endfacet
  facet normal -0.65486 -0.744268 -0.131235
    outer loop
      vertex -5.68893 23.7817 10
      vertex -6.10155 27.6713 -10
      vertex -5.68893 27.3083 -10
    endloop
  endfacet
  facet normal -0.654859 -0.74427 -0.131235
    outer loop
      vertex -6.73223 28.2262 -10
      vertex -6.31309 24.3309 10
      vertex -6.73223 24.6997 10
    endloop
  endfacet
  facet normal -0.654861 -0.744268 -0.131234
    outer loop
      vertex -6.31309 24.3309 10
      vertex -6.73223 28.2262 -10
      vertex -6.10155 27.6713 -10
    endloop
  endfacet
  facet normal -0.142317 0.974784 0.171881
    outer loop
      vertex -6.73223 23.7003 -10
      vertex -7.27114 20.0951 10
      vertex -6.73223 20.1738 10
    endloop
  endfacet
  facet normal -0.142314 0.974784 0.171881
    outer loop
      vertex -7.27114 20.0951 10
      vertex -6.73223 23.7003 -10
      vertex -7.54855 23.5811 -10
    endloop
  endfacet
  facet normal -0.959493 0.277453 0.0489225
    outer loop
      vertex -5.68893 24.6183 -10
      vertex -5.3 22.4367 10
      vertex -5.3 25.9633 -10
    endloop
  endfacet
  facet normal -0.959493 0.277453 0.0489224
    outer loop
      vertex -5.3 22.4367 10
      vertex -5.68893 24.6183 -10
      vertex -5.68893 21.0917 10
    endloop
  endfacet
  facet normal -0.654862 0.744267 0.131234
    outer loop
      vertex -6.73223 23.7003 -10
      vertex -6.31996 20.5365 10
      vertex -6.10775 24.2498 -10
    endloop
  endfacet
  facet normal -0.65486 0.744269 0.131235
    outer loop
      vertex -6.31996 20.5365 10
      vertex -6.73223 23.7003 -10
      vertex -6.73223 20.1738 10
    endloop
  endfacet
  facet normal 0.415416 -0.895812 -0.157956
    outer loop
      vertex -8.09867 28.4257 -10
      vertex -8.60389 24.6649 10
      vertex -8.85865 28.0733 -10
    endloop
  endfacet
  facet normal 0.415414 -0.895813 -0.157956
    outer loop
      vertex -8.60389 24.6649 10
      vertex -8.09867 28.4257 -10
      vertex -8.09867 24.8992 10
    endloop
  endfacet
  facet normal 0.415414 -0.895813 -0.157956
    outer loop
      vertex -8.85865 28.0733 -10
      vertex -9.35441 24.3169 10
      vertex -9.35441 27.8434 -10
    endloop
  endfacet
  facet normal 0.415416 -0.895812 -0.157956
    outer loop
      vertex -9.35441 24.3169 10
      vertex -8.85865 28.0733 -10
      vertex -8.60389 24.6649 10
    endloop
  endfacet
  facet normal 0.415414 0.895813 0.157956
    outer loop
      vertex -9.35441 24.0831 -10
      vertex -8.85865 20.3267 10
      vertex -8.60389 23.7351 -10
    endloop
  endfacet
  facet normal 0.415414 0.895813 0.157956
    outer loop
      vertex -8.85865 20.3267 10
      vertex -9.35441 24.0831 -10
      vertex -9.35441 20.5566 10
    endloop
  endfacet
  facet normal 0.841254 -0.532427 -0.0938813
    outer loop
      vertex -9.35441 24.3169 10
      vertex -9.80488 27.1317 -10
      vertex -9.35441 27.8434 -10
    endloop
  endfacet
  facet normal 0.841253 -0.532428 -0.0938814
    outer loop
      vertex -9.80488 27.1317 -10
      vertex -9.35441 24.3169 10
      vertex -9.65362 23.8441 10
    endloop
  endfacet
  facet normal 0.841254 -0.532427 -0.0938812
    outer loop
      vertex -9.65362 23.8441 10
      vertex -10.1008 26.6642 -10
      vertex -9.80488 27.1317 -10
    endloop
  endfacet
  facet normal 0.841253 -0.532427 -0.0938813
    outer loop
      vertex -10.1008 26.6642 -10
      vertex -9.65362 23.8441 10
      vertex -10.1008 23.1376 10
    endloop
  endfacet
  facet normal -0.654861 0.744268 0.131235
    outer loop
      vertex -6.10775 24.2498 -10
      vertex -5.68893 21.0917 10
      vertex -5.68893 24.6183 -10
    endloop
  endfacet
  facet normal -0.654861 0.744267 0.131234
    outer loop
      vertex -5.68893 21.0917 10
      vertex -6.10775 24.2498 -10
      vertex -6.31996 20.5365 10
    endloop
  endfacet
  facet normal 0.415414 0.895813 0.157956
    outer loop
      vertex -8.60389 23.7351 -10
      vertex -8.09867 19.9743 10
      vertex -8.09867 23.5008 -10
    endloop
  endfacet
  facet normal 0.415416 0.895812 0.157956
    outer loop
      vertex -8.09867 19.9743 10
      vertex -8.60389 23.7351 -10
      vertex -8.85865 20.3267 10
    endloop
  endfacet
  facet normal -0.959493 -0.277452 -0.0489224
    outer loop
      vertex 10.2 25.9633 -10
      vertex 9.81107 23.7817 10
      vertex 9.81107 27.3083 -10
    endloop
  endfacet
  facet normal -0.959493 -0.277453 -0.0489224
    outer loop
      vertex 9.81107 23.7817 10
      vertex 10.2 25.9633 -10
      vertex 10.2 22.4367 10
    endloop
  endfacet
  facet normal -0.142315 -0.974784 -0.171881
    outer loop
      vertex 7.40133 28.4257 -10
      vertex 8.76777 24.6997 10
      vertex 7.40133 24.8992 10
    endloop
  endfacet
  facet normal -0.142315 -0.974784 -0.171881
    outer loop
      vertex 8.76777 24.6997 10
      vertex 7.40133 28.4257 -10
      vertex 8.76777 28.2262 -10
    endloop
  endfacet
  facet normal 1 0 0
    outer loop
      vertex 5.39924 23.1376 10
      vertex 5.39924 25.2624 -10
      vertex 5.39924 26.6642 -10
    endloop
  endfacet
  facet normal 1 0 0
    outer loop
      vertex 5.39924 25.2624 -10
      vertex 5.39924 23.1376 10
      vertex 5.39924 21.7358 10
    endloop
  endfacet
  facet normal 0.841254 0.532427 0.0938813
    outer loop
      vertex 5.39924 21.7358 10
      vertex 6.14559 24.0831 -10
      vertex 5.39924 25.2624 -10
    endloop
  endfacet
  facet normal 0.841253 0.532428 0.0938813
    outer loop
      vertex 6.14559 24.0831 -10
      vertex 5.39924 21.7358 10
      vertex 6.14559 20.5566 10
    endloop
  endfacet
  facet normal -0.142314 0.974784 0.171881
    outer loop
      vertex 7.95145 23.5811 -10
      vertex 7.40133 19.9743 10
      vertex 8.22886 20.0951 10
    endloop
  endfacet
  facet normal -0.142314 0.974784 0.171881
    outer loop
      vertex 7.40133 19.9743 10
      vertex 7.95145 23.5811 -10
      vertex 7.40133 23.5008 -10
    endloop
  endfacet
  facet normal -0.654862 -0.744267 -0.131234
    outer loop
      vertex 9.39845 27.6713 -10
      vertex 9.81107 23.7817 10
      vertex 9.18691 24.3309 10
    endloop
  endfacet
  facet normal -0.65486 -0.744268 -0.131235
    outer loop
      vertex 9.81107 23.7817 10
      vertex 9.39845 27.6713 -10
      vertex 9.81107 27.3083 -10
    endloop
  endfacet
  facet normal -0.654859 -0.744269 -0.131235
    outer loop
      vertex 8.76777 28.2262 -10
      vertex 9.18691 24.3309 10
      vertex 8.76777 24.6997 10
    endloop
  endfacet
  facet normal -0.654861 -0.744268 -0.131234
    outer loop
      vertex 9.18691 24.3309 10
      vertex 8.76777 28.2262 -10
      vertex 9.39845 27.6713 -10
    endloop
  endfacet
  facet normal -0.142317 0.974784 0.171881
    outer loop
      vertex 8.76777 23.7003 -10
      vertex 8.22886 20.0951 10
      vertex 8.76777 20.1738 10
    endloop
  endfacet
  facet normal -0.142314 0.974784 0.171881
    outer loop
      vertex 8.22886 20.0951 10
      vertex 8.76777 23.7003 -10
      vertex 7.95145 23.5811 -10
    endloop
  endfacet
  facet normal -0.959493 0.277453 0.0489225
    outer loop
      vertex 9.81107 24.6183 -10
      vertex 10.2 22.4367 10
      vertex 10.2 25.9633 -10
    endloop
  endfacet
  facet normal -0.959493 0.277453 0.0489224
    outer loop
      vertex 10.2 22.4367 10
      vertex 9.81107 24.6183 -10
      vertex 9.81107 21.0917 10
    endloop
  endfacet
  facet normal -0.654862 0.744267 0.131234
    outer loop
      vertex 8.76777 23.7003 -10
      vertex 9.18004 20.5365 10
      vertex 9.39225 24.2498 -10
    endloop
  endfacet
  facet normal -0.65486 0.744269 0.131235
    outer loop
      vertex 9.18004 20.5365 10
      vertex 8.76777 23.7003 -10
      vertex 8.76777 20.1738 10
    endloop
  endfacet
  facet normal 0.415416 -0.895812 -0.157956
    outer loop
      vertex 7.40133 28.4257 -10
      vertex 6.89611 24.6649 10
      vertex 6.64135 28.0733 -10
    endloop
  endfacet
  facet normal 0.415414 -0.895813 -0.157956
    outer loop
      vertex 6.89611 24.6649 10
      vertex 7.40133 28.4257 -10
      vertex 7.40133 24.8992 10
    endloop
  endfacet
  facet normal 0.415414 -0.895813 -0.157956
    outer loop
      vertex 6.64135 28.0733 -10
      vertex 6.14559 24.3169 10
      vertex 6.14559 27.8434 -10
    endloop
  endfacet
  facet normal 0.415416 -0.895812 -0.157956
    outer loop
      vertex 6.14559 24.3169 10
      vertex 6.64135 28.0733 -10
      vertex 6.89611 24.6649 10
    endloop
  endfacet
  facet normal 0.415414 0.895813 0.157956
    outer loop
      vertex 6.14559 24.0831 -10
      vertex 6.64135 20.3267 10
      vertex 6.89611 23.7351 -10
    endloop
  endfacet
  facet normal 0.415414 0.895813 0.157956
    outer loop
      vertex 6.64135 20.3267 10
      vertex 6.14559 24.0831 -10
      vertex 6.14559 20.5566 10
    endloop
  endfacet
  facet normal 0.841254 -0.532427 -0.0938813
    outer loop
      vertex 6.14559 24.3169 10
      vertex 5.69512 27.1317 -10
      vertex 6.14559 27.8434 -10
    endloop
  endfacet
  facet normal 0.841253 -0.532428 -0.0938814
    outer loop
      vertex 5.69512 27.1317 -10
      vertex 6.14559 24.3169 10
      vertex 5.84638 23.8441 10
    endloop
  endfacet
  facet normal 0.841253 -0.532427 -0.0938813
    outer loop
      vertex 5.84638 23.8441 10
      vertex 5.39924 26.6642 -10
      vertex 5.69512 27.1317 -10
    endloop
  endfacet
  facet normal 0.841253 -0.532427 -0.0938813
    outer loop
      vertex 5.39924 26.6642 -10
      vertex 5.84638 23.8441 10
      vertex 5.39924 23.1376 10
    endloop
  endfacet
  facet normal -0.654861 0.744268 0.131235
    outer loop
      vertex 9.39225 24.2498 -10
      vertex 9.81107 21.0917 10
      vertex 9.81107 24.6183 -10
    endloop
  endfacet
  facet normal -0.654861 0.744267 0.131234
    outer loop
      vertex 9.81107 21.0917 10
      vertex 9.39225 24.2498 -10
      vertex 9.18004 20.5365 10
    endloop
  endfacet
  facet normal 0.415414 0.895813 0.157956
    outer loop
      vertex 6.89611 23.7351 -10
      vertex 7.40133 19.9743 10
      vertex 7.40133 23.5008 -10
    endloop
  endfacet
  facet normal 0.415416 0.895812 0.157956
    outer loop
      vertex 7.40133 19.9743 10
      vertex 6.89611 23.7351 -10
      vertex 6.64135 20.3267 10
    endloop
  endfacet
  facet normal 0.111964 0.978616 0.172556
    outer loop
      vertex 9.18526 32.3486 -10
      vertex 7.75 28.9862 10
      vertex 9.18526 28.822 10
    endloop
  endfacet
  facet normal 0.111966 0.978615 0.172556
    outer loop
      vertex 7.75 28.9862 10
      vertex 9.18526 32.3486 -10
      vertex 7.75 32.5128 -10
    endloop
  endfacet
  facet normal -0.111964 0.978616 0.172556
    outer loop
      vertex -7.75 32.5128 -10
      vertex -9.18526 28.822 10
      vertex -7.75 28.9862 10
    endloop
  endfacet
  facet normal -0.111966 0.978615 0.172556
    outer loop
      vertex -9.18526 28.822 10
      vertex -7.75 32.5128 -10
      vertex -9.18526 32.3486 -10
    endloop
  endfacet
  facet normal -0.994522 -0.104529 0
    outer loop
      vertex -21.7149 -4.61564 -10
      vertex -22.2 0 10
      vertex -22.2 0 -10
    endloop
  endfacet
  facet normal -0.994522 -0.104529 0
    outer loop
      vertex -22.2 0 10
      vertex -21.7149 -4.61564 -10
      vertex -21.7149 -4.61564 10
    endloop
  endfacet
  facet normal 0.743145 -0.669131 0
    outer loop
      vertex 14.8547 -16.4978 10
      vertex 17.9602 -13.0488 -10
      vertex 17.9602 -13.0488 10
    endloop
  endfacet
  facet normal 0.743145 -0.669131 0
    outer loop
      vertex 17.9602 -13.0488 -10
      vertex 14.8547 -16.4978 10
      vertex 14.8547 -16.4978 -10
    endloop
  endfacet
  facet normal -0.406736 -0.913546 0
    outer loop
      vertex -11.1 -19.2258 -10
      vertex -6.86018 -21.1135 10
      vertex -11.1 -19.2258 10
    endloop
  endfacet
  facet normal -0.406736 -0.913546 -0
    outer loop
      vertex -6.86018 -21.1135 10
      vertex -11.1 -19.2258 -10
      vertex -6.86018 -21.1135 -10
    endloop
  endfacet
  facet normal 0.951057 0.309017 0
    outer loop
      vertex 21.7149 4.61564 10
      vertex 20.2807 9.02955 -10
      vertex 20.2807 9.02955 10
    endloop
  endfacet
  facet normal 0.951057 0.309017 0
    outer loop
      vertex 20.2807 9.02955 -10
      vertex 21.7149 4.61564 10
      vertex 21.7149 4.61564 -10
    endloop
  endfacet
  facet normal 0.207912 -0.978148 0
    outer loop
      vertex 2.32053 -22.0784 -10
      vertex 6.86018 -21.1135 10
      vertex 2.32053 -22.0784 10
    endloop
  endfacet
  facet normal 0.207912 -0.978148 0
    outer loop
      vertex 6.86018 -21.1135 10
      vertex 2.32053 -22.0784 -10
      vertex 6.86018 -21.1135 -10
    endloop
  endfacet
  facet normal -0.994522 0.104529 0
    outer loop
      vertex -22.2 0 -10
      vertex -21.7149 4.61564 10
      vertex -21.7149 4.61564 -10
    endloop
  endfacet
  facet normal -0.994522 0.104529 0
    outer loop
      vertex -21.7149 4.61564 10
      vertex -22.2 0 -10
      vertex -22.2 0 10
    endloop
  endfacet
  facet normal -0.951057 0.309017 0
    outer loop
      vertex -21.7149 4.61564 -10
      vertex -20.2807 9.02955 10
      vertex -20.2807 9.02955 -10
    endloop
  endfacet
  facet normal -0.951057 0.309017 0
    outer loop
      vertex -20.2807 9.02955 10
      vertex -21.7149 4.61564 -10
      vertex -21.7149 4.61564 10
    endloop
  endfacet
  facet normal 0 -1 0
    outer loop
      vertex -2.32053 -22.0784 -10
      vertex 2.32053 -22.0784 10
      vertex -2.32053 -22.0784 10
    endloop
  endfacet
  facet normal 0 -1 -0
    outer loop
      vertex 2.32053 -22.0784 10
      vertex -2.32053 -22.0784 -10
      vertex 2.32053 -22.0784 -10
    endloop
  endfacet
  facet normal 0.951057 -0.309017 0
    outer loop
      vertex 20.2807 -9.02955 10
      vertex 21.7149 -4.61564 -10
      vertex 21.7149 -4.61564 10
    endloop
  endfacet
  facet normal 0.951057 -0.309017 0
    outer loop
      vertex 21.7149 -4.61564 -10
      vertex 20.2807 -9.02955 10
      vertex 20.2807 -9.02955 -10
    endloop
  endfacet
  facet normal 0.994522 0.104529 0
    outer loop
      vertex 22.2 0 10
      vertex 21.7149 4.61564 -10
      vertex 21.7149 4.61564 10
    endloop
  endfacet
  facet normal 0.994522 0.104529 0
    outer loop
      vertex 21.7149 4.61564 -10
      vertex 22.2 0 10
      vertex 22.2 0 -10
    endloop
  endfacet
  facet normal 0.994522 -0.104529 0
    outer loop
      vertex 21.7149 -4.61564 10
      vertex 22.2 0 -10
      vertex 22.2 0 10
    endloop
  endfacet
  facet normal 0.994522 -0.104529 0
    outer loop
      vertex 22.2 0 -10
      vertex 21.7149 -4.61564 10
      vertex 21.7149 -4.61564 -10
    endloop
  endfacet
  facet normal 0.707107 0.696364 0.122788
    outer loop
      vertex 11.7715 27.5573 10
      vertex 12.7928 30.0468 -10
      vertex 11.7715 31.0839 -10
    endloop
  endfacet
  facet normal 0.707107 0.696364 0.122788
    outer loop
      vertex 12.7928 30.0468 -10
      vertex 11.7715 27.5573 10
      vertex 12.7928 26.5203 10
    endloop
  endfacet
  facet normal -0.922011 0.381282 0.0672304
    outer loop
      vertex -13.8319 28.1506 -10
      vertex -13.5612 25.2785 10
      vertex -13.5612 28.805 -10
    endloop
  endfacet
  facet normal -0.922011 0.381282 0.0672304
    outer loop
      vertex -13.5612 25.2785 10
      vertex -13.8319 28.1506 -10
      vertex -20.2807 9.02955 10
    endloop
  endfacet
  facet normal -0.207912 -0.978148 0
    outer loop
      vertex -6.86018 -21.1135 -10
      vertex -2.32053 -22.0784 10
      vertex -6.86018 -21.1135 10
    endloop
  endfacet
  facet normal -0.207912 -0.978148 -0
    outer loop
      vertex -2.32053 -22.0784 10
      vertex -6.86018 -21.1135 -10
      vertex -2.32053 -22.0784 -10
    endloop
  endfacet
  facet normal 0.922011 0.381282 0.0672304
    outer loop
      vertex 13.5612 25.2785 10
      vertex 13.8319 28.1506 -10
      vertex 13.5612 28.805 -10
    endloop
  endfacet
  facet normal 0.922011 0.381282 0.0672304
    outer loop
      vertex 13.8319 28.1506 -10
      vertex 13.5612 25.2785 10
      vertex 20.2807 9.02955 10
    endloop
  endfacet
  facet normal 0.942968 0.332593 0.0139238
    outer loop
      vertex 14.357 26.6617 -10
      vertex 13.8319 28.1506 -10
      vertex 20.2807 9.02955 10
    endloop
  endfacet
  facet normal 0.587785 -0.809017 0
    outer loop
      vertex 11.1 -19.2258 -10
      vertex 14.8547 -16.4978 10
      vertex 11.1 -19.2258 10
    endloop
  endfacet
  facet normal 0.587785 -0.809017 0
    outer loop
      vertex 14.8547 -16.4978 10
      vertex 11.1 -19.2258 -10
      vertex 14.8547 -16.4978 -10
    endloop
  endfacet
  facet normal 0 0.984808 0.173648
    outer loop
      vertex 7.75 32.5128 -10
      vertex -7.75 28.9862 10
      vertex 7.75 28.9862 10
    endloop
  endfacet
  facet normal 0 0.984808 0.173648
    outer loop
      vertex -7.75 28.9862 10
      vertex 7.75 32.5128 -10
      vertex -7.75 32.5128 -10
    endloop
  endfacet
  facet normal -0.743145 -0.669131 0
    outer loop
      vertex -14.8547 -16.4978 -10
      vertex -17.9602 -13.0488 10
      vertex -17.9602 -13.0488 -10
    endloop
  endfacet
  facet normal -0.743145 -0.669131 0
    outer loop
      vertex -17.9602 -13.0488 10
      vertex -14.8547 -16.4978 -10
      vertex -14.8547 -16.4978 10
    endloop
  endfacet
  facet normal 0.532033 0.83386 0.147032
    outer loop
      vertex 10.5657 31.8532 -10
      vertex 10.5485 28.3376 10
      vertex 11.652 27.6336 10
    endloop
  endfacet
  facet normal 0.532017 0.83387 0.147034
    outer loop
      vertex 10.5485 28.3376 10
      vertex 10.5657 31.8532 -10
      vertex 10.5485 31.8642 -10
    endloop
  endfacet
  facet normal 0.406736 -0.913546 0
    outer loop
      vertex 6.86018 -21.1135 -10
      vertex 11.1 -19.2258 10
      vertex 6.86018 -21.1135 10
    endloop
  endfacet
  facet normal 0.406736 -0.913546 0
    outer loop
      vertex 11.1 -19.2258 10
      vertex 6.86018 -21.1135 -10
      vertex 11.1 -19.2258 -10
    endloop
  endfacet
  facet normal -0.33028 0.929543 0.163904
    outer loop
      vertex -10.5296 31.8709 -10
      vertex -10.5485 28.3376 10
      vertex -9.33022 28.7705 10
    endloop
  endfacet
  facet normal -0.330265 0.929548 0.163904
    outer loop
      vertex -10.5485 28.3376 10
      vertex -10.5296 31.8709 -10
      vertex -10.5485 31.8642 -10
    endloop
  endfacet
  facet normal -0.951057 -0.309017 0
    outer loop
      vertex -20.2807 -9.02955 -10
      vertex -21.7149 -4.61564 10
      vertex -21.7149 -4.61564 -10
    endloop
  endfacet
  facet normal -0.951057 -0.309017 0
    outer loop
      vertex -21.7149 -4.61564 10
      vertex -20.2807 -9.02955 -10
      vertex -20.2807 -9.02955 10
    endloop
  endfacet
  facet normal -0.866025 -0.5 0
    outer loop
      vertex -17.9602 -13.0488 -10
      vertex -20.2807 -9.02955 10
      vertex -20.2807 -9.02955 -10
    endloop
  endfacet
  facet normal -0.866025 -0.5 0
    outer loop
      vertex -20.2807 -9.02955 10
      vertex -17.9602 -13.0488 -10
      vertex -17.9602 -13.0488 10
    endloop
  endfacet
  facet normal -0.587785 -0.809017 0
    outer loop
      vertex -14.8547 -16.4978 -10
      vertex -11.1 -19.2258 10
      vertex -14.8547 -16.4978 10
    endloop
  endfacet
  facet normal -0.587785 -0.809017 -0
    outer loop
      vertex -11.1 -19.2258 10
      vertex -14.8547 -16.4978 -10
      vertex -11.1 -19.2258 -10
    endloop
  endfacet
  facet normal 0.947934 0.318468 -0
    outer loop
      vertex 20.2807 9.02955 -10
      vertex 14.357 26.6617 -10
      vertex 20.2807 9.02955 10
    endloop
  endfacet
  facet normal 0.866025 -0.5 0
    outer loop
      vertex 17.9602 -13.0488 10
      vertex 20.2807 -9.02955 -10
      vertex 20.2807 -9.02955 10
    endloop
  endfacet
  facet normal 0.866025 -0.5 0
    outer loop
      vertex 20.2807 -9.02955 -10
      vertex 17.9602 -13.0488 10
      vertex 17.9602 -13.0488 -10
    endloop
  endfacet
  facet normal -0.846724 0.52395 0.0923865
    outer loop
      vertex -13.5612 28.805 -10
      vertex -12.7928 26.5203 10
      vertex -12.7928 30.0468 -10
    endloop
  endfacet
  facet normal -0.846724 0.523949 0.0923865
    outer loop
      vertex -12.7928 26.5203 10
      vertex -13.5612 28.805 -10
      vertex -13.5612 25.2785 10
    endloop
  endfacet
  facet normal -0.33027 0.929547 0.163904
    outer loop
      vertex -9.18526 32.3486 -10
      vertex -9.33022 28.7705 10
      vertex -9.18526 28.822 10
    endloop
  endfacet
  facet normal -0.330279 0.929544 0.163904
    outer loop
      vertex -9.33022 28.7705 10
      vertex -9.18526 32.3486 -10
      vertex -10.5296 31.8709 -10
    endloop
  endfacet
  facet normal 0.532027 0.833864 0.147033
    outer loop
      vertex 11.7715 31.0839 -10
      vertex 11.652 27.6336 10
      vertex 11.7715 27.5573 10
    endloop
  endfacet
  facet normal 0.532032 0.83386 0.147032
    outer loop
      vertex 11.652 27.6336 10
      vertex 11.7715 31.0839 -10
      vertex 10.5657 31.8532 -10
    endloop
  endfacet
  facet normal -0.532032 0.83386 0.147032
    outer loop
      vertex -11.7715 31.0839 -10
      vertex -11.652 27.6336 10
      vertex -10.5657 31.8532 -10
    endloop
  endfacet
  facet normal -0.532027 0.833864 0.147033
    outer loop
      vertex -11.652 27.6336 10
      vertex -11.7715 31.0839 -10
      vertex -11.7715 27.5573 10
    endloop
  endfacet
  facet normal -0.532017 0.83387 0.147034
    outer loop
      vertex -10.5657 31.8532 -10
      vertex -10.5485 28.3376 10
      vertex -10.5485 31.8642 -10
    endloop
  endfacet
  facet normal -0.532033 0.83386 0.147032
    outer loop
      vertex -10.5485 28.3376 10
      vertex -10.5657 31.8532 -10
      vertex -11.652 27.6336 10
    endloop
  endfacet
  facet normal -0.707107 0.696364 0.122788
    outer loop
      vertex -12.7928 30.0468 -10
      vertex -11.7715 27.5573 10
      vertex -11.7715 31.0839 -10
    endloop
  endfacet
  facet normal -0.707107 0.696364 0.122788
    outer loop
      vertex -11.7715 27.5573 10
      vertex -12.7928 30.0468 -10
      vertex -12.7928 26.5203 10
    endloop
  endfacet
  facet normal 0.330279 0.929544 0.163904
    outer loop
      vertex 9.18526 32.3486 -10
      vertex 9.33022 28.7705 10
      vertex 10.5296 31.8709 -10
    endloop
  endfacet
  facet normal 0.33027 0.929547 0.163904
    outer loop
      vertex 9.33022 28.7705 10
      vertex 9.18526 32.3486 -10
      vertex 9.18526 28.822 10
    endloop
  endfacet
  facet normal 0.330265 0.929548 0.163904
    outer loop
      vertex 10.5296 31.8709 -10
      vertex 10.5485 28.3376 10
      vertex 10.5485 31.8642 -10
    endloop
  endfacet
  facet normal 0.33028 0.929543 0.163904
    outer loop
      vertex 10.5485 28.3376 10
      vertex 10.5296 31.8709 -10
      vertex 9.33022 28.7705 10
    endloop
  endfacet
  facet normal 0.846724 0.52395 0.0923865
    outer loop
      vertex 12.7928 26.5203 10
      vertex 13.5612 28.805 -10
      vertex 12.7928 30.0468 -10
    endloop
  endfacet
  facet normal 0.846724 0.523949 0.0923865
    outer loop
      vertex 13.5612 28.805 -10
      vertex 12.7928 26.5203 10
      vertex 13.5612 25.2785 10
    endloop
  endfacet
  facet normal -0.947934 0.318468 0
    outer loop
      vertex -14.357 26.6617 -10
      vertex -20.2807 9.02955 -10
      vertex -20.2807 9.02955 10
    endloop
  endfacet
  facet normal -0.942968 0.332593 0.0139238
    outer loop
      vertex -14.357 26.6617 -10
      vertex -20.2807 9.02955 10
      vertex -13.8319 28.1506 -10
    endloop
  endfacet
  facet normal -0.994522 -0.104529 0
    outer loop
      vertex 18.2 0 -10
      vertex 17.8023 3.78399 10
      vertex 17.8023 3.78399 -10
    endloop
  endfacet
  facet normal -0.994522 -0.104529 0
    outer loop
      vertex 17.8023 3.78399 10
      vertex 18.2 0 -10
      vertex 18.2 0 10
    endloop
  endfacet
  facet normal 0.994522 -0.104529 0
    outer loop
      vertex -18.2 0 10
      vertex -17.8023 3.78399 -10
      vertex -17.8023 3.78399 10
    endloop
  endfacet
  facet normal 0.994522 -0.104529 0
    outer loop
      vertex -17.8023 3.78399 -10
      vertex -18.2 0 10
      vertex -18.2 0 -10
    endloop
  endfacet
  facet normal 0 -1 0
    outer loop
      vertex -1.90242 18.1003 -10
      vertex 1.90242 18.1003 10
      vertex -1.90242 18.1003 10
    endloop
  endfacet
  facet normal 0 -1 -0
    outer loop
      vertex 1.90242 18.1003 10
      vertex -1.90242 18.1003 -10
      vertex 1.90242 18.1003 -10
    endloop
  endfacet
  facet normal -0.743145 -0.669131 0
    outer loop
      vertex 14.7241 10.6977 -10
      vertex 12.1782 13.5252 10
      vertex 12.1782 13.5252 -10
    endloop
  endfacet
  facet normal -0.743145 -0.669131 0
    outer loop
      vertex 12.1782 13.5252 10
      vertex 14.7241 10.6977 -10
      vertex 14.7241 10.6977 10
    endloop
  endfacet
  facet normal 0.587785 -0.809017 0
    outer loop
      vertex -12.1782 13.5252 -10
      vertex -9.1 15.7617 10
      vertex -12.1782 13.5252 10
    endloop
  endfacet
  facet normal 0.587785 -0.809017 0
    outer loop
      vertex -9.1 15.7617 10
      vertex -12.1782 13.5252 -10
      vertex -9.1 15.7617 -10
    endloop
  endfacet
  facet normal 0.207912 -0.978148 0
    outer loop
      vertex -5.62411 17.3092 -10
      vertex -1.90242 18.1003 10
      vertex -5.62411 17.3092 10
    endloop
  endfacet
  facet normal 0.207912 -0.978148 0
    outer loop
      vertex -1.90242 18.1003 10
      vertex -5.62411 17.3092 -10
      vertex -1.90242 18.1003 -10
    endloop
  endfacet
  facet normal -0.866026 -0.5 0
    outer loop
      vertex 16.6265 7.40261 -10
      vertex 14.7241 10.6977 10
      vertex 14.7241 10.6977 -10
    endloop
  endfacet
  facet normal -0.866026 -0.5 0
    outer loop
      vertex 14.7241 10.6977 10
      vertex 16.6265 7.40261 -10
      vertex 16.6265 7.40261 10
    endloop
  endfacet
  facet normal -0.951056 -0.309017 0
    outer loop
      vertex 17.8023 3.78399 -10
      vertex 16.6265 7.40261 10
      vertex 16.6265 7.40261 -10
    endloop
  endfacet
  facet normal -0.951056 -0.309017 0
    outer loop
      vertex 16.6265 7.40261 10
      vertex 17.8023 3.78399 -10
      vertex 17.8023 3.78399 10
    endloop
  endfacet
  facet normal -0.406737 -0.913546 0
    outer loop
      vertex 5.62411 17.3092 -10
      vertex 9.1 15.7617 10
      vertex 5.62411 17.3092 10
    endloop
  endfacet
  facet normal -0.406737 -0.913546 -0
    outer loop
      vertex 9.1 15.7617 10
      vertex 5.62411 17.3092 -10
      vertex 9.1 15.7617 -10
    endloop
  endfacet
  facet normal -0.207912 -0.978148 0
    outer loop
      vertex 1.90242 18.1003 -10
      vertex 5.62411 17.3092 10
      vertex 1.90242 18.1003 10
    endloop
  endfacet
  facet normal -0.207912 -0.978148 -0
    outer loop
      vertex 5.62411 17.3092 10
      vertex 1.90242 18.1003 -10
      vertex 5.62411 17.3092 -10
    endloop
  endfacet
  facet normal -0.587785 -0.809017 0
    outer loop
      vertex 9.1 15.7617 -10
      vertex 12.1782 13.5252 10
      vertex 9.1 15.7617 10
    endloop
  endfacet
  facet normal -0.587785 -0.809017 -0
    outer loop
      vertex 12.1782 13.5252 10
      vertex 9.1 15.7617 -10
      vertex 12.1782 13.5252 -10
    endloop
  endfacet
  facet normal 0.866026 -0.5 0
    outer loop
      vertex -16.6265 7.40261 10
      vertex -14.7241 10.6977 -10
      vertex -14.7241 10.6977 10
    endloop
  endfacet
  facet normal 0.866026 -0.5 0
    outer loop
      vertex -14.7241 10.6977 -10
      vertex -16.6265 7.40261 10
      vertex -16.6265 7.40261 -10
    endloop
  endfacet
  facet normal 0.743145 -0.669131 0
    outer loop
      vertex -14.7241 10.6977 10
      vertex -12.1782 13.5252 -10
      vertex -12.1782 13.5252 10
    endloop
  endfacet
  facet normal 0.743145 -0.669131 0
    outer loop
      vertex -12.1782 13.5252 -10
      vertex -14.7241 10.6977 10
      vertex -14.7241 10.6977 -10
    endloop
  endfacet
  facet normal 0.951056 -0.309017 0
    outer loop
      vertex -17.8023 3.78399 10
      vertex -16.6265 7.40261 -10
      vertex -16.6265 7.40261 10
    endloop
  endfacet
  facet normal 0.951056 -0.309017 0
    outer loop
      vertex -16.6265 7.40261 -10
      vertex -17.8023 3.78399 10
      vertex -17.8023 3.78399 -10
    endloop
  endfacet
  facet normal 0.406737 -0.913546 0
    outer loop
      vertex -9.1 15.7617 -10
      vertex -5.62411 17.3092 10
      vertex -9.1 15.7617 10
    endloop
  endfacet
  facet normal 0.406737 -0.913546 0
    outer loop
      vertex -5.62411 17.3092 10
      vertex -9.1 15.7617 -10
      vertex -5.62411 17.3092 -10
    endloop
  endfacet
  facet normal -0.994522 0.104529 0
    outer loop
      vertex 17.8023 -3.78399 -10
      vertex 18.2 0 10
      vertex 18.2 0 -10
    endloop
  endfacet
  facet normal -0.994522 0.104529 0
    outer loop
      vertex 18.2 0 10
      vertex 17.8023 -3.78399 -10
      vertex 17.8023 -3.78399 10
    endloop
  endfacet
  facet normal 0.207912 0.978148 -0
    outer loop
      vertex -1.90242 -18.1003 -10
      vertex -5.62411 -17.3092 10
      vertex -1.90242 -18.1003 10
    endloop
  endfacet
  facet normal 0.207912 0.978148 0
    outer loop
      vertex -5.62411 -17.3092 10
      vertex -1.90242 -18.1003 -10
      vertex -5.62411 -17.3092 -10
    endloop
  endfacet
  facet normal -0.207912 0.978148 0
    outer loop
      vertex 5.62411 -17.3092 -10
      vertex 1.90242 -18.1003 10
      vertex 5.62411 -17.3092 10
    endloop
  endfacet
  facet normal -0.207912 0.978148 0
    outer loop
      vertex 1.90242 -18.1003 10
      vertex 5.62411 -17.3092 -10
      vertex 1.90242 -18.1003 -10
    endloop
  endfacet
  facet normal -0.743145 0.669131 0
    outer loop
      vertex 12.1782 -13.5252 -10
      vertex 14.7241 -10.6977 10
      vertex 14.7241 -10.6977 -10
    endloop
  endfacet
  facet normal -0.743145 0.669131 0
    outer loop
      vertex 14.7241 -10.6977 10
      vertex 12.1782 -13.5252 -10
      vertex 12.1782 -13.5252 10
    endloop
  endfacet
  facet normal -0.951056 0.309017 0
    outer loop
      vertex 16.6265 -7.40261 -10
      vertex 17.8023 -3.78399 10
      vertex 17.8023 -3.78399 -10
    endloop
  endfacet
  facet normal -0.951056 0.309017 0
    outer loop
      vertex 17.8023 -3.78399 10
      vertex 16.6265 -7.40261 -10
      vertex 16.6265 -7.40261 10
    endloop
  endfacet
  facet normal -0.866026 0.5 0
    outer loop
      vertex 14.7241 -10.6977 -10
      vertex 16.6265 -7.40261 10
      vertex 16.6265 -7.40261 -10
    endloop
  endfacet
  facet normal -0.866026 0.5 0
    outer loop
      vertex 16.6265 -7.40261 10
      vertex 14.7241 -10.6977 -10
      vertex 14.7241 -10.6977 10
    endloop
  endfacet
  facet normal 0.866026 0.5 0
    outer loop
      vertex -14.7241 -10.6977 10
      vertex -16.6265 -7.40261 -10
      vertex -16.6265 -7.40261 10
    endloop
  endfacet
  facet normal 0.866026 0.5 0
    outer loop
      vertex -16.6265 -7.40261 -10
      vertex -14.7241 -10.6977 10
      vertex -14.7241 -10.6977 -10
    endloop
  endfacet
  facet normal 0.994522 0.104529 0
    outer loop
      vertex -17.8023 -3.78399 10
      vertex -18.2 0 -10
      vertex -18.2 0 10
    endloop
  endfacet
  facet normal 0.994522 0.104529 0
    outer loop
      vertex -18.2 0 -10
      vertex -17.8023 -3.78399 10
      vertex -17.8023 -3.78399 -10
    endloop
  endfacet
  facet normal 0.951056 0.309017 0
    outer loop
      vertex -16.6265 -7.40261 10
      vertex -17.8023 -3.78399 -10
      vertex -17.8023 -3.78399 10
    endloop
  endfacet
  facet normal 0.951056 0.309017 0
    outer loop
      vertex -17.8023 -3.78399 -10
      vertex -16.6265 -7.40261 10
      vertex -16.6265 -7.40261 -10
    endloop
  endfacet
  facet normal -0.587785 0.809017 0
    outer loop
      vertex 12.1782 -13.5252 -10
      vertex 9.1 -15.7617 10
      vertex 12.1782 -13.5252 10
    endloop
  endfacet
  facet normal -0.587785 0.809017 0
    outer loop
      vertex 9.1 -15.7617 10
      vertex 12.1782 -13.5252 -10
      vertex 9.1 -15.7617 -10
    endloop
  endfacet
  facet normal -0.406737 0.913546 0
    outer loop
      vertex 9.1 -15.7617 -10
      vertex 5.62411 -17.3092 10
      vertex 9.1 -15.7617 10
    endloop
  endfacet
  facet normal -0.406737 0.913546 0
    outer loop
      vertex 5.62411 -17.3092 10
      vertex 9.1 -15.7617 -10
      vertex 5.62411 -17.3092 -10
    endloop
  endfacet
  facet normal 0 1 -0
    outer loop
      vertex 1.90242 -18.1003 -10
      vertex -1.90242 -18.1003 10
      vertex 1.90242 -18.1003 10
    endloop
  endfacet
  facet normal 0 1 0
    outer loop
      vertex -1.90242 -18.1003 10
      vertex 1.90242 -18.1003 -10
      vertex -1.90242 -18.1003 -10
    endloop
  endfacet
  facet normal 0.587785 0.809017 -0
    outer loop
      vertex -9.1 -15.7617 -10
      vertex -12.1782 -13.5252 10
      vertex -9.1 -15.7617 10
    endloop
  endfacet
  facet normal 0.587785 0.809017 0
    outer loop
      vertex -12.1782 -13.5252 10
      vertex -9.1 -15.7617 -10
      vertex -12.1782 -13.5252 -10
    endloop
  endfacet
  facet normal 0.743145 0.669131 0
    outer loop
      vertex -12.1782 -13.5252 10
      vertex -14.7241 -10.6977 -10
      vertex -14.7241 -10.6977 10
    endloop
  endfacet
  facet normal 0.743145 0.669131 0
    outer loop
      vertex -14.7241 -10.6977 -10
      vertex -12.1782 -13.5252 10
      vertex -12.1782 -13.5252 -10
    endloop
  endfacet
  facet normal 0.406737 0.913546 -0
    outer loop
      vertex -5.62411 -17.3092 -10
      vertex -9.1 -15.7617 10
      vertex -5.62411 -17.3092 10
    endloop
  endfacet
  facet normal 0.406737 0.913546 0
    outer loop
      vertex -9.1 -15.7617 10
      vertex -5.62411 -17.3092 -10
      vertex -9.1 -15.7617 -10
    endloop
  endfacet
  facet normal 0 0 1
    outer loop
      vertex 13.5612 25.2785 10
      vertex 9.81107 23.7817 10
      vertex 10.2 22.4367 10
    endloop
  endfacet
  facet normal 0 0 1
    outer loop
      vertex 8.76777 24.6997 10
      vertex 10.5485 28.3376 10
      vertex 9.33022 28.7705 10
    endloop
  endfacet
  facet normal 0 0 1
    outer loop
      vertex 11.652 27.6336 10
      vertex 9.18691 24.3309 10
      vertex 9.81107 23.7817 10
    endloop
  endfacet
  facet normal 0 0 1
    outer loop
      vertex 8.76777 24.6997 10
      vertex 9.33022 28.7705 10
      vertex 9.18526 28.822 10
    endloop
  endfacet
  facet normal 0 0 1
    outer loop
      vertex 11.652 27.6336 10
      vertex 8.76777 24.6997 10
      vertex 9.18691 24.3309 10
    endloop
  endfacet
  facet normal 0 0 1
    outer loop
      vertex 7.40133 24.8992 10
      vertex 9.18526 28.822 10
      vertex 7.75 28.9862 10
    endloop
  endfacet
  facet normal 0 0 1
    outer loop
      vertex 9.18526 28.822 10
      vertex 7.40133 24.8992 10
      vertex 8.76777 24.6997 10
    endloop
  endfacet
  facet normal 0 0 1
    outer loop
      vertex 7.75 28.9862 10
      vertex 6.89611 24.6649 10
      vertex 7.40133 24.8992 10
    endloop
  endfacet
  facet normal 0 0 1
    outer loop
      vertex 7.75 28.9862 10
      vertex 6.14559 24.3169 10
      vertex 6.89611 24.6649 10
    endloop
  endfacet
  facet normal 0 0 1
    outer loop
      vertex -5.68893 23.7817 10
      vertex 6.14559 24.3169 10
      vertex 7.75 28.9862 10
    endloop
  endfacet
  facet normal 0 0 1
    outer loop
      vertex 6.14559 24.3169 10
      vertex -5.68893 23.7817 10
      vertex 5.84638 23.8441 10
    endloop
  endfacet
  facet normal 0 0 1
    outer loop
      vertex 5.39924 23.1376 10
      vertex 1.90242 18.1003 10
      vertex 5.39924 21.7358 10
    endloop
  endfacet
  facet normal 0 0 1
    outer loop
      vertex 5.84638 23.8441 10
      vertex -5.68893 23.7817 10
      vertex 5.39924 23.1376 10
    endloop
  endfacet
  facet normal 0 -0 1
    outer loop
      vertex -5.3 22.4367 10
      vertex 5.39924 23.1376 10
      vertex -5.68893 23.7817 10
    endloop
  endfacet
  facet normal 0 0 1
    outer loop
      vertex 1.90242 18.1003 10
      vertex -5.3 22.4367 10
      vertex -1.90242 18.1003 10
    endloop
  endfacet
  facet normal 0 0 1
    outer loop
      vertex 5.39924 23.1376 10
      vertex -5.3 22.4367 10
      vertex 1.90242 18.1003 10
    endloop
  endfacet
  facet normal -0 0 1
    outer loop
      vertex -7.75 28.9862 10
      vertex -5.68893 23.7817 10
      vertex 7.75 28.9862 10
    endloop
  endfacet
  facet normal 0 0 1
    outer loop
      vertex -5.68893 23.7817 10
      vertex -7.75 28.9862 10
      vertex -6.31309 24.3309 10
    endloop
  endfacet
  facet normal 0 0 1
    outer loop
      vertex -6.31309 24.3309 10
      vertex -7.75 28.9862 10
      vertex -6.73223 24.6997 10
    endloop
  endfacet
  facet normal 0 0 1
    outer loop
      vertex -7.75 28.9862 10
      vertex -8.09867 24.8992 10
      vertex -6.73223 24.6997 10
    endloop
  endfacet
  facet normal -0 0 1
    outer loop
      vertex -9.18526 28.822 10
      vertex -8.09867 24.8992 10
      vertex -7.75 28.9862 10
    endloop
  endfacet
  facet normal -0 0 1
    outer loop
      vertex -9.33022 28.7705 10
      vertex -8.09867 24.8992 10
      vertex -9.18526 28.822 10
    endloop
  endfacet
  facet normal 0 0 1
    outer loop
      vertex -8.09867 24.8992 10
      vertex -9.33022 28.7705 10
      vertex -8.60389 24.6649 10
    endloop
  endfacet
  facet normal -0 0 1
    outer loop
      vertex -10.5485 28.3376 10
      vertex -8.60389 24.6649 10
      vertex -9.33022 28.7705 10
    endloop
  endfacet
  facet normal 0 0 1
    outer loop
      vertex -8.60389 24.6649 10
      vertex -10.5485 28.3376 10
      vertex -9.35441 24.3169 10
    endloop
  endfacet
  facet normal -0 0 1
    outer loop
      vertex -11.652 27.6336 10
      vertex -9.35441 24.3169 10
      vertex -10.5485 28.3376 10
    endloop
  endfacet
  facet normal -0 0 1
    outer loop
      vertex -12.7928 26.5203 10
      vertex -9.35441 24.3169 10
      vertex -11.7715 27.5573 10
    endloop
  endfacet
  facet normal -0 0 1
    outer loop
      vertex -11.7715 27.5573 10
      vertex -9.35441 24.3169 10
      vertex -11.652 27.6336 10
    endloop
  endfacet
  facet normal 0 0 1
    outer loop
      vertex 18.2 0 10
      vertex 22.2 0 10
      vertex 21.7149 4.61564 10
    endloop
  endfacet
  facet normal 0 0 1
    outer loop
      vertex 17.8023 3.78399 10
      vertex 21.7149 4.61564 10
      vertex 20.2807 9.02955 10
    endloop
  endfacet
  facet normal 0 0 1
    outer loop
      vertex 22.2 0 10
      vertex 18.2 0 10
      vertex 21.7149 -4.61564 10
    endloop
  endfacet
  facet normal -0 0 1
    outer loop
      vertex 17.8023 -3.78399 10
      vertex 21.7149 -4.61564 10
      vertex 18.2 0 10
    endloop
  endfacet
  facet normal 0 0 1
    outer loop
      vertex 21.7149 4.61564 10
      vertex 17.8023 3.78399 10
      vertex 18.2 0 10
    endloop
  endfacet
  facet normal 0 0 1
    outer loop
      vertex 20.2807 9.02955 10
      vertex 16.6265 7.40261 10
      vertex 17.8023 3.78399 10
    endloop
  endfacet
  facet normal 0 0 1
    outer loop
      vertex 20.2807 9.02955 10
      vertex 14.7241 10.6977 10
      vertex 16.6265 7.40261 10
    endloop
  endfacet
  facet normal -0 0 1
    outer loop
      vertex 12.1782 13.5252 10
      vertex 20.2807 9.02955 10
      vertex 13.5612 25.2785 10
    endloop
  endfacet
  facet normal 0 0 1
    outer loop
      vertex 9.81107 23.7817 10
      vertex 13.5612 25.2785 10
      vertex 12.7928 26.5203 10
    endloop
  endfacet
  facet normal 0 0 1
    outer loop
      vertex 20.2807 9.02955 10
      vertex 12.1782 13.5252 10
      vertex 14.7241 10.6977 10
    endloop
  endfacet
  facet normal 0 0 1
    outer loop
      vertex 9.81107 23.7817 10
      vertex 12.7928 26.5203 10
      vertex 11.7715 27.5573 10
    endloop
  endfacet
  facet normal 0 0 1
    outer loop
      vertex 9.81107 23.7817 10
      vertex 11.7715 27.5573 10
      vertex 11.652 27.6336 10
    endloop
  endfacet
  facet normal 0 0 1
    outer loop
      vertex 8.76777 24.6997 10
      vertex 11.652 27.6336 10
      vertex 10.5485 28.3376 10
    endloop
  endfacet
  facet normal 0 0 1
    outer loop
      vertex 9.81107 21.0917 10
      vertex 13.5612 25.2785 10
      vertex 10.2 22.4367 10
    endloop
  endfacet
  facet normal 0 0 1
    outer loop
      vertex 13.5612 25.2785 10
      vertex 9.81107 21.0917 10
      vertex 12.1782 13.5252 10
    endloop
  endfacet
  facet normal 0 0 1
    outer loop
      vertex 9.1 15.7617 10
      vertex 9.81107 21.0917 10
      vertex 9.18004 20.5365 10
    endloop
  endfacet
  facet normal 0 0 1
    outer loop
      vertex 9.81107 21.0917 10
      vertex 9.1 15.7617 10
      vertex 12.1782 13.5252 10
    endloop
  endfacet
  facet normal -0 0 1
    outer loop
      vertex 8.76777 20.1738 10
      vertex 9.1 15.7617 10
      vertex 9.18004 20.5365 10
    endloop
  endfacet
  facet normal -0 0 1
    outer loop
      vertex 8.22886 20.0951 10
      vertex 9.1 15.7617 10
      vertex 8.76777 20.1738 10
    endloop
  endfacet
  facet normal -0 0 1
    outer loop
      vertex 7.40133 19.9743 10
      vertex 9.1 15.7617 10
      vertex 8.22886 20.0951 10
    endloop
  endfacet
  facet normal 0 0 1
    outer loop
      vertex 5.62411 17.3092 10
      vertex 7.40133 19.9743 10
      vertex 6.64135 20.3267 10
    endloop
  endfacet
  facet normal 0 0 1
    outer loop
      vertex 5.62411 17.3092 10
      vertex 6.64135 20.3267 10
      vertex 6.14559 20.5566 10
    endloop
  endfacet
  facet normal 0 0 1
    outer loop
      vertex 7.40133 19.9743 10
      vertex 5.62411 17.3092 10
      vertex 9.1 15.7617 10
    endloop
  endfacet
  facet normal 0 0 1
    outer loop
      vertex 1.90242 18.1003 10
      vertex 6.14559 20.5566 10
      vertex 5.39924 21.7358 10
    endloop
  endfacet
  facet normal 0 0 1
    outer loop
      vertex 6.14559 20.5566 10
      vertex 1.90242 18.1003 10
      vertex 5.62411 17.3092 10
    endloop
  endfacet
  facet normal 0 0 1
    outer loop
      vertex 21.7149 -4.61564 10
      vertex 17.8023 -3.78399 10
      vertex 20.2807 -9.02955 10
    endloop
  endfacet
  facet normal -0 0 1
    outer loop
      vertex 16.6265 -7.40261 10
      vertex 20.2807 -9.02955 10
      vertex 17.8023 -3.78399 10
    endloop
  endfacet
  facet normal 0 0 1
    outer loop
      vertex 20.2807 -9.02955 10
      vertex 16.6265 -7.40261 10
      vertex 17.9602 -13.0488 10
    endloop
  endfacet
  facet normal -0 0 1
    outer loop
      vertex 14.7241 -10.6977 10
      vertex 17.9602 -13.0488 10
      vertex 16.6265 -7.40261 10
    endloop
  endfacet
  facet normal 0 0 1
    outer loop
      vertex 17.9602 -13.0488 10
      vertex 14.7241 -10.6977 10
      vertex 14.8547 -16.4978 10
    endloop
  endfacet
  facet normal -0 0 1
    outer loop
      vertex 12.1782 -13.5252 10
      vertex 14.8547 -16.4978 10
      vertex 14.7241 -10.6977 10
    endloop
  endfacet
  facet normal 0 0 1
    outer loop
      vertex 12.1782 -13.5252 10
      vertex 11.1 -19.2258 10
      vertex 14.8547 -16.4978 10
    endloop
  endfacet
  facet normal -0 0 1
    outer loop
      vertex 9.1 -15.7617 10
      vertex 11.1 -19.2258 10
      vertex 12.1782 -13.5252 10
    endloop
  endfacet
  facet normal 0 0 1
    outer loop
      vertex 9.1 -15.7617 10
      vertex 6.86018 -21.1135 10
      vertex 11.1 -19.2258 10
    endloop
  endfacet
  facet normal -0 0 1
    outer loop
      vertex 5.62411 -17.3092 10
      vertex 6.86018 -21.1135 10
      vertex 9.1 -15.7617 10
    endloop
  endfacet
  facet normal 0 0 1
    outer loop
      vertex 5.62411 -17.3092 10
      vertex 2.32053 -22.0784 10
      vertex 6.86018 -21.1135 10
    endloop
  endfacet
  facet normal -0 0 1
    outer loop
      vertex 1.90242 -18.1003 10
      vertex 2.32053 -22.0784 10
      vertex 5.62411 -17.3092 10
    endloop
  endfacet
  facet normal -0 0 1
    outer loop
      vertex -1.90242 -18.1003 10
      vertex 2.32053 -22.0784 10
      vertex 1.90242 -18.1003 10
    endloop
  endfacet
  facet normal 0 0 1
    outer loop
      vertex -1.90242 -18.1003 10
      vertex -2.32053 -22.0784 10
      vertex 2.32053 -22.0784 10
    endloop
  endfacet
  facet normal 0 0 1
    outer loop
      vertex -5.62411 -17.3092 10
      vertex -2.32053 -22.0784 10
      vertex -1.90242 -18.1003 10
    endloop
  endfacet
  facet normal 0 0 1
    outer loop
      vertex -5.62411 -17.3092 10
      vertex -6.86018 -21.1135 10
      vertex -2.32053 -22.0784 10
    endloop
  endfacet
  facet normal 0 0 1
    outer loop
      vertex -9.1 -15.7617 10
      vertex -6.86018 -21.1135 10
      vertex -5.62411 -17.3092 10
    endloop
  endfacet
  facet normal 0 0 1
    outer loop
      vertex -9.1 -15.7617 10
      vertex -11.1 -19.2258 10
      vertex -6.86018 -21.1135 10
    endloop
  endfacet
  facet normal 0 0 1
    outer loop
      vertex -12.1782 -13.5252 10
      vertex -11.1 -19.2258 10
      vertex -9.1 -15.7617 10
    endloop
  endfacet
  facet normal 0 0 1
    outer loop
      vertex -14.8547 -16.4978 10
      vertex -12.1782 -13.5252 10
      vertex -14.7241 -10.6977 10
    endloop
  endfacet
  facet normal 0 0 1
    outer loop
      vertex -12.1782 -13.5252 10
      vertex -14.8547 -16.4978 10
      vertex -11.1 -19.2258 10
    endloop
  endfacet
  facet normal 0 0 1
    outer loop
      vertex -17.9602 -13.0488 10
      vertex -14.7241 -10.6977 10
      vertex -16.6265 -7.40261 10
    endloop
  endfacet
  facet normal 0 0 1
    outer loop
      vertex -20.2807 -9.02955 10
      vertex -16.6265 -7.40261 10
      vertex -17.8023 -3.78399 10
    endloop
  endfacet
  facet normal 0 0 1
    outer loop
      vertex -14.7241 -10.6977 10
      vertex -17.9602 -13.0488 10
      vertex -14.8547 -16.4978 10
    endloop
  endfacet
  facet normal 0 0 1
    outer loop
      vertex -21.7149 -4.61564 10
      vertex -17.8023 -3.78399 10
      vertex -18.2 0 10
    endloop
  endfacet
  facet normal 0 0 1
    outer loop
      vertex -17.8023 3.78399 10
      vertex -21.7149 4.61564 10
      vertex -18.2 0 10
    endloop
  endfacet
  facet normal 0 0 1
    outer loop
      vertex -16.6265 -7.40261 10
      vertex -20.2807 -9.02955 10
      vertex -17.9602 -13.0488 10
    endloop
  endfacet
  facet normal 0 0 1
    outer loop
      vertex -22.2 0 10
      vertex -18.2 0 10
      vertex -21.7149 4.61564 10
    endloop
  endfacet
  facet normal 0 0 1
    outer loop
      vertex -17.8023 -3.78399 10
      vertex -21.7149 -4.61564 10
      vertex -20.2807 -9.02955 10
    endloop
  endfacet
  facet normal 0 0 1
    outer loop
      vertex -18.2 0 10
      vertex -22.2 0 10
      vertex -21.7149 -4.61564 10
    endloop
  endfacet
  facet normal -0 0 1
    outer loop
      vertex -5.68893 21.0917 10
      vertex -1.90242 18.1003 10
      vertex -5.3 22.4367 10
    endloop
  endfacet
  facet normal 0 0 1
    outer loop
      vertex -1.90242 18.1003 10
      vertex -5.68893 21.0917 10
      vertex -5.62411 17.3092 10
    endloop
  endfacet
  facet normal -0 0 1
    outer loop
      vertex -6.31996 20.5365 10
      vertex -5.62411 17.3092 10
      vertex -5.68893 21.0917 10
    endloop
  endfacet
  facet normal -0 0 1
    outer loop
      vertex -6.73223 20.1738 10
      vertex -5.62411 17.3092 10
      vertex -6.31996 20.5365 10
    endloop
  endfacet
  facet normal -0 0 1
    outer loop
      vertex -7.27114 20.0951 10
      vertex -5.62411 17.3092 10
      vertex -6.73223 20.1738 10
    endloop
  endfacet
  facet normal -0 0 1
    outer loop
      vertex -8.09867 19.9743 10
      vertex -5.62411 17.3092 10
      vertex -7.27114 20.0951 10
    endloop
  endfacet
  facet normal 0 0 1
    outer loop
      vertex -9.1 15.7617 10
      vertex -8.09867 19.9743 10
      vertex -8.85865 20.3267 10
    endloop
  endfacet
  facet normal 0 0 1
    outer loop
      vertex -8.09867 19.9743 10
      vertex -9.1 15.7617 10
      vertex -5.62411 17.3092 10
    endloop
  endfacet
  facet normal 0 0 1
    outer loop
      vertex -9.35441 20.5566 10
      vertex -9.1 15.7617 10
      vertex -8.85865 20.3267 10
    endloop
  endfacet
  facet normal 0 0 1
    outer loop
      vertex -12.1782 13.5252 10
      vertex -9.35441 20.5566 10
      vertex -10.1008 21.7358 10
    endloop
  endfacet
  facet normal 0 0 1
    outer loop
      vertex -9.35441 24.3169 10
      vertex -12.7928 26.5203 10
      vertex -9.65362 23.8441 10
    endloop
  endfacet
  facet normal -0 0 1
    outer loop
      vertex -13.5612 25.2785 10
      vertex -9.65362 23.8441 10
      vertex -12.7928 26.5203 10
    endloop
  endfacet
  facet normal 0 0 1
    outer loop
      vertex -9.65362 23.8441 10
      vertex -13.5612 25.2785 10
      vertex -10.1008 23.1376 10
    endloop
  endfacet
  facet normal 0 -0 1
    outer loop
      vertex -12.1782 13.5252 10
      vertex -10.1008 21.7358 10
      vertex -13.5612 25.2785 10
    endloop
  endfacet
  facet normal 0 0 1
    outer loop
      vertex -10.1008 23.1376 10
      vertex -13.5612 25.2785 10
      vertex -10.1008 21.7358 10
    endloop
  endfacet
  facet normal 0 0 1
    outer loop
      vertex -9.35441 20.5566 10
      vertex -12.1782 13.5252 10
      vertex -9.1 15.7617 10
    endloop
  endfacet
  facet normal 0 0 1
    outer loop
      vertex -20.2807 9.02955 10
      vertex -12.1782 13.5252 10
      vertex -13.5612 25.2785 10
    endloop
  endfacet
  facet normal 0 0 1
    outer loop
      vertex -12.1782 13.5252 10
      vertex -20.2807 9.02955 10
      vertex -14.7241 10.6977 10
    endloop
  endfacet
  facet normal 0 0 1
    outer loop
      vertex -14.7241 10.6977 10
      vertex -20.2807 9.02955 10
      vertex -16.6265 7.40261 10
    endloop
  endfacet
  facet normal -0 0 1
    outer loop
      vertex -21.7149 4.61564 10
      vertex -17.8023 3.78399 10
      vertex -20.2807 9.02955 10
    endloop
  endfacet
  facet normal 0 0 1
    outer loop
      vertex -16.6265 7.40261 10
      vertex -20.2807 9.02955 10
      vertex -17.8023 3.78399 10
    endloop
  endfacet
  facet normal 0 0 -1
    outer loop
      vertex -6.73223 23.7003 -10
      vertex -1.90242 18.1003 -10
      vertex -5.62411 17.3092 -10
    endloop
  endfacet
  facet normal 0 0 -1
    outer loop
      vertex -1.90242 18.1003 -10
      vertex -5.68893 24.6183 -10
      vertex -5.3 25.9633 -10
    endloop
  endfacet
  facet normal 0 0 -1
    outer loop
      vertex -1.90242 18.1003 -10
      vertex -6.10775 24.2498 -10
      vertex -5.68893 24.6183 -10
    endloop
  endfacet
  facet normal 0 0 -1
    outer loop
      vertex -1.90242 18.1003 -10
      vertex -6.73223 23.7003 -10
      vertex -6.10775 24.2498 -10
    endloop
  endfacet
  facet normal 0 0 -1
    outer loop
      vertex -5.62411 17.3092 -10
      vertex -7.54855 23.5811 -10
      vertex -6.73223 23.7003 -10
    endloop
  endfacet
  facet normal 0 0 -1
    outer loop
      vertex -5.62411 17.3092 -10
      vertex -8.09867 23.5008 -10
      vertex -7.54855 23.5811 -10
    endloop
  endfacet
  facet normal 0 0 -1
    outer loop
      vertex -9.1 15.7617 -10
      vertex -8.09867 23.5008 -10
      vertex -5.62411 17.3092 -10
    endloop
  endfacet
  facet normal -0 0 -1
    outer loop
      vertex -8.09867 23.5008 -10
      vertex -9.1 15.7617 -10
      vertex -8.60389 23.7351 -10
    endloop
  endfacet
  facet normal 0 0 -1
    outer loop
      vertex -9.1 15.7617 -10
      vertex -9.35441 24.0831 -10
      vertex -8.60389 23.7351 -10
    endloop
  endfacet
  facet normal 0 0 -1
    outer loop
      vertex -12.1782 13.5252 -10
      vertex -9.35441 24.0831 -10
      vertex -9.1 15.7617 -10
    endloop
  endfacet
  facet normal 0 0 -1
    outer loop
      vertex -14.357 26.6617 -10
      vertex -10.1008 26.6642 -10
      vertex -10.1008 25.2624 -10
    endloop
  endfacet
  facet normal 0 0 -1
    outer loop
      vertex -10.1008 26.6642 -10
      vertex -10.5657 31.8532 -10
      vertex -10.5296 31.8709 -10
    endloop
  endfacet
  facet normal 0 0 -1
    outer loop
      vertex -10.5296 31.8709 -10
      vertex -10.5657 31.8532 -10
      vertex -10.5485 31.8642 -10
    endloop
  endfacet
  facet normal 0 0 -1
    outer loop
      vertex -10.1008 26.6642 -10
      vertex -11.7715 31.0839 -10
      vertex -10.5657 31.8532 -10
    endloop
  endfacet
  facet normal 0 0 -1
    outer loop
      vertex -9.35441 24.0831 -10
      vertex -14.357 26.6617 -10
      vertex -10.1008 25.2624 -10
    endloop
  endfacet
  facet normal -0 0 -1
    outer loop
      vertex -9.35441 24.0831 -10
      vertex -12.1782 13.5252 -10
      vertex -14.357 26.6617 -10
    endloop
  endfacet
  facet normal -0 0 -1
    outer loop
      vertex -10.1008 26.6642 -10
      vertex -14.357 26.6617 -10
      vertex -13.8319 28.1506 -10
    endloop
  endfacet
  facet normal 0 0 -1
    outer loop
      vertex -10.1008 26.6642 -10
      vertex -13.8319 28.1506 -10
      vertex -13.5612 28.805 -10
    endloop
  endfacet
  facet normal 0 0 -1
    outer loop
      vertex -10.1008 26.6642 -10
      vertex -13.5612 28.805 -10
      vertex -12.7928 30.0468 -10
    endloop
  endfacet
  facet normal 0 0 -1
    outer loop
      vertex -10.1008 26.6642 -10
      vertex -12.7928 30.0468 -10
      vertex -11.7715 31.0839 -10
    endloop
  endfacet
  facet normal 0 0 -1
    outer loop
      vertex -20.2807 9.02955 -10
      vertex -12.1782 13.5252 -10
      vertex -14.7241 10.6977 -10
    endloop
  endfacet
  facet normal 0 0 -1
    outer loop
      vertex -20.2807 9.02955 -10
      vertex -14.7241 10.6977 -10
      vertex -16.6265 7.40261 -10
    endloop
  endfacet
  facet normal 0 0 -1
    outer loop
      vertex -20.2807 9.02955 -10
      vertex -16.6265 7.40261 -10
      vertex -17.8023 3.78399 -10
    endloop
  endfacet
  facet normal -0 0 -1
    outer loop
      vertex -17.8023 -3.78399 -10
      vertex -21.7149 -4.61564 -10
      vertex -18.2 0 -10
    endloop
  endfacet
  facet normal 0 0 -1
    outer loop
      vertex -22.2 0 -10
      vertex -18.2 0 -10
      vertex -21.7149 -4.61564 -10
    endloop
  endfacet
  facet normal -0 0 -1
    outer loop
      vertex -12.1782 13.5252 -10
      vertex -20.2807 9.02955 -10
      vertex -14.357 26.6617 -10
    endloop
  endfacet
  facet normal 0 0 -1
    outer loop
      vertex -18.2 0 -10
      vertex -22.2 0 -10
      vertex -17.8023 3.78399 -10
    endloop
  endfacet
  facet normal 0 0 -1
    outer loop
      vertex -17.8023 3.78399 -10
      vertex -21.7149 4.61564 -10
      vertex -20.2807 9.02955 -10
    endloop
  endfacet
  facet normal -0 0 -1
    outer loop
      vertex -17.8023 3.78399 -10
      vertex -22.2 0 -10
      vertex -21.7149 4.61564 -10
    endloop
  endfacet
  facet normal 0 0 -1
    outer loop
      vertex 18.2 0 -10
      vertex 22.2 0 -10
      vertex 21.7149 -4.61564 -10
    endloop
  endfacet
  facet normal 0 0 -1
    outer loop
      vertex 17.8023 -3.78399 -10
      vertex 21.7149 -4.61564 -10
      vertex 20.2807 -9.02955 -10
    endloop
  endfacet
  facet normal 0 0 -1
    outer loop
      vertex 22.2 0 -10
      vertex 18.2 0 -10
      vertex 21.7149 4.61564 -10
    endloop
  endfacet
  facet normal 0 0 -1
    outer loop
      vertex 17.8023 3.78399 -10
      vertex 21.7149 4.61564 -10
      vertex 18.2 0 -10
    endloop
  endfacet
  facet normal 0 0 -1
    outer loop
      vertex 16.6265 -7.40261 -10
      vertex 20.2807 -9.02955 -10
      vertex 17.9602 -13.0488 -10
    endloop
  endfacet
  facet normal 0 0 -1
    outer loop
      vertex 21.7149 -4.61564 -10
      vertex 17.8023 -3.78399 -10
      vertex 18.2 0 -10
    endloop
  endfacet
  facet normal 0 0 -1
    outer loop
      vertex 20.2807 -9.02955 -10
      vertex 16.6265 -7.40261 -10
      vertex 17.8023 -3.78399 -10
    endloop
  endfacet
  facet normal 0 0 -1
    outer loop
      vertex 14.7241 -10.6977 -10
      vertex 17.9602 -13.0488 -10
      vertex 14.8547 -16.4978 -10
    endloop
  endfacet
  facet normal 0 0 -1
    outer loop
      vertex 17.9602 -13.0488 -10
      vertex 14.7241 -10.6977 -10
      vertex 16.6265 -7.40261 -10
    endloop
  endfacet
  facet normal 0 0 -1
    outer loop
      vertex 14.8547 -16.4978 -10
      vertex 12.1782 -13.5252 -10
      vertex 14.7241 -10.6977 -10
    endloop
  endfacet
  facet normal 0 0 -1
    outer loop
      vertex 11.1 -19.2258 -10
      vertex 12.1782 -13.5252 -10
      vertex 14.8547 -16.4978 -10
    endloop
  endfacet
  facet normal 0 0 -1
    outer loop
      vertex 11.1 -19.2258 -10
      vertex 9.1 -15.7617 -10
      vertex 12.1782 -13.5252 -10
    endloop
  endfacet
  facet normal 0 0 -1
    outer loop
      vertex 6.86018 -21.1135 -10
      vertex 9.1 -15.7617 -10
      vertex 11.1 -19.2258 -10
    endloop
  endfacet
  facet normal 0 0 -1
    outer loop
      vertex 6.86018 -21.1135 -10
      vertex 5.62411 -17.3092 -10
      vertex 9.1 -15.7617 -10
    endloop
  endfacet
  facet normal 0 0 -1
    outer loop
      vertex 2.32053 -22.0784 -10
      vertex 5.62411 -17.3092 -10
      vertex 6.86018 -21.1135 -10
    endloop
  endfacet
  facet normal 0 0 -1
    outer loop
      vertex 2.32053 -22.0784 -10
      vertex 1.90242 -18.1003 -10
      vertex 5.62411 -17.3092 -10
    endloop
  endfacet
  facet normal 0 0 -1
    outer loop
      vertex 2.32053 -22.0784 -10
      vertex -1.90242 -18.1003 -10
      vertex 1.90242 -18.1003 -10
    endloop
  endfacet
  facet normal 0 0 -1
    outer loop
      vertex -2.32053 -22.0784 -10
      vertex -1.90242 -18.1003 -10
      vertex 2.32053 -22.0784 -10
    endloop
  endfacet
  facet normal 0 0 -1
    outer loop
      vertex -2.32053 -22.0784 -10
      vertex -5.62411 -17.3092 -10
      vertex -1.90242 -18.1003 -10
    endloop
  endfacet
  facet normal 0 0 -1
    outer loop
      vertex -6.86018 -21.1135 -10
      vertex -5.62411 -17.3092 -10
      vertex -2.32053 -22.0784 -10
    endloop
  endfacet
  facet normal 0 0 -1
    outer loop
      vertex -6.86018 -21.1135 -10
      vertex -9.1 -15.7617 -10
      vertex -5.62411 -17.3092 -10
    endloop
  endfacet
  facet normal 0 0 -1
    outer loop
      vertex -11.1 -19.2258 -10
      vertex -9.1 -15.7617 -10
      vertex -6.86018 -21.1135 -10
    endloop
  endfacet
  facet normal 0 0 -1
    outer loop
      vertex -11.1 -19.2258 -10
      vertex -12.1782 -13.5252 -10
      vertex -9.1 -15.7617 -10
    endloop
  endfacet
  facet normal 0 0 -1
    outer loop
      vertex -14.8547 -16.4978 -10
      vertex -12.1782 -13.5252 -10
      vertex -11.1 -19.2258 -10
    endloop
  endfacet
  facet normal -0 0 -1
    outer loop
      vertex -12.1782 -13.5252 -10
      vertex -14.8547 -16.4978 -10
      vertex -14.7241 -10.6977 -10
    endloop
  endfacet
  facet normal 0 0 -1
    outer loop
      vertex -17.9602 -13.0488 -10
      vertex -14.7241 -10.6977 -10
      vertex -14.8547 -16.4978 -10
    endloop
  endfacet
  facet normal -0 0 -1
    outer loop
      vertex -14.7241 -10.6977 -10
      vertex -17.9602 -13.0488 -10
      vertex -16.6265 -7.40261 -10
    endloop
  endfacet
  facet normal 0 0 -1
    outer loop
      vertex -20.2807 -9.02955 -10
      vertex -16.6265 -7.40261 -10
      vertex -17.9602 -13.0488 -10
    endloop
  endfacet
  facet normal -0 0 -1
    outer loop
      vertex -16.6265 -7.40261 -10
      vertex -20.2807 -9.02955 -10
      vertex -17.8023 -3.78399 -10
    endloop
  endfacet
  facet normal 0 0 -1
    outer loop
      vertex -21.7149 -4.61564 -10
      vertex -17.8023 -3.78399 -10
      vertex -20.2807 -9.02955 -10
    endloop
  endfacet
  facet normal -0 0 -1
    outer loop
      vertex 21.7149 4.61564 -10
      vertex 17.8023 3.78399 -10
      vertex 20.2807 9.02955 -10
    endloop
  endfacet
  facet normal 0 0 -1
    outer loop
      vertex 16.6265 7.40261 -10
      vertex 20.2807 9.02955 -10
      vertex 17.8023 3.78399 -10
    endloop
  endfacet
  facet normal 0 0 -1
    outer loop
      vertex 14.7241 10.6977 -10
      vertex 20.2807 9.02955 -10
      vertex 16.6265 7.40261 -10
    endloop
  endfacet
  facet normal 0 0 -1
    outer loop
      vertex 12.1782 13.5252 -10
      vertex 20.2807 9.02955 -10
      vertex 14.7241 10.6977 -10
    endloop
  endfacet
  facet normal 0 0 -1
    outer loop
      vertex 20.2807 9.02955 -10
      vertex 12.1782 13.5252 -10
      vertex 14.357 26.6617 -10
    endloop
  endfacet
  facet normal 0 0 -1
    outer loop
      vertex 9.81107 24.6183 -10
      vertex 14.357 26.6617 -10
      vertex 12.1782 13.5252 -10
    endloop
  endfacet
  facet normal 0 -0 -1
    outer loop
      vertex 10.2 25.9633 -10
      vertex 14.357 26.6617 -10
      vertex 9.81107 24.6183 -10
    endloop
  endfacet
  facet normal -0 0 -1
    outer loop
      vertex 14.357 26.6617 -10
      vertex 10.2 25.9633 -10
      vertex 13.8319 28.1506 -10
    endloop
  endfacet
  facet normal 0 0 -1
    outer loop
      vertex 9.81107 27.3083 -10
      vertex 13.8319 28.1506 -10
      vertex 10.2 25.9633 -10
    endloop
  endfacet
  facet normal -0 0 -1
    outer loop
      vertex 13.5612 28.805 -10
      vertex 9.81107 27.3083 -10
      vertex 12.7928 30.0468 -10
    endloop
  endfacet
  facet normal 0 0 -1
    outer loop
      vertex 9.39845 27.6713 -10
      vertex 12.7928 30.0468 -10
      vertex 9.81107 27.3083 -10
    endloop
  endfacet
  facet normal -0 0 -1
    outer loop
      vertex 12.7928 30.0468 -10
      vertex 9.39845 27.6713 -10
      vertex 11.7715 31.0839 -10
    endloop
  endfacet
  facet normal 0 0 -1
    outer loop
      vertex 8.76777 28.2262 -10
      vertex 11.7715 31.0839 -10
      vertex 9.39845 27.6713 -10
    endloop
  endfacet
  facet normal -0 0 -1
    outer loop
      vertex 13.8319 28.1506 -10
      vertex 9.81107 27.3083 -10
      vertex 13.5612 28.805 -10
    endloop
  endfacet
  facet normal 0 0 -1
    outer loop
      vertex 9.1 15.7617 -10
      vertex 9.81107 24.6183 -10
      vertex 12.1782 13.5252 -10
    endloop
  endfacet
  facet normal 0 0 -1
    outer loop
      vertex 9.81107 24.6183 -10
      vertex 9.1 15.7617 -10
      vertex 9.39225 24.2498 -10
    endloop
  endfacet
  facet normal 0 0 -1
    outer loop
      vertex 9.1 15.7617 -10
      vertex 8.76777 23.7003 -10
      vertex 9.39225 24.2498 -10
    endloop
  endfacet
  facet normal 0 0 -1
    outer loop
      vertex 9.1 15.7617 -10
      vertex 7.95145 23.5811 -10
      vertex 8.76777 23.7003 -10
    endloop
  endfacet
  facet normal 0 0 -1
    outer loop
      vertex 5.62411 17.3092 -10
      vertex 7.95145 23.5811 -10
      vertex 9.1 15.7617 -10
    endloop
  endfacet
  facet normal 0 0 -1
    outer loop
      vertex 7.95145 23.5811 -10
      vertex 5.62411 17.3092 -10
      vertex 7.40133 23.5008 -10
    endloop
  endfacet
  facet normal -0 0 -1
    outer loop
      vertex 7.40133 23.5008 -10
      vertex 5.62411 17.3092 -10
      vertex 6.89611 23.7351 -10
    endloop
  endfacet
  facet normal -0 0 -1
    outer loop
      vertex 6.89611 23.7351 -10
      vertex 5.62411 17.3092 -10
      vertex 6.14559 24.0831 -10
    endloop
  endfacet
  facet normal 0 0 -1
    outer loop
      vertex 1.90242 18.1003 -10
      vertex 6.14559 24.0831 -10
      vertex 5.62411 17.3092 -10
    endloop
  endfacet
  facet normal 0 0 -1
    outer loop
      vertex -1.90242 18.1003 -10
      vertex 5.39924 25.2624 -10
      vertex 1.90242 18.1003 -10
    endloop
  endfacet
  facet normal -0 0 -1
    outer loop
      vertex 6.14559 24.0831 -10
      vertex 1.90242 18.1003 -10
      vertex 5.39924 25.2624 -10
    endloop
  endfacet
  facet normal -0 0 -1
    outer loop
      vertex 11.7715 31.0839 -10
      vertex 8.76777 28.2262 -10
      vertex 10.5657 31.8532 -10
    endloop
  endfacet
  facet normal 0 -0 -1
    outer loop
      vertex 10.5296 31.8709 -10
      vertex 10.5657 31.8532 -10
      vertex 8.76777 28.2262 -10
    endloop
  endfacet
  facet normal 0 0 -1
    outer loop
      vertex 10.5657 31.8532 -10
      vertex 10.5296 31.8709 -10
      vertex 10.5485 31.8642 -10
    endloop
  endfacet
  facet normal -0 0 -1
    outer loop
      vertex 10.5296 31.8709 -10
      vertex 8.76777 28.2262 -10
      vertex 9.18526 32.3486 -10
    endloop
  endfacet
  facet normal 0 0 -1
    outer loop
      vertex 7.40133 28.4257 -10
      vertex 9.18526 32.3486 -10
      vertex 8.76777 28.2262 -10
    endloop
  endfacet
  facet normal -0 0 -1
    outer loop
      vertex 9.18526 32.3486 -10
      vertex 7.40133 28.4257 -10
      vertex 7.75 32.5128 -10
    endloop
  endfacet
  facet normal 0 0 -1
    outer loop
      vertex 6.64135 28.0733 -10
      vertex 7.75 32.5128 -10
      vertex 7.40133 28.4257 -10
    endloop
  endfacet
  facet normal 0 0 -1
    outer loop
      vertex 6.14559 27.8434 -10
      vertex 7.75 32.5128 -10
      vertex 6.64135 28.0733 -10
    endloop
  endfacet
  facet normal 0 0 -1
    outer loop
      vertex -5.68893 27.3083 -10
      vertex 6.14559 27.8434 -10
      vertex 5.69512 27.1317 -10
    endloop
  endfacet
  facet normal 0 0 -1
    outer loop
      vertex -5.68893 27.3083 -10
      vertex 5.69512 27.1317 -10
      vertex 5.39924 26.6642 -10
    endloop
  endfacet
  facet normal 0 0 -1
    outer loop
      vertex 5.39924 25.2624 -10
      vertex -5.3 25.9633 -10
      vertex 5.39924 26.6642 -10
    endloop
  endfacet
  facet normal -0 0 -1
    outer loop
      vertex 5.39924 25.2624 -10
      vertex -1.90242 18.1003 -10
      vertex -5.3 25.9633 -10
    endloop
  endfacet
  facet normal 0 0 -1
    outer loop
      vertex -5.68893 27.3083 -10
      vertex 5.39924 26.6642 -10
      vertex -5.3 25.9633 -10
    endloop
  endfacet
  facet normal -0 0 -1
    outer loop
      vertex 6.14559 27.8434 -10
      vertex -5.68893 27.3083 -10
      vertex 7.75 32.5128 -10
    endloop
  endfacet
  facet normal 0 0 -1
    outer loop
      vertex -7.75 32.5128 -10
      vertex -5.68893 27.3083 -10
      vertex -6.10155 27.6713 -10
    endloop
  endfacet
  facet normal 0 0 -1
    outer loop
      vertex -7.75 32.5128 -10
      vertex -6.10155 27.6713 -10
      vertex -6.73223 28.2262 -10
    endloop
  endfacet
  facet normal 0 0 -1
    outer loop
      vertex -5.68893 27.3083 -10
      vertex -7.75 32.5128 -10
      vertex 7.75 32.5128 -10
    endloop
  endfacet
  facet normal 0 0 -1
    outer loop
      vertex -8.09867 28.4257 -10
      vertex -7.75 32.5128 -10
      vertex -6.73223 28.2262 -10
    endloop
  endfacet
  facet normal 0 0 -1
    outer loop
      vertex -10.5296 31.8709 -10
      vertex -8.09867 28.4257 -10
      vertex -8.85865 28.0733 -10
    endloop
  endfacet
  facet normal 0 0 -1
    outer loop
      vertex -8.09867 28.4257 -10
      vertex -9.18526 32.3486 -10
      vertex -7.75 32.5128 -10
    endloop
  endfacet
  facet normal 0 0 -1
    outer loop
      vertex -10.5296 31.8709 -10
      vertex -8.85865 28.0733 -10
      vertex -9.35441 27.8434 -10
    endloop
  endfacet
  facet normal 0 0 -1
    outer loop
      vertex -10.5296 31.8709 -10
      vertex -9.35441 27.8434 -10
      vertex -9.80488 27.1317 -10
    endloop
  endfacet
  facet normal 0 0 -1
    outer loop
      vertex -10.5296 31.8709 -10
      vertex -9.80488 27.1317 -10
      vertex -10.1008 26.6642 -10
    endloop
  endfacet
  facet normal 0 0 -1
    outer loop
      vertex -8.09867 28.4257 -10
      vertex -10.5296 31.8709 -10
      vertex -9.18526 32.3486 -10
    endloop
  endfacet
endsolid OpenSCAD_Model
