solid OpenSCAD_Model
  facet normal -0 0 1
    outer loop
      vertex 10.5 11.2 9
      vertex 11.2 10.5 9
      vertex 11.2 11.2 9
    endloop
  endfacet
  facet normal 0 0 1
    outer loop
      vertex 11.2 10.5 9
      vertex 10.5 11.2 9
      vertex 11.2 9.5 9
    endloop
  endfacet
  facet normal 0 0 1
    outer loop
      vertex 11.2 9.5 9
      vertex 9 9 9
      vertex 11.2 5.5 9
    endloop
  endfacet
  facet normal 0 0 1
    outer loop
      vertex 11.2 5.5 9
      vertex 9 9 9
      vertex 11.2 4.5 9
    endloop
  endfacet
  facet normal 0 0 1
    outer loop
      vertex 11.2 4.5 9
      vertex 9 9 9
      vertex 11.2 0.5 9
    endloop
  endfacet
  facet normal 0 0 1
    outer loop
      vertex 11.2 0.5 9
      vertex 9 9 9
      vertex 11.2 -0.5 9
    endloop
  endfacet
  facet normal 0 0 1
    outer loop
      vertex 9 -9 9
      vertex 11.2 -0.5 9
      vertex 9 9 9
    endloop
  endfacet
  facet normal 0 0 1
    outer loop
      vertex 11.2 -0.5 9
      vertex 9 -9 9
      vertex 11.2 -4.5 9
    endloop
  endfacet
  facet normal 0 0 1
    outer loop
      vertex 11.2 -4.5 9
      vertex 9 -9 9
      vertex 11.2 -5.5 9
    endloop
  endfacet
  facet normal 0 0 1
    outer loop
      vertex 11.2 -5.5 9
      vertex 9 -9 9
      vertex 11.2 -9.5 9
    endloop
  endfacet
  facet normal -0 0 1
    outer loop
      vertex 9.5 11.2 9
      vertex 11.2 9.5 9
      vertex 10.5 11.2 9
    endloop
  endfacet
  facet normal 0 -0 1
    outer loop
      vertex 9.5 -11.2 9
      vertex 11.2 -9.5 9
      vertex 9 -9 9
    endloop
  endfacet
  facet normal 0 0 1
    outer loop
      vertex 11.2 9.5 9
      vertex 9.5 11.2 9
      vertex 9 9 9
    endloop
  endfacet
  facet normal 0 0 1
    outer loop
      vertex 11.2 -9.5 9
      vertex 9.5 -11.2 9
      vertex 11.2 -10.5 9
    endloop
  endfacet
  facet normal 0 0 1
    outer loop
      vertex 11.2 -10.5 9
      vertex 10.5 -11.2 9
      vertex 11.2 -11.2 9
    endloop
  endfacet
  facet normal -0 0 1
    outer loop
      vertex 5.5 11.2 9
      vertex 9 9 9
      vertex 9.5 11.2 9
    endloop
  endfacet
  facet normal -0 0 1
    outer loop
      vertex 4.5 11.2 9
      vertex 9 9 9
      vertex 5.5 11.2 9
    endloop
  endfacet
  facet normal -0 0 1
    outer loop
      vertex 0.5 11.2 9
      vertex 9 9 9
      vertex 4.5 11.2 9
    endloop
  endfacet
  facet normal -0 0 1
    outer loop
      vertex -0.5 11.2 9
      vertex 9 9 9
      vertex 0.5 11.2 9
    endloop
  endfacet
  facet normal 0 0 1
    outer loop
      vertex -9 9 9
      vertex -0.5 11.2 9
      vertex -4.5 11.2 9
    endloop
  endfacet
  facet normal 0 0 1
    outer loop
      vertex -9 9 9
      vertex -4.5 11.2 9
      vertex -5.5 11.2 9
    endloop
  endfacet
  facet normal 0 0 1
    outer loop
      vertex -0.5 11.2 9
      vertex -9 9 9
      vertex 9 9 9
    endloop
  endfacet
  facet normal -0 0 1
    outer loop
      vertex -11.2 9.5 9
      vertex -9 9 9
      vertex -9.5 11.2 9
    endloop
  endfacet
  facet normal -0 0 1
    outer loop
      vertex -9.5 11.2 9
      vertex -9 9 9
      vertex -5.5 11.2 9
    endloop
  endfacet
  facet normal 0 0 1
    outer loop
      vertex 11.2 -10.5 9
      vertex 9.5 -11.2 9
      vertex 10.5 -11.2 9
    endloop
  endfacet
  facet normal 0 0 1
    outer loop
      vertex 9 -9 9
      vertex 5.5 -11.2 9
      vertex 9.5 -11.2 9
    endloop
  endfacet
  facet normal 0 0 1
    outer loop
      vertex 9 -9 9
      vertex 4.5 -11.2 9
      vertex 5.5 -11.2 9
    endloop
  endfacet
  facet normal 0 0 1
    outer loop
      vertex 9 -9 9
      vertex 0.5 -11.2 9
      vertex 4.5 -11.2 9
    endloop
  endfacet
  facet normal 0 0 1
    outer loop
      vertex 9 -9 9
      vertex -0.5 -11.2 9
      vertex 0.5 -11.2 9
    endloop
  endfacet
  facet normal -0 0 1
    outer loop
      vertex -9 -9 9
      vertex -0.5 -11.2 9
      vertex 9 -9 9
    endloop
  endfacet
  facet normal 0 0 1
    outer loop
      vertex -0.5 -11.2 9
      vertex -9 -9 9
      vertex -4.5 -11.2 9
    endloop
  endfacet
  facet normal 0 0 1
    outer loop
      vertex -4.5 -11.2 9
      vertex -9 -9 9
      vertex -5.5 -11.2 9
    endloop
  endfacet
  facet normal 0 0 1
    outer loop
      vertex -9 -9 9
      vertex -9.5 -11.2 9
      vertex -5.5 -11.2 9
    endloop
  endfacet
  facet normal 0 0 1
    outer loop
      vertex -9 9 9
      vertex -11.2 0.5 9
      vertex -9 -9 9
    endloop
  endfacet
  facet normal 0 0 1
    outer loop
      vertex -11.2 9.5 9
      vertex -9.5 11.2 9
      vertex -10.5 11.2 9
    endloop
  endfacet
  facet normal -0 0 1
    outer loop
      vertex -11.2 -0.5 9
      vertex -9 -9 9
      vertex -11.2 0.5 9
    endloop
  endfacet
  facet normal 0 0 1
    outer loop
      vertex -11.2 10.5 9
      vertex -10.5 11.2 9
      vertex -11.2 11.2 9
    endloop
  endfacet
  facet normal 0 0 1
    outer loop
      vertex -11.2 9.5 9
      vertex -10.5 11.2 9
      vertex -11.2 10.5 9
    endloop
  endfacet
  facet normal 0 0 1
    outer loop
      vertex -9 9 9
      vertex -11.2 9.5 9
      vertex -11.2 5.5 9
    endloop
  endfacet
  facet normal 0 0 1
    outer loop
      vertex -9 9 9
      vertex -11.2 5.5 9
      vertex -11.2 4.5 9
    endloop
  endfacet
  facet normal 0 0 1
    outer loop
      vertex -9 9 9
      vertex -11.2 4.5 9
      vertex -11.2 0.5 9
    endloop
  endfacet
  facet normal -0 0 1
    outer loop
      vertex -11.2 -4.5 9
      vertex -9 -9 9
      vertex -11.2 -0.5 9
    endloop
  endfacet
  facet normal -0 0 1
    outer loop
      vertex -11.2 -5.5 9
      vertex -9 -9 9
      vertex -11.2 -4.5 9
    endloop
  endfacet
  facet normal 0 0 1
    outer loop
      vertex -11.2 -9.5 9
      vertex -9 -9 9
      vertex -11.2 -5.5 9
    endloop
  endfacet
  facet normal 0 0 1
    outer loop
      vertex -9 -9 9
      vertex -11.2 -9.5 9
      vertex -9.5 -11.2 9
    endloop
  endfacet
  facet normal 0 0 1
    outer loop
      vertex -9.5 -11.2 9
      vertex -11.2 -9.5 9
      vertex -10.5 -11.2 9
    endloop
  endfacet
  facet normal -0 0 1
    outer loop
      vertex -11.2 -10.5 9
      vertex -10.5 -11.2 9
      vertex -11.2 -9.5 9
    endloop
  endfacet
  facet normal 0 0 1
    outer loop
      vertex -10.5 -11.2 9
      vertex -11.2 -10.5 9
      vertex -11.2 -11.2 9
    endloop
  endfacet
  facet normal 0 -1 -0
    outer loop
      vertex -11.2 -10.5 9
      vertex -11.475 -10.5 3.5
      vertex -11.2 -10.5 3.5
    endloop
  endfacet
  facet normal 0 -1 0
    outer loop
      vertex 11.2 -10.5 9
      vertex 11.2 -10.5 3.5
      vertex 11.475 -10.5 3.5
    endloop
  endfacet
  facet normal 0.998752 -0 0.0499377
    outer loop
      vertex 11.2 -10.5 9
      vertex 11.475 -9.5 3.5
      vertex 11.2 -9.5 9
    endloop
  endfacet
  facet normal 0.998752 0 0.0499377
    outer loop
      vertex 11.475 -9.5 3.5
      vertex 11.2 -10.5 9
      vertex 11.475 -10.5 3.5
    endloop
  endfacet
  facet normal -0.998752 0 0.0499377
    outer loop
      vertex -11.475 -10.5 3.5
      vertex -11.2 -9.5 9
      vertex -11.475 -9.5 3.5
    endloop
  endfacet
  facet normal -0.998752 0 0.0499377
    outer loop
      vertex -11.2 -9.5 9
      vertex -11.475 -10.5 3.5
      vertex -11.2 -10.5 9
    endloop
  endfacet
  facet normal 0 1 -0
    outer loop
      vertex -11.2 -9.5 3.5
      vertex -11.475 -9.5 3.5
      vertex -11.2 -9.5 9
    endloop
  endfacet
  facet normal 0 1 0
    outer loop
      vertex 11.475 -9.5 3.5
      vertex 11.2 -9.5 3.5
      vertex 11.2 -9.5 9
    endloop
  endfacet
  facet normal 0 -1 -0
    outer loop
      vertex -11.2 -5.5 9
      vertex -11.475 -5.5 3.5
      vertex -11.2 -5.5 3.5
    endloop
  endfacet
  facet normal 0 -1 0
    outer loop
      vertex 11.2 -5.5 9
      vertex 11.2 -5.5 3.5
      vertex 11.475 -5.5 3.5
    endloop
  endfacet
  facet normal 0.998752 -0 0.0499377
    outer loop
      vertex 11.2 -5.5 9
      vertex 11.475 -4.5 3.5
      vertex 11.2 -4.5 9
    endloop
  endfacet
  facet normal 0.998752 0 0.0499377
    outer loop
      vertex 11.475 -4.5 3.5
      vertex 11.2 -5.5 9
      vertex 11.475 -5.5 3.5
    endloop
  endfacet
  facet normal -0.998752 0 0.0499377
    outer loop
      vertex -11.475 -5.5 3.5
      vertex -11.2 -4.5 9
      vertex -11.475 -4.5 3.5
    endloop
  endfacet
  facet normal -0.998752 0 0.0499377
    outer loop
      vertex -11.2 -4.5 9
      vertex -11.475 -5.5 3.5
      vertex -11.2 -5.5 9
    endloop
  endfacet
  facet normal 0 1 -0
    outer loop
      vertex -11.2 -4.5 3.5
      vertex -11.475 -4.5 3.5
      vertex -11.2 -4.5 9
    endloop
  endfacet
  facet normal 0 1 0
    outer loop
      vertex 11.475 -4.5 3.5
      vertex 11.2 -4.5 3.5
      vertex 11.2 -4.5 9
    endloop
  endfacet
  facet normal 0 -1 -0
    outer loop
      vertex -11.2 -0.5 9
      vertex -11.475 -0.5 3.5
      vertex -11.2 -0.5 3.5
    endloop
  endfacet
  facet normal 0 -1 0
    outer loop
      vertex 11.2 -0.5 9
      vertex 11.2 -0.5 3.5
      vertex 11.475 -0.5 3.5
    endloop
  endfacet
  facet normal 0.998752 -0 0.0499377
    outer loop
      vertex 11.2 -0.5 9
      vertex 11.475 0.5 3.5
      vertex 11.2 0.5 9
    endloop
  endfacet
  facet normal 0.998752 0 0.0499377
    outer loop
      vertex 11.475 0.5 3.5
      vertex 11.2 -0.5 9
      vertex 11.475 -0.5 3.5
    endloop
  endfacet
  facet normal -0.998752 0 0.0499377
    outer loop
      vertex -11.475 -0.5 3.5
      vertex -11.2 0.5 9
      vertex -11.475 0.5 3.5
    endloop
  endfacet
  facet normal -0.998752 0 0.0499377
    outer loop
      vertex -11.2 0.5 9
      vertex -11.475 -0.5 3.5
      vertex -11.2 -0.5 9
    endloop
  endfacet
  facet normal 0 1 -0
    outer loop
      vertex -11.2 0.5 3.5
      vertex -11.475 0.5 3.5
      vertex -11.2 0.5 9
    endloop
  endfacet
  facet normal 0 1 0
    outer loop
      vertex 11.475 0.5 3.5
      vertex 11.2 0.5 3.5
      vertex 11.2 0.5 9
    endloop
  endfacet
  facet normal 0 -1 -0
    outer loop
      vertex -11.2 4.5 9
      vertex -11.475 4.5 3.5
      vertex -11.2 4.5 3.5
    endloop
  endfacet
  facet normal 0 -1 0
    outer loop
      vertex 11.2 4.5 9
      vertex 11.2 4.5 3.5
      vertex 11.475 4.5 3.5
    endloop
  endfacet
  facet normal 0.998752 -0 0.0499377
    outer loop
      vertex 11.2 4.5 9
      vertex 11.475 5.5 3.5
      vertex 11.2 5.5 9
    endloop
  endfacet
  facet normal 0.998752 0 0.0499377
    outer loop
      vertex 11.475 5.5 3.5
      vertex 11.2 4.5 9
      vertex 11.475 4.5 3.5
    endloop
  endfacet
  facet normal -0.998752 0 0.0499377
    outer loop
      vertex -11.475 4.5 3.5
      vertex -11.2 5.5 9
      vertex -11.475 5.5 3.5
    endloop
  endfacet
  facet normal -0.998752 0 0.0499377
    outer loop
      vertex -11.2 5.5 9
      vertex -11.475 4.5 3.5
      vertex -11.2 4.5 9
    endloop
  endfacet
  facet normal 0 1 -0
    outer loop
      vertex -11.2 5.5 3.5
      vertex -11.475 5.5 3.5
      vertex -11.2 5.5 9
    endloop
  endfacet
  facet normal 0 1 0
    outer loop
      vertex 11.475 5.5 3.5
      vertex 11.2 5.5 3.5
      vertex 11.2 5.5 9
    endloop
  endfacet
  facet normal 0 -1 -0
    outer loop
      vertex -11.2 9.5 9
      vertex -11.475 9.5 3.5
      vertex -11.2 9.5 3.5
    endloop
  endfacet
  facet normal 0 -1 0
    outer loop
      vertex 11.2 9.5 9
      vertex 11.2 9.5 3.5
      vertex 11.475 9.5 3.5
    endloop
  endfacet
  facet normal 0.998752 -0 0.0499377
    outer loop
      vertex 11.2 9.5 9
      vertex 11.475 10.5 3.5
      vertex 11.2 10.5 9
    endloop
  endfacet
  facet normal 0.998752 0 0.0499377
    outer loop
      vertex 11.475 10.5 3.5
      vertex 11.2 9.5 9
      vertex 11.475 9.5 3.5
    endloop
  endfacet
  facet normal -0.998752 0 0.0499377
    outer loop
      vertex -11.475 9.5 3.5
      vertex -11.2 10.5 9
      vertex -11.475 10.5 3.5
    endloop
  endfacet
  facet normal -0.998752 0 0.0499377
    outer loop
      vertex -11.2 10.5 9
      vertex -11.475 9.5 3.5
      vertex -11.2 9.5 9
    endloop
  endfacet
  facet normal 0 1 -0
    outer loop
      vertex -11.2 10.5 3.5
      vertex -11.475 10.5 3.5
      vertex -11.2 10.5 9
    endloop
  endfacet
  facet normal 0 1 0
    outer loop
      vertex 11.475 10.5 3.5
      vertex 11.2 10.5 3.5
      vertex 11.2 10.5 9
    endloop
  endfacet
  facet normal 0 -0.998752 0.0499377
    outer loop
      vertex -10.5 -11.475 3.5
      vertex -9.5 -11.2 9
      vertex -10.5 -11.2 9
    endloop
  endfacet
  facet normal 0 -0.998752 0.0499377
    outer loop
      vertex -9.5 -11.2 9
      vertex -10.5 -11.475 3.5
      vertex -9.5 -11.475 3.5
    endloop
  endfacet
  facet normal -1 0 0
    outer loop
      vertex -10.5 -11.2 3.5
      vertex -10.5 -11.475 3.5
      vertex -10.5 -11.2 9
    endloop
  endfacet
  facet normal -1 0 0
    outer loop
      vertex -10.5 11.475 3.5
      vertex -10.5 11.2 3.5
      vertex -10.5 11.2 9
    endloop
  endfacet
  facet normal 0 0.998752 0.0499377
    outer loop
      vertex -9.5 11.475 3.5
      vertex -10.5 11.2 9
      vertex -9.5 11.2 9
    endloop
  endfacet
  facet normal 0 0.998752 0.0499377
    outer loop
      vertex -10.5 11.2 9
      vertex -9.5 11.475 3.5
      vertex -10.5 11.475 3.5
    endloop
  endfacet
  facet normal 1 0 0
    outer loop
      vertex -9.5 -11.2 9
      vertex -9.5 -11.475 3.5
      vertex -9.5 -11.2 3.5
    endloop
  endfacet
  facet normal 1 0 0
    outer loop
      vertex -9.5 11.2 9
      vertex -9.5 11.2 3.5
      vertex -9.5 11.475 3.5
    endloop
  endfacet
  facet normal 0 -0.998752 0.0499377
    outer loop
      vertex -5.5 -11.475 3.5
      vertex -4.5 -11.2 9
      vertex -5.5 -11.2 9
    endloop
  endfacet
  facet normal 0 -0.998752 0.0499377
    outer loop
      vertex -4.5 -11.2 9
      vertex -5.5 -11.475 3.5
      vertex -4.5 -11.475 3.5
    endloop
  endfacet
  facet normal -1 0 0
    outer loop
      vertex -5.5 -11.2 3.5
      vertex -5.5 -11.475 3.5
      vertex -5.5 -11.2 9
    endloop
  endfacet
  facet normal -1 0 0
    outer loop
      vertex -5.5 11.475 3.5
      vertex -5.5 11.2 3.5
      vertex -5.5 11.2 9
    endloop
  endfacet
  facet normal 0 0.998752 0.0499377
    outer loop
      vertex -4.5 11.475 3.5
      vertex -5.5 11.2 9
      vertex -4.5 11.2 9
    endloop
  endfacet
  facet normal 0 0.998752 0.0499377
    outer loop
      vertex -5.5 11.2 9
      vertex -4.5 11.475 3.5
      vertex -5.5 11.475 3.5
    endloop
  endfacet
  facet normal 1 0 0
    outer loop
      vertex -4.5 -11.2 9
      vertex -4.5 -11.475 3.5
      vertex -4.5 -11.2 3.5
    endloop
  endfacet
  facet normal 1 0 0
    outer loop
      vertex -4.5 11.2 9
      vertex -4.5 11.2 3.5
      vertex -4.5 11.475 3.5
    endloop
  endfacet
  facet normal 0 -0.998752 0.0499377
    outer loop
      vertex -0.5 -11.475 3.5
      vertex 0.5 -11.2 9
      vertex -0.5 -11.2 9
    endloop
  endfacet
  facet normal 0 -0.998752 0.0499377
    outer loop
      vertex 0.5 -11.2 9
      vertex -0.5 -11.475 3.5
      vertex 0.5 -11.475 3.5
    endloop
  endfacet
  facet normal -1 0 0
    outer loop
      vertex -0.5 -11.2 3.5
      vertex -0.5 -11.475 3.5
      vertex -0.5 -11.2 9
    endloop
  endfacet
  facet normal -1 0 0
    outer loop
      vertex -0.5 11.475 3.5
      vertex -0.5 11.2 3.5
      vertex -0.5 11.2 9
    endloop
  endfacet
  facet normal 0 0.998752 0.0499377
    outer loop
      vertex 0.5 11.475 3.5
      vertex -0.5 11.2 9
      vertex 0.5 11.2 9
    endloop
  endfacet
  facet normal 0 0.998752 0.0499377
    outer loop
      vertex -0.5 11.2 9
      vertex 0.5 11.475 3.5
      vertex -0.5 11.475 3.5
    endloop
  endfacet
  facet normal 1 0 0
    outer loop
      vertex 0.5 -11.2 9
      vertex 0.5 -11.475 3.5
      vertex 0.5 -11.2 3.5
    endloop
  endfacet
  facet normal 1 0 0
    outer loop
      vertex 0.5 11.2 9
      vertex 0.5 11.2 3.5
      vertex 0.5 11.475 3.5
    endloop
  endfacet
  facet normal 0 -0.998752 0.0499377
    outer loop
      vertex 4.5 -11.475 3.5
      vertex 5.5 -11.2 9
      vertex 4.5 -11.2 9
    endloop
  endfacet
  facet normal 0 -0.998752 0.0499377
    outer loop
      vertex 5.5 -11.2 9
      vertex 4.5 -11.475 3.5
      vertex 5.5 -11.475 3.5
    endloop
  endfacet
  facet normal -1 0 0
    outer loop
      vertex 4.5 -11.2 3.5
      vertex 4.5 -11.475 3.5
      vertex 4.5 -11.2 9
    endloop
  endfacet
  facet normal -1 0 0
    outer loop
      vertex 4.5 11.475 3.5
      vertex 4.5 11.2 3.5
      vertex 4.5 11.2 9
    endloop
  endfacet
  facet normal 0 0.998752 0.0499377
    outer loop
      vertex 5.5 11.475 3.5
      vertex 4.5 11.2 9
      vertex 5.5 11.2 9
    endloop
  endfacet
  facet normal 0 0.998752 0.0499377
    outer loop
      vertex 4.5 11.2 9
      vertex 5.5 11.475 3.5
      vertex 4.5 11.475 3.5
    endloop
  endfacet
  facet normal 1 0 0
    outer loop
      vertex 5.5 -11.2 9
      vertex 5.5 -11.475 3.5
      vertex 5.5 -11.2 3.5
    endloop
  endfacet
  facet normal 1 0 0
    outer loop
      vertex 5.5 11.2 9
      vertex 5.5 11.2 3.5
      vertex 5.5 11.475 3.5
    endloop
  endfacet
  facet normal 0 -0.998752 0.0499377
    outer loop
      vertex 9.5 -11.475 3.5
      vertex 10.5 -11.2 9
      vertex 9.5 -11.2 9
    endloop
  endfacet
  facet normal 0 -0.998752 0.0499377
    outer loop
      vertex 10.5 -11.2 9
      vertex 9.5 -11.475 3.5
      vertex 10.5 -11.475 3.5
    endloop
  endfacet
  facet normal -1 0 0
    outer loop
      vertex 9.5 -11.2 3.5
      vertex 9.5 -11.475 3.5
      vertex 9.5 -11.2 9
    endloop
  endfacet
  facet normal -1 0 0
    outer loop
      vertex 9.5 11.475 3.5
      vertex 9.5 11.2 3.5
      vertex 9.5 11.2 9
    endloop
  endfacet
  facet normal 0 0.998752 0.0499377
    outer loop
      vertex 10.5 11.475 3.5
      vertex 9.5 11.2 9
      vertex 10.5 11.2 9
    endloop
  endfacet
  facet normal 0 0.998752 0.0499377
    outer loop
      vertex 9.5 11.2 9
      vertex 10.5 11.475 3.5
      vertex 9.5 11.475 3.5
    endloop
  endfacet
  facet normal 1 0 0
    outer loop
      vertex 10.5 -11.2 9
      vertex 10.5 -11.475 3.5
      vertex 10.5 -11.2 3.5
    endloop
  endfacet
  facet normal 1 0 0
    outer loop
      vertex 10.5 11.2 9
      vertex 10.5 11.2 3.5
      vertex 10.5 11.475 3.5
    endloop
  endfacet
  facet normal -1 0 0
    outer loop
      vertex -11.2 5.5 3.5
      vertex -11.2 9.5 9
      vertex -11.2 9.5 3.5
    endloop
  endfacet
  facet normal -1 -0 0
    outer loop
      vertex -11.2 9.5 9
      vertex -11.2 5.5 3.5
      vertex -11.2 5.5 9
    endloop
  endfacet
  facet normal -1 0 0
    outer loop
      vertex -11.2 10.5 3.5
      vertex -11.2 11.2 9
      vertex -11.2 11.2 3.5
    endloop
  endfacet
  facet normal -1 -0 0
    outer loop
      vertex -11.2 11.2 9
      vertex -11.2 10.5 3.5
      vertex -11.2 10.5 9
    endloop
  endfacet
  facet normal -1 0 0
    outer loop
      vertex -11.2 0.5 3.5
      vertex -11.2 4.5 9
      vertex -11.2 4.5 3.5
    endloop
  endfacet
  facet normal -1 -0 0
    outer loop
      vertex -11.2 4.5 9
      vertex -11.2 0.5 3.5
      vertex -11.2 0.5 9
    endloop
  endfacet
  facet normal -1 0 0
    outer loop
      vertex -11.2 -4.5 3.5
      vertex -11.2 -0.5 9
      vertex -11.2 -0.5 3.5
    endloop
  endfacet
  facet normal -1 -0 0
    outer loop
      vertex -11.2 -0.5 9
      vertex -11.2 -4.5 3.5
      vertex -11.2 -4.5 9
    endloop
  endfacet
  facet normal -1 0 0
    outer loop
      vertex -11.2 -9.5 3.5
      vertex -11.2 -5.5 9
      vertex -11.2 -5.5 3.5
    endloop
  endfacet
  facet normal -1 -0 0
    outer loop
      vertex -11.2 -5.5 9
      vertex -11.2 -9.5 3.5
      vertex -11.2 -9.5 9
    endloop
  endfacet
  facet normal -1 0 0
    outer loop
      vertex -11.2 -11.2 3.5
      vertex -11.2 -10.5 9
      vertex -11.2 -10.5 3.5
    endloop
  endfacet
  facet normal -1 -0 0
    outer loop
      vertex -11.2 -10.5 9
      vertex -11.2 -11.2 3.5
      vertex -11.2 -11.2 9
    endloop
  endfacet
  facet normal 1 -0 0
    outer loop
      vertex 11.2 10.5 9
      vertex 11.2 11.2 3.5
      vertex 11.2 11.2 9
    endloop
  endfacet
  facet normal 1 0 0
    outer loop
      vertex 11.2 11.2 3.5
      vertex 11.2 10.5 9
      vertex 11.2 10.5 3.5
    endloop
  endfacet
  facet normal 1 -0 0
    outer loop
      vertex 11.2 5.5 9
      vertex 11.2 9.5 3.5
      vertex 11.2 9.5 9
    endloop
  endfacet
  facet normal 1 0 0
    outer loop
      vertex 11.2 9.5 3.5
      vertex 11.2 5.5 9
      vertex 11.2 5.5 3.5
    endloop
  endfacet
  facet normal 1 -0 0
    outer loop
      vertex 11.2 0.5 9
      vertex 11.2 4.5 3.5
      vertex 11.2 4.5 9
    endloop
  endfacet
  facet normal 1 0 0
    outer loop
      vertex 11.2 4.5 3.5
      vertex 11.2 0.5 9
      vertex 11.2 0.5 3.5
    endloop
  endfacet
  facet normal 1 -0 0
    outer loop
      vertex 11.2 -4.5 9
      vertex 11.2 -0.5 3.5
      vertex 11.2 -0.5 9
    endloop
  endfacet
  facet normal 1 0 0
    outer loop
      vertex 11.2 -0.5 3.5
      vertex 11.2 -4.5 9
      vertex 11.2 -4.5 3.5
    endloop
  endfacet
  facet normal 1 -0 0
    outer loop
      vertex 11.2 -9.5 9
      vertex 11.2 -5.5 3.5
      vertex 11.2 -5.5 9
    endloop
  endfacet
  facet normal 1 0 0
    outer loop
      vertex 11.2 -5.5 3.5
      vertex 11.2 -9.5 9
      vertex 11.2 -9.5 3.5
    endloop
  endfacet
  facet normal 1 -0 0
    outer loop
      vertex 11.2 -11.2 9
      vertex 11.2 -10.5 3.5
      vertex 11.2 -10.5 9
    endloop
  endfacet
  facet normal 1 0 0
    outer loop
      vertex 11.2 -10.5 3.5
      vertex 11.2 -11.2 9
      vertex 11.2 -11.2 3.5
    endloop
  endfacet
  facet normal 0 -1 0
    outer loop
      vertex 5.5 -11.2 3.5
      vertex 9.5 -11.2 9
      vertex 5.5 -11.2 9
    endloop
  endfacet
  facet normal 0 -1 -0
    outer loop
      vertex 9.5 -11.2 9
      vertex 5.5 -11.2 3.5
      vertex 9.5 -11.2 3.5
    endloop
  endfacet
  facet normal 0 -1 0
    outer loop
      vertex 10.5 -11.2 3.5
      vertex 11.2 -11.2 9
      vertex 10.5 -11.2 9
    endloop
  endfacet
  facet normal 0 -1 -0
    outer loop
      vertex 11.2 -11.2 9
      vertex 10.5 -11.2 3.5
      vertex 11.2 -11.2 3.5
    endloop
  endfacet
  facet normal 0 -1 0
    outer loop
      vertex 0.5 -11.2 3.5
      vertex 4.5 -11.2 9
      vertex 0.5 -11.2 9
    endloop
  endfacet
  facet normal 0 -1 -0
    outer loop
      vertex 4.5 -11.2 9
      vertex 0.5 -11.2 3.5
      vertex 4.5 -11.2 3.5
    endloop
  endfacet
  facet normal 0 -1 0
    outer loop
      vertex -4.5 -11.2 3.5
      vertex -0.5 -11.2 9
      vertex -4.5 -11.2 9
    endloop
  endfacet
  facet normal 0 -1 -0
    outer loop
      vertex -0.5 -11.2 9
      vertex -4.5 -11.2 3.5
      vertex -0.5 -11.2 3.5
    endloop
  endfacet
  facet normal 0 -1 0
    outer loop
      vertex -9.5 -11.2 3.5
      vertex -5.5 -11.2 9
      vertex -9.5 -11.2 9
    endloop
  endfacet
  facet normal 0 -1 -0
    outer loop
      vertex -5.5 -11.2 9
      vertex -9.5 -11.2 3.5
      vertex -5.5 -11.2 3.5
    endloop
  endfacet
  facet normal 0 -1 0
    outer loop
      vertex -11.2 -11.2 3.5
      vertex -10.5 -11.2 9
      vertex -11.2 -11.2 9
    endloop
  endfacet
  facet normal 0 -1 -0
    outer loop
      vertex -10.5 -11.2 9
      vertex -11.2 -11.2 3.5
      vertex -10.5 -11.2 3.5
    endloop
  endfacet
  facet normal 0 1 -0
    outer loop
      vertex 11.2 11.2 3.5
      vertex 10.5 11.2 9
      vertex 11.2 11.2 9
    endloop
  endfacet
  facet normal 0 1 0
    outer loop
      vertex 10.5 11.2 9
      vertex 11.2 11.2 3.5
      vertex 10.5 11.2 3.5
    endloop
  endfacet
  facet normal 0 1 -0
    outer loop
      vertex 9.5 11.2 3.5
      vertex 5.5 11.2 9
      vertex 9.5 11.2 9
    endloop
  endfacet
  facet normal 0 1 0
    outer loop
      vertex 5.5 11.2 9
      vertex 9.5 11.2 3.5
      vertex 5.5 11.2 3.5
    endloop
  endfacet
  facet normal 0 1 -0
    outer loop
      vertex 4.5 11.2 3.5
      vertex 0.5 11.2 9
      vertex 4.5 11.2 9
    endloop
  endfacet
  facet normal 0 1 0
    outer loop
      vertex 0.5 11.2 9
      vertex 4.5 11.2 3.5
      vertex 0.5 11.2 3.5
    endloop
  endfacet
  facet normal 0 1 -0
    outer loop
      vertex -0.5 11.2 3.5
      vertex -4.5 11.2 9
      vertex -0.5 11.2 9
    endloop
  endfacet
  facet normal 0 1 0
    outer loop
      vertex -4.5 11.2 9
      vertex -0.5 11.2 3.5
      vertex -4.5 11.2 3.5
    endloop
  endfacet
  facet normal 0 1 -0
    outer loop
      vertex -5.5 11.2 3.5
      vertex -9.5 11.2 9
      vertex -5.5 11.2 9
    endloop
  endfacet
  facet normal 0 1 0
    outer loop
      vertex -9.5 11.2 9
      vertex -5.5 11.2 3.5
      vertex -9.5 11.2 3.5
    endloop
  endfacet
  facet normal 0 1 -0
    outer loop
      vertex -10.5 11.2 3.5
      vertex -11.2 11.2 9
      vertex -10.5 11.2 9
    endloop
  endfacet
  facet normal 0 1 0
    outer loop
      vertex -11.2 11.2 9
      vertex -10.5 11.2 3.5
      vertex -11.2 11.2 3.5
    endloop
  endfacet
  facet normal 1 -0 0
    outer loop
      vertex -9 -9 9
      vertex -9 9 3.5
      vertex -9 9 9
    endloop
  endfacet
  facet normal 1 0 0
    outer loop
      vertex -9 9 3.5
      vertex -9 -9 9
      vertex -9 -9 3.5
    endloop
  endfacet
  facet normal -1 0 0
    outer loop
      vertex 9 -9 3.5
      vertex 9 9 9
      vertex 9 9 3.5
    endloop
  endfacet
  facet normal -1 -0 0
    outer loop
      vertex 9 9 9
      vertex 9 -9 3.5
      vertex 9 -9 9
    endloop
  endfacet
  facet normal 0 -1 0
    outer loop
      vertex -9 9 3.5
      vertex 9 9 9
      vertex -9 9 9
    endloop
  endfacet
  facet normal 0 -1 -0
    outer loop
      vertex 9 9 9
      vertex -9 9 3.5
      vertex 9 9 3.5
    endloop
  endfacet
  facet normal 0 1 -0
    outer loop
      vertex 9 -9 3.5
      vertex -9 -9 9
      vertex 9 -9 9
    endloop
  endfacet
  facet normal 0 1 0
    outer loop
      vertex -9 -9 9
      vertex 9 -9 3.5
      vertex -9 -9 3.5
    endloop
  endfacet
  facet normal 0 0 1
    outer loop
      vertex -11.2 -10.5 3.5
      vertex -11.475 -10.5 3.5
      vertex -11.2 -11.2 3.5
    endloop
  endfacet
  facet normal 0 0 1
    outer loop
      vertex -10.5 -11.2 3.5
      vertex -11.2 -11.2 3.5
      vertex -10.5 -11.475 3.5
    endloop
  endfacet
  facet normal 0 0 1
    outer loop
      vertex -5.5 -11.2 3.5
      vertex -9.5 -11.2 3.5
      vertex -5.5 -11.475 3.5
    endloop
  endfacet
  facet normal 0 0 1
    outer loop
      vertex -0.5 -11.2 3.5
      vertex -4.5 -11.2 3.5
      vertex -0.5 -11.475 3.5
    endloop
  endfacet
  facet normal 0 0 1
    outer loop
      vertex 4.5 -11.2 3.5
      vertex 0.5 -11.2 3.5
      vertex 4.5 -11.475 3.5
    endloop
  endfacet
  facet normal 0 0 1
    outer loop
      vertex 9.5 -11.2 3.5
      vertex 5.5 -11.2 3.5
      vertex 9.5 -11.475 3.5
    endloop
  endfacet
  facet normal -0 0 1
    outer loop
      vertex 11.2 -5.5 3.5
      vertex 11.475 -9.5 3.5
      vertex 11.475 -5.5 3.5
    endloop
  endfacet
  facet normal 0 0 1
    outer loop
      vertex 11.475 -9.5 3.5
      vertex 11.2 -5.5 3.5
      vertex 11.2 -9.5 3.5
    endloop
  endfacet
  facet normal -0 0 1
    outer loop
      vertex 11.2 -0.5 3.5
      vertex 11.475 -4.5 3.5
      vertex 11.475 -0.5 3.5
    endloop
  endfacet
  facet normal 0 0 1
    outer loop
      vertex 11.475 -4.5 3.5
      vertex 11.2 -0.5 3.5
      vertex 11.2 -4.5 3.5
    endloop
  endfacet
  facet normal -0 0 1
    outer loop
      vertex 11.2 4.5 3.5
      vertex 11.475 0.5 3.5
      vertex 11.475 4.5 3.5
    endloop
  endfacet
  facet normal 0 0 1
    outer loop
      vertex 11.475 0.5 3.5
      vertex 11.2 4.5 3.5
      vertex 11.2 0.5 3.5
    endloop
  endfacet
  facet normal -0 0 1
    outer loop
      vertex 11.2 9.5 3.5
      vertex 11.475 5.5 3.5
      vertex 11.475 9.5 3.5
    endloop
  endfacet
  facet normal 0 0 1
    outer loop
      vertex 11.475 5.5 3.5
      vertex 11.2 9.5 3.5
      vertex 11.2 5.5 3.5
    endloop
  endfacet
  facet normal 0 0 1
    outer loop
      vertex 11.475 9.5 3.5
      vertex 13 13 3.5
      vertex 11.475 10.5 3.5
    endloop
  endfacet
  facet normal 0 0 1
    outer loop
      vertex 13 13 3.5
      vertex 11.2 11.2 3.5
      vertex 11.475 10.5 3.5
    endloop
  endfacet
  facet normal 0 0 1
    outer loop
      vertex 13 13 3.5
      vertex 10.5 11.475 3.5
      vertex 11.2 11.2 3.5
    endloop
  endfacet
  facet normal 0 0 1
    outer loop
      vertex 13 13 3.5
      vertex 9.5 11.475 3.5
      vertex 10.5 11.475 3.5
    endloop
  endfacet
  facet normal 0 0 1
    outer loop
      vertex 9.5 11.475 3.5
      vertex 5.5 11.475 3.5
      vertex 9.5 11.2 3.5
    endloop
  endfacet
  facet normal 0 0 1
    outer loop
      vertex 13 13 3.5
      vertex 5.5 11.475 3.5
      vertex 9.5 11.475 3.5
    endloop
  endfacet
  facet normal 0 0 1
    outer loop
      vertex 13 13 3.5
      vertex 4.5 11.475 3.5
      vertex 5.5 11.475 3.5
    endloop
  endfacet
  facet normal 0 0 1
    outer loop
      vertex 4.5 11.475 3.5
      vertex 0.5 11.475 3.5
      vertex 4.5 11.2 3.5
    endloop
  endfacet
  facet normal 0 0 1
    outer loop
      vertex 13 13 3.5
      vertex 0.5 11.475 3.5
      vertex 4.5 11.475 3.5
    endloop
  endfacet
  facet normal 0 0 1
    outer loop
      vertex 13 13 3.5
      vertex -0.5 11.475 3.5
      vertex 0.5 11.475 3.5
    endloop
  endfacet
  facet normal 0 0 1
    outer loop
      vertex -0.5 11.475 3.5
      vertex -4.5 11.475 3.5
      vertex -0.5 11.2 3.5
    endloop
  endfacet
  facet normal -0 0 1
    outer loop
      vertex -13 13 3.5
      vertex -0.5 11.475 3.5
      vertex 13 13 3.5
    endloop
  endfacet
  facet normal 0 0 1
    outer loop
      vertex -0.5 11.475 3.5
      vertex -13 13 3.5
      vertex -4.5 11.475 3.5
    endloop
  endfacet
  facet normal 0 0 1
    outer loop
      vertex -5.5 11.475 3.5
      vertex -9.5 11.475 3.5
      vertex -5.5 11.2 3.5
    endloop
  endfacet
  facet normal 0 0 1
    outer loop
      vertex -4.5 11.475 3.5
      vertex -13 13 3.5
      vertex -5.5 11.475 3.5
    endloop
  endfacet
  facet normal 0 0 1
    outer loop
      vertex -5.5 11.475 3.5
      vertex -13 13 3.5
      vertex -9.5 11.475 3.5
    endloop
  endfacet
  facet normal 0 0 1
    outer loop
      vertex -10.5 11.475 3.5
      vertex -11.2 11.2 3.5
      vertex -10.5 11.2 3.5
    endloop
  endfacet
  facet normal 0 0 1
    outer loop
      vertex -11.2 11.2 3.5
      vertex -11.475 10.5 3.5
      vertex -11.2 10.5 3.5
    endloop
  endfacet
  facet normal 0 0 1
    outer loop
      vertex -13 13 3.5
      vertex -11.475 9.5 3.5
      vertex -11.475 10.5 3.5
    endloop
  endfacet
  facet normal 0 0 1
    outer loop
      vertex -11.475 9.5 3.5
      vertex -13 13 3.5
      vertex -11.475 5.5 3.5
    endloop
  endfacet
  facet normal 0 0 1
    outer loop
      vertex -11.475 5.5 3.5
      vertex -13 13 3.5
      vertex -11.475 4.5 3.5
    endloop
  endfacet
  facet normal 0 0 1
    outer loop
      vertex -11.475 4.5 3.5
      vertex -13 13 3.5
      vertex -11.475 0.5 3.5
    endloop
  endfacet
  facet normal 0 0 1
    outer loop
      vertex -11.475 0.5 3.5
      vertex -13 13 3.5
      vertex -11.475 -0.5 3.5
    endloop
  endfacet
  facet normal 0 0 1
    outer loop
      vertex -13 -13 3.5
      vertex -11.475 -0.5 3.5
      vertex -13 13 3.5
    endloop
  endfacet
  facet normal 0 0 1
    outer loop
      vertex -11.475 -0.5 3.5
      vertex -13 -13 3.5
      vertex -11.475 -4.5 3.5
    endloop
  endfacet
  facet normal 0 0 1
    outer loop
      vertex -11.475 -4.5 3.5
      vertex -13 -13 3.5
      vertex -11.475 -5.5 3.5
    endloop
  endfacet
  facet normal 0 0 1
    outer loop
      vertex -11.475 -5.5 3.5
      vertex -13 -13 3.5
      vertex -11.475 -9.5 3.5
    endloop
  endfacet
  facet normal 0 0 1
    outer loop
      vertex -11.2 11.2 3.5
      vertex -13 13 3.5
      vertex -11.475 10.5 3.5
    endloop
  endfacet
  facet normal 0 0 1
    outer loop
      vertex -10.5 11.475 3.5
      vertex -13 13 3.5
      vertex -11.2 11.2 3.5
    endloop
  endfacet
  facet normal 0 0 1
    outer loop
      vertex -9.5 11.475 3.5
      vertex -13 13 3.5
      vertex -10.5 11.475 3.5
    endloop
  endfacet
  facet normal 0 0 1
    outer loop
      vertex 11.475 5.5 3.5
      vertex 13 13 3.5
      vertex 11.475 9.5 3.5
    endloop
  endfacet
  facet normal 0 0 1
    outer loop
      vertex 11.475 4.5 3.5
      vertex 13 13 3.5
      vertex 11.475 5.5 3.5
    endloop
  endfacet
  facet normal 0 0 1
    outer loop
      vertex 11.475 0.5 3.5
      vertex 13 13 3.5
      vertex 11.475 4.5 3.5
    endloop
  endfacet
  facet normal 0 0 1
    outer loop
      vertex 13 13 3.5
      vertex 11.475 0.5 3.5
      vertex 13 -13 3.5
    endloop
  endfacet
  facet normal -0 0 1
    outer loop
      vertex 11.475 -0.5 3.5
      vertex 13 -13 3.5
      vertex 11.475 0.5 3.5
    endloop
  endfacet
  facet normal -0 0 1
    outer loop
      vertex 11.475 -4.5 3.5
      vertex 13 -13 3.5
      vertex 11.475 -0.5 3.5
    endloop
  endfacet
  facet normal -0 0 1
    outer loop
      vertex 11.475 -5.5 3.5
      vertex 13 -13 3.5
      vertex 11.475 -4.5 3.5
    endloop
  endfacet
  facet normal -0 0 1
    outer loop
      vertex 11.475 -9.5 3.5
      vertex 13 -13 3.5
      vertex 11.475 -5.5 3.5
    endloop
  endfacet
  facet normal -0 0 1
    outer loop
      vertex 11.475 -10.5 3.5
      vertex 13 -13 3.5
      vertex 11.475 -9.5 3.5
    endloop
  endfacet
  facet normal 0 0 1
    outer loop
      vertex 11.2 -11.2 3.5
      vertex 11.475 -10.5 3.5
      vertex 11.2 -10.5 3.5
    endloop
  endfacet
  facet normal 0 0 1
    outer loop
      vertex 11.475 -10.5 3.5
      vertex 11.2 -11.2 3.5
      vertex 13 -13 3.5
    endloop
  endfacet
  facet normal 0 0 1
    outer loop
      vertex 10.5 -11.475 3.5
      vertex 11.2 -11.2 3.5
      vertex 10.5 -11.2 3.5
    endloop
  endfacet
  facet normal 0 0 1
    outer loop
      vertex 11.2 -11.2 3.5
      vertex 10.5 -11.475 3.5
      vertex 13 -13 3.5
    endloop
  endfacet
  facet normal -0 0 1
    outer loop
      vertex 9.5 -11.475 3.5
      vertex 13 -13 3.5
      vertex 10.5 -11.475 3.5
    endloop
  endfacet
  facet normal 0 0 1
    outer loop
      vertex 5.5 -11.475 3.5
      vertex 9.5 -11.475 3.5
      vertex 5.5 -11.2 3.5
    endloop
  endfacet
  facet normal 0 0 1
    outer loop
      vertex 9.5 -11.475 3.5
      vertex 5.5 -11.475 3.5
      vertex 13 -13 3.5
    endloop
  endfacet
  facet normal -0 0 1
    outer loop
      vertex 4.5 -11.475 3.5
      vertex 13 -13 3.5
      vertex 5.5 -11.475 3.5
    endloop
  endfacet
  facet normal 0 0 1
    outer loop
      vertex 0.5 -11.475 3.5
      vertex 4.5 -11.475 3.5
      vertex 0.5 -11.2 3.5
    endloop
  endfacet
  facet normal 0 0 1
    outer loop
      vertex 4.5 -11.475 3.5
      vertex 0.5 -11.475 3.5
      vertex 13 -13 3.5
    endloop
  endfacet
  facet normal -0 0 1
    outer loop
      vertex -0.5 -11.475 3.5
      vertex 13 -13 3.5
      vertex 0.5 -11.475 3.5
    endloop
  endfacet
  facet normal 0 0 1
    outer loop
      vertex -4.5 -11.475 3.5
      vertex -0.5 -11.475 3.5
      vertex -4.5 -11.2 3.5
    endloop
  endfacet
  facet normal 0 0 1
    outer loop
      vertex -13 -13 3.5
      vertex -0.5 -11.475 3.5
      vertex -4.5 -11.475 3.5
    endloop
  endfacet
  facet normal 0 0 1
    outer loop
      vertex -13 -13 3.5
      vertex -4.5 -11.475 3.5
      vertex -5.5 -11.475 3.5
    endloop
  endfacet
  facet normal 0 0 1
    outer loop
      vertex -9.5 -11.475 3.5
      vertex -5.5 -11.475 3.5
      vertex -9.5 -11.2 3.5
    endloop
  endfacet
  facet normal 0 0 1
    outer loop
      vertex -13 -13 3.5
      vertex -5.5 -11.475 3.5
      vertex -9.5 -11.475 3.5
    endloop
  endfacet
  facet normal 0 0 1
    outer loop
      vertex -13 -13 3.5
      vertex -9.5 -11.475 3.5
      vertex -10.5 -11.475 3.5
    endloop
  endfacet
  facet normal 0 0 1
    outer loop
      vertex -0.5 -11.475 3.5
      vertex -13 -13 3.5
      vertex 13 -13 3.5
    endloop
  endfacet
  facet normal 0 0 1
    outer loop
      vertex -11.2 -11.2 3.5
      vertex -13 -13 3.5
      vertex -10.5 -11.475 3.5
    endloop
  endfacet
  facet normal 0 0 1
    outer loop
      vertex -11.475 -10.5 3.5
      vertex -13 -13 3.5
      vertex -11.2 -11.2 3.5
    endloop
  endfacet
  facet normal 0 0 1
    outer loop
      vertex -11.475 -9.5 3.5
      vertex -13 -13 3.5
      vertex -11.475 -10.5 3.5
    endloop
  endfacet
  facet normal 0 0 1
    outer loop
      vertex 11.475 10.5 3.5
      vertex 11.2 11.2 3.5
      vertex 11.2 10.5 3.5
    endloop
  endfacet
  facet normal 0 0 1
    outer loop
      vertex 11.2 11.2 3.5
      vertex 10.5 11.475 3.5
      vertex 10.5 11.2 3.5
    endloop
  endfacet
  facet normal 0 0 1
    outer loop
      vertex 9.5 11.2 3.5
      vertex 5.5 11.475 3.5
      vertex 5.5 11.2 3.5
    endloop
  endfacet
  facet normal 0 0 1
    outer loop
      vertex 4.5 11.2 3.5
      vertex 0.5 11.475 3.5
      vertex 0.5 11.2 3.5
    endloop
  endfacet
  facet normal 0 0 1
    outer loop
      vertex -0.5 11.2 3.5
      vertex -4.5 11.475 3.5
      vertex -4.5 11.2 3.5
    endloop
  endfacet
  facet normal 0 0 1
    outer loop
      vertex -5.5 11.2 3.5
      vertex -9.5 11.475 3.5
      vertex -9.5 11.2 3.5
    endloop
  endfacet
  facet normal -0 0 1
    outer loop
      vertex -11.475 9.5 3.5
      vertex -11.2 5.5 3.5
      vertex -11.2 9.5 3.5
    endloop
  endfacet
  facet normal 0 0 1
    outer loop
      vertex -11.2 5.5 3.5
      vertex -11.475 9.5 3.5
      vertex -11.475 5.5 3.5
    endloop
  endfacet
  facet normal -0 0 1
    outer loop
      vertex -11.475 4.5 3.5
      vertex -11.2 0.5 3.5
      vertex -11.2 4.5 3.5
    endloop
  endfacet
  facet normal 0 0 1
    outer loop
      vertex -11.2 0.5 3.5
      vertex -11.475 4.5 3.5
      vertex -11.475 0.5 3.5
    endloop
  endfacet
  facet normal -0 0 1
    outer loop
      vertex -11.475 -0.5 3.5
      vertex -11.2 -4.5 3.5
      vertex -11.2 -0.5 3.5
    endloop
  endfacet
  facet normal 0 0 1
    outer loop
      vertex -11.2 -4.5 3.5
      vertex -11.475 -0.5 3.5
      vertex -11.475 -4.5 3.5
    endloop
  endfacet
  facet normal -0 0 1
    outer loop
      vertex -11.475 -5.5 3.5
      vertex -11.2 -9.5 3.5
      vertex -11.2 -5.5 3.5
    endloop
  endfacet
  facet normal 0 0 1
    outer loop
      vertex -11.2 -9.5 3.5
      vertex -11.475 -5.5 3.5
      vertex -11.475 -9.5 3.5
    endloop
  endfacet
  facet normal -0 0 1
    outer loop
      vertex -9 9 3.5
      vertex 9 -9 3.5
      vertex 9 9 3.5
    endloop
  endfacet
  facet normal 0 0 1
    outer loop
      vertex 9 -9 3.5
      vertex -9 9 3.5
      vertex -9 -9 3.5
    endloop
  endfacet
  facet normal 0.8 0 -0.6
    outer loop
      vertex 13 13 2.5
      vertex 10 -10 -1.5
      vertex 10 10 -1.5
    endloop
  endfacet
  facet normal 0.8 0 -0.6
    outer loop
      vertex 10 -10 -1.5
      vertex 13 13 2.5
      vertex 13 -13 2.5
    endloop
  endfacet
  facet normal 0 1 -0
    outer loop
      vertex 13 13 2.5
      vertex -13 13 3.5
      vertex 13 13 3.5
    endloop
  endfacet
  facet normal 0 1 0
    outer loop
      vertex -13 13 3.5
      vertex 13 13 2.5
      vertex -13 13 2.5
    endloop
  endfacet
  facet normal -1 0 0
    outer loop
      vertex -13 -13 2.5
      vertex -13 13 3.5
      vertex -13 13 2.5
    endloop
  endfacet
  facet normal -1 -0 0
    outer loop
      vertex -13 13 3.5
      vertex -13 -13 2.5
      vertex -13 -13 3.5
    endloop
  endfacet
  facet normal 0 0.8 -0.6
    outer loop
      vertex 10 10 -1.5
      vertex -13 13 2.5
      vertex 13 13 2.5
    endloop
  endfacet
  facet normal 0 0.8 -0.6
    outer loop
      vertex -13 13 2.5
      vertex 10 10 -1.5
      vertex -10 10 -1.5
    endloop
  endfacet
  facet normal 1 -0 0
    outer loop
      vertex 13 -13 3.5
      vertex 13 13 2.5
      vertex 13 13 3.5
    endloop
  endfacet
  facet normal 1 0 0
    outer loop
      vertex 13 13 2.5
      vertex 13 -13 3.5
      vertex 13 -13 2.5
    endloop
  endfacet
  facet normal 0 -0.8 -0.6
    outer loop
      vertex -10 -10 -1.5
      vertex 13 -13 2.5
      vertex -13 -13 2.5
    endloop
  endfacet
  facet normal 0 -0.8 -0.6
    outer loop
      vertex 13 -13 2.5
      vertex -10 -10 -1.5
      vertex 10 -10 -1.5
    endloop
  endfacet
  facet normal 0 -1 0
    outer loop
      vertex -13 -13 2.5
      vertex 13 -13 3.5
      vertex -13 -13 3.5
    endloop
  endfacet
  facet normal 0 -1 -0
    outer loop
      vertex 13 -13 3.5
      vertex -13 -13 2.5
      vertex 13 -13 2.5
    endloop
  endfacet
  facet normal -0.8 0 -0.6
    outer loop
      vertex -10 -10 -1.5
      vertex -13 13 2.5
      vertex -10 10 -1.5
    endloop
  endfacet
  facet normal -0.8 -0 -0.6
    outer loop
      vertex -13 13 2.5
      vertex -10 -10 -1.5
      vertex -13 -13 2.5
    endloop
  endfacet
  facet normal 0 0 -1
    outer loop
      vertex -10 -10 -1.5
      vertex 10 10 -1.5
      vertex 10 -10 -1.5
    endloop
  endfacet
  facet normal -0 0 -1
    outer loop
      vertex 10 10 -1.5
      vertex -10 -10 -1.5
      vertex -10 10 -1.5
    endloop
  endfacet
endsolid OpenSCAD_Model
