solid OpenSCAD_Model
  facet normal -0.989821 -0.142315 0
    outer loop
      vertex 69.5 31.5 312
      vertex 69.2266 33.4017 337
      vertex 69.2266 33.4017 312
    endloop
  endfacet
  facet normal -0.989821 -0.142315 0
    outer loop
      vertex 69.2266 33.4017 337
      vertex 69.5 31.5 312
      vertex 69.5 31.5 337
    endloop
  endfacet
  facet normal -0.281733 -0.959493 0
    outer loop
      vertex 63.7106 38.1813 312
      vertex 65.554 37.64 337
      vertex 63.7106 38.1813 337
    endloop
  endfacet
  facet normal -0.281733 -0.959493 -0
    outer loop
      vertex 65.554 37.64 337
      vertex 63.7106 38.1813 312
      vertex 65.554 37.64 312
    endloop
  endfacet
  facet normal 0.989821 0.142315 0
    outer loop
      vertex 56.2734 29.5983 337
      vertex 56 31.5 312
      vertex 56 31.5 337
    endloop
  endfacet
  facet normal 0.989821 0.142315 0
    outer loop
      vertex 56 31.5 312
      vertex 56.2734 29.5983 337
      vertex 56.2734 29.5983 312
    endloop
  endfacet
  facet normal -0.281733 0.959493 0
    outer loop
      vertex 65.554 25.36 312
      vertex 63.7106 24.8187 337
      vertex 65.554 25.36 337
    endloop
  endfacet
  facet normal -0.281733 0.959493 0
    outer loop
      vertex 63.7106 24.8187 337
      vertex 65.554 25.36 312
      vertex 63.7106 24.8187 312
    endloop
  endfacet
  facet normal 0 1 -0
    outer loop
      vertex 63.7106 24.8187 312
      vertex 61.7894 24.8187 337
      vertex 63.7106 24.8187 337
    endloop
  endfacet
  facet normal 0 1 0
    outer loop
      vertex 61.7894 24.8187 337
      vertex 63.7106 24.8187 312
      vertex 61.7894 24.8187 312
    endloop
  endfacet
  facet normal -0.909632 -0.415416 0
    outer loop
      vertex 69.2266 33.4017 312
      vertex 68.4285 35.1493 337
      vertex 68.4285 35.1493 312
    endloop
  endfacet
  facet normal -0.909632 -0.415416 0
    outer loop
      vertex 68.4285 35.1493 337
      vertex 69.2266 33.4017 312
      vertex 69.2266 33.4017 337
    endloop
  endfacet
  facet normal 0 -1 0
    outer loop
      vertex 61.7894 38.1813 312
      vertex 63.7106 38.1813 337
      vertex 61.7894 38.1813 337
    endloop
  endfacet
  facet normal 0 -1 -0
    outer loop
      vertex 63.7106 38.1813 337
      vertex 61.7894 38.1813 312
      vertex 63.7106 38.1813 312
    endloop
  endfacet
  facet normal 0.281733 -0.959493 0
    outer loop
      vertex 59.9459 37.64 312
      vertex 61.7894 38.1813 337
      vertex 59.9459 37.64 337
    endloop
  endfacet
  facet normal 0.281733 -0.959493 0
    outer loop
      vertex 61.7894 38.1813 337
      vertex 59.9459 37.64 312
      vertex 61.7894 38.1813 312
    endloop
  endfacet
  facet normal 0.989821 -0.142315 0
    outer loop
      vertex 56 31.5 337
      vertex 56.2734 33.4017 312
      vertex 56.2734 33.4017 337
    endloop
  endfacet
  facet normal 0.989821 -0.142315 0
    outer loop
      vertex 56.2734 33.4017 312
      vertex 56 31.5 337
      vertex 56 31.5 312
    endloop
  endfacet
  facet normal 0.909632 0.415414 0
    outer loop
      vertex 57.0715 27.8507 337
      vertex 56.2734 29.5983 312
      vertex 56.2734 29.5983 337
    endloop
  endfacet
  facet normal 0.909632 0.415414 0
    outer loop
      vertex 56.2734 29.5983 312
      vertex 57.0715 27.8507 337
      vertex 57.0715 27.8507 312
    endloop
  endfacet
  facet normal 0.281733 0.959493 -0
    outer loop
      vertex 61.7894 24.8187 312
      vertex 59.9459 25.36 337
      vertex 61.7894 24.8187 337
    endloop
  endfacet
  facet normal 0.281733 0.959493 0
    outer loop
      vertex 59.9459 25.36 337
      vertex 61.7894 24.8187 312
      vertex 59.9459 25.36 312
    endloop
  endfacet
  facet normal -0.75575 -0.65486 0
    outer loop
      vertex 68.4285 35.1493 312
      vertex 67.1703 36.6013 337
      vertex 67.1703 36.6013 312
    endloop
  endfacet
  facet normal -0.75575 -0.65486 0
    outer loop
      vertex 67.1703 36.6013 337
      vertex 68.4285 35.1493 312
      vertex 68.4285 35.1493 337
    endloop
  endfacet
  facet normal -0.540639 -0.841255 0
    outer loop
      vertex 65.554 37.64 312
      vertex 67.1703 36.6013 337
      vertex 65.554 37.64 337
    endloop
  endfacet
  facet normal -0.540639 -0.841255 -0
    outer loop
      vertex 67.1703 36.6013 337
      vertex 65.554 37.64 312
      vertex 67.1703 36.6013 312
    endloop
  endfacet
  facet normal 0.909632 -0.415414 0
    outer loop
      vertex 56.2734 33.4017 337
      vertex 57.0715 35.1493 312
      vertex 57.0715 35.1493 337
    endloop
  endfacet
  facet normal 0.909632 -0.415414 0
    outer loop
      vertex 57.0715 35.1493 312
      vertex 56.2734 33.4017 337
      vertex 56.2734 33.4017 312
    endloop
  endfacet
  facet normal 0.540639 -0.841254 0
    outer loop
      vertex 58.3297 36.6013 312
      vertex 59.9459 37.64 337
      vertex 58.3297 36.6013 337
    endloop
  endfacet
  facet normal 0.540639 -0.841254 0
    outer loop
      vertex 59.9459 37.64 337
      vertex 58.3297 36.6013 312
      vertex 59.9459 37.64 312
    endloop
  endfacet
  facet normal 0.755749 -0.654861 0
    outer loop
      vertex 57.0715 35.1493 337
      vertex 58.3297 36.6013 312
      vertex 58.3297 36.6013 337
    endloop
  endfacet
  facet normal 0.755749 -0.654861 0
    outer loop
      vertex 58.3297 36.6013 312
      vertex 57.0715 35.1493 337
      vertex 57.0715 35.1493 312
    endloop
  endfacet
  facet normal -0.909632 0.415416 0
    outer loop
      vertex 68.4285 27.8507 312
      vertex 69.2266 29.5983 337
      vertex 69.2266 29.5983 312
    endloop
  endfacet
  facet normal -0.909632 0.415416 0
    outer loop
      vertex 69.2266 29.5983 337
      vertex 68.4285 27.8507 312
      vertex 68.4285 27.8507 337
    endloop
  endfacet
  facet normal -0.540639 0.841255 0
    outer loop
      vertex 67.1703 26.3987 312
      vertex 65.554 25.36 337
      vertex 67.1703 26.3987 337
    endloop
  endfacet
  facet normal -0.540639 0.841255 0
    outer loop
      vertex 65.554 25.36 337
      vertex 67.1703 26.3987 312
      vertex 65.554 25.36 312
    endloop
  endfacet
  facet normal -0.989821 0.142315 0
    outer loop
      vertex 69.2266 29.5983 312
      vertex 69.5 31.5 337
      vertex 69.5 31.5 312
    endloop
  endfacet
  facet normal -0.989821 0.142315 0
    outer loop
      vertex 69.5 31.5 337
      vertex 69.2266 29.5983 312
      vertex 69.2266 29.5983 337
    endloop
  endfacet
  facet normal 0.755749 0.654861 0
    outer loop
      vertex 58.3297 26.3987 337
      vertex 57.0715 27.8507 312
      vertex 57.0715 27.8507 337
    endloop
  endfacet
  facet normal 0.755749 0.654861 0
    outer loop
      vertex 57.0715 27.8507 312
      vertex 58.3297 26.3987 337
      vertex 58.3297 26.3987 312
    endloop
  endfacet
  facet normal 0 0 -1
    outer loop
      vertex 69.2266 29.5983 337
      vertex 69.2266 33.4017 337
      vertex 69.5 31.5 337
    endloop
  endfacet
  facet normal 0 0 -1
    outer loop
      vertex 68.4285 27.8507 337
      vertex 69.2266 33.4017 337
      vertex 69.2266 29.5983 337
    endloop
  endfacet
  facet normal 0 0 -1
    outer loop
      vertex 68.4285 27.8507 337
      vertex 68.4285 35.1493 337
      vertex 69.2266 33.4017 337
    endloop
  endfacet
  facet normal 0 0 -1
    outer loop
      vertex 67.1703 26.3987 337
      vertex 68.4285 35.1493 337
      vertex 68.4285 27.8507 337
    endloop
  endfacet
  facet normal 0 0 -1
    outer loop
      vertex 67.1703 26.3987 337
      vertex 67.1703 36.6013 337
      vertex 68.4285 35.1493 337
    endloop
  endfacet
  facet normal 0 0 -1
    outer loop
      vertex 65.554 25.36 337
      vertex 67.1703 36.6013 337
      vertex 67.1703 26.3987 337
    endloop
  endfacet
  facet normal 0 0 -1
    outer loop
      vertex 65.554 25.36 337
      vertex 65.554 37.64 337
      vertex 67.1703 36.6013 337
    endloop
  endfacet
  facet normal 0 0 -1
    outer loop
      vertex 63.7106 24.8187 337
      vertex 65.554 37.64 337
      vertex 65.554 25.36 337
    endloop
  endfacet
  facet normal 0 0 -1
    outer loop
      vertex 63.7106 24.8187 337
      vertex 63.7106 38.1813 337
      vertex 65.554 37.64 337
    endloop
  endfacet
  facet normal 0 0 -1
    outer loop
      vertex 61.7894 24.8187 337
      vertex 63.7106 38.1813 337
      vertex 63.7106 24.8187 337
    endloop
  endfacet
  facet normal 0 0 -1
    outer loop
      vertex 61.7894 24.8187 337
      vertex 61.7894 38.1813 337
      vertex 63.7106 38.1813 337
    endloop
  endfacet
  facet normal 0 0 -1
    outer loop
      vertex 59.9459 25.36 337
      vertex 61.7894 38.1813 337
      vertex 61.7894 24.8187 337
    endloop
  endfacet
  facet normal 0 0 -1
    outer loop
      vertex 59.9459 25.36 337
      vertex 59.9459 37.64 337
      vertex 61.7894 38.1813 337
    endloop
  endfacet
  facet normal 0 0 -1
    outer loop
      vertex 58.3297 26.3987 337
      vertex 59.9459 37.64 337
      vertex 59.9459 25.36 337
    endloop
  endfacet
  facet normal 0 0 -1
    outer loop
      vertex 58.3297 26.3987 337
      vertex 58.3297 36.6013 337
      vertex 59.9459 37.64 337
    endloop
  endfacet
  facet normal 0 0 -1
    outer loop
      vertex 57.0715 27.8507 337
      vertex 58.3297 36.6013 337
      vertex 58.3297 26.3987 337
    endloop
  endfacet
  facet normal 0 0 -1
    outer loop
      vertex 57.0715 27.8507 337
      vertex 57.0715 35.1493 337
      vertex 58.3297 36.6013 337
    endloop
  endfacet
  facet normal 0 0 -1
    outer loop
      vertex 56.2734 29.5983 337
      vertex 57.0715 35.1493 337
      vertex 57.0715 27.8507 337
    endloop
  endfacet
  facet normal 0 0 -1
    outer loop
      vertex 56.2734 29.5983 337
      vertex 56.2734 33.4017 337
      vertex 57.0715 35.1493 337
    endloop
  endfacet
  facet normal 0 -0 -1
    outer loop
      vertex 56.2734 33.4017 337
      vertex 56.2734 29.5983 337
      vertex 56 31.5 337
    endloop
  endfacet
  facet normal 0.54064 0.841254 -0
    outer loop
      vertex 59.9459 25.36 312
      vertex 58.3297 26.3987 337
      vertex 59.9459 25.36 337
    endloop
  endfacet
  facet normal 0.54064 0.841254 0
    outer loop
      vertex 58.3297 26.3987 337
      vertex 59.9459 25.36 312
      vertex 58.3297 26.3987 312
    endloop
  endfacet
  facet normal -0.75575 0.65486 0
    outer loop
      vertex 67.1703 26.3987 312
      vertex 68.4285 27.8507 337
      vertex 68.4285 27.8507 312
    endloop
  endfacet
  facet normal -0.75575 0.65486 0
    outer loop
      vertex 68.4285 27.8507 337
      vertex 67.1703 26.3987 312
      vertex 67.1703 26.3987 337
    endloop
  endfacet
  facet normal -0.982443 -0.142316 -0.120629
    outer loop
      vertex 79.084 0.15055 312
      vertex 75.6021 1.90169 338.292
      vertex 78.8304 1.90169 312
    endloop
  endfacet
  facet normal -0.982443 -0.142315 -0.120629
    outer loop
      vertex 75.6021 1.90169 338.292
      vertex 79.084 0.15055 312
      vertex 75.8735 0 338.326
    endloop
  endfacet
  facet normal 0.982443 0.142315 0.120629
    outer loop
      vertex 65.7799 -1.90169 312
      vertex 62.4741 0 336.68
      vertex 62.7455 -1.90169 336.714
    endloop
  endfacet
  facet normal 0.982444 0.142314 0.120629
    outer loop
      vertex 62.4741 0 336.68
      vertex 65.7799 -1.90169 312
      vertex 65.5044 0 312
    endloop
  endfacet
  facet normal 0.121872 1.1805e-05 -0.992546
    outer loop
      vertex 71.9569 6.14002 337.845
      vertex 74.8099 3.64933 338.195
      vertex 68.2203 6.68129 337.386
    endloop
  endfacet
  facet normal 0.902851 -0.415416 0.110856
    outer loop
      vertex 62.7455 1.90169 336.714
      vertex 66.584 3.64933 312
      vertex 63.5376 3.64933 336.811
    endloop
  endfacet
  facet normal 0.902851 -0.415417 0.110856
    outer loop
      vertex 66.584 3.64933 312
      vertex 62.7455 1.90169 336.714
      vertex 65.7799 1.90169 312
    endloop
  endfacet
  facet normal -0.982443 0.142316 -0.120629
    outer loop
      vertex 75.6021 -1.90169 338.292
      vertex 79.084 -0.15055 312
      vertex 78.8304 -1.90169 312
    endloop
  endfacet
  facet normal -0.982443 0.142315 -0.120629
    outer loop
      vertex 79.084 -0.15055 312
      vertex 75.6021 -1.90169 338.292
      vertex 75.8735 0 338.326
    endloop
  endfacet
  facet normal 0.121861 -9.81927e-06 -0.992547
    outer loop
      vertex 68.2203 -6.68129 337.386
      vertex 63.5376 -3.64933 336.811
      vertex 62.4741 0 336.68
    endloop
  endfacet
  facet normal 0.121867 0 -0.992546
    outer loop
      vertex 68.2203 -6.68129 337.386
      vertex 74.8099 3.64933 338.195
      vertex 74.8099 -3.64933 338.195
    endloop
  endfacet
  facet normal 0.121867 0 -0.992546
    outer loop
      vertex 74.8099 3.64933 338.195
      vertex 68.2203 -6.68129 337.386
      vertex 68.2203 6.68129 337.386
    endloop
  endfacet
  facet normal -0.536608 -0.841256 -0.0658872
    outer loop
      vertex 75.1302 6.14002 312
      vertex 75.2569 6.05923 312
      vertex 71.9569 6.14002 337.845
    endloop
  endfacet
  facet normal 0.536612 -0.841253 0.0658876
    outer loop
      vertex 67.8516 5.10131 312
      vertex 66.3906 6.14002 337.161
      vertex 64.7864 5.10131 336.964
    endloop
  endfacet
  facet normal 0.53661 -0.841254 0.0658875
    outer loop
      vertex 66.3906 6.14002 337.161
      vertex 67.8516 5.10131 312
      vertex 69.3569 6.06146 312
    endloop
  endfacet
  facet normal 0.121872 -1.1805e-05 -0.992546
    outer loop
      vertex 74.8099 -3.64933 338.195
      vertex 71.9569 -6.14002 337.845
      vertex 68.2203 -6.68129 337.386
    endloop
  endfacet
  facet normal -0.750121 -0.654855 -0.0921033
    outer loop
      vertex 77.9264 3.76366 312
      vertex 78.0262 3.64933 312
      vertex 74.8099 3.64933 338.195
    endloop
  endfacet
  facet normal 0.902851 0.415416 0.110856
    outer loop
      vertex 66.584 -3.64933 312
      vertex 62.7455 -1.90169 336.714
      vertex 63.5376 -3.64933 336.811
    endloop
  endfacet
  facet normal 0.902851 0.415417 0.110856
    outer loop
      vertex 62.7455 -1.90169 336.714
      vertex 66.584 -3.64933 312
      vertex 65.7799 -1.90169 312
    endloop
  endfacet
  facet normal 0.121873 0 -0.992546
    outer loop
      vertex 68.2203 6.68129 337.386
      vertex 68.2203 -6.68129 337.386
      vertex 62.4741 0 336.68
    endloop
  endfacet
  facet normal -0.902846 -0.415428 -0.110856
    outer loop
      vertex 78.0262 3.64933 312
      vertex 78.0896 3.5116 312
      vertex 74.8099 3.64933 338.195
    endloop
  endfacet
  facet normal 0.121895 0 -0.992543
    outer loop
      vertex 74.8099 3.64933 338.195
      vertex 75.8735 0 338.326
      vertex 74.8099 -3.64933 338.195
    endloop
  endfacet
  facet normal 0.121888 -4.05059e-05 -0.992544
    outer loop
      vertex 66.3906 6.14002 337.161
      vertex 68.2203 6.68129 337.386
      vertex 64.7864 5.10131 336.964
    endloop
  endfacet
  facet normal -0.902853 -0.415413 -0.110856
    outer loop
      vertex 78.8304 1.90169 312
      vertex 74.8099 3.64933 338.195
      vertex 78.0896 3.5116 312
    endloop
  endfacet
  facet normal -0.902851 -0.415416 -0.110856
    outer loop
      vertex 74.8099 3.64933 338.195
      vertex 78.8304 1.90169 312
      vertex 75.6021 1.90169 338.292
    endloop
  endfacet
  facet normal 0.121864 4.38937e-05 -0.992547
    outer loop
      vertex 71.9569 -6.14002 337.845
      vertex 70.1272 -6.68129 337.62
      vertex 68.2203 -6.68129 337.386
    endloop
  endfacet
  facet normal -0.902846 0.415428 -0.110856
    outer loop
      vertex 78.0896 -3.5116 312
      vertex 78.0262 -3.64933 312
      vertex 74.8099 -3.64933 338.195
    endloop
  endfacet
  facet normal 0.279632 0.959493 0.0343345
    outer loop
      vertex 69.6207 -6.181 312
      vertex 68.2203 -6.68129 337.386
      vertex 71.3373 -6.68129 312
    endloop
  endfacet
  facet normal 0.279632 0.959493 0.0343345
    outer loop
      vertex 68.2203 -6.68129 337.386
      vertex 69.6207 -6.181 312
      vertex 66.3906 -6.14002 337.161
    endloop
  endfacet
  facet normal 0.121907 3.78284e-06 -0.992541
    outer loop
      vertex 63.5376 -3.64933 336.811
      vertex 62.7455 -1.90169 336.714
      vertex 62.4741 0 336.68
    endloop
  endfacet
  facet normal -0.750121 0.654855 -0.0921033
    outer loop
      vertex 78.0262 -3.64933 312
      vertex 77.9264 -3.76366 312
      vertex 74.8099 -3.64933 338.195
    endloop
  endfacet
  facet normal 0.750117 0.65486 0.0921027
    outer loop
      vertex 67.8516 -5.10131 312
      vertex 63.5376 -3.64933 336.811
      vertex 64.7864 -5.10131 336.964
    endloop
  endfacet
  facet normal 0.750118 0.654859 0.0921029
    outer loop
      vertex 63.5376 -3.64933 336.811
      vertex 67.8516 -5.10131 312
      vertex 66.584 -3.64933 312
    endloop
  endfacet
  facet normal 0.536604 0.841258 0.0658868
    outer loop
      vertex 69.48 -6.14002 312
      vertex 69.3569 -6.06146 312
      vertex 66.3906 -6.14002 337.161
    endloop
  endfacet
  facet normal 0.121907 3.78284e-06 -0.992541
    outer loop
      vertex 75.6021 1.90169 338.292
      vertex 75.8735 0 338.326
      vertex 74.8099 3.64933 338.195
    endloop
  endfacet
  facet normal -0.53661 -0.841254 -0.0658875
    outer loop
      vertex 75.2569 6.05923 312
      vertex 73.5611 5.10131 338.042
      vertex 71.9569 6.14002 337.845
    endloop
  endfacet
  facet normal -0.536612 -0.841253 -0.0658876
    outer loop
      vertex 73.5611 5.10131 338.042
      vertex 75.2569 6.05923 312
      vertex 76.7586 5.10131 312
    endloop
  endfacet
  facet normal 0 -1 0
    outer loop
      vertex 71.3373 6.68129 312
      vertex 70.1272 6.68129 337.62
      vertex 68.2203 6.68129 337.386
    endloop
  endfacet
  facet normal 0 -1 0
    outer loop
      vertex 70.1272 6.68129 337.62
      vertex 71.3373 6.68129 312
      vertex 73.273 6.68129 312
    endloop
  endfacet
  facet normal 0.121864 -4.38937e-05 -0.992547
    outer loop
      vertex 70.1272 6.68129 337.62
      vertex 71.9569 6.14002 337.845
      vertex 68.2203 6.68129 337.386
    endloop
  endfacet
  facet normal 0.982443 -0.142315 0.120629
    outer loop
      vertex 62.4741 0 336.68
      vertex 65.7799 1.90169 312
      vertex 62.7455 1.90169 336.714
    endloop
  endfacet
  facet normal 0.982444 -0.142314 0.120629
    outer loop
      vertex 65.7799 1.90169 312
      vertex 62.4741 0 336.68
      vertex 65.5044 0 312
    endloop
  endfacet
  facet normal 0.121875 -1.12714e-05 -0.992545
    outer loop
      vertex 64.7864 5.10131 336.964
      vertex 68.2203 6.68129 337.386
      vertex 63.5376 3.64933 336.811
    endloop
  endfacet
  facet normal 0.279632 -0.959493 0.0343345
    outer loop
      vertex 69.6207 6.181 312
      vertex 68.2203 6.68129 337.386
      vertex 66.3906 6.14002 337.161
    endloop
  endfacet
  facet normal 0.279632 -0.959493 0.0343345
    outer loop
      vertex 68.2203 6.68129 337.386
      vertex 69.6207 6.181 312
      vertex 71.3373 6.68129 312
    endloop
  endfacet
  facet normal -0.279633 -0.959493 -0.0343346
    outer loop
      vertex 73.273 6.68129 312
      vertex 71.9569 6.14002 337.845
      vertex 70.1272 6.68129 337.62
    endloop
  endfacet
  facet normal -0.279633 -0.959493 -0.0343346
    outer loop
      vertex 71.9569 6.14002 337.845
      vertex 73.273 6.68129 312
      vertex 75.1302 6.14002 312
    endloop
  endfacet
  facet normal -0.982447 -0.142292 -0.120629
    outer loop
      vertex 79.084 0.15055 312
      vertex 79.1058 0 312
      vertex 75.8735 0 338.326
    endloop
  endfacet
  facet normal -0.982447 0.142292 -0.120629
    outer loop
      vertex 79.1058 0 312
      vertex 79.084 -0.15055 312
      vertex 75.8735 0 338.326
    endloop
  endfacet
  facet normal 0.121907 -3.78284e-06 -0.992541
    outer loop
      vertex 75.8735 0 338.326
      vertex 75.6021 -1.90169 338.292
      vertex 74.8099 -3.64933 338.195
    endloop
  endfacet
  facet normal -0.902853 0.415413 -0.110856
    outer loop
      vertex 74.8099 -3.64933 338.195
      vertex 78.8304 -1.90169 312
      vertex 78.0896 -3.5116 312
    endloop
  endfacet
  facet normal -0.902851 0.415416 -0.110856
    outer loop
      vertex 78.8304 -1.90169 312
      vertex 74.8099 -3.64933 338.195
      vertex 75.6021 -1.90169 338.292
    endloop
  endfacet
  facet normal 0 1 -0
    outer loop
      vertex 71.3373 -6.68129 312
      vertex 70.1272 -6.68129 337.62
      vertex 73.273 -6.68129 312
    endloop
  endfacet
  facet normal 0 1 0
    outer loop
      vertex 70.1272 -6.68129 337.62
      vertex 71.3373 -6.68129 312
      vertex 68.2203 -6.68129 337.386
    endloop
  endfacet
  facet normal -0.279633 0.959493 -0.0343346
    outer loop
      vertex 73.273 -6.68129 312
      vertex 71.9569 -6.14002 337.845
      vertex 75.1302 -6.14002 312
    endloop
  endfacet
  facet normal -0.279633 0.959493 -0.0343346
    outer loop
      vertex 71.9569 -6.14002 337.845
      vertex 73.273 -6.68129 312
      vertex 70.1272 -6.68129 337.62
    endloop
  endfacet
  facet normal 0.750117 -0.65486 0.0921027
    outer loop
      vertex 63.5376 3.64933 336.811
      vertex 67.8516 5.10131 312
      vertex 64.7864 5.10131 336.964
    endloop
  endfacet
  facet normal 0.750118 -0.654859 0.0921029
    outer loop
      vertex 67.8516 5.10131 312
      vertex 63.5376 3.64933 336.811
      vertex 66.584 3.64933 312
    endloop
  endfacet
  facet normal -0.536608 0.841256 -0.0658872
    outer loop
      vertex 75.2569 -6.05923 312
      vertex 75.1302 -6.14002 312
      vertex 71.9569 -6.14002 337.845
    endloop
  endfacet
  facet normal 0.121861 4.84942e-07 -0.992547
    outer loop
      vertex 74.8099 -3.64933 338.195
      vertex 73.5611 -5.10131 338.042
      vertex 71.9569 -6.14002 337.845
    endloop
  endfacet
  facet normal 0.279644 0.95949 0.034336
    outer loop
      vertex 69.6207 -6.181 312
      vertex 69.48 -6.14002 312
      vertex 66.3906 -6.14002 337.161
    endloop
  endfacet
  facet normal 0.121875 1.12714e-05 -0.992545
    outer loop
      vertex 68.2203 -6.68129 337.386
      vertex 64.7864 -5.10131 336.964
      vertex 63.5376 -3.64933 336.811
    endloop
  endfacet
  facet normal -0.750115 -0.654862 -0.0921025
    outer loop
      vertex 77.9264 3.76366 312
      vertex 73.5611 5.10131 338.042
      vertex 76.7586 5.10131 312
    endloop
  endfacet
  facet normal -0.750117 -0.65486 -0.0921028
    outer loop
      vertex 73.5611 5.10131 338.042
      vertex 77.9264 3.76366 312
      vertex 74.8099 3.64933 338.195
    endloop
  endfacet
  facet normal 0.121861 -4.84942e-07 -0.992547
    outer loop
      vertex 73.5611 5.10131 338.042
      vertex 74.8099 3.64933 338.195
      vertex 71.9569 6.14002 337.845
    endloop
  endfacet
  facet normal 0.121861 9.81927e-06 -0.992547
    outer loop
      vertex 63.5376 3.64933 336.811
      vertex 68.2203 6.68129 337.386
      vertex 62.4741 0 336.68
    endloop
  endfacet
  facet normal 0.121907 -3.78284e-06 -0.992541
    outer loop
      vertex 62.7455 1.90169 336.714
      vertex 63.5376 3.64933 336.811
      vertex 62.4741 0 336.68
    endloop
  endfacet
  facet normal 0.279644 -0.95949 0.034336
    outer loop
      vertex 69.48 6.14002 312
      vertex 69.6207 6.181 312
      vertex 66.3906 6.14002 337.161
    endloop
  endfacet
  facet normal 0.536604 -0.841258 0.0658868
    outer loop
      vertex 69.3569 6.06146 312
      vertex 69.48 6.14002 312
      vertex 66.3906 6.14002 337.161
    endloop
  endfacet
  facet normal -0.536612 0.841253 -0.0658876
    outer loop
      vertex 75.2569 -6.05923 312
      vertex 73.5611 -5.10131 338.042
      vertex 76.7586 -5.10131 312
    endloop
  endfacet
  facet normal -0.53661 0.841254 -0.0658875
    outer loop
      vertex 73.5611 -5.10131 338.042
      vertex 75.2569 -6.05923 312
      vertex 71.9569 -6.14002 337.845
    endloop
  endfacet
  facet normal -0.750115 0.654862 -0.0921025
    outer loop
      vertex 73.5611 -5.10131 338.042
      vertex 77.9264 -3.76366 312
      vertex 76.7586 -5.10131 312
    endloop
  endfacet
  facet normal -0.750117 0.65486 -0.0921028
    outer loop
      vertex 77.9264 -3.76366 312
      vertex 73.5611 -5.10131 338.042
      vertex 74.8099 -3.64933 338.195
    endloop
  endfacet
  facet normal 0.121888 4.05059e-05 -0.992544
    outer loop
      vertex 68.2203 -6.68129 337.386
      vertex 66.3906 -6.14002 337.161
      vertex 64.7864 -5.10131 336.964
    endloop
  endfacet
  facet normal 0.53661 0.841254 0.0658875
    outer loop
      vertex 67.8516 -5.10131 312
      vertex 66.3906 -6.14002 337.161
      vertex 69.3569 -6.06146 312
    endloop
  endfacet
  facet normal 0.536612 0.841253 0.0658876
    outer loop
      vertex 66.3906 -6.14002 337.161
      vertex 67.8516 -5.10131 312
      vertex 64.7864 -5.10131 336.964
    endloop
  endfacet
  facet normal -0.989821 -0.142315 0
    outer loop
      vertex 69.5 -31.5 312
      vertex 69.2266 -29.5983 337
      vertex 69.2266 -29.5983 312
    endloop
  endfacet
  facet normal -0.989821 -0.142315 0
    outer loop
      vertex 69.2266 -29.5983 337
      vertex 69.5 -31.5 312
      vertex 69.5 -31.5 337
    endloop
  endfacet
  facet normal -0.281733 -0.959493 0
    outer loop
      vertex 63.7106 -24.8187 312
      vertex 65.554 -25.36 337
      vertex 63.7106 -24.8187 337
    endloop
  endfacet
  facet normal -0.281733 -0.959493 -0
    outer loop
      vertex 65.554 -25.36 337
      vertex 63.7106 -24.8187 312
      vertex 65.554 -25.36 312
    endloop
  endfacet
  facet normal 0.989821 0.142315 0
    outer loop
      vertex 56.2734 -33.4017 337
      vertex 56 -31.5 312
      vertex 56 -31.5 337
    endloop
  endfacet
  facet normal 0.989821 0.142315 0
    outer loop
      vertex 56 -31.5 312
      vertex 56.2734 -33.4017 337
      vertex 56.2734 -33.4017 312
    endloop
  endfacet
  facet normal -0.281733 0.959493 0
    outer loop
      vertex 65.554 -37.64 312
      vertex 63.7106 -38.1813 337
      vertex 65.554 -37.64 337
    endloop
  endfacet
  facet normal -0.281733 0.959493 0
    outer loop
      vertex 63.7106 -38.1813 337
      vertex 65.554 -37.64 312
      vertex 63.7106 -38.1813 312
    endloop
  endfacet
  facet normal 0 1 -0
    outer loop
      vertex 63.7106 -38.1813 312
      vertex 61.7894 -38.1813 337
      vertex 63.7106 -38.1813 337
    endloop
  endfacet
  facet normal 0 1 0
    outer loop
      vertex 61.7894 -38.1813 337
      vertex 63.7106 -38.1813 312
      vertex 61.7894 -38.1813 312
    endloop
  endfacet
  facet normal -0.909632 -0.415416 0
    outer loop
      vertex 69.2266 -29.5983 312
      vertex 68.4285 -27.8507 337
      vertex 68.4285 -27.8507 312
    endloop
  endfacet
  facet normal -0.909632 -0.415416 0
    outer loop
      vertex 68.4285 -27.8507 337
      vertex 69.2266 -29.5983 312
      vertex 69.2266 -29.5983 337
    endloop
  endfacet
  facet normal 0 -1 0
    outer loop
      vertex 61.7894 -24.8187 312
      vertex 63.7106 -24.8187 337
      vertex 61.7894 -24.8187 337
    endloop
  endfacet
  facet normal 0 -1 -0
    outer loop
      vertex 63.7106 -24.8187 337
      vertex 61.7894 -24.8187 312
      vertex 63.7106 -24.8187 312
    endloop
  endfacet
  facet normal 0.281733 -0.959493 0
    outer loop
      vertex 59.9459 -25.36 312
      vertex 61.7894 -24.8187 337
      vertex 59.9459 -25.36 337
    endloop
  endfacet
  facet normal 0.281733 -0.959493 0
    outer loop
      vertex 61.7894 -24.8187 337
      vertex 59.9459 -25.36 312
      vertex 61.7894 -24.8187 312
    endloop
  endfacet
  facet normal 0.989821 -0.142315 0
    outer loop
      vertex 56 -31.5 337
      vertex 56.2734 -29.5983 312
      vertex 56.2734 -29.5983 337
    endloop
  endfacet
  facet normal 0.989821 -0.142315 0
    outer loop
      vertex 56.2734 -29.5983 312
      vertex 56 -31.5 337
      vertex 56 -31.5 312
    endloop
  endfacet
  facet normal 0.909632 0.415414 0
    outer loop
      vertex 57.0715 -35.1493 337
      vertex 56.2734 -33.4017 312
      vertex 56.2734 -33.4017 337
    endloop
  endfacet
  facet normal 0.909632 0.415414 0
    outer loop
      vertex 56.2734 -33.4017 312
      vertex 57.0715 -35.1493 337
      vertex 57.0715 -35.1493 312
    endloop
  endfacet
  facet normal 0.281733 0.959493 -0
    outer loop
      vertex 61.7894 -38.1813 312
      vertex 59.9459 -37.64 337
      vertex 61.7894 -38.1813 337
    endloop
  endfacet
  facet normal 0.281733 0.959493 0
    outer loop
      vertex 59.9459 -37.64 337
      vertex 61.7894 -38.1813 312
      vertex 59.9459 -37.64 312
    endloop
  endfacet
  facet normal -0.75575 -0.65486 0
    outer loop
      vertex 68.4285 -27.8507 312
      vertex 67.1703 -26.3987 337
      vertex 67.1703 -26.3987 312
    endloop
  endfacet
  facet normal -0.75575 -0.65486 0
    outer loop
      vertex 67.1703 -26.3987 337
      vertex 68.4285 -27.8507 312
      vertex 68.4285 -27.8507 337
    endloop
  endfacet
  facet normal -0.540639 -0.841255 0
    outer loop
      vertex 65.554 -25.36 312
      vertex 67.1703 -26.3987 337
      vertex 65.554 -25.36 337
    endloop
  endfacet
  facet normal -0.540639 -0.841255 -0
    outer loop
      vertex 67.1703 -26.3987 337
      vertex 65.554 -25.36 312
      vertex 67.1703 -26.3987 312
    endloop
  endfacet
  facet normal 0.909632 -0.415414 0
    outer loop
      vertex 56.2734 -29.5983 337
      vertex 57.0715 -27.8507 312
      vertex 57.0715 -27.8507 337
    endloop
  endfacet
  facet normal 0.909632 -0.415414 0
    outer loop
      vertex 57.0715 -27.8507 312
      vertex 56.2734 -29.5983 337
      vertex 56.2734 -29.5983 312
    endloop
  endfacet
  facet normal 0.54064 -0.841254 0
    outer loop
      vertex 58.3297 -26.3987 312
      vertex 59.9459 -25.36 337
      vertex 58.3297 -26.3987 337
    endloop
  endfacet
  facet normal 0.54064 -0.841254 0
    outer loop
      vertex 59.9459 -25.36 337
      vertex 58.3297 -26.3987 312
      vertex 59.9459 -25.36 312
    endloop
  endfacet
  facet normal 0.755749 -0.654861 0
    outer loop
      vertex 57.0715 -27.8507 337
      vertex 58.3297 -26.3987 312
      vertex 58.3297 -26.3987 337
    endloop
  endfacet
  facet normal 0.755749 -0.654861 0
    outer loop
      vertex 58.3297 -26.3987 312
      vertex 57.0715 -27.8507 337
      vertex 57.0715 -27.8507 312
    endloop
  endfacet
  facet normal -0.909632 0.415416 0
    outer loop
      vertex 68.4285 -35.1493 312
      vertex 69.2266 -33.4017 337
      vertex 69.2266 -33.4017 312
    endloop
  endfacet
  facet normal -0.909632 0.415416 0
    outer loop
      vertex 69.2266 -33.4017 337
      vertex 68.4285 -35.1493 312
      vertex 68.4285 -35.1493 337
    endloop
  endfacet
  facet normal -0.540639 0.841255 0
    outer loop
      vertex 67.1703 -36.6013 312
      vertex 65.554 -37.64 337
      vertex 67.1703 -36.6013 337
    endloop
  endfacet
  facet normal -0.540639 0.841255 0
    outer loop
      vertex 65.554 -37.64 337
      vertex 67.1703 -36.6013 312
      vertex 65.554 -37.64 312
    endloop
  endfacet
  facet normal -0.989821 0.142315 0
    outer loop
      vertex 69.2266 -33.4017 312
      vertex 69.5 -31.5 337
      vertex 69.5 -31.5 312
    endloop
  endfacet
  facet normal -0.989821 0.142315 0
    outer loop
      vertex 69.5 -31.5 337
      vertex 69.2266 -33.4017 312
      vertex 69.2266 -33.4017 337
    endloop
  endfacet
  facet normal 0.755749 0.654861 0
    outer loop
      vertex 58.3297 -36.6013 337
      vertex 57.0715 -35.1493 312
      vertex 57.0715 -35.1493 337
    endloop
  endfacet
  facet normal 0.755749 0.654861 0
    outer loop
      vertex 57.0715 -35.1493 312
      vertex 58.3297 -36.6013 337
      vertex 58.3297 -36.6013 312
    endloop
  endfacet
  facet normal 0.540639 0.841254 -0
    outer loop
      vertex 59.9459 -37.64 312
      vertex 58.3297 -36.6013 337
      vertex 59.9459 -37.64 337
    endloop
  endfacet
  facet normal 0.540639 0.841254 0
    outer loop
      vertex 58.3297 -36.6013 337
      vertex 59.9459 -37.64 312
      vertex 58.3297 -36.6013 312
    endloop
  endfacet
  facet normal 0 0 -1
    outer loop
      vertex 69.2266 -33.4017 337
      vertex 69.2266 -29.5983 337
      vertex 69.5 -31.5 337
    endloop
  endfacet
  facet normal 0 0 -1
    outer loop
      vertex 68.4285 -35.1493 337
      vertex 69.2266 -29.5983 337
      vertex 69.2266 -33.4017 337
    endloop
  endfacet
  facet normal 0 0 -1
    outer loop
      vertex 68.4285 -35.1493 337
      vertex 68.4285 -27.8507 337
      vertex 69.2266 -29.5983 337
    endloop
  endfacet
  facet normal 0 0 -1
    outer loop
      vertex 67.1703 -36.6013 337
      vertex 68.4285 -27.8507 337
      vertex 68.4285 -35.1493 337
    endloop
  endfacet
  facet normal 0 0 -1
    outer loop
      vertex 67.1703 -36.6013 337
      vertex 67.1703 -26.3987 337
      vertex 68.4285 -27.8507 337
    endloop
  endfacet
  facet normal 0 0 -1
    outer loop
      vertex 65.554 -37.64 337
      vertex 67.1703 -26.3987 337
      vertex 67.1703 -36.6013 337
    endloop
  endfacet
  facet normal 0 0 -1
    outer loop
      vertex 65.554 -37.64 337
      vertex 65.554 -25.36 337
      vertex 67.1703 -26.3987 337
    endloop
  endfacet
  facet normal 0 0 -1
    outer loop
      vertex 63.7106 -38.1813 337
      vertex 65.554 -25.36 337
      vertex 65.554 -37.64 337
    endloop
  endfacet
  facet normal 0 0 -1
    outer loop
      vertex 63.7106 -38.1813 337
      vertex 63.7106 -24.8187 337
      vertex 65.554 -25.36 337
    endloop
  endfacet
  facet normal 0 0 -1
    outer loop
      vertex 61.7894 -38.1813 337
      vertex 63.7106 -24.8187 337
      vertex 63.7106 -38.1813 337
    endloop
  endfacet
  facet normal 0 0 -1
    outer loop
      vertex 61.7894 -38.1813 337
      vertex 61.7894 -24.8187 337
      vertex 63.7106 -24.8187 337
    endloop
  endfacet
  facet normal 0 0 -1
    outer loop
      vertex 59.9459 -37.64 337
      vertex 61.7894 -24.8187 337
      vertex 61.7894 -38.1813 337
    endloop
  endfacet
  facet normal 0 0 -1
    outer loop
      vertex 59.9459 -37.64 337
      vertex 59.9459 -25.36 337
      vertex 61.7894 -24.8187 337
    endloop
  endfacet
  facet normal 0 0 -1
    outer loop
      vertex 58.3297 -36.6013 337
      vertex 59.9459 -25.36 337
      vertex 59.9459 -37.64 337
    endloop
  endfacet
  facet normal 0 0 -1
    outer loop
      vertex 58.3297 -36.6013 337
      vertex 58.3297 -26.3987 337
      vertex 59.9459 -25.36 337
    endloop
  endfacet
  facet normal 0 0 -1
    outer loop
      vertex 57.0715 -35.1493 337
      vertex 58.3297 -26.3987 337
      vertex 58.3297 -36.6013 337
    endloop
  endfacet
  facet normal 0 0 -1
    outer loop
      vertex 57.0715 -35.1493 337
      vertex 57.0715 -27.8507 337
      vertex 58.3297 -26.3987 337
    endloop
  endfacet
  facet normal 0 0 -1
    outer loop
      vertex 56.2734 -33.4017 337
      vertex 57.0715 -27.8507 337
      vertex 57.0715 -35.1493 337
    endloop
  endfacet
  facet normal 0 0 -1
    outer loop
      vertex 56.2734 -33.4017 337
      vertex 56.2734 -29.5983 337
      vertex 57.0715 -27.8507 337
    endloop
  endfacet
  facet normal 0 -0 -1
    outer loop
      vertex 56.2734 -29.5983 337
      vertex 56.2734 -33.4017 337
      vertex 56 -31.5 337
    endloop
  endfacet
  facet normal -0.75575 0.65486 0
    outer loop
      vertex 67.1703 -36.6013 312
      vertex 68.4285 -35.1493 337
      vertex 68.4285 -35.1493 312
    endloop
  endfacet
  facet normal -0.75575 0.65486 0
    outer loop
      vertex 68.4285 -35.1493 337
      vertex 67.1703 -36.6013 312
      vertex 67.1703 -36.6013 337
    endloop
  endfacet
  facet normal 0 -0.195102 0.980783
    outer loop
      vertex 51 1.91342 355.381
      vertex 59 1.66228 355.331
      vertex 59 1.91342 355.381
    endloop
  endfacet
  facet normal -1.0324e-06 -0.195134 0.980777
    outer loop
      vertex 59 1.66228 355.331
      vertex 51 1.91342 355.381
      vertex 51 1.56661 355.312
    endloop
  endfacet
  facet normal -1.50793e-06 -0.195096 0.980784
    outer loop
      vertex 51 1.56661 355.312
      vertex 59 0 355
      vertex 59 1.66228 355.331
    endloop
  endfacet
  facet normal 0 -0.195088 0.980786
    outer loop
      vertex 59 0 355
      vertex 51 1.56661 355.312
      vertex 51 0 355
    endloop
  endfacet
  facet normal 0 0.979457 0.201654
    outer loop
      vertex 59 -4.6194 358.087
      vertex 51 -7.07217 370
      vertex 59 -7.07217 370
    endloop
  endfacet
  facet normal 0 0.979457 0.201654
    outer loop
      vertex 51 -7.07217 370
      vertex 59 -4.6194 358.087
      vertex 51 -4.6194 358.087
    endloop
  endfacet
  facet normal 0 -0.55557 0.83147
    outer loop
      vertex 51 3.53553 356.464
      vertex 59 1.91342 355.381
      vertex 59 3.53553 356.464
    endloop
  endfacet
  facet normal 0 -0.55557 0.83147
    outer loop
      vertex 59 1.91342 355.381
      vertex 51 3.53553 356.464
      vertex 51 1.91342 355.381
    endloop
  endfacet
  facet normal 0 -0.979457 0.201654
    outer loop
      vertex 51 4.6194 358.087
      vertex 59 7.07217 370
      vertex 51 7.07217 370
    endloop
  endfacet
  facet normal 0 -0.979457 0.201654
    outer loop
      vertex 59 7.07217 370
      vertex 51 4.6194 358.087
      vertex 59 4.6194 358.087
    endloop
  endfacet
  facet normal 0 0.831467 0.555574
    outer loop
      vertex 59 -3.53553 356.464
      vertex 51 -4.6194 358.087
      vertex 59 -4.6194 358.087
    endloop
  endfacet
  facet normal 0 0.831467 0.555574
    outer loop
      vertex 51 -4.6194 358.087
      vertex 59 -3.53553 356.464
      vertex 51 -3.53553 356.464
    endloop
  endfacet
  facet normal 0 -0.831467 0.555574
    outer loop
      vertex 51 3.53553 356.464
      vertex 59 4.6194 358.087
      vertex 51 4.6194 358.087
    endloop
  endfacet
  facet normal 0 -0.831467 0.555574
    outer loop
      vertex 59 4.6194 358.087
      vertex 51 3.53553 356.464
      vertex 59 3.53553 356.464
    endloop
  endfacet
  facet normal -0 0.55557 0.83147
    outer loop
      vertex 51 -1.91342 355.381
      vertex 59 -3.53553 356.464
      vertex 59 -1.91342 355.381
    endloop
  endfacet
  facet normal 0 0.55557 0.83147
    outer loop
      vertex 59 -3.53553 356.464
      vertex 51 -1.91342 355.381
      vertex 51 -3.53553 356.464
    endloop
  endfacet
  facet normal -1.0324e-06 0.195134 0.980777
    outer loop
      vertex 51 -1.91342 355.381
      vertex 59 -1.66228 355.331
      vertex 51 -1.56661 355.312
    endloop
  endfacet
  facet normal 0 0.195102 0.980783
    outer loop
      vertex 59 -1.66228 355.331
      vertex 51 -1.91342 355.381
      vertex 59 -1.91342 355.381
    endloop
  endfacet
  facet normal 0 0.195088 0.980786
    outer loop
      vertex 51 -1.56661 355.312
      vertex 59 0 355
      vertex 51 0 355
    endloop
  endfacet
  facet normal -1.50793e-06 0.195096 0.980784
    outer loop
      vertex 59 0 355
      vertex 51 -1.56661 355.312
      vertex 59 -1.66228 355.331
    endloop
  endfacet
  facet normal 0.555052 -0.831816 0
    outer loop
      vertex 68.625 -41.6758 312
      vertex 69.2969 -41.2274 342
      vertex 68.625 -41.6758 342
    endloop
  endfacet
  facet normal 0.555056 -0.831813 -1.20937e-07
    outer loop
      vertex 69.2969 -41.2274 342
      vertex 68.625 -41.6758 312
      vertex 73.3284 -38.5373 312
    endloop
  endfacet
  facet normal -0.207912 0.978148 0
    outer loop
      vertex 61.5218 43.1856 312
      vertex 59.119 42.6749 342
      vertex 61.5218 43.1856 342
    endloop
  endfacet
  facet normal -0.207912 0.978148 0
    outer loop
      vertex 59.119 42.6749 342
      vertex 61.5218 43.1856 312
      vertex 59.119 42.6749 312
    endloop
  endfacet
  facet normal 0.555056 0.831813 -1.20937e-07
    outer loop
      vertex 68.625 41.6758 312
      vertex 69.2969 41.2274 342
      vertex 73.3284 38.5373 312
    endloop
  endfacet
  facet normal 0.555052 0.831816 0
    outer loop
      vertex 69.2969 41.2274 342
      vertex 68.625 41.6758 312
      vertex 68.625 41.6758 342
    endloop
  endfacet
  facet normal 0.987109 -0.104528 0.121202
    outer loop
      vertex 79.3626 -2.44296 338.829
      vertex 82.8952 -0.191611 312
      vertex 79.6175 0 338.86
    endloop
  endfacet
  facet normal 0.987109 -0.104528 0.121202
    outer loop
      vertex 82.8952 -0.191611 312
      vertex 79.3626 -2.44296 338.829
      vertex 82.6568 -2.44296 312
    endloop
  endfacet
  facet normal 0.59003 -0.807352 0.00687362
    outer loop
      vertex 75.1176 -37.2373 312
      vertex 71.2844 -39.7833 342
      vertex 71.2559 -39.8041 342
    endloop
  endfacet
  facet normal 0.590079 -0.807316 0.00688301
    outer loop
      vertex 71.2844 -39.7833 342
      vertex 75.1176 -37.2373 312
      vertex 75.3174 -37.0913 312
    endloop
  endfacet
  facet normal -0.951057 -0.309016 0
    outer loop
      vertex 52.0158 -36.2792 312
      vertex 51.2568 -33.943 342
      vertex 51.2568 -33.943 312
    endloop
  endfacet
  facet normal -0.951057 -0.309016 0
    outer loop
      vertex 51.2568 -33.943 342
      vertex 52.0158 -36.2792 312
      vertex 52.0158 -36.2792 342
    endloop
  endfacet
  facet normal -0.951057 0.309016 0
    outer loop
      vertex 51.2568 33.943 312
      vertex 52.0158 36.2792 342
      vertex 52.0158 36.2792 312
    endloop
  endfacet
  facet normal -0.951057 0.309016 0
    outer loop
      vertex 52.0158 36.2792 342
      vertex 51.2568 33.943 312
      vertex 51.2568 33.943 342
    endloop
  endfacet
  facet normal -1 0 0
    outer loop
      vertex 51 31.5 312
      vertex 51 29.8889 342
      vertex 51 31.5 342
    endloop
  endfacet
  facet normal -1 0 0
    outer loop
      vertex 51 0 355
      vertex 51 29.8889 342
      vertex 51 31.5 312
    endloop
  endfacet
  facet normal -1 0 0
    outer loop
      vertex 51 29.8889 342
      vertex 51 4.6194 358.087
      vertex 51 17 370
    endloop
  endfacet
  facet normal -1 -0 0
    outer loop
      vertex 51 17 370
      vertex 51 4.6194 358.087
      vertex 51 7.07217 370
    endloop
  endfacet
  facet normal -1 0 0
    outer loop
      vertex 51 29.8889 342
      vertex 51 3.53553 356.464
      vertex 51 4.6194 358.087
    endloop
  endfacet
  facet normal -1 0 0
    outer loop
      vertex 51 29.8889 342
      vertex 51 1.91342 355.381
      vertex 51 3.53553 356.464
    endloop
  endfacet
  facet normal -1 0 0
    outer loop
      vertex 51 29.8889 342
      vertex 51 1.56661 355.312
      vertex 51 1.91342 355.381
    endloop
  endfacet
  facet normal -1 0 0
    outer loop
      vertex 51 29.8889 342
      vertex 51 0 355
      vertex 51 1.56661 355.312
    endloop
  endfacet
  facet normal -1 0 0
    outer loop
      vertex 51 -31.5 313.5
      vertex 51 0 355
      vertex 51 31.5 312
    endloop
  endfacet
  facet normal -1 0 0
    outer loop
      vertex 51 -31.5 338.5
      vertex 51 0 355
      vertex 51 -31.5 313.5
    endloop
  endfacet
  facet normal -1 -0 0
    outer loop
      vertex 51 0 355
      vertex 51 -31.5 338.5
      vertex 51 -1.56661 355.312
    endloop
  endfacet
  facet normal -1 0 0
    outer loop
      vertex 51 -4.6194 358.087
      vertex 51 -17 370
      vertex 51 -7.07217 370
    endloop
  endfacet
  facet normal -1 0 0
    outer loop
      vertex 51 -29.8889 342
      vertex 51 -4.6194 358.087
      vertex 51 -3.53553 356.464
    endloop
  endfacet
  facet normal -1 0 -0
    outer loop
      vertex 51 -29.8889 342
      vertex 51 -1.56661 355.312
      vertex 51 -31.5 338.5
    endloop
  endfacet
  facet normal -1 -0 0
    outer loop
      vertex 51 -4.6194 358.087
      vertex 51 -29.8889 342
      vertex 51 -17 370
    endloop
  endfacet
  facet normal -1 0 0
    outer loop
      vertex 51 -31.5 313.5
      vertex 51 31.5 312
      vertex 51 -31.5 312
    endloop
  endfacet
  facet normal -1 -0 0
    outer loop
      vertex 51 -1.56661 355.312
      vertex 51 -29.8889 342
      vertex 51 -1.91342 355.381
    endloop
  endfacet
  facet normal -1 -0 0
    outer loop
      vertex 51 -1.91342 355.381
      vertex 51 -29.8889 342
      vertex 51 -3.53553 356.464
    endloop
  endfacet
  facet normal -1 -0 0
    outer loop
      vertex 51 -29.8889 342
      vertex 51 -31.5 338.5
      vertex 51 -31.5 342
    endloop
  endfacet
  facet normal -0.994522 0.104529 0
    outer loop
      vertex 51 31.5 312
      vertex 51.2568 33.943 342
      vertex 51.2568 33.943 312
    endloop
  endfacet
  facet normal -0.994522 0.104529 0
    outer loop
      vertex 51.2568 33.943 342
      vertex 51 31.5 312
      vertex 51 31.5 342
    endloop
  endfacet
  facet normal -0.994522 -0.104529 0
    outer loop
      vertex 51.2568 -33.943 312
      vertex 51 -31.5 313.5
      vertex 51 -31.5 312
    endloop
  endfacet
  facet normal -0.994522 -0.104529 0
    outer loop
      vertex 51 -31.5 313.5
      vertex 51.2568 -33.943 312
      vertex 51 -31.5 338.5
    endloop
  endfacet
  facet normal -0.994522 -0.104529 -0
    outer loop
      vertex 51.2568 -33.943 342
      vertex 51 -31.5 338.5
      vertex 51.2568 -33.943 312
    endloop
  endfacet
  facet normal -0.994522 -0.104529 0
    outer loop
      vertex 51 -31.5 338.5
      vertex 51.2568 -33.943 342
      vertex 51 -31.5 342
    endloop
  endfacet
  facet normal -0.587785 0.809017 0
    outer loop
      vertex 56.875 41.6758 312
      vertex 54.8877 40.2319 342
      vertex 56.875 41.6758 342
    endloop
  endfacet
  facet normal -0.587785 0.809017 0
    outer loop
      vertex 54.8877 40.2319 342
      vertex 56.875 41.6758 312
      vertex 54.8877 40.2319 312
    endloop
  endfacet
  facet normal 0.742895 0.668217 0.0399044
    outer loop
      vertex 72.9283 37.9576 342
      vertex 76.7972 35.4478 312
      vertex 72.9047 37.9838 342
    endloop
  endfacet
  facet normal 0.742854 0.668263 0.0398953
    outer loop
      vertex 76.7972 35.4478 312
      vertex 72.9283 37.9576 342
      vertex 76.9625 35.264 312
    endloop
  endfacet
  facet normal -0.743145 -0.669131 0
    outer loop
      vertex 54.8877 -40.2319 312
      vertex 53.244 -38.4065 342
      vertex 53.244 -38.4065 312
    endloop
  endfacet
  facet normal -0.743145 -0.669131 0
    outer loop
      vertex 53.244 -38.4065 342
      vertex 54.8877 -40.2319 312
      vertex 54.8877 -40.2319 342
    endloop
  endfacet
  facet normal 0 -1 0
    outer loop
      vertex 61.5218 -43.1856 312
      vertex 63.9782 -43.1856 342
      vertex 61.5218 -43.1856 342
    endloop
  endfacet
  facet normal 0 -1 -0
    outer loop
      vertex 63.9782 -43.1856 342
      vertex 61.5218 -43.1856 312
      vertex 63.9782 -43.1856 312
    endloop
  endfacet
  facet normal -0.406737 -0.913545 0
    outer loop
      vertex 56.875 -41.6758 312
      vertex 59.119 -42.6749 342
      vertex 56.875 -41.6758 342
    endloop
  endfacet
  facet normal -0.406737 -0.913545 -0
    outer loop
      vertex 59.119 -42.6749 342
      vertex 56.875 -41.6758 312
      vertex 59.119 -42.6749 312
    endloop
  endfacet
  facet normal 0.587775 0.808999 0.0064425
    outer loop
      vertex 73.3284 38.5373 312
      vertex 71.2559 39.8041 342
      vertex 75.1176 37.2373 312
    endloop
  endfacet
  facet normal 0.587775 0.808999 0.0064425
    outer loop
      vertex 71.2559 39.8041 342
      vertex 73.3284 38.5373 312
      vertex 69.2969 41.2274 342
    endloop
  endfacet
  facet normal 0.742555 0.6686 0.0398281
    outer loop
      vertex 72.9047 37.9838 342
      vertex 75.3174 37.0913 312
      vertex 71.2844 39.7833 342
    endloop
  endfacet
  facet normal 0.742556 0.668598 0.0398283
    outer loop
      vertex 75.3174 37.0913 312
      vertex 72.9047 37.9838 342
      vertex 76.7972 35.4478 312
    endloop
  endfacet
  facet normal 0.863236 0.499751 0.0712133
    outer loop
      vertex 72.946 37.927 342
      vertex 76.9625 35.264 312
      vertex 72.9283 37.9576 342
    endloop
  endfacet
  facet normal 0.863267 0.499698 0.071222
    outer loop
      vertex 76.9625 35.264 312
      vertex 72.946 37.927 342
      vertex 77.0862 35.0504 312
    endloop
  endfacet
  facet normal -0.866025 -0.500001 0
    outer loop
      vertex 53.244 -38.4065 312
      vertex 52.0158 -36.2792 342
      vertex 52.0158 -36.2792 312
    endloop
  endfacet
  facet normal -0.866025 -0.500001 0
    outer loop
      vertex 52.0158 -36.2792 342
      vertex 53.244 -38.4065 312
      vertex 53.244 -38.4065 342
    endloop
  endfacet
  facet normal -0.587785 -0.809017 0
    outer loop
      vertex 54.8877 -40.2319 312
      vertex 56.875 -41.6758 342
      vertex 54.8877 -40.2319 342
    endloop
  endfacet
  facet normal -0.587785 -0.809017 -0
    outer loop
      vertex 56.875 -41.6758 342
      vertex 54.8877 -40.2319 312
      vertex 56.875 -41.6758 312
    endloop
  endfacet
  facet normal -0.207912 -0.978148 0
    outer loop
      vertex 59.119 -42.6749 312
      vertex 61.5218 -43.1856 342
      vertex 59.119 -42.6749 342
    endloop
  endfacet
  facet normal -0.207912 -0.978148 -0
    outer loop
      vertex 61.5218 -43.1856 342
      vertex 59.119 -42.6749 312
      vertex 61.5218 -43.1856 312
    endloop
  endfacet
  facet normal 0.984302 -0.12862 0.120857
    outer loop
      vertex 77.3759 -14.6673 342
      vertex 82.6568 -2.44296 312
      vertex 79.3626 -2.44296 338.829
    endloop
  endfacet
  facet normal 0.984302 -0.12862 0.120857
    outer loop
      vertex 77.3759 -14.6673 342
      vertex 78.9516 -30.7983 312
      vertex 82.6568 -2.44296 312
    endloop
  endfacet
  facet normal 0.984302 -0.12862 0.120857
    outer loop
      vertex 78.9516 -30.7983 312
      vertex 77.3759 -14.6673 342
      vertex 74.9159 -33.4937 342
    endloop
  endfacet
  facet normal 0.207912 -0.978148 0
    outer loop
      vertex 63.9782 -43.1856 312
      vertex 66.381 -42.6749 342
      vertex 63.9782 -43.1856 342
    endloop
  endfacet
  facet normal 0.207912 -0.978148 0
    outer loop
      vertex 66.381 -42.6749 342
      vertex 63.9782 -43.1856 312
      vertex 66.381 -42.6749 312
    endloop
  endfacet
  facet normal 0.94583 0.309054 0.0994593
    outer loop
      vertex 74.1676 35.7966 342
      vertex 78.1918 33.1354 312
      vertex 74.1567 35.83 342
    endloop
  endfacet
  facet normal 0.945846 0.309002 0.099466
    outer loop
      vertex 78.1918 33.1354 312
      vertex 74.1676 35.7966 342
      vertex 78.2683 32.9013 312
    endloop
  endfacet
  facet normal 0.987109 0.104528 0.121202
    outer loop
      vertex 79.3626 2.44296 338.829
      vertex 82.8952 0.191611 312
      vertex 82.6568 2.44296 312
    endloop
  endfacet
  facet normal 0.987109 0.104528 0.121202
    outer loop
      vertex 82.8952 0.191611 312
      vertex 79.3626 2.44296 338.829
      vertex 79.6175 0 338.86
    endloop
  endfacet
  facet normal 0.863816 -0.498724 0.0713914
    outer loop
      vertex 74.1567 -35.83 342
      vertex 77.0862 -35.0504 312
      vertex 78.1918 -33.1354 312
    endloop
  endfacet
  facet normal 0.863816 -0.498723 0.0713914
    outer loop
      vertex 77.0862 -35.0504 312
      vertex 74.1567 -35.83 342
      vertex 72.946 -37.927 342
    endloop
  endfacet
  facet normal 0.94632 -0.307477 0.0996781
    outer loop
      vertex 74.9159 -33.4937 342
      vertex 78.2683 -32.9013 312
      vertex 78.9516 -30.7983 312
    endloop
  endfacet
  facet normal 0.946321 -0.307476 0.0996782
    outer loop
      vertex 78.2683 -32.9013 312
      vertex 74.9159 -33.4937 342
      vertex 74.1676 -35.7966 342
    endloop
  endfacet
  facet normal -0.743145 0.669131 0
    outer loop
      vertex 53.244 38.4065 312
      vertex 54.8877 40.2319 342
      vertex 54.8877 40.2319 312
    endloop
  endfacet
  facet normal -0.743145 0.669131 0
    outer loop
      vertex 54.8877 40.2319 342
      vertex 53.244 38.4065 312
      vertex 53.244 38.4065 342
    endloop
  endfacet
  facet normal 0.590079 0.807316 0.00688301
    outer loop
      vertex 75.1176 37.2373 312
      vertex 71.2844 39.7833 342
      vertex 75.3174 37.0913 312
    endloop
  endfacet
  facet normal 0.59003 0.807352 0.00687362
    outer loop
      vertex 71.2844 39.7833 342
      vertex 75.1176 37.2373 312
      vertex 71.2559 39.8041 342
    endloop
  endfacet
  facet normal 0.406737 0.913545 -0
    outer loop
      vertex 68.625 41.6758 312
      vertex 66.381 42.6749 342
      vertex 68.625 41.6758 342
    endloop
  endfacet
  facet normal 0.406737 0.913545 0
    outer loop
      vertex 66.381 42.6749 342
      vertex 68.625 41.6758 312
      vertex 66.381 42.6749 312
    endloop
  endfacet
  facet normal 0.97114 0.102068 0.215569
    outer loop
      vertex 79.6175 0 338.86
      vertex 77.5445 13.0925 342
      vertex 77.6436 12.1502 342
    endloop
  endfacet
  facet normal 0.863816 0.498723 0.0713914
    outer loop
      vertex 74.1567 35.83 342
      vertex 77.0862 35.0504 312
      vertex 72.946 37.927 342
    endloop
  endfacet
  facet normal 0.863816 0.498724 0.0713914
    outer loop
      vertex 77.0862 35.0504 312
      vertex 74.1567 35.83 342
      vertex 78.1918 33.1354 312
    endloop
  endfacet
  facet normal 0.742556 -0.668598 0.0398283
    outer loop
      vertex 72.9047 -37.9838 342
      vertex 75.3174 -37.0913 312
      vertex 76.7972 -35.4478 312
    endloop
  endfacet
  facet normal 0.742555 -0.6686 0.0398281
    outer loop
      vertex 75.3174 -37.0913 312
      vertex 72.9047 -37.9838 342
      vertex 71.2844 -39.7833 342
    endloop
  endfacet
  facet normal 0.742854 -0.668263 0.0398953
    outer loop
      vertex 72.9283 -37.9576 342
      vertex 76.7972 -35.4478 312
      vertex 76.9625 -35.264 312
    endloop
  endfacet
  facet normal 0.742895 -0.668217 0.0399044
    outer loop
      vertex 76.7972 -35.4478 312
      vertex 72.9283 -37.9576 342
      vertex 72.9047 -37.9838 342
    endloop
  endfacet
  facet normal -0.866025 0.500001 0
    outer loop
      vertex 52.0158 36.2792 312
      vertex 53.244 38.4065 342
      vertex 53.244 38.4065 312
    endloop
  endfacet
  facet normal -0.866025 0.500001 0
    outer loop
      vertex 53.244 38.4065 342
      vertex 52.0158 36.2792 312
      vertex 52.0158 36.2792 342
    endloop
  endfacet
  facet normal 0 1 -0
    outer loop
      vertex 63.9782 43.1856 312
      vertex 61.5218 43.1856 342
      vertex 63.9782 43.1856 342
    endloop
  endfacet
  facet normal 0 1 0
    outer loop
      vertex 61.5218 43.1856 342
      vertex 63.9782 43.1856 312
      vertex 61.5218 43.1856 312
    endloop
  endfacet
  facet normal 0.207912 0.978148 -0
    outer loop
      vertex 66.381 42.6749 312
      vertex 63.9782 43.1856 342
      vertex 66.381 42.6749 342
    endloop
  endfacet
  facet normal 0.207912 0.978148 0
    outer loop
      vertex 63.9782 43.1856 342
      vertex 66.381 42.6749 312
      vertex 63.9782 43.1856 312
    endloop
  endfacet
  facet normal 0.946321 0.307476 0.0996782
    outer loop
      vertex 74.9159 33.4937 342
      vertex 78.2683 32.9013 312
      vertex 74.1676 35.7966 342
    endloop
  endfacet
  facet normal 0.94632 0.307477 0.0996781
    outer loop
      vertex 78.2683 32.9013 312
      vertex 74.9159 33.4937 342
      vertex 78.9516 30.7983 312
    endloop
  endfacet
  facet normal 0.406737 -0.913545 0
    outer loop
      vertex 66.381 -42.6749 312
      vertex 68.625 -41.6758 342
      vertex 66.381 -42.6749 342
    endloop
  endfacet
  facet normal 0.406737 -0.913545 0
    outer loop
      vertex 68.625 -41.6758 342
      vertex 66.381 -42.6749 312
      vertex 68.625 -41.6758 312
    endloop
  endfacet
  facet normal 0.587775 -0.808999 0.0064425
    outer loop
      vertex 73.3284 -38.5373 312
      vertex 71.2559 -39.8041 342
      vertex 69.2969 -41.2274 342
    endloop
  endfacet
  facet normal 0.587775 -0.808999 0.0064425
    outer loop
      vertex 71.2559 -39.8041 342
      vertex 73.3284 -38.5373 312
      vertex 75.1176 -37.2373 312
    endloop
  endfacet
  facet normal 0.863267 -0.499698 0.071222
    outer loop
      vertex 72.946 -37.927 342
      vertex 76.9625 -35.264 312
      vertex 77.0862 -35.0504 312
    endloop
  endfacet
  facet normal 0.863236 -0.499751 0.0712133
    outer loop
      vertex 76.9625 -35.264 312
      vertex 72.946 -37.927 342
      vertex 72.9283 -37.9576 342
    endloop
  endfacet
  facet normal 0.945846 -0.309002 0.099466
    outer loop
      vertex 74.1676 -35.7966 342
      vertex 78.1918 -33.1354 312
      vertex 78.2683 -32.9013 312
    endloop
  endfacet
  facet normal 0.94583 -0.309054 0.0994593
    outer loop
      vertex 78.1918 -33.1354 312
      vertex 74.1676 -35.7966 342
      vertex 74.1567 -35.83 342
    endloop
  endfacet
  facet normal 0.972581 -0.104123 0.207952
    outer loop
      vertex 77.5445 -13.0925 342
      vertex 79.3626 -2.44296 338.829
      vertex 79.6175 0 338.86
    endloop
  endfacet
  facet normal 0.972582 -0.104125 0.207948
    outer loop
      vertex 79.3626 -2.44296 338.829
      vertex 77.5445 -13.0925 342
      vertex 77.3759 -14.6673 342
    endloop
  endfacet
  facet normal 0.987107 -0.104548 0.121202
    outer loop
      vertex 82.9155 0 312
      vertex 79.6175 0 338.86
      vertex 82.8952 -0.191611 312
    endloop
  endfacet
  facet normal 0.987107 0.104548 0.121202
    outer loop
      vertex 82.8952 0.191611 312
      vertex 79.6175 0 338.86
      vertex 82.9155 0 312
    endloop
  endfacet
  facet normal -0.406737 0.913545 0
    outer loop
      vertex 59.119 42.6749 312
      vertex 56.875 41.6758 342
      vertex 59.119 42.6749 342
    endloop
  endfacet
  facet normal -0.406737 0.913545 0
    outer loop
      vertex 56.875 41.6758 342
      vertex 59.119 42.6749 312
      vertex 56.875 41.6758 312
    endloop
  endfacet
  facet normal 0.972582 0.104125 0.207948
    outer loop
      vertex 77.5445 13.0925 342
      vertex 79.3626 2.44296 338.829
      vertex 77.3759 14.6673 342
    endloop
  endfacet
  facet normal 0.972581 0.104123 0.207952
    outer loop
      vertex 79.3626 2.44296 338.829
      vertex 77.5445 13.0925 342
      vertex 79.6175 0 338.86
    endloop
  endfacet
  facet normal 0.984302 0.12862 0.120857
    outer loop
      vertex 77.3759 14.6673 342
      vertex 78.9516 30.7983 312
      vertex 74.9159 33.4937 342
    endloop
  endfacet
  facet normal 0.984302 0.12862 0.120857
    outer loop
      vertex 82.6568 2.44296 312
      vertex 77.3759 14.6673 342
      vertex 79.3626 2.44296 338.829
    endloop
  endfacet
  facet normal 0.984302 0.12862 0.120857
    outer loop
      vertex 77.3759 14.6673 342
      vertex 82.6568 2.44296 312
      vertex 78.9516 30.7983 312
    endloop
  endfacet
  facet normal 0.97114 -0.102068 0.215569
    outer loop
      vertex 77.6436 -12.1502 342
      vertex 77.5445 -13.0925 342
      vertex 79.6175 0 338.86
    endloop
  endfacet
  facet normal 0.846582 0 0.532258
    outer loop
      vertex 77.6436 12.1502 342
      vertex 77.6436 -12.1502 342
      vertex 79.6175 0 338.86
    endloop
  endfacet
  facet normal 0 0 1
    outer loop
      vertex 59 29.8889 342
      vertex 77.6436 12.1502 342
      vertex 77.5445 13.0925 342
    endloop
  endfacet
  facet normal 0 0 1
    outer loop
      vertex 77.6436 12.1502 342
      vertex 59 29.8889 342
      vertex 77.6436 -12.1502 342
    endloop
  endfacet
  facet normal 0 0 1
    outer loop
      vertex 59 29.8889 342
      vertex 77.5445 13.0925 342
      vertex 77.3759 14.6673 342
    endloop
  endfacet
  facet normal 0 0 1
    outer loop
      vertex 59 -29.8889 342
      vertex 77.6436 -12.1502 342
      vertex 59 29.8889 342
    endloop
  endfacet
  facet normal -0 0 1
    outer loop
      vertex 59 29.8889 342
      vertex 77.3759 14.6673 342
      vertex 74.9159 33.4937 342
    endloop
  endfacet
  facet normal 0 0 1
    outer loop
      vertex 77.6436 -12.1502 342
      vertex 59 -29.8889 342
      vertex 77.5445 -13.0925 342
    endloop
  endfacet
  facet normal 0 0 1
    outer loop
      vertex 59 29.8889 342
      vertex 74.9159 33.4937 342
      vertex 74.1676 35.7966 342
    endloop
  endfacet
  facet normal 0 0 1
    outer loop
      vertex 77.5445 -13.0925 342
      vertex 59 -29.8889 342
      vertex 77.3759 -14.6673 342
    endloop
  endfacet
  facet normal 0 0 1
    outer loop
      vertex 72.946 37.927 342
      vertex 74.1676 35.7966 342
      vertex 74.1567 35.83 342
    endloop
  endfacet
  facet normal 0 0 1
    outer loop
      vertex 77.3759 -14.6673 342
      vertex 59 -29.8889 342
      vertex 74.9159 -33.4937 342
    endloop
  endfacet
  facet normal 0 0 1
    outer loop
      vertex 74.1676 35.7966 342
      vertex 72.946 37.927 342
      vertex 59 29.8889 342
    endloop
  endfacet
  facet normal 0 0 1
    outer loop
      vertex 74.9159 -33.4937 342
      vertex 59 -29.8889 342
      vertex 74.1676 -35.7966 342
    endloop
  endfacet
  facet normal 0 0 1
    outer loop
      vertex 72.9047 37.9838 342
      vertex 72.946 37.927 342
      vertex 72.9283 37.9576 342
    endloop
  endfacet
  facet normal 0 -0 1
    outer loop
      vertex 72.946 -37.927 342
      vertex 74.1676 -35.7966 342
      vertex 59 -29.8889 342
    endloop
  endfacet
  facet normal 0 0 1
    outer loop
      vertex 72.946 37.927 342
      vertex 72.9047 37.9838 342
      vertex 59 29.8889 342
    endloop
  endfacet
  facet normal 0 0 1
    outer loop
      vertex 74.1676 -35.7966 342
      vertex 72.946 -37.927 342
      vertex 74.1567 -35.83 342
    endloop
  endfacet
  facet normal 0 0 1
    outer loop
      vertex 71.2559 39.8041 342
      vertex 72.9047 37.9838 342
      vertex 71.2844 39.7833 342
    endloop
  endfacet
  facet normal 0 -0 1
    outer loop
      vertex 72.9047 -37.9838 342
      vertex 72.946 -37.927 342
      vertex 59 -29.8889 342
    endloop
  endfacet
  facet normal 0 0 1
    outer loop
      vertex 72.9047 37.9838 342
      vertex 71.2559 39.8041 342
      vertex 59 29.8889 342
    endloop
  endfacet
  facet normal 0 0 1
    outer loop
      vertex 72.946 -37.927 342
      vertex 72.9047 -37.9838 342
      vertex 72.9283 -37.9576 342
    endloop
  endfacet
  facet normal 0 0 1
    outer loop
      vertex 59 29.8889 342
      vertex 71.2559 39.8041 342
      vertex 69.2969 41.2274 342
    endloop
  endfacet
  facet normal 0 -0 1
    outer loop
      vertex 71.2559 -39.8041 342
      vertex 72.9047 -37.9838 342
      vertex 59 -29.8889 342
    endloop
  endfacet
  facet normal 0 0 1
    outer loop
      vertex 59 29.8889 342
      vertex 69.2969 41.2274 342
      vertex 68.625 41.6758 342
    endloop
  endfacet
  facet normal 0 0 1
    outer loop
      vertex 72.9047 -37.9838 342
      vertex 71.2559 -39.8041 342
      vertex 71.2844 -39.7833 342
    endloop
  endfacet
  facet normal 0 0 1
    outer loop
      vertex 59 29.8889 342
      vertex 68.625 41.6758 342
      vertex 66.381 42.6749 342
    endloop
  endfacet
  facet normal 0 0 1
    outer loop
      vertex 71.2559 -39.8041 342
      vertex 59 -29.8889 342
      vertex 69.2969 -41.2274 342
    endloop
  endfacet
  facet normal 0 0 1
    outer loop
      vertex 59 29.8889 342
      vertex 66.381 42.6749 342
      vertex 63.9782 43.1856 342
    endloop
  endfacet
  facet normal 0 0 1
    outer loop
      vertex 69.2969 -41.2274 342
      vertex 59 -29.8889 342
      vertex 68.625 -41.6758 342
    endloop
  endfacet
  facet normal 0 0 1
    outer loop
      vertex 59 29.8889 342
      vertex 63.9782 43.1856 342
      vertex 61.5218 43.1856 342
    endloop
  endfacet
  facet normal 0 0 1
    outer loop
      vertex 68.625 -41.6758 342
      vertex 59 -29.8889 342
      vertex 66.381 -42.6749 342
    endloop
  endfacet
  facet normal 0 0 1
    outer loop
      vertex 59 29.8889 342
      vertex 61.5218 43.1856 342
      vertex 59.119 42.6749 342
    endloop
  endfacet
  facet normal 0 0 1
    outer loop
      vertex 66.381 -42.6749 342
      vertex 59 -29.8889 342
      vertex 63.9782 -43.1856 342
    endloop
  endfacet
  facet normal 0 0 1
    outer loop
      vertex 63.9782 -43.1856 342
      vertex 59 -29.8889 342
      vertex 61.5218 -43.1856 342
    endloop
  endfacet
  facet normal -0 0 1
    outer loop
      vertex 56.875 41.6758 342
      vertex 59 29.8889 342
      vertex 59.119 42.6749 342
    endloop
  endfacet
  facet normal -0 0 1
    outer loop
      vertex 54.8877 40.2319 342
      vertex 59 29.8889 342
      vertex 56.875 41.6758 342
    endloop
  endfacet
  facet normal -0 0 1
    outer loop
      vertex 53.244 38.4065 342
      vertex 59 29.8889 342
      vertex 54.8877 40.2319 342
    endloop
  endfacet
  facet normal -0 0 1
    outer loop
      vertex 52.0158 36.2792 342
      vertex 59 29.8889 342
      vertex 53.244 38.4065 342
    endloop
  endfacet
  facet normal -0 0 1
    outer loop
      vertex 51.2568 33.943 342
      vertex 59 29.8889 342
      vertex 52.0158 36.2792 342
    endloop
  endfacet
  facet normal -0 0 1
    outer loop
      vertex 51 31.5 342
      vertex 59 29.8889 342
      vertex 51.2568 33.943 342
    endloop
  endfacet
  facet normal 0 0 1
    outer loop
      vertex 59 29.8889 342
      vertex 51 31.5 342
      vertex 51 29.8889 342
    endloop
  endfacet
  facet normal 0 0 1
    outer loop
      vertex 61.5218 -43.1856 342
      vertex 59 -29.8889 342
      vertex 59.119 -42.6749 342
    endloop
  endfacet
  facet normal 0 0 1
    outer loop
      vertex 59 -29.8889 342
      vertex 56.875 -41.6758 342
      vertex 59.119 -42.6749 342
    endloop
  endfacet
  facet normal 0 0 1
    outer loop
      vertex 59 -29.8889 342
      vertex 54.8877 -40.2319 342
      vertex 56.875 -41.6758 342
    endloop
  endfacet
  facet normal 0 0 1
    outer loop
      vertex 59 -29.8889 342
      vertex 53.244 -38.4065 342
      vertex 54.8877 -40.2319 342
    endloop
  endfacet
  facet normal 0 0 1
    outer loop
      vertex 59 -29.8889 342
      vertex 52.0158 -36.2792 342
      vertex 53.244 -38.4065 342
    endloop
  endfacet
  facet normal 0 0 1
    outer loop
      vertex 59 -29.8889 342
      vertex 51.2568 -33.943 342
      vertex 52.0158 -36.2792 342
    endloop
  endfacet
  facet normal 0 0 1
    outer loop
      vertex 51 -31.5 342
      vertex 59 -29.8889 342
      vertex 51 -29.8889 342
    endloop
  endfacet
  facet normal 0 0 1
    outer loop
      vertex 59 -29.8889 342
      vertex 51 -31.5 342
      vertex 51.2568 -33.943 342
    endloop
  endfacet
  facet normal 0 0 -1
    outer loop
      vertex 63.7106 24.8187 312
      vertex 69.6207 6.181 312
      vertex 69.48 6.14002 312
    endloop
  endfacet
  facet normal 0 0 -1
    outer loop
      vertex 63.7106 24.8187 312
      vertex 69.48 6.14002 312
      vertex 69.3569 6.06146 312
    endloop
  endfacet
  facet normal 0 0 -1
    outer loop
      vertex 69.6207 6.181 312
      vertex 69.2266 29.5983 312
      vertex 69.5 31.5 312
    endloop
  endfacet
  facet normal 0 0 -1
    outer loop
      vertex 69.6207 6.181 312
      vertex 68.4285 27.8507 312
      vertex 69.2266 29.5983 312
    endloop
  endfacet
  facet normal 0 0 -1
    outer loop
      vertex 63.7106 24.8187 312
      vertex 69.3569 6.06146 312
      vertex 67.8516 5.10131 312
    endloop
  endfacet
  facet normal 0 0 -1
    outer loop
      vertex 69.6207 6.181 312
      vertex 67.1703 26.3987 312
      vertex 68.4285 27.8507 312
    endloop
  endfacet
  facet normal 0 0 -1
    outer loop
      vertex 61.7894 24.8187 312
      vertex 67.8516 5.10131 312
      vertex 66.584 3.64933 312
    endloop
  endfacet
  facet normal 0 0 -1
    outer loop
      vertex 59.9459 25.36 312
      vertex 66.584 3.64933 312
      vertex 65.7799 1.90169 312
    endloop
  endfacet
  facet normal 0 0 -1
    outer loop
      vertex 69.6207 6.181 312
      vertex 65.554 25.36 312
      vertex 67.1703 26.3987 312
    endloop
  endfacet
  facet normal 0 0 -1
    outer loop
      vertex 51 31.5 312
      vertex 65.7799 1.90169 312
      vertex 65.5044 0 312
    endloop
  endfacet
  facet normal -0 0 -1
    outer loop
      vertex 66.584 -3.64933 312
      vertex 59.9459 -25.36 312
      vertex 65.7799 -1.90169 312
    endloop
  endfacet
  facet normal 0 0 -1
    outer loop
      vertex 69.6207 6.181 312
      vertex 63.7106 24.8187 312
      vertex 65.554 25.36 312
    endloop
  endfacet
  facet normal 0 0 -1
    outer loop
      vertex 58.3297 -26.3987 312
      vertex 65.7799 -1.90169 312
      vertex 59.9459 -25.36 312
    endloop
  endfacet
  facet normal 0 0 -1
    outer loop
      vertex 67.8516 5.10131 312
      vertex 61.7894 24.8187 312
      vertex 63.7106 24.8187 312
    endloop
  endfacet
  facet normal 0 0 -1
    outer loop
      vertex 51 -31.5 312
      vertex 65.7799 -1.90169 312
      vertex 58.3297 -26.3987 312
    endloop
  endfacet
  facet normal 0 0 -1
    outer loop
      vertex 66.584 3.64933 312
      vertex 59.9459 25.36 312
      vertex 61.7894 24.8187 312
    endloop
  endfacet
  facet normal -0 0 -1
    outer loop
      vertex 65.7799 -1.90169 312
      vertex 51 -31.5 312
      vertex 65.5044 0 312
    endloop
  endfacet
  facet normal 0 0 -1
    outer loop
      vertex 65.7799 1.90169 312
      vertex 58.3297 26.3987 312
      vertex 59.9459 25.36 312
    endloop
  endfacet
  facet normal 0 0 -1
    outer loop
      vertex 51 -31.5 312
      vertex 58.3297 -26.3987 312
      vertex 57.0715 -27.8507 312
    endloop
  endfacet
  facet normal 0 0 -1
    outer loop
      vertex 51 31.5 312
      vertex 65.5044 0 312
      vertex 51 -31.5 312
    endloop
  endfacet
  facet normal 0 0 -1
    outer loop
      vertex 51 -31.5 312
      vertex 57.0715 -27.8507 312
      vertex 56.2734 -29.5983 312
    endloop
  endfacet
  facet normal 0 0 -1
    outer loop
      vertex 65.7799 1.90169 312
      vertex 51 31.5 312
      vertex 58.3297 26.3987 312
    endloop
  endfacet
  facet normal 0 0 -1
    outer loop
      vertex 51 -31.5 312
      vertex 56.2734 -29.5983 312
      vertex 56 -31.5 312
    endloop
  endfacet
  facet normal 0 0 -1
    outer loop
      vertex 58.3297 26.3987 312
      vertex 51 31.5 312
      vertex 57.0715 27.8507 312
    endloop
  endfacet
  facet normal 0 0 -1
    outer loop
      vertex 82.8952 -0.191611 312
      vertex 82.8952 0.191611 312
      vertex 82.9155 0 312
    endloop
  endfacet
  facet normal 0 0 -1
    outer loop
      vertex 79.084 -0.15055 312
      vertex 82.8952 -0.191611 312
      vertex 82.6568 -2.44296 312
    endloop
  endfacet
  facet normal 0 -0 -1
    outer loop
      vertex 79.1058 0 312
      vertex 82.8952 -0.191611 312
      vertex 79.084 -0.15055 312
    endloop
  endfacet
  facet normal 0 0 -1
    outer loop
      vertex 79.084 0.15055 312
      vertex 82.8952 0.191611 312
      vertex 79.1058 0 312
    endloop
  endfacet
  facet normal 0 0 -1
    outer loop
      vertex 82.8952 -0.191611 312
      vertex 79.1058 0 312
      vertex 82.8952 0.191611 312
    endloop
  endfacet
  facet normal 0 0 -1
    outer loop
      vertex 76.7586 -5.10131 312
      vertex 82.6568 -2.44296 312
      vertex 78.9516 -30.7983 312
    endloop
  endfacet
  facet normal 0 0 -1
    outer loop
      vertex 82.6568 -2.44296 312
      vertex 78.8304 -1.90169 312
      vertex 79.084 -0.15055 312
    endloop
  endfacet
  facet normal 0 0 -1
    outer loop
      vertex 69.5 -31.5 312
      vertex 78.9516 -30.7983 312
      vertex 78.2683 -32.9013 312
    endloop
  endfacet
  facet normal 0 0 -1
    outer loop
      vertex 69.5 -31.5 312
      vertex 78.2683 -32.9013 312
      vertex 78.1918 -33.1354 312
    endloop
  endfacet
  facet normal -0 0 -1
    outer loop
      vertex 82.6568 -2.44296 312
      vertex 78.0896 -3.5116 312
      vertex 78.8304 -1.90169 312
    endloop
  endfacet
  facet normal 0 0 -1
    outer loop
      vertex 82.6568 -2.44296 312
      vertex 78.0262 -3.64933 312
      vertex 78.0896 -3.5116 312
    endloop
  endfacet
  facet normal 0 0 -1
    outer loop
      vertex 82.6568 -2.44296 312
      vertex 77.9264 -3.76366 312
      vertex 78.0262 -3.64933 312
    endloop
  endfacet
  facet normal 0 0 -1
    outer loop
      vertex 69.5 -31.5 312
      vertex 78.1918 -33.1354 312
      vertex 77.0862 -35.0504 312
    endloop
  endfacet
  facet normal 0 0 -1
    outer loop
      vertex 76.7972 -35.4478 312
      vertex 77.0862 -35.0504 312
      vertex 76.9625 -35.264 312
    endloop
  endfacet
  facet normal -0 0 -1
    outer loop
      vertex 77.0862 -35.0504 312
      vertex 76.7972 -35.4478 312
      vertex 69.5 -31.5 312
    endloop
  endfacet
  facet normal 0 0 -1
    outer loop
      vertex 82.6568 -2.44296 312
      vertex 76.7586 -5.10131 312
      vertex 77.9264 -3.76366 312
    endloop
  endfacet
  facet normal 0 0 -1
    outer loop
      vertex 69.2266 -33.4017 312
      vertex 76.7972 -35.4478 312
      vertex 75.3174 -37.0913 312
    endloop
  endfacet
  facet normal 0 0 -1
    outer loop
      vertex 78.9516 -30.7983 312
      vertex 69.2266 -29.5983 312
      vertex 68.4285 -27.8507 312
    endloop
  endfacet
  facet normal 0 0 -1
    outer loop
      vertex 78.9516 -30.7983 312
      vertex 75.2569 -6.05923 312
      vertex 76.7586 -5.10131 312
    endloop
  endfacet
  facet normal 0 0 -1
    outer loop
      vertex 69.2266 -33.4017 312
      vertex 75.3174 -37.0913 312
      vertex 75.1176 -37.2373 312
    endloop
  endfacet
  facet normal 0 0 -1
    outer loop
      vertex 69.2266 -33.4017 312
      vertex 75.1176 -37.2373 312
      vertex 73.3284 -38.5373 312
    endloop
  endfacet
  facet normal 0 0 -1
    outer loop
      vertex 67.1703 -26.3987 312
      vertex 78.9516 -30.7983 312
      vertex 68.4285 -27.8507 312
    endloop
  endfacet
  facet normal 0 0 -1
    outer loop
      vertex 78.9516 -30.7983 312
      vertex 75.1302 -6.14002 312
      vertex 75.2569 -6.05923 312
    endloop
  endfacet
  facet normal 0 0 -1
    outer loop
      vertex 78.9516 -30.7983 312
      vertex 73.273 -6.68129 312
      vertex 75.1302 -6.14002 312
    endloop
  endfacet
  facet normal -0 0 -1
    outer loop
      vertex 78.9516 -30.7983 312
      vertex 69.5 -31.5 312
      vertex 69.2266 -29.5983 312
    endloop
  endfacet
  facet normal 0 0 -1
    outer loop
      vertex 76.7972 -35.4478 312
      vertex 69.2266 -33.4017 312
      vertex 69.5 -31.5 312
    endloop
  endfacet
  facet normal 0 0 -1
    outer loop
      vertex 67.1703 -36.6013 312
      vertex 73.3284 -38.5373 312
      vertex 68.625 -41.6758 312
    endloop
  endfacet
  facet normal 0 0 -1
    outer loop
      vertex 73.3284 -38.5373 312
      vertex 68.4285 -35.1493 312
      vertex 69.2266 -33.4017 312
    endloop
  endfacet
  facet normal 0 0 -1
    outer loop
      vertex 73.3284 -38.5373 312
      vertex 67.1703 -36.6013 312
      vertex 68.4285 -35.1493 312
    endloop
  endfacet
  facet normal 0 0 -1
    outer loop
      vertex 65.554 -37.64 312
      vertex 68.625 -41.6758 312
      vertex 66.381 -42.6749 312
    endloop
  endfacet
  facet normal 0 0 -1
    outer loop
      vertex 68.625 -41.6758 312
      vertex 65.554 -37.64 312
      vertex 67.1703 -36.6013 312
    endloop
  endfacet
  facet normal 0 0 -1
    outer loop
      vertex 63.7106 -38.1813 312
      vertex 66.381 -42.6749 312
      vertex 63.9782 -43.1856 312
    endloop
  endfacet
  facet normal 0 0 -1
    outer loop
      vertex 66.381 -42.6749 312
      vertex 63.7106 -38.1813 312
      vertex 65.554 -37.64 312
    endloop
  endfacet
  facet normal 0 0 -1
    outer loop
      vertex 63.9782 -43.1856 312
      vertex 61.7894 -38.1813 312
      vertex 63.7106 -38.1813 312
    endloop
  endfacet
  facet normal 0 0 -1
    outer loop
      vertex 61.5218 -43.1856 312
      vertex 61.7894 -38.1813 312
      vertex 63.9782 -43.1856 312
    endloop
  endfacet
  facet normal 0 0 -1
    outer loop
      vertex 59.119 -42.6749 312
      vertex 61.7894 -38.1813 312
      vertex 61.5218 -43.1856 312
    endloop
  endfacet
  facet normal -0 0 -1
    outer loop
      vertex 61.7894 -38.1813 312
      vertex 59.119 -42.6749 312
      vertex 59.9459 -37.64 312
    endloop
  endfacet
  facet normal 0 0 -1
    outer loop
      vertex 56.875 -41.6758 312
      vertex 59.9459 -37.64 312
      vertex 59.119 -42.6749 312
    endloop
  endfacet
  facet normal -0 0 -1
    outer loop
      vertex 59.9459 -37.64 312
      vertex 56.875 -41.6758 312
      vertex 58.3297 -36.6013 312
    endloop
  endfacet
  facet normal 0 0 -1
    outer loop
      vertex 54.8877 -40.2319 312
      vertex 58.3297 -36.6013 312
      vertex 56.875 -41.6758 312
    endloop
  endfacet
  facet normal 0 0 -1
    outer loop
      vertex 53.244 -38.4065 312
      vertex 58.3297 -36.6013 312
      vertex 54.8877 -40.2319 312
    endloop
  endfacet
  facet normal -0 0 -1
    outer loop
      vertex 58.3297 -36.6013 312
      vertex 53.244 -38.4065 312
      vertex 57.0715 -35.1493 312
    endloop
  endfacet
  facet normal -0 0 -1
    outer loop
      vertex 57.0715 -35.1493 312
      vertex 52.0158 -36.2792 312
      vertex 56.2734 -33.4017 312
    endloop
  endfacet
  facet normal 0 0 -1
    outer loop
      vertex 52.0158 -36.2792 312
      vertex 57.0715 -35.1493 312
      vertex 53.244 -38.4065 312
    endloop
  endfacet
  facet normal -0 0 -1
    outer loop
      vertex 82.8952 0.191611 312
      vertex 79.084 0.15055 312
      vertex 82.6568 2.44296 312
    endloop
  endfacet
  facet normal 0 0 -1
    outer loop
      vertex 78.8304 1.90169 312
      vertex 82.6568 2.44296 312
      vertex 79.084 0.15055 312
    endloop
  endfacet
  facet normal 0 0 -1
    outer loop
      vertex 78.0896 3.5116 312
      vertex 82.6568 2.44296 312
      vertex 78.8304 1.90169 312
    endloop
  endfacet
  facet normal 0 0 -1
    outer loop
      vertex 78.0262 3.64933 312
      vertex 82.6568 2.44296 312
      vertex 78.0896 3.5116 312
    endloop
  endfacet
  facet normal 0 0 -1
    outer loop
      vertex 77.9264 3.76366 312
      vertex 82.6568 2.44296 312
      vertex 78.0262 3.64933 312
    endloop
  endfacet
  facet normal 0 0 -1
    outer loop
      vertex 76.7586 5.10131 312
      vertex 82.6568 2.44296 312
      vertex 77.9264 3.76366 312
    endloop
  endfacet
  facet normal 0 0 -1
    outer loop
      vertex 82.6568 2.44296 312
      vertex 76.7586 5.10131 312
      vertex 78.9516 30.7983 312
    endloop
  endfacet
  facet normal 0 0 -1
    outer loop
      vertex 75.2569 6.05923 312
      vertex 78.9516 30.7983 312
      vertex 76.7586 5.10131 312
    endloop
  endfacet
  facet normal 0 0 -1
    outer loop
      vertex 75.1302 6.14002 312
      vertex 78.9516 30.7983 312
      vertex 75.2569 6.05923 312
    endloop
  endfacet
  facet normal 0 0 -1
    outer loop
      vertex 73.273 6.68129 312
      vertex 78.9516 30.7983 312
      vertex 75.1302 6.14002 312
    endloop
  endfacet
  facet normal 0 0 -1
    outer loop
      vertex 69.5 31.5 312
      vertex 78.9516 30.7983 312
      vertex 73.273 6.68129 312
    endloop
  endfacet
  facet normal 0 0 -1
    outer loop
      vertex 78.9516 30.7983 312
      vertex 69.5 31.5 312
      vertex 78.2683 32.9013 312
    endloop
  endfacet
  facet normal -0 0 -1
    outer loop
      vertex 78.1918 33.1354 312
      vertex 69.5 31.5 312
      vertex 77.0862 35.0504 312
    endloop
  endfacet
  facet normal 0 -0 -1
    outer loop
      vertex 76.7972 35.4478 312
      vertex 77.0862 35.0504 312
      vertex 69.5 31.5 312
    endloop
  endfacet
  facet normal 0 0 -1
    outer loop
      vertex 77.0862 35.0504 312
      vertex 76.7972 35.4478 312
      vertex 76.9625 35.264 312
    endloop
  endfacet
  facet normal 0 0 -1
    outer loop
      vertex 69.2266 33.4017 312
      vertex 76.7972 35.4478 312
      vertex 69.5 31.5 312
    endloop
  endfacet
  facet normal -0 0 -1
    outer loop
      vertex 76.7972 35.4478 312
      vertex 69.2266 33.4017 312
      vertex 75.3174 37.0913 312
    endloop
  endfacet
  facet normal -0 0 -1
    outer loop
      vertex 78.2683 32.9013 312
      vertex 69.5 31.5 312
      vertex 78.1918 33.1354 312
    endloop
  endfacet
  facet normal 0 0 -1
    outer loop
      vertex 69.5 31.5 312
      vertex 73.273 6.68129 312
      vertex 71.3373 6.68129 312
    endloop
  endfacet
  facet normal 0 0 -1
    outer loop
      vertex 69.5 31.5 312
      vertex 71.3373 6.68129 312
      vertex 69.6207 6.181 312
    endloop
  endfacet
  facet normal -0 0 -1
    outer loop
      vertex 75.3174 37.0913 312
      vertex 69.2266 33.4017 312
      vertex 75.1176 37.2373 312
    endloop
  endfacet
  facet normal -0 0 -1
    outer loop
      vertex 75.1176 37.2373 312
      vertex 69.2266 33.4017 312
      vertex 73.3284 38.5373 312
    endloop
  endfacet
  facet normal 0 0 -1
    outer loop
      vertex 68.4285 35.1493 312
      vertex 73.3284 38.5373 312
      vertex 69.2266 33.4017 312
    endloop
  endfacet
  facet normal 0 0 -1
    outer loop
      vertex 67.1703 36.6013 312
      vertex 73.3284 38.5373 312
      vertex 68.4285 35.1493 312
    endloop
  endfacet
  facet normal -0 0 -1
    outer loop
      vertex 73.3284 38.5373 312
      vertex 67.1703 36.6013 312
      vertex 68.625 41.6758 312
    endloop
  endfacet
  facet normal 0 0 -1
    outer loop
      vertex 65.554 37.64 312
      vertex 68.625 41.6758 312
      vertex 67.1703 36.6013 312
    endloop
  endfacet
  facet normal -0 0 -1
    outer loop
      vertex 68.625 41.6758 312
      vertex 65.554 37.64 312
      vertex 66.381 42.6749 312
    endloop
  endfacet
  facet normal 0 0 -1
    outer loop
      vertex 63.7106 38.1813 312
      vertex 66.381 42.6749 312
      vertex 65.554 37.64 312
    endloop
  endfacet
  facet normal -0 0 -1
    outer loop
      vertex 66.381 42.6749 312
      vertex 63.7106 38.1813 312
      vertex 63.9782 43.1856 312
    endloop
  endfacet
  facet normal 0 0 -1
    outer loop
      vertex 61.7894 38.1813 312
      vertex 63.9782 43.1856 312
      vertex 63.7106 38.1813 312
    endloop
  endfacet
  facet normal 0 0 -1
    outer loop
      vertex 61.7894 38.1813 312
      vertex 61.5218 43.1856 312
      vertex 63.9782 43.1856 312
    endloop
  endfacet
  facet normal 0 0 -1
    outer loop
      vertex 59.119 42.6749 312
      vertex 61.7894 38.1813 312
      vertex 59.9459 37.64 312
    endloop
  endfacet
  facet normal 0 0 -1
    outer loop
      vertex 61.7894 38.1813 312
      vertex 59.119 42.6749 312
      vertex 61.5218 43.1856 312
    endloop
  endfacet
  facet normal 0 0 -1
    outer loop
      vertex 56.875 41.6758 312
      vertex 59.9459 37.64 312
      vertex 58.3297 36.6013 312
    endloop
  endfacet
  facet normal 0 0 -1
    outer loop
      vertex 53.244 38.4065 312
      vertex 58.3297 36.6013 312
      vertex 57.0715 35.1493 312
    endloop
  endfacet
  facet normal 0 0 -1
    outer loop
      vertex 59.9459 37.64 312
      vertex 56.875 41.6758 312
      vertex 59.119 42.6749 312
    endloop
  endfacet
  facet normal 0 0 -1
    outer loop
      vertex 52.0158 36.2792 312
      vertex 57.0715 35.1493 312
      vertex 56.2734 33.4017 312
    endloop
  endfacet
  facet normal 0 0 -1
    outer loop
      vertex 51.2568 33.943 312
      vertex 56.2734 33.4017 312
      vertex 56 31.5 312
    endloop
  endfacet
  facet normal 0 0 -1
    outer loop
      vertex 58.3297 36.6013 312
      vertex 54.8877 40.2319 312
      vertex 56.875 41.6758 312
    endloop
  endfacet
  facet normal 0 0 -1
    outer loop
      vertex 57.0715 27.8507 312
      vertex 51 31.5 312
      vertex 56.2734 29.5983 312
    endloop
  endfacet
  facet normal 0 0 -1
    outer loop
      vertex 51.2568 -33.943 312
      vertex 56.2734 -33.4017 312
      vertex 52.0158 -36.2792 312
    endloop
  endfacet
  facet normal 0 0 -1
    outer loop
      vertex 56.2734 29.5983 312
      vertex 51 31.5 312
      vertex 56 31.5 312
    endloop
  endfacet
  facet normal -0 0 -1
    outer loop
      vertex 56.2734 -33.4017 312
      vertex 51.2568 -33.943 312
      vertex 56 -31.5 312
    endloop
  endfacet
  facet normal 0 -0 -1
    outer loop
      vertex 51.2568 33.943 312
      vertex 56 31.5 312
      vertex 51 31.5 312
    endloop
  endfacet
  facet normal -0 0 -1
    outer loop
      vertex 56 -31.5 312
      vertex 51.2568 -33.943 312
      vertex 51 -31.5 312
    endloop
  endfacet
  facet normal 0 0 -1
    outer loop
      vertex 58.3297 36.6013 312
      vertex 53.244 38.4065 312
      vertex 54.8877 40.2319 312
    endloop
  endfacet
  facet normal 0 0 -1
    outer loop
      vertex 57.0715 35.1493 312
      vertex 52.0158 36.2792 312
      vertex 53.244 38.4065 312
    endloop
  endfacet
  facet normal 0 0 -1
    outer loop
      vertex 56.2734 33.4017 312
      vertex 51.2568 33.943 312
      vertex 52.0158 36.2792 312
    endloop
  endfacet
  facet normal 0 0 -1
    outer loop
      vertex 78.9516 -30.7983 312
      vertex 67.1703 -26.3987 312
      vertex 73.273 -6.68129 312
    endloop
  endfacet
  facet normal -0 0 -1
    outer loop
      vertex 73.273 -6.68129 312
      vertex 67.1703 -26.3987 312
      vertex 71.3373 -6.68129 312
    endloop
  endfacet
  facet normal 0 0 -1
    outer loop
      vertex 65.554 -25.36 312
      vertex 71.3373 -6.68129 312
      vertex 67.1703 -26.3987 312
    endloop
  endfacet
  facet normal -0 0 -1
    outer loop
      vertex 71.3373 -6.68129 312
      vertex 65.554 -25.36 312
      vertex 69.6207 -6.181 312
    endloop
  endfacet
  facet normal 0 0 -1
    outer loop
      vertex 63.7106 -24.8187 312
      vertex 69.6207 -6.181 312
      vertex 65.554 -25.36 312
    endloop
  endfacet
  facet normal -0 0 -1
    outer loop
      vertex 69.6207 -6.181 312
      vertex 63.7106 -24.8187 312
      vertex 69.48 -6.14002 312
    endloop
  endfacet
  facet normal -0 0 -1
    outer loop
      vertex 69.48 -6.14002 312
      vertex 63.7106 -24.8187 312
      vertex 69.3569 -6.06146 312
    endloop
  endfacet
  facet normal -0 0 -1
    outer loop
      vertex 69.3569 -6.06146 312
      vertex 63.7106 -24.8187 312
      vertex 67.8516 -5.10131 312
    endloop
  endfacet
  facet normal 0 0 -1
    outer loop
      vertex 61.7894 -24.8187 312
      vertex 67.8516 -5.10131 312
      vertex 63.7106 -24.8187 312
    endloop
  endfacet
  facet normal -0 0 -1
    outer loop
      vertex 67.8516 -5.10131 312
      vertex 61.7894 -24.8187 312
      vertex 66.584 -3.64933 312
    endloop
  endfacet
  facet normal 0 0 -1
    outer loop
      vertex 59.9459 -25.36 312
      vertex 66.584 -3.64933 312
      vertex 61.7894 -24.8187 312
    endloop
  endfacet
  facet normal 0 -0.908381 0.418144
    outer loop
      vertex 51 -29.8889 342
      vertex 59 -17 370
      vertex 51 -17 370
    endloop
  endfacet
  facet normal 0 -0.908381 0.418144
    outer loop
      vertex 59 -17 370
      vertex 51 -29.8889 342
      vertex 59 -29.8889 342
    endloop
  endfacet
  facet normal -0 0 1
    outer loop
      vertex 51 -7.07217 370
      vertex 59 -17 370
      vertex 59 -7.07217 370
    endloop
  endfacet
  facet normal 0 0 1
    outer loop
      vertex 59 -17 370
      vertex 51 -7.07217 370
      vertex 51 -17 370
    endloop
  endfacet
  facet normal -0 0 1
    outer loop
      vertex 51 17 370
      vertex 59 7.07217 370
      vertex 59 17 370
    endloop
  endfacet
  facet normal 0 0 1
    outer loop
      vertex 59 7.07217 370
      vertex 51 17 370
      vertex 51 7.07217 370
    endloop
  endfacet
  facet normal 1 0 0
    outer loop
      vertex 59 4.6194 358.087
      vertex 59 17 370
      vertex 59 7.07217 370
    endloop
  endfacet
  facet normal 1 0 0
    outer loop
      vertex 59 17 370
      vertex 59 4.6194 358.087
      vertex 59 29.8889 342
    endloop
  endfacet
  facet normal 1 -0 0
    outer loop
      vertex 59 3.53553 356.464
      vertex 59 29.8889 342
      vertex 59 4.6194 358.087
    endloop
  endfacet
  facet normal 1 -0 0
    outer loop
      vertex 59 1.91342 355.381
      vertex 59 29.8889 342
      vertex 59 3.53553 356.464
    endloop
  endfacet
  facet normal 1 -0 0
    outer loop
      vertex 59 1.66228 355.331
      vertex 59 29.8889 342
      vertex 59 1.91342 355.381
    endloop
  endfacet
  facet normal 1 -0 0
    outer loop
      vertex 59 0 355
      vertex 59 29.8889 342
      vertex 59 1.66228 355.331
    endloop
  endfacet
  facet normal 1 0 0
    outer loop
      vertex 59 -29.8889 342
      vertex 59 0 355
      vertex 59 -1.66228 355.331
    endloop
  endfacet
  facet normal 1 0 0
    outer loop
      vertex 59 -29.8889 342
      vertex 59 -1.66228 355.331
      vertex 59 -1.91342 355.381
    endloop
  endfacet
  facet normal 1 -0 0
    outer loop
      vertex 59 -17 370
      vertex 59 -4.6194 358.087
      vertex 59 -7.07217 370
    endloop
  endfacet
  facet normal 1 0 0
    outer loop
      vertex 59 -29.8889 342
      vertex 59 -4.6194 358.087
      vertex 59 -17 370
    endloop
  endfacet
  facet normal 1 0 0
    outer loop
      vertex 59 0 355
      vertex 59 -29.8889 342
      vertex 59 29.8889 342
    endloop
  endfacet
  facet normal 1 0 0
    outer loop
      vertex 59 -3.53553 356.464
      vertex 59 -29.8889 342
      vertex 59 -1.91342 355.381
    endloop
  endfacet
  facet normal 1 0 0
    outer loop
      vertex 59 -4.6194 358.087
      vertex 59 -29.8889 342
      vertex 59 -3.53553 356.464
    endloop
  endfacet
  facet normal 0 0.908381 0.418144
    outer loop
      vertex 59 29.8889 342
      vertex 51 17 370
      vertex 59 17 370
    endloop
  endfacet
  facet normal 0 0.908381 0.418144
    outer loop
      vertex 51 17 370
      vertex 59 29.8889 342
      vertex 51 29.8889 342
    endloop
  endfacet
endsolid OpenSCAD_Model
