solid OpenSCAD_Model
  facet normal 0 0 -1
    outer loop
      vertex -81 -20 26.75
      vertex -69 20 26.75
      vertex -69 -20 26.75
    endloop
  endfacet
  facet normal -0 0 -1
    outer loop
      vertex -69 20 26.75
      vertex -81 -20 26.75
      vertex -81 20 26.75
    endloop
  endfacet
  facet normal -1 0 0
    outer loop
      vertex -81 20 26.75
      vertex -81 6 38.75
      vertex -81 20 38.75
    endloop
  endfacet
  facet normal -1 0 0
    outer loop
      vertex -81 6 38.75
      vertex -81 -6 38.75
      vertex -81 6 53.75
    endloop
  endfacet
  facet normal -1 0 0
    outer loop
      vertex -81 20 26.75
      vertex -81 -6 38.75
      vertex -81 6 38.75
    endloop
  endfacet
  facet normal -1 0 0
    outer loop
      vertex -81 -20 26.75
      vertex -81 -6 38.75
      vertex -81 20 26.75
    endloop
  endfacet
  facet normal -1 -0 0
    outer loop
      vertex -81 -6 38.75
      vertex -81 -20 26.75
      vertex -81 -20 38.75
    endloop
  endfacet
  facet normal -1 -0 0
    outer loop
      vertex -81 6 53.75
      vertex -81 -6 38.75
      vertex -81 -6 53.75
    endloop
  endfacet
  facet normal -0 0 1
    outer loop
      vertex -81 -6 38.75
      vertex -69 -20 38.75
      vertex -69 -6 38.75
    endloop
  endfacet
  facet normal 0 0 1
    outer loop
      vertex -69 -20 38.75
      vertex -81 -6 38.75
      vertex -81 -20 38.75
    endloop
  endfacet
  facet normal -0 0 1
    outer loop
      vertex -81 20 38.75
      vertex -69 6 38.75
      vertex -69 20 38.75
    endloop
  endfacet
  facet normal 0 0 1
    outer loop
      vertex -69 6 38.75
      vertex -81 20 38.75
      vertex -81 6 38.75
    endloop
  endfacet
  facet normal 1 0 0
    outer loop
      vertex -69 6 53.75
      vertex -69 -6 53.75
      vertex -69 6 38.75
    endloop
  endfacet
  facet normal 1 -0 0
    outer loop
      vertex -69 6 38.75
      vertex -69 20 26.75
      vertex -69 20 38.75
    endloop
  endfacet
  facet normal 1 0 0
    outer loop
      vertex -69 -6 38.75
      vertex -69 6 38.75
      vertex -69 -6 53.75
    endloop
  endfacet
  facet normal 1 -0 0
    outer loop
      vertex -69 -6 38.75
      vertex -69 20 26.75
      vertex -69 6 38.75
    endloop
  endfacet
  facet normal 1 0 0
    outer loop
      vertex -69 -20 26.75
      vertex -69 -6 38.75
      vertex -69 -20 38.75
    endloop
  endfacet
  facet normal 1 0 0
    outer loop
      vertex -69 -6 38.75
      vertex -69 -20 26.75
      vertex -69 20 26.75
    endloop
  endfacet
  facet normal 0 -1 0
    outer loop
      vertex -81 -20 26.75
      vertex -69 -20 38.75
      vertex -81 -20 38.75
    endloop
  endfacet
  facet normal 0 -1 -0
    outer loop
      vertex -69 -20 38.75
      vertex -81 -20 26.75
      vertex -69 -20 26.75
    endloop
  endfacet
  facet normal 0 1 -0
    outer loop
      vertex -69 20 26.75
      vertex -81 20 38.75
      vertex -69 20 38.75
    endloop
  endfacet
  facet normal 0 1 0
    outer loop
      vertex -81 20 38.75
      vertex -69 20 26.75
      vertex -81 20 26.75
    endloop
  endfacet
  facet normal 0 0 1
    outer loop
      vertex -69 6 53.75
      vertex -72.6 0 53.75
      vertex -69 -6 53.75
    endloop
  endfacet
  facet normal 0 0 1
    outer loop
      vertex -69 6 53.75
      vertex -72.9215 1.2 53.75
      vertex -72.6 0 53.75
    endloop
  endfacet
  facet normal 0 0 1
    outer loop
      vertex -69 6 53.75
      vertex -73.8 2.07846 53.75
      vertex -72.9215 1.2 53.75
    endloop
  endfacet
  facet normal 0 0 1
    outer loop
      vertex -69 6 53.75
      vertex -75 2.4 53.75
      vertex -73.8 2.07846 53.75
    endloop
  endfacet
  facet normal -0 0 1
    outer loop
      vertex -81 6 53.75
      vertex -75 2.4 53.75
      vertex -69 6 53.75
    endloop
  endfacet
  facet normal 0 0 1
    outer loop
      vertex -77.0785 1.2 53.75
      vertex -81 6 53.75
      vertex -77.4 0 53.75
    endloop
  endfacet
  facet normal 0 0 1
    outer loop
      vertex -76.2 2.07846 53.75
      vertex -81 6 53.75
      vertex -77.0785 1.2 53.75
    endloop
  endfacet
  facet normal 0 0 1
    outer loop
      vertex -75 2.4 53.75
      vertex -81 6 53.75
      vertex -76.2 2.07846 53.75
    endloop
  endfacet
  facet normal -0 0 1
    outer loop
      vertex -72.9215 -1.2 53.75
      vertex -69 -6 53.75
      vertex -72.6 0 53.75
    endloop
  endfacet
  facet normal -0 0 1
    outer loop
      vertex -73.8 -2.07846 53.75
      vertex -69 -6 53.75
      vertex -72.9215 -1.2 53.75
    endloop
  endfacet
  facet normal -0 0 1
    outer loop
      vertex -75 -2.4 53.75
      vertex -69 -6 53.75
      vertex -73.8 -2.07846 53.75
    endloop
  endfacet
  facet normal 0 0 1
    outer loop
      vertex -81 -6 53.75
      vertex -75 -2.4 53.75
      vertex -76.2 -2.07846 53.75
    endloop
  endfacet
  facet normal 0 0 1
    outer loop
      vertex -81 -6 53.75
      vertex -77.4 0 53.75
      vertex -81 6 53.75
    endloop
  endfacet
  facet normal 0 0 1
    outer loop
      vertex -75 -2.4 53.75
      vertex -81 -6 53.75
      vertex -69 -6 53.75
    endloop
  endfacet
  facet normal 0 0 1
    outer loop
      vertex -77.0785 -1.2 53.75
      vertex -81 -6 53.75
      vertex -76.2 -2.07846 53.75
    endloop
  endfacet
  facet normal 0 0 1
    outer loop
      vertex -77.4 0 53.75
      vertex -81 -6 53.75
      vertex -77.0785 -1.2 53.75
    endloop
  endfacet
  facet normal 0 1 -0
    outer loop
      vertex -69 6 38.75
      vertex -81 6 53.75
      vertex -69 6 53.75
    endloop
  endfacet
  facet normal 0 1 0
    outer loop
      vertex -81 6 53.75
      vertex -69 6 38.75
      vertex -81 6 38.75
    endloop
  endfacet
  facet normal 0 -1 0
    outer loop
      vertex -81 -6 38.75
      vertex -69 -6 53.75
      vertex -81 -6 53.75
    endloop
  endfacet
  facet normal 0 -1 -0
    outer loop
      vertex -69 -6 53.75
      vertex -81 -6 38.75
      vertex -69 -6 38.75
    endloop
  endfacet
  facet normal 0.965925 -0.25882 0
    outer loop
      vertex -77.4 0 53.75
      vertex -77.0785 1.2 28.75
      vertex -77.0785 1.2 53.75
    endloop
  endfacet
  facet normal 0.965925 -0.25882 0
    outer loop
      vertex -77.0785 1.2 28.75
      vertex -77.4 0 53.75
      vertex -77.4 0 28.75
    endloop
  endfacet
  facet normal 0.707106 -0.707108 0
    outer loop
      vertex -77.0785 1.2 28.75
      vertex -76.2 2.07846 53.75
      vertex -77.0785 1.2 53.75
    endloop
  endfacet
  facet normal 0.707106 -0.707108 0
    outer loop
      vertex -76.2 2.07846 53.75
      vertex -77.0785 1.2 28.75
      vertex -76.2 2.07846 28.75
    endloop
  endfacet
  facet normal -0.965925 -0.25882 0
    outer loop
      vertex -72.6 0 28.75
      vertex -72.9215 1.2 53.75
      vertex -72.9215 1.2 28.75
    endloop
  endfacet
  facet normal -0.965925 -0.25882 0
    outer loop
      vertex -72.9215 1.2 53.75
      vertex -72.6 0 28.75
      vertex -72.6 0 53.75
    endloop
  endfacet
  facet normal -0.25882 -0.965926 0
    outer loop
      vertex -75 2.4 28.75
      vertex -73.8 2.07846 53.75
      vertex -75 2.4 53.75
    endloop
  endfacet
  facet normal -0.25882 -0.965926 -0
    outer loop
      vertex -73.8 2.07846 53.75
      vertex -75 2.4 28.75
      vertex -73.8 2.07846 28.75
    endloop
  endfacet
  facet normal 0.707106 0.707108 -0
    outer loop
      vertex -76.2 -2.07846 28.75
      vertex -77.0785 -1.2 53.75
      vertex -76.2 -2.07846 53.75
    endloop
  endfacet
  facet normal 0.707106 0.707108 0
    outer loop
      vertex -77.0785 -1.2 53.75
      vertex -76.2 -2.07846 28.75
      vertex -77.0785 -1.2 28.75
    endloop
  endfacet
  facet normal -0.707106 -0.707108 0
    outer loop
      vertex -73.8 2.07846 28.75
      vertex -72.9215 1.2 53.75
      vertex -73.8 2.07846 53.75
    endloop
  endfacet
  facet normal -0.707106 -0.707108 -0
    outer loop
      vertex -72.9215 1.2 53.75
      vertex -73.8 2.07846 28.75
      vertex -72.9215 1.2 28.75
    endloop
  endfacet
  facet normal 0.965925 0.25882 0
    outer loop
      vertex -77.0785 -1.2 53.75
      vertex -77.4 0 28.75
      vertex -77.4 0 53.75
    endloop
  endfacet
  facet normal 0.965925 0.25882 0
    outer loop
      vertex -77.4 0 28.75
      vertex -77.0785 -1.2 53.75
      vertex -77.0785 -1.2 28.75
    endloop
  endfacet
  facet normal 0.25882 -0.965926 0
    outer loop
      vertex -76.2 2.07846 28.75
      vertex -75 2.4 53.75
      vertex -76.2 2.07846 53.75
    endloop
  endfacet
  facet normal 0.25882 -0.965926 0
    outer loop
      vertex -75 2.4 53.75
      vertex -76.2 2.07846 28.75
      vertex -75 2.4 28.75
    endloop
  endfacet
  facet normal 0.25882 0.965926 -0
    outer loop
      vertex -75 -2.4 28.75
      vertex -76.2 -2.07846 53.75
      vertex -75 -2.4 53.75
    endloop
  endfacet
  facet normal 0.25882 0.965926 0
    outer loop
      vertex -76.2 -2.07846 53.75
      vertex -75 -2.4 28.75
      vertex -76.2 -2.07846 28.75
    endloop
  endfacet
  facet normal 0 0 1
    outer loop
      vertex -72.9215 1.2 28.75
      vertex -72.9215 -1.2 28.75
      vertex -72.6 0 28.75
    endloop
  endfacet
  facet normal 0 0 1
    outer loop
      vertex -73.8 2.07846 28.75
      vertex -72.9215 -1.2 28.75
      vertex -72.9215 1.2 28.75
    endloop
  endfacet
  facet normal 0 0 1
    outer loop
      vertex -73.8 2.07846 28.75
      vertex -73.8 -2.07846 28.75
      vertex -72.9215 -1.2 28.75
    endloop
  endfacet
  facet normal 0 0 1
    outer loop
      vertex -75 2.4 28.75
      vertex -73.8 -2.07846 28.75
      vertex -73.8 2.07846 28.75
    endloop
  endfacet
  facet normal 0 0 1
    outer loop
      vertex -75 2.4 28.75
      vertex -75 -2.4 28.75
      vertex -73.8 -2.07846 28.75
    endloop
  endfacet
  facet normal -0 0 1
    outer loop
      vertex -76.2 2.07846 28.75
      vertex -75 -2.4 28.75
      vertex -75 2.4 28.75
    endloop
  endfacet
  facet normal 0 0 1
    outer loop
      vertex -76.2 2.07846 28.75
      vertex -76.2 -2.07846 28.75
      vertex -75 -2.4 28.75
    endloop
  endfacet
  facet normal -0 0 1
    outer loop
      vertex -77.0785 1.2 28.75
      vertex -76.2 -2.07846 28.75
      vertex -76.2 2.07846 28.75
    endloop
  endfacet
  facet normal 0 0 1
    outer loop
      vertex -77.0785 1.2 28.75
      vertex -77.0785 -1.2 28.75
      vertex -76.2 -2.07846 28.75
    endloop
  endfacet
  facet normal 0 -0 1
    outer loop
      vertex -77.0785 -1.2 28.75
      vertex -77.0785 1.2 28.75
      vertex -77.4 0 28.75
    endloop
  endfacet
  facet normal -0.25882 0.965926 0
    outer loop
      vertex -73.8 -2.07846 28.75
      vertex -75 -2.4 53.75
      vertex -73.8 -2.07846 53.75
    endloop
  endfacet
  facet normal -0.25882 0.965926 0
    outer loop
      vertex -75 -2.4 53.75
      vertex -73.8 -2.07846 28.75
      vertex -75 -2.4 28.75
    endloop
  endfacet
  facet normal -0.707106 0.707108 0
    outer loop
      vertex -72.9215 -1.2 28.75
      vertex -73.8 -2.07846 53.75
      vertex -72.9215 -1.2 53.75
    endloop
  endfacet
  facet normal -0.707106 0.707108 0
    outer loop
      vertex -73.8 -2.07846 53.75
      vertex -72.9215 -1.2 28.75
      vertex -73.8 -2.07846 28.75
    endloop
  endfacet
  facet normal -0.965925 0.25882 0
    outer loop
      vertex -72.9215 -1.2 28.75
      vertex -72.6 0 53.75
      vertex -72.6 0 28.75
    endloop
  endfacet
  facet normal -0.965925 0.25882 0
    outer loop
      vertex -72.6 0 53.75
      vertex -72.9215 -1.2 28.75
      vertex -72.9215 -1.2 53.75
    endloop
  endfacet
endsolid OpenSCAD_Model
